%TF.GenerationSoftware,KiCad,Pcbnew,10.0.1*%
%TF.CreationDate,2026-08-09T13:27:48+02:00*%
%TF.ProjectId,psu-ext,7073752d-6578-4742-9e6b-696361645f70,1.2.0*%
%TF.SameCoordinates,Original*%
%TF.FileFunction,Legend,Bot*%
%TF.FilePolarity,Positive*%
%FSLAX46Y46*%
G04 Gerber Fmt 4.6, Leading zero omitted, Abs format (unit mm)*
G04 Created by KiCad (PCBNEW 10.0.1) date 2026-08-09 13:27:48*
%MOMM*%
%LPD*%
G01*
G04 APERTURE LIST*
G04 Aperture macros list*
%AMRoundRect*
0 Rectangle with rounded corners*
0 $1 Rounding radius*
0 $2 $3 $4 $5 $6 $7 $8 $9 X,Y pos of 4 corners*
0 Add a 4 corners polygon primitive as box body*
4,1,4,$2,$3,$4,$5,$6,$7,$8,$9,$2,$3,0*
0 Add four circle primitives for the rounded corners*
1,1,$1+$1,$2,$3*
1,1,$1+$1,$4,$5*
1,1,$1+$1,$6,$7*
1,1,$1+$1,$8,$9*
0 Add four rect primitives between the rounded corners*
20,1,$1+$1,$2,$3,$4,$5,0*
20,1,$1+$1,$4,$5,$6,$7,0*
20,1,$1+$1,$6,$7,$8,$9,0*
20,1,$1+$1,$8,$9,$2,$3,0*%
G04 Aperture macros list end*
%ADD10C,0.150000*%
%ADD11C,0.120000*%
%ADD12C,0.000000*%
%ADD13RoundRect,0.102000X0.754000X0.754000X-0.754000X0.754000X-0.754000X-0.754000X0.754000X-0.754000X0*%
%ADD14C,1.712000*%
%ADD15C,2.004000*%
%ADD16C,1.300000*%
%ADD17R,1.700000X1.700000*%
%ADD18C,1.700000*%
%ADD19C,5.700000*%
%ADD20C,0.600000*%
%ADD21O,1.104000X2.204000*%
%ADD22O,1.104000X1.904000*%
%ADD23C,7.600000*%
%ADD24RoundRect,0.250000X0.262500X0.450000X-0.262500X0.450000X-0.262500X-0.450000X0.262500X-0.450000X0*%
%ADD25RoundRect,0.250000X-0.512652X-0.159099X-0.159099X-0.512652X0.512652X0.159099X0.159099X0.512652X0*%
%ADD26RoundRect,0.250000X-0.450000X0.262500X-0.450000X-0.262500X0.450000X-0.262500X0.450000X0.262500X0*%
%ADD27RoundRect,0.250000X-0.250000X-0.475000X0.250000X-0.475000X0.250000X0.475000X-0.250000X0.475000X0*%
%ADD28C,1.500000*%
%ADD29RoundRect,0.250000X-0.475000X0.250000X-0.475000X-0.250000X0.475000X-0.250000X0.475000X0.250000X0*%
%ADD30RoundRect,0.250000X0.400000X0.600000X-0.400000X0.600000X-0.400000X-0.600000X0.400000X-0.600000X0*%
%ADD31RoundRect,0.150000X0.587500X0.150000X-0.587500X0.150000X-0.587500X-0.150000X0.587500X-0.150000X0*%
%ADD32RoundRect,0.250000X0.132583X-0.503814X0.503814X-0.132583X-0.132583X0.503814X-0.503814X0.132583X0*%
%ADD33RoundRect,0.250000X0.512652X0.159099X0.159099X0.512652X-0.512652X-0.159099X-0.159099X-0.512652X0*%
%ADD34RoundRect,0.250000X-0.262500X-0.450000X0.262500X-0.450000X0.262500X0.450000X-0.262500X0.450000X0*%
%ADD35RoundRect,0.150000X-0.247487X-0.035355X-0.035355X-0.247487X0.247487X0.035355X0.035355X0.247487X0*%
%ADD36RoundRect,0.250000X1.000000X0.900000X-1.000000X0.900000X-1.000000X-0.900000X1.000000X-0.900000X0*%
%ADD37RoundRect,0.250000X0.450000X-0.262500X0.450000X0.262500X-0.450000X0.262500X-0.450000X-0.262500X0*%
G04 APERTURE END LIST*
D10*
X143365460Y-87991553D02*
X143413079Y-88039173D01*
X143413079Y-88039173D02*
X143555936Y-88086792D01*
X143555936Y-88086792D02*
X143651174Y-88086792D01*
X143651174Y-88086792D02*
X143794031Y-88039173D01*
X143794031Y-88039173D02*
X143889269Y-87943934D01*
X143889269Y-87943934D02*
X143936888Y-87848696D01*
X143936888Y-87848696D02*
X143984507Y-87658220D01*
X143984507Y-87658220D02*
X143984507Y-87515363D01*
X143984507Y-87515363D02*
X143936888Y-87324887D01*
X143936888Y-87324887D02*
X143889269Y-87229649D01*
X143889269Y-87229649D02*
X143794031Y-87134411D01*
X143794031Y-87134411D02*
X143651174Y-87086792D01*
X143651174Y-87086792D02*
X143555936Y-87086792D01*
X143555936Y-87086792D02*
X143413079Y-87134411D01*
X143413079Y-87134411D02*
X143365460Y-87182030D01*
X142936888Y-87562982D02*
X142603555Y-87562982D01*
X142460698Y-88086792D02*
X142936888Y-88086792D01*
X142936888Y-88086792D02*
X142936888Y-87086792D01*
X142936888Y-87086792D02*
X142460698Y-87086792D01*
X141460698Y-88086792D02*
X141794031Y-87610601D01*
X142032126Y-88086792D02*
X142032126Y-87086792D01*
X142032126Y-87086792D02*
X141651174Y-87086792D01*
X141651174Y-87086792D02*
X141555936Y-87134411D01*
X141555936Y-87134411D02*
X141508317Y-87182030D01*
X141508317Y-87182030D02*
X141460698Y-87277268D01*
X141460698Y-87277268D02*
X141460698Y-87420125D01*
X141460698Y-87420125D02*
X141508317Y-87515363D01*
X141508317Y-87515363D02*
X141555936Y-87562982D01*
X141555936Y-87562982D02*
X141651174Y-87610601D01*
X141651174Y-87610601D02*
X142032126Y-87610601D01*
X141032126Y-88086792D02*
X141032126Y-87086792D01*
X141032126Y-87086792D02*
X140460698Y-88086792D01*
X140460698Y-88086792D02*
X140460698Y-87086792D01*
X139984507Y-87705839D02*
X139222603Y-87705839D01*
X138555936Y-87086792D02*
X138365460Y-87086792D01*
X138365460Y-87086792D02*
X138270222Y-87134411D01*
X138270222Y-87134411D02*
X138174984Y-87229649D01*
X138174984Y-87229649D02*
X138127365Y-87420125D01*
X138127365Y-87420125D02*
X138127365Y-87753458D01*
X138127365Y-87753458D02*
X138174984Y-87943934D01*
X138174984Y-87943934D02*
X138270222Y-88039173D01*
X138270222Y-88039173D02*
X138365460Y-88086792D01*
X138365460Y-88086792D02*
X138555936Y-88086792D01*
X138555936Y-88086792D02*
X138651174Y-88039173D01*
X138651174Y-88039173D02*
X138746412Y-87943934D01*
X138746412Y-87943934D02*
X138794031Y-87753458D01*
X138794031Y-87753458D02*
X138794031Y-87420125D01*
X138794031Y-87420125D02*
X138746412Y-87229649D01*
X138746412Y-87229649D02*
X138651174Y-87134411D01*
X138651174Y-87134411D02*
X138555936Y-87086792D01*
X137698793Y-88086792D02*
X137698793Y-87086792D01*
X137698793Y-87562982D02*
X137127365Y-87562982D01*
X137127365Y-88086792D02*
X137127365Y-87086792D01*
X136174984Y-88086792D02*
X136651174Y-88086792D01*
X136651174Y-88086792D02*
X136651174Y-87086792D01*
X135841650Y-87705839D02*
X135079746Y-87705839D01*
X134651174Y-88039173D02*
X134508317Y-88086792D01*
X134508317Y-88086792D02*
X134270222Y-88086792D01*
X134270222Y-88086792D02*
X134174984Y-88039173D01*
X134174984Y-88039173D02*
X134127365Y-87991553D01*
X134127365Y-87991553D02*
X134079746Y-87896315D01*
X134079746Y-87896315D02*
X134079746Y-87801077D01*
X134079746Y-87801077D02*
X134127365Y-87705839D01*
X134127365Y-87705839D02*
X134174984Y-87658220D01*
X134174984Y-87658220D02*
X134270222Y-87610601D01*
X134270222Y-87610601D02*
X134460698Y-87562982D01*
X134460698Y-87562982D02*
X134555936Y-87515363D01*
X134555936Y-87515363D02*
X134603555Y-87467744D01*
X134603555Y-87467744D02*
X134651174Y-87372506D01*
X134651174Y-87372506D02*
X134651174Y-87277268D01*
X134651174Y-87277268D02*
X134603555Y-87182030D01*
X134603555Y-87182030D02*
X134555936Y-87134411D01*
X134555936Y-87134411D02*
X134460698Y-87086792D01*
X134460698Y-87086792D02*
X134222603Y-87086792D01*
X134222603Y-87086792D02*
X134079746Y-87134411D01*
X132984507Y-87420125D02*
X132746412Y-88086792D01*
X132746412Y-88086792D02*
X132508317Y-87420125D01*
X132174983Y-87182030D02*
X132127364Y-87134411D01*
X132127364Y-87134411D02*
X132032126Y-87086792D01*
X132032126Y-87086792D02*
X131794031Y-87086792D01*
X131794031Y-87086792D02*
X131698793Y-87134411D01*
X131698793Y-87134411D02*
X131651174Y-87182030D01*
X131651174Y-87182030D02*
X131603555Y-87277268D01*
X131603555Y-87277268D02*
X131603555Y-87372506D01*
X131603555Y-87372506D02*
X131651174Y-87515363D01*
X131651174Y-87515363D02*
X132222602Y-88086792D01*
X132222602Y-88086792D02*
X131603555Y-88086792D01*
X143984507Y-89649117D02*
X143841650Y-89696736D01*
X143841650Y-89696736D02*
X143603555Y-89696736D01*
X143603555Y-89696736D02*
X143508317Y-89649117D01*
X143508317Y-89649117D02*
X143460698Y-89601497D01*
X143460698Y-89601497D02*
X143413079Y-89506259D01*
X143413079Y-89506259D02*
X143413079Y-89411021D01*
X143413079Y-89411021D02*
X143460698Y-89315783D01*
X143460698Y-89315783D02*
X143508317Y-89268164D01*
X143508317Y-89268164D02*
X143603555Y-89220545D01*
X143603555Y-89220545D02*
X143794031Y-89172926D01*
X143794031Y-89172926D02*
X143889269Y-89125307D01*
X143889269Y-89125307D02*
X143936888Y-89077688D01*
X143936888Y-89077688D02*
X143984507Y-88982450D01*
X143984507Y-88982450D02*
X143984507Y-88887212D01*
X143984507Y-88887212D02*
X143936888Y-88791974D01*
X143936888Y-88791974D02*
X143889269Y-88744355D01*
X143889269Y-88744355D02*
X143794031Y-88696736D01*
X143794031Y-88696736D02*
X143555936Y-88696736D01*
X143555936Y-88696736D02*
X143413079Y-88744355D01*
X142841650Y-89696736D02*
X142936888Y-89649117D01*
X142936888Y-89649117D02*
X142984507Y-89601497D01*
X142984507Y-89601497D02*
X143032126Y-89506259D01*
X143032126Y-89506259D02*
X143032126Y-89220545D01*
X143032126Y-89220545D02*
X142984507Y-89125307D01*
X142984507Y-89125307D02*
X142936888Y-89077688D01*
X142936888Y-89077688D02*
X142841650Y-89030069D01*
X142841650Y-89030069D02*
X142698793Y-89030069D01*
X142698793Y-89030069D02*
X142603555Y-89077688D01*
X142603555Y-89077688D02*
X142555936Y-89125307D01*
X142555936Y-89125307D02*
X142508317Y-89220545D01*
X142508317Y-89220545D02*
X142508317Y-89506259D01*
X142508317Y-89506259D02*
X142555936Y-89601497D01*
X142555936Y-89601497D02*
X142603555Y-89649117D01*
X142603555Y-89649117D02*
X142698793Y-89696736D01*
X142698793Y-89696736D02*
X142841650Y-89696736D01*
X141651174Y-89030069D02*
X141651174Y-89696736D01*
X142079745Y-89030069D02*
X142079745Y-89553878D01*
X142079745Y-89553878D02*
X142032126Y-89649117D01*
X142032126Y-89649117D02*
X141936888Y-89696736D01*
X141936888Y-89696736D02*
X141794031Y-89696736D01*
X141794031Y-89696736D02*
X141698793Y-89649117D01*
X141698793Y-89649117D02*
X141651174Y-89601497D01*
X141174983Y-89696736D02*
X141174983Y-89030069D01*
X141174983Y-89220545D02*
X141127364Y-89125307D01*
X141127364Y-89125307D02*
X141079745Y-89077688D01*
X141079745Y-89077688D02*
X140984507Y-89030069D01*
X140984507Y-89030069D02*
X140889269Y-89030069D01*
X140127364Y-89649117D02*
X140222602Y-89696736D01*
X140222602Y-89696736D02*
X140413078Y-89696736D01*
X140413078Y-89696736D02*
X140508316Y-89649117D01*
X140508316Y-89649117D02*
X140555935Y-89601497D01*
X140555935Y-89601497D02*
X140603554Y-89506259D01*
X140603554Y-89506259D02*
X140603554Y-89220545D01*
X140603554Y-89220545D02*
X140555935Y-89125307D01*
X140555935Y-89125307D02*
X140508316Y-89077688D01*
X140508316Y-89077688D02*
X140413078Y-89030069D01*
X140413078Y-89030069D02*
X140222602Y-89030069D01*
X140222602Y-89030069D02*
X140127364Y-89077688D01*
X139317840Y-89649117D02*
X139413078Y-89696736D01*
X139413078Y-89696736D02*
X139603554Y-89696736D01*
X139603554Y-89696736D02*
X139698792Y-89649117D01*
X139698792Y-89649117D02*
X139746411Y-89553878D01*
X139746411Y-89553878D02*
X139746411Y-89172926D01*
X139746411Y-89172926D02*
X139698792Y-89077688D01*
X139698792Y-89077688D02*
X139603554Y-89030069D01*
X139603554Y-89030069D02*
X139413078Y-89030069D01*
X139413078Y-89030069D02*
X139317840Y-89077688D01*
X139317840Y-89077688D02*
X139270221Y-89172926D01*
X139270221Y-89172926D02*
X139270221Y-89268164D01*
X139270221Y-89268164D02*
X139746411Y-89363402D01*
X138841649Y-89601497D02*
X138794030Y-89649117D01*
X138794030Y-89649117D02*
X138841649Y-89696736D01*
X138841649Y-89696736D02*
X138889268Y-89649117D01*
X138889268Y-89649117D02*
X138841649Y-89601497D01*
X138841649Y-89601497D02*
X138841649Y-89696736D01*
X138841649Y-89077688D02*
X138794030Y-89125307D01*
X138794030Y-89125307D02*
X138841649Y-89172926D01*
X138841649Y-89172926D02*
X138889268Y-89125307D01*
X138889268Y-89125307D02*
X138841649Y-89077688D01*
X138841649Y-89077688D02*
X138841649Y-89172926D01*
X143508317Y-90640013D02*
X143508317Y-91449537D01*
X143508317Y-91449537D02*
X143555936Y-91544775D01*
X143555936Y-91544775D02*
X143603555Y-91592394D01*
X143603555Y-91592394D02*
X143698793Y-91640013D01*
X143698793Y-91640013D02*
X143841650Y-91640013D01*
X143841650Y-91640013D02*
X143936888Y-91592394D01*
X143508317Y-91259061D02*
X143603555Y-91306680D01*
X143603555Y-91306680D02*
X143794031Y-91306680D01*
X143794031Y-91306680D02*
X143889269Y-91259061D01*
X143889269Y-91259061D02*
X143936888Y-91211441D01*
X143936888Y-91211441D02*
X143984507Y-91116203D01*
X143984507Y-91116203D02*
X143984507Y-90830489D01*
X143984507Y-90830489D02*
X143936888Y-90735251D01*
X143936888Y-90735251D02*
X143889269Y-90687632D01*
X143889269Y-90687632D02*
X143794031Y-90640013D01*
X143794031Y-90640013D02*
X143603555Y-90640013D01*
X143603555Y-90640013D02*
X143508317Y-90687632D01*
X143032126Y-91306680D02*
X143032126Y-90640013D01*
X143032126Y-90306680D02*
X143079745Y-90354299D01*
X143079745Y-90354299D02*
X143032126Y-90401918D01*
X143032126Y-90401918D02*
X142984507Y-90354299D01*
X142984507Y-90354299D02*
X143032126Y-90306680D01*
X143032126Y-90306680D02*
X143032126Y-90401918D01*
X142698793Y-90640013D02*
X142317841Y-90640013D01*
X142555936Y-90306680D02*
X142555936Y-91163822D01*
X142555936Y-91163822D02*
X142508317Y-91259061D01*
X142508317Y-91259061D02*
X142413079Y-91306680D01*
X142413079Y-91306680D02*
X142317841Y-91306680D01*
X141984507Y-91306680D02*
X141984507Y-90306680D01*
X141555936Y-91306680D02*
X141555936Y-90782870D01*
X141555936Y-90782870D02*
X141603555Y-90687632D01*
X141603555Y-90687632D02*
X141698793Y-90640013D01*
X141698793Y-90640013D02*
X141841650Y-90640013D01*
X141841650Y-90640013D02*
X141936888Y-90687632D01*
X141936888Y-90687632D02*
X141984507Y-90735251D01*
X140651174Y-90640013D02*
X140651174Y-91306680D01*
X141079745Y-90640013D02*
X141079745Y-91163822D01*
X141079745Y-91163822D02*
X141032126Y-91259061D01*
X141032126Y-91259061D02*
X140936888Y-91306680D01*
X140936888Y-91306680D02*
X140794031Y-91306680D01*
X140794031Y-91306680D02*
X140698793Y-91259061D01*
X140698793Y-91259061D02*
X140651174Y-91211441D01*
X140174983Y-91306680D02*
X140174983Y-90306680D01*
X140174983Y-90687632D02*
X140079745Y-90640013D01*
X140079745Y-90640013D02*
X139889269Y-90640013D01*
X139889269Y-90640013D02*
X139794031Y-90687632D01*
X139794031Y-90687632D02*
X139746412Y-90735251D01*
X139746412Y-90735251D02*
X139698793Y-90830489D01*
X139698793Y-90830489D02*
X139698793Y-91116203D01*
X139698793Y-91116203D02*
X139746412Y-91211441D01*
X139746412Y-91211441D02*
X139794031Y-91259061D01*
X139794031Y-91259061D02*
X139889269Y-91306680D01*
X139889269Y-91306680D02*
X140079745Y-91306680D01*
X140079745Y-91306680D02*
X140174983Y-91259061D01*
X139270221Y-91211441D02*
X139222602Y-91259061D01*
X139222602Y-91259061D02*
X139270221Y-91306680D01*
X139270221Y-91306680D02*
X139317840Y-91259061D01*
X139317840Y-91259061D02*
X139270221Y-91211441D01*
X139270221Y-91211441D02*
X139270221Y-91306680D01*
X138365460Y-91259061D02*
X138460698Y-91306680D01*
X138460698Y-91306680D02*
X138651174Y-91306680D01*
X138651174Y-91306680D02*
X138746412Y-91259061D01*
X138746412Y-91259061D02*
X138794031Y-91211441D01*
X138794031Y-91211441D02*
X138841650Y-91116203D01*
X138841650Y-91116203D02*
X138841650Y-90830489D01*
X138841650Y-90830489D02*
X138794031Y-90735251D01*
X138794031Y-90735251D02*
X138746412Y-90687632D01*
X138746412Y-90687632D02*
X138651174Y-90640013D01*
X138651174Y-90640013D02*
X138460698Y-90640013D01*
X138460698Y-90640013D02*
X138365460Y-90687632D01*
X137794031Y-91306680D02*
X137889269Y-91259061D01*
X137889269Y-91259061D02*
X137936888Y-91211441D01*
X137936888Y-91211441D02*
X137984507Y-91116203D01*
X137984507Y-91116203D02*
X137984507Y-90830489D01*
X137984507Y-90830489D02*
X137936888Y-90735251D01*
X137936888Y-90735251D02*
X137889269Y-90687632D01*
X137889269Y-90687632D02*
X137794031Y-90640013D01*
X137794031Y-90640013D02*
X137651174Y-90640013D01*
X137651174Y-90640013D02*
X137555936Y-90687632D01*
X137555936Y-90687632D02*
X137508317Y-90735251D01*
X137508317Y-90735251D02*
X137460698Y-90830489D01*
X137460698Y-90830489D02*
X137460698Y-91116203D01*
X137460698Y-91116203D02*
X137508317Y-91211441D01*
X137508317Y-91211441D02*
X137555936Y-91259061D01*
X137555936Y-91259061D02*
X137651174Y-91306680D01*
X137651174Y-91306680D02*
X137794031Y-91306680D01*
X137032126Y-91306680D02*
X137032126Y-90640013D01*
X137032126Y-90735251D02*
X136984507Y-90687632D01*
X136984507Y-90687632D02*
X136889269Y-90640013D01*
X136889269Y-90640013D02*
X136746412Y-90640013D01*
X136746412Y-90640013D02*
X136651174Y-90687632D01*
X136651174Y-90687632D02*
X136603555Y-90782870D01*
X136603555Y-90782870D02*
X136603555Y-91306680D01*
X136603555Y-90782870D02*
X136555936Y-90687632D01*
X136555936Y-90687632D02*
X136460698Y-90640013D01*
X136460698Y-90640013D02*
X136317841Y-90640013D01*
X136317841Y-90640013D02*
X136222602Y-90687632D01*
X136222602Y-90687632D02*
X136174983Y-90782870D01*
X136174983Y-90782870D02*
X136174983Y-91306680D01*
X134984508Y-90259061D02*
X135841650Y-91544775D01*
X134651174Y-91306680D02*
X134651174Y-90306680D01*
X134651174Y-90306680D02*
X134270222Y-90306680D01*
X134270222Y-90306680D02*
X134174984Y-90354299D01*
X134174984Y-90354299D02*
X134127365Y-90401918D01*
X134127365Y-90401918D02*
X134079746Y-90497156D01*
X134079746Y-90497156D02*
X134079746Y-90640013D01*
X134079746Y-90640013D02*
X134127365Y-90735251D01*
X134127365Y-90735251D02*
X134174984Y-90782870D01*
X134174984Y-90782870D02*
X134270222Y-90830489D01*
X134270222Y-90830489D02*
X134651174Y-90830489D01*
X133698793Y-91259061D02*
X133555936Y-91306680D01*
X133555936Y-91306680D02*
X133317841Y-91306680D01*
X133317841Y-91306680D02*
X133222603Y-91259061D01*
X133222603Y-91259061D02*
X133174984Y-91211441D01*
X133174984Y-91211441D02*
X133127365Y-91116203D01*
X133127365Y-91116203D02*
X133127365Y-91020965D01*
X133127365Y-91020965D02*
X133174984Y-90925727D01*
X133174984Y-90925727D02*
X133222603Y-90878108D01*
X133222603Y-90878108D02*
X133317841Y-90830489D01*
X133317841Y-90830489D02*
X133508317Y-90782870D01*
X133508317Y-90782870D02*
X133603555Y-90735251D01*
X133603555Y-90735251D02*
X133651174Y-90687632D01*
X133651174Y-90687632D02*
X133698793Y-90592394D01*
X133698793Y-90592394D02*
X133698793Y-90497156D01*
X133698793Y-90497156D02*
X133651174Y-90401918D01*
X133651174Y-90401918D02*
X133603555Y-90354299D01*
X133603555Y-90354299D02*
X133508317Y-90306680D01*
X133508317Y-90306680D02*
X133270222Y-90306680D01*
X133270222Y-90306680D02*
X133127365Y-90354299D01*
X132698793Y-90306680D02*
X132698793Y-91116203D01*
X132698793Y-91116203D02*
X132651174Y-91211441D01*
X132651174Y-91211441D02*
X132603555Y-91259061D01*
X132603555Y-91259061D02*
X132508317Y-91306680D01*
X132508317Y-91306680D02*
X132317841Y-91306680D01*
X132317841Y-91306680D02*
X132222603Y-91259061D01*
X132222603Y-91259061D02*
X132174984Y-91211441D01*
X132174984Y-91211441D02*
X132127365Y-91116203D01*
X132127365Y-91116203D02*
X132127365Y-90306680D01*
X131651174Y-90925727D02*
X130889270Y-90925727D01*
X130413079Y-90782870D02*
X130079746Y-90782870D01*
X129936889Y-91306680D02*
X130413079Y-91306680D01*
X130413079Y-91306680D02*
X130413079Y-90306680D01*
X130413079Y-90306680D02*
X129936889Y-90306680D01*
X129603555Y-91306680D02*
X129079746Y-90640013D01*
X129603555Y-90640013D02*
X129079746Y-91306680D01*
X128841650Y-90640013D02*
X128460698Y-90640013D01*
X128698793Y-90306680D02*
X128698793Y-91163822D01*
X128698793Y-91163822D02*
X128651174Y-91259061D01*
X128651174Y-91259061D02*
X128555936Y-91306680D01*
X128555936Y-91306680D02*
X128460698Y-91306680D01*
X128127364Y-90925727D02*
X127365460Y-90925727D01*
X126698793Y-90306680D02*
X126508317Y-90306680D01*
X126508317Y-90306680D02*
X126413079Y-90354299D01*
X126413079Y-90354299D02*
X126317841Y-90449537D01*
X126317841Y-90449537D02*
X126270222Y-90640013D01*
X126270222Y-90640013D02*
X126270222Y-90973346D01*
X126270222Y-90973346D02*
X126317841Y-91163822D01*
X126317841Y-91163822D02*
X126413079Y-91259061D01*
X126413079Y-91259061D02*
X126508317Y-91306680D01*
X126508317Y-91306680D02*
X126698793Y-91306680D01*
X126698793Y-91306680D02*
X126794031Y-91259061D01*
X126794031Y-91259061D02*
X126889269Y-91163822D01*
X126889269Y-91163822D02*
X126936888Y-90973346D01*
X126936888Y-90973346D02*
X126936888Y-90640013D01*
X126936888Y-90640013D02*
X126889269Y-90449537D01*
X126889269Y-90449537D02*
X126794031Y-90354299D01*
X126794031Y-90354299D02*
X126698793Y-90306680D01*
X125841650Y-91306680D02*
X125841650Y-90640013D01*
X125841650Y-90830489D02*
X125794031Y-90735251D01*
X125794031Y-90735251D02*
X125746412Y-90687632D01*
X125746412Y-90687632D02*
X125651174Y-90640013D01*
X125651174Y-90640013D02*
X125555936Y-90640013D01*
X124794031Y-90640013D02*
X124794031Y-91449537D01*
X124794031Y-91449537D02*
X124841650Y-91544775D01*
X124841650Y-91544775D02*
X124889269Y-91592394D01*
X124889269Y-91592394D02*
X124984507Y-91640013D01*
X124984507Y-91640013D02*
X125127364Y-91640013D01*
X125127364Y-91640013D02*
X125222602Y-91592394D01*
X124794031Y-91259061D02*
X124889269Y-91306680D01*
X124889269Y-91306680D02*
X125079745Y-91306680D01*
X125079745Y-91306680D02*
X125174983Y-91259061D01*
X125174983Y-91259061D02*
X125222602Y-91211441D01*
X125222602Y-91211441D02*
X125270221Y-91116203D01*
X125270221Y-91116203D02*
X125270221Y-90830489D01*
X125270221Y-90830489D02*
X125222602Y-90735251D01*
X125222602Y-90735251D02*
X125174983Y-90687632D01*
X125174983Y-90687632D02*
X125079745Y-90640013D01*
X125079745Y-90640013D02*
X124889269Y-90640013D01*
X124889269Y-90640013D02*
X124794031Y-90687632D01*
X123603555Y-90259061D02*
X124460697Y-91544775D01*
X123270221Y-90640013D02*
X123270221Y-91640013D01*
X123270221Y-90687632D02*
X123174983Y-90640013D01*
X123174983Y-90640013D02*
X122984507Y-90640013D01*
X122984507Y-90640013D02*
X122889269Y-90687632D01*
X122889269Y-90687632D02*
X122841650Y-90735251D01*
X122841650Y-90735251D02*
X122794031Y-90830489D01*
X122794031Y-90830489D02*
X122794031Y-91116203D01*
X122794031Y-91116203D02*
X122841650Y-91211441D01*
X122841650Y-91211441D02*
X122889269Y-91259061D01*
X122889269Y-91259061D02*
X122984507Y-91306680D01*
X122984507Y-91306680D02*
X123174983Y-91306680D01*
X123174983Y-91306680D02*
X123270221Y-91259061D01*
X122413078Y-91259061D02*
X122317840Y-91306680D01*
X122317840Y-91306680D02*
X122127364Y-91306680D01*
X122127364Y-91306680D02*
X122032126Y-91259061D01*
X122032126Y-91259061D02*
X121984507Y-91163822D01*
X121984507Y-91163822D02*
X121984507Y-91116203D01*
X121984507Y-91116203D02*
X122032126Y-91020965D01*
X122032126Y-91020965D02*
X122127364Y-90973346D01*
X122127364Y-90973346D02*
X122270221Y-90973346D01*
X122270221Y-90973346D02*
X122365459Y-90925727D01*
X122365459Y-90925727D02*
X122413078Y-90830489D01*
X122413078Y-90830489D02*
X122413078Y-90782870D01*
X122413078Y-90782870D02*
X122365459Y-90687632D01*
X122365459Y-90687632D02*
X122270221Y-90640013D01*
X122270221Y-90640013D02*
X122127364Y-90640013D01*
X122127364Y-90640013D02*
X122032126Y-90687632D01*
X121127364Y-90640013D02*
X121127364Y-91306680D01*
X121555935Y-90640013D02*
X121555935Y-91163822D01*
X121555935Y-91163822D02*
X121508316Y-91259061D01*
X121508316Y-91259061D02*
X121413078Y-91306680D01*
X121413078Y-91306680D02*
X121270221Y-91306680D01*
X121270221Y-91306680D02*
X121174983Y-91259061D01*
X121174983Y-91259061D02*
X121127364Y-91211441D01*
X120651173Y-90925727D02*
X119889269Y-90925727D01*
X119032126Y-91259061D02*
X119127364Y-91306680D01*
X119127364Y-91306680D02*
X119317840Y-91306680D01*
X119317840Y-91306680D02*
X119413078Y-91259061D01*
X119413078Y-91259061D02*
X119460697Y-91163822D01*
X119460697Y-91163822D02*
X119460697Y-90782870D01*
X119460697Y-90782870D02*
X119413078Y-90687632D01*
X119413078Y-90687632D02*
X119317840Y-90640013D01*
X119317840Y-90640013D02*
X119127364Y-90640013D01*
X119127364Y-90640013D02*
X119032126Y-90687632D01*
X119032126Y-90687632D02*
X118984507Y-90782870D01*
X118984507Y-90782870D02*
X118984507Y-90878108D01*
X118984507Y-90878108D02*
X119460697Y-90973346D01*
X118651173Y-91306680D02*
X118127364Y-90640013D01*
X118651173Y-90640013D02*
X118127364Y-91306680D01*
X117889268Y-90640013D02*
X117508316Y-90640013D01*
X117746411Y-90306680D02*
X117746411Y-91163822D01*
X117746411Y-91163822D02*
X117698792Y-91259061D01*
X117698792Y-91259061D02*
X117603554Y-91306680D01*
X117603554Y-91306680D02*
X117508316Y-91306680D01*
X162442857Y-131954819D02*
X162776190Y-131478628D01*
X163014285Y-131954819D02*
X163014285Y-130954819D01*
X163014285Y-130954819D02*
X162633333Y-130954819D01*
X162633333Y-130954819D02*
X162538095Y-131002438D01*
X162538095Y-131002438D02*
X162490476Y-131050057D01*
X162490476Y-131050057D02*
X162442857Y-131145295D01*
X162442857Y-131145295D02*
X162442857Y-131288152D01*
X162442857Y-131288152D02*
X162490476Y-131383390D01*
X162490476Y-131383390D02*
X162538095Y-131431009D01*
X162538095Y-131431009D02*
X162633333Y-131478628D01*
X162633333Y-131478628D02*
X163014285Y-131478628D01*
X161585714Y-131288152D02*
X161585714Y-131954819D01*
X161823809Y-130907200D02*
X162061904Y-131621485D01*
X162061904Y-131621485D02*
X161442857Y-131621485D01*
X160538095Y-131954819D02*
X161109523Y-131954819D01*
X160823809Y-131954819D02*
X160823809Y-130954819D01*
X160823809Y-130954819D02*
X160919047Y-131097676D01*
X160919047Y-131097676D02*
X161014285Y-131192914D01*
X161014285Y-131192914D02*
X161109523Y-131240533D01*
X204900306Y-110208824D02*
X204900306Y-110276168D01*
X204900306Y-110276168D02*
X204967650Y-110410855D01*
X204967650Y-110410855D02*
X205034993Y-110478198D01*
X205034993Y-110478198D02*
X205169680Y-110545542D01*
X205169680Y-110545542D02*
X205304367Y-110545542D01*
X205304367Y-110545542D02*
X205405382Y-110511870D01*
X205405382Y-110511870D02*
X205573741Y-110410855D01*
X205573741Y-110410855D02*
X205674756Y-110309840D01*
X205674756Y-110309840D02*
X205775772Y-110141481D01*
X205775772Y-110141481D02*
X205809443Y-110040466D01*
X205809443Y-110040466D02*
X205809443Y-109905779D01*
X205809443Y-109905779D02*
X205742100Y-109771092D01*
X205742100Y-109771092D02*
X205674756Y-109703748D01*
X205674756Y-109703748D02*
X205540069Y-109636405D01*
X205540069Y-109636405D02*
X205472726Y-109636405D01*
X204159528Y-109602733D02*
X204563589Y-110006794D01*
X204361558Y-109804763D02*
X205068665Y-109097657D01*
X205068665Y-109097657D02*
X205034993Y-109266015D01*
X205034993Y-109266015D02*
X205034993Y-109400702D01*
X205034993Y-109400702D02*
X205068665Y-109501718D01*
X204024840Y-108525237D02*
X203553436Y-108996641D01*
X204462573Y-108424221D02*
X204125856Y-109097656D01*
X204125856Y-109097656D02*
X203688123Y-108659924D01*
X205000306Y-105208826D02*
X205000306Y-105276170D01*
X205000306Y-105276170D02*
X205067650Y-105410857D01*
X205067650Y-105410857D02*
X205134993Y-105478200D01*
X205134993Y-105478200D02*
X205269680Y-105545544D01*
X205269680Y-105545544D02*
X205404367Y-105545544D01*
X205404367Y-105545544D02*
X205505382Y-105511872D01*
X205505382Y-105511872D02*
X205673741Y-105410857D01*
X205673741Y-105410857D02*
X205774756Y-105309842D01*
X205774756Y-105309842D02*
X205875772Y-105141483D01*
X205875772Y-105141483D02*
X205909443Y-105040468D01*
X205909443Y-105040468D02*
X205909443Y-104905781D01*
X205909443Y-104905781D02*
X205842100Y-104771094D01*
X205842100Y-104771094D02*
X205774756Y-104703750D01*
X205774756Y-104703750D02*
X205640069Y-104636407D01*
X205640069Y-104636407D02*
X205572726Y-104636407D01*
X204259528Y-104602735D02*
X204663589Y-105006796D01*
X204461558Y-104804765D02*
X205168665Y-104097659D01*
X205168665Y-104097659D02*
X205134993Y-104266017D01*
X205134993Y-104266017D02*
X205134993Y-104400704D01*
X205134993Y-104400704D02*
X205168665Y-104501720D01*
X204360543Y-103289536D02*
X204495230Y-103424223D01*
X204495230Y-103424223D02*
X204528901Y-103525239D01*
X204528901Y-103525239D02*
X204528901Y-103592582D01*
X204528901Y-103592582D02*
X204495230Y-103760941D01*
X204495230Y-103760941D02*
X204394214Y-103929300D01*
X204394214Y-103929300D02*
X204124840Y-104198674D01*
X204124840Y-104198674D02*
X204023825Y-104232345D01*
X204023825Y-104232345D02*
X203956482Y-104232345D01*
X203956482Y-104232345D02*
X203855466Y-104198674D01*
X203855466Y-104198674D02*
X203720779Y-104063987D01*
X203720779Y-104063987D02*
X203687108Y-103962971D01*
X203687108Y-103962971D02*
X203687108Y-103895628D01*
X203687108Y-103895628D02*
X203720779Y-103794613D01*
X203720779Y-103794613D02*
X203889138Y-103626254D01*
X203889138Y-103626254D02*
X203990153Y-103592582D01*
X203990153Y-103592582D02*
X204057497Y-103592582D01*
X204057497Y-103592582D02*
X204158512Y-103626254D01*
X204158512Y-103626254D02*
X204293199Y-103760941D01*
X204293199Y-103760941D02*
X204326871Y-103861956D01*
X204326871Y-103861956D02*
X204326871Y-103929300D01*
X204326871Y-103929300D02*
X204293199Y-104030315D01*
X150932963Y-115376174D02*
X151505382Y-115275159D01*
X151337024Y-115780235D02*
X152044130Y-115073128D01*
X152044130Y-115073128D02*
X151774756Y-114803754D01*
X151774756Y-114803754D02*
X151673741Y-114770082D01*
X151673741Y-114770082D02*
X151606398Y-114770082D01*
X151606398Y-114770082D02*
X151505382Y-114803754D01*
X151505382Y-114803754D02*
X151404367Y-114904769D01*
X151404367Y-114904769D02*
X151370695Y-115005785D01*
X151370695Y-115005785D02*
X151370695Y-115073128D01*
X151370695Y-115073128D02*
X151404367Y-115174143D01*
X151404367Y-115174143D02*
X151673741Y-115443517D01*
X151303352Y-114467037D02*
X151303352Y-114399693D01*
X151303352Y-114399693D02*
X151269680Y-114298678D01*
X151269680Y-114298678D02*
X151101321Y-114130319D01*
X151101321Y-114130319D02*
X151000306Y-114096647D01*
X151000306Y-114096647D02*
X150932963Y-114096647D01*
X150932963Y-114096647D02*
X150831947Y-114130319D01*
X150831947Y-114130319D02*
X150764604Y-114197663D01*
X150764604Y-114197663D02*
X150697260Y-114332350D01*
X150697260Y-114332350D02*
X150697260Y-115140472D01*
X150697260Y-115140472D02*
X150259528Y-114702739D01*
X150326871Y-113355869D02*
X150663589Y-113692586D01*
X150663589Y-113692586D02*
X150360543Y-114062975D01*
X150360543Y-114062975D02*
X150360543Y-113995632D01*
X150360543Y-113995632D02*
X150326871Y-113894617D01*
X150326871Y-113894617D02*
X150158512Y-113726258D01*
X150158512Y-113726258D02*
X150057497Y-113692586D01*
X150057497Y-113692586D02*
X149990153Y-113692586D01*
X149990153Y-113692586D02*
X149889138Y-113726258D01*
X149889138Y-113726258D02*
X149720779Y-113894617D01*
X149720779Y-113894617D02*
X149687108Y-113995632D01*
X149687108Y-113995632D02*
X149687108Y-114062975D01*
X149687108Y-114062975D02*
X149720779Y-114163991D01*
X149720779Y-114163991D02*
X149889138Y-114332349D01*
X149889138Y-114332349D02*
X149990153Y-114366021D01*
X149990153Y-114366021D02*
X150057497Y-114366021D01*
X132642857Y-108154819D02*
X132976190Y-107678628D01*
X133214285Y-108154819D02*
X133214285Y-107154819D01*
X133214285Y-107154819D02*
X132833333Y-107154819D01*
X132833333Y-107154819D02*
X132738095Y-107202438D01*
X132738095Y-107202438D02*
X132690476Y-107250057D01*
X132690476Y-107250057D02*
X132642857Y-107345295D01*
X132642857Y-107345295D02*
X132642857Y-107488152D01*
X132642857Y-107488152D02*
X132690476Y-107583390D01*
X132690476Y-107583390D02*
X132738095Y-107631009D01*
X132738095Y-107631009D02*
X132833333Y-107678628D01*
X132833333Y-107678628D02*
X133214285Y-107678628D01*
X132309523Y-107154819D02*
X131690476Y-107154819D01*
X131690476Y-107154819D02*
X132023809Y-107535771D01*
X132023809Y-107535771D02*
X131880952Y-107535771D01*
X131880952Y-107535771D02*
X131785714Y-107583390D01*
X131785714Y-107583390D02*
X131738095Y-107631009D01*
X131738095Y-107631009D02*
X131690476Y-107726247D01*
X131690476Y-107726247D02*
X131690476Y-107964342D01*
X131690476Y-107964342D02*
X131738095Y-108059580D01*
X131738095Y-108059580D02*
X131785714Y-108107200D01*
X131785714Y-108107200D02*
X131880952Y-108154819D01*
X131880952Y-108154819D02*
X132166666Y-108154819D01*
X132166666Y-108154819D02*
X132261904Y-108107200D01*
X132261904Y-108107200D02*
X132309523Y-108059580D01*
X130833333Y-107154819D02*
X131023809Y-107154819D01*
X131023809Y-107154819D02*
X131119047Y-107202438D01*
X131119047Y-107202438D02*
X131166666Y-107250057D01*
X131166666Y-107250057D02*
X131261904Y-107392914D01*
X131261904Y-107392914D02*
X131309523Y-107583390D01*
X131309523Y-107583390D02*
X131309523Y-107964342D01*
X131309523Y-107964342D02*
X131261904Y-108059580D01*
X131261904Y-108059580D02*
X131214285Y-108107200D01*
X131214285Y-108107200D02*
X131119047Y-108154819D01*
X131119047Y-108154819D02*
X130928571Y-108154819D01*
X130928571Y-108154819D02*
X130833333Y-108107200D01*
X130833333Y-108107200D02*
X130785714Y-108059580D01*
X130785714Y-108059580D02*
X130738095Y-107964342D01*
X130738095Y-107964342D02*
X130738095Y-107726247D01*
X130738095Y-107726247D02*
X130785714Y-107631009D01*
X130785714Y-107631009D02*
X130833333Y-107583390D01*
X130833333Y-107583390D02*
X130928571Y-107535771D01*
X130928571Y-107535771D02*
X131119047Y-107535771D01*
X131119047Y-107535771D02*
X131214285Y-107583390D01*
X131214285Y-107583390D02*
X131261904Y-107631009D01*
X131261904Y-107631009D02*
X131309523Y-107726247D01*
X159766665Y-89872848D02*
X159814284Y-89920468D01*
X159814284Y-89920468D02*
X159957141Y-89968087D01*
X159957141Y-89968087D02*
X160052379Y-89968087D01*
X160052379Y-89968087D02*
X160195236Y-89920468D01*
X160195236Y-89920468D02*
X160290474Y-89825229D01*
X160290474Y-89825229D02*
X160338093Y-89729991D01*
X160338093Y-89729991D02*
X160385712Y-89539515D01*
X160385712Y-89539515D02*
X160385712Y-89396658D01*
X160385712Y-89396658D02*
X160338093Y-89206182D01*
X160338093Y-89206182D02*
X160290474Y-89110944D01*
X160290474Y-89110944D02*
X160195236Y-89015706D01*
X160195236Y-89015706D02*
X160052379Y-88968087D01*
X160052379Y-88968087D02*
X159957141Y-88968087D01*
X159957141Y-88968087D02*
X159814284Y-89015706D01*
X159814284Y-89015706D02*
X159766665Y-89063325D01*
X158909522Y-88968087D02*
X159099998Y-88968087D01*
X159099998Y-88968087D02*
X159195236Y-89015706D01*
X159195236Y-89015706D02*
X159242855Y-89063325D01*
X159242855Y-89063325D02*
X159338093Y-89206182D01*
X159338093Y-89206182D02*
X159385712Y-89396658D01*
X159385712Y-89396658D02*
X159385712Y-89777610D01*
X159385712Y-89777610D02*
X159338093Y-89872848D01*
X159338093Y-89872848D02*
X159290474Y-89920468D01*
X159290474Y-89920468D02*
X159195236Y-89968087D01*
X159195236Y-89968087D02*
X159004760Y-89968087D01*
X159004760Y-89968087D02*
X158909522Y-89920468D01*
X158909522Y-89920468D02*
X158861903Y-89872848D01*
X158861903Y-89872848D02*
X158814284Y-89777610D01*
X158814284Y-89777610D02*
X158814284Y-89539515D01*
X158814284Y-89539515D02*
X158861903Y-89444277D01*
X158861903Y-89444277D02*
X158909522Y-89396658D01*
X158909522Y-89396658D02*
X159004760Y-89349039D01*
X159004760Y-89349039D02*
X159195236Y-89349039D01*
X159195236Y-89349039D02*
X159290474Y-89396658D01*
X159290474Y-89396658D02*
X159338093Y-89444277D01*
X159338093Y-89444277D02*
X159385712Y-89539515D01*
X161054819Y-115557143D02*
X160578628Y-115223810D01*
X161054819Y-114985715D02*
X160054819Y-114985715D01*
X160054819Y-114985715D02*
X160054819Y-115366667D01*
X160054819Y-115366667D02*
X160102438Y-115461905D01*
X160102438Y-115461905D02*
X160150057Y-115509524D01*
X160150057Y-115509524D02*
X160245295Y-115557143D01*
X160245295Y-115557143D02*
X160388152Y-115557143D01*
X160388152Y-115557143D02*
X160483390Y-115509524D01*
X160483390Y-115509524D02*
X160531009Y-115461905D01*
X160531009Y-115461905D02*
X160578628Y-115366667D01*
X160578628Y-115366667D02*
X160578628Y-114985715D01*
X160150057Y-115938096D02*
X160102438Y-115985715D01*
X160102438Y-115985715D02*
X160054819Y-116080953D01*
X160054819Y-116080953D02*
X160054819Y-116319048D01*
X160054819Y-116319048D02*
X160102438Y-116414286D01*
X160102438Y-116414286D02*
X160150057Y-116461905D01*
X160150057Y-116461905D02*
X160245295Y-116509524D01*
X160245295Y-116509524D02*
X160340533Y-116509524D01*
X160340533Y-116509524D02*
X160483390Y-116461905D01*
X160483390Y-116461905D02*
X161054819Y-115890477D01*
X161054819Y-115890477D02*
X161054819Y-116509524D01*
X160054819Y-116842858D02*
X160054819Y-117461905D01*
X160054819Y-117461905D02*
X160435771Y-117128572D01*
X160435771Y-117128572D02*
X160435771Y-117271429D01*
X160435771Y-117271429D02*
X160483390Y-117366667D01*
X160483390Y-117366667D02*
X160531009Y-117414286D01*
X160531009Y-117414286D02*
X160626247Y-117461905D01*
X160626247Y-117461905D02*
X160864342Y-117461905D01*
X160864342Y-117461905D02*
X160959580Y-117414286D01*
X160959580Y-117414286D02*
X161007200Y-117366667D01*
X161007200Y-117366667D02*
X161054819Y-117271429D01*
X161054819Y-117271429D02*
X161054819Y-116985715D01*
X161054819Y-116985715D02*
X161007200Y-116890477D01*
X161007200Y-116890477D02*
X160959580Y-116842858D01*
X154523809Y-124919104D02*
X154047619Y-124919104D01*
X154619047Y-125204819D02*
X154285714Y-124204819D01*
X154285714Y-124204819D02*
X153952381Y-125204819D01*
X153142857Y-125204819D02*
X153619047Y-125204819D01*
X153619047Y-125204819D02*
X153619047Y-124204819D01*
X152238095Y-125204819D02*
X152571428Y-124728628D01*
X152809523Y-125204819D02*
X152809523Y-124204819D01*
X152809523Y-124204819D02*
X152428571Y-124204819D01*
X152428571Y-124204819D02*
X152333333Y-124252438D01*
X152333333Y-124252438D02*
X152285714Y-124300057D01*
X152285714Y-124300057D02*
X152238095Y-124395295D01*
X152238095Y-124395295D02*
X152238095Y-124538152D01*
X152238095Y-124538152D02*
X152285714Y-124633390D01*
X152285714Y-124633390D02*
X152333333Y-124681009D01*
X152333333Y-124681009D02*
X152428571Y-124728628D01*
X152428571Y-124728628D02*
X152809523Y-124728628D01*
X151952380Y-124204819D02*
X151380952Y-124204819D01*
X151666666Y-125204819D02*
X151666666Y-124204819D01*
X191169579Y-128287137D02*
X191217199Y-128239518D01*
X191217199Y-128239518D02*
X191264818Y-128096661D01*
X191264818Y-128096661D02*
X191264818Y-128001423D01*
X191264818Y-128001423D02*
X191217199Y-127858566D01*
X191217199Y-127858566D02*
X191121960Y-127763328D01*
X191121960Y-127763328D02*
X191026722Y-127715709D01*
X191026722Y-127715709D02*
X190836246Y-127668090D01*
X190836246Y-127668090D02*
X190693389Y-127668090D01*
X190693389Y-127668090D02*
X190502913Y-127715709D01*
X190502913Y-127715709D02*
X190407675Y-127763328D01*
X190407675Y-127763328D02*
X190312437Y-127858566D01*
X190312437Y-127858566D02*
X190264818Y-128001423D01*
X190264818Y-128001423D02*
X190264818Y-128096661D01*
X190264818Y-128096661D02*
X190312437Y-128239518D01*
X190312437Y-128239518D02*
X190360056Y-128287137D01*
X191264818Y-129239518D02*
X191264818Y-128668090D01*
X191264818Y-128953804D02*
X190264818Y-128953804D01*
X190264818Y-128953804D02*
X190407675Y-128858566D01*
X190407675Y-128858566D02*
X190502913Y-128763328D01*
X190502913Y-128763328D02*
X190550532Y-128668090D01*
X190264818Y-130144280D02*
X190264818Y-129668090D01*
X190264818Y-129668090D02*
X190741008Y-129620471D01*
X190741008Y-129620471D02*
X190693389Y-129668090D01*
X190693389Y-129668090D02*
X190645770Y-129763328D01*
X190645770Y-129763328D02*
X190645770Y-130001423D01*
X190645770Y-130001423D02*
X190693389Y-130096661D01*
X190693389Y-130096661D02*
X190741008Y-130144280D01*
X190741008Y-130144280D02*
X190836246Y-130191899D01*
X190836246Y-130191899D02*
X191074341Y-130191899D01*
X191074341Y-130191899D02*
X191169579Y-130144280D01*
X191169579Y-130144280D02*
X191217199Y-130096661D01*
X191217199Y-130096661D02*
X191264818Y-130001423D01*
X191264818Y-130001423D02*
X191264818Y-129763328D01*
X191264818Y-129763328D02*
X191217199Y-129668090D01*
X191217199Y-129668090D02*
X191169579Y-129620471D01*
X183219047Y-86454819D02*
X183219047Y-87264342D01*
X183219047Y-87264342D02*
X183171428Y-87359580D01*
X183171428Y-87359580D02*
X183123809Y-87407200D01*
X183123809Y-87407200D02*
X183028571Y-87454819D01*
X183028571Y-87454819D02*
X182838095Y-87454819D01*
X182838095Y-87454819D02*
X182742857Y-87407200D01*
X182742857Y-87407200D02*
X182695238Y-87359580D01*
X182695238Y-87359580D02*
X182647619Y-87264342D01*
X182647619Y-87264342D02*
X182647619Y-86454819D01*
X182409524Y-87550057D02*
X181647619Y-87550057D01*
X181409523Y-86931009D02*
X181076190Y-86931009D01*
X180933333Y-87454819D02*
X181409523Y-87454819D01*
X181409523Y-87454819D02*
X181409523Y-86454819D01*
X181409523Y-86454819D02*
X180933333Y-86454819D01*
X179933333Y-87454819D02*
X180266666Y-86978628D01*
X180504761Y-87454819D02*
X180504761Y-86454819D01*
X180504761Y-86454819D02*
X180123809Y-86454819D01*
X180123809Y-86454819D02*
X180028571Y-86502438D01*
X180028571Y-86502438D02*
X179980952Y-86550057D01*
X179980952Y-86550057D02*
X179933333Y-86645295D01*
X179933333Y-86645295D02*
X179933333Y-86788152D01*
X179933333Y-86788152D02*
X179980952Y-86883390D01*
X179980952Y-86883390D02*
X180028571Y-86931009D01*
X180028571Y-86931009D02*
X180123809Y-86978628D01*
X180123809Y-86978628D02*
X180504761Y-86978628D01*
X121067857Y-112959575D02*
X121115476Y-113007195D01*
X121115476Y-113007195D02*
X121258333Y-113054814D01*
X121258333Y-113054814D02*
X121353571Y-113054814D01*
X121353571Y-113054814D02*
X121496428Y-113007195D01*
X121496428Y-113007195D02*
X121591666Y-112911956D01*
X121591666Y-112911956D02*
X121639285Y-112816718D01*
X121639285Y-112816718D02*
X121686904Y-112626242D01*
X121686904Y-112626242D02*
X121686904Y-112483385D01*
X121686904Y-112483385D02*
X121639285Y-112292909D01*
X121639285Y-112292909D02*
X121591666Y-112197671D01*
X121591666Y-112197671D02*
X121496428Y-112102433D01*
X121496428Y-112102433D02*
X121353571Y-112054814D01*
X121353571Y-112054814D02*
X121258333Y-112054814D01*
X121258333Y-112054814D02*
X121115476Y-112102433D01*
X121115476Y-112102433D02*
X121067857Y-112150052D01*
X120686904Y-112150052D02*
X120639285Y-112102433D01*
X120639285Y-112102433D02*
X120544047Y-112054814D01*
X120544047Y-112054814D02*
X120305952Y-112054814D01*
X120305952Y-112054814D02*
X120210714Y-112102433D01*
X120210714Y-112102433D02*
X120163095Y-112150052D01*
X120163095Y-112150052D02*
X120115476Y-112245290D01*
X120115476Y-112245290D02*
X120115476Y-112340528D01*
X120115476Y-112340528D02*
X120163095Y-112483385D01*
X120163095Y-112483385D02*
X120734523Y-113054814D01*
X120734523Y-113054814D02*
X120115476Y-113054814D01*
X119782142Y-112054814D02*
X119115476Y-112054814D01*
X119115476Y-112054814D02*
X119544047Y-113054814D01*
X137442857Y-133739574D02*
X137490476Y-133787194D01*
X137490476Y-133787194D02*
X137633333Y-133834813D01*
X137633333Y-133834813D02*
X137728571Y-133834813D01*
X137728571Y-133834813D02*
X137871428Y-133787194D01*
X137871428Y-133787194D02*
X137966666Y-133691955D01*
X137966666Y-133691955D02*
X138014285Y-133596717D01*
X138014285Y-133596717D02*
X138061904Y-133406241D01*
X138061904Y-133406241D02*
X138061904Y-133263384D01*
X138061904Y-133263384D02*
X138014285Y-133072908D01*
X138014285Y-133072908D02*
X137966666Y-132977670D01*
X137966666Y-132977670D02*
X137871428Y-132882432D01*
X137871428Y-132882432D02*
X137728571Y-132834813D01*
X137728571Y-132834813D02*
X137633333Y-132834813D01*
X137633333Y-132834813D02*
X137490476Y-132882432D01*
X137490476Y-132882432D02*
X137442857Y-132930051D01*
X137109523Y-132834813D02*
X136490476Y-132834813D01*
X136490476Y-132834813D02*
X136823809Y-133215765D01*
X136823809Y-133215765D02*
X136680952Y-133215765D01*
X136680952Y-133215765D02*
X136585714Y-133263384D01*
X136585714Y-133263384D02*
X136538095Y-133311003D01*
X136538095Y-133311003D02*
X136490476Y-133406241D01*
X136490476Y-133406241D02*
X136490476Y-133644336D01*
X136490476Y-133644336D02*
X136538095Y-133739574D01*
X136538095Y-133739574D02*
X136585714Y-133787194D01*
X136585714Y-133787194D02*
X136680952Y-133834813D01*
X136680952Y-133834813D02*
X136966666Y-133834813D01*
X136966666Y-133834813D02*
X137061904Y-133787194D01*
X137061904Y-133787194D02*
X137109523Y-133739574D01*
X135871428Y-132834813D02*
X135776190Y-132834813D01*
X135776190Y-132834813D02*
X135680952Y-132882432D01*
X135680952Y-132882432D02*
X135633333Y-132930051D01*
X135633333Y-132930051D02*
X135585714Y-133025289D01*
X135585714Y-133025289D02*
X135538095Y-133215765D01*
X135538095Y-133215765D02*
X135538095Y-133453860D01*
X135538095Y-133453860D02*
X135585714Y-133644336D01*
X135585714Y-133644336D02*
X135633333Y-133739574D01*
X135633333Y-133739574D02*
X135680952Y-133787194D01*
X135680952Y-133787194D02*
X135776190Y-133834813D01*
X135776190Y-133834813D02*
X135871428Y-133834813D01*
X135871428Y-133834813D02*
X135966666Y-133787194D01*
X135966666Y-133787194D02*
X136014285Y-133739574D01*
X136014285Y-133739574D02*
X136061904Y-133644336D01*
X136061904Y-133644336D02*
X136109523Y-133453860D01*
X136109523Y-133453860D02*
X136109523Y-133215765D01*
X136109523Y-133215765D02*
X136061904Y-133025289D01*
X136061904Y-133025289D02*
X136014285Y-132930051D01*
X136014285Y-132930051D02*
X135966666Y-132882432D01*
X135966666Y-132882432D02*
X135871428Y-132834813D01*
X150264285Y-128154814D02*
X150264285Y-127154814D01*
X150264285Y-127154814D02*
X150026190Y-127154814D01*
X150026190Y-127154814D02*
X149883333Y-127202433D01*
X149883333Y-127202433D02*
X149788095Y-127297671D01*
X149788095Y-127297671D02*
X149740476Y-127392909D01*
X149740476Y-127392909D02*
X149692857Y-127583385D01*
X149692857Y-127583385D02*
X149692857Y-127726242D01*
X149692857Y-127726242D02*
X149740476Y-127916718D01*
X149740476Y-127916718D02*
X149788095Y-128011956D01*
X149788095Y-128011956D02*
X149883333Y-128107195D01*
X149883333Y-128107195D02*
X150026190Y-128154814D01*
X150026190Y-128154814D02*
X150264285Y-128154814D01*
X148740476Y-128154814D02*
X149311904Y-128154814D01*
X149026190Y-128154814D02*
X149026190Y-127154814D01*
X149026190Y-127154814D02*
X149121428Y-127297671D01*
X149121428Y-127297671D02*
X149216666Y-127392909D01*
X149216666Y-127392909D02*
X149311904Y-127440528D01*
X148359523Y-127250052D02*
X148311904Y-127202433D01*
X148311904Y-127202433D02*
X148216666Y-127154814D01*
X148216666Y-127154814D02*
X147978571Y-127154814D01*
X147978571Y-127154814D02*
X147883333Y-127202433D01*
X147883333Y-127202433D02*
X147835714Y-127250052D01*
X147835714Y-127250052D02*
X147788095Y-127345290D01*
X147788095Y-127345290D02*
X147788095Y-127440528D01*
X147788095Y-127440528D02*
X147835714Y-127583385D01*
X147835714Y-127583385D02*
X148407142Y-128154814D01*
X148407142Y-128154814D02*
X147788095Y-128154814D01*
X153550057Y-130654757D02*
X153502438Y-130559519D01*
X153502438Y-130559519D02*
X153407200Y-130464281D01*
X153407200Y-130464281D02*
X153264342Y-130321424D01*
X153264342Y-130321424D02*
X153216723Y-130226186D01*
X153216723Y-130226186D02*
X153216723Y-130130948D01*
X153454819Y-130178567D02*
X153407200Y-130083329D01*
X153407200Y-130083329D02*
X153311961Y-129988091D01*
X153311961Y-129988091D02*
X153121485Y-129940472D01*
X153121485Y-129940472D02*
X152788152Y-129940472D01*
X152788152Y-129940472D02*
X152597676Y-129988091D01*
X152597676Y-129988091D02*
X152502438Y-130083329D01*
X152502438Y-130083329D02*
X152454819Y-130178567D01*
X152454819Y-130178567D02*
X152454819Y-130369043D01*
X152454819Y-130369043D02*
X152502438Y-130464281D01*
X152502438Y-130464281D02*
X152597676Y-130559519D01*
X152597676Y-130559519D02*
X152788152Y-130607138D01*
X152788152Y-130607138D02*
X153121485Y-130607138D01*
X153121485Y-130607138D02*
X153311961Y-130559519D01*
X153311961Y-130559519D02*
X153407200Y-130464281D01*
X153407200Y-130464281D02*
X153454819Y-130369043D01*
X153454819Y-130369043D02*
X153454819Y-130178567D01*
X153454819Y-131559519D02*
X153454819Y-130988091D01*
X153454819Y-131273805D02*
X152454819Y-131273805D01*
X152454819Y-131273805D02*
X152597676Y-131178567D01*
X152597676Y-131178567D02*
X152692914Y-131083329D01*
X152692914Y-131083329D02*
X152740533Y-130988091D01*
X170976174Y-127667033D02*
X170875159Y-127094614D01*
X171380235Y-127262972D02*
X170673128Y-126555866D01*
X170673128Y-126555866D02*
X170403754Y-126825240D01*
X170403754Y-126825240D02*
X170370082Y-126926255D01*
X170370082Y-126926255D02*
X170370082Y-126993598D01*
X170370082Y-126993598D02*
X170403754Y-127094614D01*
X170403754Y-127094614D02*
X170504769Y-127195629D01*
X170504769Y-127195629D02*
X170605785Y-127229301D01*
X170605785Y-127229301D02*
X170673128Y-127229301D01*
X170673128Y-127229301D02*
X170774143Y-127195629D01*
X170774143Y-127195629D02*
X171043517Y-126926255D01*
X170302739Y-128340468D02*
X170706800Y-127936407D01*
X170504769Y-128138438D02*
X169797663Y-127431331D01*
X169797663Y-127431331D02*
X169966021Y-127465003D01*
X169966021Y-127465003D02*
X170100708Y-127465003D01*
X170100708Y-127465003D02*
X170201724Y-127431331D01*
X169393601Y-127970079D02*
X169326258Y-127970079D01*
X169326258Y-127970079D02*
X169225243Y-128003751D01*
X169225243Y-128003751D02*
X169056884Y-128172110D01*
X169056884Y-128172110D02*
X169023212Y-128273125D01*
X169023212Y-128273125D02*
X169023212Y-128340469D01*
X169023212Y-128340469D02*
X169056884Y-128441484D01*
X169056884Y-128441484D02*
X169124227Y-128508827D01*
X169124227Y-128508827D02*
X169258914Y-128576171D01*
X169258914Y-128576171D02*
X170067036Y-128576171D01*
X170067036Y-128576171D02*
X169629304Y-129013904D01*
X154640663Y-88454819D02*
X154307330Y-89454819D01*
X154307330Y-89454819D02*
X153973997Y-88454819D01*
X153164473Y-88454819D02*
X153640663Y-88454819D01*
X153640663Y-88454819D02*
X153688282Y-88931009D01*
X153688282Y-88931009D02*
X153640663Y-88883390D01*
X153640663Y-88883390D02*
X153545425Y-88835771D01*
X153545425Y-88835771D02*
X153307330Y-88835771D01*
X153307330Y-88835771D02*
X153212092Y-88883390D01*
X153212092Y-88883390D02*
X153164473Y-88931009D01*
X153164473Y-88931009D02*
X153116854Y-89026247D01*
X153116854Y-89026247D02*
X153116854Y-89264342D01*
X153116854Y-89264342D02*
X153164473Y-89359580D01*
X153164473Y-89359580D02*
X153212092Y-89407200D01*
X153212092Y-89407200D02*
X153307330Y-89454819D01*
X153307330Y-89454819D02*
X153545425Y-89454819D01*
X153545425Y-89454819D02*
X153640663Y-89407200D01*
X153640663Y-89407200D02*
X153688282Y-89359580D01*
X152354949Y-88931009D02*
X152688282Y-88931009D01*
X152688282Y-89454819D02*
X152688282Y-88454819D01*
X152688282Y-88454819D02*
X152212092Y-88454819D01*
X157300306Y-116708830D02*
X157300306Y-116776174D01*
X157300306Y-116776174D02*
X157367650Y-116910861D01*
X157367650Y-116910861D02*
X157434993Y-116978204D01*
X157434993Y-116978204D02*
X157569680Y-117045548D01*
X157569680Y-117045548D02*
X157704367Y-117045548D01*
X157704367Y-117045548D02*
X157805382Y-117011876D01*
X157805382Y-117011876D02*
X157973741Y-116910861D01*
X157973741Y-116910861D02*
X158074756Y-116809846D01*
X158074756Y-116809846D02*
X158175772Y-116641487D01*
X158175772Y-116641487D02*
X158209443Y-116540472D01*
X158209443Y-116540472D02*
X158209443Y-116405785D01*
X158209443Y-116405785D02*
X158142100Y-116271098D01*
X158142100Y-116271098D02*
X158074756Y-116203754D01*
X158074756Y-116203754D02*
X157940069Y-116136411D01*
X157940069Y-116136411D02*
X157872726Y-116136411D01*
X157603352Y-115867037D02*
X157603352Y-115799693D01*
X157603352Y-115799693D02*
X157569680Y-115698678D01*
X157569680Y-115698678D02*
X157401321Y-115530319D01*
X157401321Y-115530319D02*
X157300306Y-115496647D01*
X157300306Y-115496647D02*
X157232963Y-115496647D01*
X157232963Y-115496647D02*
X157131947Y-115530319D01*
X157131947Y-115530319D02*
X157064604Y-115597663D01*
X157064604Y-115597663D02*
X156997260Y-115732350D01*
X156997260Y-115732350D02*
X156997260Y-116540472D01*
X156997260Y-116540472D02*
X156559528Y-116102739D01*
X156424840Y-115025243D02*
X155953436Y-115496647D01*
X156862573Y-114924227D02*
X156525856Y-115597662D01*
X156525856Y-115597662D02*
X156088123Y-115159930D01*
X184246244Y-129489451D02*
X184818663Y-129388436D01*
X184650305Y-129893512D02*
X185357411Y-129186405D01*
X185357411Y-129186405D02*
X185088037Y-128917031D01*
X185088037Y-128917031D02*
X184987022Y-128883359D01*
X184987022Y-128883359D02*
X184919679Y-128883359D01*
X184919679Y-128883359D02*
X184818663Y-128917031D01*
X184818663Y-128917031D02*
X184717648Y-129018046D01*
X184717648Y-129018046D02*
X184683976Y-129119062D01*
X184683976Y-129119062D02*
X184683976Y-129186405D01*
X184683976Y-129186405D02*
X184717648Y-129287420D01*
X184717648Y-129287420D02*
X184987022Y-129556794D01*
X183909526Y-129152733D02*
X183774839Y-129018046D01*
X183774839Y-129018046D02*
X183741167Y-128917031D01*
X183741167Y-128917031D02*
X183741167Y-128849688D01*
X183741167Y-128849688D02*
X183774839Y-128681329D01*
X183774839Y-128681329D02*
X183875854Y-128512970D01*
X183875854Y-128512970D02*
X184145228Y-128243596D01*
X184145228Y-128243596D02*
X184246244Y-128209924D01*
X184246244Y-128209924D02*
X184313587Y-128209924D01*
X184313587Y-128209924D02*
X184414602Y-128243596D01*
X184414602Y-128243596D02*
X184549289Y-128378283D01*
X184549289Y-128378283D02*
X184582961Y-128479298D01*
X184582961Y-128479298D02*
X184582961Y-128546642D01*
X184582961Y-128546642D02*
X184549289Y-128647657D01*
X184549289Y-128647657D02*
X184380931Y-128816016D01*
X184380931Y-128816016D02*
X184279915Y-128849688D01*
X184279915Y-128849688D02*
X184212572Y-128849688D01*
X184212572Y-128849688D02*
X184111557Y-128816016D01*
X184111557Y-128816016D02*
X183976870Y-128681329D01*
X183976870Y-128681329D02*
X183943198Y-128580314D01*
X183943198Y-128580314D02*
X183943198Y-128512970D01*
X183943198Y-128512970D02*
X183976870Y-128411955D01*
X129242857Y-127154819D02*
X129576190Y-126678628D01*
X129814285Y-127154819D02*
X129814285Y-126154819D01*
X129814285Y-126154819D02*
X129433333Y-126154819D01*
X129433333Y-126154819D02*
X129338095Y-126202438D01*
X129338095Y-126202438D02*
X129290476Y-126250057D01*
X129290476Y-126250057D02*
X129242857Y-126345295D01*
X129242857Y-126345295D02*
X129242857Y-126488152D01*
X129242857Y-126488152D02*
X129290476Y-126583390D01*
X129290476Y-126583390D02*
X129338095Y-126631009D01*
X129338095Y-126631009D02*
X129433333Y-126678628D01*
X129433333Y-126678628D02*
X129814285Y-126678628D01*
X128909523Y-126154819D02*
X128290476Y-126154819D01*
X128290476Y-126154819D02*
X128623809Y-126535771D01*
X128623809Y-126535771D02*
X128480952Y-126535771D01*
X128480952Y-126535771D02*
X128385714Y-126583390D01*
X128385714Y-126583390D02*
X128338095Y-126631009D01*
X128338095Y-126631009D02*
X128290476Y-126726247D01*
X128290476Y-126726247D02*
X128290476Y-126964342D01*
X128290476Y-126964342D02*
X128338095Y-127059580D01*
X128338095Y-127059580D02*
X128385714Y-127107200D01*
X128385714Y-127107200D02*
X128480952Y-127154819D01*
X128480952Y-127154819D02*
X128766666Y-127154819D01*
X128766666Y-127154819D02*
X128861904Y-127107200D01*
X128861904Y-127107200D02*
X128909523Y-127059580D01*
X127957142Y-126154819D02*
X127338095Y-126154819D01*
X127338095Y-126154819D02*
X127671428Y-126535771D01*
X127671428Y-126535771D02*
X127528571Y-126535771D01*
X127528571Y-126535771D02*
X127433333Y-126583390D01*
X127433333Y-126583390D02*
X127385714Y-126631009D01*
X127385714Y-126631009D02*
X127338095Y-126726247D01*
X127338095Y-126726247D02*
X127338095Y-126964342D01*
X127338095Y-126964342D02*
X127385714Y-127059580D01*
X127385714Y-127059580D02*
X127433333Y-127107200D01*
X127433333Y-127107200D02*
X127528571Y-127154819D01*
X127528571Y-127154819D02*
X127814285Y-127154819D01*
X127814285Y-127154819D02*
X127909523Y-127107200D01*
X127909523Y-127107200D02*
X127957142Y-127059580D01*
X173576174Y-127917030D02*
X173475159Y-127344611D01*
X173980235Y-127512969D02*
X173273128Y-126805863D01*
X173273128Y-126805863D02*
X173003754Y-127075237D01*
X173003754Y-127075237D02*
X172970082Y-127176252D01*
X172970082Y-127176252D02*
X172970082Y-127243595D01*
X172970082Y-127243595D02*
X173003754Y-127344611D01*
X173003754Y-127344611D02*
X173104769Y-127445626D01*
X173104769Y-127445626D02*
X173205785Y-127479298D01*
X173205785Y-127479298D02*
X173273128Y-127479298D01*
X173273128Y-127479298D02*
X173374143Y-127445626D01*
X173374143Y-127445626D02*
X173643517Y-127176252D01*
X172902739Y-128590465D02*
X173306800Y-128186404D01*
X173104769Y-128388435D02*
X172397663Y-127681328D01*
X172397663Y-127681328D02*
X172566021Y-127715000D01*
X172566021Y-127715000D02*
X172700708Y-127715000D01*
X172700708Y-127715000D02*
X172801724Y-127681328D01*
X172229304Y-129263901D02*
X172633365Y-128859840D01*
X172431334Y-129061870D02*
X171724227Y-128354763D01*
X171724227Y-128354763D02*
X171892586Y-128388435D01*
X171892586Y-128388435D02*
X172027273Y-128388435D01*
X172027273Y-128388435D02*
X172128288Y-128354763D01*
X166704819Y-115557142D02*
X166228628Y-115223809D01*
X166704819Y-114985714D02*
X165704819Y-114985714D01*
X165704819Y-114985714D02*
X165704819Y-115366666D01*
X165704819Y-115366666D02*
X165752438Y-115461904D01*
X165752438Y-115461904D02*
X165800057Y-115509523D01*
X165800057Y-115509523D02*
X165895295Y-115557142D01*
X165895295Y-115557142D02*
X166038152Y-115557142D01*
X166038152Y-115557142D02*
X166133390Y-115509523D01*
X166133390Y-115509523D02*
X166181009Y-115461904D01*
X166181009Y-115461904D02*
X166228628Y-115366666D01*
X166228628Y-115366666D02*
X166228628Y-114985714D01*
X165800057Y-115938095D02*
X165752438Y-115985714D01*
X165752438Y-115985714D02*
X165704819Y-116080952D01*
X165704819Y-116080952D02*
X165704819Y-116319047D01*
X165704819Y-116319047D02*
X165752438Y-116414285D01*
X165752438Y-116414285D02*
X165800057Y-116461904D01*
X165800057Y-116461904D02*
X165895295Y-116509523D01*
X165895295Y-116509523D02*
X165990533Y-116509523D01*
X165990533Y-116509523D02*
X166133390Y-116461904D01*
X166133390Y-116461904D02*
X166704819Y-115890476D01*
X166704819Y-115890476D02*
X166704819Y-116509523D01*
X166038152Y-117366666D02*
X166704819Y-117366666D01*
X165657200Y-117128571D02*
X166371485Y-116890476D01*
X166371485Y-116890476D02*
X166371485Y-117509523D01*
X120376174Y-106667032D02*
X120275159Y-106094613D01*
X120780235Y-106262971D02*
X120073128Y-105555865D01*
X120073128Y-105555865D02*
X119803754Y-105825239D01*
X119803754Y-105825239D02*
X119770082Y-105926254D01*
X119770082Y-105926254D02*
X119770082Y-105993597D01*
X119770082Y-105993597D02*
X119803754Y-106094613D01*
X119803754Y-106094613D02*
X119904769Y-106195628D01*
X119904769Y-106195628D02*
X120005785Y-106229300D01*
X120005785Y-106229300D02*
X120073128Y-106229300D01*
X120073128Y-106229300D02*
X120174143Y-106195628D01*
X120174143Y-106195628D02*
X120443517Y-105926254D01*
X119433365Y-106195628D02*
X118995632Y-106633361D01*
X118995632Y-106633361D02*
X119500708Y-106667032D01*
X119500708Y-106667032D02*
X119399693Y-106768048D01*
X119399693Y-106768048D02*
X119366021Y-106869063D01*
X119366021Y-106869063D02*
X119366021Y-106936406D01*
X119366021Y-106936406D02*
X119399693Y-107037422D01*
X119399693Y-107037422D02*
X119568052Y-107205780D01*
X119568052Y-107205780D02*
X119669067Y-107239452D01*
X119669067Y-107239452D02*
X119736411Y-107239452D01*
X119736411Y-107239452D02*
X119837426Y-107205780D01*
X119837426Y-107205780D02*
X120039456Y-107003750D01*
X120039456Y-107003750D02*
X120073128Y-106902735D01*
X120073128Y-106902735D02*
X120073128Y-106835391D01*
X119029304Y-108013903D02*
X119433365Y-107609842D01*
X119231334Y-107811872D02*
X118524227Y-107104765D01*
X118524227Y-107104765D02*
X118692586Y-107138437D01*
X118692586Y-107138437D02*
X118827273Y-107138437D01*
X118827273Y-107138437D02*
X118928288Y-107104765D01*
X160526174Y-119517036D02*
X160425159Y-118944617D01*
X160930235Y-119112975D02*
X160223128Y-118405869D01*
X160223128Y-118405869D02*
X159953754Y-118675243D01*
X159953754Y-118675243D02*
X159920082Y-118776258D01*
X159920082Y-118776258D02*
X159920082Y-118843601D01*
X159920082Y-118843601D02*
X159953754Y-118944617D01*
X159953754Y-118944617D02*
X160054769Y-119045632D01*
X160054769Y-119045632D02*
X160155785Y-119079304D01*
X160155785Y-119079304D02*
X160223128Y-119079304D01*
X160223128Y-119079304D02*
X160324143Y-119045632D01*
X160324143Y-119045632D02*
X160593517Y-118776258D01*
X159617037Y-119146647D02*
X159549693Y-119146647D01*
X159549693Y-119146647D02*
X159448678Y-119180319D01*
X159448678Y-119180319D02*
X159280319Y-119348678D01*
X159280319Y-119348678D02*
X159246647Y-119449693D01*
X159246647Y-119449693D02*
X159246647Y-119517036D01*
X159246647Y-119517036D02*
X159280319Y-119618052D01*
X159280319Y-119618052D02*
X159347663Y-119685395D01*
X159347663Y-119685395D02*
X159482350Y-119752739D01*
X159482350Y-119752739D02*
X160290472Y-119752739D01*
X160290472Y-119752739D02*
X159852739Y-120190471D01*
X158909930Y-119719067D02*
X158438525Y-120190472D01*
X158438525Y-120190472D02*
X159448678Y-120594533D01*
X135642857Y-128454815D02*
X135976190Y-127978624D01*
X136214285Y-128454815D02*
X136214285Y-127454815D01*
X136214285Y-127454815D02*
X135833333Y-127454815D01*
X135833333Y-127454815D02*
X135738095Y-127502434D01*
X135738095Y-127502434D02*
X135690476Y-127550053D01*
X135690476Y-127550053D02*
X135642857Y-127645291D01*
X135642857Y-127645291D02*
X135642857Y-127788148D01*
X135642857Y-127788148D02*
X135690476Y-127883386D01*
X135690476Y-127883386D02*
X135738095Y-127931005D01*
X135738095Y-127931005D02*
X135833333Y-127978624D01*
X135833333Y-127978624D02*
X136214285Y-127978624D01*
X134785714Y-127788148D02*
X134785714Y-128454815D01*
X135023809Y-127407196D02*
X135261904Y-128121481D01*
X135261904Y-128121481D02*
X134642857Y-128121481D01*
X134309523Y-127550053D02*
X134261904Y-127502434D01*
X134261904Y-127502434D02*
X134166666Y-127454815D01*
X134166666Y-127454815D02*
X133928571Y-127454815D01*
X133928571Y-127454815D02*
X133833333Y-127502434D01*
X133833333Y-127502434D02*
X133785714Y-127550053D01*
X133785714Y-127550053D02*
X133738095Y-127645291D01*
X133738095Y-127645291D02*
X133738095Y-127740529D01*
X133738095Y-127740529D02*
X133785714Y-127883386D01*
X133785714Y-127883386D02*
X134357142Y-128454815D01*
X134357142Y-128454815D02*
X133738095Y-128454815D01*
X129242857Y-108154819D02*
X129576190Y-107678628D01*
X129814285Y-108154819D02*
X129814285Y-107154819D01*
X129814285Y-107154819D02*
X129433333Y-107154819D01*
X129433333Y-107154819D02*
X129338095Y-107202438D01*
X129338095Y-107202438D02*
X129290476Y-107250057D01*
X129290476Y-107250057D02*
X129242857Y-107345295D01*
X129242857Y-107345295D02*
X129242857Y-107488152D01*
X129242857Y-107488152D02*
X129290476Y-107583390D01*
X129290476Y-107583390D02*
X129338095Y-107631009D01*
X129338095Y-107631009D02*
X129433333Y-107678628D01*
X129433333Y-107678628D02*
X129814285Y-107678628D01*
X128909523Y-107154819D02*
X128290476Y-107154819D01*
X128290476Y-107154819D02*
X128623809Y-107535771D01*
X128623809Y-107535771D02*
X128480952Y-107535771D01*
X128480952Y-107535771D02*
X128385714Y-107583390D01*
X128385714Y-107583390D02*
X128338095Y-107631009D01*
X128338095Y-107631009D02*
X128290476Y-107726247D01*
X128290476Y-107726247D02*
X128290476Y-107964342D01*
X128290476Y-107964342D02*
X128338095Y-108059580D01*
X128338095Y-108059580D02*
X128385714Y-108107200D01*
X128385714Y-108107200D02*
X128480952Y-108154819D01*
X128480952Y-108154819D02*
X128766666Y-108154819D01*
X128766666Y-108154819D02*
X128861904Y-108107200D01*
X128861904Y-108107200D02*
X128909523Y-108059580D01*
X127957142Y-107154819D02*
X127290476Y-107154819D01*
X127290476Y-107154819D02*
X127719047Y-108154819D01*
X124267857Y-104554819D02*
X124601190Y-104078628D01*
X124839285Y-104554819D02*
X124839285Y-103554819D01*
X124839285Y-103554819D02*
X124458333Y-103554819D01*
X124458333Y-103554819D02*
X124363095Y-103602438D01*
X124363095Y-103602438D02*
X124315476Y-103650057D01*
X124315476Y-103650057D02*
X124267857Y-103745295D01*
X124267857Y-103745295D02*
X124267857Y-103888152D01*
X124267857Y-103888152D02*
X124315476Y-103983390D01*
X124315476Y-103983390D02*
X124363095Y-104031009D01*
X124363095Y-104031009D02*
X124458333Y-104078628D01*
X124458333Y-104078628D02*
X124839285Y-104078628D01*
X123934523Y-103554819D02*
X123315476Y-103554819D01*
X123315476Y-103554819D02*
X123648809Y-103935771D01*
X123648809Y-103935771D02*
X123505952Y-103935771D01*
X123505952Y-103935771D02*
X123410714Y-103983390D01*
X123410714Y-103983390D02*
X123363095Y-104031009D01*
X123363095Y-104031009D02*
X123315476Y-104126247D01*
X123315476Y-104126247D02*
X123315476Y-104364342D01*
X123315476Y-104364342D02*
X123363095Y-104459580D01*
X123363095Y-104459580D02*
X123410714Y-104507200D01*
X123410714Y-104507200D02*
X123505952Y-104554819D01*
X123505952Y-104554819D02*
X123791666Y-104554819D01*
X123791666Y-104554819D02*
X123886904Y-104507200D01*
X123886904Y-104507200D02*
X123934523Y-104459580D01*
X122744047Y-103983390D02*
X122839285Y-103935771D01*
X122839285Y-103935771D02*
X122886904Y-103888152D01*
X122886904Y-103888152D02*
X122934523Y-103792914D01*
X122934523Y-103792914D02*
X122934523Y-103745295D01*
X122934523Y-103745295D02*
X122886904Y-103650057D01*
X122886904Y-103650057D02*
X122839285Y-103602438D01*
X122839285Y-103602438D02*
X122744047Y-103554819D01*
X122744047Y-103554819D02*
X122553571Y-103554819D01*
X122553571Y-103554819D02*
X122458333Y-103602438D01*
X122458333Y-103602438D02*
X122410714Y-103650057D01*
X122410714Y-103650057D02*
X122363095Y-103745295D01*
X122363095Y-103745295D02*
X122363095Y-103792914D01*
X122363095Y-103792914D02*
X122410714Y-103888152D01*
X122410714Y-103888152D02*
X122458333Y-103935771D01*
X122458333Y-103935771D02*
X122553571Y-103983390D01*
X122553571Y-103983390D02*
X122744047Y-103983390D01*
X122744047Y-103983390D02*
X122839285Y-104031009D01*
X122839285Y-104031009D02*
X122886904Y-104078628D01*
X122886904Y-104078628D02*
X122934523Y-104173866D01*
X122934523Y-104173866D02*
X122934523Y-104364342D01*
X122934523Y-104364342D02*
X122886904Y-104459580D01*
X122886904Y-104459580D02*
X122839285Y-104507200D01*
X122839285Y-104507200D02*
X122744047Y-104554819D01*
X122744047Y-104554819D02*
X122553571Y-104554819D01*
X122553571Y-104554819D02*
X122458333Y-104507200D01*
X122458333Y-104507200D02*
X122410714Y-104459580D01*
X122410714Y-104459580D02*
X122363095Y-104364342D01*
X122363095Y-104364342D02*
X122363095Y-104173866D01*
X122363095Y-104173866D02*
X122410714Y-104078628D01*
X122410714Y-104078628D02*
X122458333Y-104031009D01*
X122458333Y-104031009D02*
X122553571Y-103983390D01*
X184354819Y-112257142D02*
X183878628Y-111923809D01*
X184354819Y-111685714D02*
X183354819Y-111685714D01*
X183354819Y-111685714D02*
X183354819Y-112066666D01*
X183354819Y-112066666D02*
X183402438Y-112161904D01*
X183402438Y-112161904D02*
X183450057Y-112209523D01*
X183450057Y-112209523D02*
X183545295Y-112257142D01*
X183545295Y-112257142D02*
X183688152Y-112257142D01*
X183688152Y-112257142D02*
X183783390Y-112209523D01*
X183783390Y-112209523D02*
X183831009Y-112161904D01*
X183831009Y-112161904D02*
X183878628Y-112066666D01*
X183878628Y-112066666D02*
X183878628Y-111685714D01*
X184354819Y-113209523D02*
X184354819Y-112638095D01*
X184354819Y-112923809D02*
X183354819Y-112923809D01*
X183354819Y-112923809D02*
X183497676Y-112828571D01*
X183497676Y-112828571D02*
X183592914Y-112733333D01*
X183592914Y-112733333D02*
X183640533Y-112638095D01*
X183688152Y-114066666D02*
X184354819Y-114066666D01*
X183307200Y-113828571D02*
X184021485Y-113590476D01*
X184021485Y-113590476D02*
X184021485Y-114209523D01*
X208000306Y-119943512D02*
X208707412Y-119236405D01*
X208707412Y-119236405D02*
X208539054Y-119068046D01*
X208539054Y-119068046D02*
X208404367Y-119000703D01*
X208404367Y-119000703D02*
X208269680Y-119000703D01*
X208269680Y-119000703D02*
X208168664Y-119034375D01*
X208168664Y-119034375D02*
X208000306Y-119135390D01*
X208000306Y-119135390D02*
X207899290Y-119236405D01*
X207899290Y-119236405D02*
X207798275Y-119404764D01*
X207798275Y-119404764D02*
X207764603Y-119505779D01*
X207764603Y-119505779D02*
X207764603Y-119640466D01*
X207764603Y-119640466D02*
X207831947Y-119775153D01*
X207831947Y-119775153D02*
X208000306Y-119943512D01*
X207663588Y-118192581D02*
X208000306Y-118529298D01*
X208000306Y-118529298D02*
X207697260Y-118899688D01*
X207697260Y-118899688D02*
X207697260Y-118832344D01*
X207697260Y-118832344D02*
X207663588Y-118731329D01*
X207663588Y-118731329D02*
X207495229Y-118562970D01*
X207495229Y-118562970D02*
X207394214Y-118529298D01*
X207394214Y-118529298D02*
X207326871Y-118529298D01*
X207326871Y-118529298D02*
X207225855Y-118562970D01*
X207225855Y-118562970D02*
X207057497Y-118731329D01*
X207057497Y-118731329D02*
X207023825Y-118832344D01*
X207023825Y-118832344D02*
X207023825Y-118899688D01*
X207023825Y-118899688D02*
X207057497Y-119000703D01*
X207057497Y-119000703D02*
X207225855Y-119169062D01*
X207225855Y-119169062D02*
X207326871Y-119202733D01*
X207326871Y-119202733D02*
X207394214Y-119202733D01*
X128214284Y-97954815D02*
X128214284Y-96954815D01*
X128214284Y-96954815D02*
X127976189Y-96954815D01*
X127976189Y-96954815D02*
X127833332Y-97002434D01*
X127833332Y-97002434D02*
X127738094Y-97097672D01*
X127738094Y-97097672D02*
X127690475Y-97192910D01*
X127690475Y-97192910D02*
X127642856Y-97383386D01*
X127642856Y-97383386D02*
X127642856Y-97526243D01*
X127642856Y-97526243D02*
X127690475Y-97716719D01*
X127690475Y-97716719D02*
X127738094Y-97811957D01*
X127738094Y-97811957D02*
X127833332Y-97907196D01*
X127833332Y-97907196D02*
X127976189Y-97954815D01*
X127976189Y-97954815D02*
X128214284Y-97954815D01*
X126690475Y-97954815D02*
X127261903Y-97954815D01*
X126976189Y-97954815D02*
X126976189Y-96954815D01*
X126976189Y-96954815D02*
X127071427Y-97097672D01*
X127071427Y-97097672D02*
X127166665Y-97192910D01*
X127166665Y-97192910D02*
X127261903Y-97240529D01*
X126071427Y-96954815D02*
X125976189Y-96954815D01*
X125976189Y-96954815D02*
X125880951Y-97002434D01*
X125880951Y-97002434D02*
X125833332Y-97050053D01*
X125833332Y-97050053D02*
X125785713Y-97145291D01*
X125785713Y-97145291D02*
X125738094Y-97335767D01*
X125738094Y-97335767D02*
X125738094Y-97573862D01*
X125738094Y-97573862D02*
X125785713Y-97764338D01*
X125785713Y-97764338D02*
X125833332Y-97859576D01*
X125833332Y-97859576D02*
X125880951Y-97907196D01*
X125880951Y-97907196D02*
X125976189Y-97954815D01*
X125976189Y-97954815D02*
X126071427Y-97954815D01*
X126071427Y-97954815D02*
X126166665Y-97907196D01*
X126166665Y-97907196D02*
X126214284Y-97859576D01*
X126214284Y-97859576D02*
X126261903Y-97764338D01*
X126261903Y-97764338D02*
X126309522Y-97573862D01*
X126309522Y-97573862D02*
X126309522Y-97335767D01*
X126309522Y-97335767D02*
X126261903Y-97145291D01*
X126261903Y-97145291D02*
X126214284Y-97050053D01*
X126214284Y-97050053D02*
X126166665Y-97002434D01*
X126166665Y-97002434D02*
X126071427Y-96954815D01*
X189314819Y-128287137D02*
X188838628Y-127953804D01*
X189314819Y-127715709D02*
X188314819Y-127715709D01*
X188314819Y-127715709D02*
X188314819Y-128096661D01*
X188314819Y-128096661D02*
X188362438Y-128191899D01*
X188362438Y-128191899D02*
X188410057Y-128239518D01*
X188410057Y-128239518D02*
X188505295Y-128287137D01*
X188505295Y-128287137D02*
X188648152Y-128287137D01*
X188648152Y-128287137D02*
X188743390Y-128239518D01*
X188743390Y-128239518D02*
X188791009Y-128191899D01*
X188791009Y-128191899D02*
X188838628Y-128096661D01*
X188838628Y-128096661D02*
X188838628Y-127715709D01*
X189314819Y-129239518D02*
X189314819Y-128668090D01*
X189314819Y-128953804D02*
X188314819Y-128953804D01*
X188314819Y-128953804D02*
X188457676Y-128858566D01*
X188457676Y-128858566D02*
X188552914Y-128763328D01*
X188552914Y-128763328D02*
X188600533Y-128668090D01*
X188314819Y-129858566D02*
X188314819Y-129953804D01*
X188314819Y-129953804D02*
X188362438Y-130049042D01*
X188362438Y-130049042D02*
X188410057Y-130096661D01*
X188410057Y-130096661D02*
X188505295Y-130144280D01*
X188505295Y-130144280D02*
X188695771Y-130191899D01*
X188695771Y-130191899D02*
X188933866Y-130191899D01*
X188933866Y-130191899D02*
X189124342Y-130144280D01*
X189124342Y-130144280D02*
X189219580Y-130096661D01*
X189219580Y-130096661D02*
X189267200Y-130049042D01*
X189267200Y-130049042D02*
X189314819Y-129953804D01*
X189314819Y-129953804D02*
X189314819Y-129858566D01*
X189314819Y-129858566D02*
X189267200Y-129763328D01*
X189267200Y-129763328D02*
X189219580Y-129715709D01*
X189219580Y-129715709D02*
X189124342Y-129668090D01*
X189124342Y-129668090D02*
X188933866Y-129620471D01*
X188933866Y-129620471D02*
X188695771Y-129620471D01*
X188695771Y-129620471D02*
X188505295Y-129668090D01*
X188505295Y-129668090D02*
X188410057Y-129715709D01*
X188410057Y-129715709D02*
X188362438Y-129763328D01*
X188362438Y-129763328D02*
X188314819Y-129858566D01*
X180866666Y-129304815D02*
X181199999Y-128828624D01*
X181438094Y-129304815D02*
X181438094Y-128304815D01*
X181438094Y-128304815D02*
X181057142Y-128304815D01*
X181057142Y-128304815D02*
X180961904Y-128352434D01*
X180961904Y-128352434D02*
X180914285Y-128400053D01*
X180914285Y-128400053D02*
X180866666Y-128495291D01*
X180866666Y-128495291D02*
X180866666Y-128638148D01*
X180866666Y-128638148D02*
X180914285Y-128733386D01*
X180914285Y-128733386D02*
X180961904Y-128781005D01*
X180961904Y-128781005D02*
X181057142Y-128828624D01*
X181057142Y-128828624D02*
X181438094Y-128828624D01*
X180009523Y-128304815D02*
X180199999Y-128304815D01*
X180199999Y-128304815D02*
X180295237Y-128352434D01*
X180295237Y-128352434D02*
X180342856Y-128400053D01*
X180342856Y-128400053D02*
X180438094Y-128542910D01*
X180438094Y-128542910D02*
X180485713Y-128733386D01*
X180485713Y-128733386D02*
X180485713Y-129114338D01*
X180485713Y-129114338D02*
X180438094Y-129209576D01*
X180438094Y-129209576D02*
X180390475Y-129257196D01*
X180390475Y-129257196D02*
X180295237Y-129304815D01*
X180295237Y-129304815D02*
X180104761Y-129304815D01*
X180104761Y-129304815D02*
X180009523Y-129257196D01*
X180009523Y-129257196D02*
X179961904Y-129209576D01*
X179961904Y-129209576D02*
X179914285Y-129114338D01*
X179914285Y-129114338D02*
X179914285Y-128876243D01*
X179914285Y-128876243D02*
X179961904Y-128781005D01*
X179961904Y-128781005D02*
X180009523Y-128733386D01*
X180009523Y-128733386D02*
X180104761Y-128685767D01*
X180104761Y-128685767D02*
X180295237Y-128685767D01*
X180295237Y-128685767D02*
X180390475Y-128733386D01*
X180390475Y-128733386D02*
X180438094Y-128781005D01*
X180438094Y-128781005D02*
X180485713Y-128876243D01*
X149246854Y-118542211D02*
X148770663Y-118208878D01*
X149246854Y-117970783D02*
X148246854Y-117970783D01*
X148246854Y-117970783D02*
X148246854Y-118351735D01*
X148246854Y-118351735D02*
X148294473Y-118446973D01*
X148294473Y-118446973D02*
X148342092Y-118494592D01*
X148342092Y-118494592D02*
X148437330Y-118542211D01*
X148437330Y-118542211D02*
X148580187Y-118542211D01*
X148580187Y-118542211D02*
X148675425Y-118494592D01*
X148675425Y-118494592D02*
X148723044Y-118446973D01*
X148723044Y-118446973D02*
X148770663Y-118351735D01*
X148770663Y-118351735D02*
X148770663Y-117970783D01*
X148342092Y-118923164D02*
X148294473Y-118970783D01*
X148294473Y-118970783D02*
X148246854Y-119066021D01*
X148246854Y-119066021D02*
X148246854Y-119304116D01*
X148246854Y-119304116D02*
X148294473Y-119399354D01*
X148294473Y-119399354D02*
X148342092Y-119446973D01*
X148342092Y-119446973D02*
X148437330Y-119494592D01*
X148437330Y-119494592D02*
X148532568Y-119494592D01*
X148532568Y-119494592D02*
X148675425Y-119446973D01*
X148675425Y-119446973D02*
X149246854Y-118875545D01*
X149246854Y-118875545D02*
X149246854Y-119494592D01*
X148246854Y-120351735D02*
X148246854Y-120161259D01*
X148246854Y-120161259D02*
X148294473Y-120066021D01*
X148294473Y-120066021D02*
X148342092Y-120018402D01*
X148342092Y-120018402D02*
X148484949Y-119923164D01*
X148484949Y-119923164D02*
X148675425Y-119875545D01*
X148675425Y-119875545D02*
X149056377Y-119875545D01*
X149056377Y-119875545D02*
X149151615Y-119923164D01*
X149151615Y-119923164D02*
X149199235Y-119970783D01*
X149199235Y-119970783D02*
X149246854Y-120066021D01*
X149246854Y-120066021D02*
X149246854Y-120256497D01*
X149246854Y-120256497D02*
X149199235Y-120351735D01*
X149199235Y-120351735D02*
X149151615Y-120399354D01*
X149151615Y-120399354D02*
X149056377Y-120446973D01*
X149056377Y-120446973D02*
X148818282Y-120446973D01*
X148818282Y-120446973D02*
X148723044Y-120399354D01*
X148723044Y-120399354D02*
X148675425Y-120351735D01*
X148675425Y-120351735D02*
X148627806Y-120256497D01*
X148627806Y-120256497D02*
X148627806Y-120066021D01*
X148627806Y-120066021D02*
X148675425Y-119970783D01*
X148675425Y-119970783D02*
X148723044Y-119923164D01*
X148723044Y-119923164D02*
X148818282Y-119875545D01*
X186196244Y-129289451D02*
X186768663Y-129188436D01*
X186600305Y-129693512D02*
X187307411Y-128986405D01*
X187307411Y-128986405D02*
X187038037Y-128717031D01*
X187038037Y-128717031D02*
X186937022Y-128683359D01*
X186937022Y-128683359D02*
X186869679Y-128683359D01*
X186869679Y-128683359D02*
X186768663Y-128717031D01*
X186768663Y-128717031D02*
X186667648Y-128818046D01*
X186667648Y-128818046D02*
X186633976Y-128919062D01*
X186633976Y-128919062D02*
X186633976Y-128986405D01*
X186633976Y-128986405D02*
X186667648Y-129087420D01*
X186667648Y-129087420D02*
X186937022Y-129356794D01*
X186196244Y-128481329D02*
X186297259Y-128515001D01*
X186297259Y-128515001D02*
X186364602Y-128515001D01*
X186364602Y-128515001D02*
X186465618Y-128481329D01*
X186465618Y-128481329D02*
X186499289Y-128447657D01*
X186499289Y-128447657D02*
X186532961Y-128346642D01*
X186532961Y-128346642D02*
X186532961Y-128279298D01*
X186532961Y-128279298D02*
X186499289Y-128178283D01*
X186499289Y-128178283D02*
X186364602Y-128043596D01*
X186364602Y-128043596D02*
X186263587Y-128009924D01*
X186263587Y-128009924D02*
X186196244Y-128009924D01*
X186196244Y-128009924D02*
X186095228Y-128043596D01*
X186095228Y-128043596D02*
X186061557Y-128077268D01*
X186061557Y-128077268D02*
X186027885Y-128178283D01*
X186027885Y-128178283D02*
X186027885Y-128245627D01*
X186027885Y-128245627D02*
X186061557Y-128346642D01*
X186061557Y-128346642D02*
X186196244Y-128481329D01*
X186196244Y-128481329D02*
X186229915Y-128582344D01*
X186229915Y-128582344D02*
X186229915Y-128649688D01*
X186229915Y-128649688D02*
X186196244Y-128750703D01*
X186196244Y-128750703D02*
X186061557Y-128885390D01*
X186061557Y-128885390D02*
X185960541Y-128919062D01*
X185960541Y-128919062D02*
X185893198Y-128919062D01*
X185893198Y-128919062D02*
X185792183Y-128885390D01*
X185792183Y-128885390D02*
X185657496Y-128750703D01*
X185657496Y-128750703D02*
X185623824Y-128649688D01*
X185623824Y-128649688D02*
X185623824Y-128582344D01*
X185623824Y-128582344D02*
X185657496Y-128481329D01*
X185657496Y-128481329D02*
X185792183Y-128346642D01*
X185792183Y-128346642D02*
X185893198Y-128312970D01*
X185893198Y-128312970D02*
X185960541Y-128312970D01*
X185960541Y-128312970D02*
X186061557Y-128346642D01*
X132642857Y-127154819D02*
X132976190Y-126678628D01*
X133214285Y-127154819D02*
X133214285Y-126154819D01*
X133214285Y-126154819D02*
X132833333Y-126154819D01*
X132833333Y-126154819D02*
X132738095Y-126202438D01*
X132738095Y-126202438D02*
X132690476Y-126250057D01*
X132690476Y-126250057D02*
X132642857Y-126345295D01*
X132642857Y-126345295D02*
X132642857Y-126488152D01*
X132642857Y-126488152D02*
X132690476Y-126583390D01*
X132690476Y-126583390D02*
X132738095Y-126631009D01*
X132738095Y-126631009D02*
X132833333Y-126678628D01*
X132833333Y-126678628D02*
X133214285Y-126678628D01*
X132309523Y-126154819D02*
X131690476Y-126154819D01*
X131690476Y-126154819D02*
X132023809Y-126535771D01*
X132023809Y-126535771D02*
X131880952Y-126535771D01*
X131880952Y-126535771D02*
X131785714Y-126583390D01*
X131785714Y-126583390D02*
X131738095Y-126631009D01*
X131738095Y-126631009D02*
X131690476Y-126726247D01*
X131690476Y-126726247D02*
X131690476Y-126964342D01*
X131690476Y-126964342D02*
X131738095Y-127059580D01*
X131738095Y-127059580D02*
X131785714Y-127107200D01*
X131785714Y-127107200D02*
X131880952Y-127154819D01*
X131880952Y-127154819D02*
X132166666Y-127154819D01*
X132166666Y-127154819D02*
X132261904Y-127107200D01*
X132261904Y-127107200D02*
X132309523Y-127059580D01*
X131309523Y-126250057D02*
X131261904Y-126202438D01*
X131261904Y-126202438D02*
X131166666Y-126154819D01*
X131166666Y-126154819D02*
X130928571Y-126154819D01*
X130928571Y-126154819D02*
X130833333Y-126202438D01*
X130833333Y-126202438D02*
X130785714Y-126250057D01*
X130785714Y-126250057D02*
X130738095Y-126345295D01*
X130738095Y-126345295D02*
X130738095Y-126440533D01*
X130738095Y-126440533D02*
X130785714Y-126583390D01*
X130785714Y-126583390D02*
X131357142Y-127154819D01*
X131357142Y-127154819D02*
X130738095Y-127154819D01*
X203100306Y-121543512D02*
X203807412Y-120836405D01*
X203807412Y-120836405D02*
X203639054Y-120668046D01*
X203639054Y-120668046D02*
X203504367Y-120600703D01*
X203504367Y-120600703D02*
X203369680Y-120600703D01*
X203369680Y-120600703D02*
X203268664Y-120634375D01*
X203268664Y-120634375D02*
X203100306Y-120735390D01*
X203100306Y-120735390D02*
X202999290Y-120836405D01*
X202999290Y-120836405D02*
X202898275Y-121004764D01*
X202898275Y-121004764D02*
X202864603Y-121105779D01*
X202864603Y-121105779D02*
X202864603Y-121240466D01*
X202864603Y-121240466D02*
X202931947Y-121375153D01*
X202931947Y-121375153D02*
X203100306Y-121543512D01*
X202797260Y-119826253D02*
X202931947Y-119960940D01*
X202931947Y-119960940D02*
X202965619Y-120061955D01*
X202965619Y-120061955D02*
X202965619Y-120129298D01*
X202965619Y-120129298D02*
X202931947Y-120297657D01*
X202931947Y-120297657D02*
X202830932Y-120466016D01*
X202830932Y-120466016D02*
X202561558Y-120735390D01*
X202561558Y-120735390D02*
X202460542Y-120769062D01*
X202460542Y-120769062D02*
X202393199Y-120769062D01*
X202393199Y-120769062D02*
X202292184Y-120735390D01*
X202292184Y-120735390D02*
X202157497Y-120600703D01*
X202157497Y-120600703D02*
X202123825Y-120499688D01*
X202123825Y-120499688D02*
X202123825Y-120432344D01*
X202123825Y-120432344D02*
X202157497Y-120331329D01*
X202157497Y-120331329D02*
X202325855Y-120162970D01*
X202325855Y-120162970D02*
X202426871Y-120129298D01*
X202426871Y-120129298D02*
X202494214Y-120129298D01*
X202494214Y-120129298D02*
X202595229Y-120162970D01*
X202595229Y-120162970D02*
X202729916Y-120297657D01*
X202729916Y-120297657D02*
X202763588Y-120398672D01*
X202763588Y-120398672D02*
X202763588Y-120466016D01*
X202763588Y-120466016D02*
X202729916Y-120567031D01*
X180866666Y-127904815D02*
X181199999Y-127428624D01*
X181438094Y-127904815D02*
X181438094Y-126904815D01*
X181438094Y-126904815D02*
X181057142Y-126904815D01*
X181057142Y-126904815D02*
X180961904Y-126952434D01*
X180961904Y-126952434D02*
X180914285Y-127000053D01*
X180914285Y-127000053D02*
X180866666Y-127095291D01*
X180866666Y-127095291D02*
X180866666Y-127238148D01*
X180866666Y-127238148D02*
X180914285Y-127333386D01*
X180914285Y-127333386D02*
X180961904Y-127381005D01*
X180961904Y-127381005D02*
X181057142Y-127428624D01*
X181057142Y-127428624D02*
X181438094Y-127428624D01*
X180533332Y-126904815D02*
X179866666Y-126904815D01*
X179866666Y-126904815D02*
X180295237Y-127904815D01*
X124342857Y-123554819D02*
X124676190Y-123078628D01*
X124914285Y-123554819D02*
X124914285Y-122554819D01*
X124914285Y-122554819D02*
X124533333Y-122554819D01*
X124533333Y-122554819D02*
X124438095Y-122602438D01*
X124438095Y-122602438D02*
X124390476Y-122650057D01*
X124390476Y-122650057D02*
X124342857Y-122745295D01*
X124342857Y-122745295D02*
X124342857Y-122888152D01*
X124342857Y-122888152D02*
X124390476Y-122983390D01*
X124390476Y-122983390D02*
X124438095Y-123031009D01*
X124438095Y-123031009D02*
X124533333Y-123078628D01*
X124533333Y-123078628D02*
X124914285Y-123078628D01*
X124009523Y-122554819D02*
X123390476Y-122554819D01*
X123390476Y-122554819D02*
X123723809Y-122935771D01*
X123723809Y-122935771D02*
X123580952Y-122935771D01*
X123580952Y-122935771D02*
X123485714Y-122983390D01*
X123485714Y-122983390D02*
X123438095Y-123031009D01*
X123438095Y-123031009D02*
X123390476Y-123126247D01*
X123390476Y-123126247D02*
X123390476Y-123364342D01*
X123390476Y-123364342D02*
X123438095Y-123459580D01*
X123438095Y-123459580D02*
X123485714Y-123507200D01*
X123485714Y-123507200D02*
X123580952Y-123554819D01*
X123580952Y-123554819D02*
X123866666Y-123554819D01*
X123866666Y-123554819D02*
X123961904Y-123507200D01*
X123961904Y-123507200D02*
X124009523Y-123459580D01*
X122533333Y-122888152D02*
X122533333Y-123554819D01*
X122771428Y-122507200D02*
X123009523Y-123221485D01*
X123009523Y-123221485D02*
X122390476Y-123221485D01*
%TO.C,R41*%
D11*
X158927064Y-130714996D02*
X158472936Y-130714996D01*
X158927064Y-132184996D02*
X158472936Y-132184996D01*
%TO.C,C14*%
X202867294Y-111006736D02*
X203236761Y-111376203D01*
X203906741Y-109967289D02*
X204276208Y-110336756D01*
%TO.C,C16*%
X202867294Y-106006737D02*
X203236761Y-106376204D01*
X203906741Y-104967290D02*
X204276208Y-105336757D01*
%TO.C,R25*%
X151771813Y-117134698D02*
X151771813Y-117588826D01*
X153241813Y-117134698D02*
X153241813Y-117588826D01*
%TO.C,R36*%
X132227064Y-105265000D02*
X131772936Y-105265000D01*
X132227064Y-106735000D02*
X131772936Y-106735000D01*
%TO.C,C6*%
X161998747Y-88769909D02*
X162521251Y-88769909D01*
X161998747Y-90239909D02*
X162521251Y-90239909D01*
%TO.C,R23*%
X161515000Y-115972937D02*
X161515000Y-116427065D01*
X162985000Y-115972937D02*
X162985000Y-116427065D01*
%TO.C,TP7*%
X153950000Y-123000000D02*
G75*
G02*
X152050000Y-123000000I-950000J0D01*
G01*
X152050000Y-123000000D02*
G75*
G02*
X153950000Y-123000000I950000J0D01*
G01*
%TO.C,C15*%
X190064999Y-131738743D02*
X190064999Y-132261247D01*
X191534999Y-131738743D02*
X191534999Y-132261247D01*
%TO.C,TP2*%
X178950000Y-87000000D02*
G75*
G02*
X177050000Y-87000000I-950000J0D01*
G01*
X177050000Y-87000000D02*
G75*
G02*
X178950000Y-87000000I950000J0D01*
G01*
%TO.C,C27*%
X120163748Y-110264995D02*
X120686252Y-110264995D01*
X120163748Y-111734995D02*
X120686252Y-111734995D01*
%TO.C,C30*%
X136538748Y-130964995D02*
X137061252Y-130964995D01*
X136538748Y-132434995D02*
X137061252Y-132434995D01*
%TO.C,D12*%
X147300000Y-128589996D02*
X151710000Y-128589996D01*
X151710000Y-128589996D02*
X151710000Y-130809996D01*
X151710000Y-130809996D02*
X147300000Y-130809996D01*
%TO.C,Q1*%
X153902500Y-130839996D02*
X153902500Y-131839996D01*
X153902500Y-132959996D02*
X153902500Y-133959996D01*
X153902500Y-133959996D02*
X155422500Y-133959996D01*
X155422500Y-130839996D02*
X153902500Y-130839996D01*
X155422500Y-130889996D02*
X155422500Y-130839996D01*
X155422500Y-132789996D02*
X155422500Y-132009996D01*
X155422500Y-133959996D02*
X155422500Y-133909996D01*
X156202500Y-132349996D02*
X155722500Y-132349996D01*
X155962500Y-132019996D01*
X156202500Y-132349996D01*
G36*
X156202500Y-132349996D02*
G01*
X155722500Y-132349996D01*
X155962500Y-132019996D01*
X156202500Y-132349996D01*
G37*
%TO.C,R12*%
X167424953Y-129640831D02*
X167746070Y-129319714D01*
X168464400Y-130680278D02*
X168785517Y-130359161D01*
%TO.C,TP5*%
X154352569Y-87005789D02*
G75*
G02*
X152452569Y-87005789I-950000J0D01*
G01*
X152452569Y-87005789D02*
G75*
G02*
X154352569Y-87005789I950000J0D01*
G01*
%TO.C,C24*%
X155607885Y-117838355D02*
X155238418Y-117468888D01*
X156647332Y-116798908D02*
X156277865Y-116429441D01*
%TO.C,R9*%
X183715000Y-131735431D02*
X183715000Y-132189559D01*
X185185000Y-131735431D02*
X185185000Y-132189559D01*
%TO.C,R33*%
X128827064Y-124265000D02*
X128372936Y-124265000D01*
X128827064Y-125735000D02*
X128372936Y-125735000D01*
D12*
%TO.C,G1*%
G36*
X175327312Y-119399059D02*
G01*
X175388083Y-119420073D01*
X175494670Y-119392111D01*
X175556687Y-119367033D01*
X175649757Y-119367713D01*
X175653754Y-119369372D01*
X175682950Y-119395271D01*
X175702548Y-119451576D01*
X175714334Y-119552688D01*
X175720096Y-119713006D01*
X175721619Y-119946931D01*
X175721619Y-120498573D01*
X175589557Y-120498573D01*
X175457494Y-120498573D01*
X175457494Y-120107775D01*
X175451519Y-119887147D01*
X175428974Y-119740286D01*
X175383090Y-119656280D01*
X175307095Y-119622775D01*
X175194222Y-119627422D01*
X175078551Y-119622616D01*
X174969577Y-119548199D01*
X174876948Y-119449600D01*
X174966234Y-119401816D01*
X174988098Y-119391015D01*
X175159980Y-119356156D01*
X175327312Y-119399059D01*
G37*
G36*
X170441003Y-119399059D02*
G01*
X170501774Y-119420073D01*
X170608361Y-119392111D01*
X170670378Y-119367033D01*
X170763448Y-119367713D01*
X170767446Y-119369372D01*
X170796642Y-119395271D01*
X170816239Y-119451576D01*
X170828025Y-119552688D01*
X170833787Y-119713006D01*
X170835311Y-119946931D01*
X170835311Y-120498573D01*
X170703248Y-120498573D01*
X170571186Y-120498573D01*
X170571186Y-120132809D01*
X170565196Y-119919013D01*
X170541338Y-119759061D01*
X170493605Y-119664808D01*
X170416032Y-119625056D01*
X170302657Y-119628608D01*
X170244513Y-119635639D01*
X170149615Y-119620373D01*
X170075320Y-119549284D01*
X170028455Y-119481346D01*
X170026735Y-119437795D01*
X170083431Y-119399940D01*
X170104203Y-119389694D01*
X170274270Y-119356143D01*
X170441003Y-119399059D01*
G37*
G36*
X170455303Y-117606881D02*
G01*
X170459300Y-117608540D01*
X170488496Y-117634439D01*
X170508094Y-117690744D01*
X170519880Y-117791856D01*
X170525641Y-117952174D01*
X170527165Y-118186099D01*
X170527165Y-118737741D01*
X170395103Y-118737741D01*
X170263040Y-118737741D01*
X170263040Y-118366708D01*
X170257242Y-118167375D01*
X170232041Y-118004214D01*
X170181123Y-117908366D01*
X170098331Y-117869258D01*
X169977508Y-117876318D01*
X169967917Y-117878046D01*
X169847978Y-117877340D01*
X169759864Y-117816689D01*
X169715279Y-117748091D01*
X169710012Y-117685720D01*
X169775970Y-117641165D01*
X169893561Y-117613260D01*
X170022836Y-117609346D01*
X170125329Y-117634197D01*
X170202181Y-117660436D01*
X170300216Y-117631280D01*
X170362233Y-117606201D01*
X170455303Y-117606881D01*
G37*
G36*
X169381446Y-117643331D02*
G01*
X169567424Y-117764248D01*
X169578554Y-117774317D01*
X169659286Y-117865191D01*
X169701809Y-117969752D01*
X169722001Y-118125060D01*
X169724621Y-118199269D01*
X169688293Y-118424580D01*
X169584005Y-118598925D01*
X169414773Y-118716497D01*
X169265082Y-118768153D01*
X169127726Y-118771135D01*
X168968387Y-118720222D01*
X168937661Y-118706872D01*
X168818003Y-118634462D01*
X168782466Y-118561061D01*
X168827867Y-118481257D01*
X168835652Y-118473629D01*
X168905804Y-118433192D01*
X168986551Y-118463471D01*
X169126932Y-118516130D01*
X169271360Y-118502339D01*
X169386180Y-118422693D01*
X169449682Y-118285534D01*
X169460006Y-118170774D01*
X169424952Y-118011981D01*
X169333456Y-117907593D01*
X169196848Y-117867852D01*
X169026463Y-117903000D01*
X168949182Y-117930558D01*
X168875928Y-117927471D01*
X168803268Y-117869803D01*
X168714421Y-117780957D01*
X168917908Y-117682451D01*
X168972345Y-117658113D01*
X169185732Y-117608286D01*
X169381446Y-117643331D01*
G37*
G36*
X175363061Y-117633800D02*
G01*
X175441586Y-117660546D01*
X175538691Y-117631280D01*
X175600707Y-117606201D01*
X175693777Y-117606881D01*
X175697775Y-117608540D01*
X175726971Y-117634439D01*
X175746568Y-117690744D01*
X175758355Y-117791856D01*
X175764116Y-117952174D01*
X175765640Y-118186099D01*
X175765640Y-118737741D01*
X175633577Y-118737741D01*
X175501515Y-118737741D01*
X175501515Y-118366708D01*
X175499489Y-118241930D01*
X175481499Y-118055369D01*
X175440206Y-117937213D01*
X175369947Y-117875264D01*
X175265061Y-117857325D01*
X175194381Y-117864415D01*
X175127573Y-117903020D01*
X175086942Y-117987643D01*
X175066761Y-118132137D01*
X175061307Y-118350358D01*
X175061307Y-118737741D01*
X174929245Y-118737741D01*
X174797182Y-118737741D01*
X174797182Y-118283196D01*
X174797184Y-118274017D01*
X174798903Y-118069161D01*
X174806298Y-117932148D01*
X174822949Y-117843522D01*
X174852438Y-117783829D01*
X174898345Y-117733613D01*
X174918391Y-117715998D01*
X175064867Y-117634143D01*
X175224844Y-117604220D01*
X175363061Y-117633800D01*
G37*
G36*
X179302150Y-118412927D02*
G01*
X179211931Y-118589208D01*
X179058480Y-118708123D01*
X179051342Y-118711620D01*
X178900059Y-118768913D01*
X178766657Y-118771141D01*
X178606991Y-118719407D01*
X178542489Y-118688297D01*
X178407112Y-118573506D01*
X178331636Y-118407913D01*
X178313027Y-118215907D01*
X178579821Y-118215907D01*
X178601240Y-118351907D01*
X178652146Y-118448461D01*
X178742986Y-118509385D01*
X178860064Y-118517329D01*
X178964132Y-118457927D01*
X179038681Y-118341867D01*
X179067200Y-118179832D01*
X179066954Y-118162912D01*
X179031463Y-117998179D01*
X178944694Y-117894057D01*
X178819345Y-117859357D01*
X178668118Y-117902894D01*
X178621632Y-117955918D01*
X178586936Y-118073049D01*
X178579821Y-118215907D01*
X178313027Y-118215907D01*
X178309512Y-118179634D01*
X178314631Y-118077977D01*
X178363672Y-117880219D01*
X178470909Y-117739004D01*
X178644187Y-117641726D01*
X178680635Y-117629089D01*
X178882745Y-117604718D01*
X179060825Y-117656846D01*
X179202902Y-117776118D01*
X179297004Y-117953175D01*
X179331160Y-118178662D01*
X179331015Y-118179832D01*
X179302150Y-118412927D01*
G37*
G36*
X172970319Y-118187481D02*
G01*
X172962366Y-118341575D01*
X172917024Y-118508477D01*
X172820945Y-118627740D01*
X172662174Y-118720022D01*
X172525268Y-118767656D01*
X172382569Y-118770125D01*
X172221015Y-118712329D01*
X172128610Y-118652591D01*
X172013353Y-118507925D01*
X171949529Y-118326808D01*
X171937831Y-118138860D01*
X172206724Y-118138860D01*
X172212721Y-118286298D01*
X172268483Y-118419800D01*
X172336191Y-118483078D01*
X172464494Y-118514060D01*
X172607148Y-118470090D01*
X172647385Y-118431548D01*
X172675961Y-118341839D01*
X172684184Y-118186842D01*
X172679532Y-118082034D01*
X172643071Y-117948513D01*
X172561785Y-117877951D01*
X172425449Y-117857325D01*
X172419079Y-117857454D01*
X172316727Y-117899985D01*
X172243667Y-118001938D01*
X172206724Y-118138860D01*
X171937831Y-118138860D01*
X171937322Y-118130689D01*
X171976910Y-117941018D01*
X172068475Y-117779244D01*
X172212198Y-117666817D01*
X172354969Y-117612222D01*
X172515780Y-117600146D01*
X172675469Y-117654724D01*
X172786625Y-117721097D01*
X172897433Y-117832534D01*
X172954287Y-117980085D01*
X172970270Y-118186842D01*
X172970319Y-118187481D01*
G37*
G36*
X170984903Y-117614677D02*
G01*
X171028238Y-117684303D01*
X171049661Y-117818726D01*
X171055415Y-118029313D01*
X171057918Y-118186545D01*
X171073267Y-118352060D01*
X171107550Y-118453231D01*
X171166409Y-118503831D01*
X171255490Y-118517637D01*
X171295700Y-118515060D01*
X171387436Y-118476279D01*
X171449507Y-118382615D01*
X171486922Y-118223424D01*
X171504691Y-117988061D01*
X171511580Y-117816929D01*
X171521882Y-117702513D01*
X171540831Y-117642383D01*
X171574181Y-117619096D01*
X171627685Y-117615210D01*
X171634692Y-117615224D01*
X171684483Y-117620004D01*
X171715722Y-117645085D01*
X171733665Y-117707394D01*
X171743567Y-117823855D01*
X171750682Y-118011398D01*
X171753475Y-118107971D01*
X171754058Y-118317984D01*
X171740744Y-118464308D01*
X171708938Y-118564513D01*
X171654047Y-118636172D01*
X171571478Y-118696856D01*
X171447186Y-118754071D01*
X171297529Y-118757942D01*
X171260078Y-118751574D01*
X171114900Y-118738416D01*
X170956368Y-118735550D01*
X170747269Y-118740517D01*
X170747269Y-118191835D01*
X170747492Y-118070591D01*
X170750144Y-117877893D01*
X170757510Y-117751109D01*
X170771710Y-117675333D01*
X170794869Y-117635658D01*
X170829109Y-117617179D01*
X170913412Y-117598478D01*
X170984903Y-117614677D01*
G37*
G36*
X176974273Y-118074596D02*
G01*
X176981126Y-118265772D01*
X176935056Y-118449320D01*
X176833963Y-118606814D01*
X176675749Y-118719829D01*
X176498885Y-118763407D01*
X176288383Y-118748022D01*
X176099036Y-118669784D01*
X176089480Y-118663517D01*
X176016883Y-118609455D01*
X176011125Y-118567846D01*
X176065571Y-118506286D01*
X176083691Y-118488885D01*
X176159308Y-118446017D01*
X176241611Y-118469197D01*
X176264697Y-118480623D01*
X176418962Y-118517877D01*
X176563120Y-118495989D01*
X176666656Y-118418590D01*
X176736270Y-118319543D01*
X176350002Y-118297533D01*
X175963733Y-118275522D01*
X175972579Y-118083281D01*
X175978550Y-118024579D01*
X175981417Y-118016788D01*
X176249869Y-118016788D01*
X176267435Y-118048288D01*
X176345293Y-118070672D01*
X176497352Y-118077429D01*
X176514156Y-118077427D01*
X176645909Y-118075484D01*
X176706874Y-118064041D01*
X176712802Y-118034530D01*
X176679447Y-117978382D01*
X176600587Y-117905069D01*
X176487334Y-117868065D01*
X176373270Y-117875947D01*
X176285184Y-117926319D01*
X176249869Y-118016788D01*
X175981417Y-118016788D01*
X176047025Y-117838480D01*
X176176314Y-117697799D01*
X176349365Y-117616567D01*
X176549130Y-117608813D01*
X176657178Y-117639554D01*
X176810199Y-117743061D01*
X176916597Y-117894217D01*
X176961462Y-118034530D01*
X176974273Y-118074596D01*
G37*
G36*
X168678291Y-118187481D02*
G01*
X168651632Y-118405818D01*
X168561171Y-118586667D01*
X168405447Y-118710481D01*
X168402372Y-118712030D01*
X168211587Y-118763311D01*
X168003745Y-118750054D01*
X167818209Y-118674659D01*
X167805824Y-118666445D01*
X167725898Y-118598477D01*
X167725487Y-118543045D01*
X167803066Y-118480591D01*
X167877849Y-118447779D01*
X167943932Y-118470002D01*
X168032396Y-118510864D01*
X168154560Y-118510189D01*
X168278848Y-118474872D01*
X168375352Y-118413519D01*
X168414167Y-118334731D01*
X168407742Y-118327869D01*
X168338397Y-118312355D01*
X168209077Y-118301573D01*
X168039990Y-118297533D01*
X167665813Y-118297533D01*
X167665813Y-118104095D01*
X167668369Y-118052524D01*
X167929938Y-118052524D01*
X167951489Y-118062766D01*
X168039430Y-118073332D01*
X168172052Y-118077429D01*
X168310571Y-118072186D01*
X168390893Y-118052100D01*
X168414167Y-118012946D01*
X168414036Y-118007872D01*
X168372660Y-117929643D01*
X168277999Y-117879150D01*
X168160173Y-117861231D01*
X168049302Y-117880725D01*
X167975508Y-117942472D01*
X167948426Y-117997983D01*
X167929938Y-118052524D01*
X167668369Y-118052524D01*
X167668468Y-118050517D01*
X167725218Y-117863786D01*
X167842906Y-117720964D01*
X168004354Y-117632564D01*
X168192383Y-117609095D01*
X168389816Y-117661071D01*
X168395696Y-117663899D01*
X168554686Y-117782909D01*
X168647888Y-117955618D01*
X168655405Y-118012946D01*
X168678291Y-118187481D01*
G37*
G36*
X172056436Y-120249338D02*
G01*
X171961052Y-120389311D01*
X171919243Y-120427830D01*
X171858337Y-120464425D01*
X171775254Y-120484406D01*
X171648057Y-120492240D01*
X171454813Y-120492393D01*
X171055415Y-120488634D01*
X171055415Y-120059332D01*
X171055458Y-120054168D01*
X171370751Y-120054168D01*
X171371641Y-120135401D01*
X171385746Y-120202504D01*
X171433239Y-120249048D01*
X171539643Y-120265033D01*
X171551269Y-120265640D01*
X171700608Y-120260656D01*
X171780243Y-120223275D01*
X171803768Y-120147448D01*
X171775214Y-120071829D01*
X171680688Y-120028028D01*
X171511109Y-120014344D01*
X171409916Y-120020775D01*
X171370751Y-120054168D01*
X171055458Y-120054168D01*
X171056199Y-119965239D01*
X171070159Y-119736783D01*
X171107441Y-119577054D01*
X171175642Y-119472319D01*
X171282359Y-119408845D01*
X171435189Y-119372902D01*
X171533327Y-119364715D01*
X171692524Y-119373444D01*
X171836080Y-119403530D01*
X171939891Y-119449151D01*
X171979851Y-119504482D01*
X171979740Y-119510592D01*
X171940817Y-119601844D01*
X171847505Y-119642070D01*
X171722534Y-119620976D01*
X171629451Y-119593365D01*
X171496240Y-119593728D01*
X171400357Y-119642530D01*
X171363560Y-119732981D01*
X171366791Y-119780405D01*
X171392654Y-119819001D01*
X171463063Y-119835059D01*
X171599738Y-119838261D01*
X171717122Y-119846490D01*
X171894491Y-119899875D01*
X172015362Y-119992734D01*
X172071942Y-120113184D01*
X172068040Y-120147448D01*
X172056436Y-120249338D01*
G37*
G36*
X174893756Y-120043514D02*
G01*
X174859812Y-120242190D01*
X174793987Y-120382584D01*
X174760351Y-120421283D01*
X174665065Y-120482224D01*
X174526969Y-120498573D01*
X174500705Y-120498096D01*
X174365329Y-120482906D01*
X174266039Y-120453003D01*
X174207838Y-120429918D01*
X174180891Y-120453003D01*
X174180868Y-120453860D01*
X174140970Y-120485468D01*
X174047813Y-120498573D01*
X173914735Y-120498573D01*
X173923014Y-119960434D01*
X174181139Y-119960434D01*
X174205260Y-120105844D01*
X174261394Y-120205615D01*
X174307817Y-120241694D01*
X174425842Y-120274722D01*
X174550499Y-120221222D01*
X174581175Y-120184800D01*
X174619765Y-120070832D01*
X174633444Y-119926150D01*
X174620353Y-119786107D01*
X174578632Y-119686060D01*
X174532125Y-119648351D01*
X174419919Y-119619073D01*
X174304887Y-119638034D01*
X174226461Y-119703304D01*
X174191629Y-119806728D01*
X174181139Y-119960434D01*
X173923014Y-119960434D01*
X173926756Y-119717203D01*
X173938777Y-118935834D01*
X174059834Y-118921905D01*
X174082248Y-118919421D01*
X174139069Y-118920343D01*
X174168377Y-118951102D01*
X174179281Y-119031098D01*
X174180891Y-119179734D01*
X174182632Y-119308981D01*
X174192368Y-119396501D01*
X174215634Y-119427344D01*
X174257928Y-119418547D01*
X174332676Y-119392554D01*
X174509159Y-119371719D01*
X174671150Y-119401180D01*
X174796077Y-119474675D01*
X174861368Y-119585942D01*
X174893744Y-119811118D01*
X174893750Y-119926150D01*
X174893756Y-120043514D01*
G37*
G36*
X169998915Y-119972539D02*
G01*
X169998566Y-120014940D01*
X169985525Y-120147429D01*
X169941321Y-120244745D01*
X169849245Y-120348902D01*
X169800287Y-120396131D01*
X169709224Y-120462931D01*
X169608032Y-120492134D01*
X169457934Y-120498573D01*
X169386617Y-120497005D01*
X169224569Y-120472492D01*
X169112371Y-120413371D01*
X169049229Y-120356358D01*
X169036850Y-120309911D01*
X169083858Y-120251491D01*
X169109045Y-120227783D01*
X169178414Y-120198044D01*
X169273017Y-120226641D01*
X169352001Y-120256774D01*
X169519526Y-120271669D01*
X169654288Y-120205615D01*
X169717512Y-120139649D01*
X169739224Y-120079203D01*
X169690818Y-120040670D01*
X169566533Y-120020300D01*
X169360614Y-120014344D01*
X168986437Y-120014344D01*
X168986437Y-119848055D01*
X168990756Y-119794240D01*
X169250562Y-119794240D01*
X169272144Y-119812356D01*
X169360086Y-119831024D01*
X169492676Y-119838261D01*
X169592317Y-119834337D01*
X169694989Y-119818347D01*
X169734791Y-119794240D01*
X169722649Y-119755669D01*
X169659134Y-119675518D01*
X169571091Y-119604656D01*
X169492676Y-119574136D01*
X169450249Y-119585173D01*
X169362082Y-119642914D01*
X169284134Y-119722953D01*
X169250562Y-119794240D01*
X168990756Y-119794240D01*
X168993056Y-119765575D01*
X169060056Y-119588097D01*
X169185242Y-119454984D01*
X169351246Y-119376134D01*
X169540698Y-119361443D01*
X169736232Y-119420808D01*
X169878704Y-119539303D01*
X169968644Y-119725118D01*
X169977101Y-119794240D01*
X169998915Y-119972539D01*
G37*
G36*
X173748983Y-117617045D02*
G01*
X173904853Y-117687858D01*
X174010157Y-117805058D01*
X174048829Y-117960554D01*
X174038925Y-118051348D01*
X173974435Y-118167927D01*
X173842523Y-118246318D01*
X173634600Y-118293423D01*
X173619540Y-118295487D01*
X173458776Y-118322651D01*
X173373968Y-118352820D01*
X173353970Y-118393086D01*
X173387634Y-118450542D01*
X173466485Y-118497279D01*
X173599118Y-118515494D01*
X173744565Y-118498327D01*
X173867236Y-118446108D01*
X173934371Y-118404990D01*
X173991612Y-118407234D01*
X174064119Y-118470472D01*
X174065502Y-118471872D01*
X174127492Y-118540197D01*
X174128789Y-118578601D01*
X174070839Y-118619037D01*
X173975260Y-118668851D01*
X173850735Y-118723386D01*
X173714191Y-118765561D01*
X173562250Y-118773162D01*
X173378809Y-118735784D01*
X173246572Y-118678898D01*
X173134448Y-118571271D01*
X173087033Y-118442314D01*
X173101382Y-118310204D01*
X173174549Y-118193122D01*
X173303591Y-118109246D01*
X173485563Y-118076755D01*
X173510536Y-118076446D01*
X173677637Y-118056660D01*
X173764878Y-118006803D01*
X173770490Y-117927799D01*
X173756274Y-117907368D01*
X173674333Y-117869551D01*
X173556156Y-117856520D01*
X173437173Y-117869731D01*
X173352811Y-117910639D01*
X173334820Y-117925639D01*
X173279669Y-117928539D01*
X173200939Y-117865169D01*
X173187260Y-117851100D01*
X173141356Y-117785119D01*
X173154740Y-117733704D01*
X173236387Y-117686057D01*
X173395276Y-117631377D01*
X173558613Y-117600712D01*
X173748983Y-117617045D01*
G37*
G36*
X176949357Y-120247598D02*
G01*
X176855894Y-120398225D01*
X176829122Y-120424960D01*
X176772386Y-120462376D01*
X176692201Y-120483265D01*
X176567067Y-120491836D01*
X176375480Y-120492302D01*
X175985744Y-120488634D01*
X175985744Y-120093581D01*
X176249869Y-120093581D01*
X176256175Y-120137319D01*
X176302694Y-120225644D01*
X176354355Y-120256918D01*
X176475447Y-120276827D01*
X176603428Y-120259735D01*
X176694030Y-120207674D01*
X176708955Y-120188613D01*
X176725112Y-120132156D01*
X176668996Y-120075611D01*
X176658942Y-120068978D01*
X176551405Y-120030183D01*
X176417538Y-120014344D01*
X176342023Y-120017255D01*
X176269373Y-120039933D01*
X176249869Y-120093581D01*
X175985744Y-120093581D01*
X175985744Y-120050501D01*
X175987250Y-119933047D01*
X175995847Y-119750517D01*
X176010361Y-119608941D01*
X176028835Y-119531851D01*
X176073383Y-119475889D01*
X176204022Y-119401479D01*
X176378208Y-119364397D01*
X176571016Y-119368542D01*
X176757522Y-119417817D01*
X176811550Y-119441809D01*
X176893308Y-119496128D01*
X176894023Y-119548559D01*
X176817357Y-119610927D01*
X176794669Y-119624129D01*
X176706527Y-119646429D01*
X176595269Y-119615354D01*
X176511221Y-119592427D01*
X176383006Y-119600487D01*
X176287398Y-119656062D01*
X176249869Y-119749275D01*
X176253905Y-119786565D01*
X176283992Y-119820028D01*
X176361103Y-119834888D01*
X176505693Y-119838261D01*
X176650976Y-119844239D01*
X176771581Y-119871640D01*
X176857859Y-119928017D01*
X176884792Y-119955513D01*
X176959007Y-120095858D01*
X176956699Y-120132156D01*
X176949357Y-120247598D01*
G37*
G36*
X173747310Y-119366970D02*
G01*
X173784850Y-119409058D01*
X173784804Y-119410487D01*
X173769323Y-119475503D01*
X173730008Y-119604307D01*
X173672584Y-119778911D01*
X173602772Y-119981328D01*
X173544645Y-120144808D01*
X173482983Y-120308404D01*
X173435828Y-120411988D01*
X173395292Y-120469151D01*
X173353485Y-120493482D01*
X173302520Y-120498573D01*
X173249579Y-120494155D01*
X173196986Y-120463829D01*
X173153896Y-120387500D01*
X173104920Y-120245453D01*
X173094960Y-120213740D01*
X173030505Y-120011361D01*
X172984409Y-119888629D01*
X172948418Y-119842055D01*
X172914278Y-119868152D01*
X172873734Y-119963428D01*
X172818531Y-120124396D01*
X172755515Y-120299366D01*
X172703416Y-120410791D01*
X172654366Y-120469321D01*
X172598570Y-120491294D01*
X172529780Y-120492630D01*
X172461251Y-120469284D01*
X172453288Y-120459167D01*
X172412742Y-120378300D01*
X172358771Y-120243053D01*
X172297724Y-120072965D01*
X172235950Y-119887575D01*
X172179798Y-119706424D01*
X172135617Y-119549051D01*
X172109755Y-119434996D01*
X172108560Y-119383798D01*
X172153445Y-119364024D01*
X172248675Y-119361310D01*
X172303889Y-119380460D01*
X172349234Y-119432607D01*
X172392920Y-119535262D01*
X172445069Y-119706198D01*
X172456664Y-119746082D01*
X172505095Y-119892421D01*
X172548011Y-119993239D01*
X172577260Y-120028651D01*
X172581020Y-120026793D01*
X172615968Y-119972153D01*
X172665731Y-119858230D01*
X172720834Y-119706301D01*
X172788895Y-119528241D01*
X172865604Y-119399196D01*
X172940658Y-119357105D01*
X173016065Y-119402183D01*
X173093836Y-119534644D01*
X173175982Y-119754700D01*
X173182105Y-119773528D01*
X173233291Y-119917746D01*
X173276969Y-120019704D01*
X173304252Y-120058365D01*
X173305298Y-120058204D01*
X173331685Y-120014481D01*
X173370207Y-119908239D01*
X173412910Y-119761224D01*
X173444184Y-119646545D01*
X173494107Y-119495271D01*
X173543265Y-119406450D01*
X173601846Y-119364547D01*
X173680042Y-119354032D01*
X173747310Y-119366970D01*
G37*
G36*
X178088338Y-119056891D02*
G01*
X178099945Y-120498573D01*
X177967281Y-120498573D01*
X177834617Y-120498573D01*
X177834617Y-120111190D01*
X177830411Y-119909581D01*
X177812185Y-119760628D01*
X177773314Y-119671941D01*
X177707204Y-119629219D01*
X177607258Y-119618157D01*
X177545864Y-119624432D01*
X177472118Y-119666534D01*
X177425620Y-119758871D01*
X177401381Y-119913758D01*
X177394409Y-120143512D01*
X177394409Y-120498573D01*
X177262347Y-120498573D01*
X177130285Y-120498573D01*
X177130285Y-120044028D01*
X177131909Y-119836125D01*
X177139122Y-119696703D01*
X177155428Y-119606614D01*
X177184330Y-119546506D01*
X177229331Y-119497031D01*
X177324712Y-119426782D01*
X177509320Y-119367910D01*
X177701778Y-119391185D01*
X177834617Y-119437494D01*
X177834617Y-119060897D01*
X177834137Y-118943244D01*
X177829709Y-118806693D01*
X177817766Y-118733657D01*
X177794869Y-118708775D01*
X177757581Y-118716681D01*
X177662539Y-118750891D01*
X177506061Y-118767615D01*
X177357343Y-118719326D01*
X177324909Y-118701701D01*
X177226904Y-118627149D01*
X177167512Y-118527621D01*
X177138163Y-118382413D01*
X177130905Y-118187481D01*
X177394409Y-118187481D01*
X177394531Y-118200793D01*
X177414772Y-118350930D01*
X177463585Y-118448461D01*
X177555266Y-118502438D01*
X177679259Y-118512622D01*
X177781792Y-118464812D01*
X177799820Y-118433238D01*
X177824811Y-118327184D01*
X177834617Y-118187481D01*
X177832519Y-118110219D01*
X177805072Y-117962057D01*
X177740219Y-117881591D01*
X177630864Y-117857325D01*
X177624775Y-117857386D01*
X177498649Y-117897392D01*
X177420933Y-118008718D01*
X177394409Y-118187481D01*
X177130905Y-118187481D01*
X177130285Y-118170819D01*
X177132133Y-118048436D01*
X177145313Y-117914823D01*
X177177132Y-117821873D01*
X177234505Y-117741071D01*
X177238326Y-117736642D01*
X177294182Y-117679234D01*
X177354236Y-117644636D01*
X177439387Y-117628774D01*
X177570537Y-117627573D01*
X177768586Y-117636960D01*
X177842527Y-117637258D01*
X177966680Y-117628545D01*
X178076732Y-117615210D01*
X178081339Y-118187481D01*
X178088338Y-119056891D01*
G37*
G36*
X173487564Y-109327087D02*
G01*
X174114860Y-109339300D01*
X174186862Y-109647446D01*
X174224958Y-109810599D01*
X174275720Y-110028230D01*
X174318924Y-110213702D01*
X174378985Y-110471812D01*
X174775172Y-110620573D01*
X174877419Y-110658555D01*
X175035880Y-110715601D01*
X175151719Y-110754924D01*
X175205133Y-110769656D01*
X175206403Y-110769526D01*
X175259676Y-110744207D01*
X175370538Y-110681241D01*
X175523553Y-110589652D01*
X175703282Y-110478464D01*
X175714238Y-110471595D01*
X175895561Y-110360323D01*
X176051931Y-110268629D01*
X176166976Y-110205850D01*
X176224322Y-110181324D01*
X176245334Y-110189041D01*
X176324732Y-110241600D01*
X176444400Y-110332596D01*
X176588663Y-110448809D01*
X176741847Y-110577019D01*
X176888276Y-110704005D01*
X177012275Y-110816546D01*
X177098170Y-110901423D01*
X177130285Y-110945415D01*
X177130117Y-110946596D01*
X177101145Y-110996150D01*
X177029491Y-111099864D01*
X176925402Y-111243301D01*
X176799125Y-111412022D01*
X176702107Y-111540091D01*
X176588230Y-111699260D01*
X176522045Y-111822064D01*
X176500973Y-111929859D01*
X176522436Y-112043999D01*
X176583857Y-112185840D01*
X176682656Y-112376735D01*
X176844149Y-112684881D01*
X177414991Y-112785820D01*
X177455772Y-112793150D01*
X177666420Y-112834993D01*
X177842179Y-112876346D01*
X177965692Y-112912787D01*
X178019603Y-112939892D01*
X178034863Y-112990302D01*
X178048378Y-113113548D01*
X178055034Y-113281489D01*
X178055237Y-113472020D01*
X178049397Y-113663038D01*
X178037921Y-113832438D01*
X178021218Y-113958116D01*
X177999695Y-114017967D01*
X177940276Y-114041592D01*
X177811634Y-114074945D01*
X177633937Y-114112830D01*
X177426543Y-114150761D01*
X177220168Y-114188076D01*
X177012457Y-114235118D01*
X176875907Y-114281785D01*
X176800975Y-114331568D01*
X176778118Y-114387957D01*
X176776580Y-114397190D01*
X176749924Y-114473034D01*
X176696986Y-114600298D01*
X176626708Y-114757180D01*
X176475298Y-115084888D01*
X176809972Y-115534583D01*
X177144646Y-115984278D01*
X176709674Y-116392552D01*
X176664679Y-116434728D01*
X176510447Y-116578386D01*
X176384146Y-116694626D01*
X176297806Y-116772441D01*
X176263456Y-116800826D01*
X176262882Y-116800687D01*
X176218223Y-116775706D01*
X176114612Y-116713803D01*
X175966740Y-116623843D01*
X175789297Y-116514690D01*
X175779429Y-116508598D01*
X175599211Y-116399623D01*
X175445211Y-116310605D01*
X175333496Y-116250572D01*
X175280133Y-116228555D01*
X175262696Y-116231455D01*
X175177170Y-116262500D01*
X175061307Y-116316597D01*
X175016105Y-116338856D01*
X174906907Y-116385899D01*
X174840534Y-116404638D01*
X174804707Y-116374773D01*
X174745825Y-116283230D01*
X174680591Y-116151519D01*
X174654339Y-116092172D01*
X174603121Y-115977337D01*
X174548519Y-115856589D01*
X174483753Y-115715157D01*
X174402042Y-115538274D01*
X174296607Y-115311172D01*
X174160665Y-115019082D01*
X174093770Y-114873168D01*
X174029654Y-114721809D01*
X173998657Y-114624489D01*
X173996614Y-114566930D01*
X174019358Y-114534853D01*
X174057501Y-114507831D01*
X174158185Y-114437000D01*
X174281725Y-114350440D01*
X174345414Y-114300441D01*
X174490447Y-114154631D01*
X174604314Y-114000561D01*
X174639633Y-113937509D01*
X174694876Y-113807986D01*
X174721720Y-113668201D01*
X174729438Y-113479542D01*
X174728597Y-113376662D01*
X174715053Y-113220669D01*
X174678466Y-113095415D01*
X174610138Y-112963252D01*
X174536088Y-112849217D01*
X174321275Y-112618016D01*
X174060950Y-112460868D01*
X173752695Y-112376580D01*
X173394091Y-112363961D01*
X173217146Y-112381892D01*
X173039185Y-112415883D01*
X172915887Y-112458167D01*
X172815027Y-112516125D01*
X172573358Y-112712289D01*
X172398707Y-112945269D01*
X172291813Y-113202604D01*
X172253415Y-113471837D01*
X172284253Y-113740510D01*
X172385065Y-113996163D01*
X172556592Y-114226339D01*
X172799571Y-114418579D01*
X172864944Y-114462599D01*
X172955007Y-114543092D01*
X172990938Y-114606273D01*
X172976650Y-114670820D01*
X172931461Y-114791759D01*
X172865901Y-114936429D01*
X172857855Y-114952926D01*
X172787430Y-115101716D01*
X172694549Y-115303111D01*
X172590357Y-115532767D01*
X172485998Y-115766337D01*
X172453500Y-115839346D01*
X172362242Y-116040464D01*
X172283615Y-116208202D01*
X172225118Y-116326777D01*
X172194251Y-116380405D01*
X172179089Y-116388959D01*
X172093520Y-116380092D01*
X171956685Y-116325379D01*
X171886601Y-116292795D01*
X171773097Y-116246669D01*
X171705939Y-116228555D01*
X171705222Y-116228580D01*
X171647817Y-116252363D01*
X171533310Y-116314478D01*
X171377968Y-116405693D01*
X171198060Y-116516777D01*
X170741633Y-116804998D01*
X170579373Y-116664023D01*
X170424926Y-116527519D01*
X170258226Y-116375550D01*
X170106241Y-116232668D01*
X169981799Y-116111163D01*
X169897727Y-116023322D01*
X169866853Y-115981434D01*
X169890329Y-115938946D01*
X169957210Y-115840672D01*
X170057016Y-115701915D01*
X170179240Y-115537605D01*
X170254764Y-115437764D01*
X170367934Y-115281963D01*
X170434478Y-115162981D01*
X170457074Y-115057415D01*
X170438399Y-114941860D01*
X170381129Y-114792914D01*
X170287941Y-114587174D01*
X170248027Y-114501912D01*
X170166764Y-114350677D01*
X170098480Y-114264361D01*
X170033618Y-114229523D01*
X169990778Y-114221319D01*
X169864571Y-114198607D01*
X169690450Y-114168205D01*
X169492676Y-114134380D01*
X169366643Y-114112575D01*
X169192426Y-114080740D01*
X169062211Y-114054830D01*
X168997442Y-114038977D01*
X168995714Y-114038225D01*
X168971079Y-113996650D01*
X168954570Y-113894365D01*
X168945308Y-113722319D01*
X168942416Y-113471456D01*
X168941640Y-113331517D01*
X168942142Y-113151032D01*
X168955449Y-113024426D01*
X168993744Y-112939505D01*
X169069210Y-112884074D01*
X169194030Y-112845939D01*
X169380386Y-112812907D01*
X169640464Y-112772783D01*
X169757054Y-112754258D01*
X169946904Y-112719548D01*
X170080666Y-112677878D01*
X170176724Y-112614554D01*
X170253458Y-112514885D01*
X170329253Y-112364177D01*
X170422490Y-112147739D01*
X170538577Y-111874722D01*
X170202715Y-111432139D01*
X170188588Y-111413493D01*
X170063122Y-111245058D01*
X169960880Y-111102867D01*
X169892059Y-111001401D01*
X169866853Y-110955139D01*
X169872299Y-110945249D01*
X169925650Y-110886046D01*
X170023884Y-110788137D01*
X170152130Y-110665446D01*
X170295513Y-110531898D01*
X170439159Y-110401417D01*
X170568196Y-110287927D01*
X170667750Y-110205353D01*
X170684982Y-110194224D01*
X170729528Y-110185694D01*
X170795667Y-110202368D01*
X170896461Y-110249928D01*
X171044977Y-110334057D01*
X171254279Y-110460435D01*
X171353840Y-110520817D01*
X171555516Y-110637462D01*
X171700302Y-110710333D01*
X171798908Y-110744439D01*
X171862047Y-110744793D01*
X171875767Y-110740445D01*
X171976585Y-110705345D01*
X172126162Y-110650640D01*
X172297499Y-110586166D01*
X172427890Y-110535460D01*
X172546147Y-110482193D01*
X172613056Y-110433811D01*
X172646744Y-110375922D01*
X172665342Y-110294133D01*
X172670561Y-110265154D01*
X172697612Y-110126301D01*
X172735212Y-109942998D01*
X172776897Y-109746959D01*
X172794406Y-109665636D01*
X172828157Y-109505377D01*
X172851530Y-109389399D01*
X172860267Y-109338558D01*
X172866704Y-109335297D01*
X172937971Y-109328688D01*
X173075606Y-109324926D01*
X173264005Y-109324297D01*
X173487564Y-109327087D01*
G37*
%TO.C,R11*%
D11*
X169964953Y-129840830D02*
X170286070Y-129519713D01*
X171004400Y-130880277D02*
X171325517Y-130559160D01*
%TO.C,R24*%
X163765000Y-115972936D02*
X163765000Y-116427064D01*
X165235000Y-115972936D02*
X165235000Y-116427064D01*
%TO.C,R31*%
X120164953Y-107695596D02*
X120486070Y-107374479D01*
X121204400Y-108735043D02*
X121525517Y-108413926D01*
%TO.C,R27*%
X157819718Y-118040835D02*
X158140835Y-117719718D01*
X158859165Y-119080282D02*
X159180282Y-118759165D01*
%TO.C,R42*%
X134710437Y-128964996D02*
X135164565Y-128964996D01*
X134710437Y-130434996D02*
X135164565Y-130434996D01*
%TO.C,R37*%
X128827064Y-105265000D02*
X128372936Y-105265000D01*
X128827064Y-106735000D02*
X128372936Y-106735000D01*
%TO.C,R38*%
X126472936Y-103365000D02*
X126927064Y-103365000D01*
X126472936Y-104835000D02*
X126927064Y-104835000D01*
%TO.C,R14*%
X183165000Y-109495431D02*
X183165000Y-109949559D01*
X184635000Y-109495431D02*
X184635000Y-109949559D01*
%TO.C,D5*%
X205850786Y-120034309D02*
X207236715Y-121420239D01*
X206699314Y-119185781D02*
X208085244Y-120571710D01*
X208085244Y-120571710D02*
X207236715Y-121420239D01*
%TO.C,D10*%
X130659999Y-98349996D02*
X124849999Y-98349996D01*
X130659999Y-98349996D02*
X130659999Y-102649996D01*
X130659999Y-102649996D02*
X124849999Y-102649996D01*
%TO.C,R10*%
X188115000Y-132189559D02*
X188115000Y-131735431D01*
X189585000Y-132189559D02*
X189585000Y-131735431D01*
%TO.C,R6*%
X180472936Y-132264996D02*
X180927064Y-132264996D01*
X180472936Y-133734996D02*
X180927064Y-133734996D01*
D12*
%TO.C,G2*%
G36*
X170499743Y-107685879D02*
G01*
X170499743Y-108222426D01*
X170067380Y-108222426D01*
X169635018Y-108222426D01*
X169635018Y-108102614D01*
X169635018Y-107982803D01*
X169931942Y-107982803D01*
X170228865Y-107982803D01*
X170228865Y-107566068D01*
X170228865Y-107149333D01*
X170364304Y-107149333D01*
X170499743Y-107149333D01*
X170499743Y-107685879D01*
G37*
G36*
X168838742Y-107864354D02*
G01*
X168873083Y-107944306D01*
X168904676Y-108018007D01*
X168932596Y-108083313D01*
X168955921Y-108138080D01*
X168973726Y-108180163D01*
X168985086Y-108207419D01*
X168989079Y-108217704D01*
X168988594Y-108218142D01*
X168974807Y-108219760D01*
X168944868Y-108220675D01*
X168902617Y-108220819D01*
X168851897Y-108220123D01*
X168714716Y-108217216D01*
X168681727Y-108118242D01*
X168648738Y-108019267D01*
X168399239Y-108016483D01*
X168149739Y-108013698D01*
X168130839Y-108071359D01*
X168115531Y-108118062D01*
X168081323Y-108222426D01*
X167945735Y-108222426D01*
X167810147Y-108222426D01*
X167817454Y-108188566D01*
X167824104Y-108162797D01*
X167842024Y-108107794D01*
X167855565Y-108071359D01*
X167884731Y-108071359D01*
X167889940Y-108076568D01*
X167895149Y-108071359D01*
X167889940Y-108066150D01*
X167884731Y-108071359D01*
X167855565Y-108071359D01*
X167868435Y-108036730D01*
X167902696Y-107951116D01*
X167944169Y-107852463D01*
X167975921Y-107779645D01*
X168261221Y-107779645D01*
X168330831Y-107786164D01*
X168362967Y-107788769D01*
X168419196Y-107792128D01*
X168470369Y-107793978D01*
X168540298Y-107795272D01*
X168505622Y-107714530D01*
X168483781Y-107663722D01*
X168458622Y-107605275D01*
X168436141Y-107553118D01*
X168429529Y-107538237D01*
X168413625Y-107506094D01*
X168400926Y-107485437D01*
X168393713Y-107480189D01*
X168391325Y-107483958D01*
X168381300Y-107504113D01*
X168365605Y-107538159D01*
X168345853Y-107582562D01*
X168323656Y-107633787D01*
X168261221Y-107779645D01*
X167975921Y-107779645D01*
X167992212Y-107742284D01*
X168046185Y-107622090D01*
X168105448Y-107493391D01*
X168169361Y-107357700D01*
X168266082Y-107154542D01*
X168396305Y-107151642D01*
X168526529Y-107148741D01*
X168545339Y-107188106D01*
X168547497Y-107192738D01*
X168558492Y-107217273D01*
X168575981Y-107256998D01*
X168599038Y-107309770D01*
X168626740Y-107373443D01*
X168658162Y-107445874D01*
X168692382Y-107524919D01*
X168728473Y-107608434D01*
X168765513Y-107694274D01*
X168802577Y-107780295D01*
X168809021Y-107795272D01*
X168838742Y-107864354D01*
G37*
G36*
X167113771Y-107399374D02*
G01*
X167113771Y-107684897D01*
X167113771Y-107889038D01*
X167113771Y-108222426D01*
X166720477Y-108222324D01*
X166658830Y-108222303D01*
X166569179Y-108222195D01*
X166496841Y-108221892D01*
X166439597Y-108221269D01*
X166395228Y-108220205D01*
X166361514Y-108218576D01*
X166336235Y-108216259D01*
X166317173Y-108213132D01*
X166302108Y-108209071D01*
X166288821Y-108203953D01*
X166275092Y-108197657D01*
X166266947Y-108193721D01*
X166218869Y-108164024D01*
X166184093Y-108126888D01*
X166156090Y-108075615D01*
X166150355Y-108061751D01*
X166130422Y-107982897D01*
X166129686Y-107956757D01*
X166155280Y-107956757D01*
X166160490Y-107961966D01*
X166165699Y-107956757D01*
X166160490Y-107951548D01*
X166155280Y-107956757D01*
X166129686Y-107956757D01*
X166128046Y-107898501D01*
X166128874Y-107893762D01*
X166369047Y-107893762D01*
X166370569Y-107933938D01*
X166375491Y-107956757D01*
X166376665Y-107962202D01*
X166388704Y-107981681D01*
X166394114Y-107987189D01*
X166402665Y-107993048D01*
X166415213Y-107997322D01*
X166434565Y-108000260D01*
X166463527Y-108002112D01*
X166504906Y-108003127D01*
X166561508Y-108003553D01*
X166636140Y-108003640D01*
X166863730Y-108003640D01*
X166863730Y-107889038D01*
X166863730Y-107774435D01*
X166641551Y-107774435D01*
X166419372Y-107774435D01*
X166394305Y-107801118D01*
X166387533Y-107808836D01*
X166376051Y-107828383D01*
X166370542Y-107854297D01*
X166369047Y-107893762D01*
X166128874Y-107893762D01*
X166142985Y-107812956D01*
X166174999Y-107730653D01*
X166205351Y-107671244D01*
X166179930Y-107608309D01*
X166168720Y-107577597D01*
X166150206Y-107494160D01*
X166149978Y-107472231D01*
X166376064Y-107472231D01*
X166378578Y-107512992D01*
X166394643Y-107547836D01*
X166417252Y-107576486D01*
X166640491Y-107576486D01*
X166863730Y-107576486D01*
X166863730Y-107487930D01*
X166863730Y-107399374D01*
X166724654Y-107399374D01*
X166665723Y-107398882D01*
X166604516Y-107397496D01*
X166549690Y-107395432D01*
X166508472Y-107392907D01*
X166470076Y-107390332D01*
X166441785Y-107390967D01*
X166422722Y-107396039D01*
X166406893Y-107406341D01*
X166386412Y-107433501D01*
X166376064Y-107472231D01*
X166149978Y-107472231D01*
X166149376Y-107414449D01*
X166160681Y-107362910D01*
X166405321Y-107362910D01*
X166410531Y-107368119D01*
X166415740Y-107362910D01*
X166410531Y-107357700D01*
X166405321Y-107362910D01*
X166160681Y-107362910D01*
X166165538Y-107340764D01*
X166198003Y-107275403D01*
X166246076Y-107220667D01*
X166309069Y-107178856D01*
X166312306Y-107177268D01*
X166325509Y-107171200D01*
X166339152Y-107166290D01*
X166355503Y-107162391D01*
X166376826Y-107159354D01*
X166405389Y-107157032D01*
X166443457Y-107155276D01*
X166493296Y-107153939D01*
X166557173Y-107152871D01*
X166637354Y-107151926D01*
X166736105Y-107150956D01*
X167113771Y-107147369D01*
X167113771Y-107362910D01*
X167113771Y-107399374D01*
G37*
G36*
X165367340Y-107374859D02*
G01*
X165381370Y-107456037D01*
X165381675Y-107512544D01*
X165367703Y-107592089D01*
X165337649Y-107663253D01*
X165292861Y-107723161D01*
X165234687Y-107768938D01*
X165231201Y-107770975D01*
X165216732Y-107778931D01*
X165202347Y-107784928D01*
X165185056Y-107789242D01*
X165161873Y-107792151D01*
X165129807Y-107793932D01*
X165085870Y-107794861D01*
X165027074Y-107795216D01*
X164950429Y-107795272D01*
X164880125Y-107795485D01*
X164812784Y-107796370D01*
X164762438Y-107798046D01*
X164726994Y-107800624D01*
X164704356Y-107804215D01*
X164692432Y-107808929D01*
X164687708Y-107813202D01*
X164674011Y-107839594D01*
X164667753Y-107876204D01*
X164669593Y-107915468D01*
X164680187Y-107949821D01*
X164697243Y-107982803D01*
X165035573Y-107982803D01*
X165373902Y-107982803D01*
X165373902Y-108102614D01*
X165373902Y-108222426D01*
X164996236Y-108222324D01*
X164957998Y-108222312D01*
X164866372Y-108222226D01*
X164792477Y-108221959D01*
X164734037Y-108221380D01*
X164688775Y-108220357D01*
X164654415Y-108218759D01*
X164628681Y-108216455D01*
X164609297Y-108213313D01*
X164593986Y-108209203D01*
X164580472Y-108203994D01*
X164566478Y-108197554D01*
X164520281Y-108170478D01*
X164465277Y-108118388D01*
X164423759Y-108050522D01*
X164416781Y-108034408D01*
X164408101Y-108007805D01*
X164402928Y-107977683D01*
X164400432Y-107938279D01*
X164399784Y-107883828D01*
X164400116Y-107839676D01*
X164401902Y-107799362D01*
X164405990Y-107770009D01*
X164413212Y-107746157D01*
X164424401Y-107722344D01*
X164425532Y-107720199D01*
X164456858Y-107669555D01*
X164491440Y-107632976D01*
X164535223Y-107604123D01*
X164535663Y-107603886D01*
X164549780Y-107596961D01*
X164565000Y-107591589D01*
X164584143Y-107587531D01*
X164610026Y-107584549D01*
X164645471Y-107582407D01*
X164693294Y-107580866D01*
X164756316Y-107579688D01*
X164837356Y-107578635D01*
X164870836Y-107578249D01*
X164948369Y-107577214D01*
X165008203Y-107575644D01*
X165052629Y-107572834D01*
X165083937Y-107568079D01*
X165104417Y-107560674D01*
X165116359Y-107549915D01*
X165122054Y-107535097D01*
X165123791Y-107515514D01*
X165123861Y-107490463D01*
X165124039Y-107473056D01*
X165123966Y-107451786D01*
X165121650Y-107435041D01*
X165115025Y-107422284D01*
X165102025Y-107412974D01*
X165080585Y-107406575D01*
X165048638Y-107402546D01*
X165004120Y-107400351D01*
X164944965Y-107399449D01*
X164869106Y-107399303D01*
X164774479Y-107399374D01*
X164446667Y-107399374D01*
X164446667Y-107362910D01*
X165092606Y-107362910D01*
X165097815Y-107368119D01*
X165103024Y-107362910D01*
X165097815Y-107357700D01*
X165092606Y-107362910D01*
X164446667Y-107362910D01*
X164446667Y-107274353D01*
X164446667Y-107149333D01*
X164706022Y-107149333D01*
X164804255Y-107149908D01*
X164927121Y-107152704D01*
X165029972Y-107157810D01*
X165112634Y-107165214D01*
X165174932Y-107174903D01*
X165216691Y-107186863D01*
X165246633Y-107202182D01*
X165298442Y-107245432D01*
X165339187Y-107303824D01*
X165362604Y-107362910D01*
X165367340Y-107374859D01*
G37*
G36*
X166495162Y-104925010D02*
G01*
X166517523Y-105027529D01*
X166533791Y-105102122D01*
X166550556Y-105178994D01*
X166582157Y-105323898D01*
X166612049Y-105460987D01*
X166639962Y-105589006D01*
X166654195Y-105654296D01*
X166665620Y-105706702D01*
X166667823Y-105716806D01*
X166688752Y-105812819D01*
X166709082Y-105906104D01*
X166726338Y-105985303D01*
X166740247Y-106049161D01*
X166750535Y-106096423D01*
X166756929Y-106125836D01*
X166759155Y-106136146D01*
X166755632Y-106136362D01*
X166733900Y-106136718D01*
X166693553Y-106137057D01*
X166635986Y-106137375D01*
X166562598Y-106137668D01*
X166474787Y-106137934D01*
X166373951Y-106138169D01*
X166261488Y-106138369D01*
X166138795Y-106138531D01*
X166007271Y-106138650D01*
X165868313Y-106138725D01*
X165723319Y-106138750D01*
X164687093Y-106138750D01*
X164676629Y-106099681D01*
X164671589Y-106080321D01*
X164661752Y-106041176D01*
X164649452Y-105991236D01*
X164635513Y-105933952D01*
X164620760Y-105872770D01*
X164606015Y-105811139D01*
X164592104Y-105752507D01*
X164583720Y-105716806D01*
X164613361Y-105716806D01*
X164618570Y-105722015D01*
X164623779Y-105716806D01*
X164618570Y-105711597D01*
X164613361Y-105716806D01*
X164583720Y-105716806D01*
X164579849Y-105700323D01*
X164570076Y-105658033D01*
X164569241Y-105654296D01*
X166613689Y-105654296D01*
X166618898Y-105659505D01*
X166624107Y-105654296D01*
X166618898Y-105649087D01*
X166613689Y-105654296D01*
X164569241Y-105654296D01*
X164563608Y-105629087D01*
X164561269Y-105616933D01*
X164561319Y-105616804D01*
X164572925Y-105615011D01*
X164604046Y-105613367D01*
X164653446Y-105611888D01*
X164719890Y-105610590D01*
X164802142Y-105609491D01*
X164898966Y-105608607D01*
X165009125Y-105607955D01*
X165131385Y-105607551D01*
X165264509Y-105607413D01*
X165330136Y-105607379D01*
X165445847Y-105607145D01*
X165554304Y-105606706D01*
X165653807Y-105606082D01*
X165742660Y-105605290D01*
X165819165Y-105604352D01*
X165881624Y-105603284D01*
X165928340Y-105602108D01*
X165957614Y-105600841D01*
X165967750Y-105599503D01*
X165967564Y-105597773D01*
X165964322Y-105580032D01*
X165957662Y-105547033D01*
X165948393Y-105502720D01*
X165937323Y-105451041D01*
X165935999Y-105444920D01*
X165923561Y-105387053D01*
X165911710Y-105331326D01*
X165901732Y-105283812D01*
X165894911Y-105250584D01*
X165882925Y-105190678D01*
X165248342Y-105190678D01*
X164613758Y-105190678D01*
X164608333Y-105167237D01*
X164605585Y-105155212D01*
X164595807Y-105110940D01*
X164593917Y-105102122D01*
X164623779Y-105102122D01*
X164628988Y-105107331D01*
X164634198Y-105102122D01*
X164628988Y-105096913D01*
X164623779Y-105102122D01*
X164593917Y-105102122D01*
X164584169Y-105056645D01*
X164571562Y-104996668D01*
X164558881Y-104935352D01*
X164547018Y-104877038D01*
X164536868Y-104826068D01*
X164529323Y-104786783D01*
X164525276Y-104763525D01*
X164523722Y-104753010D01*
X164517997Y-104716681D01*
X164513001Y-104687992D01*
X164507521Y-104659341D01*
X165128441Y-104659341D01*
X165749361Y-104659341D01*
X165743519Y-104635900D01*
X165740982Y-104625266D01*
X165735592Y-104602040D01*
X166384485Y-104602040D01*
X166389694Y-104607249D01*
X166394903Y-104602040D01*
X166389694Y-104596831D01*
X166384485Y-104602040D01*
X165735592Y-104602040D01*
X165734089Y-104595566D01*
X165724142Y-104552256D01*
X165712046Y-104499273D01*
X165698702Y-104440555D01*
X165659727Y-104268652D01*
X164956814Y-104265975D01*
X164253902Y-104263299D01*
X164193704Y-103995098D01*
X164178406Y-103926633D01*
X164163877Y-103860982D01*
X164151556Y-103804644D01*
X164142040Y-103760371D01*
X164135926Y-103730917D01*
X164133811Y-103719033D01*
X164138270Y-103718321D01*
X164161432Y-103717314D01*
X164203125Y-103716406D01*
X164261960Y-103715604D01*
X164336545Y-103714914D01*
X164425491Y-103714344D01*
X164527405Y-103713901D01*
X164640898Y-103713591D01*
X164764578Y-103713421D01*
X164897056Y-103713399D01*
X165036939Y-103713531D01*
X165182838Y-103713824D01*
X166231561Y-103716478D01*
X166424717Y-104602040D01*
X166495162Y-104925010D01*
G37*
G36*
X164109443Y-104904173D02*
G01*
X164128379Y-104993953D01*
X164160363Y-105145798D01*
X164190974Y-105291385D01*
X164219947Y-105429429D01*
X164247013Y-105558647D01*
X164271904Y-105677754D01*
X164294354Y-105785466D01*
X164314094Y-105880498D01*
X164330858Y-105961567D01*
X164344377Y-106027388D01*
X164354385Y-106076676D01*
X164360613Y-106108148D01*
X164362795Y-106120518D01*
X164362798Y-106120689D01*
X164361945Y-106123706D01*
X164358527Y-106126368D01*
X164351328Y-106128697D01*
X164339128Y-106130716D01*
X164320709Y-106132445D01*
X164294853Y-106133908D01*
X164260343Y-106135127D01*
X164215959Y-106136124D01*
X164160484Y-106136920D01*
X164092699Y-106137538D01*
X164011387Y-106138001D01*
X163915329Y-106138330D01*
X163803306Y-106138547D01*
X163674102Y-106138675D01*
X163526497Y-106138735D01*
X163359274Y-106138750D01*
X162355227Y-106138750D01*
X162285575Y-105891314D01*
X162271314Y-105840668D01*
X162252925Y-105775398D01*
X162236821Y-105718286D01*
X162223842Y-105672306D01*
X162214828Y-105640434D01*
X162210617Y-105625645D01*
X162210297Y-105624139D01*
X162211118Y-105620753D01*
X162215404Y-105617856D01*
X162224602Y-105615410D01*
X162240161Y-105613378D01*
X162263527Y-105611721D01*
X162296149Y-105610401D01*
X162339474Y-105609380D01*
X162394950Y-105608621D01*
X162464025Y-105608085D01*
X162548145Y-105607734D01*
X162648760Y-105607530D01*
X162767315Y-105607436D01*
X162905260Y-105607413D01*
X163605209Y-105607413D01*
X163598813Y-105583972D01*
X163597201Y-105577822D01*
X163590081Y-105548097D01*
X163580568Y-105505949D01*
X163569525Y-105455474D01*
X163557813Y-105400768D01*
X163546296Y-105345926D01*
X163535837Y-105295045D01*
X163527298Y-105252220D01*
X163521542Y-105221547D01*
X163519431Y-105207121D01*
X163519403Y-105206594D01*
X163517347Y-105203274D01*
X163510969Y-105200445D01*
X163498767Y-105198069D01*
X163479240Y-105196107D01*
X163450887Y-105194520D01*
X163412207Y-105193269D01*
X163361697Y-105192317D01*
X163297858Y-105191624D01*
X163219187Y-105191152D01*
X163124184Y-105190863D01*
X163011346Y-105190718D01*
X162879173Y-105190678D01*
X162238915Y-105190678D01*
X162232020Y-105151609D01*
X162231331Y-105147729D01*
X162224692Y-105111681D01*
X162215546Y-105063555D01*
X162204610Y-105006965D01*
X162192600Y-104945528D01*
X162180233Y-104882859D01*
X162168225Y-104822573D01*
X162157291Y-104768286D01*
X162148149Y-104723613D01*
X162141515Y-104692171D01*
X162138105Y-104677573D01*
X162137661Y-104675377D01*
X162138869Y-104671886D01*
X162143966Y-104668941D01*
X162154492Y-104666495D01*
X162171988Y-104664502D01*
X162197995Y-104662916D01*
X162234053Y-104661691D01*
X162281704Y-104660781D01*
X162342488Y-104660140D01*
X162417946Y-104659721D01*
X162509618Y-104659479D01*
X162619046Y-104659368D01*
X162747769Y-104659341D01*
X162840060Y-104659309D01*
X162958503Y-104659132D01*
X163058486Y-104658771D01*
X163141420Y-104658194D01*
X163208717Y-104657370D01*
X163261788Y-104656267D01*
X163302044Y-104654853D01*
X163330898Y-104653097D01*
X163349760Y-104650965D01*
X163360042Y-104648427D01*
X163363156Y-104645450D01*
X163362747Y-104641800D01*
X163358886Y-104620582D01*
X163351688Y-104584972D01*
X163342060Y-104539125D01*
X163330905Y-104487195D01*
X163319128Y-104433335D01*
X163307634Y-104381699D01*
X163297330Y-104336441D01*
X163289118Y-104301715D01*
X163283904Y-104281675D01*
X163283563Y-104280709D01*
X163280951Y-104277232D01*
X163275213Y-104274254D01*
X163264874Y-104271735D01*
X163248457Y-104269638D01*
X163224486Y-104267923D01*
X163191486Y-104266553D01*
X163147980Y-104265487D01*
X163092493Y-104264688D01*
X163023548Y-104264116D01*
X162939671Y-104263734D01*
X162839384Y-104263503D01*
X162721212Y-104263383D01*
X162583680Y-104263337D01*
X161888956Y-104263232D01*
X161834961Y-103990021D01*
X161820875Y-103917580D01*
X161808522Y-103851784D01*
X161798419Y-103795559D01*
X161791039Y-103751617D01*
X161786855Y-103722672D01*
X161786340Y-103711435D01*
X161789993Y-103711009D01*
X161811992Y-103710272D01*
X161852627Y-103709570D01*
X161910487Y-103708911D01*
X161984161Y-103708303D01*
X162072238Y-103707751D01*
X162173308Y-103707265D01*
X162285960Y-103706851D01*
X162408782Y-103706516D01*
X162540364Y-103706267D01*
X162679296Y-103706113D01*
X162824165Y-103706060D01*
X163856616Y-103706060D01*
X164109443Y-104904173D01*
G37*
G36*
X167394899Y-104372836D02*
G01*
X167489462Y-104479624D01*
X167502887Y-104494773D01*
X167551972Y-104549948D01*
X167553160Y-104551283D01*
X167598469Y-104601877D01*
X167637053Y-104644613D01*
X167667148Y-104677545D01*
X167686994Y-104698730D01*
X167694829Y-104706224D01*
X167698878Y-104700931D01*
X167712139Y-104679872D01*
X167733122Y-104645034D01*
X167733902Y-104643713D01*
X167770129Y-104643713D01*
X167775338Y-104648923D01*
X167780547Y-104643713D01*
X167775338Y-104638504D01*
X167770129Y-104643713D01*
X167733902Y-104643713D01*
X167760376Y-104598855D01*
X167776724Y-104570785D01*
X167811802Y-104570785D01*
X167817011Y-104575994D01*
X167822220Y-104570785D01*
X167817011Y-104565576D01*
X167811802Y-104570785D01*
X167776724Y-104570785D01*
X167792455Y-104543774D01*
X167827908Y-104482229D01*
X167860748Y-104424928D01*
X167895149Y-104424928D01*
X167900358Y-104430137D01*
X167905568Y-104424928D01*
X167900358Y-104419718D01*
X167895149Y-104424928D01*
X167860748Y-104424928D01*
X167956281Y-104258234D01*
X168316404Y-104255494D01*
X168350144Y-104255243D01*
X168440183Y-104254676D01*
X168512067Y-104254474D01*
X168567815Y-104254720D01*
X168609447Y-104255496D01*
X168638980Y-104256885D01*
X168658436Y-104258969D01*
X168669833Y-104261832D01*
X168675190Y-104265555D01*
X168676527Y-104270222D01*
X168675323Y-104277392D01*
X168664492Y-104305542D01*
X168642570Y-104350642D01*
X168609749Y-104412344D01*
X168602723Y-104424928D01*
X168566223Y-104490300D01*
X168519885Y-104570785D01*
X168512183Y-104584162D01*
X168477156Y-104643713D01*
X168447823Y-104693582D01*
X168373335Y-104818211D01*
X168346777Y-104862499D01*
X168336986Y-104878827D01*
X168296242Y-104947283D01*
X168260147Y-105008489D01*
X168229931Y-105060331D01*
X168229863Y-105060449D01*
X168206825Y-105100696D01*
X168192059Y-105127469D01*
X168186864Y-105138537D01*
X168189470Y-105142752D01*
X168204489Y-105160553D01*
X168231360Y-105190252D01*
X168268363Y-105230007D01*
X168313776Y-105277977D01*
X168334959Y-105300071D01*
X168365878Y-105332320D01*
X168422948Y-105391193D01*
X168498017Y-105468436D01*
X168618486Y-105593406D01*
X168725580Y-105705889D01*
X168819086Y-105805647D01*
X168898791Y-105892445D01*
X168964482Y-105966045D01*
X168965168Y-105966847D01*
X169015946Y-106026211D01*
X169052969Y-106072707D01*
X169075340Y-106105295D01*
X169082844Y-106123741D01*
X169081681Y-106126613D01*
X169075034Y-106130073D01*
X169060816Y-106132812D01*
X169037131Y-106134905D01*
X169002084Y-106136426D01*
X168953781Y-106137449D01*
X168890328Y-106138047D01*
X168809828Y-106138294D01*
X168710387Y-106138265D01*
X168337930Y-106137780D01*
X168185625Y-105966847D01*
X168228537Y-105966847D01*
X168233746Y-105972056D01*
X168238956Y-105966847D01*
X168233746Y-105961638D01*
X168228537Y-105966847D01*
X168185625Y-105966847D01*
X168103517Y-105874697D01*
X167869103Y-105611613D01*
X167868552Y-105612622D01*
X167783181Y-105768898D01*
X167774920Y-105784021D01*
X167749922Y-105829712D01*
X167714956Y-105893417D01*
X167681353Y-105954435D01*
X167651980Y-106007560D01*
X167629703Y-106047590D01*
X167578668Y-106138750D01*
X167225678Y-106138750D01*
X166872689Y-106138750D01*
X166917278Y-106058008D01*
X166923706Y-106046363D01*
X166943018Y-106011357D01*
X166970396Y-105961712D01*
X167004532Y-105899804D01*
X167044116Y-105828007D01*
X167076701Y-105768898D01*
X167738873Y-105768898D01*
X167744083Y-105774107D01*
X167749292Y-105768898D01*
X167744083Y-105763689D01*
X167738873Y-105768898D01*
X167076701Y-105768898D01*
X167087838Y-105748695D01*
X167134390Y-105664242D01*
X167162842Y-105612622D01*
X167197118Y-105612622D01*
X167202327Y-105617832D01*
X167207536Y-105612622D01*
X167202327Y-105607413D01*
X167197118Y-105612622D01*
X167162842Y-105612622D01*
X167182463Y-105577024D01*
X167335109Y-105300071D01*
X168280629Y-105300071D01*
X168285838Y-105305280D01*
X168291047Y-105300071D01*
X168285838Y-105294862D01*
X168280629Y-105300071D01*
X167335109Y-105300071D01*
X167403060Y-105176783D01*
X167289871Y-105060449D01*
X167332557Y-105060449D01*
X167337766Y-105065658D01*
X167342975Y-105060449D01*
X167337766Y-105055239D01*
X167332557Y-105060449D01*
X167289871Y-105060449D01*
X167097273Y-104862499D01*
X168301466Y-104862499D01*
X168306675Y-104867709D01*
X168311884Y-104862499D01*
X168306675Y-104857290D01*
X168301466Y-104862499D01*
X167097273Y-104862499D01*
X166961492Y-104722944D01*
X166957550Y-104718893D01*
X166879051Y-104638071D01*
X166805101Y-104561684D01*
X166793779Y-104549948D01*
X167499251Y-104549948D01*
X167504460Y-104555157D01*
X167509669Y-104549948D01*
X167504460Y-104544739D01*
X167499251Y-104549948D01*
X166793779Y-104549948D01*
X166736950Y-104491038D01*
X166675851Y-104427445D01*
X166623650Y-104372836D01*
X167342975Y-104372836D01*
X167348184Y-104378045D01*
X167353394Y-104372836D01*
X167348184Y-104367627D01*
X167342975Y-104372836D01*
X166623650Y-104372836D01*
X166623054Y-104372212D01*
X166579812Y-104326648D01*
X166574275Y-104320744D01*
X166613689Y-104320744D01*
X166618898Y-104325953D01*
X166624107Y-104320744D01*
X166618898Y-104315535D01*
X166613689Y-104320744D01*
X166574275Y-104320744D01*
X166547375Y-104292063D01*
X166526995Y-104269766D01*
X166519924Y-104261065D01*
X166519959Y-104260956D01*
X166531133Y-104259140D01*
X166560714Y-104257471D01*
X166606406Y-104255998D01*
X166665913Y-104254769D01*
X166736939Y-104253832D01*
X166817188Y-104253234D01*
X166904363Y-104253024D01*
X167288802Y-104253024D01*
X167348770Y-104320744D01*
X167394899Y-104372836D01*
G37*
G36*
X170170343Y-104234774D02*
G01*
X170234796Y-104247815D01*
X170254911Y-104251885D01*
X170386598Y-104279070D01*
X170494534Y-104301352D01*
X170495868Y-104424928D01*
X170497323Y-104559670D01*
X170497440Y-104570570D01*
X170498177Y-104648070D01*
X170498248Y-104664550D01*
X170498431Y-104707346D01*
X170498057Y-104750722D01*
X170496910Y-104780523D01*
X170494845Y-104799074D01*
X170491718Y-104808699D01*
X170487383Y-104811721D01*
X170481695Y-104810467D01*
X170471482Y-104806615D01*
X170443509Y-104796626D01*
X170404429Y-104782992D01*
X170359333Y-104767500D01*
X170323162Y-104755438D01*
X170252884Y-104734238D01*
X170187716Y-104718577D01*
X170122483Y-104707693D01*
X170052009Y-104700822D01*
X169971120Y-104697204D01*
X169874641Y-104696073D01*
X169807315Y-104696127D01*
X169752692Y-104696714D01*
X169712194Y-104698150D01*
X169682362Y-104700742D01*
X169659737Y-104704799D01*
X169640860Y-104710629D01*
X169622273Y-104718538D01*
X169615290Y-104721870D01*
X169575085Y-104747887D01*
X169549080Y-104781219D01*
X169546462Y-104789571D01*
X169535076Y-104825894D01*
X169530873Y-104885941D01*
X169530873Y-104887492D01*
X169532227Y-104929967D01*
X169536436Y-104953892D01*
X169543857Y-104961346D01*
X169548326Y-104961103D01*
X169571192Y-104959243D01*
X169608941Y-104955852D01*
X169657590Y-104951295D01*
X169713156Y-104945932D01*
X169750298Y-104942504D01*
X169896788Y-104932984D01*
X170037891Y-104930056D01*
X170170690Y-104933588D01*
X170292266Y-104943445D01*
X170399700Y-104959493D01*
X170490076Y-104981598D01*
X170505391Y-104987520D01*
X170558240Y-105007955D01*
X170648983Y-105060855D01*
X170730175Y-105129521D01*
X170800223Y-105211648D01*
X170857536Y-105304930D01*
X170900520Y-105407064D01*
X170927583Y-105515744D01*
X170932781Y-105577197D01*
X170937134Y-105628666D01*
X170934668Y-105687692D01*
X170929439Y-105716806D01*
X170927567Y-105727225D01*
X170921953Y-105758480D01*
X170916500Y-105788836D01*
X170881101Y-105878668D01*
X170836085Y-105946010D01*
X170828981Y-105956638D01*
X170760651Y-106022195D01*
X170676624Y-106074787D01*
X170577411Y-106113865D01*
X170463523Y-106138876D01*
X170362289Y-106147562D01*
X170232064Y-106143240D01*
X170099213Y-106123289D01*
X169968825Y-106088528D01*
X169845990Y-106039772D01*
X169749620Y-105994215D01*
X169749620Y-106030018D01*
X169749620Y-106065822D01*
X169463817Y-106065822D01*
X169434864Y-106065815D01*
X169356045Y-106065658D01*
X169295014Y-106065186D01*
X169249454Y-106064252D01*
X169217047Y-106062712D01*
X169195476Y-106060421D01*
X169182423Y-106057234D01*
X169175572Y-106053005D01*
X169172606Y-106047590D01*
X169171852Y-106044841D01*
X169166635Y-106023423D01*
X169158226Y-105987149D01*
X169148903Y-105946010D01*
X170791458Y-105946010D01*
X170796667Y-105951220D01*
X170801876Y-105946010D01*
X170796667Y-105940801D01*
X170791458Y-105946010D01*
X169148903Y-105946010D01*
X169147612Y-105940314D01*
X169135779Y-105887214D01*
X169134870Y-105883119D01*
X169123481Y-105833442D01*
X169108039Y-105768190D01*
X169105698Y-105758480D01*
X170885223Y-105758480D01*
X170890432Y-105763689D01*
X170895641Y-105758480D01*
X170890432Y-105753270D01*
X170885223Y-105758480D01*
X169105698Y-105758480D01*
X169098162Y-105727225D01*
X170166355Y-105727225D01*
X170171564Y-105732434D01*
X170176773Y-105727225D01*
X170171564Y-105722015D01*
X170166355Y-105727225D01*
X169098162Y-105727225D01*
X169095650Y-105716806D01*
X170218447Y-105716806D01*
X170223656Y-105722015D01*
X170228865Y-105716806D01*
X170223656Y-105711597D01*
X170218447Y-105716806D01*
X169095650Y-105716806D01*
X169089558Y-105691540D01*
X169082999Y-105664714D01*
X169801712Y-105664714D01*
X169806921Y-105669923D01*
X169812130Y-105664714D01*
X169806921Y-105659505D01*
X169801712Y-105664714D01*
X169082999Y-105664714D01*
X169069051Y-105607668D01*
X169047531Y-105520751D01*
X169026014Y-105434964D01*
X169017474Y-105401075D01*
X169001493Y-105336535D01*
X169622281Y-105336535D01*
X169629365Y-105375604D01*
X169638703Y-105412026D01*
X169661861Y-105469832D01*
X169692243Y-105524615D01*
X169725409Y-105567501D01*
X169742516Y-105583094D01*
X169795459Y-105618131D01*
X169862678Y-105649184D01*
X169910862Y-105664714D01*
X169939586Y-105673972D01*
X170007932Y-105688557D01*
X170089250Y-105696675D01*
X170161311Y-105693207D01*
X170221883Y-105678506D01*
X170268734Y-105652928D01*
X170299630Y-105616827D01*
X170301536Y-105612912D01*
X170309448Y-105577197D01*
X170308520Y-105533115D01*
X170299619Y-105489418D01*
X170283608Y-105454861D01*
X170271159Y-105439349D01*
X170232208Y-105406497D01*
X170179938Y-105380391D01*
X170112969Y-105360686D01*
X170029919Y-105347039D01*
X169929407Y-105339104D01*
X169810054Y-105336535D01*
X169622281Y-105336535D01*
X169001493Y-105336535D01*
X168982366Y-105259291D01*
X168952979Y-105135357D01*
X168929148Y-105027530D01*
X168921256Y-104987520D01*
X169624599Y-104987520D01*
X169629809Y-104992729D01*
X169635018Y-104987520D01*
X169629809Y-104982311D01*
X169624599Y-104987520D01*
X168921256Y-104987520D01*
X168910712Y-104934068D01*
X168897505Y-104853229D01*
X168890099Y-104789571D01*
X168916150Y-104789571D01*
X168921359Y-104794780D01*
X168926568Y-104789571D01*
X168921359Y-104784362D01*
X168916150Y-104789571D01*
X168890099Y-104789571D01*
X168889366Y-104783268D01*
X168886129Y-104722444D01*
X168887632Y-104669014D01*
X168888200Y-104664550D01*
X169697528Y-104664550D01*
X169702737Y-104669759D01*
X169707947Y-104664550D01*
X169702737Y-104659341D01*
X169697528Y-104664550D01*
X168888200Y-104664550D01*
X168893711Y-104621234D01*
X168904202Y-104577363D01*
X168918943Y-104535656D01*
X168937769Y-104494372D01*
X168959748Y-104457024D01*
X168986087Y-104424928D01*
X169020334Y-104424928D01*
X169025543Y-104430137D01*
X169030752Y-104424928D01*
X169025543Y-104419718D01*
X169020334Y-104424928D01*
X168986087Y-104424928D01*
X169010927Y-104394659D01*
X169074584Y-104338848D01*
X169145469Y-104294640D01*
X169180781Y-104279070D01*
X169270375Y-104279070D01*
X169275584Y-104284280D01*
X169280793Y-104279070D01*
X169275584Y-104273861D01*
X169270375Y-104279070D01*
X169180781Y-104279070D01*
X169200385Y-104270426D01*
X169272456Y-104247815D01*
X169405814Y-104247815D01*
X169411023Y-104253024D01*
X169416232Y-104247815D01*
X169411023Y-104242606D01*
X169405814Y-104247815D01*
X169272456Y-104247815D01*
X169300885Y-104238896D01*
X169359828Y-104226978D01*
X169635018Y-104226978D01*
X169640227Y-104232188D01*
X169645436Y-104226978D01*
X169640227Y-104221769D01*
X169635018Y-104226978D01*
X169359828Y-104226978D01*
X169417480Y-104215321D01*
X169548125Y-104199992D01*
X169690775Y-104193202D01*
X169843385Y-104195241D01*
X169878065Y-104196818D01*
X169935655Y-104200340D01*
X169988716Y-104205213D01*
X170042208Y-104212121D01*
X170101097Y-104221746D01*
X170128906Y-104226978D01*
X170170343Y-104234774D01*
G37*
G36*
X171598882Y-103881356D02*
G01*
X171599057Y-103881593D01*
X171630701Y-103924659D01*
X171672735Y-103982104D01*
X171723346Y-104051439D01*
X171752569Y-104091540D01*
X171780724Y-104130176D01*
X171843055Y-104215829D01*
X171881449Y-104268652D01*
X171908530Y-104305910D01*
X171975336Y-104397930D01*
X172041663Y-104489403D01*
X172062290Y-104517827D01*
X172123234Y-104601290D01*
X172179843Y-104678057D01*
X172231005Y-104746664D01*
X172271327Y-104799989D01*
X172275605Y-104805646D01*
X172312532Y-104853539D01*
X172340671Y-104888881D01*
X172358909Y-104910206D01*
X172366132Y-104916052D01*
X172368412Y-104908735D01*
X172375298Y-104882599D01*
X172386175Y-104839421D01*
X172400594Y-104781050D01*
X172416318Y-104716642D01*
X173000153Y-104716642D01*
X173005362Y-104721851D01*
X173010572Y-104716642D01*
X173005362Y-104711433D01*
X173000153Y-104716642D01*
X172416318Y-104716642D01*
X172418102Y-104709333D01*
X172438251Y-104626118D01*
X172449054Y-104581203D01*
X172479234Y-104581203D01*
X172484444Y-104586412D01*
X172489653Y-104581203D01*
X172484444Y-104575994D01*
X172479234Y-104581203D01*
X172449054Y-104581203D01*
X172460588Y-104533251D01*
X172464070Y-104518693D01*
X173552327Y-104518693D01*
X173557536Y-104523902D01*
X173562746Y-104518693D01*
X173557536Y-104513484D01*
X173552327Y-104518693D01*
X172464070Y-104518693D01*
X172484664Y-104432580D01*
X172510029Y-104325953D01*
X172529009Y-104245993D01*
X172553426Y-104143246D01*
X172576173Y-104047657D01*
X172596803Y-103961098D01*
X172614868Y-103885446D01*
X172629921Y-103822572D01*
X172641513Y-103774352D01*
X172649197Y-103742660D01*
X172652526Y-103729369D01*
X172653683Y-103726470D01*
X172657857Y-103722169D01*
X172666514Y-103718791D01*
X172681698Y-103716248D01*
X172705453Y-103714456D01*
X172739824Y-103713328D01*
X172786854Y-103712779D01*
X172848587Y-103712722D01*
X172927067Y-103713071D01*
X173024339Y-103713741D01*
X173390842Y-103716478D01*
X173450482Y-103950891D01*
X173451623Y-103955378D01*
X173468629Y-104022566D01*
X173488884Y-104103087D01*
X173511993Y-104195345D01*
X173537563Y-104297740D01*
X173565199Y-104408675D01*
X173592552Y-104518693D01*
X173594506Y-104526553D01*
X173608071Y-104581203D01*
X173625091Y-104649776D01*
X173641664Y-104716642D01*
X173656560Y-104776745D01*
X173688517Y-104905863D01*
X173720570Y-105035533D01*
X173752323Y-105164155D01*
X173783383Y-105290134D01*
X173813355Y-105411870D01*
X173841846Y-105527765D01*
X173862669Y-105612622D01*
X173868460Y-105636223D01*
X173892803Y-105735645D01*
X173914482Y-105824433D01*
X173933102Y-105900990D01*
X173948269Y-105963718D01*
X173959589Y-106011019D01*
X173966668Y-106041294D01*
X173969110Y-106052947D01*
X173968625Y-106054378D01*
X173961421Y-106057869D01*
X173944185Y-106060528D01*
X173915118Y-106062413D01*
X173872419Y-106063581D01*
X173814290Y-106064091D01*
X173738929Y-106064000D01*
X173644538Y-106063366D01*
X173320013Y-106060613D01*
X173217729Y-105612622D01*
X173823205Y-105612622D01*
X173828414Y-105617832D01*
X173833623Y-105612622D01*
X173828414Y-105607413D01*
X173823205Y-105612622D01*
X173217729Y-105612622D01*
X173176102Y-105430301D01*
X173172775Y-105415731D01*
X173147447Y-105304759D01*
X173123512Y-105199838D01*
X173101377Y-105102750D01*
X173081447Y-105015277D01*
X173064129Y-104939203D01*
X173049828Y-104876311D01*
X173038951Y-104828384D01*
X173031902Y-104797204D01*
X173029089Y-104784555D01*
X173028164Y-104785627D01*
X173022367Y-104801994D01*
X173011707Y-104836059D01*
X172996650Y-104886223D01*
X172977659Y-104950885D01*
X172955200Y-105028447D01*
X172929736Y-105117309D01*
X172901732Y-105215872D01*
X172871653Y-105322537D01*
X172842934Y-105425092D01*
X172839963Y-105435703D01*
X172825273Y-105488316D01*
X172794111Y-105599737D01*
X172764747Y-105704483D01*
X172764212Y-105706388D01*
X172737655Y-105800878D01*
X172713308Y-105887248D01*
X172692179Y-105961918D01*
X172675958Y-106018939D01*
X172674742Y-106023213D01*
X172661471Y-106069458D01*
X172652839Y-106098979D01*
X172649319Y-106110100D01*
X172648960Y-106110591D01*
X172635139Y-106115779D01*
X172610334Y-106117914D01*
X172606606Y-106117860D01*
X172594633Y-106116233D01*
X172582686Y-106110711D01*
X172568740Y-106099122D01*
X172550764Y-106079291D01*
X172526733Y-106049045D01*
X172504161Y-106018939D01*
X172541745Y-106018939D01*
X172546954Y-106024148D01*
X172552163Y-106018939D01*
X172546954Y-106013730D01*
X172541745Y-106018939D01*
X172504161Y-106018939D01*
X172494618Y-106006211D01*
X172452391Y-105948615D01*
X172438816Y-105930031D01*
X172380885Y-105850975D01*
X172318517Y-105766216D01*
X172274343Y-105706388D01*
X172312540Y-105706388D01*
X172317750Y-105711597D01*
X172322959Y-105706388D01*
X172317750Y-105701179D01*
X172312540Y-105706388D01*
X172274343Y-105706388D01*
X172252831Y-105677253D01*
X172184948Y-105585583D01*
X172115991Y-105492704D01*
X172065671Y-105425092D01*
X172802204Y-105425092D01*
X172807413Y-105430301D01*
X172812622Y-105425092D01*
X172807413Y-105419882D01*
X172802204Y-105425092D01*
X172065671Y-105425092D01*
X172047080Y-105400112D01*
X171979336Y-105309306D01*
X171913880Y-105221783D01*
X171851834Y-105139042D01*
X171794318Y-105062578D01*
X171742453Y-104993891D01*
X171697361Y-104934477D01*
X171660163Y-104885835D01*
X171631980Y-104849461D01*
X171613932Y-104826854D01*
X171607142Y-104819511D01*
X171608067Y-104829422D01*
X171612560Y-104858100D01*
X171620340Y-104903735D01*
X171631082Y-104964531D01*
X171644462Y-105038696D01*
X171660157Y-105124435D01*
X171677843Y-105219954D01*
X171697197Y-105323460D01*
X171717893Y-105433159D01*
X171732135Y-105508439D01*
X171737545Y-105537037D01*
X171747866Y-105591786D01*
X171757220Y-105641403D01*
X171775370Y-105738057D01*
X171791658Y-105825179D01*
X171805744Y-105900944D01*
X171817289Y-105963530D01*
X171825956Y-106011115D01*
X171831404Y-106041875D01*
X171833295Y-106053989D01*
X171832532Y-106055333D01*
X171821216Y-106058738D01*
X171795378Y-106061416D01*
X171753757Y-106063415D01*
X171695090Y-106064784D01*
X171618115Y-106065570D01*
X171521572Y-106065822D01*
X171209848Y-106065822D01*
X171203870Y-106037171D01*
X171203777Y-106036714D01*
X171200707Y-106019447D01*
X171194621Y-105983503D01*
X171185806Y-105930653D01*
X171174553Y-105862668D01*
X171161150Y-105781318D01*
X171145887Y-105688375D01*
X171130063Y-105591786D01*
X171708275Y-105591786D01*
X171713484Y-105596995D01*
X171718693Y-105591786D01*
X171713484Y-105586576D01*
X171708275Y-105591786D01*
X171130063Y-105591786D01*
X171129051Y-105585609D01*
X171116434Y-105508439D01*
X171145682Y-105508439D01*
X171150892Y-105513648D01*
X171156101Y-105508439D01*
X171150892Y-105503229D01*
X171145682Y-105508439D01*
X171116434Y-105508439D01*
X171110933Y-105474790D01*
X171091821Y-105357691D01*
X171072005Y-105236080D01*
X171051772Y-105111730D01*
X171031413Y-104986410D01*
X171011217Y-104861893D01*
X171001194Y-104799989D01*
X171593673Y-104799989D01*
X171598882Y-104805198D01*
X171604091Y-104799989D01*
X171598882Y-104794780D01*
X171593673Y-104799989D01*
X171001194Y-104799989D01*
X170991472Y-104739947D01*
X170972467Y-104622345D01*
X170954492Y-104510857D01*
X170937835Y-104407253D01*
X170922129Y-104309082D01*
X170915711Y-104268652D01*
X171833295Y-104268652D01*
X171838504Y-104273861D01*
X171843714Y-104268652D01*
X171838504Y-104263443D01*
X171833295Y-104268652D01*
X170915711Y-104268652D01*
X170903086Y-104189113D01*
X170887751Y-104091540D01*
X170916478Y-104091540D01*
X170921687Y-104096749D01*
X170926896Y-104091540D01*
X170921687Y-104086330D01*
X170916478Y-104091540D01*
X170887751Y-104091540D01*
X170885860Y-104079509D01*
X170870675Y-103981726D01*
X170857752Y-103897221D01*
X170847314Y-103827451D01*
X170846334Y-103820662D01*
X170874805Y-103820662D01*
X170880014Y-103825871D01*
X170885223Y-103820662D01*
X170880014Y-103815453D01*
X170874805Y-103820662D01*
X170846334Y-103820662D01*
X170839583Y-103773872D01*
X170834781Y-103737941D01*
X170833131Y-103721116D01*
X170833136Y-103721050D01*
X170843735Y-103718273D01*
X170873554Y-103715910D01*
X170921018Y-103714010D01*
X170984548Y-103712619D01*
X171062566Y-103711784D01*
X171153496Y-103711553D01*
X171473861Y-103711836D01*
X171554120Y-103820662D01*
X171598882Y-103881356D01*
G37*
G36*
X174799875Y-104914526D02*
G01*
X174773138Y-105062841D01*
X174744868Y-105220212D01*
X174715266Y-105385537D01*
X174684533Y-105557715D01*
X174652869Y-105735643D01*
X174643814Y-105786594D01*
X174626576Y-105883500D01*
X174611947Y-105965736D01*
X174582055Y-106133541D01*
X174580869Y-106140200D01*
X174550797Y-106308769D01*
X174521952Y-106470223D01*
X174494552Y-106623344D01*
X174468816Y-106766914D01*
X174444964Y-106899715D01*
X174430972Y-106977430D01*
X174423213Y-107020527D01*
X174403785Y-107128133D01*
X174397110Y-107164960D01*
X174386896Y-107221314D01*
X174372767Y-107298852D01*
X174368653Y-107321236D01*
X174361616Y-107359528D01*
X174353663Y-107402123D01*
X174349126Y-107425420D01*
X174334450Y-107488778D01*
X174315149Y-107550440D01*
X174305246Y-107582077D01*
X174295649Y-107602532D01*
X174270183Y-107656809D01*
X174228345Y-107714112D01*
X174178817Y-107755122D01*
X174120682Y-107780976D01*
X174053023Y-107792810D01*
X174044963Y-107793325D01*
X173990222Y-107792885D01*
X173940226Y-107784240D01*
X173893779Y-107766085D01*
X173849685Y-107737116D01*
X173806749Y-107696027D01*
X173763775Y-107641513D01*
X173738887Y-107602532D01*
X173771113Y-107602532D01*
X173776322Y-107607741D01*
X173781531Y-107602532D01*
X173776322Y-107597323D01*
X173771113Y-107602532D01*
X173738887Y-107602532D01*
X173719566Y-107572270D01*
X173707627Y-107550440D01*
X173739858Y-107550440D01*
X173745067Y-107555649D01*
X173750276Y-107550440D01*
X173745067Y-107545231D01*
X173739858Y-107550440D01*
X173707627Y-107550440D01*
X173672927Y-107486993D01*
X173622662Y-107384376D01*
X173593978Y-107321236D01*
X173625256Y-107321236D01*
X173630465Y-107326445D01*
X173635674Y-107321236D01*
X173630465Y-107316027D01*
X173625256Y-107321236D01*
X173593978Y-107321236D01*
X173567575Y-107263116D01*
X173560265Y-107246621D01*
X173507678Y-107131236D01*
X173460461Y-107034204D01*
X173417749Y-106954206D01*
X173378683Y-106889919D01*
X173342400Y-106840023D01*
X173308037Y-106803197D01*
X173274734Y-106778118D01*
X173241629Y-106763467D01*
X173227059Y-106760000D01*
X173190689Y-106753756D01*
X173144130Y-106747523D01*
X173093919Y-106742241D01*
X173090253Y-106741980D01*
X173064339Y-106740942D01*
X173018788Y-106739727D01*
X172954531Y-106738347D01*
X172872501Y-106736814D01*
X172773631Y-106735140D01*
X172658852Y-106733338D01*
X172529096Y-106731420D01*
X172385296Y-106729399D01*
X172228383Y-106727287D01*
X172059291Y-106725096D01*
X171878951Y-106722838D01*
X171688295Y-106720527D01*
X171488255Y-106718174D01*
X171279765Y-106715792D01*
X171063755Y-106713393D01*
X170841158Y-106710990D01*
X170612906Y-106708594D01*
X170379932Y-106706219D01*
X169905300Y-106701444D01*
X169428247Y-106696630D01*
X168971159Y-106692001D01*
X168533588Y-106687551D01*
X168115088Y-106683274D01*
X167715213Y-106679164D01*
X167333517Y-106675216D01*
X166969554Y-106671425D01*
X166622878Y-106667784D01*
X166293041Y-106664287D01*
X165979599Y-106660930D01*
X165682105Y-106657707D01*
X165400113Y-106654611D01*
X165133177Y-106651638D01*
X164880850Y-106648781D01*
X164642687Y-106646035D01*
X164418241Y-106643394D01*
X164207066Y-106640853D01*
X164008716Y-106638406D01*
X163822744Y-106636046D01*
X163648705Y-106633770D01*
X163486152Y-106631570D01*
X163334640Y-106629442D01*
X163193722Y-106627379D01*
X163062951Y-106625376D01*
X162941882Y-106623428D01*
X162830069Y-106621528D01*
X162727065Y-106619670D01*
X162632424Y-106617850D01*
X162545701Y-106616062D01*
X162466448Y-106614300D01*
X162394220Y-106612558D01*
X162328570Y-106610830D01*
X162269053Y-106609112D01*
X162215222Y-106607396D01*
X162166631Y-106605679D01*
X162122833Y-106603953D01*
X162083384Y-106602214D01*
X162047836Y-106600455D01*
X161925420Y-106594033D01*
X161925420Y-106565537D01*
X161925420Y-106537042D01*
X162240576Y-106530767D01*
X162266305Y-106530257D01*
X162314427Y-106529320D01*
X162362960Y-106528399D01*
X162412719Y-106527485D01*
X162464523Y-106526565D01*
X162519189Y-106525628D01*
X162577532Y-106524663D01*
X162640371Y-106523659D01*
X162708522Y-106522605D01*
X162782803Y-106521490D01*
X162864030Y-106520301D01*
X162953019Y-106519029D01*
X163050590Y-106517661D01*
X163157557Y-106516187D01*
X163274738Y-106514596D01*
X163402951Y-106512875D01*
X163543012Y-106511015D01*
X163695738Y-106509003D01*
X163861946Y-106506828D01*
X164042454Y-106504480D01*
X164238078Y-106501947D01*
X164449634Y-106499218D01*
X164677941Y-106496281D01*
X164923815Y-106493126D01*
X165188073Y-106489741D01*
X165342467Y-106487766D01*
X167915986Y-106487766D01*
X167921195Y-106492975D01*
X167926404Y-106487766D01*
X167921195Y-106482557D01*
X167915986Y-106487766D01*
X165342467Y-106487766D01*
X165471532Y-106486115D01*
X165775010Y-106482237D01*
X165982270Y-106479589D01*
X166258382Y-106476059D01*
X166550667Y-106472320D01*
X166856531Y-106468407D01*
X167173383Y-106464351D01*
X167498631Y-106460187D01*
X167829682Y-106455946D01*
X168163945Y-106451664D01*
X168498827Y-106447372D01*
X168598669Y-106446092D01*
X171176937Y-106446092D01*
X171182147Y-106451302D01*
X171187356Y-106446092D01*
X171182147Y-106440883D01*
X171176937Y-106446092D01*
X168598669Y-106446092D01*
X168831737Y-106443104D01*
X169160082Y-106438893D01*
X169481271Y-106434773D01*
X169792711Y-106430777D01*
X170091810Y-106426937D01*
X170222683Y-106425256D01*
X173104337Y-106425256D01*
X173109546Y-106430465D01*
X173114755Y-106425256D01*
X173109546Y-106420047D01*
X173104337Y-106425256D01*
X170222683Y-106425256D01*
X170375977Y-106423287D01*
X170642618Y-106419861D01*
X170834433Y-106417391D01*
X171094791Y-106414031D01*
X171335668Y-106410929D01*
X171557867Y-106408095D01*
X171762187Y-106405538D01*
X171949432Y-106403265D01*
X172120400Y-106401287D01*
X172275895Y-106399612D01*
X172416716Y-106398248D01*
X172543666Y-106397204D01*
X172657546Y-106396490D01*
X172759156Y-106396113D01*
X172849298Y-106396083D01*
X172928773Y-106396409D01*
X172998382Y-106397099D01*
X173058927Y-106398162D01*
X173111209Y-106399606D01*
X173156029Y-106401442D01*
X173194187Y-106403676D01*
X173226486Y-106406319D01*
X173253727Y-106409379D01*
X173276711Y-106412864D01*
X173296238Y-106416784D01*
X173313110Y-106421147D01*
X173325927Y-106425256D01*
X173328129Y-106425962D01*
X173342096Y-106431238D01*
X173355811Y-106436983D01*
X173370077Y-106443207D01*
X173376790Y-106446092D01*
X173385693Y-106449918D01*
X173386554Y-106450280D01*
X173444386Y-106477284D01*
X173462184Y-106487766D01*
X173496637Y-106508057D01*
X173544957Y-106544553D01*
X173590998Y-106588725D01*
X173636409Y-106642524D01*
X173682841Y-106707904D01*
X173731946Y-106786818D01*
X173785372Y-106881218D01*
X173844772Y-106993057D01*
X173860817Y-107023899D01*
X173892925Y-107085264D01*
X173922164Y-107140690D01*
X173946861Y-107187032D01*
X173965346Y-107221145D01*
X173975947Y-107239886D01*
X173996226Y-107273138D01*
X174013683Y-107164960D01*
X174041991Y-107164960D01*
X174047200Y-107170170D01*
X174052409Y-107164960D01*
X174047200Y-107159751D01*
X174041991Y-107164960D01*
X174013683Y-107164960D01*
X174020086Y-107125284D01*
X174027326Y-107081175D01*
X174038148Y-107016430D01*
X174044728Y-106977430D01*
X174073246Y-106977430D01*
X174078455Y-106982639D01*
X174083664Y-106977430D01*
X174078455Y-106972220D01*
X174073246Y-106977430D01*
X174044728Y-106977430D01*
X174052351Y-106932250D01*
X174069841Y-106829189D01*
X174090522Y-106707798D01*
X174114300Y-106568630D01*
X174141081Y-106412237D01*
X174170768Y-106239172D01*
X174188914Y-106133541D01*
X174542073Y-106133541D01*
X174547282Y-106138750D01*
X174552491Y-106133541D01*
X174547282Y-106128332D01*
X174542073Y-106133541D01*
X174188914Y-106133541D01*
X174203268Y-106049988D01*
X174231904Y-105883500D01*
X174260777Y-105883500D01*
X174265986Y-105888709D01*
X174271195Y-105883500D01*
X174265986Y-105878291D01*
X174260777Y-105883500D01*
X174231904Y-105883500D01*
X174238486Y-105845236D01*
X174276326Y-105625469D01*
X174316694Y-105391239D01*
X174359495Y-105143100D01*
X174404635Y-104881602D01*
X174420532Y-104789571D01*
X174781695Y-104789571D01*
X174786905Y-104794780D01*
X174792114Y-104789571D01*
X174786905Y-104784362D01*
X174781695Y-104789571D01*
X174420532Y-104789571D01*
X174452018Y-104607299D01*
X174501549Y-104320744D01*
X174528800Y-104163479D01*
X174563548Y-103964103D01*
X174595142Y-103784265D01*
X174623559Y-103624079D01*
X174648779Y-103483660D01*
X174670781Y-103363123D01*
X174689544Y-103262580D01*
X174705047Y-103182147D01*
X174717270Y-103121938D01*
X174726191Y-103082067D01*
X174731790Y-103062649D01*
X174745832Y-103035682D01*
X174777135Y-102994406D01*
X174813685Y-102962161D01*
X174849986Y-102944444D01*
X174865863Y-102942171D01*
X174899646Y-102940969D01*
X174938191Y-102942342D01*
X174977511Y-102947258D01*
X175009415Y-102958254D01*
X175039390Y-102978531D01*
X175039550Y-102978661D01*
X175065874Y-103002357D01*
X175086644Y-103027980D01*
X175103498Y-103059278D01*
X175118074Y-103099999D01*
X175132009Y-103153893D01*
X175146942Y-103224708D01*
X175151040Y-103245484D01*
X175159254Y-103287296D01*
X175171086Y-103347631D01*
X175186337Y-103425469D01*
X175204808Y-103519789D01*
X175226299Y-103629569D01*
X175250610Y-103753791D01*
X175277542Y-103891431D01*
X175306894Y-104041471D01*
X175338468Y-104202889D01*
X175372063Y-104374665D01*
X175407479Y-104555778D01*
X175444518Y-104745207D01*
X175477634Y-104914591D01*
X175482979Y-104941932D01*
X175500038Y-105029193D01*
X175522664Y-105144931D01*
X175542807Y-105247979D01*
X175563371Y-105353185D01*
X175604901Y-105565672D01*
X175605428Y-105568366D01*
X175646525Y-105778580D01*
X175686577Y-105983331D01*
X175725402Y-106181681D01*
X175762813Y-106372694D01*
X175798628Y-106555433D01*
X175830310Y-106716970D01*
X175832662Y-106728961D01*
X175864731Y-106892342D01*
X175894650Y-107044639D01*
X175922236Y-107184916D01*
X175947304Y-107312235D01*
X175969670Y-107425660D01*
X175989149Y-107524254D01*
X176005559Y-107607080D01*
X176018713Y-107673203D01*
X176028429Y-107721685D01*
X176034522Y-107751589D01*
X176036808Y-107761979D01*
X176039302Y-107757969D01*
X176046274Y-107735438D01*
X176057182Y-107693984D01*
X176071834Y-107634459D01*
X176090037Y-107557714D01*
X176111601Y-107464599D01*
X176136332Y-107355967D01*
X176164039Y-107232666D01*
X176194529Y-107095550D01*
X176213676Y-107008685D01*
X176542401Y-107008685D01*
X176547610Y-107013894D01*
X176552819Y-107008685D01*
X176547610Y-107003476D01*
X176542401Y-107008685D01*
X176213676Y-107008685D01*
X176227610Y-106945469D01*
X176263091Y-106783274D01*
X176300779Y-106609816D01*
X176340482Y-106425946D01*
X176382008Y-106232516D01*
X176406378Y-106118769D01*
X176441535Y-105955114D01*
X176472893Y-105809929D01*
X176500750Y-105682039D01*
X176525405Y-105570266D01*
X176547157Y-105473435D01*
X176566304Y-105390370D01*
X176583145Y-105319894D01*
X176597979Y-105260832D01*
X176611103Y-105212008D01*
X176622818Y-105172245D01*
X176628815Y-105154214D01*
X177052901Y-105154214D01*
X177058111Y-105159423D01*
X177063320Y-105154214D01*
X177058111Y-105149005D01*
X177052901Y-105154214D01*
X176628815Y-105154214D01*
X176633420Y-105140368D01*
X176643210Y-105115200D01*
X176652485Y-105095565D01*
X176661544Y-105080288D01*
X176668664Y-105070867D01*
X176990391Y-105070867D01*
X176995600Y-105076076D01*
X177000810Y-105070867D01*
X176995600Y-105065658D01*
X176990391Y-105070867D01*
X176668664Y-105070867D01*
X176670686Y-105068192D01*
X176680209Y-105058101D01*
X176722042Y-105024523D01*
X176734014Y-105018775D01*
X176896626Y-105018775D01*
X176901835Y-105023984D01*
X176907044Y-105018775D01*
X176901835Y-105013566D01*
X176896626Y-105018775D01*
X176734014Y-105018775D01*
X176784741Y-104994421D01*
X176850384Y-104983189D01*
X176915949Y-104990790D01*
X176978415Y-105017187D01*
X176980396Y-105018775D01*
X177034761Y-105062344D01*
X177039387Y-105067319D01*
X177042232Y-105070867D01*
X177055886Y-105087894D01*
X177072499Y-105113876D01*
X177090124Y-105147323D01*
X177093257Y-105154214D01*
X177109660Y-105190297D01*
X177132003Y-105244859D01*
X177158052Y-105313069D01*
X177188705Y-105396987D01*
X177224858Y-105498675D01*
X177257656Y-105590553D01*
X177297965Y-105700541D01*
X177300166Y-105706388D01*
X177338391Y-105807942D01*
X177377811Y-105909895D01*
X177415100Y-106003540D01*
X177449133Y-106086014D01*
X177451669Y-106091868D01*
X177478785Y-106154457D01*
X177502931Y-106206008D01*
X177509722Y-106219481D01*
X177536275Y-106268072D01*
X177562916Y-106307307D01*
X177592239Y-106338373D01*
X177626836Y-106362457D01*
X177669301Y-106380747D01*
X177722229Y-106394431D01*
X177788212Y-106404694D01*
X177869844Y-106412726D01*
X177969718Y-106419713D01*
X177975035Y-106420043D01*
X178028769Y-106423191D01*
X178100478Y-106427153D01*
X178187637Y-106431805D01*
X178287720Y-106437022D01*
X178398204Y-106442678D01*
X178516562Y-106448648D01*
X178640270Y-106454808D01*
X178766802Y-106461032D01*
X178893635Y-106467195D01*
X179018242Y-106473172D01*
X179106564Y-106477348D01*
X179138099Y-106478839D01*
X179250681Y-106484069D01*
X179353462Y-106488739D01*
X179443919Y-106492722D01*
X179494762Y-106494976D01*
X179567532Y-106498414D01*
X179633971Y-106501792D01*
X179690456Y-106504918D01*
X179733364Y-106507596D01*
X179746074Y-106508603D01*
X179759074Y-106509633D01*
X179787908Y-106513107D01*
X179805734Y-106518533D01*
X179812569Y-106529072D01*
X179813611Y-106548421D01*
X179813660Y-106560976D01*
X179813036Y-106573427D01*
X179810076Y-106583818D01*
X179803482Y-106591950D01*
X179803102Y-106592418D01*
X179790433Y-106599498D01*
X179780562Y-106602368D01*
X179770389Y-106605326D01*
X179741289Y-106610174D01*
X179701453Y-106614311D01*
X179649202Y-106618008D01*
X179582855Y-106621534D01*
X179500731Y-106625160D01*
X179401151Y-106629155D01*
X179282434Y-106633789D01*
X179083173Y-106641556D01*
X178884346Y-106649206D01*
X178704348Y-106655997D01*
X178542140Y-106661942D01*
X178396683Y-106667059D01*
X178266937Y-106671364D01*
X178151865Y-106674872D01*
X178050427Y-106677600D01*
X177961584Y-106679563D01*
X177884298Y-106680777D01*
X177817529Y-106681259D01*
X177760240Y-106681025D01*
X177711390Y-106680090D01*
X177669941Y-106678470D01*
X177634855Y-106676182D01*
X177605092Y-106673241D01*
X177579614Y-106669664D01*
X177557381Y-106665466D01*
X177537356Y-106660664D01*
X177506710Y-106652148D01*
X177434759Y-106627366D01*
X177385000Y-106602368D01*
X179230342Y-106602368D01*
X179235551Y-106607577D01*
X179240760Y-106602368D01*
X179235551Y-106597159D01*
X179230342Y-106602368D01*
X177385000Y-106602368D01*
X177377542Y-106598621D01*
X177368659Y-106591950D01*
X179480383Y-106591950D01*
X179485592Y-106597159D01*
X179490801Y-106591950D01*
X179485592Y-106586741D01*
X179480383Y-106591950D01*
X177368659Y-106591950D01*
X177330586Y-106563358D01*
X177289420Y-106519021D01*
X177281194Y-106508603D01*
X179053230Y-106508603D01*
X179058439Y-106513812D01*
X179063648Y-106508603D01*
X179058439Y-106503394D01*
X179053230Y-106508603D01*
X177281194Y-106508603D01*
X177271579Y-106496426D01*
X177257313Y-106477348D01*
X178417709Y-106477348D01*
X178422918Y-106482557D01*
X178428127Y-106477348D01*
X178422918Y-106472138D01*
X178417709Y-106477348D01*
X177257313Y-106477348D01*
X177255710Y-106475204D01*
X177240901Y-106453429D01*
X177226126Y-106429031D01*
X177210359Y-106399944D01*
X177192575Y-106364099D01*
X177171746Y-106319428D01*
X177146848Y-106263862D01*
X177116855Y-106195334D01*
X177080741Y-106111775D01*
X177072185Y-106091868D01*
X177104993Y-106091868D01*
X177110202Y-106097077D01*
X177115412Y-106091868D01*
X177110202Y-106086659D01*
X177104993Y-106091868D01*
X177072185Y-106091868D01*
X177037479Y-106011117D01*
X177031974Y-105998309D01*
X176997312Y-105918373D01*
X176965173Y-105845437D01*
X176936488Y-105781536D01*
X176912190Y-105728698D01*
X176901535Y-105706388D01*
X176938299Y-105706388D01*
X176943508Y-105711597D01*
X176948718Y-105706388D01*
X176943508Y-105701179D01*
X176938299Y-105706388D01*
X176901535Y-105706388D01*
X176893211Y-105688958D01*
X176880483Y-105664345D01*
X176874939Y-105656892D01*
X176871265Y-105666866D01*
X176863910Y-105694389D01*
X176853936Y-105735872D01*
X176842164Y-105787895D01*
X176829413Y-105847036D01*
X176822965Y-105877605D01*
X176804549Y-105964615D01*
X176783046Y-106065866D01*
X176758846Y-106179534D01*
X176732340Y-106303799D01*
X176703921Y-106436838D01*
X176673979Y-106576829D01*
X176642906Y-106721950D01*
X176611092Y-106870379D01*
X176581421Y-107008685D01*
X176578931Y-107020294D01*
X176546812Y-107169874D01*
X176515127Y-107317295D01*
X176484268Y-107460737D01*
X176454625Y-107598376D01*
X176426591Y-107728391D01*
X176400556Y-107848961D01*
X176376912Y-107958262D01*
X176356050Y-108054473D01*
X176343309Y-108113033D01*
X176338362Y-108135773D01*
X176324238Y-108200338D01*
X176314071Y-108246347D01*
X176302314Y-108298233D01*
X176283570Y-108377442D01*
X176266443Y-108445464D01*
X176251550Y-108499989D01*
X176239503Y-108538703D01*
X176230918Y-108559295D01*
X176223358Y-108570010D01*
X176187896Y-108602696D01*
X176186608Y-108603883D01*
X176137279Y-108631456D01*
X176081703Y-108648927D01*
X176069815Y-108651268D01*
X176044442Y-108656251D01*
X176031901Y-108658693D01*
X176027450Y-108659031D01*
X176002088Y-108655257D01*
X175966504Y-108645505D01*
X175927402Y-108632026D01*
X175891487Y-108617066D01*
X175865466Y-108602876D01*
X175865210Y-108602696D01*
X176115248Y-108602696D01*
X176120457Y-108607905D01*
X176125666Y-108602696D01*
X176120457Y-108597487D01*
X176115248Y-108602696D01*
X175865210Y-108602696D01*
X175861586Y-108600153D01*
X175845970Y-108588091D01*
X175831948Y-108574418D01*
X175819062Y-108557564D01*
X175806858Y-108535957D01*
X175794880Y-108508023D01*
X175782671Y-108472193D01*
X175769778Y-108426892D01*
X175755742Y-108370550D01*
X175740110Y-108301595D01*
X175722426Y-108218454D01*
X175702233Y-108119557D01*
X175700933Y-108113033D01*
X175729768Y-108113033D01*
X175734977Y-108118242D01*
X175740186Y-108113033D01*
X175734977Y-108107823D01*
X175729768Y-108113033D01*
X175700933Y-108113033D01*
X175679076Y-108003329D01*
X175652499Y-107868201D01*
X175650074Y-107855825D01*
X175624054Y-107722617D01*
X175594585Y-107571098D01*
X175562044Y-107403231D01*
X175526808Y-107220981D01*
X175489254Y-107026312D01*
X175449760Y-106821190D01*
X175429729Y-106716970D01*
X175458890Y-106716970D01*
X175464099Y-106722179D01*
X175469308Y-106716970D01*
X175464099Y-106711761D01*
X175458890Y-106716970D01*
X175429729Y-106716970D01*
X175408703Y-106607578D01*
X175366461Y-106387441D01*
X175323410Y-106162744D01*
X175279928Y-105935452D01*
X175236393Y-105707527D01*
X175193181Y-105480936D01*
X175150670Y-105257643D01*
X175148834Y-105247979D01*
X175177594Y-105247979D01*
X175182803Y-105253188D01*
X175188012Y-105247979D01*
X175182803Y-105242770D01*
X175177594Y-105247979D01*
X175148834Y-105247979D01*
X175109238Y-105039612D01*
X175107257Y-105029193D01*
X175135920Y-105029193D01*
X175141129Y-105034403D01*
X175146339Y-105029193D01*
X175141129Y-105023984D01*
X175135920Y-105029193D01*
X175107257Y-105029193D01*
X175092443Y-104951277D01*
X175085442Y-104914591D01*
X175438053Y-104914591D01*
X175443262Y-104919800D01*
X175448472Y-104914591D01*
X175443262Y-104909382D01*
X175438053Y-104914591D01*
X175085442Y-104914591D01*
X175068107Y-104823755D01*
X175044982Y-104703136D01*
X175023363Y-104590929D01*
X175003543Y-104488642D01*
X174985818Y-104397782D01*
X174970482Y-104319858D01*
X174957829Y-104256377D01*
X174948155Y-104208849D01*
X174941753Y-104178779D01*
X174938919Y-104167678D01*
X174938340Y-104169008D01*
X174934448Y-104186238D01*
X174927214Y-104222441D01*
X174916839Y-104276514D01*
X174903523Y-104347355D01*
X174887468Y-104433863D01*
X174868874Y-104534936D01*
X174847944Y-104649472D01*
X174824877Y-104776369D01*
X174822488Y-104789571D01*
X174799875Y-104914526D01*
G37*
%TO.C,R26*%
D11*
X149616032Y-119413826D02*
X149616032Y-118959698D01*
X151086032Y-119413826D02*
X151086032Y-118959698D01*
%TO.C,R8*%
X185614999Y-131735431D02*
X185614999Y-132189559D01*
X187084999Y-131735431D02*
X187084999Y-132189559D01*
%TO.C,R32*%
X132227064Y-124265000D02*
X131772936Y-124265000D01*
X132227064Y-125735000D02*
X131772936Y-125735000D01*
%TO.C,D6*%
X203310786Y-120034309D02*
X204696715Y-121420239D01*
X204159314Y-119185781D02*
X205545244Y-120571710D01*
X205545244Y-120571710D02*
X204696715Y-121420239D01*
%TO.C,R7*%
X180472936Y-129764996D02*
X180927064Y-129764996D01*
X180472936Y-131234996D02*
X180927064Y-131234996D01*
%TO.C,R34*%
X126547936Y-122365000D02*
X127002064Y-122365000D01*
X126547936Y-123835000D02*
X127002064Y-123835000D01*
%TD*%
%LPC*%
D13*
%TO.C,K1*%
X150355000Y-132400000D03*
D14*
X147815000Y-132400000D03*
D15*
X140195000Y-132400000D03*
X132575000Y-132400000D03*
%TD*%
D16*
%TO.C,H11*%
X122075000Y-132900000D03*
%TD*%
D17*
%TO.C,J4*%
X204725000Y-122796902D03*
D18*
X207265000Y-122796902D03*
X204725000Y-125336902D03*
X207265000Y-125336902D03*
%TD*%
D19*
%TO.C,H7*%
X114000003Y-130999997D03*
%TD*%
%TO.C,H5*%
X206000000Y-130999996D03*
%TD*%
D16*
%TO.C,H10*%
X123999999Y-87200000D03*
%TD*%
D19*
%TO.C,H6*%
X206000000Y-88999996D03*
%TD*%
D13*
%TO.C,PS1*%
X163850000Y-86999995D03*
D14*
X161310000Y-86999995D03*
X158770000Y-86999995D03*
X156230000Y-86999996D03*
%TD*%
D20*
%TO.C,J1*%
X192890000Y-90779995D03*
X187109998Y-90779995D03*
D21*
X194324999Y-91269995D03*
X185674999Y-91269995D03*
D22*
X194324999Y-87099995D03*
X185674999Y-87099995D03*
%TD*%
D17*
%TO.C,J2*%
X169999999Y-133199995D03*
D18*
X167459999Y-133199995D03*
X164919999Y-133199995D03*
%TD*%
D16*
%TO.C,H9*%
X207800000Y-101600000D03*
%TD*%
D23*
%TO.C,H4*%
X117420000Y-100499996D03*
%TD*%
%TO.C,H3*%
X117420000Y-119549995D03*
%TD*%
D19*
%TO.C,H8*%
X114000003Y-88999995D03*
%TD*%
D23*
%TO.C,H2*%
X136470000Y-100499995D03*
%TD*%
%TO.C,H1*%
X136470000Y-119549996D03*
%TD*%
D24*
%TO.C,R41*%
X159612500Y-131449996D03*
X157787500Y-131449996D03*
%TD*%
D25*
%TO.C,C14*%
X202900000Y-109999995D03*
X204243502Y-111343497D03*
%TD*%
%TO.C,C16*%
X202900000Y-104999996D03*
X204243502Y-106343498D03*
%TD*%
D26*
%TO.C,R25*%
X152506813Y-116449262D03*
X152506813Y-118274262D03*
%TD*%
D24*
%TO.C,R36*%
X132912500Y-106000000D03*
X131087500Y-106000000D03*
%TD*%
D27*
%TO.C,C6*%
X161309999Y-89504909D03*
X163209999Y-89504909D03*
%TD*%
D26*
%TO.C,R23*%
X162250000Y-115287501D03*
X162250000Y-117112501D03*
%TD*%
D28*
%TO.C,TP7*%
X153000000Y-123000000D03*
%TD*%
D29*
%TO.C,C15*%
X190799999Y-131049995D03*
X190799999Y-132949995D03*
%TD*%
D28*
%TO.C,TP2*%
X178000000Y-87000000D03*
%TD*%
D27*
%TO.C,C27*%
X119475000Y-110999995D03*
X121375000Y-110999995D03*
%TD*%
%TO.C,C30*%
X135850000Y-131699995D03*
X137750000Y-131699995D03*
%TD*%
D30*
%TO.C,D12*%
X150800000Y-129699996D03*
X147300000Y-129699996D03*
%TD*%
D31*
%TO.C,Q1*%
X155600000Y-131449996D03*
X155600000Y-133349996D03*
X153725000Y-132399996D03*
%TD*%
D32*
%TO.C,R12*%
X167460000Y-130645231D03*
X168750470Y-129354761D03*
%TD*%
D28*
%TO.C,TP5*%
X153402569Y-87005789D03*
%TD*%
D33*
%TO.C,C24*%
X156614626Y-117805649D03*
X155271124Y-116462147D03*
%TD*%
D26*
%TO.C,R9*%
X184450000Y-131049995D03*
X184450000Y-132874995D03*
%TD*%
D24*
%TO.C,R33*%
X129512500Y-125000000D03*
X127687500Y-125000000D03*
%TD*%
D32*
%TO.C,R11*%
X170000000Y-130845230D03*
X171290470Y-129554760D03*
%TD*%
D26*
%TO.C,R24*%
X164500000Y-115287500D03*
X164500000Y-117112500D03*
%TD*%
D32*
%TO.C,R31*%
X120200000Y-108699996D03*
X121490470Y-107409526D03*
%TD*%
%TO.C,R27*%
X157854765Y-119045235D03*
X159145235Y-117754765D03*
%TD*%
D34*
%TO.C,R42*%
X134025001Y-129699996D03*
X135850001Y-129699996D03*
%TD*%
D24*
%TO.C,R37*%
X129512500Y-106000000D03*
X127687500Y-106000000D03*
%TD*%
D34*
%TO.C,R38*%
X125787500Y-104100000D03*
X127612500Y-104100000D03*
%TD*%
D26*
%TO.C,R14*%
X183900000Y-108809995D03*
X183900000Y-110634995D03*
%TD*%
D35*
%TO.C,D5*%
X207265000Y-120599995D03*
X206275050Y-119610045D03*
%TD*%
D36*
%TO.C,D10*%
X129149999Y-100499996D03*
X124849999Y-100499996D03*
%TD*%
D37*
%TO.C,R10*%
X188850000Y-132874995D03*
X188850000Y-131049995D03*
%TD*%
D34*
%TO.C,R6*%
X179787500Y-132999996D03*
X181612500Y-132999996D03*
%TD*%
D37*
%TO.C,R26*%
X150351032Y-120099262D03*
X150351032Y-118274262D03*
%TD*%
D26*
%TO.C,R8*%
X186349999Y-131049995D03*
X186349999Y-132874995D03*
%TD*%
D24*
%TO.C,R32*%
X132912500Y-125000000D03*
X131087500Y-125000000D03*
%TD*%
D35*
%TO.C,D6*%
X204725000Y-120599995D03*
X203735050Y-119610045D03*
%TD*%
D34*
%TO.C,R7*%
X179787500Y-130499996D03*
X181612500Y-130499996D03*
%TD*%
%TO.C,R34*%
X125862500Y-123100000D03*
X127687500Y-123100000D03*
%TD*%
%LPD*%
M02*
