%TF.GenerationSoftware,KiCad,Pcbnew,10.0.1*%
%TF.CreationDate,2026-08-15T22:17:47+02:00*%
%TF.ProjectId,psu-ext,7073752d-6578-4742-9e6b-696361645f70,1.2.1*%
%TF.SameCoordinates,Original*%
%TF.FileFunction,Paste,Top*%
%TF.FilePolarity,Positive*%
%FSLAX46Y46*%
G04 Gerber Fmt 4.6, Leading zero omitted, Abs format (unit mm)*
G04 Created by KiCad (PCBNEW 10.0.1) date 2026-08-15 22:17:47*
%MOMM*%
%LPD*%
G01*
G04 APERTURE LIST*
G04 Aperture macros list*
%AMRoundRect*
0 Rectangle with rounded corners*
0 $1 Rounding radius*
0 $2 $3 $4 $5 $6 $7 $8 $9 X,Y pos of 4 corners*
0 Add a 4 corners polygon primitive as box body*
4,1,4,$2,$3,$4,$5,$6,$7,$8,$9,$2,$3,0*
0 Add four circle primitives for the rounded corners*
1,1,$1+$1,$2,$3*
1,1,$1+$1,$4,$5*
1,1,$1+$1,$6,$7*
1,1,$1+$1,$8,$9*
0 Add four rect primitives between the rounded corners*
20,1,$1+$1,$2,$3,$4,$5,0*
20,1,$1+$1,$4,$5,$6,$7,0*
20,1,$1+$1,$6,$7,$8,$9,0*
20,1,$1+$1,$8,$9,$2,$3,0*%
G04 Aperture macros list end*
%ADD10RoundRect,0.250000X0.475000X-0.250000X0.475000X0.250000X-0.475000X0.250000X-0.475000X-0.250000X0*%
%ADD11RoundRect,0.250000X0.412500X0.650000X-0.412500X0.650000X-0.412500X-0.650000X0.412500X-0.650000X0*%
%ADD12RoundRect,0.250000X-0.450000X0.262500X-0.450000X-0.262500X0.450000X-0.262500X0.450000X0.262500X0*%
%ADD13RoundRect,0.150000X0.825000X0.150000X-0.825000X0.150000X-0.825000X-0.150000X0.825000X-0.150000X0*%
%ADD14RoundRect,0.250000X-0.250000X-0.475000X0.250000X-0.475000X0.250000X0.475000X-0.250000X0.475000X0*%
%ADD15RoundRect,0.162500X-0.650000X-0.162500X0.650000X-0.162500X0.650000X0.162500X-0.650000X0.162500X0*%
%ADD16RoundRect,0.150000X0.150000X-0.825000X0.150000X0.825000X-0.150000X0.825000X-0.150000X-0.825000X0*%
%ADD17RoundRect,0.375000X0.625000X0.375000X-0.625000X0.375000X-0.625000X-0.375000X0.625000X-0.375000X0*%
%ADD18RoundRect,0.500000X0.500000X1.400000X-0.500000X1.400000X-0.500000X-1.400000X0.500000X-1.400000X0*%
%ADD19RoundRect,0.250000X-0.475000X0.250000X-0.475000X-0.250000X0.475000X-0.250000X0.475000X0.250000X0*%
%ADD20R,1.800000X1.000000*%
%ADD21RoundRect,0.250000X-0.275000X-0.750000X0.275000X-0.750000X0.275000X0.750000X-0.275000X0.750000X0*%
%ADD22RoundRect,0.250000X0.250000X0.475000X-0.250000X0.475000X-0.250000X-0.475000X0.250000X-0.475000X0*%
%ADD23RoundRect,0.243750X0.243750X0.456250X-0.243750X0.456250X-0.243750X-0.456250X0.243750X-0.456250X0*%
%ADD24RoundRect,0.243750X-0.456250X0.243750X-0.456250X-0.243750X0.456250X-0.243750X0.456250X0.243750X0*%
%ADD25RoundRect,0.249999X1.425001X-0.450001X1.425001X0.450001X-1.425001X0.450001X-1.425001X-0.450001X0*%
%ADD26RoundRect,0.250000X-0.262500X-0.450000X0.262500X-0.450000X0.262500X0.450000X-0.262500X0.450000X0*%
%ADD27R,0.900000X0.900000*%
%ADD28R,1.500000X0.900000*%
%ADD29R,0.900000X1.500000*%
%ADD30RoundRect,0.250000X0.262500X0.450000X-0.262500X0.450000X-0.262500X-0.450000X0.262500X-0.450000X0*%
%ADD31RoundRect,0.250000X1.250000X0.550000X-1.250000X0.550000X-1.250000X-0.550000X1.250000X-0.550000X0*%
%ADD32R,0.600000X1.140000*%
%ADD33R,0.300000X1.140000*%
%ADD34RoundRect,0.150000X-0.512500X-0.150000X0.512500X-0.150000X0.512500X0.150000X-0.512500X0.150000X0*%
%ADD35RoundRect,0.150000X-0.150000X0.512500X-0.150000X-0.512500X0.150000X-0.512500X0.150000X0.512500X0*%
%ADD36RoundRect,0.250000X-0.650000X0.325000X-0.650000X-0.325000X0.650000X-0.325000X0.650000X0.325000X0*%
%ADD37RoundRect,0.250000X0.450000X-0.262500X0.450000X0.262500X-0.450000X0.262500X-0.450000X-0.262500X0*%
%ADD38RoundRect,0.075000X-0.650000X-0.075000X0.650000X-0.075000X0.650000X0.075000X-0.650000X0.075000X0*%
%ADD39RoundRect,0.250000X0.550000X-1.250000X0.550000X1.250000X-0.550000X1.250000X-0.550000X-1.250000X0*%
%ADD40RoundRect,0.250000X-0.503814X-0.132583X-0.132583X-0.503814X0.503814X0.132583X0.132583X0.503814X0*%
%ADD41RoundRect,0.243750X-0.243750X-0.456250X0.243750X-0.456250X0.243750X0.456250X-0.243750X0.456250X0*%
%ADD42RoundRect,0.250000X-0.325000X-0.650000X0.325000X-0.650000X0.325000X0.650000X-0.325000X0.650000X0*%
G04 APERTURE END LIST*
D10*
%TO.C,C12*%
X198600000Y-132329996D03*
X198600000Y-130429996D03*
%TD*%
D11*
%TO.C,C7*%
X163062500Y-93500000D03*
X159937500Y-93500000D03*
%TD*%
D12*
%TO.C,R2*%
X185450000Y-96049995D03*
X185450000Y-97874995D03*
%TD*%
D10*
%TO.C,C2*%
X174944357Y-92497300D03*
X174944357Y-90597300D03*
%TD*%
D13*
%TO.C,U6*%
X169975000Y-122910000D03*
X169975000Y-121640000D03*
X169975000Y-120370000D03*
X169975000Y-119100000D03*
X165025000Y-119100000D03*
X165025000Y-120370000D03*
X165025000Y-121640000D03*
X165025000Y-122910000D03*
%TD*%
D14*
%TO.C,C30*%
X152206740Y-118500000D03*
X154106740Y-118500000D03*
%TD*%
D11*
%TO.C,C8*%
X163062500Y-96000000D03*
X159937500Y-96000000D03*
%TD*%
D14*
%TO.C,C18*%
X198950000Y-125321902D03*
X200850000Y-125321902D03*
%TD*%
D15*
%TO.C,U9*%
X181412500Y-108094996D03*
X181412500Y-109364996D03*
X181412500Y-110634996D03*
X181412500Y-111904996D03*
X188587500Y-111904996D03*
X188587500Y-110634996D03*
X188587500Y-109364996D03*
X188587500Y-108094996D03*
%TD*%
D16*
%TO.C,U8*%
X152190000Y-112494297D03*
X153460000Y-112494297D03*
X154730000Y-112494297D03*
X156000000Y-112494297D03*
X156000000Y-107544297D03*
X154730000Y-107544297D03*
X153460000Y-107544297D03*
X152190000Y-107544297D03*
%TD*%
D17*
%TO.C,U3*%
X174940001Y-102209996D03*
X174940001Y-99909996D03*
D18*
X168640001Y-99909996D03*
D17*
X174940001Y-97609996D03*
%TD*%
D19*
%TO.C,C27*%
X150046271Y-109049996D03*
X150046271Y-110949996D03*
%TD*%
D20*
%TO.C,Y1*%
X196999999Y-125321900D03*
X196999999Y-122821902D03*
%TD*%
D21*
%TO.C,SW1*%
X202675000Y-109999996D03*
X207125000Y-109999996D03*
%TD*%
D22*
%TO.C,C26*%
X154730001Y-105200000D03*
X152830001Y-105200000D03*
%TD*%
D12*
%TO.C,R1*%
X195000000Y-96049995D03*
X195000000Y-97874995D03*
%TD*%
D23*
%TO.C,D3*%
X207637500Y-98449995D03*
X205762500Y-98449995D03*
%TD*%
D14*
%TO.C,C19*%
X198950000Y-122821902D03*
X200850000Y-122821902D03*
%TD*%
D24*
%TO.C,D2*%
X180093140Y-86474995D03*
X180093140Y-88349995D03*
%TD*%
D14*
%TO.C,C20*%
X169974999Y-125000004D03*
X171874999Y-125000004D03*
%TD*%
D19*
%TO.C,C10*%
X156649016Y-94700000D03*
X156649016Y-96600000D03*
%TD*%
D25*
%TO.C,R32*%
X142600000Y-113049995D03*
X142600000Y-106949995D03*
%TD*%
D26*
%TO.C,R15*%
X202174999Y-98449995D03*
X203999999Y-98449995D03*
%TD*%
D27*
%TO.C,U5*%
X187900000Y-127279995D03*
X187900000Y-125879995D03*
X187900000Y-124479995D03*
X186500000Y-127279995D03*
X186500000Y-125879995D03*
X186500000Y-124479995D03*
X185100000Y-127279995D03*
X185100000Y-125879995D03*
X185100000Y-124479995D03*
D28*
X193750000Y-133599995D03*
X193750000Y-132329995D03*
X193750000Y-131059995D03*
X193750000Y-129789995D03*
X193750000Y-128519995D03*
X193750000Y-127249995D03*
X193750000Y-125979995D03*
X193750000Y-124709995D03*
X193750000Y-123439995D03*
X193750000Y-122169995D03*
X193750000Y-120899995D03*
X193750000Y-119629995D03*
X193750000Y-118359995D03*
X193750000Y-117089995D03*
D29*
X191985000Y-115839995D03*
X190715000Y-115839995D03*
X189445000Y-115839995D03*
X188175000Y-115839995D03*
X186905000Y-115839995D03*
X185635000Y-115839995D03*
X184365000Y-115839995D03*
X183095000Y-115839995D03*
X181825000Y-115839995D03*
X180555000Y-115839995D03*
X179285000Y-115839995D03*
X178015000Y-115839995D03*
D28*
X176250000Y-117089995D03*
X176250000Y-118359995D03*
X176250000Y-119629995D03*
X176250000Y-120899995D03*
X176250000Y-122169995D03*
X176250000Y-123439995D03*
X176250000Y-124709995D03*
X176250000Y-125979995D03*
X176250000Y-127249995D03*
X176250000Y-128519995D03*
X176250000Y-129789995D03*
X176250000Y-131059995D03*
X176250000Y-132329995D03*
X176250000Y-133599995D03*
%TD*%
D19*
%TO.C,C22*%
X159000000Y-124000001D03*
X159000000Y-125900001D03*
%TD*%
D24*
%TO.C,D1*%
X197100000Y-86474995D03*
X197100000Y-88349995D03*
%TD*%
D30*
%TO.C,R30*%
X147912500Y-108499995D03*
X146087500Y-108499995D03*
%TD*%
D12*
%TO.C,R13*%
X190650000Y-107537496D03*
X190650000Y-109362496D03*
%TD*%
D31*
%TO.C,C9*%
X151400000Y-89199995D03*
X147000000Y-89199995D03*
%TD*%
D26*
%TO.C,R42*%
X154137500Y-129772893D03*
X155962500Y-129772893D03*
%TD*%
D32*
%TO.C,J1*%
X193199999Y-91849995D03*
X192399999Y-91849995D03*
D33*
X191249999Y-91849995D03*
X190249999Y-91849995D03*
X189749999Y-91849995D03*
X188749999Y-91849995D03*
D32*
X186799999Y-91849995D03*
X187599999Y-91849995D03*
D33*
X188249999Y-91849995D03*
X189249999Y-91849995D03*
X190749999Y-91849995D03*
X191749999Y-91849995D03*
%TD*%
D30*
%TO.C,R31*%
X147912499Y-111499995D03*
X146087499Y-111499995D03*
%TD*%
D34*
%TO.C,U2*%
X177820545Y-92497301D03*
X177820545Y-93447301D03*
X177820545Y-94397301D03*
X180095545Y-94397301D03*
X180095545Y-92497301D03*
%TD*%
D12*
%TO.C,R3*%
X199500000Y-86474995D03*
X199500000Y-88299995D03*
%TD*%
D22*
%TO.C,C21*%
X165025001Y-125000000D03*
X163125001Y-125000000D03*
%TD*%
D23*
%TO.C,D4*%
X207637500Y-96249995D03*
X205762500Y-96249995D03*
%TD*%
D10*
%TO.C,C13*%
X196600000Y-132329995D03*
X196600000Y-130429995D03*
%TD*%
D26*
%TO.C,R16*%
X202174999Y-96249995D03*
X203999999Y-96249995D03*
%TD*%
D14*
%TO.C,C17*%
X186687500Y-105799996D03*
X188587500Y-105799996D03*
%TD*%
D12*
%TO.C,R37*%
X152900000Y-124000000D03*
X152900000Y-125825000D03*
%TD*%
D17*
%TO.C,U4*%
X154150000Y-99300000D03*
X154150000Y-97000000D03*
D18*
X147850000Y-97000000D03*
D17*
X154150000Y-94700000D03*
%TD*%
D22*
%TO.C,C29*%
X151200001Y-124000000D03*
X149300001Y-124000000D03*
%TD*%
D35*
%TO.C,U1*%
X190950000Y-95824995D03*
X190000000Y-95824995D03*
X189050000Y-95824995D03*
X189050000Y-98099995D03*
X190000000Y-98099995D03*
X190950000Y-98099995D03*
%TD*%
D36*
%TO.C,C5*%
X178244796Y-99912136D03*
X178244796Y-102862136D03*
%TD*%
D37*
%TO.C,R5*%
X177746734Y-88299995D03*
X177746734Y-86474995D03*
%TD*%
D19*
%TO.C,C23*%
X156999999Y-123999999D03*
X156999999Y-125899999D03*
%TD*%
D21*
%TO.C,SW2*%
X202675000Y-104999996D03*
X207125000Y-104999996D03*
%TD*%
D38*
%TO.C,U7*%
X152900000Y-120370000D03*
X152900000Y-120870000D03*
X152900000Y-121370000D03*
X152900000Y-121870000D03*
X152900000Y-122370000D03*
X157200000Y-122370000D03*
X157200000Y-121870000D03*
X157200000Y-121370000D03*
X157200000Y-120870000D03*
X157200000Y-120370000D03*
%TD*%
D37*
%TO.C,R41*%
X150359073Y-118493259D03*
X150359073Y-116668259D03*
%TD*%
D39*
%TO.C,C3*%
X169860000Y-91399995D03*
X169860000Y-86999995D03*
%TD*%
D37*
%TO.C,R4*%
X182414759Y-94322300D03*
X182414759Y-92497300D03*
%TD*%
D40*
%TO.C,R18*%
X203454765Y-116954761D03*
X204745235Y-118245231D03*
%TD*%
D41*
%TO.C,D11*%
X154087500Y-132000000D03*
X155962500Y-132000000D03*
%TD*%
D42*
%TO.C,C11*%
X147850002Y-101993037D03*
X150800002Y-101993037D03*
%TD*%
D40*
%TO.C,R17*%
X205974530Y-116554760D03*
X207265000Y-117845230D03*
%TD*%
D14*
%TO.C,C4*%
X177277533Y-97610605D03*
X179177533Y-97610605D03*
%TD*%
D22*
%TO.C,C1*%
X180100000Y-90397301D03*
X178200000Y-90397301D03*
%TD*%
M02*
