%TF.GenerationSoftware,KiCad,Pcbnew,10.0.6*%
%TF.CreationDate,2026-09-09T20:23:59+02:00*%
%TF.ProjectId,psu-ext,7073752d-6578-4742-9e6b-696361645f70,1.3.0*%
%TF.SameCoordinates,Original*%
%TF.FileFunction,Soldermask,Top*%
%TF.FilePolarity,Negative*%
%FSLAX46Y46*%
G04 Gerber Fmt 4.6, Leading zero omitted, Abs format (unit mm)*
G04 Created by KiCad (PCBNEW 10.0.6) date 2026-09-09 20:23:59*
%MOMM*%
%LPD*%
G01*
G04 APERTURE LIST*
G04 Aperture macros list*
%AMRoundRect*
0 Rectangle with rounded corners*
0 $1 Rounding radius*
0 $2 $3 $4 $5 $6 $7 $8 $9 X,Y pos of 4 corners*
0 Add a 4 corners polygon primitive as box body*
4,1,4,$2,$3,$4,$5,$6,$7,$8,$9,$2,$3,0*
0 Add four circle primitives for the rounded corners*
1,1,$1+$1,$2,$3*
1,1,$1+$1,$4,$5*
1,1,$1+$1,$6,$7*
1,1,$1+$1,$8,$9*
0 Add four rect primitives between the rounded corners*
20,1,$1+$1,$2,$3,$4,$5,0*
20,1,$1+$1,$4,$5,$6,$7,0*
20,1,$1+$1,$6,$7,$8,$9,0*
20,1,$1+$1,$8,$9,$2,$3,0*%
G04 Aperture macros list end*
%ADD10C,0.010000*%
%ADD11RoundRect,0.250000X0.475000X-0.250000X0.475000X0.250000X-0.475000X0.250000X-0.475000X-0.250000X0*%
%ADD12RoundRect,0.250000X0.412500X0.650000X-0.412500X0.650000X-0.412500X-0.650000X0.412500X-0.650000X0*%
%ADD13RoundRect,0.250000X-0.450000X0.262500X-0.450000X-0.262500X0.450000X-0.262500X0.450000X0.262500X0*%
%ADD14RoundRect,0.150000X0.825000X0.150000X-0.825000X0.150000X-0.825000X-0.150000X0.825000X-0.150000X0*%
%ADD15RoundRect,0.250000X-0.250000X-0.475000X0.250000X-0.475000X0.250000X0.475000X-0.250000X0.475000X0*%
%ADD16RoundRect,0.162500X-0.650000X-0.162500X0.650000X-0.162500X0.650000X0.162500X-0.650000X0.162500X0*%
%ADD17RoundRect,0.150000X0.150000X-0.825000X0.150000X0.825000X-0.150000X0.825000X-0.150000X-0.825000X0*%
%ADD18RoundRect,0.375000X0.625000X0.375000X-0.625000X0.375000X-0.625000X-0.375000X0.625000X-0.375000X0*%
%ADD19RoundRect,0.500000X0.500000X1.400000X-0.500000X1.400000X-0.500000X-1.400000X0.500000X-1.400000X0*%
%ADD20RoundRect,0.250000X-0.475000X0.250000X-0.475000X-0.250000X0.475000X-0.250000X0.475000X0.250000X0*%
%ADD21RoundRect,0.102000X0.900000X-0.500000X0.900000X0.500000X-0.900000X0.500000X-0.900000X-0.500000X0*%
%ADD22RoundRect,0.102000X0.754000X0.754000X-0.754000X0.754000X-0.754000X-0.754000X0.754000X-0.754000X0*%
%ADD23C,1.712000*%
%ADD24C,2.004000*%
%ADD25RoundRect,0.250000X-0.275000X-0.750000X0.275000X-0.750000X0.275000X0.750000X-0.275000X0.750000X0*%
%ADD26RoundRect,0.250000X0.250000X0.475000X-0.250000X0.475000X-0.250000X-0.475000X0.250000X-0.475000X0*%
%ADD27R,1.700000X1.700000*%
%ADD28C,1.700000*%
%ADD29RoundRect,0.243750X0.243750X0.456250X-0.243750X0.456250X-0.243750X-0.456250X0.243750X-0.456250X0*%
%ADD30RoundRect,0.250000X0.262500X0.450000X-0.262500X0.450000X-0.262500X-0.450000X0.262500X-0.450000X0*%
%ADD31RoundRect,0.243750X-0.456250X0.243750X-0.456250X-0.243750X0.456250X-0.243750X0.456250X0.243750X0*%
%ADD32C,1.300000*%
%ADD33C,1.500000*%
%ADD34RoundRect,0.249999X1.425001X-0.450001X1.425001X0.450001X-1.425001X0.450001X-1.425001X-0.450001X0*%
%ADD35RoundRect,0.250000X-0.262500X-0.450000X0.262500X-0.450000X0.262500X0.450000X-0.262500X0.450000X0*%
%ADD36R,1.500000X0.900000*%
%ADD37R,0.900000X1.500000*%
%ADD38C,0.600000*%
%ADD39R,3.900000X3.900000*%
%ADD40C,5.700000*%
%ADD41RoundRect,0.250000X1.250000X0.550000X-1.250000X0.550000X-1.250000X-0.550000X1.250000X-0.550000X0*%
%ADD42RoundRect,0.150000X0.247487X0.035355X0.035355X0.247487X-0.247487X-0.035355X-0.035355X-0.247487X0*%
%ADD43O,1.104000X2.204000*%
%ADD44O,1.104000X1.904000*%
%ADD45RoundRect,0.150000X-0.512500X-0.150000X0.512500X-0.150000X0.512500X0.150000X-0.512500X0.150000X0*%
%ADD46RoundRect,0.250000X0.450000X-0.262500X0.450000X0.262500X-0.450000X0.262500X-0.450000X-0.262500X0*%
%ADD47C,7.600000*%
%ADD48RoundRect,0.150000X-0.150000X0.512500X-0.150000X-0.512500X0.150000X-0.512500X0.150000X0.512500X0*%
%ADD49RoundRect,0.250000X-0.650000X0.325000X-0.650000X-0.325000X0.650000X-0.325000X0.650000X0.325000X0*%
%ADD50RoundRect,0.075000X-0.650000X-0.075000X0.650000X-0.075000X0.650000X0.075000X-0.650000X0.075000X0*%
%ADD51RoundRect,0.250000X0.550000X-1.250000X0.550000X1.250000X-0.550000X1.250000X-0.550000X-1.250000X0*%
%ADD52RoundRect,0.243750X-0.243750X-0.456250X0.243750X-0.456250X0.243750X0.456250X-0.243750X0.456250X0*%
%ADD53RoundRect,0.250000X-0.325000X-0.650000X0.325000X-0.650000X0.325000X0.650000X-0.325000X0.650000X0*%
G04 APERTURE END LIST*
D10*
%TO.C,J1*%
X187149999Y-92469995D02*
X186449999Y-92469994D01*
X186449999Y-91229995D01*
X187149999Y-91229995D01*
X187149999Y-92469995D01*
G36*
X187149999Y-92469995D02*
G01*
X186449999Y-92469994D01*
X186449999Y-91229995D01*
X187149999Y-91229995D01*
X187149999Y-92469995D01*
G37*
X187950000Y-92469995D02*
X187249999Y-92469995D01*
X187249999Y-91229995D01*
X187949999Y-91229995D01*
X187950000Y-92469995D01*
G36*
X187950000Y-92469995D02*
G01*
X187249999Y-92469995D01*
X187249999Y-91229995D01*
X187949999Y-91229995D01*
X187950000Y-92469995D01*
G37*
X188449999Y-92469995D02*
X188049999Y-92469995D01*
X188049999Y-91229995D01*
X188449998Y-91229995D01*
X188449999Y-92469995D01*
G36*
X188449999Y-92469995D02*
G01*
X188049999Y-92469995D01*
X188049999Y-91229995D01*
X188449998Y-91229995D01*
X188449999Y-92469995D01*
G37*
X188949998Y-92469995D02*
X188549999Y-92469995D01*
X188549999Y-91229995D01*
X188949999Y-91229995D01*
X188949998Y-92469995D01*
G36*
X188949998Y-92469995D02*
G01*
X188549999Y-92469995D01*
X188549999Y-91229995D01*
X188949999Y-91229995D01*
X188949998Y-92469995D01*
G37*
X189449999Y-92469995D02*
X189049999Y-92469995D01*
X189050000Y-91229995D01*
X189449999Y-91229995D01*
X189449999Y-92469995D01*
G36*
X189449999Y-92469995D02*
G01*
X189049999Y-92469995D01*
X189050000Y-91229995D01*
X189449999Y-91229995D01*
X189449999Y-92469995D01*
G37*
X189949999Y-92469995D02*
X189549999Y-92469994D01*
X189549999Y-91229995D01*
X189949999Y-91229995D01*
X189949999Y-92469995D01*
G36*
X189949999Y-92469995D02*
G01*
X189549999Y-92469994D01*
X189549999Y-91229995D01*
X189949999Y-91229995D01*
X189949999Y-92469995D01*
G37*
X190449999Y-92469994D02*
X190049999Y-92469995D01*
X190049999Y-91229995D01*
X190449999Y-91229995D01*
X190449999Y-92469994D01*
G36*
X190449999Y-92469994D02*
G01*
X190049999Y-92469995D01*
X190049999Y-91229995D01*
X190449999Y-91229995D01*
X190449999Y-92469994D01*
G37*
X190949999Y-92469995D02*
X190549999Y-92469995D01*
X190549999Y-91229995D01*
X190949998Y-91229995D01*
X190949999Y-92469995D01*
G36*
X190949999Y-92469995D02*
G01*
X190549999Y-92469995D01*
X190549999Y-91229995D01*
X190949998Y-91229995D01*
X190949999Y-92469995D01*
G37*
X191449999Y-92469995D02*
X191050000Y-92469995D01*
X191049999Y-91229995D01*
X191449999Y-91229995D01*
X191449999Y-92469995D01*
G36*
X191449999Y-92469995D02*
G01*
X191050000Y-92469995D01*
X191049999Y-91229995D01*
X191449999Y-91229995D01*
X191449999Y-92469995D01*
G37*
X191949999Y-92469995D02*
X191549999Y-92469995D01*
X191550000Y-91229995D01*
X191949999Y-91229995D01*
X191949999Y-92469995D01*
G36*
X191949999Y-92469995D02*
G01*
X191549999Y-92469995D01*
X191550000Y-91229995D01*
X191949999Y-91229995D01*
X191949999Y-92469995D01*
G37*
X192749999Y-92469995D02*
X192049998Y-92469995D01*
X192049999Y-91229995D01*
X192749999Y-91229995D01*
X192749999Y-92469995D01*
G36*
X192749999Y-92469995D02*
G01*
X192049998Y-92469995D01*
X192049999Y-91229995D01*
X192749999Y-91229995D01*
X192749999Y-92469995D01*
G37*
X193549999Y-92469994D02*
X192849999Y-92469995D01*
X192849999Y-91229995D01*
X193549999Y-91229995D01*
X193549999Y-92469994D01*
G36*
X193549999Y-92469994D02*
G01*
X192849999Y-92469995D01*
X192849999Y-91229995D01*
X193549999Y-91229995D01*
X193549999Y-92469994D01*
G37*
%TD*%
D11*
%TO.C,C12*%
X198600000Y-132329996D03*
X198600000Y-130429996D03*
%TD*%
D12*
%TO.C,C7*%
X163062500Y-93500000D03*
X159937500Y-93500000D03*
%TD*%
D13*
%TO.C,R2*%
X185450000Y-96049995D03*
X185450000Y-97874995D03*
%TD*%
D11*
%TO.C,C2*%
X174944357Y-92497300D03*
X174944357Y-90597300D03*
%TD*%
D14*
%TO.C,U7*%
X169975000Y-122910000D03*
X169975000Y-121640000D03*
X169975000Y-120370000D03*
X169975000Y-119100000D03*
X165025000Y-119100000D03*
X165025000Y-120370000D03*
X165025000Y-121640000D03*
X165025000Y-122910000D03*
%TD*%
D11*
%TO.C,C33*%
X150500000Y-121870001D03*
X150500000Y-119970001D03*
%TD*%
D12*
%TO.C,C8*%
X163062500Y-96000000D03*
X159937500Y-96000000D03*
%TD*%
D15*
%TO.C,C14*%
X198950000Y-125321902D03*
X200850000Y-125321902D03*
%TD*%
D16*
%TO.C,U6*%
X181412500Y-108094996D03*
X181412500Y-109364996D03*
X181412500Y-110634996D03*
X181412500Y-111904996D03*
X188587500Y-111904996D03*
X188587500Y-110634996D03*
X188587500Y-109364996D03*
X188587500Y-108094996D03*
%TD*%
D13*
%TO.C,R26*%
X164000000Y-113000000D03*
X164000000Y-114825000D03*
%TD*%
D17*
%TO.C,U10*%
X152190000Y-112494297D03*
X153460000Y-112494297D03*
X154730000Y-112494297D03*
X156000000Y-112494297D03*
X156000000Y-107544297D03*
X154730000Y-107544297D03*
X153460000Y-107544297D03*
X152190000Y-107544297D03*
%TD*%
D18*
%TO.C,U3*%
X174940001Y-102209996D03*
X174940001Y-99909996D03*
D19*
X168640001Y-99909996D03*
D18*
X174940001Y-97609996D03*
%TD*%
D20*
%TO.C,C21*%
X150046271Y-109049996D03*
X150046271Y-110949996D03*
%TD*%
D15*
%TO.C,C34*%
X152450000Y-125550000D03*
X154350000Y-125550000D03*
%TD*%
D21*
%TO.C,Y1*%
X196999999Y-125321900D03*
X196999999Y-122821902D03*
%TD*%
D22*
%TO.C,K1*%
X150355000Y-132400000D03*
D23*
X147815000Y-132400000D03*
D24*
X140195000Y-132400000D03*
X132575000Y-132400000D03*
%TD*%
D25*
%TO.C,SW1*%
X202675000Y-109999996D03*
X207125000Y-109999996D03*
%TD*%
D26*
%TO.C,C28*%
X154730001Y-105200000D03*
X152830001Y-105200000D03*
%TD*%
D13*
%TO.C,R1*%
X195000000Y-96049995D03*
X195000000Y-97874995D03*
%TD*%
D27*
%TO.C,J2*%
X207275000Y-122079999D03*
D28*
X204735000Y-122079999D03*
X207275000Y-119539999D03*
X204735000Y-119539999D03*
X207275000Y-116999999D03*
X204735000Y-116999999D03*
%TD*%
D29*
%TO.C,D3*%
X207637500Y-98449995D03*
X205762500Y-98449995D03*
%TD*%
D15*
%TO.C,C18*%
X198950000Y-122821902D03*
X200850000Y-122821902D03*
%TD*%
D30*
%TO.C,R45*%
X152462500Y-123600000D03*
X150637500Y-123600000D03*
%TD*%
D31*
%TO.C,D2*%
X180093140Y-86474995D03*
X180093140Y-88349995D03*
%TD*%
D15*
%TO.C,C20*%
X169974999Y-125000004D03*
X171874999Y-125000004D03*
%TD*%
%TO.C,C27*%
X158600000Y-117312500D03*
X160500000Y-117312500D03*
%TD*%
D20*
%TO.C,C10*%
X156649016Y-94700000D03*
X156649016Y-96600000D03*
%TD*%
D32*
%TO.C,H7*%
X122075000Y-132900000D03*
%TD*%
D33*
%TO.C,TP5*%
X143450000Y-86900000D03*
%TD*%
D34*
%TO.C,R25*%
X142600000Y-113049995D03*
X142600000Y-106949995D03*
%TD*%
D35*
%TO.C,R8*%
X202174999Y-98449995D03*
X203999999Y-98449995D03*
%TD*%
D36*
%TO.C,U5*%
X193750000Y-133599995D03*
X193750000Y-132329995D03*
X193750000Y-131059995D03*
X193750000Y-129789995D03*
X193750000Y-128519995D03*
X193750000Y-127249995D03*
X193750000Y-125979995D03*
X193750000Y-124709995D03*
X193750000Y-123439995D03*
X193750000Y-122169995D03*
X193750000Y-120899995D03*
X193750000Y-119629995D03*
X193750000Y-118359995D03*
X193750000Y-117089995D03*
D37*
X191985000Y-115839995D03*
X190715000Y-115839995D03*
X189445000Y-115839995D03*
X188175000Y-115839995D03*
X186905000Y-115839995D03*
X185635000Y-115839995D03*
X184365000Y-115839995D03*
X183095000Y-115839995D03*
X181825000Y-115839995D03*
X180555000Y-115839995D03*
X179285000Y-115839995D03*
X178015000Y-115839995D03*
D36*
X176250000Y-117089995D03*
X176250000Y-118359995D03*
X176250000Y-119629995D03*
X176250000Y-120899995D03*
X176250000Y-122169995D03*
X176250000Y-123439995D03*
X176250000Y-124709995D03*
X176250000Y-125979995D03*
X176250000Y-127249995D03*
X176250000Y-128519995D03*
X176250000Y-129789995D03*
X176250000Y-131059995D03*
X176250000Y-132329995D03*
X176250000Y-133599995D03*
D38*
X187900000Y-126579995D03*
X187900000Y-125179995D03*
X187200000Y-127279995D03*
X187200000Y-125879995D03*
X187200000Y-124479995D03*
X186500000Y-126579995D03*
D39*
X186500000Y-125879995D03*
D38*
X186500000Y-125179995D03*
X185800000Y-127279995D03*
X185800000Y-125879995D03*
X185800000Y-124479995D03*
X185100000Y-126579995D03*
X185100000Y-125179995D03*
%TD*%
D40*
%TO.C,H3*%
X114000003Y-130999997D03*
%TD*%
D33*
%TO.C,TP1*%
X199100000Y-92399995D03*
%TD*%
D13*
%TO.C,R27*%
X161800000Y-113000000D03*
X161800000Y-114825000D03*
%TD*%
D40*
%TO.C,H1*%
X206000000Y-130999996D03*
%TD*%
D20*
%TO.C,C24*%
X160800000Y-124000001D03*
X160800000Y-125900001D03*
%TD*%
D32*
%TO.C,H6*%
X123999999Y-87200000D03*
%TD*%
D31*
%TO.C,D1*%
X197100000Y-86474995D03*
X197100000Y-88349995D03*
%TD*%
D30*
%TO.C,R23*%
X147912500Y-108499995D03*
X146087500Y-108499995D03*
%TD*%
D40*
%TO.C,H2*%
X206000000Y-88999996D03*
%TD*%
D13*
%TO.C,R19*%
X190650000Y-107537496D03*
X190650000Y-109362496D03*
%TD*%
D41*
%TO.C,C9*%
X151400000Y-89199995D03*
X147000000Y-89199995D03*
%TD*%
D22*
%TO.C,PS1*%
X163850000Y-86999995D03*
D23*
X161310000Y-86999995D03*
X158770000Y-86999995D03*
X156230000Y-86999996D03*
%TD*%
D33*
%TO.C,TP6*%
X157000000Y-100612499D03*
%TD*%
D35*
%TO.C,R32*%
X154137500Y-129700000D03*
X155962500Y-129700000D03*
%TD*%
D42*
%TO.C,D5*%
X204735000Y-124910050D03*
X205724950Y-125900000D03*
%TD*%
D43*
%TO.C,J1*%
X194324999Y-91269995D03*
X185674999Y-91269995D03*
D44*
X194324999Y-87099995D03*
X185674999Y-87099995D03*
%TD*%
D27*
%TO.C,J3*%
X169999999Y-133199995D03*
D28*
X167459999Y-133199995D03*
X164919999Y-133199995D03*
%TD*%
D30*
%TO.C,R24*%
X147912499Y-111499995D03*
X146087499Y-111499995D03*
%TD*%
D45*
%TO.C,U2*%
X177820545Y-92497301D03*
X177820545Y-93447301D03*
X177820545Y-94397301D03*
X180095545Y-94397301D03*
X180095545Y-92497301D03*
%TD*%
D32*
%TO.C,H5*%
X207800000Y-101600000D03*
%TD*%
D13*
%TO.C,R3*%
X199500000Y-86474995D03*
X199500000Y-88299995D03*
%TD*%
D26*
%TO.C,C22*%
X165025001Y-125000000D03*
X163125001Y-125000000D03*
%TD*%
D46*
%TO.C,R34*%
X156900000Y-117312500D03*
X156900000Y-115487500D03*
%TD*%
D33*
%TO.C,TP3*%
X172140000Y-93789996D03*
%TD*%
D29*
%TO.C,D4*%
X207637500Y-96249995D03*
X205762500Y-96249995D03*
%TD*%
D33*
%TO.C,TP4*%
X183000000Y-99900000D03*
%TD*%
D11*
%TO.C,C13*%
X196600000Y-132329995D03*
X196600000Y-130429995D03*
%TD*%
D35*
%TO.C,R9*%
X202174999Y-96249995D03*
X203999999Y-96249995D03*
%TD*%
D15*
%TO.C,C19*%
X186687500Y-105799996D03*
X188587500Y-105799996D03*
%TD*%
D46*
%TO.C,R44*%
X152460000Y-121870000D03*
X152460000Y-120045000D03*
%TD*%
D13*
%TO.C,R28*%
X152460000Y-115487500D03*
X152460000Y-117312500D03*
%TD*%
D18*
%TO.C,U4*%
X154150000Y-99300000D03*
X154150000Y-97000000D03*
D19*
X147850000Y-97000000D03*
D18*
X154150000Y-94700000D03*
%TD*%
D47*
%TO.C,H10*%
X117420000Y-100499996D03*
%TD*%
D48*
%TO.C,U1*%
X190950000Y-95824995D03*
X190000000Y-95824995D03*
X189050000Y-95824995D03*
X189050000Y-98099995D03*
X190000000Y-98099995D03*
X190950000Y-98099995D03*
%TD*%
D47*
%TO.C,H11*%
X117420000Y-119549995D03*
%TD*%
D40*
%TO.C,H4*%
X114000003Y-88999995D03*
%TD*%
D49*
%TO.C,C5*%
X178244796Y-99912136D03*
X178244796Y-102862136D03*
%TD*%
D46*
%TO.C,R4*%
X177746734Y-88299995D03*
X177746734Y-86474995D03*
%TD*%
D20*
%TO.C,C23*%
X158799999Y-123999999D03*
X158799999Y-125899999D03*
%TD*%
D25*
%TO.C,SW2*%
X202675000Y-104999996D03*
X207125000Y-104999996D03*
%TD*%
D50*
%TO.C,U8*%
X154700000Y-120370000D03*
X154700000Y-120870000D03*
X154700000Y-121370000D03*
X154700000Y-121870000D03*
X154700000Y-122370000D03*
X159000000Y-122370000D03*
X159000000Y-121870000D03*
X159000000Y-121370000D03*
X159000000Y-120870000D03*
X159000000Y-120370000D03*
%TD*%
D51*
%TO.C,C3*%
X169860000Y-91399995D03*
X169860000Y-86999995D03*
%TD*%
D46*
%TO.C,R5*%
X182414759Y-94322300D03*
X182414759Y-92497300D03*
%TD*%
D47*
%TO.C,H8*%
X136470000Y-100499995D03*
%TD*%
D52*
%TO.C,D14*%
X154087500Y-132000000D03*
X155962500Y-132000000D03*
%TD*%
D53*
%TO.C,C11*%
X147850002Y-101993037D03*
X150800002Y-101993037D03*
%TD*%
D47*
%TO.C,H9*%
X136470000Y-119549996D03*
%TD*%
D35*
%TO.C,R14*%
X198987500Y-127700000D03*
X200812500Y-127700000D03*
%TD*%
D15*
%TO.C,C4*%
X177277533Y-97610605D03*
X179177533Y-97610605D03*
%TD*%
D26*
%TO.C,C1*%
X180100000Y-90397301D03*
X178200000Y-90397301D03*
%TD*%
M02*
