%TF.GenerationSoftware,KiCad,Pcbnew,10.0.6*%
%TF.CreationDate,2026-09-09T20:23:59+02:00*%
%TF.ProjectId,psu-ext,7073752d-6578-4742-9e6b-696361645f70,1.3.0*%
%TF.SameCoordinates,Original*%
%TF.FileFunction,Copper,L1,Top*%
%TF.FilePolarity,Positive*%
%FSLAX46Y46*%
G04 Gerber Fmt 4.6, Leading zero omitted, Abs format (unit mm)*
G04 Created by KiCad (PCBNEW 10.0.6) date 2026-09-09 20:23:59*
%MOMM*%
%LPD*%
G01*
G04 APERTURE LIST*
G04 Aperture macros list*
%AMRoundRect*
0 Rectangle with rounded corners*
0 $1 Rounding radius*
0 $2 $3 $4 $5 $6 $7 $8 $9 X,Y pos of 4 corners*
0 Add a 4 corners polygon primitive as box body*
4,1,4,$2,$3,$4,$5,$6,$7,$8,$9,$2,$3,0*
0 Add four circle primitives for the rounded corners*
1,1,$1+$1,$2,$3*
1,1,$1+$1,$4,$5*
1,1,$1+$1,$6,$7*
1,1,$1+$1,$8,$9*
0 Add four rect primitives between the rounded corners*
20,1,$1+$1,$2,$3,$4,$5,0*
20,1,$1+$1,$4,$5,$6,$7,0*
20,1,$1+$1,$6,$7,$8,$9,0*
20,1,$1+$1,$8,$9,$2,$3,0*%
G04 Aperture macros list end*
%TA.AperFunction,SMDPad,CuDef*%
%ADD10RoundRect,0.250000X0.475000X-0.250000X0.475000X0.250000X-0.475000X0.250000X-0.475000X-0.250000X0*%
%TD*%
%TA.AperFunction,SMDPad,CuDef*%
%ADD11RoundRect,0.250000X0.412500X0.650000X-0.412500X0.650000X-0.412500X-0.650000X0.412500X-0.650000X0*%
%TD*%
%TA.AperFunction,SMDPad,CuDef*%
%ADD12RoundRect,0.250000X-0.450000X0.262500X-0.450000X-0.262500X0.450000X-0.262500X0.450000X0.262500X0*%
%TD*%
%TA.AperFunction,SMDPad,CuDef*%
%ADD13RoundRect,0.150000X0.825000X0.150000X-0.825000X0.150000X-0.825000X-0.150000X0.825000X-0.150000X0*%
%TD*%
%TA.AperFunction,SMDPad,CuDef*%
%ADD14RoundRect,0.250000X-0.250000X-0.475000X0.250000X-0.475000X0.250000X0.475000X-0.250000X0.475000X0*%
%TD*%
%TA.AperFunction,SMDPad,CuDef*%
%ADD15RoundRect,0.162500X-0.650000X-0.162500X0.650000X-0.162500X0.650000X0.162500X-0.650000X0.162500X0*%
%TD*%
%TA.AperFunction,SMDPad,CuDef*%
%ADD16RoundRect,0.150000X0.150000X-0.825000X0.150000X0.825000X-0.150000X0.825000X-0.150000X-0.825000X0*%
%TD*%
%TA.AperFunction,SMDPad,CuDef*%
%ADD17RoundRect,0.375000X0.625000X0.375000X-0.625000X0.375000X-0.625000X-0.375000X0.625000X-0.375000X0*%
%TD*%
%TA.AperFunction,SMDPad,CuDef*%
%ADD18RoundRect,0.500000X0.500000X1.400000X-0.500000X1.400000X-0.500000X-1.400000X0.500000X-1.400000X0*%
%TD*%
%TA.AperFunction,SMDPad,CuDef*%
%ADD19RoundRect,0.250000X-0.475000X0.250000X-0.475000X-0.250000X0.475000X-0.250000X0.475000X0.250000X0*%
%TD*%
%TA.AperFunction,SMDPad,CuDef*%
%ADD20R,1.800000X1.000000*%
%TD*%
%TA.AperFunction,ComponentPad*%
%ADD21R,1.508000X1.508000*%
%TD*%
%TA.AperFunction,ComponentPad*%
%ADD22C,1.508000*%
%TD*%
%TA.AperFunction,ComponentPad*%
%ADD23C,1.800000*%
%TD*%
%TA.AperFunction,SMDPad,CuDef*%
%ADD24RoundRect,0.250000X-0.275000X-0.750000X0.275000X-0.750000X0.275000X0.750000X-0.275000X0.750000X0*%
%TD*%
%TA.AperFunction,SMDPad,CuDef*%
%ADD25RoundRect,0.250000X0.250000X0.475000X-0.250000X0.475000X-0.250000X-0.475000X0.250000X-0.475000X0*%
%TD*%
%TA.AperFunction,ComponentPad*%
%ADD26R,1.700000X1.700000*%
%TD*%
%TA.AperFunction,ComponentPad*%
%ADD27C,1.700000*%
%TD*%
%TA.AperFunction,SMDPad,CuDef*%
%ADD28RoundRect,0.243750X0.243750X0.456250X-0.243750X0.456250X-0.243750X-0.456250X0.243750X-0.456250X0*%
%TD*%
%TA.AperFunction,SMDPad,CuDef*%
%ADD29RoundRect,0.250000X0.262500X0.450000X-0.262500X0.450000X-0.262500X-0.450000X0.262500X-0.450000X0*%
%TD*%
%TA.AperFunction,SMDPad,CuDef*%
%ADD30RoundRect,0.243750X-0.456250X0.243750X-0.456250X-0.243750X0.456250X-0.243750X0.456250X0.243750X0*%
%TD*%
%TA.AperFunction,SMDPad,CuDef*%
%ADD31C,1.500000*%
%TD*%
%TA.AperFunction,SMDPad,CuDef*%
%ADD32RoundRect,0.249999X1.425001X-0.450001X1.425001X0.450001X-1.425001X0.450001X-1.425001X-0.450001X0*%
%TD*%
%TA.AperFunction,SMDPad,CuDef*%
%ADD33RoundRect,0.250000X-0.262500X-0.450000X0.262500X-0.450000X0.262500X0.450000X-0.262500X0.450000X0*%
%TD*%
%TA.AperFunction,SMDPad,CuDef*%
%ADD34R,1.500000X0.900000*%
%TD*%
%TA.AperFunction,SMDPad,CuDef*%
%ADD35R,0.900000X1.500000*%
%TD*%
%TA.AperFunction,HeatsinkPad*%
%ADD36C,0.600000*%
%TD*%
%TA.AperFunction,HeatsinkPad*%
%ADD37R,3.900000X3.900000*%
%TD*%
%TA.AperFunction,ComponentPad*%
%ADD38C,5.700000*%
%TD*%
%TA.AperFunction,SMDPad,CuDef*%
%ADD39RoundRect,0.250000X1.250000X0.550000X-1.250000X0.550000X-1.250000X-0.550000X1.250000X-0.550000X0*%
%TD*%
%TA.AperFunction,SMDPad,CuDef*%
%ADD40RoundRect,0.150000X0.247487X0.035355X0.035355X0.247487X-0.247487X-0.035355X-0.035355X-0.247487X0*%
%TD*%
%TA.AperFunction,SMDPad,CuDef*%
%ADD41R,0.600000X1.140000*%
%TD*%
%TA.AperFunction,SMDPad,CuDef*%
%ADD42R,0.300000X1.140000*%
%TD*%
%TA.AperFunction,ComponentPad*%
%ADD43O,0.900000X2.000000*%
%TD*%
%TA.AperFunction,ComponentPad*%
%ADD44O,0.900000X1.700000*%
%TD*%
%TA.AperFunction,SMDPad,CuDef*%
%ADD45RoundRect,0.150000X-0.512500X-0.150000X0.512500X-0.150000X0.512500X0.150000X-0.512500X0.150000X0*%
%TD*%
%TA.AperFunction,SMDPad,CuDef*%
%ADD46RoundRect,0.250000X0.450000X-0.262500X0.450000X0.262500X-0.450000X0.262500X-0.450000X-0.262500X0*%
%TD*%
%TA.AperFunction,ComponentPad*%
%ADD47C,7.600000*%
%TD*%
%TA.AperFunction,SMDPad,CuDef*%
%ADD48RoundRect,0.150000X-0.150000X0.512500X-0.150000X-0.512500X0.150000X-0.512500X0.150000X0.512500X0*%
%TD*%
%TA.AperFunction,SMDPad,CuDef*%
%ADD49RoundRect,0.250000X-0.650000X0.325000X-0.650000X-0.325000X0.650000X-0.325000X0.650000X0.325000X0*%
%TD*%
%TA.AperFunction,SMDPad,CuDef*%
%ADD50RoundRect,0.075000X-0.650000X-0.075000X0.650000X-0.075000X0.650000X0.075000X-0.650000X0.075000X0*%
%TD*%
%TA.AperFunction,SMDPad,CuDef*%
%ADD51RoundRect,0.250000X0.550000X-1.250000X0.550000X1.250000X-0.550000X1.250000X-0.550000X-1.250000X0*%
%TD*%
%TA.AperFunction,SMDPad,CuDef*%
%ADD52RoundRect,0.243750X-0.243750X-0.456250X0.243750X-0.456250X0.243750X0.456250X-0.243750X0.456250X0*%
%TD*%
%TA.AperFunction,SMDPad,CuDef*%
%ADD53RoundRect,0.250000X-0.325000X-0.650000X0.325000X-0.650000X0.325000X0.650000X-0.325000X0.650000X0*%
%TD*%
%TA.AperFunction,ViaPad*%
%ADD54C,0.800000*%
%TD*%
%TA.AperFunction,ViaPad*%
%ADD55C,0.600000*%
%TD*%
%TA.AperFunction,Conductor*%
%ADD56C,0.400000*%
%TD*%
%TA.AperFunction,Conductor*%
%ADD57C,0.300000*%
%TD*%
%TA.AperFunction,Conductor*%
%ADD58C,0.200000*%
%TD*%
%TA.AperFunction,Conductor*%
%ADD59C,1.400000*%
%TD*%
%TA.AperFunction,Conductor*%
%ADD60C,0.280000*%
%TD*%
G04 APERTURE END LIST*
D10*
%TO.P,C12,1*%
%TO.N,V3.3*%
X198600000Y-132329996D03*
%TO.P,C12,2*%
%TO.N,GND*%
X198600000Y-130429996D03*
%TD*%
D11*
%TO.P,C7,1*%
%TO.N,VUSB*%
X163062500Y-93500000D03*
%TO.P,C7,2*%
%TO.N,V5-F*%
X159937500Y-93500000D03*
%TD*%
D12*
%TO.P,R2,1*%
%TO.N,Net-(J1-CC2)*%
X185450000Y-96049995D03*
%TO.P,R2,2*%
%TO.N,GND*%
X185450000Y-97874995D03*
%TD*%
D10*
%TO.P,C2,1*%
%TO.N,VUSB*%
X174944357Y-92497300D03*
%TO.P,C2,2*%
%TO.N,GND*%
X174944357Y-90597300D03*
%TD*%
D13*
%TO.P,U7,1,VCC1_1*%
%TO.N,V3.3*%
X169975000Y-122910000D03*
%TO.P,U7,2,SDA1_2*%
%TO.N,SDA*%
X169975000Y-121640000D03*
%TO.P,U7,3,SCL1_3*%
%TO.N,SCL*%
X169975000Y-120370000D03*
%TO.P,U7,4,GND1_4*%
%TO.N,GND*%
X169975000Y-119100000D03*
%TO.P,U7,5,GND2_5*%
%TO.N,GNDS*%
X165025000Y-119100000D03*
%TO.P,U7,6,SCL2_6*%
%TO.N,/FrontEnd ADC/SCLS*%
X165025000Y-120370000D03*
%TO.P,U7,7,SDA2_7*%
%TO.N,/FrontEnd ADC/SDAS*%
X165025000Y-121640000D03*
%TO.P,U7,8,VCC2_8*%
%TO.N,V3.3-F*%
X165025000Y-122910000D03*
%TD*%
D10*
%TO.P,C33,1*%
%TO.N,AIN0*%
X150500000Y-121870001D03*
%TO.P,C33,2*%
%TO.N,GNDS*%
X150500000Y-119970001D03*
%TD*%
D11*
%TO.P,C8,1*%
%TO.N,GND*%
X163062500Y-96000000D03*
%TO.P,C8,2*%
%TO.N,GNDS*%
X159937500Y-96000000D03*
%TD*%
D14*
%TO.P,C14,1*%
%TO.N,/ESP32/XTAL_32K_P*%
X198950000Y-125321902D03*
%TO.P,C14,2*%
%TO.N,GND*%
X200850000Y-125321902D03*
%TD*%
D15*
%TO.P,U6,1,~{CS}_1*%
%TO.N,/ESP32/~{CS}*%
X181412500Y-108094996D03*
%TO.P,U6,2,DO/IO_{1}_2*%
%TO.N,/ESP32/DO_MISO*%
X181412500Y-109364996D03*
%TO.P,U6,3,~{WP}/IO_{2}_3*%
%TO.N,Net-(U6-~{WP}{slash}IO_{2})*%
X181412500Y-110634996D03*
%TO.P,U6,4,GND_4*%
%TO.N,GND*%
X181412500Y-111904996D03*
%TO.P,U6,5,DI/IO_{0}_5*%
%TO.N,/ESP32/DI_MOSI*%
X188587500Y-111904996D03*
%TO.P,U6,6,CLK_6*%
%TO.N,/ESP32/CLK*%
X188587500Y-110634996D03*
%TO.P,U6,7,~{HOLD}/~{RESET}/IO_{3}_7*%
%TO.N,Net-(U6-~{HOLD}{slash}~{RESET}{slash}IO_{3})*%
X188587500Y-109364996D03*
%TO.P,U6,8,VCC_8*%
%TO.N,V3.3*%
X188587500Y-108094996D03*
%TD*%
D12*
%TO.P,R26,1*%
%TO.N,V3.3-F*%
X164000000Y-113000000D03*
%TO.P,R26,2*%
%TO.N,/FrontEnd ADC/SDAS*%
X164000000Y-114825000D03*
%TD*%
D16*
%TO.P,U10,1,-_1*%
%TO.N,/FrontEnd ADC/SENSE_N*%
X152190000Y-112494297D03*
%TO.P,U10,2,GND_2*%
%TO.N,GNDS*%
X153460000Y-112494297D03*
%TO.P,U10,3,REF2_3*%
X154730000Y-112494297D03*
%TO.P,U10,4,GND_4*%
X156000000Y-112494297D03*
%TO.P,U10,5*%
%TO.N,Net-(R34-Pad2)*%
X156000000Y-107544297D03*
%TO.P,U10,6,V+_6*%
%TO.N,V3.3-F*%
X154730000Y-107544297D03*
%TO.P,U10,7,REF1_7*%
%TO.N,Net-(U10-REF1)*%
X153460000Y-107544297D03*
%TO.P,U10,8,+_8*%
%TO.N,/FrontEnd ADC/SENSE_P*%
X152190000Y-107544297D03*
%TD*%
D17*
%TO.P,U3,1,GND_1*%
%TO.N,GND*%
X174940001Y-102209996D03*
%TO.P,U3,2,VO_2*%
%TO.N,V3.3*%
X174940001Y-99909996D03*
D18*
X168640001Y-99909996D03*
D17*
%TO.P,U3,3,VI_3*%
%TO.N,VUSB*%
X174940001Y-97609996D03*
%TD*%
D19*
%TO.P,C21,1*%
%TO.N,/FrontEnd ADC/SENSE_P*%
X150046271Y-109049996D03*
%TO.P,C21,2*%
%TO.N,/FrontEnd ADC/SENSE_N*%
X150046271Y-110949996D03*
%TD*%
D14*
%TO.P,C34,1*%
%TO.N,AIN1*%
X152450000Y-125550000D03*
%TO.P,C34,2*%
%TO.N,GNDS*%
X154350000Y-125550000D03*
%TD*%
D20*
%TO.P,Y1,1*%
%TO.N,/ESP32/XTAL_32K_P*%
X196999999Y-125321900D03*
%TO.P,Y1,2*%
%TO.N,/ESP32/XTAL_32K_N*%
X196999999Y-122821902D03*
%TD*%
D21*
%TO.P,K1,1*%
%TO.N,VUSB*%
X150355000Y-132400000D03*
D22*
%TO.P,K1,2*%
%TO.N,Net-(D14-K)*%
X147815000Y-132400000D03*
D23*
%TO.P,K1,3*%
%TO.N,/FrontEnd ADC/SNT_N*%
X140195000Y-132400000D03*
%TO.P,K1,4*%
%TO.N,LOAD_P*%
X132575000Y-132400000D03*
%TD*%
D24*
%TO.P,SW1,1,1_1*%
%TO.N,/ESP32/EN*%
X202675000Y-109999996D03*
%TO.P,SW1,2,2_2*%
%TO.N,GND*%
X207125000Y-109999996D03*
%TD*%
D25*
%TO.P,C28,1*%
%TO.N,V3.3-F*%
X154730001Y-105200000D03*
%TO.P,C28,2*%
%TO.N,GNDS*%
X152830001Y-105200000D03*
%TD*%
D12*
%TO.P,R1,1*%
%TO.N,Net-(J1-CC1)*%
X195000000Y-96049995D03*
%TO.P,R1,2*%
%TO.N,GND*%
X195000000Y-97874995D03*
%TD*%
D26*
%TO.P,J2,1,Pin_1_1*%
%TO.N,Net-(D6-K)*%
X207275000Y-122079999D03*
D27*
%TO.P,J2,2,Pin_2_2*%
%TO.N,Net-(D5-K)*%
X204735000Y-122079999D03*
%TO.P,J2,3,Pin_3_3*%
%TO.N,GND*%
X207275000Y-119539999D03*
%TO.P,J2,4,Pin_4_4*%
%TO.N,V3.3*%
X204735000Y-119539999D03*
%TO.P,J2,5,Pin_5_5*%
%TO.N,Net-(D7-K)*%
X207275000Y-116999999D03*
%TO.P,J2,6,Pin_6_6*%
%TO.N,Net-(D8-K)*%
X204735000Y-116999999D03*
%TD*%
D28*
%TO.P,D3,1,K_1*%
%TO.N,GND*%
X207637500Y-98449995D03*
%TO.P,D3,2,A_2*%
%TO.N,Net-(D3-A)*%
X205762500Y-98449995D03*
%TD*%
D14*
%TO.P,C18,1*%
%TO.N,/ESP32/XTAL_32K_N*%
X198950000Y-122821902D03*
%TO.P,C18,2*%
%TO.N,GND*%
X200850000Y-122821902D03*
%TD*%
D29*
%TO.P,R45,1*%
%TO.N,AIN1*%
X152462500Y-123600000D03*
%TO.P,R45,2*%
%TO.N,Net-(U11B--)*%
X150637500Y-123600000D03*
%TD*%
D30*
%TO.P,D2,1,K_1*%
%TO.N,Net-(D2-K)*%
X180093140Y-86474995D03*
%TO.P,D2,2,A_2*%
%TO.N,+5V*%
X180093140Y-88349995D03*
%TD*%
D14*
%TO.P,C20,1*%
%TO.N,V3.3*%
X169974999Y-125000004D03*
%TO.P,C20,2*%
%TO.N,GND*%
X171874999Y-125000004D03*
%TD*%
%TO.P,C27,1*%
%TO.N,/FrontEnd ADC/AIN2*%
X158600000Y-117312500D03*
%TO.P,C27,2*%
%TO.N,GNDS*%
X160500000Y-117312500D03*
%TD*%
D19*
%TO.P,C10,1*%
%TO.N,V5-F*%
X156649016Y-94700000D03*
%TO.P,C10,2*%
%TO.N,GNDS*%
X156649016Y-96600000D03*
%TD*%
D31*
%TO.P,TP5,1,1_1*%
%TO.N,V5-F*%
X143450000Y-86900000D03*
%TD*%
D32*
%TO.P,R25,1*%
%TO.N,/FrontEnd ADC/SNT_N*%
X142600000Y-113049995D03*
%TO.P,R25,2*%
%TO.N,PSU_P*%
X142600000Y-106949995D03*
%TD*%
D33*
%TO.P,R8,1*%
%TO.N,/ESP32/ST_USB*%
X202174999Y-98449995D03*
%TO.P,R8,2*%
%TO.N,Net-(D3-A)*%
X203999999Y-98449995D03*
%TD*%
D34*
%TO.P,U5,1,GND_1*%
%TO.N,GND*%
X193750000Y-133599995D03*
%TO.P,U5,2,3V3_2*%
%TO.N,V3.3*%
X193750000Y-132329995D03*
%TO.P,U5,3,EN_3*%
%TO.N,/ESP32/EN*%
X193750000Y-131059995D03*
%TO.P,U5,4,IO4_4*%
%TO.N,/ESP32/TRG1*%
X193750000Y-129789995D03*
%TO.P,U5,5,IO5_5*%
%TO.N,/ESP32/TRG2*%
X193750000Y-128519995D03*
%TO.P,U5,6,IO6_6*%
%TO.N,/ESP32/SDA1*%
X193750000Y-127249995D03*
%TO.P,U5,7,IO7_7*%
%TO.N,/ESP32/SCL1*%
X193750000Y-125979995D03*
%TO.P,U5,8,IO15_8*%
%TO.N,/ESP32/XTAL_32K_P*%
X193750000Y-124709995D03*
%TO.P,U5,9,IO16_9*%
%TO.N,/ESP32/XTAL_32K_N*%
X193750000Y-123439995D03*
%TO.P,U5,10,IO17_10*%
%TO.N,/ESP32/ST_USB*%
X193750000Y-122169995D03*
%TO.P,U5,11,IO18_11*%
%TO.N,/ESP32/ST_WLAN*%
X193750000Y-120899995D03*
%TO.P,U5,12,IO8_12*%
%TO.N,unconnected-(U5-IO8-Pad12)*%
X193750000Y-119629995D03*
%TO.P,U5,13,USB_D-_13*%
%TO.N,DG-*%
X193750000Y-118359995D03*
%TO.P,U5,14,USB_D+_14*%
%TO.N,DG+*%
X193750000Y-117089995D03*
D35*
%TO.P,U5,15,IO3_15*%
%TO.N,unconnected-(U5-IO3-Pad15)*%
X191985000Y-115839995D03*
%TO.P,U5,16,IO46_16*%
%TO.N,unconnected-(U5-IO46-Pad16)*%
X190715000Y-115839995D03*
%TO.P,U5,17,IO9_17*%
%TO.N,unconnected-(U5-IO9-Pad17)*%
X189445000Y-115839995D03*
%TO.P,U5,18,IO10_18*%
%TO.N,unconnected-(U5-IO10-Pad18)*%
X188175000Y-115839995D03*
%TO.P,U5,19,IO11_19*%
%TO.N,/ESP32/DI_MOSI*%
X186905000Y-115839995D03*
%TO.P,U5,20,IO12_20*%
%TO.N,/ESP32/CLK*%
X185635000Y-115839995D03*
%TO.P,U5,21,IO13_21*%
%TO.N,/ESP32/DO_MISO*%
X184365000Y-115839995D03*
%TO.P,U5,22,IO14_22*%
%TO.N,/ESP32/~{CS}*%
X183095000Y-115839995D03*
%TO.P,U5,23,IO21_23*%
%TO.N,unconnected-(U5-IO21-Pad23)*%
X181825000Y-115839995D03*
%TO.P,U5,24,IO47_24*%
%TO.N,unconnected-(U5-IO47-Pad24)*%
X180555000Y-115839995D03*
%TO.P,U5,25,IO48_25*%
%TO.N,unconnected-(U5-IO48-Pad25)*%
X179285000Y-115839995D03*
%TO.P,U5,26,IO45_26*%
%TO.N,unconnected-(U5-IO45-Pad26)*%
X178015000Y-115839995D03*
D34*
%TO.P,U5,27,IO0_27*%
%TO.N,/ESP32/IO0*%
X176250000Y-117089995D03*
%TO.P,U5,28,IO35_28*%
%TO.N,unconnected-(U5-IO35-Pad28)*%
X176250000Y-118359995D03*
%TO.P,U5,29,IO36_29*%
%TO.N,unconnected-(U5-IO36-Pad29)*%
X176250000Y-119629995D03*
%TO.P,U5,30,IO37_30*%
%TO.N,unconnected-(U5-IO37-Pad30)*%
X176250000Y-120899995D03*
%TO.P,U5,31,IO38_31*%
%TO.N,R_CTR*%
X176250000Y-122169995D03*
%TO.P,U5,32,IO39_32*%
%TO.N,/ESP32/MTCK*%
X176250000Y-123439995D03*
%TO.P,U5,33,IO40_33*%
%TO.N,/ESP32/MTDO*%
X176250000Y-124709995D03*
%TO.P,U5,34,IO41_34*%
%TO.N,/ESP32/MTDI*%
X176250000Y-125979995D03*
%TO.P,U5,35,IO42_35*%
%TO.N,/ESP32/MTMS*%
X176250000Y-127249995D03*
%TO.P,U5,36,RXD0_36*%
%TO.N,/ESP32/RX*%
X176250000Y-128519995D03*
%TO.P,U5,37,TXD0_37*%
%TO.N,/ESP32/TX*%
X176250000Y-129789995D03*
%TO.P,U5,38,IO2_38*%
%TO.N,SCL*%
X176250000Y-131059995D03*
%TO.P,U5,39,IO1_39*%
%TO.N,SDA*%
X176250000Y-132329995D03*
%TO.P,U5,40,GND_40*%
%TO.N,GND*%
X176250000Y-133599995D03*
D36*
%TO.P,U5,41,GND_41*%
X187900000Y-126579995D03*
X187900000Y-125179995D03*
X187200000Y-127279995D03*
X187200000Y-125879995D03*
X187200000Y-124479995D03*
X186500000Y-126579995D03*
D37*
X186500000Y-125879995D03*
D36*
X186500000Y-125179995D03*
X185800000Y-127279995D03*
X185800000Y-125879995D03*
X185800000Y-124479995D03*
X185100000Y-126579995D03*
X185100000Y-125179995D03*
%TD*%
D38*
%TO.P,H3,1,1_1*%
%TO.N,GNDS*%
X114000003Y-130999997D03*
%TD*%
D31*
%TO.P,TP1,1,1_1*%
%TO.N,+5V*%
X199100000Y-92399995D03*
%TD*%
D12*
%TO.P,R27,1*%
%TO.N,V3.3-F*%
X161800000Y-113000000D03*
%TO.P,R27,2*%
%TO.N,/FrontEnd ADC/SCLS*%
X161800000Y-114825000D03*
%TD*%
D38*
%TO.P,H1,1,1_1*%
%TO.N,GND*%
X206000000Y-130999996D03*
%TD*%
D19*
%TO.P,C24,1*%
%TO.N,V3.3-F*%
X160800000Y-124000001D03*
%TO.P,C24,2*%
%TO.N,GNDS*%
X160800000Y-125900001D03*
%TD*%
D30*
%TO.P,D1,1,K_1*%
%TO.N,Net-(D1-K)*%
X197100000Y-86474995D03*
%TO.P,D1,2,A_2*%
%TO.N,+5V*%
X197100000Y-88349995D03*
%TD*%
D29*
%TO.P,R23,1*%
%TO.N,/FrontEnd ADC/SENSE_P*%
X147912500Y-108499995D03*
%TO.P,R23,2*%
%TO.N,PSU_P*%
X146087500Y-108499995D03*
%TD*%
D38*
%TO.P,H2,1,1_1*%
%TO.N,GND*%
X206000000Y-88999996D03*
%TD*%
D12*
%TO.P,R19,1*%
%TO.N,V3.3*%
X190650000Y-107537496D03*
%TO.P,R19,2*%
%TO.N,Net-(U6-~{HOLD}{slash}~{RESET}{slash}IO_{3})*%
X190650000Y-109362496D03*
%TD*%
D39*
%TO.P,C9,1*%
%TO.N,V5-F*%
X151400000Y-89199995D03*
%TO.P,C9,2*%
%TO.N,GNDS*%
X147000000Y-89199995D03*
%TD*%
D21*
%TO.P,PS1,1,-VIN_1*%
%TO.N,GND*%
X163850000Y-86999995D03*
D22*
%TO.P,PS1,2,+VIN_2*%
%TO.N,VUSB*%
X161310000Y-86999995D03*
%TO.P,PS1,3,-VOUT_3*%
%TO.N,GNDS*%
X158770000Y-86999995D03*
%TO.P,PS1,4,+VOUT_4*%
%TO.N,V5-F*%
X156230000Y-86999996D03*
%TD*%
D31*
%TO.P,TP6,1,1_1*%
%TO.N,V3.3-F*%
X157000000Y-100612499D03*
%TD*%
D33*
%TO.P,R32,1*%
%TO.N,VUSB*%
X154137500Y-129700000D03*
%TO.P,R32,2*%
%TO.N,Net-(D14-A)*%
X155962500Y-129700000D03*
%TD*%
D40*
%TO.P,D5,1,K_1*%
%TO.N,Net-(D5-K)*%
X204735000Y-124910050D03*
%TO.P,D5,2,A_2*%
%TO.N,GND*%
X205724950Y-125900000D03*
%TD*%
D41*
%TO.P,J1,A1_B12,GND_A1_B12*%
%TO.N,GND*%
X193199999Y-91849995D03*
%TO.P,J1,A4_B9,VBUS_A4_B9*%
%TO.N,+5V*%
X192399999Y-91849995D03*
D42*
%TO.P,J1,A5,CC1_A5*%
%TO.N,Net-(J1-CC1)*%
X191249999Y-91849995D03*
%TO.P,J1,A6,DP1_A6*%
%TO.N,/USB/D+*%
X190249999Y-91849995D03*
%TO.P,J1,A7,DN1_A7*%
%TO.N,/USB/D-*%
X189749999Y-91849995D03*
%TO.P,J1,A8,SBU1_A8*%
%TO.N,unconnected-(J1-SBU1-PadA8)*%
X188749999Y-91849995D03*
D41*
%TO.P,J1,B1_A12,GND_B1_A12*%
%TO.N,GND*%
X186799999Y-91849995D03*
%TO.P,J1,B4_A9,VBUS_B4_A9*%
%TO.N,+5V*%
X187599999Y-91849995D03*
D42*
%TO.P,J1,B5,CC2_B5*%
%TO.N,Net-(J1-CC2)*%
X188249999Y-91849995D03*
%TO.P,J1,B6,DP2_B6*%
%TO.N,/USB/D+*%
X189249999Y-91849995D03*
%TO.P,J1,B7,DN2_B7*%
%TO.N,/USB/D-*%
X190749999Y-91849995D03*
%TO.P,J1,B8,SBU2_B8*%
%TO.N,unconnected-(J1-SBU2-PadB8)*%
X191749999Y-91849995D03*
D43*
%TO.P,J1,S1,SHIELD_S1*%
%TO.N,GND*%
X194324999Y-91269995D03*
%TO.P,J1,S2,SHIELD_S2*%
X185674999Y-91269995D03*
D44*
%TO.P,J1,S3,SHIELD_S3*%
X194324999Y-87099995D03*
%TO.P,J1,S4,SHIELD_S4*%
X185674999Y-87099995D03*
%TD*%
D26*
%TO.P,J3,1,Pin_1_1*%
%TO.N,Net-(J3-Pin_1)*%
X169999999Y-133199995D03*
D27*
%TO.P,J3,2,Pin_2_2*%
%TO.N,Net-(J3-Pin_2)*%
X167459999Y-133199995D03*
%TO.P,J3,3,Pin_3_3*%
%TO.N,GND*%
X164919999Y-133199995D03*
%TD*%
D29*
%TO.P,R24,1*%
%TO.N,/FrontEnd ADC/SENSE_N*%
X147912499Y-111499995D03*
%TO.P,R24,2*%
%TO.N,/FrontEnd ADC/SNT_N*%
X146087499Y-111499995D03*
%TD*%
D45*
%TO.P,U2,1,OUT_1*%
%TO.N,VUSB*%
X177820545Y-92497301D03*
%TO.P,U2,2,GND_2*%
%TO.N,GND*%
X177820545Y-93447301D03*
%TO.P,U2,3,~{FLG}_3*%
%TO.N,Net-(U2-~{FLG})*%
X177820545Y-94397301D03*
%TO.P,U2,4,EN_4*%
%TO.N,Net-(U2-EN)*%
X180095545Y-94397301D03*
%TO.P,U2,5,IN_5*%
%TO.N,+5V*%
X180095545Y-92497301D03*
%TD*%
D12*
%TO.P,R3,1*%
%TO.N,Net-(D1-K)*%
X199500000Y-86474995D03*
%TO.P,R3,2*%
%TO.N,GND*%
X199500000Y-88299995D03*
%TD*%
D25*
%TO.P,C22,1*%
%TO.N,V3.3-F*%
X165025001Y-125000000D03*
%TO.P,C22,2*%
%TO.N,GNDS*%
X163125001Y-125000000D03*
%TD*%
D46*
%TO.P,R34,1*%
%TO.N,/FrontEnd ADC/AIN2*%
X156900000Y-117312500D03*
%TO.P,R34,2*%
%TO.N,Net-(R34-Pad2)*%
X156900000Y-115487500D03*
%TD*%
D31*
%TO.P,TP3,1,1_1*%
%TO.N,VUSB*%
X172140000Y-93789996D03*
%TD*%
D28*
%TO.P,D4,1,K_1*%
%TO.N,GND*%
X207637500Y-96249995D03*
%TO.P,D4,2,A_2*%
%TO.N,Net-(D4-A)*%
X205762500Y-96249995D03*
%TD*%
D31*
%TO.P,TP4,1,1_1*%
%TO.N,V3.3*%
X183000000Y-99900000D03*
%TD*%
D10*
%TO.P,C13,1*%
%TO.N,V3.3*%
X196600000Y-132329995D03*
%TO.P,C13,2*%
%TO.N,GND*%
X196600000Y-130429995D03*
%TD*%
D33*
%TO.P,R9,1*%
%TO.N,/ESP32/ST_WLAN*%
X202174999Y-96249995D03*
%TO.P,R9,2*%
%TO.N,Net-(D4-A)*%
X203999999Y-96249995D03*
%TD*%
D14*
%TO.P,C19,1*%
%TO.N,GND*%
X186687500Y-105799996D03*
%TO.P,C19,2*%
%TO.N,V3.3*%
X188587500Y-105799996D03*
%TD*%
D46*
%TO.P,R44,1*%
%TO.N,AIN0*%
X152460000Y-121870000D03*
%TO.P,R44,2*%
%TO.N,Net-(U11A--)*%
X152460000Y-120045000D03*
%TD*%
D12*
%TO.P,R28,1*%
%TO.N,V3.3-F*%
X152460000Y-115487500D03*
%TO.P,R28,2*%
%TO.N,Net-(U8-ALERT{slash}RDY)*%
X152460000Y-117312500D03*
%TD*%
D17*
%TO.P,U4,1,GND_1*%
%TO.N,GNDS*%
X154150000Y-99300000D03*
%TO.P,U4,2,VO_2*%
%TO.N,V3.3-F*%
X154150000Y-97000000D03*
D18*
X147850000Y-97000000D03*
D17*
%TO.P,U4,3,VI_3*%
%TO.N,V5-F*%
X154150000Y-94700000D03*
%TD*%
D47*
%TO.P,H10,1,1_1*%
%TO.N,PGND*%
X117420000Y-100499996D03*
%TD*%
D48*
%TO.P,U1,1,I/O1_1*%
%TO.N,/USB/D-*%
X190950000Y-95824995D03*
%TO.P,U1,2,GND_2*%
%TO.N,GND*%
X190000000Y-95824995D03*
%TO.P,U1,3,I/O2_3*%
%TO.N,/USB/D+*%
X189050000Y-95824995D03*
%TO.P,U1,4,I/O2_4*%
%TO.N,DG+*%
X189050000Y-98099995D03*
%TO.P,U1,5,VBUS_5*%
%TO.N,+5V*%
X190000000Y-98099995D03*
%TO.P,U1,6,I/O1_6*%
%TO.N,DG-*%
X190950000Y-98099995D03*
%TD*%
D47*
%TO.P,H11,1,1_1*%
%TO.N,PGND*%
X117420000Y-119549995D03*
%TD*%
D38*
%TO.P,H4,1,1_1*%
%TO.N,GNDS*%
X114000003Y-88999995D03*
%TD*%
D49*
%TO.P,C5,1*%
%TO.N,V3.3*%
X178244796Y-99912136D03*
%TO.P,C5,2*%
%TO.N,GND*%
X178244796Y-102862136D03*
%TD*%
D46*
%TO.P,R4,1*%
%TO.N,Net-(U2-~{FLG})*%
X177746734Y-88299995D03*
%TO.P,R4,2*%
%TO.N,Net-(D2-K)*%
X177746734Y-86474995D03*
%TD*%
D19*
%TO.P,C23,1*%
%TO.N,V3.3-F*%
X158799999Y-123999999D03*
%TO.P,C23,2*%
%TO.N,GNDS*%
X158799999Y-125899999D03*
%TD*%
D24*
%TO.P,SW2,1,1_1*%
%TO.N,/ESP32/IO0*%
X202675000Y-104999996D03*
%TO.P,SW2,2,2_2*%
%TO.N,GND*%
X207125000Y-104999996D03*
%TD*%
D50*
%TO.P,U8,1,ADDR_1*%
%TO.N,GNDS*%
X154700000Y-120370000D03*
%TO.P,U8,2,ALERT/RDY_2*%
%TO.N,Net-(U8-ALERT{slash}RDY)*%
X154700000Y-120870000D03*
%TO.P,U8,3,GND_3*%
%TO.N,GNDS*%
X154700000Y-121370000D03*
%TO.P,U8,4,AIN0_4*%
%TO.N,AIN0*%
X154700000Y-121870000D03*
%TO.P,U8,5,AIN1_5*%
%TO.N,AIN1*%
X154700000Y-122370000D03*
%TO.P,U8,6,AIN2_6*%
%TO.N,/FrontEnd ADC/AIN2*%
X159000000Y-122370000D03*
%TO.P,U8,7,AIN3_7*%
%TO.N,unconnected-(U8-AIN3-Pad7)*%
X159000000Y-121870000D03*
%TO.P,U8,8,VDD_8*%
%TO.N,V3.3-F*%
X159000000Y-121370000D03*
%TO.P,U8,9,SDA_9*%
%TO.N,/FrontEnd ADC/SDAS*%
X159000000Y-120870000D03*
%TO.P,U8,10,SCL_10*%
%TO.N,/FrontEnd ADC/SCLS*%
X159000000Y-120370000D03*
%TD*%
D51*
%TO.P,C3,1*%
%TO.N,VUSB*%
X169860000Y-91399995D03*
%TO.P,C3,2*%
%TO.N,GND*%
X169860000Y-86999995D03*
%TD*%
D46*
%TO.P,R5,1*%
%TO.N,Net-(U2-EN)*%
X182414759Y-94322300D03*
%TO.P,R5,2*%
%TO.N,+5V*%
X182414759Y-92497300D03*
%TD*%
D47*
%TO.P,H8,1,1_1*%
%TO.N,PSU_P*%
X136470000Y-100499995D03*
%TD*%
D52*
%TO.P,D14,1,K_1*%
%TO.N,Net-(D14-K)*%
X154087500Y-132000000D03*
%TO.P,D14,2,A_2*%
%TO.N,Net-(D14-A)*%
X155962500Y-132000000D03*
%TD*%
D53*
%TO.P,C11,1*%
%TO.N,V3.3-F*%
X147850002Y-101993037D03*
%TO.P,C11,2*%
%TO.N,GNDS*%
X150800002Y-101993037D03*
%TD*%
D47*
%TO.P,H9,1,1_1*%
%TO.N,LOAD_P*%
X136470000Y-119549996D03*
%TD*%
D33*
%TO.P,R14,1*%
%TO.N,/ESP32/TRG2*%
X198987500Y-127700000D03*
%TO.P,R14,2*%
%TO.N,Net-(D5-K)*%
X200812500Y-127700000D03*
%TD*%
D14*
%TO.P,C4,1*%
%TO.N,VUSB*%
X177277533Y-97610605D03*
%TO.P,C4,2*%
%TO.N,GND*%
X179177533Y-97610605D03*
%TD*%
D25*
%TO.P,C1,1*%
%TO.N,+5V*%
X180100000Y-90397301D03*
%TO.P,C1,2*%
%TO.N,GND*%
X178200000Y-90397301D03*
%TD*%
D54*
%TO.N,V3.3*%
X170000000Y-126200000D03*
D55*
X168200000Y-97499995D03*
D54*
X188587500Y-104574053D03*
X182700000Y-132999995D03*
D55*
X183000000Y-99900000D03*
X169100000Y-97499995D03*
D54*
X184449999Y-133849995D03*
X183900000Y-107849997D03*
X188850000Y-133849995D03*
X182700000Y-130499995D03*
X186349999Y-133849995D03*
X198595496Y-133259932D03*
X189700000Y-123700000D03*
X191809396Y-107537496D03*
%TO.N,GND*%
X208625000Y-112975000D03*
X157449449Y-133356593D03*
X198628638Y-129529996D03*
X180145826Y-97608345D03*
D55*
X190000000Y-94786342D03*
D54*
X190800000Y-133849995D03*
X171499999Y-119100000D03*
X201800000Y-122799996D03*
X196609573Y-129529995D03*
X200625000Y-119539999D03*
X164201163Y-89504909D03*
X178948293Y-93447301D03*
X171865383Y-123795510D03*
X208600000Y-96249996D03*
X180200000Y-111899995D03*
X199500000Y-89299996D03*
X208600001Y-98449995D03*
X205200000Y-112299995D03*
X177500000Y-133599996D03*
X206292408Y-126465178D03*
X202400000Y-118150000D03*
X173473014Y-102205019D03*
X192500000Y-133599996D03*
X195000000Y-98799996D03*
X177195545Y-90391366D03*
X174944358Y-89597300D03*
X185700000Y-105799996D03*
X201800000Y-125321901D03*
X178240000Y-103949996D03*
X208500000Y-109999995D03*
X208499999Y-104999996D03*
X171150000Y-86999996D03*
X185450000Y-98812494D03*
X208832589Y-126267411D03*
X164100000Y-96000000D03*
X205199999Y-107299995D03*
%TO.N,VUSB*%
X169860000Y-93399996D03*
D55*
%TO.N,SDA*%
X177500000Y-132332425D03*
%TO.N,SCL*%
X177500000Y-131059996D03*
%TO.N,GNDS*%
X155739352Y-121370000D03*
X151665160Y-118989271D03*
D54*
X122400000Y-111000000D03*
D55*
X157500000Y-125900000D03*
X160650000Y-118879999D03*
D54*
X163125001Y-126200000D03*
X156649016Y-97612495D03*
D55*
X155550000Y-125550000D03*
D54*
X152649016Y-99300000D03*
D55*
X163200000Y-116250000D03*
D54*
X158000000Y-106600000D03*
X159049999Y-100612499D03*
X160500000Y-116050000D03*
D55*
X156000000Y-111000000D03*
X152800000Y-109400000D03*
D54*
X158900000Y-96000000D03*
D55*
X154730000Y-111000000D03*
D54*
X144900000Y-89300000D03*
D55*
X153460000Y-111000000D03*
D54*
X149100000Y-119750000D03*
D55*
X149950000Y-125750000D03*
X151500000Y-105200000D03*
D54*
X122200000Y-106699996D03*
D55*
X151500000Y-105900000D03*
D54*
X155000000Y-116250000D03*
X165025000Y-118196109D03*
X151866574Y-101993037D03*
D55*
%TO.N,/FrontEnd ADC/SDAS*%
X166400000Y-121639999D03*
X164000000Y-115900000D03*
D54*
%TO.N,V3.3-F*%
X154730001Y-103900000D03*
X165031832Y-126200000D03*
X157000000Y-100612499D03*
X157400000Y-124000002D03*
X148350001Y-94589999D03*
X153950000Y-115500000D03*
X149100000Y-123800000D03*
X161750000Y-111875001D03*
X147350001Y-94589999D03*
X164000001Y-111875001D03*
X156850000Y-104900000D03*
X163519999Y-117700000D03*
D55*
%TO.N,Net-(U6-~{WP}{slash}IO_{2})*%
X182600000Y-110634995D03*
%TO.N,Net-(U10-REF1)*%
X153460000Y-108900000D03*
%TO.N,Net-(D14-K)*%
X152450005Y-132399995D03*
%TO.N,/ESP32/EN*%
X201500000Y-109999996D03*
X192500000Y-131069996D03*
%TO.N,Net-(U11B--)*%
X150635000Y-125200000D03*
D54*
%TO.N,+5V*%
X192400000Y-93199996D03*
X187600000Y-93199996D03*
D55*
X187250000Y-96099995D03*
%TO.N,/ESP32/TRG1*%
X192500000Y-129789995D03*
X186349999Y-130199995D03*
%TO.N,/ESP32/TRG2*%
X184449999Y-130199995D03*
%TO.N,/ESP32/IO0*%
X175100000Y-117089996D03*
X201500000Y-104999996D03*
%TO.N,R_CTR*%
X177500000Y-122169995D03*
%TO.N,/ESP32/RX*%
X177500000Y-128522345D03*
%TO.N,/ESP32/TX*%
X177500000Y-129789995D03*
%TO.N,Net-(U2-~{FLG})*%
X176714759Y-94397300D03*
X176714759Y-88297300D03*
%TO.N,Net-(U11A--)*%
X152460000Y-119080000D03*
%TO.N,/ESP32/SDA1*%
X192499999Y-127249995D03*
%TO.N,/ESP32/SCL1*%
X192499999Y-125979995D03*
%TD*%
%TO.N,V3.3*%
D56*
X193750000Y-132329996D02*
X196600000Y-132329997D01*
X188587500Y-105799996D02*
X188587500Y-108094995D01*
X188587500Y-105799996D02*
X188587500Y-104586101D01*
X198599999Y-132329995D02*
X196600000Y-132329997D01*
X170000000Y-126200000D02*
X170000000Y-126163106D01*
X174939999Y-99909996D02*
X168640000Y-99909995D01*
X170000000Y-126163106D02*
X169975000Y-126138106D01*
X191777408Y-107537496D02*
X191809397Y-107569486D01*
X190650000Y-107537496D02*
X191777408Y-107537496D01*
X198599999Y-132329995D02*
X198600000Y-133255427D01*
X198600000Y-133255427D02*
X198595496Y-133259932D01*
X178244796Y-99912137D02*
X174942141Y-99912137D01*
X169975000Y-126138106D02*
X169975000Y-125000004D01*
X169975000Y-125000004D02*
X169975000Y-122910000D01*
X188587500Y-104586101D02*
X188575454Y-104574053D01*
%TO.N,GND*%
X180143565Y-97610605D02*
X179177533Y-97610605D01*
X176250000Y-133599996D02*
X177500000Y-133599996D01*
X206900000Y-109999995D02*
X208500000Y-109999995D01*
X196600000Y-129539569D02*
X196609573Y-129529995D01*
X180145826Y-97608345D02*
X180143565Y-97610605D01*
X178244796Y-103945199D02*
X178240000Y-103949996D01*
X180205000Y-111904995D02*
X180200000Y-111899995D01*
X207637500Y-96249995D02*
X208600000Y-96249996D01*
X198600000Y-130429996D02*
X198600000Y-129558634D01*
X181412500Y-111904996D02*
X180205000Y-111904995D01*
X174940000Y-102209995D02*
X173477990Y-102209995D01*
X198600000Y-129558634D02*
X198628638Y-129529996D01*
X201778093Y-122821903D02*
X201800000Y-122799996D01*
X185450000Y-97862496D02*
X185450000Y-98812494D01*
X186255000Y-91849996D02*
X185675000Y-91269996D01*
X163062500Y-96000000D02*
X164100000Y-96000000D01*
X177201479Y-90397300D02*
X177195545Y-90391366D01*
X196600000Y-130429996D02*
X196600000Y-129539569D01*
X199500000Y-88299995D02*
X199500000Y-89299996D01*
X205724950Y-125900000D02*
X205727230Y-125900000D01*
X205724950Y-125909327D02*
X205724950Y-125900000D01*
X171874998Y-123805125D02*
X171865383Y-123795510D01*
X200849999Y-122821902D02*
X201778093Y-122821903D01*
X171499999Y-119100000D02*
X169975000Y-119100000D01*
X193749999Y-133599996D02*
X192500000Y-133599996D01*
X186800000Y-91849997D02*
X186255000Y-91849996D01*
X201778095Y-125321901D02*
X201800000Y-125299996D01*
X195000000Y-97874995D02*
X195000000Y-98799996D01*
D57*
X190000000Y-95824995D02*
X190000000Y-94786342D01*
D56*
X171150000Y-86999996D02*
X169859999Y-86999996D01*
X200849999Y-125321901D02*
X201778095Y-125321901D01*
X206900000Y-104999995D02*
X208499999Y-104999996D01*
X186687502Y-105799995D02*
X185700000Y-105799996D01*
X193745000Y-91849996D02*
X194325000Y-91269996D01*
X207637500Y-98449995D02*
X208600001Y-98449995D01*
X171874998Y-125000004D02*
X171874998Y-123805125D01*
X178244796Y-102862137D02*
X178244796Y-103945199D01*
X178200000Y-90397300D02*
X177201479Y-90397300D01*
X205724950Y-125932542D02*
X205724950Y-125900000D01*
X173477990Y-102209995D02*
X173473014Y-102205019D01*
X205727230Y-125900000D02*
X206292408Y-126465178D01*
X177820545Y-93447301D02*
X178948293Y-93447301D01*
X205724950Y-125900000D02*
X205724950Y-125938345D01*
X193200000Y-91849995D02*
X193745000Y-91849996D01*
X174944358Y-89597300D02*
X174944358Y-90597300D01*
%TO.N,VUSB*%
X169860000Y-93393352D02*
X169860000Y-91399995D01*
X177820545Y-92497300D02*
X174944358Y-92497300D01*
X161300000Y-87009995D02*
X161310000Y-86999995D01*
X169860000Y-91399995D02*
X167600000Y-91399995D01*
X161300000Y-89100000D02*
X161300000Y-87009995D01*
X167600000Y-91399995D02*
X167400000Y-91399995D01*
X165299995Y-93500000D02*
X163062500Y-93500000D01*
X167400000Y-91399995D02*
X165299995Y-93500000D01*
X173497305Y-92497300D02*
X173432695Y-92497300D01*
X163062500Y-93500000D02*
X163062500Y-90862500D01*
X172400000Y-91399995D02*
X169860000Y-91399995D01*
X174944358Y-92497300D02*
X173497305Y-92497300D01*
X150339999Y-132399995D02*
X153039994Y-129700000D01*
X173432695Y-92497300D02*
X172140000Y-93789996D01*
X174940000Y-97609996D02*
X177276923Y-97609996D01*
X153039994Y-129700000D02*
X154137500Y-129700000D01*
X173497305Y-92497300D02*
X172400000Y-91399995D01*
X174940000Y-97609996D02*
X174940000Y-92501658D01*
X163062500Y-90862500D02*
X161300000Y-89100000D01*
%TO.N,V5-F*%
X143450000Y-86900000D02*
X150900000Y-86900000D01*
%TO.N,Net-(J1-CC2)*%
D58*
X185750000Y-94849995D02*
X185450000Y-95149995D01*
X188749999Y-93799995D02*
X187699999Y-94849995D01*
X188250001Y-92549995D02*
X188750000Y-93049995D01*
X188250000Y-91849997D02*
X188250001Y-92549995D01*
X187699999Y-94849995D02*
X185750000Y-94849995D01*
X188750000Y-93049995D02*
X188749999Y-93799995D01*
X185450000Y-95149995D02*
X185450000Y-96049995D01*
%TO.N,SDA*%
X172040000Y-121640000D02*
X169975000Y-121640000D01*
X174629995Y-132329995D02*
X173200000Y-130900000D01*
X173200000Y-130900000D02*
X173200000Y-122800000D01*
X173200000Y-122800000D02*
X172040000Y-121640000D01*
X176250000Y-132329995D02*
X174629995Y-132329995D01*
X176252430Y-132332425D02*
X176250000Y-132329995D01*
X177500000Y-132332425D02*
X176252430Y-132332425D01*
%TO.N,SCL*%
X175059995Y-131059995D02*
X174200000Y-130200000D01*
X174200000Y-130200000D02*
X174200000Y-122200000D01*
X174200000Y-122200000D02*
X172370000Y-120370000D01*
X172370000Y-120370000D02*
X169975000Y-120370000D01*
X176250000Y-131059995D02*
X177491582Y-131059995D01*
X176250000Y-131059995D02*
X175059995Y-131059995D01*
%TO.N,GNDS*%
D56*
X160500000Y-116050000D02*
X160500000Y-117300000D01*
X165025000Y-118248385D02*
X165025000Y-119100000D01*
X156649016Y-96762494D02*
X156649016Y-97612495D01*
X159937500Y-96000000D02*
X158900000Y-96000000D01*
X152649016Y-99300000D02*
X154150001Y-99299999D01*
X163125001Y-126225001D02*
X163200000Y-126300000D01*
X165057275Y-118216110D02*
X165025000Y-118248385D01*
X150987997Y-101993037D02*
X151866574Y-101993037D01*
X144900000Y-89300000D02*
X146000000Y-89300000D01*
X163125001Y-125000000D02*
X163125001Y-126225001D01*
%TO.N,/FrontEnd ADC/SCLS*%
D58*
X161800000Y-119270000D02*
X162900000Y-120370000D01*
X162900000Y-120370000D02*
X159000000Y-120370000D01*
X165025000Y-120370000D02*
X162900000Y-120370000D01*
X161800000Y-114825000D02*
X161800000Y-119270000D01*
%TO.N,/FrontEnd ADC/SDAS*%
X160770000Y-120870000D02*
X159000000Y-120870000D01*
X161540000Y-121640000D02*
X160770000Y-120870000D01*
X165025000Y-121639999D02*
X166360000Y-121639999D01*
X166360000Y-121639999D02*
X166400000Y-121600000D01*
X164000000Y-114825000D02*
X164000000Y-115900000D01*
X165025000Y-121640000D02*
X161540000Y-121640000D01*
%TO.N,V3.3-F*%
D56*
X147850001Y-97000000D02*
X154149999Y-97000000D01*
X154730001Y-105200000D02*
X154730000Y-107544297D01*
X147850000Y-97000000D02*
X147850000Y-101993035D01*
X158799996Y-124000002D02*
X158799999Y-123999999D01*
X147850000Y-101993035D02*
X147850002Y-101993037D01*
X158799999Y-124000000D02*
X160800000Y-124000001D01*
X165025000Y-126153626D02*
X165031832Y-126160458D01*
X165025000Y-122910000D02*
X165025000Y-125000004D01*
X165025000Y-125000000D02*
X165025000Y-126153626D01*
X161750000Y-111875001D02*
X161750000Y-113012501D01*
X153937500Y-115487500D02*
X152460000Y-115487500D01*
X154700000Y-103900000D02*
X154730000Y-103930000D01*
D58*
X160800000Y-121956295D02*
X160213705Y-121370000D01*
D56*
X157400000Y-124000002D02*
X158799996Y-124000002D01*
D58*
X160800000Y-123815000D02*
X160800000Y-121956295D01*
D56*
X153950000Y-115500000D02*
X153937500Y-115487500D01*
X164000001Y-111875001D02*
X164000000Y-113012500D01*
X154730001Y-103900000D02*
X154730001Y-105200000D01*
D58*
X160213705Y-121370000D02*
X159000001Y-121370000D01*
%TO.N,AIN0*%
X154700000Y-121870000D02*
X152460000Y-121870000D01*
X152460000Y-121870000D02*
X150500000Y-121870000D01*
%TO.N,/ESP32/XTAL_32K_P*%
X195521905Y-125321900D02*
X195821905Y-125321900D01*
X193750000Y-124709995D02*
X194910000Y-124709995D01*
X198950001Y-125321900D02*
X197000000Y-125321900D01*
X195671905Y-125321900D02*
X197100000Y-125321902D01*
X194910000Y-124709995D02*
X195521905Y-125321900D01*
%TO.N,/ESP32/~{CS}*%
X179000000Y-112499995D02*
X179000000Y-109099995D01*
X179000000Y-109099995D02*
X180005000Y-108094995D01*
X180005000Y-108094995D02*
X181412500Y-108094996D01*
X182400000Y-113799995D02*
X180300000Y-113799995D01*
X180300000Y-113799995D02*
X179000000Y-112499995D01*
X183095000Y-115839995D02*
X183095000Y-114494995D01*
X183095000Y-114494995D02*
X182400000Y-113799995D01*
%TO.N,/ESP32/DO_MISO*%
X182764999Y-109364995D02*
X181412499Y-109364995D01*
X184365000Y-110964996D02*
X182764999Y-109364995D01*
X184365000Y-115839996D02*
X184365000Y-110964996D01*
%TO.N,Net-(U6-~{WP}{slash}IO_{2})*%
X182600000Y-110634995D02*
X181447500Y-110634995D01*
X181447500Y-110599996D02*
X181412500Y-110634995D01*
%TO.N,/ESP32/DI_MOSI*%
X186905000Y-115839996D02*
X186905000Y-112644996D01*
X187645000Y-111904996D02*
X188587500Y-111904997D01*
X186905000Y-112644996D02*
X187645000Y-111904996D01*
%TO.N,/ESP32/CLK*%
X187615000Y-110634995D02*
X188587500Y-110634995D01*
X185635000Y-112614995D02*
X187615000Y-110634995D01*
X185634999Y-115839996D02*
X185635000Y-112614995D01*
%TO.N,Net-(U6-~{HOLD}{slash}~{RESET}{slash}IO_{3})*%
X188590000Y-109362496D02*
X188587500Y-109364995D01*
X190650000Y-109362496D02*
X188590000Y-109362496D01*
%TO.N,/FrontEnd ADC/SENSE_N*%
X150046271Y-110949995D02*
X151590573Y-112494297D01*
X147912499Y-111499995D02*
X149496271Y-111499995D01*
X151590573Y-112494297D02*
X152190000Y-112494297D01*
X149496271Y-111499995D02*
X150046271Y-110949995D01*
%TO.N,Net-(R34-Pad2)*%
X157500000Y-115200000D02*
X156900000Y-115800000D01*
X156000000Y-107544297D02*
X156000000Y-109300000D01*
X156900000Y-114050000D02*
X156900000Y-115487500D01*
X157500000Y-110800000D02*
X157500000Y-113450000D01*
X157500000Y-113450000D02*
X156900000Y-114050000D01*
X156000000Y-109300000D02*
X157500000Y-110800000D01*
%TO.N,Net-(U10-REF1)*%
X153460000Y-108860000D02*
X153500000Y-108900000D01*
X153460000Y-107544297D02*
X153460000Y-108900000D01*
%TO.N,/FrontEnd ADC/SENSE_P*%
X149496269Y-108499995D02*
X150046271Y-109049997D01*
X147912500Y-108499995D02*
X149496269Y-108499995D01*
X151551971Y-107544297D02*
X152190000Y-107544297D01*
X150046271Y-109049997D02*
X151551971Y-107544297D01*
%TO.N,AIN1*%
X154700000Y-123250000D02*
X154350000Y-123600000D01*
X154350000Y-123600000D02*
X152462500Y-123600000D01*
X154700000Y-122370000D02*
X154700000Y-123250000D01*
X152462500Y-123600000D02*
X152462500Y-125537500D01*
X152462500Y-125537500D02*
X152450000Y-125550000D01*
%TO.N,/ESP32/XTAL_32K_N*%
X198950001Y-122821903D02*
X197000000Y-122821903D01*
X194960001Y-123439995D02*
X193749999Y-123439996D01*
X195578093Y-122821903D02*
X197000000Y-122821903D01*
X195578093Y-122821903D02*
X194960001Y-123439995D01*
%TO.N,Net-(D14-K)*%
D56*
X152850000Y-132000000D02*
X152450005Y-132399995D01*
X154087500Y-132000000D02*
X152850000Y-132000000D01*
%TO.N,/FrontEnd ADC/SNT_N*%
D58*
X144166500Y-111499995D02*
X142600000Y-113066495D01*
D59*
X145400000Y-124599995D02*
X140180000Y-129819995D01*
X142600000Y-113066495D02*
X142600000Y-114800000D01*
D58*
X146087499Y-111499995D02*
X144166500Y-111499995D01*
D59*
X140180000Y-129819995D02*
X140180000Y-132399997D01*
X145400000Y-117600000D02*
X145400000Y-124599995D01*
X142600000Y-114800000D02*
X145400000Y-117600000D01*
%TO.N,LOAD_P*%
X129900000Y-129739995D02*
X132560000Y-132399995D01*
X136470000Y-119549996D02*
X129900000Y-126119996D01*
X129900000Y-126119996D02*
X129900000Y-129739995D01*
%TO.N,/ESP32/EN*%
D58*
X202900000Y-109999995D02*
X201500000Y-109999996D01*
X193750000Y-131059995D02*
X192505074Y-131059995D01*
X192505074Y-131059995D02*
X192495074Y-131069995D01*
%TO.N,Net-(J1-CC1)*%
X195000000Y-95099996D02*
X195000000Y-96049995D01*
X192049999Y-94599996D02*
X194500001Y-94599996D01*
X191250000Y-91849995D02*
X191249999Y-93799995D01*
X191249999Y-93799995D02*
X192049999Y-94599996D01*
X194500001Y-94599996D02*
X195000000Y-95099996D01*
%TO.N,Net-(D3-A)*%
X203612499Y-98449995D02*
X205762500Y-98449995D01*
%TO.N,Net-(U11B--)*%
X150635000Y-123800000D02*
X150635000Y-125200000D01*
X150700000Y-123865000D02*
X150635000Y-123800000D01*
%TO.N,Net-(D2-K)*%
X180093140Y-86474996D02*
X177746734Y-86474995D01*
%TO.N,+5V*%
D56*
X192400000Y-93199996D02*
X192900000Y-93699996D01*
D57*
X187250000Y-96099995D02*
X188137500Y-96987495D01*
D56*
X192400000Y-91849997D02*
X192400000Y-93199996D01*
X180100000Y-90453234D02*
X180100000Y-88356856D01*
X187600000Y-91849995D02*
X187600000Y-93199996D01*
X180095545Y-92497300D02*
X180095545Y-90457689D01*
X182414759Y-92497300D02*
X180095545Y-92497300D01*
X186800000Y-93999996D02*
X185400000Y-93999996D01*
X197100001Y-92399995D02*
X197100000Y-88349995D01*
X192900000Y-93699996D02*
X195800000Y-93699996D01*
X187600000Y-93199996D02*
X186800000Y-93999996D01*
X183897304Y-92497300D02*
X182414759Y-92497300D01*
X185400000Y-93999996D02*
X183897304Y-92497300D01*
D57*
X189687500Y-96987496D02*
X190000000Y-97299996D01*
D56*
X195800000Y-93699996D02*
X197100001Y-92399995D01*
X197100001Y-92399995D02*
X199100000Y-92399995D01*
D57*
X188137500Y-96987495D02*
X189687500Y-96987496D01*
X190000000Y-97299996D02*
X190000000Y-98099995D01*
%TO.N,/FrontEnd ADC/AIN2*%
D58*
X157570000Y-122370000D02*
X156900000Y-121700000D01*
X159000000Y-122370000D02*
X157570000Y-122370000D01*
X156900000Y-121700000D02*
X156900000Y-117312500D01*
X156900000Y-117312500D02*
X158600000Y-117312500D01*
%TO.N,Net-(D5-K)*%
X201945050Y-127700000D02*
X204735000Y-124910050D01*
X200812500Y-127700000D02*
X201945050Y-127700000D01*
X204735000Y-124910050D02*
X204735000Y-122079999D01*
%TO.N,PSU_P*%
D59*
X136470000Y-100499995D02*
X137999995Y-100499995D01*
D58*
X146087500Y-108499995D02*
X144166500Y-108499995D01*
X142600000Y-106629995D02*
X142600000Y-106933495D01*
X144166500Y-108499995D02*
X142600000Y-106933495D01*
D59*
X137999995Y-100499995D02*
X142600000Y-105100000D01*
X142600000Y-105100000D02*
X142600000Y-106629995D01*
%TO.N,/ESP32/ST_USB*%
D58*
X200350000Y-116699995D02*
X194880000Y-122169995D01*
X194880000Y-122169995D02*
X193750000Y-122169996D01*
X202174999Y-98449995D02*
X201300000Y-98449995D01*
X200350000Y-99399995D02*
X200350000Y-116699995D01*
X201300000Y-98449995D02*
X200350000Y-99399995D01*
%TO.N,/ESP32/TRG1*%
X186349999Y-130199995D02*
X186759999Y-129789995D01*
X186759999Y-129789995D02*
X192500000Y-129789995D01*
X193749999Y-129789995D02*
X192500000Y-129789995D01*
X192510000Y-129789995D02*
X192500000Y-129799995D01*
%TO.N,/ESP32/TRG2*%
X193750000Y-128519995D02*
X196280005Y-128519995D01*
X184449999Y-130199995D02*
X186129999Y-128519995D01*
X186129999Y-128519995D02*
X192499999Y-128519996D01*
X196280005Y-128519995D02*
X197100000Y-127700000D01*
X197100000Y-127700000D02*
X198987500Y-127700000D01*
X193750000Y-128519996D02*
X192499999Y-128519996D01*
%TO.N,/ESP32/ST_WLAN*%
X202175000Y-96249996D02*
X201250000Y-96249995D01*
X199500000Y-116249996D02*
X194850000Y-120899996D01*
X199500000Y-97999996D02*
X199500000Y-116249996D01*
X194850000Y-120899996D02*
X193750000Y-120899995D01*
X201250000Y-96249995D02*
X199500000Y-97999996D01*
%TO.N,DG-*%
D60*
X190950000Y-99093747D02*
X190949999Y-98099995D01*
X192900611Y-104600608D02*
X190214999Y-101914995D01*
X193817575Y-105517572D02*
X193601071Y-105301067D01*
X195904056Y-117799996D02*
X197415000Y-116289051D01*
X197415000Y-109114996D02*
X193817575Y-105517572D01*
X194875001Y-118219995D02*
X195295001Y-117799996D01*
X197415000Y-116289051D02*
X197415000Y-109114996D01*
X193750000Y-118219995D02*
X194875001Y-118219995D01*
X190214999Y-101914995D02*
X190215000Y-99828747D01*
X195295001Y-117799996D02*
X195904056Y-117799996D01*
X190215000Y-99828747D02*
X190950000Y-99093747D01*
X193601071Y-105301067D02*
X192900611Y-104600608D01*
%TO.N,DG+*%
X194875001Y-116949995D02*
X195295001Y-117369996D01*
X189785000Y-102093108D02*
X189785000Y-99828747D01*
X192516208Y-104824316D02*
X192165596Y-104473704D01*
X196985000Y-109293107D02*
X192516208Y-104824316D01*
X192165596Y-104473704D02*
X189785000Y-102093108D01*
X196985000Y-116110940D02*
X196985000Y-109293107D01*
X195295001Y-117369996D02*
X195725944Y-117369996D01*
X193749999Y-116949996D02*
X194875001Y-116949995D01*
X195725944Y-117369996D02*
X196985000Y-116110940D01*
X189785000Y-99828747D02*
X189050000Y-99093747D01*
X189050000Y-99093747D02*
X189050000Y-98099996D01*
%TO.N,/ESP32/IO0*%
D58*
X202899999Y-104999996D02*
X201500000Y-104999996D01*
X175110001Y-117089996D02*
X175100000Y-117099995D01*
X176250000Y-117089996D02*
X175110001Y-117089996D01*
%TO.N,R_CTR*%
X176250000Y-122169995D02*
X177500000Y-122169995D01*
%TO.N,/ESP32/RX*%
X177464372Y-128519996D02*
X177466721Y-128522345D01*
X176250000Y-128519995D02*
X177464372Y-128519996D01*
%TO.N,/ESP32/TX*%
X176250000Y-129789995D02*
X177490000Y-129789995D01*
%TO.N,Net-(D1-K)*%
X197100000Y-86474996D02*
X199500000Y-86474995D01*
%TO.N,Net-(D14-A)*%
D56*
X155962500Y-129772893D02*
X155962500Y-132000000D01*
%TO.N,/USB/D+*%
D60*
X189050000Y-95824996D02*
X189050000Y-94831245D01*
X190250000Y-92649996D02*
X190250000Y-91849995D01*
X189050000Y-94831245D02*
X189785000Y-94096245D01*
X189785000Y-94096245D02*
X189785000Y-93114996D01*
X189250000Y-92579996D02*
X189785000Y-93114996D01*
X189785000Y-93114996D02*
X190250000Y-92649996D01*
X189250000Y-91849996D02*
X189250000Y-92579996D01*
%TO.N,/USB/D-*%
X190499999Y-90699996D02*
X190000000Y-90699996D01*
X190215000Y-94096245D02*
X190215000Y-93399995D01*
X190950000Y-95824996D02*
X190949999Y-94831244D01*
X190949999Y-94831244D02*
X190215000Y-94096245D01*
X189750000Y-90949995D02*
X189750000Y-91849997D01*
X190215000Y-93399995D02*
X190750000Y-92864995D01*
X190750000Y-91849996D02*
X190750000Y-90949996D01*
X190750000Y-92864995D02*
X190750000Y-91849996D01*
X190000000Y-90699996D02*
X189750000Y-90949995D01*
X190750000Y-90949996D02*
X190499999Y-90699996D01*
%TO.N,Net-(U2-~{FLG})*%
D58*
X177746734Y-88299995D02*
X176717454Y-88299995D01*
X176717454Y-88299995D02*
X176714759Y-88297300D01*
X177820545Y-94397301D02*
X176714759Y-94397300D01*
%TO.N,Net-(U2-EN)*%
X180095545Y-94397301D02*
X181214760Y-94397301D01*
X181214760Y-94397301D02*
X181289760Y-94322301D01*
X181289760Y-94322301D02*
X182414759Y-94322301D01*
%TO.N,Net-(D4-A)*%
X203612500Y-96249996D02*
X205762500Y-96249995D01*
%TO.N,Net-(U11A--)*%
X152460000Y-119080000D02*
X152460000Y-120045000D01*
%TO.N,Net-(U8-ALERT{slash}RDY)*%
X154700000Y-120870000D02*
X153906295Y-120870000D01*
X153906295Y-120870000D02*
X153561256Y-120524961D01*
X154750000Y-120820000D02*
X154700000Y-120870000D01*
X152460000Y-118060000D02*
X152460000Y-117312500D01*
X153561256Y-119161256D02*
X152460000Y-118060000D01*
X153561256Y-120524961D02*
X153561256Y-119161256D01*
%TO.N,/ESP32/SDA1*%
X193750000Y-127249995D02*
X192499999Y-127249995D01*
X192550005Y-127249995D02*
X192500000Y-127300000D01*
%TO.N,/ESP32/SCL1*%
X193750000Y-125979995D02*
X192499999Y-125979995D01*
X192620005Y-125979995D02*
X192600000Y-126000000D01*
%TD*%
%TA.AperFunction,Conductor*%
%TO.N,GNDS*%
G36*
X159955067Y-104014804D02*
G01*
X159991064Y-104064279D01*
X159995930Y-104094492D01*
X160000000Y-105000000D01*
X159999999Y-105000000D01*
X165945274Y-107972637D01*
X165988866Y-108015572D01*
X166000000Y-108061185D01*
X166000000Y-119772039D01*
X165981093Y-119830230D01*
X165931593Y-119866194D01*
X165886733Y-119870006D01*
X165883260Y-119869500D01*
X164166740Y-119869500D01*
X164132673Y-119874463D01*
X164098604Y-119879427D01*
X163993518Y-119930801D01*
X163910801Y-120013518D01*
X163910577Y-120013978D01*
X163910180Y-120014387D01*
X163906035Y-120020194D01*
X163905164Y-120019572D01*
X163868035Y-120057953D01*
X163821635Y-120069500D01*
X163065479Y-120069500D01*
X163007288Y-120050593D01*
X162995475Y-120040504D01*
X162129496Y-119174525D01*
X162101719Y-119120008D01*
X162100500Y-119104521D01*
X162100500Y-117620943D01*
X162919499Y-117620943D01*
X162919499Y-117779057D01*
X162960422Y-117931784D01*
X163039479Y-118068716D01*
X163151283Y-118180520D01*
X163288215Y-118259577D01*
X163440942Y-118300500D01*
X163440944Y-118300500D01*
X163599054Y-118300500D01*
X163599056Y-118300500D01*
X163751783Y-118259577D01*
X163888715Y-118180520D01*
X164000519Y-118068716D01*
X164079576Y-117931784D01*
X164120499Y-117779057D01*
X164120499Y-117620943D01*
X164079576Y-117468216D01*
X164000519Y-117331284D01*
X163888715Y-117219480D01*
X163751783Y-117140423D01*
X163599056Y-117099500D01*
X163440942Y-117099500D01*
X163288215Y-117140423D01*
X163151283Y-117219480D01*
X163039479Y-117331284D01*
X162960422Y-117468216D01*
X162919499Y-117620943D01*
X162100500Y-117620943D01*
X162100500Y-115637000D01*
X162119407Y-115578809D01*
X162168907Y-115542845D01*
X162199500Y-115538000D01*
X162304273Y-115538000D01*
X162304273Y-115537999D01*
X162334699Y-115535146D01*
X162462882Y-115490293D01*
X162572150Y-115409650D01*
X162652793Y-115300382D01*
X162697646Y-115172199D01*
X162700499Y-115141773D01*
X162700500Y-115141773D01*
X162700500Y-114508227D01*
X162700499Y-114508225D01*
X163099500Y-114508225D01*
X163099500Y-115141774D01*
X163102353Y-115172194D01*
X163102355Y-115172203D01*
X163147207Y-115300383D01*
X163227845Y-115409644D01*
X163227847Y-115409646D01*
X163227850Y-115409650D01*
X163227853Y-115409652D01*
X163227855Y-115409654D01*
X163337116Y-115490292D01*
X163337117Y-115490292D01*
X163337118Y-115490293D01*
X163465301Y-115535146D01*
X163470459Y-115535629D01*
X163526630Y-115559886D01*
X163557816Y-115612527D01*
X163552105Y-115673445D01*
X163546954Y-115683695D01*
X163533610Y-115706808D01*
X163533609Y-115706808D01*
X163526917Y-115731784D01*
X163499500Y-115834108D01*
X163499500Y-115965892D01*
X163527973Y-116072154D01*
X163533609Y-116093190D01*
X163599496Y-116207309D01*
X163599498Y-116207311D01*
X163599500Y-116207314D01*
X163692686Y-116300500D01*
X163692688Y-116300501D01*
X163692690Y-116300503D01*
X163806810Y-116366390D01*
X163806808Y-116366390D01*
X163806812Y-116366391D01*
X163806814Y-116366392D01*
X163934108Y-116400500D01*
X163934110Y-116400500D01*
X164065890Y-116400500D01*
X164065892Y-116400500D01*
X164193186Y-116366392D01*
X164193188Y-116366390D01*
X164193190Y-116366390D01*
X164307309Y-116300503D01*
X164307309Y-116300502D01*
X164307314Y-116300500D01*
X164400500Y-116207314D01*
X164431978Y-116152793D01*
X164466390Y-116093190D01*
X164466390Y-116093188D01*
X164466392Y-116093186D01*
X164500500Y-115965892D01*
X164500500Y-115834108D01*
X164466392Y-115706814D01*
X164453046Y-115683698D01*
X164440324Y-115623849D01*
X164465210Y-115567954D01*
X164518198Y-115537361D01*
X164529531Y-115535630D01*
X164534699Y-115535146D01*
X164662882Y-115490293D01*
X164772150Y-115409650D01*
X164852793Y-115300382D01*
X164897646Y-115172199D01*
X164900499Y-115141773D01*
X164900500Y-115141773D01*
X164900500Y-114508227D01*
X164900499Y-114508225D01*
X164897646Y-114477805D01*
X164897646Y-114477801D01*
X164852793Y-114349618D01*
X164772150Y-114240350D01*
X164772146Y-114240347D01*
X164772144Y-114240345D01*
X164662883Y-114159707D01*
X164534703Y-114114855D01*
X164534694Y-114114853D01*
X164504274Y-114112000D01*
X164504266Y-114112000D01*
X163495734Y-114112000D01*
X163495725Y-114112000D01*
X163465305Y-114114853D01*
X163465296Y-114114855D01*
X163337116Y-114159707D01*
X163227855Y-114240345D01*
X163227845Y-114240355D01*
X163147207Y-114349616D01*
X163102355Y-114477796D01*
X163102353Y-114477805D01*
X163099500Y-114508225D01*
X162700499Y-114508225D01*
X162697646Y-114477805D01*
X162697646Y-114477801D01*
X162652793Y-114349618D01*
X162572150Y-114240350D01*
X162572146Y-114240347D01*
X162572144Y-114240345D01*
X162462883Y-114159707D01*
X162334703Y-114114855D01*
X162334694Y-114114853D01*
X162304274Y-114112000D01*
X162304266Y-114112000D01*
X161295734Y-114112000D01*
X161295725Y-114112000D01*
X161265305Y-114114853D01*
X161265296Y-114114855D01*
X161137116Y-114159707D01*
X161027855Y-114240345D01*
X161027845Y-114240355D01*
X160947207Y-114349616D01*
X160902355Y-114477796D01*
X160902353Y-114477805D01*
X160899500Y-114508225D01*
X160899500Y-115141774D01*
X160902353Y-115172194D01*
X160902355Y-115172203D01*
X160947207Y-115300383D01*
X161027845Y-115409644D01*
X161027847Y-115409646D01*
X161027850Y-115409650D01*
X161027853Y-115409652D01*
X161027855Y-115409654D01*
X161137116Y-115490292D01*
X161137117Y-115490292D01*
X161137118Y-115490293D01*
X161265301Y-115535146D01*
X161295725Y-115537999D01*
X161295727Y-115538000D01*
X161295734Y-115538000D01*
X161400500Y-115538000D01*
X161458691Y-115556907D01*
X161494655Y-115606407D01*
X161499500Y-115637000D01*
X161499500Y-119309564D01*
X161519978Y-119385988D01*
X161529058Y-119401714D01*
X161529058Y-119401715D01*
X161559540Y-119454511D01*
X162005525Y-119900497D01*
X162033302Y-119955013D01*
X162023731Y-120015445D01*
X161980466Y-120058710D01*
X161935521Y-120069500D01*
X159838433Y-120069500D01*
X159783431Y-120052815D01*
X159757497Y-120035486D01*
X159757496Y-120035485D01*
X159757495Y-120035485D01*
X159677133Y-120019500D01*
X159360507Y-120019500D01*
X159302316Y-120000593D01*
X159301622Y-120000000D01*
X159300000Y-120000000D01*
X157299500Y-120000000D01*
X157241309Y-119981093D01*
X157205345Y-119931593D01*
X157200500Y-119901000D01*
X157200500Y-118124500D01*
X157219407Y-118066309D01*
X157268907Y-118030345D01*
X157299500Y-118025500D01*
X157404273Y-118025500D01*
X157404273Y-118025499D01*
X157434699Y-118022646D01*
X157562882Y-117977793D01*
X157672150Y-117897150D01*
X157724469Y-117826258D01*
X157774235Y-117790667D01*
X157835419Y-117791124D01*
X157884649Y-117827456D01*
X157899300Y-117866701D01*
X157901069Y-117866315D01*
X157902355Y-117872203D01*
X157947207Y-118000383D01*
X158027845Y-118109644D01*
X158027847Y-118109646D01*
X158027850Y-118109650D01*
X158027853Y-118109652D01*
X158027855Y-118109654D01*
X158137116Y-118190292D01*
X158137117Y-118190292D01*
X158137118Y-118190293D01*
X158265301Y-118235146D01*
X158295725Y-118237999D01*
X158295727Y-118238000D01*
X158295734Y-118238000D01*
X158904273Y-118238000D01*
X158904273Y-118237999D01*
X158934699Y-118235146D01*
X159062882Y-118190293D01*
X159172150Y-118109650D01*
X159252793Y-118000382D01*
X159297646Y-117872199D01*
X159300499Y-117841773D01*
X159300500Y-117841773D01*
X159300500Y-116783227D01*
X159300499Y-116783225D01*
X159297646Y-116752801D01*
X159252793Y-116624618D01*
X159236362Y-116602355D01*
X159172154Y-116515355D01*
X159172152Y-116515353D01*
X159172150Y-116515350D01*
X159172146Y-116515347D01*
X159172144Y-116515345D01*
X159062883Y-116434707D01*
X158934703Y-116389855D01*
X158934694Y-116389853D01*
X158904274Y-116387000D01*
X158904266Y-116387000D01*
X158295734Y-116387000D01*
X158295725Y-116387000D01*
X158265305Y-116389853D01*
X158265296Y-116389855D01*
X158137116Y-116434707D01*
X158027855Y-116515345D01*
X158027845Y-116515355D01*
X157947207Y-116624616D01*
X157902355Y-116752796D01*
X157901069Y-116758685D01*
X157898812Y-116758192D01*
X157878415Y-116805388D01*
X157825765Y-116836558D01*
X157764848Y-116830828D01*
X157724469Y-116798740D01*
X157672153Y-116727854D01*
X157672152Y-116727853D01*
X157672150Y-116727850D01*
X157672146Y-116727847D01*
X157672144Y-116727845D01*
X157562883Y-116647207D01*
X157434703Y-116602355D01*
X157434694Y-116602353D01*
X157404274Y-116599500D01*
X157404266Y-116599500D01*
X156395734Y-116599500D01*
X156395725Y-116599500D01*
X156365305Y-116602353D01*
X156365296Y-116602355D01*
X156237116Y-116647207D01*
X156127855Y-116727845D01*
X156127845Y-116727855D01*
X156047207Y-116837116D01*
X156002355Y-116965296D01*
X156002353Y-116965305D01*
X155999500Y-116995725D01*
X155999500Y-117629274D01*
X156002353Y-117659694D01*
X156002355Y-117659703D01*
X156047207Y-117787883D01*
X156127845Y-117897144D01*
X156127847Y-117897146D01*
X156127850Y-117897150D01*
X156127853Y-117897152D01*
X156127855Y-117897154D01*
X156237116Y-117977792D01*
X156237117Y-117977792D01*
X156237118Y-117977793D01*
X156365301Y-118022646D01*
X156395725Y-118025499D01*
X156395727Y-118025500D01*
X156395734Y-118025500D01*
X156500500Y-118025500D01*
X156558691Y-118044407D01*
X156594655Y-118093907D01*
X156599500Y-118124500D01*
X156599500Y-121739564D01*
X156610367Y-121780118D01*
X156619979Y-121815989D01*
X156634019Y-121840307D01*
X156659540Y-121884511D01*
X157071005Y-122295976D01*
X157098781Y-122350491D01*
X157100000Y-122365978D01*
X157100000Y-122700000D01*
X158211913Y-122700000D01*
X158232641Y-122704123D01*
X158232942Y-122702612D01*
X158242503Y-122704513D01*
X158242505Y-122704515D01*
X158322867Y-122720500D01*
X159677132Y-122720499D01*
X159757495Y-122704515D01*
X159848624Y-122643624D01*
X159909515Y-122552495D01*
X159925500Y-122472133D01*
X159925499Y-122267868D01*
X159909515Y-122187505D01*
X159901159Y-122175000D01*
X159884551Y-122116114D01*
X159901159Y-122064999D01*
X159909515Y-122052495D01*
X159925500Y-121972133D01*
X159925499Y-121769499D01*
X159944406Y-121711310D01*
X159993906Y-121675346D01*
X160024499Y-121670500D01*
X160048226Y-121670500D01*
X160106417Y-121689407D01*
X160118230Y-121699496D01*
X160470504Y-122051770D01*
X160498281Y-122106287D01*
X160499500Y-122121774D01*
X160499500Y-123200501D01*
X160480593Y-123258692D01*
X160431093Y-123294656D01*
X160400500Y-123299501D01*
X160270725Y-123299501D01*
X160240305Y-123302354D01*
X160240296Y-123302356D01*
X160112116Y-123347208D01*
X160002855Y-123427846D01*
X160002845Y-123427856D01*
X159922208Y-123537115D01*
X159918741Y-123543677D01*
X159916499Y-123542492D01*
X159886524Y-123581871D01*
X159830135Y-123599500D01*
X159769865Y-123599500D01*
X159711674Y-123580593D01*
X159683379Y-123542554D01*
X159681258Y-123543676D01*
X159677790Y-123537114D01*
X159597152Y-123427853D01*
X159597150Y-123427851D01*
X159597149Y-123427849D01*
X159597145Y-123427846D01*
X159597143Y-123427844D01*
X159487882Y-123347206D01*
X159359702Y-123302354D01*
X159359693Y-123302352D01*
X159329273Y-123299499D01*
X159329265Y-123299499D01*
X158270733Y-123299499D01*
X158270724Y-123299499D01*
X158240304Y-123302352D01*
X158240295Y-123302354D01*
X158112115Y-123347206D01*
X158002854Y-123427844D01*
X158002847Y-123427851D01*
X157932829Y-123522722D01*
X157883061Y-123558314D01*
X157821877Y-123557856D01*
X157783172Y-123533938D01*
X157768716Y-123519482D01*
X157631784Y-123440425D01*
X157479057Y-123399502D01*
X157320943Y-123399502D01*
X157168216Y-123440425D01*
X157031284Y-123519482D01*
X156919480Y-123631286D01*
X156840423Y-123768218D01*
X156799500Y-123920945D01*
X156799500Y-124079059D01*
X156840423Y-124231786D01*
X156919480Y-124368718D01*
X157031284Y-124480522D01*
X157168216Y-124559579D01*
X157320943Y-124600502D01*
X157320945Y-124600502D01*
X157479055Y-124600502D01*
X157479057Y-124600502D01*
X157631784Y-124559579D01*
X157768716Y-124480522D01*
X157783174Y-124466063D01*
X157837687Y-124438286D01*
X157898120Y-124447856D01*
X157932832Y-124477279D01*
X157997367Y-124564722D01*
X158002849Y-124572149D01*
X158002852Y-124572151D01*
X158002854Y-124572153D01*
X158112115Y-124652791D01*
X158112116Y-124652791D01*
X158112117Y-124652792D01*
X158240300Y-124697645D01*
X158270724Y-124700498D01*
X158270726Y-124700499D01*
X158270733Y-124700499D01*
X159329272Y-124700499D01*
X159329272Y-124700498D01*
X159359698Y-124697645D01*
X159487881Y-124652792D01*
X159597149Y-124572149D01*
X159677792Y-124462881D01*
X159677793Y-124462878D01*
X159681261Y-124456318D01*
X159683500Y-124457501D01*
X159713492Y-124418118D01*
X159769865Y-124400500D01*
X159830134Y-124400500D01*
X159888325Y-124419407D01*
X159916621Y-124457447D01*
X159918742Y-124456327D01*
X159922207Y-124462884D01*
X160002845Y-124572145D01*
X160002847Y-124572147D01*
X160002850Y-124572151D01*
X160002853Y-124572153D01*
X160002855Y-124572155D01*
X160112116Y-124652793D01*
X160112117Y-124652793D01*
X160112118Y-124652794D01*
X160240301Y-124697647D01*
X160270725Y-124700500D01*
X160270727Y-124700501D01*
X160270734Y-124700501D01*
X161329273Y-124700501D01*
X161329273Y-124700500D01*
X161359699Y-124697647D01*
X161487882Y-124652794D01*
X161597150Y-124572151D01*
X161677793Y-124462883D01*
X161722646Y-124334700D01*
X161725499Y-124304274D01*
X161725500Y-124304274D01*
X161725500Y-123695728D01*
X161725499Y-123695726D01*
X161722646Y-123665306D01*
X161722646Y-123665302D01*
X161677793Y-123537119D01*
X161677790Y-123537115D01*
X161597154Y-123427856D01*
X161597151Y-123427853D01*
X161597150Y-123427851D01*
X161597146Y-123427848D01*
X161597144Y-123427846D01*
X161487883Y-123347208D01*
X161359703Y-123302356D01*
X161359694Y-123302354D01*
X161329274Y-123299501D01*
X161329266Y-123299501D01*
X161199500Y-123299501D01*
X161141309Y-123280594D01*
X161105345Y-123231094D01*
X161100500Y-123200501D01*
X161100500Y-121916732D01*
X161090780Y-121880460D01*
X161089517Y-121875745D01*
X161092718Y-121814646D01*
X161131222Y-121767095D01*
X161190322Y-121751258D01*
X161247444Y-121773183D01*
X161255147Y-121780118D01*
X161299540Y-121824511D01*
X161299539Y-121824511D01*
X161355489Y-121880460D01*
X161424007Y-121920019D01*
X161424011Y-121920021D01*
X161500435Y-121940499D01*
X161500437Y-121940500D01*
X161500438Y-121940500D01*
X163821635Y-121940500D01*
X163879826Y-121959407D01*
X163905610Y-121990108D01*
X163906035Y-121989806D01*
X163909884Y-121995197D01*
X163910576Y-121996020D01*
X163910802Y-121996483D01*
X163993517Y-122079198D01*
X164047285Y-122105483D01*
X164098604Y-122130572D01*
X164098605Y-122130572D01*
X164098607Y-122130573D01*
X164166740Y-122140500D01*
X164166743Y-122140500D01*
X165883256Y-122140500D01*
X165883260Y-122140500D01*
X165886722Y-122139995D01*
X165947029Y-122150311D01*
X165989757Y-122194106D01*
X166000000Y-122237960D01*
X166000000Y-122312039D01*
X165981093Y-122370230D01*
X165931593Y-122406194D01*
X165886733Y-122410006D01*
X165883260Y-122409500D01*
X164166740Y-122409500D01*
X164132673Y-122414463D01*
X164098604Y-122419427D01*
X163993518Y-122470801D01*
X163910801Y-122553518D01*
X163859427Y-122658604D01*
X163859427Y-122658607D01*
X163849500Y-122726740D01*
X163849500Y-123093260D01*
X163854202Y-123125529D01*
X163859427Y-123161395D01*
X163883403Y-123210438D01*
X163910802Y-123266483D01*
X163993517Y-123349198D01*
X164027862Y-123365988D01*
X164098604Y-123400572D01*
X164098605Y-123400572D01*
X164098607Y-123400573D01*
X164166740Y-123410500D01*
X164525500Y-123410500D01*
X164583691Y-123429407D01*
X164619655Y-123478907D01*
X164624500Y-123509500D01*
X164624500Y-124030134D01*
X164605593Y-124088325D01*
X164567556Y-124116625D01*
X164568675Y-124118742D01*
X164562117Y-124122207D01*
X164452856Y-124202845D01*
X164452846Y-124202855D01*
X164372208Y-124312116D01*
X164327356Y-124440296D01*
X164327354Y-124440305D01*
X164324501Y-124470725D01*
X164324501Y-125529274D01*
X164327354Y-125559694D01*
X164327356Y-125559703D01*
X164372208Y-125687883D01*
X164452848Y-125797148D01*
X164452851Y-125797151D01*
X164464528Y-125805769D01*
X164500120Y-125855537D01*
X164499662Y-125916720D01*
X164491477Y-125934921D01*
X164472255Y-125968215D01*
X164472255Y-125968216D01*
X164431332Y-126120943D01*
X164431332Y-126279057D01*
X164455809Y-126370407D01*
X164457141Y-126375377D01*
X164453938Y-126436479D01*
X164415433Y-126484029D01*
X164361514Y-126500000D01*
X153105450Y-126500000D01*
X153047259Y-126481093D01*
X153011295Y-126431593D01*
X153011295Y-126370407D01*
X153025795Y-126342212D01*
X153102792Y-126237883D01*
X153102791Y-126237883D01*
X153102793Y-126237882D01*
X153147646Y-126109699D01*
X153150499Y-126079273D01*
X153150500Y-126079273D01*
X153150500Y-125020727D01*
X153150499Y-125020725D01*
X153147646Y-124990301D01*
X153102793Y-124862118D01*
X153064232Y-124809870D01*
X153022154Y-124752855D01*
X153022152Y-124752853D01*
X153022150Y-124752850D01*
X153022146Y-124752847D01*
X153022144Y-124752845D01*
X152912883Y-124672207D01*
X152912884Y-124672207D01*
X152878904Y-124660317D01*
X152830224Y-124623251D01*
X152812628Y-124564650D01*
X152832837Y-124506898D01*
X152878903Y-124473430D01*
X152937882Y-124452793D01*
X153047150Y-124372150D01*
X153127793Y-124262882D01*
X153172646Y-124134699D01*
X153175499Y-124104273D01*
X153175500Y-124104273D01*
X153175500Y-123999500D01*
X153194407Y-123941309D01*
X153243907Y-123905345D01*
X153274500Y-123900500D01*
X154389563Y-123900500D01*
X154389563Y-123900499D01*
X154465989Y-123880021D01*
X154534511Y-123840460D01*
X154562485Y-123812485D01*
X154590461Y-123784511D01*
X154852249Y-123522722D01*
X154940460Y-123434511D01*
X154944309Y-123427844D01*
X154980020Y-123365992D01*
X154980020Y-123365990D01*
X154980022Y-123365988D01*
X155000500Y-123289562D01*
X155000500Y-123210438D01*
X155000500Y-122819499D01*
X155019407Y-122761308D01*
X155068907Y-122725344D01*
X155099500Y-122720499D01*
X155377130Y-122720499D01*
X155377132Y-122720499D01*
X155457495Y-122704515D01*
X155548624Y-122643624D01*
X155609515Y-122552495D01*
X155625500Y-122472133D01*
X155625499Y-122267868D01*
X155609515Y-122187505D01*
X155601159Y-122175000D01*
X155584551Y-122116114D01*
X155601159Y-122064999D01*
X155609515Y-122052495D01*
X155625500Y-121972133D01*
X155625499Y-121767868D01*
X155619869Y-121739564D01*
X155609515Y-121687505D01*
X155609514Y-121687503D01*
X155548626Y-121596379D01*
X155548624Y-121596376D01*
X155548620Y-121596373D01*
X155457497Y-121535486D01*
X155457496Y-121535485D01*
X155457495Y-121535485D01*
X155377133Y-121519500D01*
X155377132Y-121519500D01*
X154022870Y-121519500D01*
X154022863Y-121519501D01*
X153942505Y-121535484D01*
X153942503Y-121535485D01*
X153916569Y-121552815D01*
X153861567Y-121569500D01*
X153444231Y-121569500D01*
X153386040Y-121550593D01*
X153350787Y-121503198D01*
X153317167Y-121407119D01*
X153312793Y-121394618D01*
X153272114Y-121339500D01*
X153232154Y-121285355D01*
X153232152Y-121285353D01*
X153232150Y-121285350D01*
X153232146Y-121285347D01*
X153232144Y-121285345D01*
X153122883Y-121204707D01*
X152994703Y-121159855D01*
X152994694Y-121159853D01*
X152964274Y-121157000D01*
X152964266Y-121157000D01*
X151955734Y-121157000D01*
X151955725Y-121157000D01*
X151925305Y-121159853D01*
X151925296Y-121159855D01*
X151797116Y-121204707D01*
X151687855Y-121285345D01*
X151687845Y-121285355D01*
X151607207Y-121394615D01*
X151583756Y-121461635D01*
X151546690Y-121510315D01*
X151488089Y-121527911D01*
X151430338Y-121507702D01*
X151396869Y-121461636D01*
X151377793Y-121407119D01*
X151377791Y-121407117D01*
X151377791Y-121407115D01*
X151297154Y-121297856D01*
X151297152Y-121297854D01*
X151297150Y-121297851D01*
X151297146Y-121297848D01*
X151297144Y-121297846D01*
X151187883Y-121217208D01*
X151059703Y-121172356D01*
X151059694Y-121172354D01*
X151029274Y-121169501D01*
X151029266Y-121169501D01*
X149970734Y-121169501D01*
X149970725Y-121169501D01*
X149940305Y-121172354D01*
X149940296Y-121172356D01*
X149812116Y-121217208D01*
X149702855Y-121297846D01*
X149702845Y-121297856D01*
X149622207Y-121407117D01*
X149577355Y-121535297D01*
X149577353Y-121535306D01*
X149574500Y-121565726D01*
X149574500Y-122174275D01*
X149577353Y-122204695D01*
X149577355Y-122204704D01*
X149622207Y-122332884D01*
X149702845Y-122442145D01*
X149702847Y-122442147D01*
X149702850Y-122442151D01*
X149702853Y-122442153D01*
X149702855Y-122442155D01*
X149812116Y-122522793D01*
X149812117Y-122522793D01*
X149812118Y-122522794D01*
X149940301Y-122567647D01*
X149970725Y-122570500D01*
X149970727Y-122570501D01*
X150100688Y-122570501D01*
X150158879Y-122589408D01*
X150194843Y-122638908D01*
X150194843Y-122700094D01*
X150159476Y-122749156D01*
X150052855Y-122827845D01*
X150052845Y-122827855D01*
X149972207Y-122937116D01*
X149927355Y-123065296D01*
X149927353Y-123065305D01*
X149924500Y-123095725D01*
X149924500Y-124104274D01*
X149927353Y-124134694D01*
X149927355Y-124134703D01*
X149972207Y-124262883D01*
X150052845Y-124372144D01*
X150052847Y-124372146D01*
X150052850Y-124372150D01*
X150052853Y-124372152D01*
X150052855Y-124372154D01*
X150162116Y-124452792D01*
X150162117Y-124452792D01*
X150162118Y-124452793D01*
X150208595Y-124469056D01*
X150268198Y-124489912D01*
X150316878Y-124526977D01*
X150334500Y-124583356D01*
X150334500Y-124751679D01*
X150315593Y-124809870D01*
X150305509Y-124821676D01*
X150265070Y-124862116D01*
X150234497Y-124892689D01*
X150234496Y-124892690D01*
X150168609Y-125006809D01*
X150164880Y-125020727D01*
X150134500Y-125134108D01*
X150134500Y-125265892D01*
X150144785Y-125304276D01*
X150168609Y-125393190D01*
X150234496Y-125507309D01*
X150234498Y-125507311D01*
X150234500Y-125507314D01*
X150327686Y-125600500D01*
X150327688Y-125600501D01*
X150327690Y-125600503D01*
X150441810Y-125666390D01*
X150441808Y-125666390D01*
X150441812Y-125666391D01*
X150441814Y-125666392D01*
X150569108Y-125700500D01*
X150569110Y-125700500D01*
X150700890Y-125700500D01*
X150700892Y-125700500D01*
X150828186Y-125666392D01*
X150828188Y-125666390D01*
X150828190Y-125666390D01*
X150942309Y-125600503D01*
X150942309Y-125600502D01*
X150942314Y-125600500D01*
X151035500Y-125507314D01*
X151035503Y-125507309D01*
X151101390Y-125393190D01*
X151101390Y-125393188D01*
X151101392Y-125393186D01*
X151135500Y-125265892D01*
X151135500Y-125134108D01*
X151101392Y-125006814D01*
X151101390Y-125006811D01*
X151101390Y-125006809D01*
X151035503Y-124892690D01*
X151035501Y-124892688D01*
X151035500Y-124892686D01*
X150964494Y-124821680D01*
X150936719Y-124767166D01*
X150935500Y-124751679D01*
X150935500Y-124585105D01*
X150954407Y-124526914D01*
X151001800Y-124491662D01*
X151112882Y-124452793D01*
X151119572Y-124447856D01*
X151183737Y-124400500D01*
X151222150Y-124372150D01*
X151302793Y-124262882D01*
X151347646Y-124134699D01*
X151350499Y-124104273D01*
X151350500Y-124104273D01*
X151350500Y-123095727D01*
X151350499Y-123095725D01*
X151350268Y-123093260D01*
X151347646Y-123065301D01*
X151302793Y-122937118D01*
X151222150Y-122827850D01*
X151222146Y-122827847D01*
X151222144Y-122827845D01*
X151112884Y-122747207D01*
X151096761Y-122741566D01*
X151048081Y-122704500D01*
X151030485Y-122645900D01*
X151050694Y-122588148D01*
X151096760Y-122554678D01*
X151187882Y-122522794D01*
X151297150Y-122442151D01*
X151368568Y-122345383D01*
X151377791Y-122332886D01*
X151377792Y-122332884D01*
X151377793Y-122332883D01*
X151396869Y-122278364D01*
X151433934Y-122229686D01*
X151492534Y-122212089D01*
X151550286Y-122232297D01*
X151583757Y-122278366D01*
X151607207Y-122345383D01*
X151687845Y-122454644D01*
X151687847Y-122454646D01*
X151687850Y-122454650D01*
X151687853Y-122454652D01*
X151687855Y-122454654D01*
X151797116Y-122535292D01*
X151797117Y-122535292D01*
X151797118Y-122535293D01*
X151925301Y-122580146D01*
X151925308Y-122580146D01*
X151931185Y-122581431D01*
X151930763Y-122583361D01*
X151978939Y-122604164D01*
X152010126Y-122656804D01*
X152004415Y-122717723D01*
X151972315Y-122758131D01*
X151877855Y-122827845D01*
X151877845Y-122827855D01*
X151797207Y-122937116D01*
X151752355Y-123065296D01*
X151752353Y-123065305D01*
X151749500Y-123095725D01*
X151749500Y-124104274D01*
X151752353Y-124134694D01*
X151752355Y-124134703D01*
X151797207Y-124262883D01*
X151877845Y-124372144D01*
X151877847Y-124372146D01*
X151877850Y-124372150D01*
X151877853Y-124372152D01*
X151877855Y-124372154D01*
X151987116Y-124452792D01*
X151987117Y-124452792D01*
X151987118Y-124452793D01*
X152000573Y-124457501D01*
X152033594Y-124469056D01*
X152082274Y-124506121D01*
X152099871Y-124564722D01*
X152079663Y-124622474D01*
X152033594Y-124655944D01*
X151987116Y-124672207D01*
X151877855Y-124752845D01*
X151877845Y-124752855D01*
X151797207Y-124862116D01*
X151752355Y-124990296D01*
X151752353Y-124990305D01*
X151749500Y-125020725D01*
X151749500Y-126079274D01*
X151752353Y-126109694D01*
X151752355Y-126109703D01*
X151797207Y-126237883D01*
X151874205Y-126342212D01*
X151893547Y-126400260D01*
X151875076Y-126458590D01*
X151825846Y-126494923D01*
X151794550Y-126500000D01*
X148098932Y-126500000D01*
X148040741Y-126481093D01*
X148004777Y-126431593D01*
X147999932Y-126401068D01*
X147999710Y-126079273D01*
X147999027Y-125088266D01*
X148013854Y-125036087D01*
X148023360Y-125020734D01*
X148099440Y-124897859D01*
X148166421Y-124724960D01*
X148200491Y-124542697D01*
X148200491Y-124522623D01*
X148200499Y-124522504D01*
X148200499Y-123720943D01*
X148499500Y-123720943D01*
X148499500Y-123879057D01*
X148540423Y-124031784D01*
X148619480Y-124168716D01*
X148731284Y-124280520D01*
X148868216Y-124359577D01*
X149020943Y-124400500D01*
X149020945Y-124400500D01*
X149179055Y-124400500D01*
X149179057Y-124400500D01*
X149331784Y-124359577D01*
X149468716Y-124280520D01*
X149580520Y-124168716D01*
X149659577Y-124031784D01*
X149700500Y-123879057D01*
X149700500Y-123720943D01*
X149659577Y-123568216D01*
X149580520Y-123431284D01*
X149468716Y-123319480D01*
X149331784Y-123240423D01*
X149179057Y-123199500D01*
X149020943Y-123199500D01*
X148868216Y-123240423D01*
X148731284Y-123319480D01*
X148619480Y-123431284D01*
X148540423Y-123568216D01*
X148499500Y-123720943D01*
X148200499Y-123720943D01*
X148200499Y-123714454D01*
X148200498Y-117084108D01*
X148200498Y-117057291D01*
X148200497Y-117057290D01*
X148188989Y-116995725D01*
X151559500Y-116995725D01*
X151559500Y-117629274D01*
X151562353Y-117659694D01*
X151562355Y-117659703D01*
X151607207Y-117787883D01*
X151687845Y-117897144D01*
X151687847Y-117897146D01*
X151687850Y-117897150D01*
X151687853Y-117897152D01*
X151687855Y-117897154D01*
X151797116Y-117977792D01*
X151797117Y-117977792D01*
X151797118Y-117977793D01*
X151925301Y-118022646D01*
X151955725Y-118025499D01*
X151955727Y-118025500D01*
X151955734Y-118025500D01*
X152063690Y-118025500D01*
X152121881Y-118044407D01*
X152157845Y-118093907D01*
X152159317Y-118098876D01*
X152159500Y-118099558D01*
X152159500Y-118099562D01*
X152179979Y-118175989D01*
X152214133Y-118235146D01*
X152214135Y-118235149D01*
X152219538Y-118244509D01*
X152219540Y-118244511D01*
X152399378Y-118424350D01*
X152427155Y-118478866D01*
X152417584Y-118539298D01*
X152374319Y-118582563D01*
X152354999Y-118589978D01*
X152310961Y-118601778D01*
X152266809Y-118613609D01*
X152152690Y-118679496D01*
X152059496Y-118772690D01*
X151993609Y-118886809D01*
X151959500Y-119014109D01*
X151959500Y-119145891D01*
X151979085Y-119218987D01*
X151975882Y-119280088D01*
X151937376Y-119327638D01*
X151916156Y-119338053D01*
X151797116Y-119379707D01*
X151687855Y-119460345D01*
X151687845Y-119460355D01*
X151607207Y-119569616D01*
X151562355Y-119697796D01*
X151562353Y-119697805D01*
X151559500Y-119728225D01*
X151559500Y-120361774D01*
X151562353Y-120392194D01*
X151562355Y-120392203D01*
X151607207Y-120520383D01*
X151687845Y-120629644D01*
X151687847Y-120629646D01*
X151687850Y-120629650D01*
X151687853Y-120629652D01*
X151687855Y-120629654D01*
X151797116Y-120710292D01*
X151797117Y-120710292D01*
X151797118Y-120710293D01*
X151925301Y-120755146D01*
X151955725Y-120757999D01*
X151955727Y-120758000D01*
X151955734Y-120758000D01*
X152964273Y-120758000D01*
X152964273Y-120757999D01*
X152994699Y-120755146D01*
X153122882Y-120710293D01*
X153172860Y-120673408D01*
X153230907Y-120654066D01*
X153289238Y-120672537D01*
X153317329Y-120703467D01*
X153317587Y-120703914D01*
X153317617Y-120704027D01*
X153317644Y-120704012D01*
X153320796Y-120709472D01*
X153320798Y-120709474D01*
X153665834Y-121054511D01*
X153721784Y-121110460D01*
X153790302Y-121150019D01*
X153790306Y-121150021D01*
X153866733Y-121170500D01*
X153866738Y-121170500D01*
X153873166Y-121171347D01*
X153872827Y-121173915D01*
X153916568Y-121187184D01*
X153942505Y-121204515D01*
X154022867Y-121220500D01*
X155377132Y-121220499D01*
X155457495Y-121204515D01*
X155548624Y-121143624D01*
X155609515Y-121052495D01*
X155625500Y-120972133D01*
X155625499Y-120767868D01*
X155614047Y-120710293D01*
X155609515Y-120687505D01*
X155609514Y-120687503D01*
X155548626Y-120596379D01*
X155548624Y-120596376D01*
X155484097Y-120553260D01*
X155457497Y-120535486D01*
X155457496Y-120535485D01*
X155457495Y-120535485D01*
X155377133Y-120519500D01*
X154789563Y-120519500D01*
X154789562Y-120519500D01*
X154710438Y-120519500D01*
X154710436Y-120519500D01*
X154021774Y-120519500D01*
X153963583Y-120500593D01*
X153951770Y-120490504D01*
X153890752Y-120429486D01*
X153862975Y-120374969D01*
X153861756Y-120359482D01*
X153861756Y-119121693D01*
X153861755Y-119121691D01*
X153841277Y-119045267D01*
X153841275Y-119045263D01*
X153801716Y-118976745D01*
X153745767Y-118920795D01*
X153745767Y-118920796D01*
X152997152Y-118172181D01*
X152969375Y-118117664D01*
X152978946Y-118057232D01*
X153022211Y-118013967D01*
X153034440Y-118008739D01*
X153122882Y-117977793D01*
X153232150Y-117897150D01*
X153312793Y-117787882D01*
X153357646Y-117659699D01*
X153360499Y-117629273D01*
X153360500Y-117629273D01*
X153360500Y-116995727D01*
X153360499Y-116995725D01*
X153357646Y-116965305D01*
X153357646Y-116965301D01*
X153312793Y-116837118D01*
X153289375Y-116805388D01*
X153232154Y-116727855D01*
X153232152Y-116727853D01*
X153232150Y-116727850D01*
X153232146Y-116727847D01*
X153232144Y-116727845D01*
X153122883Y-116647207D01*
X152994703Y-116602355D01*
X152994694Y-116602353D01*
X152964274Y-116599500D01*
X152964266Y-116599500D01*
X151955734Y-116599500D01*
X151955725Y-116599500D01*
X151925305Y-116602353D01*
X151925296Y-116602355D01*
X151797116Y-116647207D01*
X151687855Y-116727845D01*
X151687845Y-116727855D01*
X151607207Y-116837116D01*
X151562355Y-116965296D01*
X151562353Y-116965305D01*
X151559500Y-116995725D01*
X148188989Y-116995725D01*
X148166428Y-116875031D01*
X148166428Y-116875029D01*
X148099447Y-116702129D01*
X148007938Y-116554338D01*
X147993112Y-116502294D01*
X147992195Y-115170725D01*
X151559500Y-115170725D01*
X151559500Y-115804274D01*
X151562353Y-115834694D01*
X151562355Y-115834703D01*
X151607207Y-115962883D01*
X151687845Y-116072144D01*
X151687847Y-116072146D01*
X151687850Y-116072150D01*
X151687853Y-116072152D01*
X151687855Y-116072154D01*
X151797116Y-116152792D01*
X151797117Y-116152792D01*
X151797118Y-116152793D01*
X151925301Y-116197646D01*
X151955725Y-116200499D01*
X151955727Y-116200500D01*
X151955734Y-116200500D01*
X152964273Y-116200500D01*
X152964273Y-116200499D01*
X152994699Y-116197646D01*
X153122882Y-116152793D01*
X153232150Y-116072150D01*
X153312793Y-115962882D01*
X153315794Y-115954302D01*
X153352858Y-115905623D01*
X153409239Y-115888000D01*
X153447756Y-115888000D01*
X153505947Y-115906907D01*
X153517759Y-115916996D01*
X153555068Y-115954304D01*
X153581284Y-115980520D01*
X153718216Y-116059577D01*
X153870943Y-116100500D01*
X153870945Y-116100500D01*
X154029055Y-116100500D01*
X154029057Y-116100500D01*
X154181784Y-116059577D01*
X154318716Y-115980520D01*
X154430520Y-115868716D01*
X154509577Y-115731784D01*
X154550500Y-115579057D01*
X154550500Y-115420943D01*
X154509577Y-115268216D01*
X154430520Y-115131284D01*
X154318716Y-115019480D01*
X154181784Y-114940423D01*
X154029057Y-114899500D01*
X153870943Y-114899500D01*
X153718216Y-114940423D01*
X153594036Y-115012118D01*
X153581281Y-115019482D01*
X153542759Y-115058004D01*
X153488242Y-115085781D01*
X153472756Y-115087000D01*
X153409239Y-115087000D01*
X153351048Y-115068093D01*
X153315795Y-115020697D01*
X153312793Y-115012118D01*
X153232150Y-114902850D01*
X153232146Y-114902847D01*
X153232144Y-114902845D01*
X153122883Y-114822207D01*
X152994703Y-114777355D01*
X152994694Y-114777353D01*
X152964274Y-114774500D01*
X152964266Y-114774500D01*
X151955734Y-114774500D01*
X151955725Y-114774500D01*
X151925305Y-114777353D01*
X151925296Y-114777355D01*
X151797116Y-114822207D01*
X151687855Y-114902845D01*
X151687845Y-114902855D01*
X151607207Y-115012116D01*
X151562355Y-115140296D01*
X151562353Y-115140305D01*
X151559500Y-115170725D01*
X147992195Y-115170725D01*
X147990354Y-112499560D01*
X148009221Y-112441359D01*
X148058696Y-112405361D01*
X148089354Y-112400495D01*
X148229272Y-112400495D01*
X148229272Y-112400494D01*
X148259698Y-112397641D01*
X148387881Y-112352788D01*
X148497149Y-112272145D01*
X148577792Y-112162877D01*
X148622645Y-112034694D01*
X148625498Y-112004268D01*
X148625499Y-112004268D01*
X148625499Y-111899495D01*
X148644406Y-111841304D01*
X148693906Y-111805340D01*
X148724499Y-111800495D01*
X149535834Y-111800495D01*
X149535834Y-111800494D01*
X149612260Y-111780016D01*
X149680782Y-111740455D01*
X149736731Y-111684506D01*
X149741745Y-111679492D01*
X149796262Y-111651715D01*
X149811749Y-111650496D01*
X150280793Y-111650496D01*
X150338984Y-111669403D01*
X150350797Y-111679492D01*
X151350113Y-112678808D01*
X151350112Y-112678808D01*
X151406062Y-112734757D01*
X151474580Y-112774316D01*
X151474584Y-112774318D01*
X151551008Y-112794796D01*
X151551010Y-112794797D01*
X151551011Y-112794797D01*
X151590500Y-112794797D01*
X151648691Y-112813704D01*
X151684655Y-112863204D01*
X151689500Y-112893797D01*
X151689500Y-113352557D01*
X151689787Y-113354525D01*
X151699427Y-113420692D01*
X151733096Y-113489562D01*
X151750802Y-113525780D01*
X151833517Y-113608495D01*
X151886730Y-113634509D01*
X151938604Y-113659869D01*
X151938605Y-113659869D01*
X151938607Y-113659870D01*
X152006740Y-113669797D01*
X152006743Y-113669797D01*
X152373257Y-113669797D01*
X152373260Y-113669797D01*
X152441393Y-113659870D01*
X152546483Y-113608495D01*
X152629198Y-113525780D01*
X152680573Y-113420690D01*
X152690500Y-113352557D01*
X152690500Y-111636037D01*
X152680573Y-111567904D01*
X152629198Y-111462814D01*
X152546483Y-111380099D01*
X152546481Y-111380098D01*
X152441395Y-111328724D01*
X152414139Y-111324753D01*
X152373260Y-111318797D01*
X152006740Y-111318797D01*
X151972673Y-111323760D01*
X151938604Y-111328724D01*
X151833518Y-111380098D01*
X151750801Y-111462815D01*
X151699427Y-111567901D01*
X151689500Y-111636040D01*
X151689500Y-111929245D01*
X151670593Y-111987436D01*
X151621093Y-112023400D01*
X151559907Y-112023400D01*
X151520496Y-111999249D01*
X150970657Y-111449410D01*
X150942880Y-111394893D01*
X150947217Y-111346707D01*
X150953510Y-111328724D01*
X150968917Y-111284695D01*
X150971770Y-111254269D01*
X150971771Y-111254269D01*
X150971771Y-110645723D01*
X150971770Y-110645721D01*
X150968917Y-110615301D01*
X150968917Y-110615297D01*
X150924064Y-110487114D01*
X150843421Y-110377846D01*
X150843417Y-110377843D01*
X150843415Y-110377841D01*
X150734154Y-110297203D01*
X150605974Y-110252351D01*
X150605965Y-110252349D01*
X150575545Y-110249496D01*
X150575537Y-110249496D01*
X149517005Y-110249496D01*
X149516996Y-110249496D01*
X149486576Y-110252349D01*
X149486567Y-110252351D01*
X149358387Y-110297203D01*
X149249126Y-110377841D01*
X149249116Y-110377851D01*
X149168478Y-110487112D01*
X149123626Y-110615292D01*
X149123624Y-110615301D01*
X149120771Y-110645721D01*
X149120771Y-111100495D01*
X149101864Y-111158686D01*
X149052364Y-111194650D01*
X149021771Y-111199495D01*
X148724499Y-111199495D01*
X148666308Y-111180588D01*
X148630344Y-111131088D01*
X148625499Y-111100495D01*
X148625499Y-110995722D01*
X148625498Y-110995720D01*
X148622645Y-110965300D01*
X148622645Y-110965296D01*
X148577792Y-110837113D01*
X148521201Y-110760435D01*
X148497153Y-110727850D01*
X148497151Y-110727848D01*
X148497149Y-110727845D01*
X148497145Y-110727842D01*
X148497143Y-110727840D01*
X148387882Y-110647202D01*
X148259702Y-110602350D01*
X148259693Y-110602348D01*
X148229273Y-110599495D01*
X148229265Y-110599495D01*
X148087978Y-110599495D01*
X148029787Y-110580588D01*
X147993823Y-110531088D01*
X147988978Y-110500563D01*
X147988288Y-109499563D01*
X148007155Y-109441359D01*
X148056630Y-109405362D01*
X148087288Y-109400495D01*
X148229273Y-109400495D01*
X148229273Y-109400494D01*
X148259699Y-109397641D01*
X148387882Y-109352788D01*
X148497150Y-109272145D01*
X148577793Y-109162877D01*
X148622646Y-109034694D01*
X148625499Y-109004268D01*
X148625500Y-109004268D01*
X148625500Y-108899495D01*
X148644407Y-108841304D01*
X148693907Y-108805340D01*
X148724500Y-108800495D01*
X149021771Y-108800495D01*
X149079962Y-108819402D01*
X149115926Y-108868902D01*
X149120771Y-108899495D01*
X149120771Y-109354270D01*
X149123624Y-109384690D01*
X149123626Y-109384699D01*
X149168478Y-109512879D01*
X149249116Y-109622140D01*
X149249118Y-109622142D01*
X149249121Y-109622146D01*
X149249124Y-109622148D01*
X149249126Y-109622150D01*
X149358387Y-109702788D01*
X149358388Y-109702788D01*
X149358389Y-109702789D01*
X149486572Y-109747642D01*
X149516996Y-109750495D01*
X149516998Y-109750496D01*
X149517005Y-109750496D01*
X150575544Y-109750496D01*
X150575544Y-109750495D01*
X150605970Y-109747642D01*
X150734153Y-109702789D01*
X150843421Y-109622146D01*
X150924064Y-109512878D01*
X150968917Y-109384695D01*
X150971770Y-109354269D01*
X150971771Y-109354269D01*
X150971771Y-108745723D01*
X150971770Y-108745721D01*
X150968917Y-108715301D01*
X150968917Y-108715297D01*
X150947217Y-108653282D01*
X150945844Y-108592112D01*
X150970655Y-108550582D01*
X151520497Y-108000741D01*
X151575013Y-107972965D01*
X151635445Y-107982536D01*
X151678710Y-108025801D01*
X151689500Y-108070746D01*
X151689500Y-108402557D01*
X151696118Y-108447979D01*
X151699427Y-108470692D01*
X151749875Y-108573884D01*
X151750802Y-108575780D01*
X151833517Y-108658495D01*
X151887285Y-108684780D01*
X151938604Y-108709869D01*
X151938605Y-108709869D01*
X151938607Y-108709870D01*
X152006740Y-108719797D01*
X152006743Y-108719797D01*
X152373257Y-108719797D01*
X152373260Y-108719797D01*
X152441393Y-108709870D01*
X152546483Y-108658495D01*
X152629198Y-108575780D01*
X152680573Y-108470690D01*
X152690500Y-108402557D01*
X152690500Y-106686037D01*
X152959500Y-106686037D01*
X152959500Y-108402557D01*
X152967441Y-108457063D01*
X152969427Y-108470691D01*
X152969428Y-108470693D01*
X153019876Y-108573885D01*
X153028447Y-108634466D01*
X153016673Y-108666863D01*
X152993608Y-108706814D01*
X152959500Y-108834108D01*
X152959500Y-108965892D01*
X152989579Y-109078151D01*
X152993609Y-109093190D01*
X153059496Y-109207309D01*
X153059498Y-109207311D01*
X153059500Y-109207314D01*
X153152686Y-109300500D01*
X153152688Y-109300501D01*
X153152690Y-109300503D01*
X153266810Y-109366390D01*
X153266808Y-109366390D01*
X153266812Y-109366391D01*
X153266814Y-109366392D01*
X153394108Y-109400500D01*
X153394110Y-109400500D01*
X153525890Y-109400500D01*
X153525892Y-109400500D01*
X153653186Y-109366392D01*
X153653188Y-109366390D01*
X153653190Y-109366390D01*
X153767309Y-109300503D01*
X153767309Y-109300502D01*
X153767314Y-109300500D01*
X153860500Y-109207314D01*
X153926392Y-109093186D01*
X153960500Y-108965892D01*
X153960500Y-108834108D01*
X153926392Y-108706814D01*
X153903327Y-108666865D01*
X153890606Y-108607019D01*
X153900124Y-108573885D01*
X153950573Y-108470690D01*
X153960500Y-108402557D01*
X153960500Y-106686037D01*
X153950573Y-106617904D01*
X153899198Y-106512814D01*
X153816483Y-106430099D01*
X153816481Y-106430098D01*
X153711395Y-106378724D01*
X153684139Y-106374753D01*
X153643260Y-106368797D01*
X153276740Y-106368797D01*
X153242673Y-106373760D01*
X153208604Y-106378724D01*
X153103518Y-106430098D01*
X153020801Y-106512815D01*
X152969427Y-106617901D01*
X152969427Y-106617904D01*
X152959500Y-106686037D01*
X152690500Y-106686037D01*
X152680573Y-106617904D01*
X152629198Y-106512814D01*
X152546483Y-106430099D01*
X152546481Y-106430098D01*
X152441395Y-106378724D01*
X152414139Y-106374753D01*
X152373260Y-106368797D01*
X152006740Y-106368797D01*
X151972673Y-106373760D01*
X151938604Y-106378724D01*
X151833518Y-106430098D01*
X151750801Y-106512815D01*
X151699427Y-106617901D01*
X151689500Y-106686040D01*
X151689500Y-107144797D01*
X151670593Y-107202988D01*
X151621093Y-107238952D01*
X151590500Y-107243797D01*
X151512406Y-107243797D01*
X151435982Y-107264275D01*
X151435978Y-107264277D01*
X151367462Y-107303835D01*
X150350797Y-108320500D01*
X150296280Y-108348277D01*
X150280793Y-108349496D01*
X149811749Y-108349496D01*
X149753558Y-108330589D01*
X149741746Y-108320500D01*
X149680779Y-108259534D01*
X149612261Y-108219975D01*
X149612257Y-108219973D01*
X149535833Y-108199495D01*
X149535831Y-108199495D01*
X148724500Y-108199495D01*
X148666309Y-108180588D01*
X148630345Y-108131088D01*
X148625500Y-108100495D01*
X148625500Y-107995722D01*
X148625499Y-107995720D01*
X148622646Y-107965300D01*
X148622646Y-107965296D01*
X148577793Y-107837113D01*
X148497150Y-107727845D01*
X148497146Y-107727842D01*
X148497144Y-107727840D01*
X148387883Y-107647202D01*
X148259703Y-107602350D01*
X148259694Y-107602348D01*
X148229274Y-107599495D01*
X148229266Y-107599495D01*
X148085911Y-107599495D01*
X148027720Y-107580588D01*
X147991756Y-107531088D01*
X147986911Y-107500563D01*
X147984777Y-104402845D01*
X147984570Y-104103144D01*
X148003437Y-104044941D01*
X148052912Y-104008944D01*
X148083497Y-104004077D01*
X154059069Y-103999960D01*
X154117272Y-104018827D01*
X154153269Y-104068302D01*
X154154762Y-104073336D01*
X154170422Y-104131780D01*
X154170423Y-104131781D01*
X154170424Y-104131784D01*
X154232171Y-104238734D01*
X154244892Y-104298582D01*
X154220005Y-104354477D01*
X154205222Y-104367888D01*
X154157856Y-104402845D01*
X154157846Y-104402855D01*
X154077208Y-104512116D01*
X154032356Y-104640296D01*
X154032354Y-104640305D01*
X154029501Y-104670725D01*
X154029501Y-105729274D01*
X154032354Y-105759694D01*
X154032356Y-105759703D01*
X154077208Y-105887883D01*
X154157846Y-105997144D01*
X154157848Y-105997146D01*
X154157851Y-105997150D01*
X154157854Y-105997152D01*
X154157856Y-105997154D01*
X154267117Y-106077792D01*
X154273675Y-106081258D01*
X154272491Y-106083497D01*
X154311877Y-106113484D01*
X154329500Y-106169865D01*
X154329500Y-106433108D01*
X154310593Y-106491299D01*
X154300506Y-106503109D01*
X154290802Y-106512813D01*
X154239427Y-106617901D01*
X154239427Y-106617904D01*
X154229500Y-106686037D01*
X154229500Y-108402557D01*
X154236118Y-108447979D01*
X154239427Y-108470692D01*
X154289875Y-108573884D01*
X154290802Y-108575780D01*
X154373517Y-108658495D01*
X154427285Y-108684780D01*
X154478604Y-108709869D01*
X154478605Y-108709869D01*
X154478607Y-108709870D01*
X154546740Y-108719797D01*
X154546743Y-108719797D01*
X154913257Y-108719797D01*
X154913260Y-108719797D01*
X154981393Y-108709870D01*
X155086483Y-108658495D01*
X155169198Y-108575780D01*
X155220573Y-108470690D01*
X155230500Y-108402557D01*
X155230500Y-106686037D01*
X155499500Y-106686037D01*
X155499500Y-108402557D01*
X155506118Y-108447979D01*
X155509427Y-108470692D01*
X155559875Y-108573884D01*
X155560802Y-108575780D01*
X155643517Y-108658495D01*
X155643978Y-108658720D01*
X155644387Y-108659116D01*
X155650194Y-108663262D01*
X155649572Y-108664132D01*
X155687953Y-108701262D01*
X155699500Y-108747662D01*
X155699500Y-109339564D01*
X155719978Y-109415988D01*
X155719980Y-109415992D01*
X155734626Y-109441359D01*
X155759540Y-109484511D01*
X157170505Y-110895476D01*
X157198281Y-110949991D01*
X157199500Y-110965478D01*
X157199500Y-113284521D01*
X157180593Y-113342712D01*
X157170504Y-113354525D01*
X156715489Y-113809540D01*
X156715488Y-113809539D01*
X156659539Y-113865489D01*
X156619980Y-113934007D01*
X156619978Y-113934011D01*
X156599500Y-114010435D01*
X156599500Y-114675500D01*
X156580593Y-114733691D01*
X156531093Y-114769655D01*
X156500500Y-114774500D01*
X156395725Y-114774500D01*
X156365305Y-114777353D01*
X156365296Y-114777355D01*
X156237116Y-114822207D01*
X156127855Y-114902845D01*
X156127845Y-114902855D01*
X156047207Y-115012116D01*
X156002355Y-115140296D01*
X156002353Y-115140305D01*
X155999500Y-115170725D01*
X155999500Y-115804274D01*
X156002353Y-115834694D01*
X156002355Y-115834703D01*
X156047207Y-115962883D01*
X156127845Y-116072144D01*
X156127847Y-116072146D01*
X156127850Y-116072150D01*
X156127853Y-116072152D01*
X156127855Y-116072154D01*
X156237116Y-116152792D01*
X156237117Y-116152792D01*
X156237118Y-116152793D01*
X156365301Y-116197646D01*
X156395725Y-116200499D01*
X156395727Y-116200500D01*
X156395734Y-116200500D01*
X157404273Y-116200500D01*
X157404273Y-116200499D01*
X157434699Y-116197646D01*
X157562882Y-116152793D01*
X157672150Y-116072150D01*
X157752793Y-115962882D01*
X157797646Y-115834699D01*
X157800499Y-115804273D01*
X157800500Y-115804273D01*
X157800500Y-115160435D01*
X157799886Y-115155776D01*
X157798234Y-115146571D01*
X157797646Y-115140305D01*
X157797646Y-115140301D01*
X157788015Y-115112779D01*
X157785838Y-115105718D01*
X157780022Y-115084016D01*
X157780021Y-115084012D01*
X157780018Y-115084006D01*
X157779405Y-115082944D01*
X157771695Y-115066139D01*
X157752793Y-115012118D01*
X157672150Y-114902850D01*
X157672146Y-114902847D01*
X157672144Y-114902845D01*
X157562883Y-114822207D01*
X157434703Y-114777355D01*
X157434694Y-114777353D01*
X157404274Y-114774500D01*
X157404266Y-114774500D01*
X157299500Y-114774500D01*
X157241309Y-114755593D01*
X157205345Y-114706093D01*
X157200500Y-114675500D01*
X157200500Y-114215478D01*
X157219407Y-114157287D01*
X157229490Y-114145480D01*
X157740460Y-113634511D01*
X157769247Y-113584650D01*
X157780021Y-113565989D01*
X157800500Y-113489562D01*
X157800500Y-112683225D01*
X160899500Y-112683225D01*
X160899500Y-113316774D01*
X160902353Y-113347194D01*
X160902355Y-113347203D01*
X160947207Y-113475383D01*
X161027845Y-113584644D01*
X161027846Y-113584645D01*
X161027850Y-113584650D01*
X161027853Y-113584652D01*
X161027855Y-113584654D01*
X161137116Y-113665292D01*
X161137117Y-113665292D01*
X161137118Y-113665293D01*
X161265301Y-113710146D01*
X161295725Y-113712999D01*
X161295727Y-113713000D01*
X161295734Y-113713000D01*
X162304273Y-113713000D01*
X162304273Y-113712999D01*
X162334699Y-113710146D01*
X162462882Y-113665293D01*
X162572150Y-113584650D01*
X162652793Y-113475382D01*
X162697646Y-113347199D01*
X162700499Y-113316773D01*
X162700500Y-113316773D01*
X162700500Y-112683227D01*
X162700499Y-112683225D01*
X163099500Y-112683225D01*
X163099500Y-113316774D01*
X163102353Y-113347194D01*
X163102355Y-113347203D01*
X163147207Y-113475383D01*
X163227845Y-113584644D01*
X163227846Y-113584645D01*
X163227850Y-113584650D01*
X163227853Y-113584652D01*
X163227855Y-113584654D01*
X163337116Y-113665292D01*
X163337117Y-113665292D01*
X163337118Y-113665293D01*
X163465301Y-113710146D01*
X163495725Y-113712999D01*
X163495727Y-113713000D01*
X163495734Y-113713000D01*
X164504273Y-113713000D01*
X164504273Y-113712999D01*
X164534699Y-113710146D01*
X164662882Y-113665293D01*
X164772150Y-113584650D01*
X164852793Y-113475382D01*
X164897646Y-113347199D01*
X164900499Y-113316773D01*
X164900500Y-113316773D01*
X164900500Y-112683227D01*
X164900499Y-112683225D01*
X164897646Y-112652805D01*
X164897646Y-112652801D01*
X164852793Y-112524618D01*
X164834299Y-112499560D01*
X164772154Y-112415355D01*
X164772152Y-112415353D01*
X164772150Y-112415350D01*
X164772146Y-112415347D01*
X164772144Y-112415345D01*
X164662883Y-112334707D01*
X164580248Y-112305792D01*
X164531568Y-112268727D01*
X164513971Y-112210127D01*
X164527210Y-112162848D01*
X164535614Y-112148292D01*
X164559578Y-112106785D01*
X164600501Y-111954058D01*
X164600501Y-111795944D01*
X164559578Y-111643217D01*
X164480521Y-111506285D01*
X164368717Y-111394481D01*
X164231785Y-111315424D01*
X164079058Y-111274501D01*
X163920944Y-111274501D01*
X163768217Y-111315424D01*
X163631285Y-111394481D01*
X163519481Y-111506285D01*
X163440424Y-111643217D01*
X163399501Y-111795944D01*
X163399501Y-111954058D01*
X163440424Y-112106785D01*
X163472792Y-112162848D01*
X163485513Y-112222695D01*
X163460626Y-112278591D01*
X163419753Y-112305791D01*
X163337116Y-112334707D01*
X163227855Y-112415345D01*
X163227845Y-112415355D01*
X163147207Y-112524616D01*
X163102355Y-112652796D01*
X163102353Y-112652805D01*
X163099500Y-112683225D01*
X162700499Y-112683225D01*
X162697646Y-112652805D01*
X162697646Y-112652801D01*
X162652793Y-112524618D01*
X162634299Y-112499560D01*
X162572154Y-112415355D01*
X162572152Y-112415353D01*
X162572150Y-112415350D01*
X162572146Y-112415347D01*
X162572144Y-112415345D01*
X162462883Y-112334707D01*
X162338651Y-112291236D01*
X162289971Y-112254171D01*
X162272374Y-112195570D01*
X162285613Y-112148292D01*
X162309577Y-112106785D01*
X162350500Y-111954058D01*
X162350500Y-111795944D01*
X162309577Y-111643217D01*
X162230520Y-111506285D01*
X162118716Y-111394481D01*
X161981784Y-111315424D01*
X161829057Y-111274501D01*
X161670943Y-111274501D01*
X161518216Y-111315424D01*
X161381284Y-111394481D01*
X161269480Y-111506285D01*
X161190423Y-111643217D01*
X161149500Y-111795944D01*
X161149500Y-111954058D01*
X161158444Y-111987436D01*
X161190423Y-112106786D01*
X161231194Y-112177404D01*
X161243915Y-112237252D01*
X161219028Y-112293148D01*
X161178155Y-112320347D01*
X161137116Y-112334707D01*
X161027855Y-112415345D01*
X161027845Y-112415355D01*
X160947207Y-112524616D01*
X160902355Y-112652796D01*
X160902353Y-112652805D01*
X160899500Y-112683225D01*
X157800500Y-112683225D01*
X157800500Y-110760438D01*
X157780021Y-110684011D01*
X157758769Y-110647202D01*
X157740460Y-110615489D01*
X157684511Y-110559539D01*
X157684511Y-110559540D01*
X156329496Y-109204525D01*
X156301719Y-109150008D01*
X156300500Y-109134521D01*
X156300500Y-108747662D01*
X156319407Y-108689471D01*
X156350108Y-108663686D01*
X156349806Y-108663262D01*
X156355197Y-108659412D01*
X156356020Y-108658720D01*
X156356483Y-108658495D01*
X156439198Y-108575780D01*
X156490573Y-108470690D01*
X156500500Y-108402557D01*
X156500500Y-106686037D01*
X156490573Y-106617904D01*
X156439198Y-106512814D01*
X156356483Y-106430099D01*
X156356481Y-106430098D01*
X156251395Y-106378724D01*
X156224139Y-106374753D01*
X156183260Y-106368797D01*
X155816740Y-106368797D01*
X155782673Y-106373760D01*
X155748604Y-106378724D01*
X155643518Y-106430098D01*
X155560801Y-106512815D01*
X155509427Y-106617901D01*
X155509427Y-106617904D01*
X155499500Y-106686037D01*
X155230500Y-106686037D01*
X155220573Y-106617904D01*
X155169198Y-106512814D01*
X155169195Y-106512811D01*
X155159494Y-106503109D01*
X155131718Y-106448592D01*
X155130500Y-106433108D01*
X155130500Y-106169865D01*
X155149407Y-106111674D01*
X155187447Y-106083385D01*
X155186324Y-106081259D01*
X155192877Y-106077794D01*
X155192883Y-106077793D01*
X155302151Y-105997150D01*
X155382794Y-105887882D01*
X155427647Y-105759699D01*
X155430500Y-105729273D01*
X155430501Y-105729273D01*
X155430501Y-104820943D01*
X156249500Y-104820943D01*
X156249500Y-104979057D01*
X156290423Y-105131784D01*
X156369480Y-105268716D01*
X156481284Y-105380520D01*
X156618216Y-105459577D01*
X156770943Y-105500500D01*
X156770945Y-105500500D01*
X156929055Y-105500500D01*
X156929057Y-105500500D01*
X157081784Y-105459577D01*
X157218716Y-105380520D01*
X157330520Y-105268716D01*
X157409577Y-105131784D01*
X157450500Y-104979057D01*
X157450500Y-104820943D01*
X157409577Y-104668216D01*
X157330520Y-104531284D01*
X157218716Y-104419480D01*
X157081784Y-104340423D01*
X156929057Y-104299500D01*
X156770943Y-104299500D01*
X156618216Y-104340423D01*
X156481284Y-104419480D01*
X156369480Y-104531284D01*
X156290423Y-104668216D01*
X156249500Y-104820943D01*
X155430501Y-104820943D01*
X155430501Y-104670727D01*
X155430500Y-104670725D01*
X155427647Y-104640305D01*
X155427647Y-104640301D01*
X155382794Y-104512118D01*
X155314424Y-104419480D01*
X155302155Y-104402855D01*
X155302153Y-104402853D01*
X155302151Y-104402850D01*
X155254777Y-104367887D01*
X155219186Y-104318121D01*
X155219644Y-104256937D01*
X155227829Y-104238737D01*
X155289578Y-104131784D01*
X155305487Y-104072409D01*
X155338808Y-104021098D01*
X155395929Y-103999171D01*
X155401015Y-103999035D01*
X159896865Y-103995937D01*
X159955067Y-104014804D01*
G37*
%TD.AperFunction*%
%TD*%
%TA.AperFunction,Conductor*%
%TO.N,V3.3*%
G36*
X169583039Y-97069680D02*
G01*
X169628794Y-97122484D01*
X169640000Y-97173995D01*
X169640000Y-101675995D01*
X169620315Y-101743034D01*
X169567511Y-101788789D01*
X169516000Y-101799995D01*
X167763999Y-101799995D01*
X167696960Y-101780310D01*
X167651205Y-101727506D01*
X167639999Y-101675999D01*
X167639999Y-97173994D01*
X167659684Y-97106956D01*
X167712488Y-97061201D01*
X167763999Y-97049995D01*
X169516000Y-97049995D01*
X169583039Y-97069680D01*
G37*
%TD.AperFunction*%
%TD*%
%TA.AperFunction,Conductor*%
%TO.N,V3.3-F*%
G36*
X148793039Y-94159684D02*
G01*
X148838794Y-94212488D01*
X148850000Y-94263999D01*
X148850000Y-98775604D01*
X148830315Y-98842643D01*
X148777511Y-98888398D01*
X148726059Y-98899604D01*
X146974335Y-98900441D01*
X146907286Y-98880788D01*
X146861506Y-98828006D01*
X146850276Y-98776450D01*
X146850008Y-94264004D01*
X146869689Y-94196966D01*
X146922490Y-94151208D01*
X146974008Y-94139999D01*
X148726000Y-94139999D01*
X148793039Y-94159684D01*
G37*
%TD.AperFunction*%
%TD*%
%TA.AperFunction,Conductor*%
%TO.N,V5-F*%
G36*
X157143039Y-85520184D02*
G01*
X157188794Y-85572988D01*
X157200000Y-85624499D01*
X157200000Y-90000000D01*
X160551324Y-92562777D01*
X160592620Y-92619136D01*
X160600000Y-92661277D01*
X160600000Y-94276000D01*
X160580315Y-94343039D01*
X160527511Y-94388794D01*
X160476000Y-94400000D01*
X157600000Y-94400000D01*
X157519241Y-95207580D01*
X157511166Y-95288339D01*
X157484908Y-95353087D01*
X157427813Y-95393360D01*
X157387781Y-95400000D01*
X153224000Y-95400000D01*
X153156961Y-95380315D01*
X153111206Y-95327511D01*
X153100000Y-95276000D01*
X153100000Y-93500000D01*
X150524000Y-93500000D01*
X150456961Y-93480315D01*
X150411206Y-93427511D01*
X150400000Y-93376000D01*
X150400000Y-85624499D01*
X150419685Y-85557460D01*
X150472489Y-85511705D01*
X150523998Y-85500499D01*
X157076001Y-85500499D01*
X157143039Y-85520184D01*
G37*
%TD.AperFunction*%
%TD*%
M02*
