%TF.GenerationSoftware,KiCad,Pcbnew,10.0.6*%
%TF.CreationDate,2026-09-09T20:23:59+02:00*%
%TF.ProjectId,psu-ext,7073752d-6578-4742-9e6b-696361645f70,1.3.0*%
%TF.SameCoordinates,Original*%
%TF.FileFunction,Copper,L3,Inr*%
%TF.FilePolarity,Positive*%
%FSLAX46Y46*%
G04 Gerber Fmt 4.6, Leading zero omitted, Abs format (unit mm)*
G04 Created by KiCad (PCBNEW 10.0.6) date 2026-09-09 20:23:59*
%MOMM*%
%LPD*%
G01*
G04 APERTURE LIST*
%TA.AperFunction,ComponentPad*%
%ADD10R,1.508000X1.508000*%
%TD*%
%TA.AperFunction,ComponentPad*%
%ADD11C,1.508000*%
%TD*%
%TA.AperFunction,ComponentPad*%
%ADD12C,1.800000*%
%TD*%
%TA.AperFunction,ComponentPad*%
%ADD13R,1.700000X1.700000*%
%TD*%
%TA.AperFunction,ComponentPad*%
%ADD14C,1.700000*%
%TD*%
%TA.AperFunction,HeatsinkPad*%
%ADD15C,0.600000*%
%TD*%
%TA.AperFunction,ComponentPad*%
%ADD16C,5.700000*%
%TD*%
%TA.AperFunction,ComponentPad*%
%ADD17O,0.900000X2.000000*%
%TD*%
%TA.AperFunction,ComponentPad*%
%ADD18O,0.900000X1.700000*%
%TD*%
%TA.AperFunction,ComponentPad*%
%ADD19C,7.600000*%
%TD*%
%TA.AperFunction,ViaPad*%
%ADD20C,0.800000*%
%TD*%
%TA.AperFunction,ViaPad*%
%ADD21C,0.600000*%
%TD*%
G04 APERTURE END LIST*
D10*
%TO.N,VUSB*%
%TO.C,K1*%
X150355000Y-132400000D03*
D11*
%TO.N,Net-(D14-K)*%
X147815000Y-132400000D03*
D12*
%TO.N,/FrontEnd ADC/SNT_N*%
X140195000Y-132400000D03*
%TO.N,LOAD_P*%
X132575000Y-132400000D03*
%TD*%
D13*
%TO.N,Net-(D6-K)*%
%TO.C,J2*%
X207275000Y-122079999D03*
D14*
%TO.N,Net-(D5-K)*%
X204735000Y-122079999D03*
%TO.N,GND*%
X207275000Y-119539999D03*
%TO.N,V3.3*%
X204735000Y-119539999D03*
%TO.N,Net-(D7-K)*%
X207275000Y-116999999D03*
%TO.N,Net-(D8-K)*%
X204735000Y-116999999D03*
%TD*%
D15*
%TO.N,GND*%
%TO.C,U5*%
X187900000Y-126579995D03*
X187900000Y-125179995D03*
X187200000Y-127279995D03*
X187200000Y-125879995D03*
X187200000Y-124479995D03*
X186500000Y-126579995D03*
X186500000Y-125179995D03*
X185800000Y-127279995D03*
X185800000Y-125879995D03*
X185800000Y-124479995D03*
X185100000Y-126579995D03*
X185100000Y-125179995D03*
%TD*%
D16*
%TO.N,GNDS*%
%TO.C,H3*%
X114000003Y-130999997D03*
%TD*%
%TO.N,GND*%
%TO.C,H1*%
X206000000Y-130999996D03*
%TD*%
%TO.N,GND*%
%TO.C,H2*%
X206000000Y-88999996D03*
%TD*%
D10*
%TO.N,GND*%
%TO.C,PS1*%
X163850000Y-86999995D03*
D11*
%TO.N,VUSB*%
X161310000Y-86999995D03*
%TO.N,GNDS*%
X158770000Y-86999995D03*
%TO.N,V5-F*%
X156230000Y-86999996D03*
%TD*%
D17*
%TO.N,GND*%
%TO.C,J1*%
X194324999Y-91269995D03*
X185674999Y-91269995D03*
D18*
X194324999Y-87099995D03*
X185674999Y-87099995D03*
%TD*%
D13*
%TO.N,Net-(J3-Pin_1)*%
%TO.C,J3*%
X169999999Y-133199995D03*
D14*
%TO.N,Net-(J3-Pin_2)*%
X167459999Y-133199995D03*
%TO.N,GND*%
X164919999Y-133199995D03*
%TD*%
D19*
%TO.N,PGND*%
%TO.C,H10*%
X117420000Y-100499996D03*
%TD*%
%TO.N,PGND*%
%TO.C,H11*%
X117420000Y-119549995D03*
%TD*%
D16*
%TO.N,GNDS*%
%TO.C,H4*%
X114000003Y-88999995D03*
%TD*%
D19*
%TO.N,PSU_P*%
%TO.C,H8*%
X136470000Y-100499995D03*
%TD*%
%TO.N,LOAD_P*%
%TO.C,H9*%
X136470000Y-119549996D03*
%TD*%
D20*
%TO.N,V3.3*%
X170000000Y-126200000D03*
D21*
X168200000Y-97499995D03*
D20*
X188587500Y-104574053D03*
X182700000Y-132999995D03*
D21*
X183000000Y-99900000D03*
X169100000Y-97499995D03*
D20*
X184449999Y-133849995D03*
X183900000Y-107849997D03*
X188850000Y-133849995D03*
X182700000Y-130499995D03*
X186349999Y-133849995D03*
X198595496Y-133259932D03*
X189700000Y-123700000D03*
X191809396Y-107537496D03*
%TO.N,GND*%
X208625000Y-112975000D03*
X157449449Y-133356593D03*
X198628638Y-129529996D03*
X180145826Y-97608345D03*
D21*
X190000000Y-94786342D03*
D20*
X190800000Y-133849995D03*
X171499999Y-119100000D03*
X201800000Y-122799996D03*
X196609573Y-129529995D03*
X200625000Y-119539999D03*
X164201163Y-89504909D03*
X178948293Y-93447301D03*
X171865383Y-123795510D03*
X208600000Y-96249996D03*
X180200000Y-111899995D03*
X199500000Y-89299996D03*
X208600001Y-98449995D03*
X205200000Y-112299995D03*
X177500000Y-133599996D03*
X206292408Y-126465178D03*
X202400000Y-118150000D03*
X173473014Y-102205019D03*
X192500000Y-133599996D03*
X195000000Y-98799996D03*
X177195545Y-90391366D03*
X174944358Y-89597300D03*
X185700000Y-105799996D03*
X201800000Y-125321901D03*
X178240000Y-103949996D03*
X208500000Y-109999995D03*
X208499999Y-104999996D03*
X171150000Y-86999996D03*
X185450000Y-98812494D03*
X208832589Y-126267411D03*
X164100000Y-96000000D03*
X205199999Y-107299995D03*
%TO.N,VUSB*%
X169860000Y-93399996D03*
D21*
%TO.N,SDA*%
X177500000Y-132332425D03*
%TO.N,SCL*%
X177500000Y-131059996D03*
%TO.N,GNDS*%
X155739352Y-121370000D03*
X151665160Y-118989271D03*
D20*
X122400000Y-111000000D03*
D21*
X157500000Y-125900000D03*
X160650000Y-118879999D03*
D20*
X163125001Y-126200000D03*
X156649016Y-97612495D03*
D21*
X155550000Y-125550000D03*
D20*
X152649016Y-99300000D03*
D21*
X163200000Y-116250000D03*
D20*
X158000000Y-106600000D03*
X159049999Y-100612499D03*
X160500000Y-116050000D03*
D21*
X156000000Y-111000000D03*
X152800000Y-109400000D03*
D20*
X158900000Y-96000000D03*
D21*
X154730000Y-111000000D03*
D20*
X144900000Y-89300000D03*
D21*
X153460000Y-111000000D03*
D20*
X149100000Y-119750000D03*
D21*
X149950000Y-125750000D03*
X151500000Y-105200000D03*
D20*
X122200000Y-106699996D03*
D21*
X151500000Y-105900000D03*
D20*
X155000000Y-116250000D03*
X165025000Y-118196109D03*
X151866574Y-101993037D03*
D21*
%TO.N,/FrontEnd ADC/SDAS*%
X166400000Y-121639999D03*
X164000000Y-115900000D03*
D20*
%TO.N,V3.3-F*%
X154730001Y-103900000D03*
X165031832Y-126200000D03*
X157000000Y-100612499D03*
X157400000Y-124000002D03*
X148350001Y-94589999D03*
X153950000Y-115500000D03*
X149100000Y-123800000D03*
X161750000Y-111875001D03*
X147350001Y-94589999D03*
X164000001Y-111875001D03*
X156850000Y-104900000D03*
X163519999Y-117700000D03*
D21*
%TO.N,Net-(U6-~{WP}{slash}IO_{2})*%
X182600000Y-110634995D03*
%TO.N,Net-(U10-REF1)*%
X153460000Y-108900000D03*
%TO.N,Net-(D14-K)*%
X152450005Y-132399995D03*
%TO.N,/ESP32/EN*%
X201500000Y-109999996D03*
X192500000Y-131069996D03*
%TO.N,Net-(U11B--)*%
X150635000Y-125200000D03*
D20*
%TO.N,+5V*%
X192400000Y-93199996D03*
X187600000Y-93199996D03*
D21*
X187250000Y-96099995D03*
%TO.N,/ESP32/TRG1*%
X192500000Y-129789995D03*
X186349999Y-130199995D03*
%TO.N,/ESP32/TRG2*%
X184449999Y-130199995D03*
%TO.N,/ESP32/IO0*%
X175100000Y-117089996D03*
X201500000Y-104999996D03*
%TO.N,R_CTR*%
X177500000Y-122169995D03*
%TO.N,/ESP32/RX*%
X177500000Y-128522345D03*
%TO.N,/ESP32/TX*%
X177500000Y-129789995D03*
%TO.N,Net-(U2-~{FLG})*%
X176714759Y-94397300D03*
X176714759Y-88297300D03*
%TO.N,Net-(U11A--)*%
X152460000Y-119080000D03*
%TO.N,/ESP32/SDA1*%
X192499999Y-127249995D03*
%TO.N,/ESP32/SCL1*%
X192499999Y-125979995D03*
%TD*%
%TA.AperFunction,Conductor*%
%TO.N,V3.3*%
G36*
X204909442Y-85500500D02*
G01*
X204934105Y-85500500D01*
X204997291Y-85500500D01*
X205002699Y-85500617D01*
X205386770Y-85517386D01*
X205397502Y-85518326D01*
X205775972Y-85568152D01*
X205786587Y-85570023D01*
X206159287Y-85652648D01*
X206169726Y-85655447D01*
X206175405Y-85657238D01*
X206233420Y-85696174D01*
X206261175Y-85760295D01*
X206249857Y-85829242D01*
X206203060Y-85881125D01*
X206138110Y-85899496D01*
X205825875Y-85899496D01*
X205479841Y-85938485D01*
X205479829Y-85938487D01*
X205140315Y-86015978D01*
X205140307Y-86015981D01*
X204811617Y-86130995D01*
X204497869Y-86282088D01*
X204203000Y-86467367D01*
X204202998Y-86467368D01*
X203930743Y-86684483D01*
X203684487Y-86930739D01*
X203467372Y-87202994D01*
X203467371Y-87202996D01*
X203282092Y-87497865D01*
X203130999Y-87811613D01*
X203015985Y-88140303D01*
X203015982Y-88140311D01*
X202938491Y-88479825D01*
X202938489Y-88479837D01*
X202899500Y-88825871D01*
X202899500Y-89174120D01*
X202938489Y-89520154D01*
X202938491Y-89520166D01*
X203015982Y-89859680D01*
X203015985Y-89859688D01*
X203130999Y-90188378D01*
X203282092Y-90502126D01*
X203467371Y-90796995D01*
X203467372Y-90796997D01*
X203684487Y-91069252D01*
X203930743Y-91315508D01*
X204202998Y-91532623D01*
X204203001Y-91532624D01*
X204203003Y-91532626D01*
X204497867Y-91717902D01*
X204811621Y-91868998D01*
X205058488Y-91955380D01*
X205140307Y-91984010D01*
X205140315Y-91984013D01*
X205140318Y-91984013D01*
X205140319Y-91984014D01*
X205479829Y-92061505D01*
X205825876Y-92100495D01*
X205825877Y-92100496D01*
X205825880Y-92100496D01*
X206174123Y-92100496D01*
X206174123Y-92100495D01*
X206520171Y-92061505D01*
X206859681Y-91984014D01*
X207188379Y-91868998D01*
X207502133Y-91717902D01*
X207796997Y-91532626D01*
X207797001Y-91532623D01*
X208069256Y-91315508D01*
X208069258Y-91315505D01*
X208069263Y-91315502D01*
X208315506Y-91069259D01*
X208357287Y-91016868D01*
X208532627Y-90796997D01*
X208532628Y-90796995D01*
X208532630Y-90796993D01*
X208717906Y-90502129D01*
X208869002Y-90188375D01*
X208984018Y-89859677D01*
X209061509Y-89520167D01*
X209100500Y-89174116D01*
X209100500Y-88861886D01*
X209120185Y-88794847D01*
X209172989Y-88749092D01*
X209242147Y-88739148D01*
X209305703Y-88768173D01*
X209342762Y-88824604D01*
X209344552Y-88830282D01*
X209347350Y-88840724D01*
X209407103Y-89110251D01*
X209429968Y-89213386D01*
X209431846Y-89224040D01*
X209481667Y-89602471D01*
X209482610Y-89613247D01*
X209499378Y-89997296D01*
X209499496Y-90002705D01*
X209499498Y-112778055D01*
X209479813Y-112845094D01*
X209427009Y-112890849D01*
X209357851Y-112900793D01*
X209294295Y-112871768D01*
X209256521Y-112812990D01*
X209253881Y-112802246D01*
X209250502Y-112785263D01*
X209250502Y-112785261D01*
X209250501Y-112785256D01*
X209201465Y-112666873D01*
X209201464Y-112666872D01*
X209201461Y-112666866D01*
X209130276Y-112560331D01*
X209130273Y-112560327D01*
X209039672Y-112469726D01*
X209039668Y-112469723D01*
X208933133Y-112398538D01*
X208933124Y-112398533D01*
X208814744Y-112349499D01*
X208814738Y-112349497D01*
X208689071Y-112324500D01*
X208689069Y-112324500D01*
X208560931Y-112324500D01*
X208560929Y-112324500D01*
X208435261Y-112349497D01*
X208435255Y-112349499D01*
X208316875Y-112398533D01*
X208316866Y-112398538D01*
X208210331Y-112469723D01*
X208210327Y-112469726D01*
X208119726Y-112560327D01*
X208119723Y-112560331D01*
X208048538Y-112666866D01*
X208048533Y-112666875D01*
X207999499Y-112785255D01*
X207999497Y-112785261D01*
X207974500Y-112910928D01*
X207974500Y-112910931D01*
X207974500Y-113039069D01*
X207974500Y-113039071D01*
X207974499Y-113039071D01*
X207999497Y-113164738D01*
X207999499Y-113164744D01*
X208048533Y-113283124D01*
X208048538Y-113283133D01*
X208119723Y-113389668D01*
X208119726Y-113389672D01*
X208210327Y-113480273D01*
X208210331Y-113480276D01*
X208316866Y-113551461D01*
X208316872Y-113551464D01*
X208316873Y-113551465D01*
X208435256Y-113600501D01*
X208435260Y-113600501D01*
X208435261Y-113600502D01*
X208560928Y-113625500D01*
X208560931Y-113625500D01*
X208689071Y-113625500D01*
X208773615Y-113608682D01*
X208814744Y-113600501D01*
X208933127Y-113551465D01*
X209039669Y-113480276D01*
X209130276Y-113389669D01*
X209201465Y-113283127D01*
X209250501Y-113164744D01*
X209253880Y-113147752D01*
X209286265Y-113085843D01*
X209346980Y-113051268D01*
X209416750Y-113055007D01*
X209473422Y-113095873D01*
X209499004Y-113160891D01*
X209499498Y-113171944D01*
X209499499Y-125715013D01*
X209479814Y-125782052D01*
X209427010Y-125827807D01*
X209357852Y-125837751D01*
X209294296Y-125808726D01*
X209287818Y-125802694D01*
X209247261Y-125762137D01*
X209247257Y-125762134D01*
X209140722Y-125690949D01*
X209140713Y-125690944D01*
X209022333Y-125641910D01*
X209022327Y-125641908D01*
X208896660Y-125616911D01*
X208896658Y-125616911D01*
X208768520Y-125616911D01*
X208768518Y-125616911D01*
X208642850Y-125641908D01*
X208642844Y-125641910D01*
X208524464Y-125690944D01*
X208524455Y-125690949D01*
X208417920Y-125762134D01*
X208417916Y-125762137D01*
X208327315Y-125852738D01*
X208327312Y-125852742D01*
X208256127Y-125959277D01*
X208256122Y-125959286D01*
X208207088Y-126077666D01*
X208207086Y-126077672D01*
X208182089Y-126203339D01*
X208182089Y-126203342D01*
X208182089Y-126331480D01*
X208182089Y-126331482D01*
X208182088Y-126331482D01*
X208207086Y-126457149D01*
X208207088Y-126457155D01*
X208256122Y-126575535D01*
X208256127Y-126575544D01*
X208327312Y-126682079D01*
X208327315Y-126682083D01*
X208417916Y-126772684D01*
X208417920Y-126772687D01*
X208524455Y-126843872D01*
X208524461Y-126843875D01*
X208524462Y-126843876D01*
X208642845Y-126892912D01*
X208642849Y-126892912D01*
X208642850Y-126892913D01*
X208768517Y-126917911D01*
X208768520Y-126917911D01*
X208896660Y-126917911D01*
X208981204Y-126901093D01*
X209022333Y-126892912D01*
X209140716Y-126843876D01*
X209247258Y-126772687D01*
X209287817Y-126732128D01*
X209349140Y-126698642D01*
X209418831Y-126703626D01*
X209474765Y-126745496D01*
X209499183Y-126810961D01*
X209499499Y-126819808D01*
X209499500Y-129934103D01*
X209499500Y-129997288D01*
X209499382Y-130002697D01*
X209482614Y-130386745D01*
X209481671Y-130397521D01*
X209431849Y-130775952D01*
X209429971Y-130786605D01*
X209347354Y-131159267D01*
X209344556Y-131169709D01*
X209342763Y-131175397D01*
X209303835Y-131233417D01*
X209239718Y-131261180D01*
X209170769Y-131249871D01*
X209118880Y-131203082D01*
X209100500Y-131138117D01*
X209100500Y-130825873D01*
X209100499Y-130825871D01*
X209094874Y-130775952D01*
X209061509Y-130479825D01*
X208984018Y-130140315D01*
X208869002Y-129811617D01*
X208717906Y-129497863D01*
X208532630Y-129202999D01*
X208532628Y-129202996D01*
X208532627Y-129202994D01*
X208315512Y-128930739D01*
X208069256Y-128684483D01*
X207797001Y-128467368D01*
X207796999Y-128467367D01*
X207502130Y-128282088D01*
X207188382Y-128130995D01*
X206859692Y-128015981D01*
X206859684Y-128015978D01*
X206605048Y-127957859D01*
X206520171Y-127938487D01*
X206520167Y-127938486D01*
X206520158Y-127938485D01*
X206174124Y-127899496D01*
X206174120Y-127899496D01*
X205825880Y-127899496D01*
X205825875Y-127899496D01*
X205479841Y-127938485D01*
X205479829Y-127938487D01*
X205140315Y-128015978D01*
X205140307Y-128015981D01*
X204811617Y-128130995D01*
X204497869Y-128282088D01*
X204203000Y-128467367D01*
X204202998Y-128467368D01*
X203930743Y-128684483D01*
X203684487Y-128930739D01*
X203467372Y-129202994D01*
X203467371Y-129202996D01*
X203282092Y-129497865D01*
X203130999Y-129811613D01*
X203015985Y-130140303D01*
X203015982Y-130140311D01*
X202938491Y-130479825D01*
X202938489Y-130479837D01*
X202899500Y-130825871D01*
X202899500Y-131174120D01*
X202938489Y-131520154D01*
X202938491Y-131520166D01*
X203015982Y-131859680D01*
X203015985Y-131859688D01*
X203130999Y-132188378D01*
X203282092Y-132502126D01*
X203467371Y-132796995D01*
X203467372Y-132796997D01*
X203684487Y-133069252D01*
X203930743Y-133315508D01*
X204202998Y-133532623D01*
X204203001Y-133532624D01*
X204203003Y-133532626D01*
X204497867Y-133717902D01*
X204811621Y-133868998D01*
X205058488Y-133955380D01*
X205140307Y-133984010D01*
X205140315Y-133984013D01*
X205140318Y-133984013D01*
X205140319Y-133984014D01*
X205479829Y-134061505D01*
X205825876Y-134100495D01*
X205825877Y-134100496D01*
X206138122Y-134100496D01*
X206205161Y-134120181D01*
X206250916Y-134172985D01*
X206260860Y-134242143D01*
X206231835Y-134305699D01*
X206175402Y-134342759D01*
X206169714Y-134344552D01*
X206159272Y-134347350D01*
X205786610Y-134429967D01*
X205775957Y-134431845D01*
X205397526Y-134481667D01*
X205386750Y-134482610D01*
X205002703Y-134499378D01*
X204997294Y-134499496D01*
X191369807Y-134499496D01*
X191302768Y-134479811D01*
X191257013Y-134427007D01*
X191247069Y-134357849D01*
X191276094Y-134294293D01*
X191282126Y-134287815D01*
X191305273Y-134264667D01*
X191305276Y-134264664D01*
X191376465Y-134158122D01*
X191425501Y-134039739D01*
X191436586Y-133984013D01*
X191450500Y-133914066D01*
X191450500Y-133785923D01*
X191426260Y-133664067D01*
X191849499Y-133664067D01*
X191874497Y-133789734D01*
X191874499Y-133789740D01*
X191923533Y-133908120D01*
X191923538Y-133908129D01*
X191994723Y-134014664D01*
X191994726Y-134014668D01*
X192085327Y-134105269D01*
X192085331Y-134105272D01*
X192191866Y-134176457D01*
X192191872Y-134176460D01*
X192191873Y-134176461D01*
X192310256Y-134225497D01*
X192310260Y-134225497D01*
X192310261Y-134225498D01*
X192435928Y-134250496D01*
X192435931Y-134250496D01*
X192564071Y-134250496D01*
X192664110Y-134230596D01*
X192689744Y-134225497D01*
X192808127Y-134176461D01*
X192914669Y-134105272D01*
X193005276Y-134014665D01*
X193076465Y-133908123D01*
X193125501Y-133789740D01*
X193139791Y-133717902D01*
X193150500Y-133664067D01*
X193150500Y-133535924D01*
X193125502Y-133410257D01*
X193125501Y-133410256D01*
X193125501Y-133410252D01*
X193076465Y-133291869D01*
X193076464Y-133291868D01*
X193076461Y-133291862D01*
X193005276Y-133185327D01*
X193005273Y-133185323D01*
X192914672Y-133094722D01*
X192914668Y-133094719D01*
X192808133Y-133023534D01*
X192808124Y-133023529D01*
X192689744Y-132974495D01*
X192689738Y-132974493D01*
X192564071Y-132949496D01*
X192564069Y-132949496D01*
X192435931Y-132949496D01*
X192435929Y-132949496D01*
X192310261Y-132974493D01*
X192310255Y-132974495D01*
X192191875Y-133023529D01*
X192191866Y-133023534D01*
X192085331Y-133094719D01*
X192085327Y-133094722D01*
X191994726Y-133185323D01*
X191994723Y-133185327D01*
X191923538Y-133291862D01*
X191923533Y-133291871D01*
X191874499Y-133410251D01*
X191874497Y-133410257D01*
X191849500Y-133535924D01*
X191849500Y-133535927D01*
X191849500Y-133664065D01*
X191849500Y-133664067D01*
X191849499Y-133664067D01*
X191426260Y-133664067D01*
X191425502Y-133660256D01*
X191425501Y-133660255D01*
X191425501Y-133660251D01*
X191376465Y-133541868D01*
X191376463Y-133541865D01*
X191376461Y-133541861D01*
X191305276Y-133435326D01*
X191305273Y-133435322D01*
X191214672Y-133344721D01*
X191214668Y-133344718D01*
X191108133Y-133273533D01*
X191108124Y-133273528D01*
X190989744Y-133224494D01*
X190989738Y-133224492D01*
X190864071Y-133199495D01*
X190864069Y-133199495D01*
X190735931Y-133199495D01*
X190735929Y-133199495D01*
X190610261Y-133224492D01*
X190610255Y-133224494D01*
X190491875Y-133273528D01*
X190491866Y-133273533D01*
X190385331Y-133344718D01*
X190385327Y-133344721D01*
X190294726Y-133435322D01*
X190294723Y-133435326D01*
X190223538Y-133541861D01*
X190223533Y-133541870D01*
X190174499Y-133660250D01*
X190174497Y-133660256D01*
X190149500Y-133785923D01*
X190149500Y-133785926D01*
X190149500Y-133914064D01*
X190149500Y-133914066D01*
X190149499Y-133914066D01*
X190174497Y-134039733D01*
X190174499Y-134039739D01*
X190223533Y-134158119D01*
X190223538Y-134158128D01*
X190294723Y-134264663D01*
X190294726Y-134264667D01*
X190317874Y-134287815D01*
X190351359Y-134349138D01*
X190346375Y-134418830D01*
X190304503Y-134474763D01*
X190239039Y-134499180D01*
X190230193Y-134499496D01*
X171036935Y-134499496D01*
X170969896Y-134479811D01*
X170924141Y-134427007D01*
X170914197Y-134357849D01*
X170943222Y-134294293D01*
X170968045Y-134272394D01*
X171013318Y-134242143D01*
X171030600Y-134230596D01*
X171085965Y-134147735D01*
X171100499Y-134074669D01*
X171100499Y-133664067D01*
X176849499Y-133664067D01*
X176874497Y-133789734D01*
X176874499Y-133789740D01*
X176923533Y-133908120D01*
X176923538Y-133908129D01*
X176994723Y-134014664D01*
X176994726Y-134014668D01*
X177085327Y-134105269D01*
X177085331Y-134105272D01*
X177191866Y-134176457D01*
X177191872Y-134176460D01*
X177191873Y-134176461D01*
X177310256Y-134225497D01*
X177310260Y-134225497D01*
X177310261Y-134225498D01*
X177435928Y-134250496D01*
X177435931Y-134250496D01*
X177564071Y-134250496D01*
X177664110Y-134230596D01*
X177689744Y-134225497D01*
X177808127Y-134176461D01*
X177914669Y-134105272D01*
X178005276Y-134014665D01*
X178076465Y-133908123D01*
X178125501Y-133789740D01*
X178139791Y-133717902D01*
X178150500Y-133664067D01*
X178150500Y-133535924D01*
X178125502Y-133410257D01*
X178125501Y-133410256D01*
X178125501Y-133410252D01*
X178076465Y-133291869D01*
X178076464Y-133291868D01*
X178076461Y-133291862D01*
X178005276Y-133185327D01*
X178005273Y-133185323D01*
X177914672Y-133094722D01*
X177914668Y-133094719D01*
X177808133Y-133023534D01*
X177808126Y-133023530D01*
X177805109Y-133022281D01*
X177803771Y-133021203D01*
X177802757Y-133020661D01*
X177802859Y-133020468D01*
X177750705Y-132978440D01*
X177728639Y-132912146D01*
X177745917Y-132844447D01*
X177790560Y-132800332D01*
X177838015Y-132772934D01*
X177940509Y-132670440D01*
X178012984Y-132544910D01*
X178050500Y-132404900D01*
X178050500Y-132259950D01*
X178012984Y-132119940D01*
X178009571Y-132114029D01*
X177940511Y-131994413D01*
X177940506Y-131994407D01*
X177838017Y-131891918D01*
X177838011Y-131891913D01*
X177712488Y-131819442D01*
X177712483Y-131819440D01*
X177699585Y-131815984D01*
X177639925Y-131779619D01*
X177609397Y-131716771D01*
X177617692Y-131647396D01*
X177662179Y-131593518D01*
X177699583Y-131576437D01*
X177712485Y-131572980D01*
X177712488Y-131572978D01*
X177712489Y-131572978D01*
X177775250Y-131536742D01*
X177838015Y-131500505D01*
X177940509Y-131398011D01*
X178012984Y-131272481D01*
X178050500Y-131132471D01*
X178050500Y-130987521D01*
X178012984Y-130847511D01*
X178000491Y-130825873D01*
X177940511Y-130721984D01*
X177940506Y-130721978D01*
X177838017Y-130619489D01*
X177838011Y-130619484D01*
X177712488Y-130547013D01*
X177712485Y-130547011D01*
X177704115Y-130544769D01*
X177644455Y-130508403D01*
X177613927Y-130445555D01*
X177622224Y-130376180D01*
X177666710Y-130322303D01*
X177704117Y-130305221D01*
X177712485Y-130302979D01*
X177838015Y-130230504D01*
X177940509Y-130128010D01*
X177940792Y-130127520D01*
X183899499Y-130127520D01*
X183899499Y-130272470D01*
X183931568Y-130392152D01*
X183937016Y-130412483D01*
X184009487Y-130538006D01*
X184009489Y-130538008D01*
X184009490Y-130538010D01*
X184111984Y-130640504D01*
X184111985Y-130640505D01*
X184111987Y-130640506D01*
X184237510Y-130712977D01*
X184237511Y-130712977D01*
X184237514Y-130712979D01*
X184377524Y-130750495D01*
X184377527Y-130750495D01*
X184522471Y-130750495D01*
X184522474Y-130750495D01*
X184662484Y-130712979D01*
X184788014Y-130640504D01*
X184890508Y-130538010D01*
X184962983Y-130412480D01*
X185000499Y-130272470D01*
X185000499Y-130127520D01*
X185799499Y-130127520D01*
X185799499Y-130272470D01*
X185831568Y-130392152D01*
X185837016Y-130412483D01*
X185909487Y-130538006D01*
X185909489Y-130538008D01*
X185909490Y-130538010D01*
X186011984Y-130640504D01*
X186011985Y-130640505D01*
X186011987Y-130640506D01*
X186137510Y-130712977D01*
X186137511Y-130712977D01*
X186137514Y-130712979D01*
X186277524Y-130750495D01*
X186277527Y-130750495D01*
X186422471Y-130750495D01*
X186422474Y-130750495D01*
X186562484Y-130712979D01*
X186688014Y-130640504D01*
X186790508Y-130538010D01*
X186862983Y-130412480D01*
X186900499Y-130272470D01*
X186900499Y-130127520D01*
X186862983Y-129987510D01*
X186838246Y-129944665D01*
X186790510Y-129861983D01*
X186790505Y-129861977D01*
X186688016Y-129759488D01*
X186688010Y-129759483D01*
X186615328Y-129717520D01*
X191949500Y-129717520D01*
X191949500Y-129862470D01*
X191983004Y-129987506D01*
X191987017Y-130002483D01*
X192059488Y-130128006D01*
X192059490Y-130128008D01*
X192059491Y-130128010D01*
X192161985Y-130230504D01*
X192161986Y-130230505D01*
X192161988Y-130230506D01*
X192287511Y-130302977D01*
X192287512Y-130302977D01*
X192287515Y-130302979D01*
X192314542Y-130310221D01*
X192374201Y-130346584D01*
X192404731Y-130409431D01*
X192396437Y-130478807D01*
X192351952Y-130532685D01*
X192314544Y-130549769D01*
X192287514Y-130557012D01*
X192287511Y-130557013D01*
X192161988Y-130629484D01*
X192161982Y-130629489D01*
X192059493Y-130731978D01*
X192059488Y-130731984D01*
X191987017Y-130857507D01*
X191987016Y-130857511D01*
X191949500Y-130997521D01*
X191949500Y-131142471D01*
X191987016Y-131282481D01*
X191987017Y-131282484D01*
X192059488Y-131408007D01*
X192059490Y-131408009D01*
X192059491Y-131408011D01*
X192161985Y-131510505D01*
X192161986Y-131510506D01*
X192161988Y-131510507D01*
X192287511Y-131582978D01*
X192287512Y-131582978D01*
X192287515Y-131582980D01*
X192427525Y-131620496D01*
X192427528Y-131620496D01*
X192572472Y-131620496D01*
X192572475Y-131620496D01*
X192712485Y-131582980D01*
X192838015Y-131510505D01*
X192940509Y-131408011D01*
X193012984Y-131282481D01*
X193050500Y-131142471D01*
X193050500Y-130997521D01*
X193012984Y-130857511D01*
X193007210Y-130847511D01*
X192940511Y-130731984D01*
X192940506Y-130731978D01*
X192838017Y-130629489D01*
X192838011Y-130629484D01*
X192712488Y-130557013D01*
X192712483Y-130557011D01*
X192685456Y-130549769D01*
X192625796Y-130513404D01*
X192595268Y-130450556D01*
X192603563Y-130381181D01*
X192648049Y-130327304D01*
X192685455Y-130310221D01*
X192712485Y-130302979D01*
X192838015Y-130230504D01*
X192940509Y-130128010D01*
X193012984Y-130002480D01*
X193050500Y-129862470D01*
X193050500Y-129717520D01*
X193017420Y-129594066D01*
X195959072Y-129594066D01*
X195984070Y-129719733D01*
X195984072Y-129719739D01*
X196033106Y-129838119D01*
X196033111Y-129838128D01*
X196104296Y-129944663D01*
X196104299Y-129944667D01*
X196194900Y-130035268D01*
X196194904Y-130035271D01*
X196301439Y-130106456D01*
X196301448Y-130106461D01*
X196328265Y-130117569D01*
X196419829Y-130155496D01*
X196419833Y-130155496D01*
X196419834Y-130155497D01*
X196545501Y-130180495D01*
X196545504Y-130180495D01*
X196673644Y-130180495D01*
X196758188Y-130163677D01*
X196799317Y-130155496D01*
X196917700Y-130106460D01*
X197024242Y-130035271D01*
X197114849Y-129944664D01*
X197186038Y-129838122D01*
X197235074Y-129719739D01*
X197254118Y-129624000D01*
X197260073Y-129594067D01*
X197978137Y-129594067D01*
X198003135Y-129719734D01*
X198003137Y-129719740D01*
X198052171Y-129838120D01*
X198052176Y-129838129D01*
X198123361Y-129944664D01*
X198123364Y-129944668D01*
X198213965Y-130035269D01*
X198213969Y-130035272D01*
X198320504Y-130106457D01*
X198320510Y-130106460D01*
X198320511Y-130106461D01*
X198438894Y-130155497D01*
X198438898Y-130155497D01*
X198438899Y-130155498D01*
X198564566Y-130180496D01*
X198564569Y-130180496D01*
X198692709Y-130180496D01*
X198777253Y-130163678D01*
X198818382Y-130155497D01*
X198936765Y-130106461D01*
X199043307Y-130035272D01*
X199133914Y-129944665D01*
X199205103Y-129838123D01*
X199254139Y-129719740D01*
X199268112Y-129649495D01*
X199279138Y-129594067D01*
X199279138Y-129465924D01*
X199254140Y-129340257D01*
X199254139Y-129340256D01*
X199254139Y-129340252D01*
X199205103Y-129221869D01*
X199205102Y-129221868D01*
X199205099Y-129221862D01*
X199133914Y-129115327D01*
X199133911Y-129115323D01*
X199043310Y-129024722D01*
X199043306Y-129024719D01*
X198936771Y-128953534D01*
X198936762Y-128953529D01*
X198818382Y-128904495D01*
X198818376Y-128904493D01*
X198692709Y-128879496D01*
X198692707Y-128879496D01*
X198564569Y-128879496D01*
X198564567Y-128879496D01*
X198438899Y-128904493D01*
X198438893Y-128904495D01*
X198320513Y-128953529D01*
X198320504Y-128953534D01*
X198213969Y-129024719D01*
X198213965Y-129024722D01*
X198123364Y-129115323D01*
X198123361Y-129115327D01*
X198052176Y-129221862D01*
X198052171Y-129221871D01*
X198003137Y-129340251D01*
X198003135Y-129340257D01*
X197978138Y-129465924D01*
X197978138Y-129465926D01*
X197978138Y-129465927D01*
X197978138Y-129594065D01*
X197978138Y-129594067D01*
X197978137Y-129594067D01*
X197260073Y-129594067D01*
X197260073Y-129594066D01*
X197260073Y-129465923D01*
X197235075Y-129340256D01*
X197235074Y-129340252D01*
X197235074Y-129340251D01*
X197186038Y-129221868D01*
X197186037Y-129221867D01*
X197186034Y-129221861D01*
X197114849Y-129115326D01*
X197114846Y-129115322D01*
X197024245Y-129024721D01*
X197024241Y-129024718D01*
X196917706Y-128953533D01*
X196917697Y-128953528D01*
X196799317Y-128904494D01*
X196799311Y-128904492D01*
X196673644Y-128879495D01*
X196673642Y-128879495D01*
X196545504Y-128879495D01*
X196545502Y-128879495D01*
X196419834Y-128904492D01*
X196419828Y-128904494D01*
X196301448Y-128953528D01*
X196301439Y-128953533D01*
X196194904Y-129024718D01*
X196194900Y-129024721D01*
X196104299Y-129115322D01*
X196104296Y-129115326D01*
X196033111Y-129221861D01*
X196033106Y-129221870D01*
X195984072Y-129340250D01*
X195984070Y-129340256D01*
X195959073Y-129465923D01*
X195959073Y-129465924D01*
X195959073Y-129465926D01*
X195959073Y-129594064D01*
X195959073Y-129594066D01*
X195959072Y-129594066D01*
X193017420Y-129594066D01*
X193012984Y-129577510D01*
X192940509Y-129451980D01*
X192838015Y-129349486D01*
X192838013Y-129349485D01*
X192838011Y-129349483D01*
X192712488Y-129277012D01*
X192712489Y-129277012D01*
X192700569Y-129273818D01*
X192572475Y-129239495D01*
X192427525Y-129239495D01*
X192299431Y-129273818D01*
X192287511Y-129277012D01*
X192161988Y-129349483D01*
X192161982Y-129349488D01*
X192059493Y-129451977D01*
X192059488Y-129451983D01*
X191987017Y-129577506D01*
X191987016Y-129577510D01*
X191949500Y-129717520D01*
X186615328Y-129717520D01*
X186562487Y-129687012D01*
X186562488Y-129687012D01*
X186551005Y-129683935D01*
X186422474Y-129649495D01*
X186277524Y-129649495D01*
X186148992Y-129683935D01*
X186137510Y-129687012D01*
X186011987Y-129759483D01*
X186011981Y-129759488D01*
X185909492Y-129861977D01*
X185909487Y-129861983D01*
X185837016Y-129987506D01*
X185837015Y-129987510D01*
X185799499Y-130127520D01*
X185000499Y-130127520D01*
X184962983Y-129987510D01*
X184938246Y-129944665D01*
X184890510Y-129861983D01*
X184890505Y-129861977D01*
X184788016Y-129759488D01*
X184788010Y-129759483D01*
X184662487Y-129687012D01*
X184662488Y-129687012D01*
X184651005Y-129683935D01*
X184522474Y-129649495D01*
X184377524Y-129649495D01*
X184248992Y-129683935D01*
X184237510Y-129687012D01*
X184111987Y-129759483D01*
X184111981Y-129759488D01*
X184009492Y-129861977D01*
X184009487Y-129861983D01*
X183937016Y-129987506D01*
X183937015Y-129987510D01*
X183899499Y-130127520D01*
X177940792Y-130127520D01*
X178012984Y-130002480D01*
X178050500Y-129862470D01*
X178050500Y-129717520D01*
X178012984Y-129577510D01*
X177974703Y-129511206D01*
X177940511Y-129451983D01*
X177940506Y-129451977D01*
X177838017Y-129349488D01*
X177838011Y-129349483D01*
X177712488Y-129277012D01*
X177712485Y-129277011D01*
X177708503Y-129275944D01*
X177705523Y-129274127D01*
X177704981Y-129273903D01*
X177705016Y-129273818D01*
X177648845Y-129239581D01*
X177618315Y-129176734D01*
X177626609Y-129107358D01*
X177671094Y-129053480D01*
X177708502Y-129036396D01*
X177712485Y-129035329D01*
X177838015Y-128962854D01*
X177940509Y-128860360D01*
X178012984Y-128734830D01*
X178050500Y-128594820D01*
X178050500Y-128449870D01*
X178012984Y-128309860D01*
X177940509Y-128184330D01*
X177838015Y-128081836D01*
X177838013Y-128081835D01*
X177838011Y-128081833D01*
X177712488Y-128009362D01*
X177712489Y-128009362D01*
X177701006Y-128006285D01*
X177572475Y-127971845D01*
X177427525Y-127971845D01*
X177298993Y-128006285D01*
X177287511Y-128009362D01*
X177161988Y-128081833D01*
X177161982Y-128081838D01*
X177059493Y-128184327D01*
X177059488Y-128184333D01*
X176987017Y-128309856D01*
X176987016Y-128309860D01*
X176949500Y-128449870D01*
X176949500Y-128594820D01*
X176987016Y-128734830D01*
X176987017Y-128734833D01*
X177059488Y-128860356D01*
X177059490Y-128860358D01*
X177059491Y-128860360D01*
X177161985Y-128962854D01*
X177161986Y-128962855D01*
X177161988Y-128962856D01*
X177287511Y-129035327D01*
X177287512Y-129035327D01*
X177287515Y-129035329D01*
X177289455Y-129035848D01*
X177291496Y-129036396D01*
X177294474Y-129038211D01*
X177295019Y-129038437D01*
X177294983Y-129038521D01*
X177351156Y-129072761D01*
X177381684Y-129135609D01*
X177373389Y-129204984D01*
X177328903Y-129258861D01*
X177291496Y-129275944D01*
X177287516Y-129277010D01*
X177287511Y-129277012D01*
X177161988Y-129349483D01*
X177161982Y-129349488D01*
X177059493Y-129451977D01*
X177059488Y-129451983D01*
X176987017Y-129577506D01*
X176987016Y-129577510D01*
X176949500Y-129717520D01*
X176949500Y-129862470D01*
X176983004Y-129987506D01*
X176987017Y-130002483D01*
X177059488Y-130128006D01*
X177059490Y-130128008D01*
X177059491Y-130128010D01*
X177161985Y-130230504D01*
X177161986Y-130230505D01*
X177161988Y-130230506D01*
X177287511Y-130302977D01*
X177287512Y-130302977D01*
X177287515Y-130302979D01*
X177295879Y-130305220D01*
X177355540Y-130341583D01*
X177386071Y-130404430D01*
X177377777Y-130473805D01*
X177333293Y-130527684D01*
X177295886Y-130544768D01*
X177287515Y-130547012D01*
X177287514Y-130547012D01*
X177287512Y-130547013D01*
X177287511Y-130547013D01*
X177161988Y-130619484D01*
X177161982Y-130619489D01*
X177059493Y-130721978D01*
X177059488Y-130721984D01*
X176987017Y-130847507D01*
X176987016Y-130847511D01*
X176949500Y-130987521D01*
X176949500Y-131132471D01*
X176976549Y-131233417D01*
X176987017Y-131272484D01*
X177059488Y-131398007D01*
X177059490Y-131398009D01*
X177059491Y-131398011D01*
X177161985Y-131500505D01*
X177161986Y-131500506D01*
X177161988Y-131500507D01*
X177287511Y-131572978D01*
X177287514Y-131572980D01*
X177294253Y-131574785D01*
X177300410Y-131576435D01*
X177360071Y-131612798D01*
X177390602Y-131675645D01*
X177382308Y-131745021D01*
X177337824Y-131798899D01*
X177300416Y-131815984D01*
X177287513Y-131819441D01*
X177287511Y-131819442D01*
X177161988Y-131891913D01*
X177161982Y-131891918D01*
X177059493Y-131994407D01*
X177059488Y-131994413D01*
X176987017Y-132119936D01*
X176987016Y-132119940D01*
X176949500Y-132259950D01*
X176949500Y-132404900D01*
X176970445Y-132483067D01*
X176987017Y-132544913D01*
X177059488Y-132670436D01*
X177059490Y-132670438D01*
X177059491Y-132670440D01*
X177161985Y-132772934D01*
X177209440Y-132800332D01*
X177257655Y-132850900D01*
X177270877Y-132919507D01*
X177244909Y-132984371D01*
X177197181Y-133020545D01*
X177197243Y-133020661D01*
X177196519Y-133021047D01*
X177194895Y-133022279D01*
X177191875Y-133023529D01*
X177191866Y-133023534D01*
X177085331Y-133094719D01*
X177085327Y-133094722D01*
X176994726Y-133185323D01*
X176994723Y-133185327D01*
X176923538Y-133291862D01*
X176923533Y-133291871D01*
X176874499Y-133410251D01*
X176874497Y-133410257D01*
X176849500Y-133535924D01*
X176849500Y-133535927D01*
X176849500Y-133664065D01*
X176849500Y-133664067D01*
X176849499Y-133664067D01*
X171100499Y-133664067D01*
X171100499Y-132325321D01*
X171100499Y-132325318D01*
X171100498Y-132325316D01*
X171085966Y-132252259D01*
X171085965Y-132252255D01*
X171043282Y-132188375D01*
X171030600Y-132169394D01*
X170947739Y-132114029D01*
X170947738Y-132114028D01*
X170947734Y-132114027D01*
X170874676Y-132099495D01*
X170874673Y-132099495D01*
X169125325Y-132099495D01*
X169125322Y-132099495D01*
X169052263Y-132114027D01*
X169052259Y-132114028D01*
X168969398Y-132169394D01*
X168914032Y-132252255D01*
X168914031Y-132252259D01*
X168899499Y-132325316D01*
X168899499Y-134074673D01*
X168914031Y-134147730D01*
X168914032Y-134147734D01*
X168914033Y-134147735D01*
X168965990Y-134225496D01*
X168969399Y-134230597D01*
X169031953Y-134272394D01*
X169076759Y-134326006D01*
X169085466Y-134395331D01*
X169055312Y-134458358D01*
X168995869Y-134495078D01*
X168963063Y-134499496D01*
X167804742Y-134499496D01*
X167737703Y-134479811D01*
X167691948Y-134427007D01*
X167682004Y-134357849D01*
X167711029Y-134294293D01*
X167766422Y-134257565D01*
X167882444Y-134219868D01*
X168036787Y-134141227D01*
X168176927Y-134039409D01*
X168299413Y-133916923D01*
X168401231Y-133776783D01*
X168479872Y-133622440D01*
X168533401Y-133457696D01*
X168560499Y-133286606D01*
X168560499Y-133113384D01*
X168533401Y-132942294D01*
X168479872Y-132777550D01*
X168401231Y-132623207D01*
X168299413Y-132483067D01*
X168176927Y-132360581D01*
X168036787Y-132258763D01*
X167882444Y-132180122D01*
X167717700Y-132126593D01*
X167717698Y-132126592D01*
X167717697Y-132126592D01*
X167586270Y-132105776D01*
X167546610Y-132099495D01*
X167373388Y-132099495D01*
X167333727Y-132105776D01*
X167202301Y-132126592D01*
X167037551Y-132180123D01*
X166883210Y-132258763D01*
X166881574Y-132259952D01*
X166743071Y-132360581D01*
X166743069Y-132360583D01*
X166743068Y-132360583D01*
X166620587Y-132483064D01*
X166620587Y-132483065D01*
X166620585Y-132483067D01*
X166606738Y-132502126D01*
X166518767Y-132623206D01*
X166440127Y-132777547D01*
X166386596Y-132942297D01*
X166373730Y-133023530D01*
X166359499Y-133113384D01*
X166359499Y-133286606D01*
X166360333Y-133291869D01*
X166379082Y-133410252D01*
X166386597Y-133457696D01*
X166440126Y-133622440D01*
X166518767Y-133776783D01*
X166620585Y-133916923D01*
X166743071Y-134039409D01*
X166883211Y-134141227D01*
X167037554Y-134219868D01*
X167153575Y-134257565D01*
X167211250Y-134297003D01*
X167238448Y-134361361D01*
X167226533Y-134430208D01*
X167179289Y-134481683D01*
X167115256Y-134499496D01*
X165264742Y-134499496D01*
X165197703Y-134479811D01*
X165151948Y-134427007D01*
X165142004Y-134357849D01*
X165171029Y-134294293D01*
X165226422Y-134257565D01*
X165342444Y-134219868D01*
X165496787Y-134141227D01*
X165636927Y-134039409D01*
X165759413Y-133916923D01*
X165861231Y-133776783D01*
X165939872Y-133622440D01*
X165993401Y-133457696D01*
X166020499Y-133286606D01*
X166020499Y-133113384D01*
X165993401Y-132942294D01*
X165939872Y-132777550D01*
X165861231Y-132623207D01*
X165759413Y-132483067D01*
X165636927Y-132360581D01*
X165496787Y-132258763D01*
X165342444Y-132180122D01*
X165177700Y-132126593D01*
X165177698Y-132126592D01*
X165177697Y-132126592D01*
X165046270Y-132105776D01*
X165006610Y-132099495D01*
X164833388Y-132099495D01*
X164793727Y-132105776D01*
X164662301Y-132126592D01*
X164497551Y-132180123D01*
X164343210Y-132258763D01*
X164341574Y-132259952D01*
X164203071Y-132360581D01*
X164203069Y-132360583D01*
X164203068Y-132360583D01*
X164080587Y-132483064D01*
X164080587Y-132483065D01*
X164080585Y-132483067D01*
X164066738Y-132502126D01*
X163978767Y-132623206D01*
X163900127Y-132777547D01*
X163846596Y-132942297D01*
X163833730Y-133023530D01*
X163819499Y-133113384D01*
X163819499Y-133286606D01*
X163820333Y-133291869D01*
X163839082Y-133410252D01*
X163846597Y-133457696D01*
X163900126Y-133622440D01*
X163978767Y-133776783D01*
X164080585Y-133916923D01*
X164203071Y-134039409D01*
X164343211Y-134141227D01*
X164497554Y-134219868D01*
X164613575Y-134257565D01*
X164671250Y-134297003D01*
X164698448Y-134361361D01*
X164686533Y-134430208D01*
X164639289Y-134481683D01*
X164575256Y-134499496D01*
X163124000Y-134499496D01*
X163056961Y-134479811D01*
X163011206Y-134427007D01*
X163000000Y-134375496D01*
X163000000Y-129624000D01*
X163019685Y-129556961D01*
X163072489Y-129511206D01*
X163124000Y-129500000D01*
X169000000Y-129500000D01*
X169000000Y-125107520D01*
X184549500Y-125107520D01*
X184549500Y-125252470D01*
X184585272Y-125385970D01*
X184587017Y-125392483D01*
X184659488Y-125518006D01*
X184659490Y-125518008D01*
X184659491Y-125518010D01*
X184761985Y-125620504D01*
X184761986Y-125620505D01*
X184761988Y-125620506D01*
X184887511Y-125692977D01*
X184887512Y-125692977D01*
X184887515Y-125692979D01*
X185027525Y-125730495D01*
X185027528Y-125730495D01*
X185125500Y-125730495D01*
X185192539Y-125750180D01*
X185238294Y-125802984D01*
X185249500Y-125854495D01*
X185249500Y-125905495D01*
X185229815Y-125972534D01*
X185177011Y-126018289D01*
X185125500Y-126029495D01*
X185027525Y-126029495D01*
X184922309Y-126057688D01*
X184887511Y-126067012D01*
X184761988Y-126139483D01*
X184761982Y-126139488D01*
X184659493Y-126241977D01*
X184659488Y-126241983D01*
X184587017Y-126367506D01*
X184587016Y-126367510D01*
X184549500Y-126507520D01*
X184549500Y-126652470D01*
X184581877Y-126773302D01*
X184587017Y-126792483D01*
X184659488Y-126918006D01*
X184659490Y-126918008D01*
X184659491Y-126918010D01*
X184761985Y-127020504D01*
X184761986Y-127020505D01*
X184761988Y-127020506D01*
X184887511Y-127092977D01*
X184887512Y-127092977D01*
X184887515Y-127092979D01*
X185027525Y-127130495D01*
X185027528Y-127130495D01*
X185125500Y-127130495D01*
X185192539Y-127150180D01*
X185238294Y-127202984D01*
X185249500Y-127254495D01*
X185249500Y-127352470D01*
X185287016Y-127492480D01*
X185287017Y-127492483D01*
X185359488Y-127618006D01*
X185359490Y-127618008D01*
X185359491Y-127618010D01*
X185461985Y-127720504D01*
X185461986Y-127720505D01*
X185461988Y-127720506D01*
X185587511Y-127792977D01*
X185587512Y-127792977D01*
X185587515Y-127792979D01*
X185727525Y-127830495D01*
X185727528Y-127830495D01*
X185872472Y-127830495D01*
X185872475Y-127830495D01*
X186012485Y-127792979D01*
X186138015Y-127720504D01*
X186240509Y-127618010D01*
X186312984Y-127492480D01*
X186350500Y-127352470D01*
X186350500Y-127254495D01*
X186370185Y-127187456D01*
X186422989Y-127141701D01*
X186474500Y-127130495D01*
X186525500Y-127130495D01*
X186592539Y-127150180D01*
X186638294Y-127202984D01*
X186649500Y-127254495D01*
X186649500Y-127352470D01*
X186687016Y-127492480D01*
X186687017Y-127492483D01*
X186759488Y-127618006D01*
X186759490Y-127618008D01*
X186759491Y-127618010D01*
X186861985Y-127720504D01*
X186861986Y-127720505D01*
X186861988Y-127720506D01*
X186987511Y-127792977D01*
X186987512Y-127792977D01*
X186987515Y-127792979D01*
X187127525Y-127830495D01*
X187127528Y-127830495D01*
X187272472Y-127830495D01*
X187272475Y-127830495D01*
X187412485Y-127792979D01*
X187538015Y-127720504D01*
X187640509Y-127618010D01*
X187712984Y-127492480D01*
X187750500Y-127352470D01*
X187750500Y-127254495D01*
X187770185Y-127187456D01*
X187822989Y-127141701D01*
X187874500Y-127130495D01*
X187972472Y-127130495D01*
X187972475Y-127130495D01*
X188112485Y-127092979D01*
X188238015Y-127020504D01*
X188340509Y-126918010D01*
X188412984Y-126792480D01*
X188450500Y-126652470D01*
X188450500Y-126507520D01*
X188412984Y-126367510D01*
X188384406Y-126318012D01*
X188340511Y-126241983D01*
X188340506Y-126241977D01*
X188238017Y-126139488D01*
X188238011Y-126139483D01*
X188112488Y-126067012D01*
X188112489Y-126067012D01*
X188077691Y-126057688D01*
X187972475Y-126029495D01*
X187874500Y-126029495D01*
X187865814Y-126026944D01*
X187856853Y-126028233D01*
X187832812Y-126017254D01*
X187807461Y-126009810D01*
X187801533Y-126002969D01*
X187793297Y-125999208D01*
X187779007Y-125976973D01*
X187761706Y-125957006D01*
X187759418Y-125946491D01*
X187755523Y-125940430D01*
X187750791Y-125907520D01*
X191949499Y-125907520D01*
X191949499Y-126052470D01*
X191987015Y-126192480D01*
X191987016Y-126192483D01*
X192059487Y-126318006D01*
X192059489Y-126318008D01*
X192059490Y-126318010D01*
X192161984Y-126420504D01*
X192161985Y-126420505D01*
X192161987Y-126420506D01*
X192287510Y-126492977D01*
X192287511Y-126492977D01*
X192287514Y-126492979D01*
X192291385Y-126494016D01*
X192295880Y-126495221D01*
X192355540Y-126531586D01*
X192386068Y-126594434D01*
X192377773Y-126663809D01*
X192333287Y-126717686D01*
X192295880Y-126734769D01*
X192287515Y-126737010D01*
X192287510Y-126737012D01*
X192161987Y-126809483D01*
X192161981Y-126809488D01*
X192059492Y-126911977D01*
X192059487Y-126911983D01*
X191987016Y-127037506D01*
X191985907Y-127041644D01*
X191949499Y-127177520D01*
X191949499Y-127322470D01*
X191957537Y-127352467D01*
X191987016Y-127462483D01*
X192059487Y-127588006D01*
X192059489Y-127588008D01*
X192059490Y-127588010D01*
X192161984Y-127690504D01*
X192161985Y-127690505D01*
X192161987Y-127690506D01*
X192287510Y-127762977D01*
X192287511Y-127762977D01*
X192287514Y-127762979D01*
X192427524Y-127800495D01*
X192427527Y-127800495D01*
X192572471Y-127800495D01*
X192572474Y-127800495D01*
X192712484Y-127762979D01*
X192838014Y-127690504D01*
X192940508Y-127588010D01*
X193012983Y-127462480D01*
X193050499Y-127322470D01*
X193050499Y-127177520D01*
X193012983Y-127037510D01*
X192974266Y-126970451D01*
X192940510Y-126911983D01*
X192940505Y-126911977D01*
X192838016Y-126809488D01*
X192838010Y-126809483D01*
X192712486Y-126737012D01*
X192712485Y-126737011D01*
X192712484Y-126737011D01*
X192704117Y-126734769D01*
X192644458Y-126698405D01*
X192613929Y-126635558D01*
X192622224Y-126566183D01*
X192652719Y-126529249D01*
X205641907Y-126529249D01*
X205666905Y-126654916D01*
X205666907Y-126654922D01*
X205715941Y-126773302D01*
X205715946Y-126773311D01*
X205787131Y-126879846D01*
X205787134Y-126879850D01*
X205877735Y-126970451D01*
X205877739Y-126970454D01*
X205984274Y-127041639D01*
X205984280Y-127041642D01*
X205984281Y-127041643D01*
X206102664Y-127090679D01*
X206102668Y-127090679D01*
X206102669Y-127090680D01*
X206228336Y-127115678D01*
X206228339Y-127115678D01*
X206356479Y-127115678D01*
X206470599Y-127092977D01*
X206482152Y-127090679D01*
X206600535Y-127041643D01*
X206707077Y-126970454D01*
X206797684Y-126879847D01*
X206868873Y-126773305D01*
X206917909Y-126654922D01*
X206933700Y-126575538D01*
X206942908Y-126529249D01*
X206942908Y-126401106D01*
X206917910Y-126275439D01*
X206917909Y-126275438D01*
X206917909Y-126275434D01*
X206868873Y-126157051D01*
X206868872Y-126157050D01*
X206868869Y-126157044D01*
X206797684Y-126050509D01*
X206797681Y-126050505D01*
X206707080Y-125959904D01*
X206707076Y-125959901D01*
X206600541Y-125888716D01*
X206600532Y-125888711D01*
X206482152Y-125839677D01*
X206482146Y-125839675D01*
X206356479Y-125814678D01*
X206356477Y-125814678D01*
X206228339Y-125814678D01*
X206228337Y-125814678D01*
X206102669Y-125839675D01*
X206102663Y-125839677D01*
X205984283Y-125888711D01*
X205984274Y-125888716D01*
X205877739Y-125959901D01*
X205877735Y-125959904D01*
X205787134Y-126050505D01*
X205787131Y-126050509D01*
X205715946Y-126157044D01*
X205715941Y-126157053D01*
X205666907Y-126275433D01*
X205666905Y-126275439D01*
X205641908Y-126401106D01*
X205641908Y-126401109D01*
X205641908Y-126529247D01*
X205641908Y-126529249D01*
X205641907Y-126529249D01*
X192652719Y-126529249D01*
X192666709Y-126512305D01*
X192704116Y-126495221D01*
X192712484Y-126492979D01*
X192838014Y-126420504D01*
X192940508Y-126318010D01*
X193012983Y-126192480D01*
X193050499Y-126052470D01*
X193050499Y-125907520D01*
X193012983Y-125767510D01*
X193002977Y-125750180D01*
X192940510Y-125641983D01*
X192940505Y-125641977D01*
X192838016Y-125539488D01*
X192838010Y-125539483D01*
X192712487Y-125467012D01*
X192712488Y-125467012D01*
X192701005Y-125463935D01*
X192572474Y-125429495D01*
X192427524Y-125429495D01*
X192298992Y-125463935D01*
X192287510Y-125467012D01*
X192161987Y-125539483D01*
X192161981Y-125539488D01*
X192059492Y-125641977D01*
X192059487Y-125641983D01*
X191987016Y-125767506D01*
X191987015Y-125767510D01*
X191949499Y-125907520D01*
X187750791Y-125907520D01*
X187750500Y-125905495D01*
X187750500Y-125854495D01*
X187770185Y-125787456D01*
X187822989Y-125741701D01*
X187874500Y-125730495D01*
X187972472Y-125730495D01*
X187972475Y-125730495D01*
X188112485Y-125692979D01*
X188238015Y-125620504D01*
X188340509Y-125518010D01*
X188412984Y-125392480D01*
X188414728Y-125385972D01*
X201149499Y-125385972D01*
X201174497Y-125511639D01*
X201174499Y-125511645D01*
X201223533Y-125630025D01*
X201223538Y-125630034D01*
X201294723Y-125736569D01*
X201294726Y-125736573D01*
X201385327Y-125827174D01*
X201385331Y-125827177D01*
X201491866Y-125898362D01*
X201491872Y-125898365D01*
X201491873Y-125898366D01*
X201610256Y-125947402D01*
X201610260Y-125947402D01*
X201610261Y-125947403D01*
X201735928Y-125972401D01*
X201735931Y-125972401D01*
X201864071Y-125972401D01*
X201964266Y-125952470D01*
X201989744Y-125947402D01*
X202108127Y-125898366D01*
X202214669Y-125827177D01*
X202305276Y-125736570D01*
X202376465Y-125630028D01*
X202425501Y-125511645D01*
X202434379Y-125467012D01*
X202450500Y-125385972D01*
X202450500Y-125257829D01*
X202425502Y-125132162D01*
X202425501Y-125132161D01*
X202425501Y-125132157D01*
X202376465Y-125013774D01*
X202376464Y-125013773D01*
X202376461Y-125013767D01*
X202305276Y-124907232D01*
X202305273Y-124907228D01*
X202214672Y-124816627D01*
X202214668Y-124816624D01*
X202108133Y-124745439D01*
X202108124Y-124745434D01*
X201989744Y-124696400D01*
X201989738Y-124696398D01*
X201864071Y-124671401D01*
X201864069Y-124671401D01*
X201735931Y-124671401D01*
X201735929Y-124671401D01*
X201610261Y-124696398D01*
X201610255Y-124696400D01*
X201491875Y-124745434D01*
X201491866Y-124745439D01*
X201385331Y-124816624D01*
X201385327Y-124816627D01*
X201294726Y-124907228D01*
X201294723Y-124907232D01*
X201223538Y-125013767D01*
X201223533Y-125013776D01*
X201174499Y-125132156D01*
X201174497Y-125132162D01*
X201149500Y-125257829D01*
X201149500Y-125257832D01*
X201149500Y-125385970D01*
X201149500Y-125385972D01*
X201149499Y-125385972D01*
X188414728Y-125385972D01*
X188450500Y-125252470D01*
X188450500Y-125107520D01*
X188412984Y-124967510D01*
X188378182Y-124907232D01*
X188340511Y-124841983D01*
X188340506Y-124841977D01*
X188238017Y-124739488D01*
X188238011Y-124739483D01*
X188112488Y-124667012D01*
X188112489Y-124667012D01*
X188077691Y-124657688D01*
X187972475Y-124629495D01*
X187874500Y-124629495D01*
X187807461Y-124609810D01*
X187761706Y-124557006D01*
X187750500Y-124505495D01*
X187750500Y-124407522D01*
X187750500Y-124407520D01*
X187712984Y-124267510D01*
X187679883Y-124210178D01*
X187640511Y-124141983D01*
X187640506Y-124141977D01*
X187538017Y-124039488D01*
X187538011Y-124039483D01*
X187412488Y-123967012D01*
X187412489Y-123967012D01*
X187401006Y-123963935D01*
X187272475Y-123929495D01*
X187127525Y-123929495D01*
X186998993Y-123963935D01*
X186987511Y-123967012D01*
X186861988Y-124039483D01*
X186861982Y-124039488D01*
X186759493Y-124141977D01*
X186759488Y-124141983D01*
X186687017Y-124267506D01*
X186687016Y-124267510D01*
X186649500Y-124407520D01*
X186649500Y-124407522D01*
X186649500Y-124505495D01*
X186629815Y-124572534D01*
X186577011Y-124618289D01*
X186525500Y-124629495D01*
X186474500Y-124629495D01*
X186407461Y-124609810D01*
X186361706Y-124557006D01*
X186350500Y-124505495D01*
X186350500Y-124407522D01*
X186350500Y-124407520D01*
X186312984Y-124267510D01*
X186279883Y-124210178D01*
X186240511Y-124141983D01*
X186240506Y-124141977D01*
X186138017Y-124039488D01*
X186138011Y-124039483D01*
X186012488Y-123967012D01*
X186012489Y-123967012D01*
X186001006Y-123963935D01*
X185872475Y-123929495D01*
X185727525Y-123929495D01*
X185598993Y-123963935D01*
X185587511Y-123967012D01*
X185461988Y-124039483D01*
X185461982Y-124039488D01*
X185359493Y-124141977D01*
X185359488Y-124141983D01*
X185287017Y-124267506D01*
X185287016Y-124267510D01*
X185249500Y-124407520D01*
X185249500Y-124407522D01*
X185249500Y-124505495D01*
X185229815Y-124572534D01*
X185177011Y-124618289D01*
X185125500Y-124629495D01*
X185027525Y-124629495D01*
X184922309Y-124657688D01*
X184887511Y-124667012D01*
X184761988Y-124739483D01*
X184761982Y-124739488D01*
X184659493Y-124841977D01*
X184659488Y-124841983D01*
X184587017Y-124967506D01*
X184587016Y-124967510D01*
X184549500Y-125107520D01*
X169000000Y-125107520D01*
X169000000Y-123859581D01*
X171214882Y-123859581D01*
X171239880Y-123985248D01*
X171239882Y-123985254D01*
X171288916Y-124103634D01*
X171288921Y-124103643D01*
X171360106Y-124210178D01*
X171360109Y-124210182D01*
X171450710Y-124300783D01*
X171450714Y-124300786D01*
X171557249Y-124371971D01*
X171557255Y-124371974D01*
X171557256Y-124371975D01*
X171675639Y-124421011D01*
X171675643Y-124421011D01*
X171675644Y-124421012D01*
X171801311Y-124446010D01*
X171801314Y-124446010D01*
X171929454Y-124446010D01*
X172013998Y-124429192D01*
X172055127Y-124421011D01*
X172173510Y-124371975D01*
X172280052Y-124300786D01*
X172370659Y-124210179D01*
X172441848Y-124103637D01*
X172490884Y-123985254D01*
X172499065Y-123944125D01*
X172515883Y-123859581D01*
X172515883Y-123731438D01*
X172490885Y-123605771D01*
X172490884Y-123605770D01*
X172490884Y-123605766D01*
X172441848Y-123487383D01*
X172441847Y-123487382D01*
X172441844Y-123487376D01*
X172370659Y-123380841D01*
X172370656Y-123380837D01*
X172280055Y-123290236D01*
X172280051Y-123290233D01*
X172173516Y-123219048D01*
X172173507Y-123219043D01*
X172055127Y-123170009D01*
X172055121Y-123170007D01*
X171929454Y-123145010D01*
X171929452Y-123145010D01*
X171801314Y-123145010D01*
X171801312Y-123145010D01*
X171675644Y-123170007D01*
X171675638Y-123170009D01*
X171557258Y-123219043D01*
X171557249Y-123219048D01*
X171450714Y-123290233D01*
X171450710Y-123290236D01*
X171360109Y-123380837D01*
X171360106Y-123380841D01*
X171288921Y-123487376D01*
X171288916Y-123487385D01*
X171239882Y-123605765D01*
X171239880Y-123605771D01*
X171214883Y-123731438D01*
X171214883Y-123731441D01*
X171214883Y-123859579D01*
X171214883Y-123859581D01*
X171214882Y-123859581D01*
X169000000Y-123859581D01*
X169000000Y-122864067D01*
X201149499Y-122864067D01*
X201174497Y-122989734D01*
X201174499Y-122989740D01*
X201223533Y-123108120D01*
X201223538Y-123108129D01*
X201294723Y-123214664D01*
X201294726Y-123214668D01*
X201385327Y-123305269D01*
X201385331Y-123305272D01*
X201491866Y-123376457D01*
X201491875Y-123376462D01*
X201502447Y-123380841D01*
X201610256Y-123425497D01*
X201610260Y-123425497D01*
X201610261Y-123425498D01*
X201735928Y-123450496D01*
X201735931Y-123450496D01*
X201864071Y-123450496D01*
X201948615Y-123433678D01*
X201989744Y-123425497D01*
X202108127Y-123376461D01*
X202214669Y-123305272D01*
X202305276Y-123214665D01*
X202376465Y-123108123D01*
X202425501Y-122989740D01*
X202450500Y-122864065D01*
X202450500Y-122735927D01*
X202450500Y-122735924D01*
X202425502Y-122610257D01*
X202425501Y-122610256D01*
X202425501Y-122610252D01*
X202376465Y-122491869D01*
X202376464Y-122491868D01*
X202376461Y-122491862D01*
X202305276Y-122385327D01*
X202305273Y-122385323D01*
X202214672Y-122294722D01*
X202214668Y-122294719D01*
X202108133Y-122223534D01*
X202108124Y-122223529D01*
X201989744Y-122174495D01*
X201989738Y-122174493D01*
X201864071Y-122149496D01*
X201864069Y-122149496D01*
X201735931Y-122149496D01*
X201735929Y-122149496D01*
X201610261Y-122174493D01*
X201610255Y-122174495D01*
X201491875Y-122223529D01*
X201491866Y-122223534D01*
X201385331Y-122294719D01*
X201385327Y-122294722D01*
X201294726Y-122385323D01*
X201294723Y-122385327D01*
X201223538Y-122491862D01*
X201223533Y-122491871D01*
X201174499Y-122610251D01*
X201174497Y-122610257D01*
X201149500Y-122735924D01*
X201149500Y-122735927D01*
X201149500Y-122864065D01*
X201149500Y-122864067D01*
X201149499Y-122864067D01*
X169000000Y-122864067D01*
X169000000Y-122097520D01*
X176949500Y-122097520D01*
X176949500Y-122242470D01*
X176975016Y-122337696D01*
X176987017Y-122382483D01*
X177059488Y-122508006D01*
X177059490Y-122508008D01*
X177059491Y-122508010D01*
X177161985Y-122610504D01*
X177161986Y-122610505D01*
X177161988Y-122610506D01*
X177287511Y-122682977D01*
X177287512Y-122682977D01*
X177287515Y-122682979D01*
X177427525Y-122720495D01*
X177427528Y-122720495D01*
X177572472Y-122720495D01*
X177572475Y-122720495D01*
X177712485Y-122682979D01*
X177838015Y-122610504D01*
X177940509Y-122508010D01*
X178012984Y-122382480D01*
X178050500Y-122242470D01*
X178050500Y-122097520D01*
X178022598Y-121993388D01*
X203634500Y-121993388D01*
X203634500Y-122166609D01*
X203654790Y-122294720D01*
X203661598Y-122337700D01*
X203715127Y-122502444D01*
X203793768Y-122656787D01*
X203895586Y-122796927D01*
X204018072Y-122919413D01*
X204158212Y-123021231D01*
X204312555Y-123099872D01*
X204477299Y-123153401D01*
X204648389Y-123180499D01*
X204648390Y-123180499D01*
X204821610Y-123180499D01*
X204821611Y-123180499D01*
X204992701Y-123153401D01*
X205157445Y-123099872D01*
X205311788Y-123021231D01*
X205451928Y-122919413D01*
X205574414Y-122796927D01*
X205676232Y-122656787D01*
X205754873Y-122502444D01*
X205808402Y-122337700D01*
X205835500Y-122166610D01*
X205835500Y-121993388D01*
X205808402Y-121822298D01*
X205754873Y-121657554D01*
X205676232Y-121503211D01*
X205574414Y-121363071D01*
X205451928Y-121240585D01*
X205403390Y-121205320D01*
X206174500Y-121205320D01*
X206174500Y-122954677D01*
X206189032Y-123027734D01*
X206189033Y-123027738D01*
X206189034Y-123027739D01*
X206244399Y-123110600D01*
X206327260Y-123165965D01*
X206327264Y-123165966D01*
X206400321Y-123180498D01*
X206400324Y-123180499D01*
X206400326Y-123180499D01*
X208149676Y-123180499D01*
X208149677Y-123180498D01*
X208222740Y-123165965D01*
X208305601Y-123110600D01*
X208360966Y-123027739D01*
X208375500Y-122954673D01*
X208375500Y-121205325D01*
X208375500Y-121205322D01*
X208375499Y-121205320D01*
X208360967Y-121132263D01*
X208360966Y-121132259D01*
X208332395Y-121089499D01*
X208305601Y-121049398D01*
X208222740Y-120994033D01*
X208222739Y-120994032D01*
X208222735Y-120994031D01*
X208149677Y-120979499D01*
X208149674Y-120979499D01*
X206400326Y-120979499D01*
X206400323Y-120979499D01*
X206327264Y-120994031D01*
X206327260Y-120994032D01*
X206244399Y-121049398D01*
X206189033Y-121132259D01*
X206189032Y-121132263D01*
X206174500Y-121205320D01*
X205403390Y-121205320D01*
X205311788Y-121138767D01*
X205157445Y-121060126D01*
X204992701Y-121006597D01*
X204992699Y-121006596D01*
X204992698Y-121006596D01*
X204861271Y-120985780D01*
X204821611Y-120979499D01*
X204648389Y-120979499D01*
X204608728Y-120985780D01*
X204477302Y-121006596D01*
X204312552Y-121060127D01*
X204158211Y-121138767D01*
X204078256Y-121196858D01*
X204018072Y-121240585D01*
X204018070Y-121240587D01*
X204018069Y-121240587D01*
X203895588Y-121363068D01*
X203895588Y-121363069D01*
X203895586Y-121363071D01*
X203851859Y-121423255D01*
X203793768Y-121503210D01*
X203715128Y-121657551D01*
X203661597Y-121822301D01*
X203634500Y-121993388D01*
X178022598Y-121993388D01*
X178012984Y-121957510D01*
X177940509Y-121831980D01*
X177838015Y-121729486D01*
X177838013Y-121729485D01*
X177838011Y-121729483D01*
X177712488Y-121657012D01*
X177712489Y-121657012D01*
X177701006Y-121653935D01*
X177572475Y-121619495D01*
X177427525Y-121619495D01*
X177298993Y-121653935D01*
X177287511Y-121657012D01*
X177161988Y-121729483D01*
X177161982Y-121729488D01*
X177059493Y-121831977D01*
X177059488Y-121831983D01*
X176987017Y-121957506D01*
X176987016Y-121957510D01*
X176949500Y-122097520D01*
X169000000Y-122097520D01*
X169000000Y-119164071D01*
X170849498Y-119164071D01*
X170874496Y-119289738D01*
X170874498Y-119289744D01*
X170923532Y-119408124D01*
X170923537Y-119408133D01*
X170994722Y-119514668D01*
X170994725Y-119514672D01*
X171085326Y-119605273D01*
X171085330Y-119605276D01*
X171191865Y-119676461D01*
X171191871Y-119676464D01*
X171191872Y-119676465D01*
X171310255Y-119725501D01*
X171310259Y-119725501D01*
X171310260Y-119725502D01*
X171435927Y-119750500D01*
X171435930Y-119750500D01*
X171564070Y-119750500D01*
X171648614Y-119733682D01*
X171689743Y-119725501D01*
X171808126Y-119676465D01*
X171914668Y-119605276D01*
X171915874Y-119604070D01*
X199974499Y-119604070D01*
X199999497Y-119729737D01*
X199999499Y-119729743D01*
X200048533Y-119848123D01*
X200048538Y-119848132D01*
X200119723Y-119954667D01*
X200119726Y-119954671D01*
X200210327Y-120045272D01*
X200210331Y-120045275D01*
X200316866Y-120116460D01*
X200316875Y-120116465D01*
X200343692Y-120127573D01*
X200435256Y-120165500D01*
X200435260Y-120165500D01*
X200435261Y-120165501D01*
X200560928Y-120190499D01*
X200560931Y-120190499D01*
X200689071Y-120190499D01*
X200773615Y-120173681D01*
X200814744Y-120165500D01*
X200933127Y-120116464D01*
X201039669Y-120045275D01*
X201130276Y-119954668D01*
X201201465Y-119848126D01*
X201250501Y-119729743D01*
X201275260Y-119605276D01*
X201275500Y-119604070D01*
X201275500Y-119475927D01*
X201275499Y-119475922D01*
X201274859Y-119472702D01*
X201271017Y-119453388D01*
X206174500Y-119453388D01*
X206174500Y-119626609D01*
X206190162Y-119725500D01*
X206201598Y-119797700D01*
X206255127Y-119962444D01*
X206333768Y-120116787D01*
X206435586Y-120256927D01*
X206558072Y-120379413D01*
X206698212Y-120481231D01*
X206852555Y-120559872D01*
X207017299Y-120613401D01*
X207188389Y-120640499D01*
X207188390Y-120640499D01*
X207361610Y-120640499D01*
X207361611Y-120640499D01*
X207532701Y-120613401D01*
X207697445Y-120559872D01*
X207851788Y-120481231D01*
X207991928Y-120379413D01*
X208114414Y-120256927D01*
X208216232Y-120116787D01*
X208294873Y-119962444D01*
X208348402Y-119797700D01*
X208375500Y-119626610D01*
X208375500Y-119453388D01*
X208348402Y-119282298D01*
X208294873Y-119117554D01*
X208216232Y-118963211D01*
X208114414Y-118823071D01*
X207991928Y-118700585D01*
X207851788Y-118598767D01*
X207784864Y-118564668D01*
X207697447Y-118520127D01*
X207697446Y-118520126D01*
X207697445Y-118520126D01*
X207532701Y-118466597D01*
X207532699Y-118466596D01*
X207532698Y-118466596D01*
X207401271Y-118445780D01*
X207361611Y-118439499D01*
X207188389Y-118439499D01*
X207148728Y-118445780D01*
X207017302Y-118466596D01*
X206852552Y-118520127D01*
X206698211Y-118598767D01*
X206681680Y-118610778D01*
X206558072Y-118700585D01*
X206558070Y-118700587D01*
X206558069Y-118700587D01*
X206435588Y-118823068D01*
X206435588Y-118823069D01*
X206435586Y-118823071D01*
X206418485Y-118846609D01*
X206333768Y-118963210D01*
X206255128Y-119117551D01*
X206201597Y-119282301D01*
X206174500Y-119453388D01*
X201271017Y-119453388D01*
X201250502Y-119350260D01*
X201250501Y-119350259D01*
X201250501Y-119350255D01*
X201201465Y-119231872D01*
X201201464Y-119231871D01*
X201201461Y-119231865D01*
X201130276Y-119125330D01*
X201130273Y-119125326D01*
X201039672Y-119034725D01*
X201039668Y-119034722D01*
X200933133Y-118963537D01*
X200933124Y-118963532D01*
X200814744Y-118914498D01*
X200814738Y-118914496D01*
X200689071Y-118889499D01*
X200689069Y-118889499D01*
X200560931Y-118889499D01*
X200560929Y-118889499D01*
X200435261Y-118914496D01*
X200435255Y-118914498D01*
X200316875Y-118963532D01*
X200316866Y-118963537D01*
X200210331Y-119034722D01*
X200210327Y-119034725D01*
X200119726Y-119125326D01*
X200119723Y-119125330D01*
X200048538Y-119231865D01*
X200048533Y-119231874D01*
X199999499Y-119350254D01*
X199999497Y-119350260D01*
X199974500Y-119475927D01*
X199974500Y-119475930D01*
X199974500Y-119604068D01*
X199974500Y-119604070D01*
X199974499Y-119604070D01*
X171915874Y-119604070D01*
X172005275Y-119514669D01*
X172076464Y-119408127D01*
X172125500Y-119289744D01*
X172150499Y-119164069D01*
X172150499Y-119035931D01*
X172150499Y-119035928D01*
X172125501Y-118910261D01*
X172125500Y-118910260D01*
X172125500Y-118910256D01*
X172087573Y-118818692D01*
X172076465Y-118791875D01*
X172076460Y-118791866D01*
X172005275Y-118685331D01*
X172005272Y-118685327D01*
X171914671Y-118594726D01*
X171914667Y-118594723D01*
X171808132Y-118523538D01*
X171808123Y-118523533D01*
X171689743Y-118474499D01*
X171689737Y-118474497D01*
X171564070Y-118449500D01*
X171564068Y-118449500D01*
X171435930Y-118449500D01*
X171435928Y-118449500D01*
X171310260Y-118474497D01*
X171310254Y-118474499D01*
X171191874Y-118523533D01*
X171191865Y-118523538D01*
X171085330Y-118594723D01*
X171085326Y-118594726D01*
X170994725Y-118685327D01*
X170994722Y-118685331D01*
X170923537Y-118791866D01*
X170923532Y-118791875D01*
X170874498Y-118910255D01*
X170874496Y-118910261D01*
X170849499Y-119035928D01*
X170849499Y-119035931D01*
X170849499Y-119164069D01*
X170849499Y-119164071D01*
X170849498Y-119164071D01*
X169000000Y-119164071D01*
X169000000Y-118214071D01*
X201749499Y-118214071D01*
X201774497Y-118339738D01*
X201774499Y-118339744D01*
X201823533Y-118458124D01*
X201823538Y-118458133D01*
X201894723Y-118564668D01*
X201894726Y-118564672D01*
X201985327Y-118655273D01*
X201985331Y-118655276D01*
X202091866Y-118726461D01*
X202091872Y-118726464D01*
X202091873Y-118726465D01*
X202210256Y-118775501D01*
X202210260Y-118775501D01*
X202210261Y-118775502D01*
X202335928Y-118800500D01*
X202335931Y-118800500D01*
X202464071Y-118800500D01*
X202548615Y-118783682D01*
X202589744Y-118775501D01*
X202708127Y-118726465D01*
X202814669Y-118655276D01*
X202905276Y-118564669D01*
X202976465Y-118458127D01*
X203025501Y-118339744D01*
X203050500Y-118214069D01*
X203050500Y-118085931D01*
X203050500Y-118085928D01*
X203025502Y-117960261D01*
X203025501Y-117960260D01*
X203025501Y-117960256D01*
X202976465Y-117841873D01*
X202976464Y-117841872D01*
X202976461Y-117841866D01*
X202905276Y-117735331D01*
X202905273Y-117735327D01*
X202814672Y-117644726D01*
X202814668Y-117644723D01*
X202708133Y-117573538D01*
X202708124Y-117573533D01*
X202589744Y-117524499D01*
X202589738Y-117524497D01*
X202464071Y-117499500D01*
X202464069Y-117499500D01*
X202335931Y-117499500D01*
X202335929Y-117499500D01*
X202210261Y-117524497D01*
X202210255Y-117524499D01*
X202091875Y-117573533D01*
X202091866Y-117573538D01*
X201985331Y-117644723D01*
X201985327Y-117644726D01*
X201894726Y-117735327D01*
X201894723Y-117735331D01*
X201823538Y-117841866D01*
X201823533Y-117841875D01*
X201774499Y-117960255D01*
X201774497Y-117960261D01*
X201749500Y-118085928D01*
X201749500Y-118085931D01*
X201749500Y-118214069D01*
X201749500Y-118214071D01*
X201749499Y-118214071D01*
X169000000Y-118214071D01*
X169000000Y-117017521D01*
X174549500Y-117017521D01*
X174549500Y-117162471D01*
X174575016Y-117257696D01*
X174587017Y-117302484D01*
X174659488Y-117428007D01*
X174659490Y-117428009D01*
X174659491Y-117428011D01*
X174761985Y-117530505D01*
X174761986Y-117530506D01*
X174761988Y-117530507D01*
X174887511Y-117602978D01*
X174887512Y-117602978D01*
X174887515Y-117602980D01*
X175027525Y-117640496D01*
X175027528Y-117640496D01*
X175172472Y-117640496D01*
X175172475Y-117640496D01*
X175312485Y-117602980D01*
X175438015Y-117530505D01*
X175540509Y-117428011D01*
X175612984Y-117302481D01*
X175650500Y-117162471D01*
X175650500Y-117017521D01*
X175622597Y-116913388D01*
X203634500Y-116913388D01*
X203634500Y-117086609D01*
X203651623Y-117194724D01*
X203661598Y-117257700D01*
X203676149Y-117302484D01*
X203715128Y-117422446D01*
X203717965Y-117428013D01*
X203793768Y-117576787D01*
X203895586Y-117716927D01*
X204018072Y-117839413D01*
X204158212Y-117941231D01*
X204312555Y-118019872D01*
X204477299Y-118073401D01*
X204648389Y-118100499D01*
X204648390Y-118100499D01*
X204821610Y-118100499D01*
X204821611Y-118100499D01*
X204992701Y-118073401D01*
X205157445Y-118019872D01*
X205311788Y-117941231D01*
X205451928Y-117839413D01*
X205574414Y-117716927D01*
X205676232Y-117576787D01*
X205754873Y-117422444D01*
X205808402Y-117257700D01*
X205835500Y-117086610D01*
X205835500Y-116913388D01*
X206174500Y-116913388D01*
X206174500Y-117086609D01*
X206191623Y-117194724D01*
X206201598Y-117257700D01*
X206216149Y-117302484D01*
X206255128Y-117422446D01*
X206257965Y-117428013D01*
X206333768Y-117576787D01*
X206435586Y-117716927D01*
X206558072Y-117839413D01*
X206698212Y-117941231D01*
X206852555Y-118019872D01*
X207017299Y-118073401D01*
X207188389Y-118100499D01*
X207188390Y-118100499D01*
X207361610Y-118100499D01*
X207361611Y-118100499D01*
X207532701Y-118073401D01*
X207697445Y-118019872D01*
X207851788Y-117941231D01*
X207991928Y-117839413D01*
X208114414Y-117716927D01*
X208216232Y-117576787D01*
X208294873Y-117422444D01*
X208348402Y-117257700D01*
X208375500Y-117086610D01*
X208375500Y-116913388D01*
X208348402Y-116742298D01*
X208294873Y-116577554D01*
X208216232Y-116423211D01*
X208114414Y-116283071D01*
X207991928Y-116160585D01*
X207851788Y-116058767D01*
X207697445Y-115980126D01*
X207532701Y-115926597D01*
X207532699Y-115926596D01*
X207532698Y-115926596D01*
X207401271Y-115905780D01*
X207361611Y-115899499D01*
X207188389Y-115899499D01*
X207148728Y-115905780D01*
X207017302Y-115926596D01*
X206852552Y-115980127D01*
X206698211Y-116058767D01*
X206624276Y-116112485D01*
X206558072Y-116160585D01*
X206558070Y-116160587D01*
X206558069Y-116160587D01*
X206435588Y-116283068D01*
X206435588Y-116283069D01*
X206435586Y-116283071D01*
X206406957Y-116322475D01*
X206333768Y-116423210D01*
X206255128Y-116577551D01*
X206201597Y-116742301D01*
X206174500Y-116913388D01*
X205835500Y-116913388D01*
X205808402Y-116742298D01*
X205754873Y-116577554D01*
X205676232Y-116423211D01*
X205574414Y-116283071D01*
X205451928Y-116160585D01*
X205311788Y-116058767D01*
X205157445Y-115980126D01*
X204992701Y-115926597D01*
X204992699Y-115926596D01*
X204992698Y-115926596D01*
X204861271Y-115905780D01*
X204821611Y-115899499D01*
X204648389Y-115899499D01*
X204608728Y-115905780D01*
X204477302Y-115926596D01*
X204312552Y-115980127D01*
X204158211Y-116058767D01*
X204084276Y-116112485D01*
X204018072Y-116160585D01*
X204018070Y-116160587D01*
X204018069Y-116160587D01*
X203895588Y-116283068D01*
X203895588Y-116283069D01*
X203895586Y-116283071D01*
X203866957Y-116322475D01*
X203793768Y-116423210D01*
X203715128Y-116577551D01*
X203661597Y-116742301D01*
X203634500Y-116913388D01*
X175622597Y-116913388D01*
X175612984Y-116877511D01*
X175540509Y-116751981D01*
X175438015Y-116649487D01*
X175438013Y-116649486D01*
X175438011Y-116649484D01*
X175312488Y-116577013D01*
X175312489Y-116577013D01*
X175301006Y-116573936D01*
X175172475Y-116539496D01*
X175027525Y-116539496D01*
X174898993Y-116573936D01*
X174887511Y-116577013D01*
X174761988Y-116649484D01*
X174761982Y-116649489D01*
X174659493Y-116751978D01*
X174659488Y-116751984D01*
X174587017Y-116877507D01*
X174587016Y-116877511D01*
X174549500Y-117017521D01*
X169000000Y-117017521D01*
X169000000Y-111964066D01*
X179549499Y-111964066D01*
X179574497Y-112089733D01*
X179574499Y-112089739D01*
X179623533Y-112208119D01*
X179623538Y-112208128D01*
X179694723Y-112314663D01*
X179694726Y-112314667D01*
X179785327Y-112405268D01*
X179785331Y-112405271D01*
X179891866Y-112476456D01*
X179891872Y-112476459D01*
X179891873Y-112476460D01*
X180010256Y-112525496D01*
X180010260Y-112525496D01*
X180010261Y-112525497D01*
X180135928Y-112550495D01*
X180135931Y-112550495D01*
X180264071Y-112550495D01*
X180348615Y-112533677D01*
X180389744Y-112525496D01*
X180508127Y-112476460D01*
X180614669Y-112405271D01*
X180655874Y-112364066D01*
X204549499Y-112364066D01*
X204574497Y-112489733D01*
X204574499Y-112489739D01*
X204623533Y-112608119D01*
X204623538Y-112608128D01*
X204694723Y-112714663D01*
X204694726Y-112714667D01*
X204785327Y-112805268D01*
X204785331Y-112805271D01*
X204891866Y-112876456D01*
X204891872Y-112876459D01*
X204891873Y-112876460D01*
X205010256Y-112925496D01*
X205010260Y-112925496D01*
X205010261Y-112925497D01*
X205135928Y-112950495D01*
X205135931Y-112950495D01*
X205264071Y-112950495D01*
X205348615Y-112933677D01*
X205389744Y-112925496D01*
X205508127Y-112876460D01*
X205614669Y-112805271D01*
X205705276Y-112714664D01*
X205776465Y-112608122D01*
X205825501Y-112489739D01*
X205850500Y-112364064D01*
X205850500Y-112235926D01*
X205850500Y-112235923D01*
X205825502Y-112110256D01*
X205825501Y-112110255D01*
X205825501Y-112110251D01*
X205776465Y-111991868D01*
X205776464Y-111991867D01*
X205776461Y-111991861D01*
X205705276Y-111885326D01*
X205705273Y-111885322D01*
X205614672Y-111794721D01*
X205614668Y-111794718D01*
X205508133Y-111723533D01*
X205508124Y-111723528D01*
X205389744Y-111674494D01*
X205389738Y-111674492D01*
X205264071Y-111649495D01*
X205264069Y-111649495D01*
X205135931Y-111649495D01*
X205135929Y-111649495D01*
X205010261Y-111674492D01*
X205010255Y-111674494D01*
X204891875Y-111723528D01*
X204891866Y-111723533D01*
X204785331Y-111794718D01*
X204785327Y-111794721D01*
X204694726Y-111885322D01*
X204694723Y-111885326D01*
X204623538Y-111991861D01*
X204623533Y-111991870D01*
X204574499Y-112110250D01*
X204574497Y-112110256D01*
X204549500Y-112235923D01*
X204549500Y-112235926D01*
X204549500Y-112364064D01*
X204549500Y-112364066D01*
X204549499Y-112364066D01*
X180655874Y-112364066D01*
X180705276Y-112314664D01*
X180776465Y-112208122D01*
X180825501Y-112089739D01*
X180844969Y-111991870D01*
X180850500Y-111964066D01*
X180850500Y-111835923D01*
X180825502Y-111710256D01*
X180825501Y-111710255D01*
X180825501Y-111710251D01*
X180776465Y-111591868D01*
X180776464Y-111591867D01*
X180776461Y-111591861D01*
X180705276Y-111485326D01*
X180705273Y-111485322D01*
X180614672Y-111394721D01*
X180614668Y-111394718D01*
X180508133Y-111323533D01*
X180508124Y-111323528D01*
X180389744Y-111274494D01*
X180389738Y-111274492D01*
X180264071Y-111249495D01*
X180264069Y-111249495D01*
X180135931Y-111249495D01*
X180135929Y-111249495D01*
X180010261Y-111274492D01*
X180010255Y-111274494D01*
X179891875Y-111323528D01*
X179891866Y-111323533D01*
X179785331Y-111394718D01*
X179785327Y-111394721D01*
X179694726Y-111485322D01*
X179694723Y-111485326D01*
X179623538Y-111591861D01*
X179623533Y-111591870D01*
X179574499Y-111710250D01*
X179574497Y-111710256D01*
X179549500Y-111835923D01*
X179549500Y-111835926D01*
X179549500Y-111964064D01*
X179549500Y-111964066D01*
X179549499Y-111964066D01*
X169000000Y-111964066D01*
X169000000Y-110562520D01*
X182049500Y-110562520D01*
X182049500Y-110707470D01*
X182087016Y-110847480D01*
X182087017Y-110847483D01*
X182159488Y-110973006D01*
X182159490Y-110973008D01*
X182159491Y-110973010D01*
X182261985Y-111075504D01*
X182261986Y-111075505D01*
X182261988Y-111075506D01*
X182387511Y-111147977D01*
X182387512Y-111147977D01*
X182387515Y-111147979D01*
X182527525Y-111185495D01*
X182527528Y-111185495D01*
X182672472Y-111185495D01*
X182672475Y-111185495D01*
X182812485Y-111147979D01*
X182938015Y-111075504D01*
X183040509Y-110973010D01*
X183112984Y-110847480D01*
X183150500Y-110707470D01*
X183150500Y-110562520D01*
X183112984Y-110422510D01*
X183064199Y-110338013D01*
X183040511Y-110296983D01*
X183040506Y-110296977D01*
X182938017Y-110194488D01*
X182938011Y-110194483D01*
X182812488Y-110122012D01*
X182812489Y-110122012D01*
X182801006Y-110118935D01*
X182672475Y-110084495D01*
X182527525Y-110084495D01*
X182398993Y-110118935D01*
X182387511Y-110122012D01*
X182261988Y-110194483D01*
X182261982Y-110194488D01*
X182159493Y-110296977D01*
X182159488Y-110296983D01*
X182087017Y-110422506D01*
X182087016Y-110422510D01*
X182049500Y-110562520D01*
X169000000Y-110562520D01*
X169000000Y-109927521D01*
X200949500Y-109927521D01*
X200949500Y-110072471D01*
X200982194Y-110194486D01*
X200987017Y-110212484D01*
X201059488Y-110338007D01*
X201059490Y-110338009D01*
X201059491Y-110338011D01*
X201161985Y-110440505D01*
X201161986Y-110440506D01*
X201161988Y-110440507D01*
X201287511Y-110512978D01*
X201287512Y-110512978D01*
X201287515Y-110512980D01*
X201427525Y-110550496D01*
X201427528Y-110550496D01*
X201572472Y-110550496D01*
X201572475Y-110550496D01*
X201712485Y-110512980D01*
X201838015Y-110440505D01*
X201940509Y-110338011D01*
X202012984Y-110212481D01*
X202050500Y-110072471D01*
X202050500Y-110064066D01*
X207849499Y-110064066D01*
X207874497Y-110189733D01*
X207874499Y-110189739D01*
X207923533Y-110308119D01*
X207923538Y-110308128D01*
X207994723Y-110414663D01*
X207994726Y-110414667D01*
X208085327Y-110505268D01*
X208085331Y-110505271D01*
X208191866Y-110576456D01*
X208191872Y-110576459D01*
X208191873Y-110576460D01*
X208310256Y-110625496D01*
X208310260Y-110625496D01*
X208310261Y-110625497D01*
X208435928Y-110650495D01*
X208435931Y-110650495D01*
X208564071Y-110650495D01*
X208648615Y-110633677D01*
X208689744Y-110625496D01*
X208808127Y-110576460D01*
X208914669Y-110505271D01*
X209005276Y-110414664D01*
X209076465Y-110308122D01*
X209125501Y-110189739D01*
X209148828Y-110072471D01*
X209150500Y-110064066D01*
X209150500Y-109935923D01*
X209125502Y-109810256D01*
X209125501Y-109810255D01*
X209125501Y-109810251D01*
X209076465Y-109691868D01*
X209076464Y-109691867D01*
X209076461Y-109691861D01*
X209005276Y-109585326D01*
X209005273Y-109585322D01*
X208914672Y-109494721D01*
X208914668Y-109494718D01*
X208808133Y-109423533D01*
X208808124Y-109423528D01*
X208689744Y-109374494D01*
X208689738Y-109374492D01*
X208564071Y-109349495D01*
X208564069Y-109349495D01*
X208435931Y-109349495D01*
X208435929Y-109349495D01*
X208310261Y-109374492D01*
X208310255Y-109374494D01*
X208191875Y-109423528D01*
X208191866Y-109423533D01*
X208085331Y-109494718D01*
X208085327Y-109494721D01*
X207994726Y-109585322D01*
X207994723Y-109585326D01*
X207923538Y-109691861D01*
X207923533Y-109691870D01*
X207874499Y-109810250D01*
X207874497Y-109810256D01*
X207849500Y-109935923D01*
X207849500Y-109935926D01*
X207849500Y-110064064D01*
X207849500Y-110064066D01*
X207849499Y-110064066D01*
X202050500Y-110064066D01*
X202050500Y-109927521D01*
X202012984Y-109787511D01*
X201957765Y-109691870D01*
X201940511Y-109661984D01*
X201940506Y-109661978D01*
X201838017Y-109559489D01*
X201838011Y-109559484D01*
X201712488Y-109487013D01*
X201712489Y-109487013D01*
X201701006Y-109483936D01*
X201572475Y-109449496D01*
X201427525Y-109449496D01*
X201298993Y-109483936D01*
X201287511Y-109487013D01*
X201161988Y-109559484D01*
X201161982Y-109559489D01*
X201059493Y-109661978D01*
X201059488Y-109661984D01*
X200987017Y-109787507D01*
X200987016Y-109787511D01*
X200949500Y-109927521D01*
X169000000Y-109927521D01*
X169000000Y-107364066D01*
X204549498Y-107364066D01*
X204574496Y-107489733D01*
X204574498Y-107489739D01*
X204623532Y-107608119D01*
X204623537Y-107608128D01*
X204694722Y-107714663D01*
X204694725Y-107714667D01*
X204785326Y-107805268D01*
X204785330Y-107805271D01*
X204891865Y-107876456D01*
X204891871Y-107876459D01*
X204891872Y-107876460D01*
X205010255Y-107925496D01*
X205010259Y-107925496D01*
X205010260Y-107925497D01*
X205135927Y-107950495D01*
X205135930Y-107950495D01*
X205264070Y-107950495D01*
X205348614Y-107933677D01*
X205389743Y-107925496D01*
X205508126Y-107876460D01*
X205614668Y-107805271D01*
X205705275Y-107714664D01*
X205776464Y-107608122D01*
X205825500Y-107489739D01*
X205850499Y-107364064D01*
X205850499Y-107235926D01*
X205850499Y-107235923D01*
X205825501Y-107110256D01*
X205825500Y-107110255D01*
X205825500Y-107110251D01*
X205776464Y-106991868D01*
X205776463Y-106991867D01*
X205776460Y-106991861D01*
X205705275Y-106885326D01*
X205705272Y-106885322D01*
X205614671Y-106794721D01*
X205614667Y-106794718D01*
X205508132Y-106723533D01*
X205508123Y-106723528D01*
X205389743Y-106674494D01*
X205389737Y-106674492D01*
X205264070Y-106649495D01*
X205264068Y-106649495D01*
X205135930Y-106649495D01*
X205135928Y-106649495D01*
X205010260Y-106674492D01*
X205010254Y-106674494D01*
X204891874Y-106723528D01*
X204891865Y-106723533D01*
X204785330Y-106794718D01*
X204785326Y-106794721D01*
X204694725Y-106885322D01*
X204694722Y-106885326D01*
X204623537Y-106991861D01*
X204623532Y-106991870D01*
X204574498Y-107110250D01*
X204574496Y-107110256D01*
X204549499Y-107235923D01*
X204549499Y-107235926D01*
X204549499Y-107364064D01*
X204549499Y-107364066D01*
X204549498Y-107364066D01*
X169000000Y-107364066D01*
X169000000Y-105864067D01*
X185049499Y-105864067D01*
X185074497Y-105989734D01*
X185074499Y-105989740D01*
X185123533Y-106108120D01*
X185123538Y-106108129D01*
X185194723Y-106214664D01*
X185194726Y-106214668D01*
X185285327Y-106305269D01*
X185285331Y-106305272D01*
X185391866Y-106376457D01*
X185391872Y-106376460D01*
X185391873Y-106376461D01*
X185510256Y-106425497D01*
X185510260Y-106425497D01*
X185510261Y-106425498D01*
X185635928Y-106450496D01*
X185635931Y-106450496D01*
X185764071Y-106450496D01*
X185848615Y-106433678D01*
X185889744Y-106425497D01*
X186008127Y-106376461D01*
X186114669Y-106305272D01*
X186205276Y-106214665D01*
X186276465Y-106108123D01*
X186325501Y-105989740D01*
X186350500Y-105864065D01*
X186350500Y-105735927D01*
X186350500Y-105735924D01*
X186325502Y-105610257D01*
X186325501Y-105610256D01*
X186325501Y-105610252D01*
X186287574Y-105518688D01*
X186276466Y-105491871D01*
X186276461Y-105491862D01*
X186205276Y-105385327D01*
X186205273Y-105385323D01*
X186114672Y-105294722D01*
X186114668Y-105294719D01*
X186008133Y-105223534D01*
X186008124Y-105223529D01*
X185889744Y-105174495D01*
X185889738Y-105174493D01*
X185764071Y-105149496D01*
X185764069Y-105149496D01*
X185635931Y-105149496D01*
X185635929Y-105149496D01*
X185510261Y-105174493D01*
X185510255Y-105174495D01*
X185391875Y-105223529D01*
X185391866Y-105223534D01*
X185285331Y-105294719D01*
X185285327Y-105294722D01*
X185194726Y-105385323D01*
X185194723Y-105385327D01*
X185123538Y-105491862D01*
X185123533Y-105491871D01*
X185074499Y-105610251D01*
X185074497Y-105610257D01*
X185049500Y-105735924D01*
X185049500Y-105735927D01*
X185049500Y-105864065D01*
X185049500Y-105864067D01*
X185049499Y-105864067D01*
X169000000Y-105864067D01*
X169000000Y-105000000D01*
X168999998Y-104999998D01*
X168855044Y-104927521D01*
X200949500Y-104927521D01*
X200949500Y-105072471D01*
X200987016Y-105212481D01*
X200987017Y-105212484D01*
X201059488Y-105338007D01*
X201059490Y-105338009D01*
X201059491Y-105338011D01*
X201161985Y-105440505D01*
X201161986Y-105440506D01*
X201161988Y-105440507D01*
X201287511Y-105512978D01*
X201287512Y-105512978D01*
X201287515Y-105512980D01*
X201427525Y-105550496D01*
X201427528Y-105550496D01*
X201572472Y-105550496D01*
X201572475Y-105550496D01*
X201712485Y-105512980D01*
X201838015Y-105440505D01*
X201940509Y-105338011D01*
X202012984Y-105212481D01*
X202050500Y-105072471D01*
X202050500Y-105064067D01*
X207849498Y-105064067D01*
X207874496Y-105189734D01*
X207874498Y-105189740D01*
X207923532Y-105308120D01*
X207923537Y-105308129D01*
X207994722Y-105414664D01*
X207994725Y-105414668D01*
X208085326Y-105505269D01*
X208085330Y-105505272D01*
X208191865Y-105576457D01*
X208191871Y-105576460D01*
X208191872Y-105576461D01*
X208310255Y-105625497D01*
X208310259Y-105625497D01*
X208310260Y-105625498D01*
X208435927Y-105650496D01*
X208435930Y-105650496D01*
X208564070Y-105650496D01*
X208648614Y-105633678D01*
X208689743Y-105625497D01*
X208808126Y-105576461D01*
X208914668Y-105505272D01*
X209005275Y-105414665D01*
X209076464Y-105308123D01*
X209125500Y-105189740D01*
X209148827Y-105072471D01*
X209150499Y-105064067D01*
X209150499Y-104935924D01*
X209125501Y-104810257D01*
X209125500Y-104810256D01*
X209125500Y-104810252D01*
X209076464Y-104691869D01*
X209076463Y-104691868D01*
X209076460Y-104691862D01*
X209005275Y-104585327D01*
X209005272Y-104585323D01*
X208914671Y-104494722D01*
X208914667Y-104494719D01*
X208808132Y-104423534D01*
X208808123Y-104423529D01*
X208689743Y-104374495D01*
X208689737Y-104374493D01*
X208564070Y-104349496D01*
X208564068Y-104349496D01*
X208435930Y-104349496D01*
X208435928Y-104349496D01*
X208310260Y-104374493D01*
X208310254Y-104374495D01*
X208191874Y-104423529D01*
X208191865Y-104423534D01*
X208085330Y-104494719D01*
X208085326Y-104494722D01*
X207994725Y-104585323D01*
X207994722Y-104585327D01*
X207923537Y-104691862D01*
X207923532Y-104691871D01*
X207874498Y-104810251D01*
X207874496Y-104810257D01*
X207849499Y-104935924D01*
X207849499Y-104935927D01*
X207849499Y-105064065D01*
X207849499Y-105064067D01*
X207849498Y-105064067D01*
X202050500Y-105064067D01*
X202050500Y-104927521D01*
X202012984Y-104787511D01*
X201940509Y-104661981D01*
X201838015Y-104559487D01*
X201838013Y-104559486D01*
X201838011Y-104559484D01*
X201712488Y-104487013D01*
X201712489Y-104487013D01*
X201701006Y-104483936D01*
X201572475Y-104449496D01*
X201427525Y-104449496D01*
X201298993Y-104483936D01*
X201287511Y-104487013D01*
X201161988Y-104559484D01*
X201161982Y-104559489D01*
X201059493Y-104661978D01*
X201059488Y-104661984D01*
X200987017Y-104787507D01*
X200987016Y-104787511D01*
X200949500Y-104927521D01*
X168855044Y-104927521D01*
X167028135Y-104014067D01*
X177589499Y-104014067D01*
X177614497Y-104139734D01*
X177614499Y-104139740D01*
X177663533Y-104258120D01*
X177663538Y-104258129D01*
X177734723Y-104364664D01*
X177734726Y-104364668D01*
X177825327Y-104455269D01*
X177825331Y-104455272D01*
X177931866Y-104526457D01*
X177931872Y-104526460D01*
X177931873Y-104526461D01*
X178050256Y-104575497D01*
X178050260Y-104575497D01*
X178050261Y-104575498D01*
X178175928Y-104600496D01*
X178175931Y-104600496D01*
X178304071Y-104600496D01*
X178388615Y-104583678D01*
X178429744Y-104575497D01*
X178548127Y-104526461D01*
X178654669Y-104455272D01*
X178745276Y-104364665D01*
X178816465Y-104258123D01*
X178865501Y-104139740D01*
X178890500Y-104014065D01*
X178890500Y-103885927D01*
X178890500Y-103885924D01*
X178865502Y-103760257D01*
X178865501Y-103760256D01*
X178865501Y-103760252D01*
X178816465Y-103641869D01*
X178816464Y-103641868D01*
X178816461Y-103641862D01*
X178745276Y-103535327D01*
X178745273Y-103535323D01*
X178654672Y-103444722D01*
X178654668Y-103444719D01*
X178548133Y-103373534D01*
X178548124Y-103373529D01*
X178429744Y-103324495D01*
X178429738Y-103324493D01*
X178304071Y-103299496D01*
X178304069Y-103299496D01*
X178175931Y-103299496D01*
X178175929Y-103299496D01*
X178050261Y-103324493D01*
X178050255Y-103324495D01*
X177931875Y-103373529D01*
X177931866Y-103373534D01*
X177825331Y-103444719D01*
X177825327Y-103444722D01*
X177734726Y-103535323D01*
X177734723Y-103535327D01*
X177663538Y-103641862D01*
X177663533Y-103641871D01*
X177614499Y-103760251D01*
X177614497Y-103760257D01*
X177589500Y-103885924D01*
X177589500Y-103885927D01*
X177589500Y-104014065D01*
X177589500Y-104014067D01*
X177589499Y-104014067D01*
X167028135Y-104014067D01*
X166981489Y-103990744D01*
X163538182Y-102269090D01*
X172822513Y-102269090D01*
X172847511Y-102394757D01*
X172847513Y-102394763D01*
X172896547Y-102513143D01*
X172896552Y-102513152D01*
X172967737Y-102619687D01*
X172967740Y-102619691D01*
X173058341Y-102710292D01*
X173058345Y-102710295D01*
X173164880Y-102781480D01*
X173164886Y-102781483D01*
X173164887Y-102781484D01*
X173283270Y-102830520D01*
X173283274Y-102830520D01*
X173283275Y-102830521D01*
X173408942Y-102855519D01*
X173408945Y-102855519D01*
X173537085Y-102855519D01*
X173621629Y-102838701D01*
X173662758Y-102830520D01*
X173781141Y-102781484D01*
X173887683Y-102710295D01*
X173978290Y-102619688D01*
X174049479Y-102513146D01*
X174098515Y-102394763D01*
X174123514Y-102269088D01*
X174123514Y-102140950D01*
X174123514Y-102140947D01*
X174098516Y-102015280D01*
X174098515Y-102015279D01*
X174098515Y-102015275D01*
X174049479Y-101896892D01*
X174049478Y-101896891D01*
X174049475Y-101896885D01*
X173978290Y-101790350D01*
X173978287Y-101790346D01*
X173887686Y-101699745D01*
X173887682Y-101699742D01*
X173781147Y-101628557D01*
X173781134Y-101628550D01*
X173777550Y-101627066D01*
X173777549Y-101627066D01*
X173662758Y-101579518D01*
X173662752Y-101579516D01*
X173537085Y-101554519D01*
X173537083Y-101554519D01*
X173408945Y-101554519D01*
X173408943Y-101554519D01*
X173283275Y-101579516D01*
X173283269Y-101579518D01*
X173164889Y-101628552D01*
X173164880Y-101628557D01*
X173058345Y-101699742D01*
X173058341Y-101699745D01*
X172967740Y-101790346D01*
X172967737Y-101790350D01*
X172896552Y-101896885D01*
X172896547Y-101896894D01*
X172847513Y-102015274D01*
X172847511Y-102015280D01*
X172822514Y-102140947D01*
X172822514Y-102140950D01*
X172822514Y-102269088D01*
X172822514Y-102269090D01*
X172822513Y-102269090D01*
X163538182Y-102269090D01*
X163491536Y-102245767D01*
X163068546Y-102034272D01*
X163017387Y-101986685D01*
X163000000Y-101923363D01*
X163000000Y-101518592D01*
X206973500Y-101518592D01*
X206973500Y-101681407D01*
X207005259Y-101841073D01*
X207005262Y-101841082D01*
X207067562Y-101991490D01*
X207067563Y-101991492D01*
X207158015Y-102126862D01*
X207158018Y-102126866D01*
X207273133Y-102241981D01*
X207273137Y-102241984D01*
X207408505Y-102332435D01*
X207408506Y-102332435D01*
X207408507Y-102332436D01*
X207408509Y-102332437D01*
X207508781Y-102373970D01*
X207558919Y-102394738D01*
X207558921Y-102394738D01*
X207558926Y-102394740D01*
X207718592Y-102426499D01*
X207718595Y-102426500D01*
X207718597Y-102426500D01*
X207881405Y-102426500D01*
X207881406Y-102426499D01*
X207934629Y-102415912D01*
X208041073Y-102394740D01*
X208041076Y-102394738D01*
X208041081Y-102394738D01*
X208191495Y-102332435D01*
X208326863Y-102241984D01*
X208441984Y-102126863D01*
X208532435Y-101991495D01*
X208594738Y-101841081D01*
X208626500Y-101681403D01*
X208626500Y-101518597D01*
X208626500Y-101518594D01*
X208626499Y-101518592D01*
X208594740Y-101358926D01*
X208594737Y-101358917D01*
X208532437Y-101208509D01*
X208532436Y-101208507D01*
X208441984Y-101073137D01*
X208441981Y-101073133D01*
X208326866Y-100958018D01*
X208326862Y-100958015D01*
X208191492Y-100867563D01*
X208191490Y-100867562D01*
X208041082Y-100805262D01*
X208041073Y-100805259D01*
X207881406Y-100773500D01*
X207881403Y-100773500D01*
X207718597Y-100773500D01*
X207718594Y-100773500D01*
X207558926Y-100805259D01*
X207558917Y-100805262D01*
X207408509Y-100867562D01*
X207408507Y-100867563D01*
X207273137Y-100958015D01*
X207273133Y-100958018D01*
X207158018Y-101073133D01*
X207158015Y-101073137D01*
X207067563Y-101208507D01*
X207067562Y-101208509D01*
X207005262Y-101358917D01*
X207005259Y-101358926D01*
X206973500Y-101518592D01*
X163000000Y-101518592D01*
X163000000Y-98876565D01*
X184799499Y-98876565D01*
X184824497Y-99002232D01*
X184824499Y-99002238D01*
X184873533Y-99120618D01*
X184873538Y-99120627D01*
X184944723Y-99227162D01*
X184944726Y-99227166D01*
X185035327Y-99317767D01*
X185035331Y-99317770D01*
X185141866Y-99388955D01*
X185141872Y-99388958D01*
X185141873Y-99388959D01*
X185260256Y-99437995D01*
X185260260Y-99437995D01*
X185260261Y-99437996D01*
X185385928Y-99462994D01*
X185385931Y-99462994D01*
X185514071Y-99462994D01*
X185598615Y-99446176D01*
X185639744Y-99437995D01*
X185758127Y-99388959D01*
X185864669Y-99317770D01*
X185955276Y-99227163D01*
X186026465Y-99120621D01*
X186075501Y-99002238D01*
X186100500Y-98876563D01*
X186100500Y-98864067D01*
X194349499Y-98864067D01*
X194374497Y-98989734D01*
X194374499Y-98989740D01*
X194423533Y-99108120D01*
X194423538Y-99108129D01*
X194494723Y-99214664D01*
X194494726Y-99214668D01*
X194585327Y-99305269D01*
X194585331Y-99305272D01*
X194691866Y-99376457D01*
X194691872Y-99376460D01*
X194691873Y-99376461D01*
X194810256Y-99425497D01*
X194810260Y-99425497D01*
X194810261Y-99425498D01*
X194935928Y-99450496D01*
X194935931Y-99450496D01*
X195064071Y-99450496D01*
X195148615Y-99433678D01*
X195189744Y-99425497D01*
X195308127Y-99376461D01*
X195414669Y-99305272D01*
X195505276Y-99214665D01*
X195576465Y-99108123D01*
X195625501Y-98989740D01*
X195648014Y-98876563D01*
X195650500Y-98864067D01*
X195650500Y-98735924D01*
X195625502Y-98610257D01*
X195625501Y-98610256D01*
X195625501Y-98610252D01*
X195585659Y-98514066D01*
X207949500Y-98514066D01*
X207974498Y-98639733D01*
X207974500Y-98639739D01*
X208023534Y-98758119D01*
X208023539Y-98758128D01*
X208094724Y-98864663D01*
X208094727Y-98864667D01*
X208185328Y-98955268D01*
X208185332Y-98955271D01*
X208291867Y-99026456D01*
X208291873Y-99026459D01*
X208291874Y-99026460D01*
X208410257Y-99075496D01*
X208410261Y-99075496D01*
X208410262Y-99075497D01*
X208535929Y-99100495D01*
X208535932Y-99100495D01*
X208664072Y-99100495D01*
X208748616Y-99083677D01*
X208789745Y-99075496D01*
X208908128Y-99026460D01*
X209014670Y-98955271D01*
X209105277Y-98864664D01*
X209176466Y-98758122D01*
X209225502Y-98639739D01*
X209250501Y-98514064D01*
X209250501Y-98385926D01*
X209250501Y-98385923D01*
X209225503Y-98260256D01*
X209225502Y-98260255D01*
X209225502Y-98260251D01*
X209187575Y-98168687D01*
X209176467Y-98141870D01*
X209176462Y-98141861D01*
X209105277Y-98035326D01*
X209105274Y-98035322D01*
X209014673Y-97944721D01*
X209014669Y-97944718D01*
X208908134Y-97873533D01*
X208908125Y-97873528D01*
X208789745Y-97824494D01*
X208789739Y-97824492D01*
X208664072Y-97799495D01*
X208664070Y-97799495D01*
X208535932Y-97799495D01*
X208535930Y-97799495D01*
X208410262Y-97824492D01*
X208410256Y-97824494D01*
X208291876Y-97873528D01*
X208291867Y-97873533D01*
X208185332Y-97944718D01*
X208185328Y-97944721D01*
X208094727Y-98035322D01*
X208094724Y-98035326D01*
X208023539Y-98141861D01*
X208023534Y-98141870D01*
X207974500Y-98260250D01*
X207974498Y-98260256D01*
X207949501Y-98385923D01*
X207949501Y-98385926D01*
X207949501Y-98514064D01*
X207949501Y-98514066D01*
X207949500Y-98514066D01*
X195585659Y-98514066D01*
X195576466Y-98491871D01*
X195576458Y-98491857D01*
X195547639Y-98448726D01*
X195547638Y-98448725D01*
X195505276Y-98385327D01*
X195505273Y-98385323D01*
X195414672Y-98294722D01*
X195414668Y-98294719D01*
X195308133Y-98223534D01*
X195308124Y-98223529D01*
X195189744Y-98174495D01*
X195189738Y-98174493D01*
X195064071Y-98149496D01*
X195064069Y-98149496D01*
X194935931Y-98149496D01*
X194935929Y-98149496D01*
X194810261Y-98174493D01*
X194810255Y-98174495D01*
X194691875Y-98223529D01*
X194691866Y-98223534D01*
X194585331Y-98294719D01*
X194585327Y-98294722D01*
X194494726Y-98385323D01*
X194494723Y-98385327D01*
X194423538Y-98491862D01*
X194423533Y-98491871D01*
X194374499Y-98610251D01*
X194374497Y-98610257D01*
X194349500Y-98735924D01*
X194349500Y-98735927D01*
X194349500Y-98864065D01*
X194349500Y-98864067D01*
X194349499Y-98864067D01*
X186100500Y-98864067D01*
X186100500Y-98748425D01*
X186100500Y-98748422D01*
X186100499Y-98748420D01*
X186075502Y-98622755D01*
X186075501Y-98622754D01*
X186075501Y-98622750D01*
X186037574Y-98531186D01*
X186026466Y-98504369D01*
X186026461Y-98504360D01*
X185955276Y-98397825D01*
X185955273Y-98397821D01*
X185864672Y-98307220D01*
X185864668Y-98307217D01*
X185758133Y-98236032D01*
X185758124Y-98236027D01*
X185639744Y-98186993D01*
X185639738Y-98186991D01*
X185514071Y-98161994D01*
X185514069Y-98161994D01*
X185385931Y-98161994D01*
X185385929Y-98161994D01*
X185260261Y-98186991D01*
X185260255Y-98186993D01*
X185141875Y-98236027D01*
X185141866Y-98236032D01*
X185035331Y-98307217D01*
X185035327Y-98307220D01*
X184944726Y-98397821D01*
X184944723Y-98397825D01*
X184873538Y-98504360D01*
X184873533Y-98504369D01*
X184824499Y-98622749D01*
X184824497Y-98622755D01*
X184799500Y-98748422D01*
X184799500Y-98748425D01*
X184799500Y-98876563D01*
X184799500Y-98876565D01*
X184799499Y-98876565D01*
X163000000Y-98876565D01*
X163000000Y-97672416D01*
X179495325Y-97672416D01*
X179520323Y-97798083D01*
X179520325Y-97798089D01*
X179569359Y-97916469D01*
X179569364Y-97916478D01*
X179640549Y-98023013D01*
X179640552Y-98023017D01*
X179731153Y-98113618D01*
X179731157Y-98113621D01*
X179837692Y-98184806D01*
X179837698Y-98184809D01*
X179837699Y-98184810D01*
X179956082Y-98233846D01*
X179956086Y-98233846D01*
X179956087Y-98233847D01*
X180081754Y-98258845D01*
X180081757Y-98258845D01*
X180209897Y-98258845D01*
X180294441Y-98242027D01*
X180335570Y-98233846D01*
X180453953Y-98184810D01*
X180560495Y-98113621D01*
X180651102Y-98023014D01*
X180722291Y-97916472D01*
X180771327Y-97798089D01*
X180796326Y-97672414D01*
X180796326Y-97544276D01*
X180796326Y-97544273D01*
X180771328Y-97418606D01*
X180771327Y-97418605D01*
X180771327Y-97418601D01*
X180722291Y-97300218D01*
X180722290Y-97300217D01*
X180722287Y-97300211D01*
X180651102Y-97193676D01*
X180651099Y-97193672D01*
X180560498Y-97103071D01*
X180560494Y-97103068D01*
X180453959Y-97031883D01*
X180453950Y-97031878D01*
X180335570Y-96982844D01*
X180335564Y-96982842D01*
X180209897Y-96957845D01*
X180209895Y-96957845D01*
X180081757Y-96957845D01*
X180081755Y-96957845D01*
X179956087Y-96982842D01*
X179956081Y-96982844D01*
X179837701Y-97031878D01*
X179837692Y-97031883D01*
X179731157Y-97103068D01*
X179731153Y-97103071D01*
X179640552Y-97193672D01*
X179640549Y-97193676D01*
X179569364Y-97300211D01*
X179569359Y-97300220D01*
X179520325Y-97418600D01*
X179520323Y-97418606D01*
X179495326Y-97544273D01*
X179495326Y-97544276D01*
X179495326Y-97672414D01*
X179495326Y-97672416D01*
X179495325Y-97672416D01*
X163000000Y-97672416D01*
X163000000Y-96064071D01*
X163449499Y-96064071D01*
X163474497Y-96189738D01*
X163474499Y-96189744D01*
X163523533Y-96308124D01*
X163523538Y-96308133D01*
X163594723Y-96414668D01*
X163594726Y-96414672D01*
X163685327Y-96505273D01*
X163685331Y-96505276D01*
X163791866Y-96576461D01*
X163791872Y-96576464D01*
X163791873Y-96576465D01*
X163910256Y-96625501D01*
X163910260Y-96625501D01*
X163910261Y-96625502D01*
X164035928Y-96650500D01*
X164035931Y-96650500D01*
X164164071Y-96650500D01*
X164248615Y-96633682D01*
X164289744Y-96625501D01*
X164408127Y-96576465D01*
X164514669Y-96505276D01*
X164605276Y-96414669D01*
X164676465Y-96308127D01*
X164725501Y-96189744D01*
X164750500Y-96064069D01*
X164750500Y-96027520D01*
X186699500Y-96027520D01*
X186699500Y-96172470D01*
X186704129Y-96189744D01*
X186737017Y-96312483D01*
X186809488Y-96438006D01*
X186809490Y-96438008D01*
X186809491Y-96438010D01*
X186911985Y-96540504D01*
X186911986Y-96540505D01*
X186911988Y-96540506D01*
X187037511Y-96612977D01*
X187037512Y-96612977D01*
X187037515Y-96612979D01*
X187177525Y-96650495D01*
X187177528Y-96650495D01*
X187322472Y-96650495D01*
X187322475Y-96650495D01*
X187462485Y-96612979D01*
X187588015Y-96540504D01*
X187690509Y-96438010D01*
X187762068Y-96314067D01*
X207949499Y-96314067D01*
X207974497Y-96439734D01*
X207974499Y-96439740D01*
X208023533Y-96558120D01*
X208023538Y-96558129D01*
X208094723Y-96664664D01*
X208094726Y-96664668D01*
X208185327Y-96755269D01*
X208185331Y-96755272D01*
X208291866Y-96826457D01*
X208291872Y-96826460D01*
X208291873Y-96826461D01*
X208410256Y-96875497D01*
X208410260Y-96875497D01*
X208410261Y-96875498D01*
X208535928Y-96900496D01*
X208535931Y-96900496D01*
X208664071Y-96900496D01*
X208748615Y-96883678D01*
X208789744Y-96875497D01*
X208908127Y-96826461D01*
X209014669Y-96755272D01*
X209105276Y-96664665D01*
X209176465Y-96558123D01*
X209225501Y-96439740D01*
X209250500Y-96314065D01*
X209250500Y-96185927D01*
X209250500Y-96185924D01*
X209225502Y-96060257D01*
X209225501Y-96060256D01*
X209225501Y-96060252D01*
X209176465Y-95941869D01*
X209176464Y-95941868D01*
X209176461Y-95941862D01*
X209105276Y-95835327D01*
X209105273Y-95835323D01*
X209014672Y-95744722D01*
X209014668Y-95744719D01*
X208908133Y-95673534D01*
X208908124Y-95673529D01*
X208789744Y-95624495D01*
X208789738Y-95624493D01*
X208664071Y-95599496D01*
X208664069Y-95599496D01*
X208535931Y-95599496D01*
X208535929Y-95599496D01*
X208410261Y-95624493D01*
X208410255Y-95624495D01*
X208291875Y-95673529D01*
X208291866Y-95673534D01*
X208185331Y-95744719D01*
X208185327Y-95744722D01*
X208094726Y-95835323D01*
X208094723Y-95835327D01*
X208023538Y-95941862D01*
X208023533Y-95941871D01*
X207974499Y-96060251D01*
X207974497Y-96060257D01*
X207949500Y-96185924D01*
X207949500Y-96185927D01*
X207949500Y-96314065D01*
X207949500Y-96314067D01*
X207949499Y-96314067D01*
X187762068Y-96314067D01*
X187762984Y-96312480D01*
X187800500Y-96172470D01*
X187800500Y-96027520D01*
X187762984Y-95887510D01*
X187718381Y-95810256D01*
X187690511Y-95761983D01*
X187690506Y-95761977D01*
X187588017Y-95659488D01*
X187588011Y-95659483D01*
X187462488Y-95587012D01*
X187462489Y-95587012D01*
X187451006Y-95583935D01*
X187322475Y-95549495D01*
X187177525Y-95549495D01*
X187048993Y-95583935D01*
X187037511Y-95587012D01*
X186911988Y-95659483D01*
X186911982Y-95659488D01*
X186809493Y-95761977D01*
X186809488Y-95761983D01*
X186737017Y-95887506D01*
X186737016Y-95887510D01*
X186699500Y-96027520D01*
X164750500Y-96027520D01*
X164750500Y-95935931D01*
X164750500Y-95935928D01*
X164725502Y-95810261D01*
X164725501Y-95810260D01*
X164725501Y-95810256D01*
X164676465Y-95691873D01*
X164676464Y-95691872D01*
X164676461Y-95691866D01*
X164605276Y-95585331D01*
X164605273Y-95585327D01*
X164514672Y-95494726D01*
X164514668Y-95494723D01*
X164408133Y-95423538D01*
X164408124Y-95423533D01*
X164289744Y-95374499D01*
X164289738Y-95374497D01*
X164164071Y-95349500D01*
X164164069Y-95349500D01*
X164035931Y-95349500D01*
X164035929Y-95349500D01*
X163910261Y-95374497D01*
X163910255Y-95374499D01*
X163791875Y-95423533D01*
X163791866Y-95423538D01*
X163685331Y-95494723D01*
X163685327Y-95494726D01*
X163594726Y-95585327D01*
X163594723Y-95585331D01*
X163523538Y-95691866D01*
X163523533Y-95691875D01*
X163474499Y-95810255D01*
X163474497Y-95810261D01*
X163449500Y-95935928D01*
X163449500Y-95935931D01*
X163449500Y-96064069D01*
X163449500Y-96064071D01*
X163449499Y-96064071D01*
X163000000Y-96064071D01*
X163000000Y-94324825D01*
X176164259Y-94324825D01*
X176164259Y-94469775D01*
X176192147Y-94573853D01*
X176201776Y-94609788D01*
X176274247Y-94735311D01*
X176274249Y-94735313D01*
X176274250Y-94735315D01*
X176376744Y-94837809D01*
X176376745Y-94837810D01*
X176376747Y-94837811D01*
X176502270Y-94910282D01*
X176502271Y-94910282D01*
X176502274Y-94910284D01*
X176642284Y-94947800D01*
X176642287Y-94947800D01*
X176787231Y-94947800D01*
X176787234Y-94947800D01*
X176927244Y-94910284D01*
X177052774Y-94837809D01*
X177155268Y-94735315D01*
X177167651Y-94713867D01*
X189449500Y-94713867D01*
X189449500Y-94858817D01*
X189487016Y-94998827D01*
X189487017Y-94998830D01*
X189559488Y-95124353D01*
X189559490Y-95124355D01*
X189559491Y-95124357D01*
X189661985Y-95226851D01*
X189661986Y-95226852D01*
X189661988Y-95226853D01*
X189787511Y-95299324D01*
X189787512Y-95299324D01*
X189787515Y-95299326D01*
X189927525Y-95336842D01*
X189927528Y-95336842D01*
X190072472Y-95336842D01*
X190072475Y-95336842D01*
X190212485Y-95299326D01*
X190338015Y-95226851D01*
X190440509Y-95124357D01*
X190512984Y-94998827D01*
X190550500Y-94858817D01*
X190550500Y-94713867D01*
X190512984Y-94573857D01*
X190452890Y-94469772D01*
X190440511Y-94448330D01*
X190440506Y-94448324D01*
X190338017Y-94345835D01*
X190338011Y-94345830D01*
X190212488Y-94273359D01*
X190212489Y-94273359D01*
X190201006Y-94270282D01*
X190072475Y-94235842D01*
X189927525Y-94235842D01*
X189798993Y-94270282D01*
X189787511Y-94273359D01*
X189661988Y-94345830D01*
X189661982Y-94345835D01*
X189559493Y-94448324D01*
X189559488Y-94448330D01*
X189487017Y-94573853D01*
X189487016Y-94573857D01*
X189449500Y-94713867D01*
X177167651Y-94713867D01*
X177227743Y-94609785D01*
X177265259Y-94469775D01*
X177265259Y-94324825D01*
X177227743Y-94184815D01*
X177177505Y-94097801D01*
X177155270Y-94059288D01*
X177155265Y-94059282D01*
X177052776Y-93956793D01*
X177052770Y-93956788D01*
X176927247Y-93884317D01*
X176927248Y-93884317D01*
X176915765Y-93881240D01*
X176787234Y-93846800D01*
X176642284Y-93846800D01*
X176513752Y-93881240D01*
X176502270Y-93884317D01*
X176376747Y-93956788D01*
X176376741Y-93956793D01*
X176274252Y-94059282D01*
X176274247Y-94059288D01*
X176201776Y-94184811D01*
X176201775Y-94184815D01*
X176164259Y-94324825D01*
X163000000Y-94324825D01*
X163000000Y-93464067D01*
X169209499Y-93464067D01*
X169234497Y-93589734D01*
X169234499Y-93589740D01*
X169283533Y-93708120D01*
X169283538Y-93708129D01*
X169354723Y-93814664D01*
X169354726Y-93814668D01*
X169445327Y-93905269D01*
X169445331Y-93905272D01*
X169551866Y-93976457D01*
X169551872Y-93976460D01*
X169551873Y-93976461D01*
X169670256Y-94025497D01*
X169670260Y-94025497D01*
X169670261Y-94025498D01*
X169795928Y-94050496D01*
X169795931Y-94050496D01*
X169924071Y-94050496D01*
X170008615Y-94033678D01*
X170049744Y-94025497D01*
X170168127Y-93976461D01*
X170274669Y-93905272D01*
X170365276Y-93814665D01*
X170436465Y-93708123D01*
X170485501Y-93589740D01*
X170501090Y-93511372D01*
X178297792Y-93511372D01*
X178322790Y-93637039D01*
X178322792Y-93637045D01*
X178371826Y-93755425D01*
X178371831Y-93755434D01*
X178443016Y-93861969D01*
X178443019Y-93861973D01*
X178533620Y-93952574D01*
X178533624Y-93952577D01*
X178640159Y-94023762D01*
X178640168Y-94023767D01*
X178644345Y-94025497D01*
X178758549Y-94072802D01*
X178758553Y-94072802D01*
X178758554Y-94072803D01*
X178884221Y-94097801D01*
X178884224Y-94097801D01*
X179012364Y-94097801D01*
X179096908Y-94080983D01*
X179138037Y-94072802D01*
X179256420Y-94023766D01*
X179362962Y-93952577D01*
X179453569Y-93861970D01*
X179524758Y-93755428D01*
X179573794Y-93637045D01*
X179598793Y-93511370D01*
X179598793Y-93383232D01*
X179598793Y-93383229D01*
X179575089Y-93264067D01*
X186949499Y-93264067D01*
X186974497Y-93389734D01*
X186974499Y-93389740D01*
X187023533Y-93508120D01*
X187023538Y-93508129D01*
X187094723Y-93614664D01*
X187094726Y-93614668D01*
X187185327Y-93705269D01*
X187185331Y-93705272D01*
X187291866Y-93776457D01*
X187291872Y-93776460D01*
X187291873Y-93776461D01*
X187410256Y-93825497D01*
X187410260Y-93825497D01*
X187410261Y-93825498D01*
X187535928Y-93850496D01*
X187535931Y-93850496D01*
X187664071Y-93850496D01*
X187748615Y-93833678D01*
X187789744Y-93825497D01*
X187908127Y-93776461D01*
X188014669Y-93705272D01*
X188105276Y-93614665D01*
X188176465Y-93508123D01*
X188225501Y-93389740D01*
X188250500Y-93264067D01*
X191749499Y-93264067D01*
X191774497Y-93389734D01*
X191774499Y-93389740D01*
X191823533Y-93508120D01*
X191823538Y-93508129D01*
X191894723Y-93614664D01*
X191894726Y-93614668D01*
X191985327Y-93705269D01*
X191985331Y-93705272D01*
X192091866Y-93776457D01*
X192091872Y-93776460D01*
X192091873Y-93776461D01*
X192210256Y-93825497D01*
X192210260Y-93825497D01*
X192210261Y-93825498D01*
X192335928Y-93850496D01*
X192335931Y-93850496D01*
X192464071Y-93850496D01*
X192548615Y-93833678D01*
X192589744Y-93825497D01*
X192708127Y-93776461D01*
X192814669Y-93705272D01*
X192905276Y-93614665D01*
X192976465Y-93508123D01*
X193025501Y-93389740D01*
X193050500Y-93264065D01*
X193050500Y-93135927D01*
X193050500Y-93135924D01*
X193025502Y-93010257D01*
X193025501Y-93010256D01*
X193025501Y-93010252D01*
X192976465Y-92891869D01*
X192976464Y-92891868D01*
X192976461Y-92891862D01*
X192905276Y-92785327D01*
X192905273Y-92785323D01*
X192814672Y-92694722D01*
X192814668Y-92694719D01*
X192708133Y-92623534D01*
X192708124Y-92623529D01*
X192589744Y-92574495D01*
X192589738Y-92574493D01*
X192464071Y-92549496D01*
X192464069Y-92549496D01*
X192335931Y-92549496D01*
X192335929Y-92549496D01*
X192210261Y-92574493D01*
X192210255Y-92574495D01*
X192091875Y-92623529D01*
X192091866Y-92623534D01*
X191985331Y-92694719D01*
X191985327Y-92694722D01*
X191894726Y-92785323D01*
X191894723Y-92785327D01*
X191823538Y-92891862D01*
X191823533Y-92891871D01*
X191774499Y-93010251D01*
X191774497Y-93010257D01*
X191749500Y-93135924D01*
X191749500Y-93135927D01*
X191749500Y-93264065D01*
X191749500Y-93264067D01*
X191749499Y-93264067D01*
X188250500Y-93264067D01*
X188250500Y-93264065D01*
X188250500Y-93135927D01*
X188250500Y-93135924D01*
X188225502Y-93010257D01*
X188225501Y-93010256D01*
X188225501Y-93010252D01*
X188176465Y-92891869D01*
X188176464Y-92891868D01*
X188176461Y-92891862D01*
X188105276Y-92785327D01*
X188105273Y-92785323D01*
X188014672Y-92694722D01*
X188014668Y-92694719D01*
X187908133Y-92623534D01*
X187908124Y-92623529D01*
X187789744Y-92574495D01*
X187789738Y-92574493D01*
X187664071Y-92549496D01*
X187664069Y-92549496D01*
X187535931Y-92549496D01*
X187535929Y-92549496D01*
X187410261Y-92574493D01*
X187410255Y-92574495D01*
X187291875Y-92623529D01*
X187291866Y-92623534D01*
X187185331Y-92694719D01*
X187185327Y-92694722D01*
X187094726Y-92785323D01*
X187094723Y-92785327D01*
X187023538Y-92891862D01*
X187023533Y-92891871D01*
X186974499Y-93010251D01*
X186974497Y-93010257D01*
X186949500Y-93135924D01*
X186949500Y-93135927D01*
X186949500Y-93264065D01*
X186949500Y-93264067D01*
X186949499Y-93264067D01*
X179575089Y-93264067D01*
X179573795Y-93257562D01*
X179573794Y-93257561D01*
X179573794Y-93257557D01*
X179524758Y-93139174D01*
X179524756Y-93139171D01*
X179524754Y-93139167D01*
X179453569Y-93032632D01*
X179453566Y-93032628D01*
X179362965Y-92942027D01*
X179362961Y-92942024D01*
X179256426Y-92870839D01*
X179256417Y-92870834D01*
X179138037Y-92821800D01*
X179138031Y-92821798D01*
X179012364Y-92796801D01*
X179012362Y-92796801D01*
X178884224Y-92796801D01*
X178884222Y-92796801D01*
X178758554Y-92821798D01*
X178758548Y-92821800D01*
X178640168Y-92870834D01*
X178640159Y-92870839D01*
X178533624Y-92942024D01*
X178533620Y-92942027D01*
X178443019Y-93032628D01*
X178443016Y-93032632D01*
X178371831Y-93139167D01*
X178371826Y-93139176D01*
X178322792Y-93257556D01*
X178322790Y-93257562D01*
X178297793Y-93383229D01*
X178297793Y-93383232D01*
X178297793Y-93511370D01*
X178297793Y-93511372D01*
X178297792Y-93511372D01*
X170501090Y-93511372D01*
X170510500Y-93464065D01*
X170510500Y-93335927D01*
X170510500Y-93335924D01*
X170485502Y-93210257D01*
X170485501Y-93210256D01*
X170485501Y-93210252D01*
X170436465Y-93091869D01*
X170436464Y-93091868D01*
X170436461Y-93091862D01*
X170365276Y-92985327D01*
X170365273Y-92985323D01*
X170274672Y-92894722D01*
X170274668Y-92894719D01*
X170168133Y-92823534D01*
X170168124Y-92823529D01*
X170049744Y-92774495D01*
X170049738Y-92774493D01*
X169924071Y-92749496D01*
X169924069Y-92749496D01*
X169795931Y-92749496D01*
X169795929Y-92749496D01*
X169670261Y-92774493D01*
X169670255Y-92774495D01*
X169551875Y-92823529D01*
X169551866Y-92823534D01*
X169445331Y-92894719D01*
X169445327Y-92894722D01*
X169354726Y-92985323D01*
X169354723Y-92985327D01*
X169283538Y-93091862D01*
X169283533Y-93091871D01*
X169234499Y-93210251D01*
X169234497Y-93210257D01*
X169209500Y-93335924D01*
X169209500Y-93335927D01*
X169209500Y-93464065D01*
X169209500Y-93464067D01*
X169209499Y-93464067D01*
X163000000Y-93464067D01*
X163000000Y-93329835D01*
X162999999Y-91888990D01*
X184974498Y-91888990D01*
X185001417Y-92024317D01*
X185001420Y-92024327D01*
X185054220Y-92151799D01*
X185054227Y-92151812D01*
X185130884Y-92266536D01*
X185130887Y-92266540D01*
X185228453Y-92364106D01*
X185228457Y-92364109D01*
X185343181Y-92440766D01*
X185343194Y-92440773D01*
X185470666Y-92493573D01*
X185470671Y-92493575D01*
X185470675Y-92493575D01*
X185470676Y-92493576D01*
X185606003Y-92520495D01*
X185606006Y-92520495D01*
X185743994Y-92520495D01*
X185835040Y-92502384D01*
X185879327Y-92493575D01*
X186006810Y-92440770D01*
X186121541Y-92364109D01*
X186219113Y-92266537D01*
X186295774Y-92151806D01*
X186348579Y-92024323D01*
X186375499Y-91888988D01*
X186375499Y-91071579D01*
X186395184Y-91004540D01*
X186447988Y-90958785D01*
X186517146Y-90948841D01*
X186580702Y-90977866D01*
X186606886Y-91009579D01*
X186669489Y-91118010D01*
X186771983Y-91220504D01*
X186771984Y-91220505D01*
X186771986Y-91220506D01*
X186897509Y-91292977D01*
X186897510Y-91292977D01*
X186897513Y-91292979D01*
X187037523Y-91330495D01*
X187037526Y-91330495D01*
X187182470Y-91330495D01*
X187182473Y-91330495D01*
X187322483Y-91292979D01*
X187448013Y-91220504D01*
X187550507Y-91118010D01*
X187622982Y-90992480D01*
X187660498Y-90852470D01*
X187660498Y-90707520D01*
X192339500Y-90707520D01*
X192339500Y-90852470D01*
X192373100Y-90977866D01*
X192377017Y-90992483D01*
X192449488Y-91118006D01*
X192449490Y-91118008D01*
X192449491Y-91118010D01*
X192551985Y-91220504D01*
X192551986Y-91220505D01*
X192551988Y-91220506D01*
X192677511Y-91292977D01*
X192677512Y-91292977D01*
X192677515Y-91292979D01*
X192817525Y-91330495D01*
X192817528Y-91330495D01*
X192962472Y-91330495D01*
X192962475Y-91330495D01*
X193102485Y-91292979D01*
X193228015Y-91220504D01*
X193330509Y-91118010D01*
X193393112Y-91009579D01*
X193443679Y-90961363D01*
X193512286Y-90948141D01*
X193577151Y-90974109D01*
X193617679Y-91031023D01*
X193624499Y-91071579D01*
X193624499Y-91888988D01*
X193624499Y-91888990D01*
X193624498Y-91888990D01*
X193651417Y-92024317D01*
X193651420Y-92024327D01*
X193704220Y-92151799D01*
X193704227Y-92151812D01*
X193780884Y-92266536D01*
X193780887Y-92266540D01*
X193878453Y-92364106D01*
X193878457Y-92364109D01*
X193993181Y-92440766D01*
X193993194Y-92440773D01*
X194120666Y-92493573D01*
X194120671Y-92493575D01*
X194120675Y-92493575D01*
X194120676Y-92493576D01*
X194256003Y-92520495D01*
X194256006Y-92520495D01*
X194393994Y-92520495D01*
X194485040Y-92502384D01*
X194529327Y-92493575D01*
X194656810Y-92440770D01*
X194771541Y-92364109D01*
X194869113Y-92266537D01*
X194945774Y-92151806D01*
X194998579Y-92024323D01*
X195025499Y-91888988D01*
X195025499Y-90651002D01*
X195025499Y-90650999D01*
X194998580Y-90515672D01*
X194998579Y-90515671D01*
X194998579Y-90515667D01*
X194998577Y-90515662D01*
X194945777Y-90388190D01*
X194945770Y-90388177D01*
X194869113Y-90273453D01*
X194869110Y-90273449D01*
X194771544Y-90175883D01*
X194771540Y-90175880D01*
X194656816Y-90099223D01*
X194656803Y-90099216D01*
X194529331Y-90046416D01*
X194529321Y-90046413D01*
X194393994Y-90019495D01*
X194393992Y-90019495D01*
X194256006Y-90019495D01*
X194256004Y-90019495D01*
X194120676Y-90046413D01*
X194120666Y-90046416D01*
X193993194Y-90099216D01*
X193993181Y-90099223D01*
X193878457Y-90175880D01*
X193878453Y-90175883D01*
X193780887Y-90273449D01*
X193780884Y-90273453D01*
X193704227Y-90388177D01*
X193704220Y-90388190D01*
X193651420Y-90515662D01*
X193651418Y-90515671D01*
X193643401Y-90555973D01*
X193611015Y-90617883D01*
X193550299Y-90652457D01*
X193480530Y-90648716D01*
X193423858Y-90607849D01*
X193407296Y-90574515D01*
X193406092Y-90575014D01*
X193402982Y-90567506D01*
X193330511Y-90441983D01*
X193330506Y-90441977D01*
X193228017Y-90339488D01*
X193228011Y-90339483D01*
X193102488Y-90267012D01*
X193102489Y-90267012D01*
X193091006Y-90263935D01*
X192962475Y-90229495D01*
X192817525Y-90229495D01*
X192688993Y-90263935D01*
X192677511Y-90267012D01*
X192551988Y-90339483D01*
X192551982Y-90339488D01*
X192449493Y-90441977D01*
X192449488Y-90441983D01*
X192377017Y-90567506D01*
X192377016Y-90567510D01*
X192339500Y-90707520D01*
X187660498Y-90707520D01*
X187622982Y-90567510D01*
X187616319Y-90555970D01*
X187550509Y-90441983D01*
X187550504Y-90441977D01*
X187448015Y-90339488D01*
X187448009Y-90339483D01*
X187322486Y-90267012D01*
X187322487Y-90267012D01*
X187311004Y-90263935D01*
X187182473Y-90229495D01*
X187037523Y-90229495D01*
X186908991Y-90263935D01*
X186897509Y-90267012D01*
X186771986Y-90339483D01*
X186771980Y-90339488D01*
X186669491Y-90441977D01*
X186669486Y-90441983D01*
X186597015Y-90567506D01*
X186593906Y-90575014D01*
X186591747Y-90574119D01*
X186561605Y-90623550D01*
X186498753Y-90654067D01*
X186429379Y-90645759D01*
X186375509Y-90601263D01*
X186356596Y-90555973D01*
X186348579Y-90515667D01*
X186348577Y-90515662D01*
X186295777Y-90388190D01*
X186295770Y-90388177D01*
X186219113Y-90273453D01*
X186219110Y-90273449D01*
X186121544Y-90175883D01*
X186121540Y-90175880D01*
X186006816Y-90099223D01*
X186006803Y-90099216D01*
X185879331Y-90046416D01*
X185879321Y-90046413D01*
X185743994Y-90019495D01*
X185743992Y-90019495D01*
X185606006Y-90019495D01*
X185606004Y-90019495D01*
X185470676Y-90046413D01*
X185470666Y-90046416D01*
X185343194Y-90099216D01*
X185343181Y-90099223D01*
X185228457Y-90175880D01*
X185228453Y-90175883D01*
X185130887Y-90273449D01*
X185130884Y-90273453D01*
X185054227Y-90388177D01*
X185054220Y-90388190D01*
X185001420Y-90515662D01*
X185001417Y-90515672D01*
X184974499Y-90650999D01*
X184974499Y-90651002D01*
X184974499Y-91888988D01*
X184974499Y-91888990D01*
X184974498Y-91888990D01*
X162999999Y-91888990D01*
X162999999Y-90455437D01*
X176545044Y-90455437D01*
X176570042Y-90581104D01*
X176570044Y-90581110D01*
X176619078Y-90699490D01*
X176619083Y-90699499D01*
X176690268Y-90806034D01*
X176690271Y-90806038D01*
X176780872Y-90896639D01*
X176780876Y-90896642D01*
X176887411Y-90967827D01*
X176887417Y-90967830D01*
X176887418Y-90967831D01*
X177005801Y-91016867D01*
X177005805Y-91016867D01*
X177005806Y-91016868D01*
X177131473Y-91041866D01*
X177131476Y-91041866D01*
X177259616Y-91041866D01*
X177344160Y-91025048D01*
X177385289Y-91016867D01*
X177503672Y-90967831D01*
X177610214Y-90896642D01*
X177700821Y-90806035D01*
X177772010Y-90699493D01*
X177821046Y-90581110D01*
X177836757Y-90502129D01*
X177846045Y-90455437D01*
X177846045Y-90327294D01*
X177821047Y-90201627D01*
X177821046Y-90201626D01*
X177821046Y-90201622D01*
X177772010Y-90083239D01*
X177772009Y-90083238D01*
X177772006Y-90083232D01*
X177700821Y-89976697D01*
X177700818Y-89976693D01*
X177610217Y-89886092D01*
X177610213Y-89886089D01*
X177503678Y-89814904D01*
X177503669Y-89814899D01*
X177385289Y-89765865D01*
X177385283Y-89765863D01*
X177259616Y-89740866D01*
X177259614Y-89740866D01*
X177131476Y-89740866D01*
X177131474Y-89740866D01*
X177005806Y-89765863D01*
X177005800Y-89765865D01*
X176887420Y-89814899D01*
X176887411Y-89814904D01*
X176780876Y-89886089D01*
X176780872Y-89886092D01*
X176690271Y-89976693D01*
X176690268Y-89976697D01*
X176619083Y-90083232D01*
X176619078Y-90083241D01*
X176570044Y-90201621D01*
X176570042Y-90201627D01*
X176545045Y-90327294D01*
X176545045Y-90327297D01*
X176545045Y-90455435D01*
X176545045Y-90455437D01*
X176545044Y-90455437D01*
X162999999Y-90455437D01*
X162999999Y-89568980D01*
X163550662Y-89568980D01*
X163575660Y-89694647D01*
X163575662Y-89694653D01*
X163624696Y-89813033D01*
X163624701Y-89813042D01*
X163695886Y-89919577D01*
X163695889Y-89919581D01*
X163786490Y-90010182D01*
X163786494Y-90010185D01*
X163893029Y-90081370D01*
X163893038Y-90081375D01*
X163897538Y-90083239D01*
X164011419Y-90130410D01*
X164011423Y-90130410D01*
X164011424Y-90130411D01*
X164137091Y-90155409D01*
X164137094Y-90155409D01*
X164265234Y-90155409D01*
X164349778Y-90138591D01*
X164390907Y-90130410D01*
X164509290Y-90081374D01*
X164615832Y-90010185D01*
X164706439Y-89919578D01*
X164777628Y-89813036D01*
X164826664Y-89694653D01*
X164833284Y-89661371D01*
X174293857Y-89661371D01*
X174318855Y-89787038D01*
X174318857Y-89787044D01*
X174367891Y-89905424D01*
X174367896Y-89905433D01*
X174439081Y-90011968D01*
X174439084Y-90011972D01*
X174529685Y-90102573D01*
X174529689Y-90102576D01*
X174636224Y-90173761D01*
X174636230Y-90173764D01*
X174636231Y-90173765D01*
X174754614Y-90222801D01*
X174754618Y-90222801D01*
X174754619Y-90222802D01*
X174880286Y-90247800D01*
X174880289Y-90247800D01*
X175008429Y-90247800D01*
X175100450Y-90229495D01*
X175134102Y-90222801D01*
X175252485Y-90173765D01*
X175359027Y-90102576D01*
X175449634Y-90011969D01*
X175520823Y-89905427D01*
X175569859Y-89787044D01*
X175584256Y-89714668D01*
X175594858Y-89661371D01*
X175594858Y-89533228D01*
X175569860Y-89407561D01*
X175569859Y-89407560D01*
X175569859Y-89407556D01*
X175551845Y-89364067D01*
X198849499Y-89364067D01*
X198874497Y-89489734D01*
X198874499Y-89489740D01*
X198923533Y-89608120D01*
X198923538Y-89608129D01*
X198994723Y-89714664D01*
X198994726Y-89714668D01*
X199085327Y-89805269D01*
X199085331Y-89805272D01*
X199191866Y-89876457D01*
X199191872Y-89876460D01*
X199191873Y-89876461D01*
X199310256Y-89925497D01*
X199310260Y-89925497D01*
X199310261Y-89925498D01*
X199435928Y-89950496D01*
X199435931Y-89950496D01*
X199564071Y-89950496D01*
X199648615Y-89933678D01*
X199689744Y-89925497D01*
X199808127Y-89876461D01*
X199914669Y-89805272D01*
X200005276Y-89714665D01*
X200076465Y-89608123D01*
X200125501Y-89489740D01*
X200150500Y-89364065D01*
X200150500Y-89235927D01*
X200150500Y-89235924D01*
X200125502Y-89110257D01*
X200125501Y-89110256D01*
X200125501Y-89110252D01*
X200076465Y-88991869D01*
X200076464Y-88991868D01*
X200076461Y-88991862D01*
X200005276Y-88885327D01*
X200005273Y-88885323D01*
X199914672Y-88794722D01*
X199914668Y-88794719D01*
X199808133Y-88723534D01*
X199808124Y-88723529D01*
X199689744Y-88674495D01*
X199689738Y-88674493D01*
X199564071Y-88649496D01*
X199564069Y-88649496D01*
X199435931Y-88649496D01*
X199435929Y-88649496D01*
X199310261Y-88674493D01*
X199310255Y-88674495D01*
X199191875Y-88723529D01*
X199191866Y-88723534D01*
X199085331Y-88794719D01*
X199085327Y-88794722D01*
X198994726Y-88885323D01*
X198994723Y-88885327D01*
X198923538Y-88991862D01*
X198923533Y-88991871D01*
X198874499Y-89110251D01*
X198874497Y-89110257D01*
X198849500Y-89235924D01*
X198849500Y-89235927D01*
X198849500Y-89364065D01*
X198849500Y-89364067D01*
X198849499Y-89364067D01*
X175551845Y-89364067D01*
X175520823Y-89289173D01*
X175520818Y-89289166D01*
X175449634Y-89182631D01*
X175449631Y-89182627D01*
X175359030Y-89092026D01*
X175359026Y-89092023D01*
X175252491Y-89020838D01*
X175252482Y-89020833D01*
X175134102Y-88971799D01*
X175134096Y-88971797D01*
X175008429Y-88946800D01*
X175008427Y-88946800D01*
X174880289Y-88946800D01*
X174880287Y-88946800D01*
X174754619Y-88971797D01*
X174754613Y-88971799D01*
X174636233Y-89020833D01*
X174636224Y-89020838D01*
X174529689Y-89092023D01*
X174529685Y-89092026D01*
X174439084Y-89182627D01*
X174439081Y-89182631D01*
X174367896Y-89289166D01*
X174367891Y-89289175D01*
X174318857Y-89407555D01*
X174318855Y-89407561D01*
X174293858Y-89533228D01*
X174293858Y-89533231D01*
X174293858Y-89661369D01*
X174293858Y-89661371D01*
X174293857Y-89661371D01*
X164833284Y-89661371D01*
X164843875Y-89608129D01*
X164851663Y-89568980D01*
X164851663Y-89440837D01*
X164826665Y-89315170D01*
X164826664Y-89315169D01*
X164826664Y-89315165D01*
X164777628Y-89196782D01*
X164777627Y-89196781D01*
X164777624Y-89196775D01*
X164706439Y-89090240D01*
X164706436Y-89090236D01*
X164615835Y-88999635D01*
X164615831Y-88999632D01*
X164509296Y-88928447D01*
X164509287Y-88928442D01*
X164390907Y-88879408D01*
X164390901Y-88879406D01*
X164265234Y-88854409D01*
X164265232Y-88854409D01*
X164137094Y-88854409D01*
X164137092Y-88854409D01*
X164011424Y-88879406D01*
X164011418Y-88879408D01*
X163893038Y-88928442D01*
X163893029Y-88928447D01*
X163786494Y-88999632D01*
X163786490Y-88999635D01*
X163695889Y-89090236D01*
X163695886Y-89090240D01*
X163624701Y-89196775D01*
X163624696Y-89196784D01*
X163575662Y-89315164D01*
X163575660Y-89315170D01*
X163550663Y-89440837D01*
X163550663Y-89440840D01*
X163550663Y-89568978D01*
X163550663Y-89568980D01*
X163550662Y-89568980D01*
X162999999Y-89568980D01*
X162999999Y-89434748D01*
X162999999Y-88224825D01*
X176164259Y-88224825D01*
X176164259Y-88369775D01*
X176201775Y-88509785D01*
X176201776Y-88509788D01*
X176274247Y-88635311D01*
X176274249Y-88635313D01*
X176274250Y-88635315D01*
X176376744Y-88737809D01*
X176376745Y-88737810D01*
X176376747Y-88737811D01*
X176502270Y-88810282D01*
X176502271Y-88810282D01*
X176502274Y-88810284D01*
X176642284Y-88847800D01*
X176642287Y-88847800D01*
X176787231Y-88847800D01*
X176787234Y-88847800D01*
X176927244Y-88810284D01*
X177052774Y-88737809D01*
X177155268Y-88635315D01*
X177227743Y-88509785D01*
X177265259Y-88369775D01*
X177265259Y-88224825D01*
X177227743Y-88084815D01*
X177204241Y-88044109D01*
X177155270Y-87959288D01*
X177155265Y-87959282D01*
X177052776Y-87856793D01*
X177052770Y-87856788D01*
X176927247Y-87784317D01*
X176927248Y-87784317D01*
X176906169Y-87778669D01*
X176787234Y-87746800D01*
X176642284Y-87746800D01*
X176523349Y-87778669D01*
X176502270Y-87784317D01*
X176376747Y-87856788D01*
X176376741Y-87856793D01*
X176274252Y-87959282D01*
X176274247Y-87959288D01*
X176201776Y-88084811D01*
X176201775Y-88084815D01*
X176164259Y-88224825D01*
X162999999Y-88224825D01*
X162999999Y-88128495D01*
X163019684Y-88061456D01*
X163072488Y-88015701D01*
X163123999Y-88004495D01*
X164628676Y-88004495D01*
X164628677Y-88004494D01*
X164701740Y-87989961D01*
X164784601Y-87934596D01*
X164839966Y-87851735D01*
X164854500Y-87778669D01*
X164854500Y-87064067D01*
X170499499Y-87064067D01*
X170524497Y-87189734D01*
X170524499Y-87189740D01*
X170573533Y-87308120D01*
X170573538Y-87308129D01*
X170644723Y-87414664D01*
X170644726Y-87414668D01*
X170735327Y-87505269D01*
X170735331Y-87505272D01*
X170841866Y-87576457D01*
X170841872Y-87576460D01*
X170841873Y-87576461D01*
X170960256Y-87625497D01*
X170960260Y-87625497D01*
X170960261Y-87625498D01*
X171085928Y-87650496D01*
X171085931Y-87650496D01*
X171214071Y-87650496D01*
X171298615Y-87633678D01*
X171339744Y-87625497D01*
X171458127Y-87576461D01*
X171469308Y-87568990D01*
X184974498Y-87568990D01*
X185001417Y-87704317D01*
X185001420Y-87704327D01*
X185054220Y-87831799D01*
X185054227Y-87831812D01*
X185130884Y-87946536D01*
X185130887Y-87946540D01*
X185228453Y-88044106D01*
X185228457Y-88044109D01*
X185343181Y-88120766D01*
X185343194Y-88120773D01*
X185470666Y-88173573D01*
X185470671Y-88173575D01*
X185470675Y-88173575D01*
X185470676Y-88173576D01*
X185606003Y-88200495D01*
X185606006Y-88200495D01*
X185743994Y-88200495D01*
X185835040Y-88182384D01*
X185879327Y-88173575D01*
X186006810Y-88120770D01*
X186121541Y-88044109D01*
X186219113Y-87946537D01*
X186295774Y-87831806D01*
X186348579Y-87704323D01*
X186361309Y-87640326D01*
X186375499Y-87568990D01*
X193624498Y-87568990D01*
X193651417Y-87704317D01*
X193651420Y-87704327D01*
X193704220Y-87831799D01*
X193704227Y-87831812D01*
X193780884Y-87946536D01*
X193780887Y-87946540D01*
X193878453Y-88044106D01*
X193878457Y-88044109D01*
X193993181Y-88120766D01*
X193993194Y-88120773D01*
X194120666Y-88173573D01*
X194120671Y-88173575D01*
X194120675Y-88173575D01*
X194120676Y-88173576D01*
X194256003Y-88200495D01*
X194256006Y-88200495D01*
X194393994Y-88200495D01*
X194485040Y-88182384D01*
X194529327Y-88173575D01*
X194656810Y-88120770D01*
X194771541Y-88044109D01*
X194869113Y-87946537D01*
X194945774Y-87831806D01*
X194998579Y-87704323D01*
X195011309Y-87640326D01*
X195025499Y-87568990D01*
X195025499Y-86630999D01*
X194998580Y-86495672D01*
X194998579Y-86495671D01*
X194998579Y-86495667D01*
X194986857Y-86467367D01*
X194945777Y-86368190D01*
X194945770Y-86368177D01*
X194869113Y-86253453D01*
X194869110Y-86253449D01*
X194771544Y-86155883D01*
X194771540Y-86155880D01*
X194656816Y-86079223D01*
X194656803Y-86079216D01*
X194529331Y-86026416D01*
X194529321Y-86026413D01*
X194393994Y-85999495D01*
X194393992Y-85999495D01*
X194256006Y-85999495D01*
X194256004Y-85999495D01*
X194120676Y-86026413D01*
X194120666Y-86026416D01*
X193993194Y-86079216D01*
X193993181Y-86079223D01*
X193878457Y-86155880D01*
X193878453Y-86155883D01*
X193780887Y-86253449D01*
X193780884Y-86253453D01*
X193704227Y-86368177D01*
X193704220Y-86368190D01*
X193651420Y-86495662D01*
X193651417Y-86495672D01*
X193624499Y-86630999D01*
X193624499Y-86631002D01*
X193624499Y-87568988D01*
X193624499Y-87568990D01*
X193624498Y-87568990D01*
X186375499Y-87568990D01*
X186375499Y-86630999D01*
X186348580Y-86495672D01*
X186348579Y-86495671D01*
X186348579Y-86495667D01*
X186336857Y-86467367D01*
X186295777Y-86368190D01*
X186295770Y-86368177D01*
X186219113Y-86253453D01*
X186219110Y-86253449D01*
X186121544Y-86155883D01*
X186121540Y-86155880D01*
X186006816Y-86079223D01*
X186006803Y-86079216D01*
X185879331Y-86026416D01*
X185879321Y-86026413D01*
X185743994Y-85999495D01*
X185743992Y-85999495D01*
X185606006Y-85999495D01*
X185606004Y-85999495D01*
X185470676Y-86026413D01*
X185470666Y-86026416D01*
X185343194Y-86079216D01*
X185343181Y-86079223D01*
X185228457Y-86155880D01*
X185228453Y-86155883D01*
X185130887Y-86253449D01*
X185130884Y-86253453D01*
X185054227Y-86368177D01*
X185054220Y-86368190D01*
X185001420Y-86495662D01*
X185001417Y-86495672D01*
X184974499Y-86630999D01*
X184974499Y-86631002D01*
X184974499Y-87568988D01*
X184974499Y-87568990D01*
X184974498Y-87568990D01*
X171469308Y-87568990D01*
X171564669Y-87505272D01*
X171655276Y-87414665D01*
X171726465Y-87308123D01*
X171775501Y-87189740D01*
X171800500Y-87064065D01*
X171800500Y-86935927D01*
X171800500Y-86935924D01*
X171775502Y-86810257D01*
X171775501Y-86810256D01*
X171775501Y-86810252D01*
X171726465Y-86691869D01*
X171726463Y-86691867D01*
X171726459Y-86691859D01*
X171655276Y-86585327D01*
X171655273Y-86585323D01*
X171564672Y-86494722D01*
X171564668Y-86494719D01*
X171458133Y-86423534D01*
X171458124Y-86423529D01*
X171339744Y-86374495D01*
X171339738Y-86374493D01*
X171214071Y-86349496D01*
X171214069Y-86349496D01*
X171085931Y-86349496D01*
X171085929Y-86349496D01*
X170960261Y-86374493D01*
X170960255Y-86374495D01*
X170841875Y-86423529D01*
X170841866Y-86423534D01*
X170735331Y-86494719D01*
X170735327Y-86494722D01*
X170644726Y-86585323D01*
X170644723Y-86585327D01*
X170573538Y-86691862D01*
X170573533Y-86691871D01*
X170524499Y-86810251D01*
X170524497Y-86810257D01*
X170499500Y-86935924D01*
X170499500Y-86935927D01*
X170499500Y-87064065D01*
X170499500Y-87064067D01*
X170499499Y-87064067D01*
X164854500Y-87064067D01*
X164854500Y-86221321D01*
X164854500Y-86221318D01*
X164854499Y-86221316D01*
X164839967Y-86148259D01*
X164839966Y-86148255D01*
X164812556Y-86107233D01*
X164784601Y-86065394D01*
X164710648Y-86015981D01*
X164701739Y-86010028D01*
X164701735Y-86010027D01*
X164628677Y-85995495D01*
X164628674Y-85995495D01*
X163123999Y-85995495D01*
X163056960Y-85975810D01*
X163011205Y-85923006D01*
X162999999Y-85871495D01*
X162999999Y-85624499D01*
X163019684Y-85557460D01*
X163072488Y-85511705D01*
X163123999Y-85500499D01*
X204909438Y-85500499D01*
X204909442Y-85500500D01*
G37*
%TD.AperFunction*%
%TD*%
%TA.AperFunction,Conductor*%
%TO.N,V3.3-F*%
G36*
X159945316Y-85520184D02*
G01*
X159991071Y-85572988D01*
X160002277Y-85624325D01*
X160003918Y-86795259D01*
X159984327Y-86862326D01*
X159931587Y-86908155D01*
X159862443Y-86918195D01*
X159798847Y-86889260D01*
X159760990Y-86830535D01*
X159758301Y-86819624D01*
X159735897Y-86706993D01*
X159660179Y-86524193D01*
X159660179Y-86524192D01*
X159660172Y-86524179D01*
X159550246Y-86359664D01*
X159550243Y-86359660D01*
X159410334Y-86219751D01*
X159410330Y-86219748D01*
X159245815Y-86109822D01*
X159245802Y-86109815D01*
X159063006Y-86034099D01*
X159062996Y-86034096D01*
X158868937Y-85995495D01*
X158868935Y-85995495D01*
X158671065Y-85995495D01*
X158671063Y-85995495D01*
X158477003Y-86034096D01*
X158476993Y-86034099D01*
X158294197Y-86109815D01*
X158294184Y-86109822D01*
X158129669Y-86219748D01*
X158129665Y-86219751D01*
X157989756Y-86359660D01*
X157989753Y-86359664D01*
X157879827Y-86524179D01*
X157879820Y-86524192D01*
X157804104Y-86706988D01*
X157804101Y-86706998D01*
X157765500Y-86901057D01*
X157765500Y-86901058D01*
X157765500Y-86901060D01*
X157765500Y-87098930D01*
X157765500Y-87098932D01*
X157765499Y-87098932D01*
X157804101Y-87292991D01*
X157804104Y-87293001D01*
X157879820Y-87475797D01*
X157879827Y-87475810D01*
X157989753Y-87640325D01*
X157989756Y-87640329D01*
X158129665Y-87780238D01*
X158129669Y-87780241D01*
X158294184Y-87890167D01*
X158294197Y-87890174D01*
X158476993Y-87965890D01*
X158476998Y-87965892D01*
X158477002Y-87965892D01*
X158477003Y-87965893D01*
X158671062Y-88004495D01*
X158671065Y-88004495D01*
X158868937Y-88004495D01*
X158999495Y-87978524D01*
X159063002Y-87965892D01*
X159204389Y-87907327D01*
X159245802Y-87890174D01*
X159245802Y-87890173D01*
X159245809Y-87890171D01*
X159410331Y-87780241D01*
X159550246Y-87640326D01*
X159660176Y-87475804D01*
X159735897Y-87292997D01*
X159758871Y-87177501D01*
X159791256Y-87115590D01*
X159851971Y-87081016D01*
X159921741Y-87084755D01*
X159978413Y-87125622D01*
X160003994Y-87190640D01*
X160004488Y-87201518D01*
X160029489Y-105028819D01*
X165931139Y-107965732D01*
X165982387Y-108013222D01*
X165999894Y-108076915D01*
X165990417Y-114993154D01*
X165994849Y-121215175D01*
X165975212Y-121282228D01*
X165963277Y-121297049D01*
X165959488Y-121301988D01*
X165887017Y-121427510D01*
X165887016Y-121427514D01*
X165849500Y-121567524D01*
X165849500Y-121712474D01*
X165887016Y-121852484D01*
X165887017Y-121852487D01*
X165959488Y-121978010D01*
X165964438Y-121984460D01*
X165963318Y-121985319D01*
X165992620Y-122038981D01*
X165995454Y-122065251D01*
X165998524Y-126374201D01*
X165978887Y-126441254D01*
X165926116Y-126487047D01*
X165874548Y-126498289D01*
X163879953Y-126498674D01*
X163812910Y-126479002D01*
X163767145Y-126426207D01*
X163757188Y-126357051D01*
X163758312Y-126350482D01*
X163775501Y-126264071D01*
X163775501Y-126135928D01*
X163750503Y-126010261D01*
X163750502Y-126010260D01*
X163750502Y-126010256D01*
X163701466Y-125891873D01*
X163701465Y-125891872D01*
X163701462Y-125891866D01*
X163630277Y-125785331D01*
X163630274Y-125785327D01*
X163539673Y-125694726D01*
X163539669Y-125694723D01*
X163433134Y-125623538D01*
X163433125Y-125623533D01*
X163314745Y-125574499D01*
X163314739Y-125574497D01*
X163189072Y-125549500D01*
X163189070Y-125549500D01*
X163060932Y-125549500D01*
X163060930Y-125549500D01*
X162935262Y-125574497D01*
X162935256Y-125574499D01*
X162816876Y-125623533D01*
X162816867Y-125623538D01*
X162710332Y-125694723D01*
X162710328Y-125694726D01*
X162619727Y-125785327D01*
X162619724Y-125785331D01*
X162548539Y-125891866D01*
X162548534Y-125891875D01*
X162499500Y-126010255D01*
X162499498Y-126010261D01*
X162474501Y-126135928D01*
X162474501Y-126264073D01*
X162491747Y-126350773D01*
X162485520Y-126420364D01*
X162442657Y-126475542D01*
X162376767Y-126498786D01*
X162370154Y-126498964D01*
X157978098Y-126499811D01*
X157911055Y-126480139D01*
X157865290Y-126427344D01*
X157855333Y-126358188D01*
X157884345Y-126294626D01*
X157890380Y-126288143D01*
X157940509Y-126238015D01*
X158012984Y-126112485D01*
X158050500Y-125972475D01*
X158050500Y-125827525D01*
X158012984Y-125687515D01*
X158007217Y-125677527D01*
X157940511Y-125561988D01*
X157940506Y-125561982D01*
X157838017Y-125459493D01*
X157838011Y-125459488D01*
X157712488Y-125387017D01*
X157712489Y-125387017D01*
X157701006Y-125383940D01*
X157572475Y-125349500D01*
X157427525Y-125349500D01*
X157298993Y-125383940D01*
X157287511Y-125387017D01*
X157161988Y-125459488D01*
X157161982Y-125459493D01*
X157059493Y-125561982D01*
X157059488Y-125561988D01*
X156987017Y-125687511D01*
X156987016Y-125687515D01*
X156949500Y-125827525D01*
X156949500Y-125972475D01*
X156980460Y-126088017D01*
X156987017Y-126112488D01*
X157059488Y-126238011D01*
X157059493Y-126238017D01*
X157109791Y-126288315D01*
X157143276Y-126349638D01*
X157138292Y-126419330D01*
X157096420Y-126475263D01*
X157030956Y-126499680D01*
X157022134Y-126499996D01*
X150210529Y-126501309D01*
X150143486Y-126481637D01*
X150097721Y-126428842D01*
X150087764Y-126359686D01*
X150116776Y-126296124D01*
X150155932Y-126267888D01*
X150155447Y-126267048D01*
X150242731Y-126216653D01*
X150288015Y-126190509D01*
X150390509Y-126088015D01*
X150462984Y-125962485D01*
X150495159Y-125842404D01*
X150531524Y-125782746D01*
X150594372Y-125752217D01*
X150614934Y-125750500D01*
X150707472Y-125750500D01*
X150707475Y-125750500D01*
X150847485Y-125712984D01*
X150973015Y-125640509D01*
X151075509Y-125538015D01*
X151110433Y-125477525D01*
X154999500Y-125477525D01*
X154999500Y-125622475D01*
X155033805Y-125750500D01*
X155037017Y-125762488D01*
X155109488Y-125888011D01*
X155109490Y-125888013D01*
X155109491Y-125888015D01*
X155211985Y-125990509D01*
X155211986Y-125990510D01*
X155211988Y-125990511D01*
X155337511Y-126062982D01*
X155337512Y-126062982D01*
X155337515Y-126062984D01*
X155477525Y-126100500D01*
X155477528Y-126100500D01*
X155622472Y-126100500D01*
X155622475Y-126100500D01*
X155762485Y-126062984D01*
X155888015Y-125990509D01*
X155990509Y-125888015D01*
X156062984Y-125762485D01*
X156100500Y-125622475D01*
X156100500Y-125477525D01*
X156062984Y-125337515D01*
X156046805Y-125309493D01*
X155990511Y-125211988D01*
X155990506Y-125211982D01*
X155888017Y-125109493D01*
X155888011Y-125109488D01*
X155762488Y-125037017D01*
X155762489Y-125037017D01*
X155751006Y-125033940D01*
X155622475Y-124999500D01*
X155477525Y-124999500D01*
X155348993Y-125033940D01*
X155337511Y-125037017D01*
X155211988Y-125109488D01*
X155211982Y-125109493D01*
X155109493Y-125211982D01*
X155109488Y-125211988D01*
X155037017Y-125337511D01*
X155037016Y-125337515D01*
X154999500Y-125477525D01*
X151110433Y-125477525D01*
X151147984Y-125412485D01*
X151185500Y-125272475D01*
X151185500Y-125127525D01*
X151147984Y-124987515D01*
X151075509Y-124861985D01*
X150973015Y-124759491D01*
X150973013Y-124759490D01*
X150973011Y-124759488D01*
X150847488Y-124687017D01*
X150847489Y-124687017D01*
X150836006Y-124683940D01*
X150707475Y-124649500D01*
X150562525Y-124649500D01*
X150433993Y-124683940D01*
X150422511Y-124687017D01*
X150296988Y-124759488D01*
X150296982Y-124759493D01*
X150194493Y-124861982D01*
X150194488Y-124861988D01*
X150122017Y-124987511D01*
X150122016Y-124987515D01*
X150103798Y-125055507D01*
X150089841Y-125107594D01*
X150053476Y-125167254D01*
X149990628Y-125197783D01*
X149970066Y-125199500D01*
X149877525Y-125199500D01*
X149748993Y-125233940D01*
X149737511Y-125237017D01*
X149611988Y-125309488D01*
X149611982Y-125309493D01*
X149509493Y-125411982D01*
X149509488Y-125411988D01*
X149437017Y-125537511D01*
X149437016Y-125537515D01*
X149399500Y-125677525D01*
X149399500Y-125822475D01*
X149418096Y-125891875D01*
X149437017Y-125962488D01*
X149509488Y-126088011D01*
X149509490Y-126088013D01*
X149509491Y-126088015D01*
X149611985Y-126190509D01*
X149611986Y-126190510D01*
X149611988Y-126190511D01*
X149744553Y-126267048D01*
X149743868Y-126268232D01*
X149791590Y-126306686D01*
X149813657Y-126372980D01*
X149796380Y-126440680D01*
X149745244Y-126488292D01*
X149689760Y-126501410D01*
X148124961Y-126501712D01*
X148057918Y-126482040D01*
X148012153Y-126429245D01*
X148000937Y-126377725D01*
X148000831Y-125092404D01*
X148019402Y-125027126D01*
X148099440Y-124897859D01*
X148166421Y-124724960D01*
X148200491Y-124542697D01*
X148200491Y-124524308D01*
X148200498Y-124524189D01*
X148200498Y-124515895D01*
X148200499Y-124515892D01*
X148200498Y-121297525D01*
X155188852Y-121297525D01*
X155188852Y-121442475D01*
X155222359Y-121567524D01*
X155226369Y-121582488D01*
X155298840Y-121708011D01*
X155298842Y-121708013D01*
X155298843Y-121708015D01*
X155401337Y-121810509D01*
X155401338Y-121810510D01*
X155401340Y-121810511D01*
X155526863Y-121882982D01*
X155526864Y-121882982D01*
X155526867Y-121882984D01*
X155666877Y-121920500D01*
X155666880Y-121920500D01*
X155811824Y-121920500D01*
X155811827Y-121920500D01*
X155951837Y-121882984D01*
X156077367Y-121810509D01*
X156179861Y-121708015D01*
X156252336Y-121582485D01*
X156289852Y-121442475D01*
X156289852Y-121297525D01*
X156252336Y-121157515D01*
X156179861Y-121031985D01*
X156077367Y-120929491D01*
X156077365Y-120929490D01*
X156077363Y-120929488D01*
X155951840Y-120857017D01*
X155951841Y-120857017D01*
X155940358Y-120853940D01*
X155811827Y-120819500D01*
X155666877Y-120819500D01*
X155538345Y-120853940D01*
X155526863Y-120857017D01*
X155401340Y-120929488D01*
X155401334Y-120929493D01*
X155298845Y-121031982D01*
X155298840Y-121031988D01*
X155226369Y-121157511D01*
X155226368Y-121157515D01*
X155188852Y-121297525D01*
X148200498Y-121297525D01*
X148200498Y-119814071D01*
X148449499Y-119814071D01*
X148474497Y-119939738D01*
X148474499Y-119939744D01*
X148523533Y-120058124D01*
X148523538Y-120058133D01*
X148594723Y-120164668D01*
X148594726Y-120164672D01*
X148685327Y-120255273D01*
X148685331Y-120255276D01*
X148791866Y-120326461D01*
X148791872Y-120326464D01*
X148791873Y-120326465D01*
X148910256Y-120375501D01*
X148910260Y-120375501D01*
X148910261Y-120375502D01*
X149035928Y-120400500D01*
X149035931Y-120400500D01*
X149164071Y-120400500D01*
X149248615Y-120383682D01*
X149289744Y-120375501D01*
X149408127Y-120326465D01*
X149514669Y-120255276D01*
X149605276Y-120164669D01*
X149676465Y-120058127D01*
X149725501Y-119939744D01*
X149750500Y-119814069D01*
X149750500Y-119685931D01*
X149750500Y-119685928D01*
X149725502Y-119560261D01*
X149725501Y-119560260D01*
X149725501Y-119560256D01*
X149676465Y-119441873D01*
X149676464Y-119441872D01*
X149676461Y-119441866D01*
X149605276Y-119335331D01*
X149605273Y-119335327D01*
X149514672Y-119244726D01*
X149514668Y-119244723D01*
X149408133Y-119173538D01*
X149408124Y-119173533D01*
X149289744Y-119124499D01*
X149289738Y-119124497D01*
X149164071Y-119099500D01*
X149164069Y-119099500D01*
X149035931Y-119099500D01*
X149035929Y-119099500D01*
X148910261Y-119124497D01*
X148910255Y-119124499D01*
X148791875Y-119173533D01*
X148791866Y-119173538D01*
X148685331Y-119244723D01*
X148685327Y-119244726D01*
X148594726Y-119335327D01*
X148594723Y-119335331D01*
X148523538Y-119441866D01*
X148523533Y-119441875D01*
X148474499Y-119560255D01*
X148474497Y-119560261D01*
X148449500Y-119685928D01*
X148449500Y-119685931D01*
X148449500Y-119814069D01*
X148449500Y-119814071D01*
X148449499Y-119814071D01*
X148200498Y-119814071D01*
X148200498Y-118916796D01*
X151114660Y-118916796D01*
X151114660Y-119061746D01*
X151138971Y-119152475D01*
X151152177Y-119201759D01*
X151224648Y-119327282D01*
X151224650Y-119327284D01*
X151224651Y-119327286D01*
X151327145Y-119429780D01*
X151327146Y-119429781D01*
X151327148Y-119429782D01*
X151452671Y-119502253D01*
X151452672Y-119502253D01*
X151452675Y-119502255D01*
X151592685Y-119539771D01*
X151592688Y-119539771D01*
X151737632Y-119539771D01*
X151737635Y-119539771D01*
X151877645Y-119502255D01*
X151938577Y-119467075D01*
X152006476Y-119450603D01*
X152072503Y-119473455D01*
X152088258Y-119486782D01*
X152121985Y-119520509D01*
X152121986Y-119520510D01*
X152121988Y-119520511D01*
X152247511Y-119592982D01*
X152247512Y-119592982D01*
X152247515Y-119592984D01*
X152387525Y-119630500D01*
X152387528Y-119630500D01*
X152532472Y-119630500D01*
X152532475Y-119630500D01*
X152672485Y-119592984D01*
X152798015Y-119520509D01*
X152900509Y-119418015D01*
X152972984Y-119292485D01*
X153010500Y-119152475D01*
X153010500Y-119007525D01*
X152972984Y-118867515D01*
X152938348Y-118807524D01*
X160099500Y-118807524D01*
X160099500Y-118952474D01*
X160114252Y-119007527D01*
X160137017Y-119092487D01*
X160209488Y-119218010D01*
X160209490Y-119218012D01*
X160209491Y-119218014D01*
X160311985Y-119320508D01*
X160311986Y-119320509D01*
X160311988Y-119320510D01*
X160437511Y-119392981D01*
X160437512Y-119392981D01*
X160437515Y-119392983D01*
X160577525Y-119430499D01*
X160577528Y-119430499D01*
X160722472Y-119430499D01*
X160722475Y-119430499D01*
X160862485Y-119392983D01*
X160988015Y-119320508D01*
X161090509Y-119218014D01*
X161162984Y-119092484D01*
X161200500Y-118952474D01*
X161200500Y-118807524D01*
X161162984Y-118667514D01*
X161153597Y-118651256D01*
X161090511Y-118541987D01*
X161090506Y-118541981D01*
X160988017Y-118439492D01*
X160988011Y-118439487D01*
X160862488Y-118367016D01*
X160862489Y-118367016D01*
X160851006Y-118363939D01*
X160722475Y-118329499D01*
X160577525Y-118329499D01*
X160448993Y-118363939D01*
X160437511Y-118367016D01*
X160311988Y-118439487D01*
X160311982Y-118439492D01*
X160209493Y-118541981D01*
X160209488Y-118541987D01*
X160137017Y-118667510D01*
X160137016Y-118667514D01*
X160099500Y-118807524D01*
X152938348Y-118807524D01*
X152900509Y-118741985D01*
X152798015Y-118639491D01*
X152798013Y-118639490D01*
X152798011Y-118639488D01*
X152672488Y-118567017D01*
X152672489Y-118567017D01*
X152661006Y-118563940D01*
X152532475Y-118529500D01*
X152387525Y-118529500D01*
X152289108Y-118555870D01*
X152247510Y-118567017D01*
X152247507Y-118567018D01*
X152186582Y-118602194D01*
X152118682Y-118618667D01*
X152052655Y-118595814D01*
X152036903Y-118582489D01*
X152003178Y-118548765D01*
X152003177Y-118548764D01*
X152003175Y-118548762D01*
X152003173Y-118548761D01*
X152003171Y-118548759D01*
X151877648Y-118476288D01*
X151877649Y-118476288D01*
X151866166Y-118473211D01*
X151737635Y-118438771D01*
X151592685Y-118438771D01*
X151464153Y-118473211D01*
X151452671Y-118476288D01*
X151327148Y-118548759D01*
X151327142Y-118548764D01*
X151224653Y-118651253D01*
X151224648Y-118651259D01*
X151152177Y-118776782D01*
X151152176Y-118776786D01*
X151114660Y-118916796D01*
X148200498Y-118916796D01*
X148200498Y-118260180D01*
X164374499Y-118260180D01*
X164399497Y-118385847D01*
X164399499Y-118385853D01*
X164448533Y-118504233D01*
X164448538Y-118504242D01*
X164519723Y-118610777D01*
X164519726Y-118610781D01*
X164610327Y-118701382D01*
X164610331Y-118701385D01*
X164716866Y-118772570D01*
X164716875Y-118772575D01*
X164743692Y-118783683D01*
X164835256Y-118821610D01*
X164835260Y-118821610D01*
X164835261Y-118821611D01*
X164960928Y-118846609D01*
X164960931Y-118846609D01*
X165089071Y-118846609D01*
X165173615Y-118829791D01*
X165214744Y-118821610D01*
X165333127Y-118772574D01*
X165439669Y-118701385D01*
X165530276Y-118610778D01*
X165601465Y-118504236D01*
X165650501Y-118385853D01*
X165675500Y-118260178D01*
X165675500Y-118132040D01*
X165675500Y-118132037D01*
X165650502Y-118006370D01*
X165650501Y-118006369D01*
X165650501Y-118006365D01*
X165601465Y-117887982D01*
X165601464Y-117887981D01*
X165601461Y-117887975D01*
X165530276Y-117781440D01*
X165530273Y-117781436D01*
X165439672Y-117690835D01*
X165439668Y-117690832D01*
X165333133Y-117619647D01*
X165333124Y-117619642D01*
X165214744Y-117570608D01*
X165214738Y-117570606D01*
X165089071Y-117545609D01*
X165089069Y-117545609D01*
X164960931Y-117545609D01*
X164960929Y-117545609D01*
X164835261Y-117570606D01*
X164835255Y-117570608D01*
X164716875Y-117619642D01*
X164716866Y-117619647D01*
X164610331Y-117690832D01*
X164610327Y-117690835D01*
X164519726Y-117781436D01*
X164519723Y-117781440D01*
X164448538Y-117887975D01*
X164448533Y-117887984D01*
X164399499Y-118006364D01*
X164399497Y-118006370D01*
X164374500Y-118132037D01*
X164374500Y-118132040D01*
X164374500Y-118260178D01*
X164374500Y-118260180D01*
X164374499Y-118260180D01*
X148200498Y-118260180D01*
X148200498Y-117084108D01*
X148200498Y-117057292D01*
X148166428Y-116875029D01*
X148166426Y-116875025D01*
X148099447Y-116702130D01*
X148099446Y-116702128D01*
X148082959Y-116675501D01*
X148018696Y-116571712D01*
X148000124Y-116506446D01*
X148000121Y-116464668D01*
X148000109Y-116314071D01*
X154349499Y-116314071D01*
X154374497Y-116439738D01*
X154374499Y-116439744D01*
X154423533Y-116558124D01*
X154423538Y-116558133D01*
X154494723Y-116664668D01*
X154494726Y-116664672D01*
X154585327Y-116755273D01*
X154585331Y-116755276D01*
X154691866Y-116826461D01*
X154691872Y-116826464D01*
X154691873Y-116826465D01*
X154810256Y-116875501D01*
X154810260Y-116875501D01*
X154810261Y-116875502D01*
X154935928Y-116900500D01*
X154935931Y-116900500D01*
X155064071Y-116900500D01*
X155148615Y-116883682D01*
X155189744Y-116875501D01*
X155308127Y-116826465D01*
X155414669Y-116755276D01*
X155505276Y-116664669D01*
X155576465Y-116558127D01*
X155625501Y-116439744D01*
X155648828Y-116322475D01*
X155650500Y-116314071D01*
X155650500Y-116185928D01*
X155636206Y-116114071D01*
X159849499Y-116114071D01*
X159874497Y-116239738D01*
X159874499Y-116239744D01*
X159923533Y-116358124D01*
X159923538Y-116358133D01*
X159994723Y-116464668D01*
X159994726Y-116464672D01*
X160085327Y-116555273D01*
X160085331Y-116555276D01*
X160191866Y-116626461D01*
X160191872Y-116626464D01*
X160191873Y-116626465D01*
X160310256Y-116675501D01*
X160310260Y-116675501D01*
X160310261Y-116675502D01*
X160435928Y-116700500D01*
X160435931Y-116700500D01*
X160564071Y-116700500D01*
X160648615Y-116683682D01*
X160689744Y-116675501D01*
X160808127Y-116626465D01*
X160914669Y-116555276D01*
X161005276Y-116464669D01*
X161076465Y-116358127D01*
X161125501Y-116239744D01*
X161130808Y-116213063D01*
X161137878Y-116177525D01*
X162649500Y-116177525D01*
X162649500Y-116322475D01*
X162683805Y-116450500D01*
X162687017Y-116462488D01*
X162759488Y-116588011D01*
X162759490Y-116588013D01*
X162759491Y-116588015D01*
X162861985Y-116690509D01*
X162861986Y-116690510D01*
X162861988Y-116690511D01*
X162987511Y-116762982D01*
X162987512Y-116762982D01*
X162987515Y-116762984D01*
X163127525Y-116800500D01*
X163127528Y-116800500D01*
X163272472Y-116800500D01*
X163272475Y-116800500D01*
X163412485Y-116762984D01*
X163538015Y-116690509D01*
X163640509Y-116588015D01*
X163700145Y-116484721D01*
X163750711Y-116436506D01*
X163819318Y-116423282D01*
X163839609Y-116426942D01*
X163927525Y-116450500D01*
X163927529Y-116450500D01*
X164072472Y-116450500D01*
X164072475Y-116450500D01*
X164212485Y-116412984D01*
X164338015Y-116340509D01*
X164440509Y-116238015D01*
X164512984Y-116112485D01*
X164550500Y-115972475D01*
X164550500Y-115827525D01*
X164512984Y-115687515D01*
X164504914Y-115673538D01*
X164440511Y-115561988D01*
X164440506Y-115561982D01*
X164338017Y-115459493D01*
X164338011Y-115459488D01*
X164212488Y-115387017D01*
X164212489Y-115387017D01*
X164201006Y-115383940D01*
X164072475Y-115349500D01*
X163927525Y-115349500D01*
X163798993Y-115383940D01*
X163787511Y-115387017D01*
X163661988Y-115459488D01*
X163661982Y-115459493D01*
X163559493Y-115561982D01*
X163559491Y-115561985D01*
X163499854Y-115665279D01*
X163449286Y-115713494D01*
X163380679Y-115726716D01*
X163360379Y-115723054D01*
X163272475Y-115699500D01*
X163127525Y-115699500D01*
X163025955Y-115726716D01*
X162987511Y-115737017D01*
X162861988Y-115809488D01*
X162861982Y-115809493D01*
X162759493Y-115911982D01*
X162759488Y-115911988D01*
X162687017Y-116037511D01*
X162687016Y-116037515D01*
X162649500Y-116177525D01*
X161137878Y-116177525D01*
X161144307Y-116145206D01*
X161144307Y-116145205D01*
X161150499Y-116114073D01*
X161150500Y-116114071D01*
X161150500Y-115985928D01*
X161125502Y-115860261D01*
X161125501Y-115860260D01*
X161125501Y-115860256D01*
X161076465Y-115741873D01*
X161076464Y-115741872D01*
X161076461Y-115741866D01*
X161005276Y-115635331D01*
X161005273Y-115635327D01*
X160914672Y-115544726D01*
X160914668Y-115544723D01*
X160808133Y-115473538D01*
X160808124Y-115473533D01*
X160689744Y-115424499D01*
X160689738Y-115424497D01*
X160564071Y-115399500D01*
X160564069Y-115399500D01*
X160435931Y-115399500D01*
X160435929Y-115399500D01*
X160310261Y-115424497D01*
X160310255Y-115424499D01*
X160191875Y-115473533D01*
X160191866Y-115473538D01*
X160085331Y-115544723D01*
X160085327Y-115544726D01*
X159994726Y-115635327D01*
X159994723Y-115635331D01*
X159923538Y-115741866D01*
X159923533Y-115741875D01*
X159874499Y-115860255D01*
X159874497Y-115860261D01*
X159849500Y-115985928D01*
X159849500Y-115985931D01*
X159849500Y-116114069D01*
X159849500Y-116114071D01*
X159849499Y-116114071D01*
X155636206Y-116114071D01*
X155625502Y-116060261D01*
X155625501Y-116060260D01*
X155625501Y-116060256D01*
X155625499Y-116060251D01*
X155611847Y-116027291D01*
X155576466Y-115941876D01*
X155576466Y-115941875D01*
X155576465Y-115941873D01*
X155576463Y-115941870D01*
X155576461Y-115941866D01*
X155505276Y-115835331D01*
X155505273Y-115835327D01*
X155414672Y-115744726D01*
X155414668Y-115744723D01*
X155308133Y-115673538D01*
X155308124Y-115673533D01*
X155189744Y-115624499D01*
X155189738Y-115624497D01*
X155064071Y-115599500D01*
X155064069Y-115599500D01*
X154935931Y-115599500D01*
X154935929Y-115599500D01*
X154810261Y-115624497D01*
X154810255Y-115624499D01*
X154691875Y-115673533D01*
X154691866Y-115673538D01*
X154585331Y-115744723D01*
X154585327Y-115744726D01*
X154494726Y-115835327D01*
X154494723Y-115835331D01*
X154423538Y-115941866D01*
X154423533Y-115941875D01*
X154374499Y-116060255D01*
X154374497Y-116060261D01*
X154349500Y-116185928D01*
X154349500Y-116185931D01*
X154349500Y-116314069D01*
X154349500Y-116314071D01*
X154349499Y-116314071D01*
X148000109Y-116314071D01*
X148000010Y-115124005D01*
X148019689Y-115056965D01*
X148072489Y-115011206D01*
X148124005Y-114999996D01*
X154001464Y-114999996D01*
X156001170Y-112999507D01*
X156000648Y-111664939D01*
X156020306Y-111597894D01*
X156073092Y-111552119D01*
X156092538Y-111545123D01*
X156212485Y-111512984D01*
X156338015Y-111440509D01*
X156440509Y-111338015D01*
X156512984Y-111212485D01*
X156550500Y-111072475D01*
X156550500Y-110927525D01*
X156512984Y-110787515D01*
X156440509Y-110661985D01*
X156338015Y-110559491D01*
X156338013Y-110559490D01*
X156338011Y-110559488D01*
X156212489Y-110487017D01*
X156092034Y-110454741D01*
X156032374Y-110418375D01*
X156001846Y-110355528D01*
X156000129Y-110335020D01*
X155998827Y-106999507D01*
X155663260Y-106664071D01*
X157349499Y-106664071D01*
X157374497Y-106789738D01*
X157374499Y-106789744D01*
X157423533Y-106908124D01*
X157423538Y-106908133D01*
X157494723Y-107014668D01*
X157494726Y-107014672D01*
X157585327Y-107105273D01*
X157585331Y-107105276D01*
X157691866Y-107176461D01*
X157691872Y-107176464D01*
X157691873Y-107176465D01*
X157810256Y-107225501D01*
X157810260Y-107225501D01*
X157810261Y-107225502D01*
X157935928Y-107250500D01*
X157935931Y-107250500D01*
X158064071Y-107250500D01*
X158148615Y-107233682D01*
X158189744Y-107225501D01*
X158308127Y-107176465D01*
X158414669Y-107105276D01*
X158505276Y-107014669D01*
X158576465Y-106908127D01*
X158625501Y-106789744D01*
X158650500Y-106664069D01*
X158650500Y-106535931D01*
X158650500Y-106535928D01*
X158625502Y-106410261D01*
X158625501Y-106410260D01*
X158625501Y-106410256D01*
X158576465Y-106291873D01*
X158576464Y-106291872D01*
X158576461Y-106291866D01*
X158505276Y-106185331D01*
X158505273Y-106185327D01*
X158414672Y-106094726D01*
X158414668Y-106094723D01*
X158308133Y-106023538D01*
X158308124Y-106023533D01*
X158189744Y-105974499D01*
X158189738Y-105974497D01*
X158064071Y-105949500D01*
X158064069Y-105949500D01*
X157935931Y-105949500D01*
X157935929Y-105949500D01*
X157810261Y-105974497D01*
X157810255Y-105974499D01*
X157691875Y-106023533D01*
X157691866Y-106023538D01*
X157585331Y-106094723D01*
X157585327Y-106094726D01*
X157494726Y-106185327D01*
X157494723Y-106185331D01*
X157423538Y-106291866D01*
X157423533Y-106291875D01*
X157374499Y-106410255D01*
X157374497Y-106410261D01*
X157349500Y-106535928D01*
X157349500Y-106535931D01*
X157349500Y-106664069D01*
X157349500Y-106664071D01*
X157349499Y-106664071D01*
X155663260Y-106664071D01*
X153998535Y-104999996D01*
X152091781Y-104999996D01*
X152024742Y-104980311D01*
X151984394Y-104937996D01*
X151940509Y-104861985D01*
X151838015Y-104759491D01*
X151838013Y-104759490D01*
X151838011Y-104759488D01*
X151712488Y-104687017D01*
X151712489Y-104687017D01*
X151701006Y-104683940D01*
X151572475Y-104649500D01*
X151427525Y-104649500D01*
X151298993Y-104683940D01*
X151287511Y-104687017D01*
X151161988Y-104759488D01*
X151161982Y-104759493D01*
X151059493Y-104861982D01*
X151059489Y-104861988D01*
X151015606Y-104937996D01*
X150965039Y-104986212D01*
X150908219Y-104999996D01*
X148785739Y-104999996D01*
X148719170Y-104980612D01*
X146057431Y-103286906D01*
X146011439Y-103234309D01*
X146000000Y-103182290D01*
X146000000Y-102057108D01*
X151216073Y-102057108D01*
X151241071Y-102182775D01*
X151241073Y-102182781D01*
X151290107Y-102301161D01*
X151290112Y-102301170D01*
X151361297Y-102407705D01*
X151361300Y-102407709D01*
X151451901Y-102498310D01*
X151451905Y-102498313D01*
X151558440Y-102569498D01*
X151558446Y-102569501D01*
X151558447Y-102569502D01*
X151676830Y-102618538D01*
X151676834Y-102618538D01*
X151676835Y-102618539D01*
X151802502Y-102643537D01*
X151802505Y-102643537D01*
X151930645Y-102643537D01*
X152015189Y-102626719D01*
X152056318Y-102618538D01*
X152174701Y-102569502D01*
X152281243Y-102498313D01*
X152371850Y-102407706D01*
X152443039Y-102301164D01*
X152492075Y-102182781D01*
X152517074Y-102057106D01*
X152517074Y-101928968D01*
X152517074Y-101928965D01*
X152492076Y-101803298D01*
X152492075Y-101803297D01*
X152492075Y-101803293D01*
X152443039Y-101684910D01*
X152443038Y-101684909D01*
X152443035Y-101684903D01*
X152371850Y-101578368D01*
X152371847Y-101578364D01*
X152281246Y-101487763D01*
X152281242Y-101487760D01*
X152174707Y-101416575D01*
X152174698Y-101416570D01*
X152056318Y-101367536D01*
X152056312Y-101367534D01*
X151930645Y-101342537D01*
X151930643Y-101342537D01*
X151802505Y-101342537D01*
X151802503Y-101342537D01*
X151676835Y-101367534D01*
X151676829Y-101367536D01*
X151558449Y-101416570D01*
X151558440Y-101416575D01*
X151451905Y-101487760D01*
X151451901Y-101487763D01*
X151361300Y-101578364D01*
X151361297Y-101578368D01*
X151290112Y-101684903D01*
X151290107Y-101684912D01*
X151241073Y-101803292D01*
X151241071Y-101803298D01*
X151216074Y-101928965D01*
X151216074Y-101928968D01*
X151216074Y-102057106D01*
X151216074Y-102057108D01*
X151216073Y-102057108D01*
X146000000Y-102057108D01*
X146000000Y-100676570D01*
X158399498Y-100676570D01*
X158424496Y-100802237D01*
X158424498Y-100802243D01*
X158473532Y-100920623D01*
X158473537Y-100920632D01*
X158544722Y-101027167D01*
X158544725Y-101027171D01*
X158635326Y-101117772D01*
X158635330Y-101117775D01*
X158741865Y-101188960D01*
X158741871Y-101188963D01*
X158741872Y-101188964D01*
X158860255Y-101238000D01*
X158860259Y-101238000D01*
X158860260Y-101238001D01*
X158985927Y-101262999D01*
X158985930Y-101262999D01*
X159114070Y-101262999D01*
X159198614Y-101246181D01*
X159239743Y-101238000D01*
X159358126Y-101188964D01*
X159464668Y-101117775D01*
X159555275Y-101027168D01*
X159626464Y-100920626D01*
X159675500Y-100802243D01*
X159700499Y-100676568D01*
X159700499Y-100548430D01*
X159700499Y-100548427D01*
X159675501Y-100422760D01*
X159675500Y-100422759D01*
X159675500Y-100422755D01*
X159626464Y-100304372D01*
X159626463Y-100304371D01*
X159626460Y-100304365D01*
X159555275Y-100197830D01*
X159555272Y-100197826D01*
X159464671Y-100107225D01*
X159464667Y-100107222D01*
X159358132Y-100036037D01*
X159358123Y-100036032D01*
X159239743Y-99986998D01*
X159239737Y-99986996D01*
X159114070Y-99961999D01*
X159114068Y-99961999D01*
X158985930Y-99961999D01*
X158985928Y-99961999D01*
X158860260Y-99986996D01*
X158860254Y-99986998D01*
X158741874Y-100036032D01*
X158741865Y-100036037D01*
X158635330Y-100107222D01*
X158635326Y-100107225D01*
X158544725Y-100197826D01*
X158544722Y-100197830D01*
X158473537Y-100304365D01*
X158473532Y-100304374D01*
X158424498Y-100422754D01*
X158424496Y-100422760D01*
X158399499Y-100548427D01*
X158399499Y-100548430D01*
X158399499Y-100676568D01*
X158399499Y-100676570D01*
X158399498Y-100676570D01*
X146000000Y-100676570D01*
X146000000Y-99364071D01*
X151998515Y-99364071D01*
X152023513Y-99489738D01*
X152023515Y-99489744D01*
X152072549Y-99608124D01*
X152072554Y-99608133D01*
X152143739Y-99714668D01*
X152143742Y-99714672D01*
X152234343Y-99805273D01*
X152234347Y-99805276D01*
X152340882Y-99876461D01*
X152340888Y-99876464D01*
X152340889Y-99876465D01*
X152459272Y-99925501D01*
X152459276Y-99925501D01*
X152459277Y-99925502D01*
X152584944Y-99950500D01*
X152584947Y-99950500D01*
X152713087Y-99950500D01*
X152797631Y-99933682D01*
X152838760Y-99925501D01*
X152957143Y-99876465D01*
X153063685Y-99805276D01*
X153154292Y-99714669D01*
X153225481Y-99608127D01*
X153274517Y-99489744D01*
X153299516Y-99364069D01*
X153299516Y-99235931D01*
X153299516Y-99235928D01*
X153274518Y-99110261D01*
X153274517Y-99110260D01*
X153274517Y-99110256D01*
X153225481Y-98991873D01*
X153225480Y-98991872D01*
X153225477Y-98991866D01*
X153154292Y-98885331D01*
X153154289Y-98885327D01*
X153063688Y-98794726D01*
X153063684Y-98794723D01*
X152957149Y-98723538D01*
X152957140Y-98723533D01*
X152838760Y-98674499D01*
X152838754Y-98674497D01*
X152713087Y-98649500D01*
X152713085Y-98649500D01*
X152584947Y-98649500D01*
X152584945Y-98649500D01*
X152459277Y-98674497D01*
X152459271Y-98674499D01*
X152340891Y-98723533D01*
X152340882Y-98723538D01*
X152234347Y-98794723D01*
X152234343Y-98794726D01*
X152143742Y-98885327D01*
X152143739Y-98885331D01*
X152072554Y-98991866D01*
X152072549Y-98991875D01*
X152023515Y-99110255D01*
X152023513Y-99110261D01*
X151998516Y-99235928D01*
X151998516Y-99235931D01*
X151998516Y-99364069D01*
X151998516Y-99364071D01*
X151998515Y-99364071D01*
X146000000Y-99364071D01*
X146000000Y-97676566D01*
X155998515Y-97676566D01*
X156023513Y-97802233D01*
X156023515Y-97802239D01*
X156072549Y-97920619D01*
X156072554Y-97920628D01*
X156143739Y-98027163D01*
X156143742Y-98027167D01*
X156234343Y-98117768D01*
X156234347Y-98117771D01*
X156340882Y-98188956D01*
X156340888Y-98188959D01*
X156340889Y-98188960D01*
X156459272Y-98237996D01*
X156459276Y-98237996D01*
X156459277Y-98237997D01*
X156584944Y-98262995D01*
X156584947Y-98262995D01*
X156713087Y-98262995D01*
X156797631Y-98246177D01*
X156838760Y-98237996D01*
X156957143Y-98188960D01*
X157063685Y-98117771D01*
X157154292Y-98027164D01*
X157225481Y-97920622D01*
X157274517Y-97802239D01*
X157299516Y-97676564D01*
X157299516Y-97548426D01*
X157299516Y-97548423D01*
X157274518Y-97422756D01*
X157274517Y-97422755D01*
X157274517Y-97422751D01*
X157225481Y-97304368D01*
X157225480Y-97304367D01*
X157225477Y-97304361D01*
X157154292Y-97197826D01*
X157154289Y-97197822D01*
X157063688Y-97107221D01*
X157063684Y-97107218D01*
X156957149Y-97036033D01*
X156957140Y-97036028D01*
X156838760Y-96986994D01*
X156838754Y-96986992D01*
X156713087Y-96961995D01*
X156713085Y-96961995D01*
X156584947Y-96961995D01*
X156584945Y-96961995D01*
X156459277Y-96986992D01*
X156459271Y-96986994D01*
X156340891Y-97036028D01*
X156340882Y-97036033D01*
X156234347Y-97107218D01*
X156234343Y-97107221D01*
X156143742Y-97197822D01*
X156143739Y-97197826D01*
X156072554Y-97304361D01*
X156072549Y-97304370D01*
X156023515Y-97422750D01*
X156023513Y-97422756D01*
X155998516Y-97548423D01*
X155998516Y-97548426D01*
X155998516Y-97676564D01*
X155998516Y-97676566D01*
X155998515Y-97676566D01*
X146000000Y-97676566D01*
X146000000Y-96064071D01*
X158249499Y-96064071D01*
X158274497Y-96189738D01*
X158274499Y-96189744D01*
X158323533Y-96308124D01*
X158323538Y-96308133D01*
X158394723Y-96414668D01*
X158394726Y-96414672D01*
X158485327Y-96505273D01*
X158485331Y-96505276D01*
X158591866Y-96576461D01*
X158591872Y-96576464D01*
X158591873Y-96576465D01*
X158710256Y-96625501D01*
X158710260Y-96625501D01*
X158710261Y-96625502D01*
X158835928Y-96650500D01*
X158835931Y-96650500D01*
X158964071Y-96650500D01*
X159048615Y-96633682D01*
X159089744Y-96625501D01*
X159208127Y-96576465D01*
X159314669Y-96505276D01*
X159405276Y-96414669D01*
X159476465Y-96308127D01*
X159525501Y-96189744D01*
X159550500Y-96064069D01*
X159550500Y-95935931D01*
X159550500Y-95935928D01*
X159525502Y-95810261D01*
X159525501Y-95810260D01*
X159525501Y-95810256D01*
X159476465Y-95691873D01*
X159476464Y-95691872D01*
X159476461Y-95691866D01*
X159405276Y-95585331D01*
X159405273Y-95585327D01*
X159314672Y-95494726D01*
X159314668Y-95494723D01*
X159208133Y-95423538D01*
X159208124Y-95423533D01*
X159089744Y-95374499D01*
X159089738Y-95374497D01*
X158964071Y-95349500D01*
X158964069Y-95349500D01*
X158835931Y-95349500D01*
X158835929Y-95349500D01*
X158710261Y-95374497D01*
X158710255Y-95374499D01*
X158591875Y-95423533D01*
X158591866Y-95423538D01*
X158485331Y-95494723D01*
X158485327Y-95494726D01*
X158394726Y-95585327D01*
X158394723Y-95585331D01*
X158323538Y-95691866D01*
X158323533Y-95691875D01*
X158274499Y-95810255D01*
X158274497Y-95810261D01*
X158249500Y-95935928D01*
X158249500Y-95935931D01*
X158249500Y-96064069D01*
X158249500Y-96064071D01*
X158249499Y-96064071D01*
X146000000Y-96064071D01*
X146000000Y-95000050D01*
X146000000Y-95000000D01*
X145993546Y-87098933D01*
X155225499Y-87098933D01*
X155264101Y-87292992D01*
X155264104Y-87293002D01*
X155339820Y-87475798D01*
X155339827Y-87475811D01*
X155449753Y-87640326D01*
X155449756Y-87640330D01*
X155589665Y-87780239D01*
X155589669Y-87780242D01*
X155754184Y-87890168D01*
X155754197Y-87890175D01*
X155861440Y-87934596D01*
X155936998Y-87965893D01*
X155937002Y-87965893D01*
X155937003Y-87965894D01*
X156131062Y-88004496D01*
X156131065Y-88004496D01*
X156328937Y-88004496D01*
X156459495Y-87978525D01*
X156523002Y-87965893D01*
X156705809Y-87890172D01*
X156870331Y-87780242D01*
X157010246Y-87640327D01*
X157120176Y-87475805D01*
X157195897Y-87292998D01*
X157229191Y-87125622D01*
X157234500Y-87098933D01*
X157234500Y-86901058D01*
X157195898Y-86706999D01*
X157195897Y-86706998D01*
X157195897Y-86706994D01*
X157195895Y-86706988D01*
X157120179Y-86524193D01*
X157120172Y-86524180D01*
X157010246Y-86359665D01*
X157010243Y-86359661D01*
X156870334Y-86219752D01*
X156870330Y-86219749D01*
X156705815Y-86109823D01*
X156705802Y-86109816D01*
X156523006Y-86034100D01*
X156522996Y-86034097D01*
X156328937Y-85995496D01*
X156328935Y-85995496D01*
X156131065Y-85995496D01*
X156131063Y-85995496D01*
X155937003Y-86034097D01*
X155936993Y-86034100D01*
X155754197Y-86109816D01*
X155754184Y-86109823D01*
X155589669Y-86219749D01*
X155589665Y-86219752D01*
X155449756Y-86359661D01*
X155449753Y-86359665D01*
X155339827Y-86524180D01*
X155339820Y-86524193D01*
X155264104Y-86706989D01*
X155264101Y-86706999D01*
X155225500Y-86901058D01*
X155225500Y-86901060D01*
X155225500Y-86901061D01*
X155225500Y-87098931D01*
X155225500Y-87098933D01*
X155225499Y-87098933D01*
X145993546Y-87098933D01*
X145992342Y-85624596D01*
X146011971Y-85557545D01*
X146064737Y-85511747D01*
X146116339Y-85500499D01*
X159878278Y-85500499D01*
X159945316Y-85520184D01*
G37*
%TD.AperFunction*%
%TD*%
M02*
