%TF.GenerationSoftware,KiCad,Pcbnew,10.0.1*%
%TF.CreationDate,2026-08-15T22:17:47+02:00*%
%TF.ProjectId,psu-ext,7073752d-6578-4742-9e6b-696361645f70,1.2.1*%
%TF.SameCoordinates,Original*%
%TF.FileFunction,Copper,L1,Top*%
%TF.FilePolarity,Positive*%
%FSLAX46Y46*%
G04 Gerber Fmt 4.6, Leading zero omitted, Abs format (unit mm)*
G04 Created by KiCad (PCBNEW 10.0.1) date 2026-08-15 22:17:47*
%MOMM*%
%LPD*%
G01*
G04 APERTURE LIST*
G04 Aperture macros list*
%AMRoundRect*
0 Rectangle with rounded corners*
0 $1 Rounding radius*
0 $2 $3 $4 $5 $6 $7 $8 $9 X,Y pos of 4 corners*
0 Add a 4 corners polygon primitive as box body*
4,1,4,$2,$3,$4,$5,$6,$7,$8,$9,$2,$3,0*
0 Add four circle primitives for the rounded corners*
1,1,$1+$1,$2,$3*
1,1,$1+$1,$4,$5*
1,1,$1+$1,$6,$7*
1,1,$1+$1,$8,$9*
0 Add four rect primitives between the rounded corners*
20,1,$1+$1,$2,$3,$4,$5,0*
20,1,$1+$1,$4,$5,$6,$7,0*
20,1,$1+$1,$6,$7,$8,$9,0*
20,1,$1+$1,$8,$9,$2,$3,0*%
G04 Aperture macros list end*
%TA.AperFunction,SMDPad,CuDef*%
%ADD10RoundRect,0.250000X0.475000X-0.250000X0.475000X0.250000X-0.475000X0.250000X-0.475000X-0.250000X0*%
%TD*%
%TA.AperFunction,SMDPad,CuDef*%
%ADD11RoundRect,0.250000X0.412500X0.650000X-0.412500X0.650000X-0.412500X-0.650000X0.412500X-0.650000X0*%
%TD*%
%TA.AperFunction,SMDPad,CuDef*%
%ADD12RoundRect,0.250000X-0.450000X0.262500X-0.450000X-0.262500X0.450000X-0.262500X0.450000X0.262500X0*%
%TD*%
%TA.AperFunction,SMDPad,CuDef*%
%ADD13RoundRect,0.150000X0.825000X0.150000X-0.825000X0.150000X-0.825000X-0.150000X0.825000X-0.150000X0*%
%TD*%
%TA.AperFunction,SMDPad,CuDef*%
%ADD14RoundRect,0.250000X-0.250000X-0.475000X0.250000X-0.475000X0.250000X0.475000X-0.250000X0.475000X0*%
%TD*%
%TA.AperFunction,SMDPad,CuDef*%
%ADD15RoundRect,0.162500X-0.650000X-0.162500X0.650000X-0.162500X0.650000X0.162500X-0.650000X0.162500X0*%
%TD*%
%TA.AperFunction,SMDPad,CuDef*%
%ADD16RoundRect,0.150000X0.150000X-0.825000X0.150000X0.825000X-0.150000X0.825000X-0.150000X-0.825000X0*%
%TD*%
%TA.AperFunction,SMDPad,CuDef*%
%ADD17RoundRect,0.375000X0.625000X0.375000X-0.625000X0.375000X-0.625000X-0.375000X0.625000X-0.375000X0*%
%TD*%
%TA.AperFunction,SMDPad,CuDef*%
%ADD18RoundRect,0.500000X0.500000X1.400000X-0.500000X1.400000X-0.500000X-1.400000X0.500000X-1.400000X0*%
%TD*%
%TA.AperFunction,SMDPad,CuDef*%
%ADD19RoundRect,0.250000X-0.475000X0.250000X-0.475000X-0.250000X0.475000X-0.250000X0.475000X0.250000X0*%
%TD*%
%TA.AperFunction,SMDPad,CuDef*%
%ADD20R,1.800000X1.000000*%
%TD*%
%TA.AperFunction,ComponentPad*%
%ADD21R,1.508000X1.508000*%
%TD*%
%TA.AperFunction,ComponentPad*%
%ADD22C,1.508000*%
%TD*%
%TA.AperFunction,ComponentPad*%
%ADD23C,1.800000*%
%TD*%
%TA.AperFunction,SMDPad,CuDef*%
%ADD24RoundRect,0.250000X-0.275000X-0.750000X0.275000X-0.750000X0.275000X0.750000X-0.275000X0.750000X0*%
%TD*%
%TA.AperFunction,SMDPad,CuDef*%
%ADD25RoundRect,0.250000X0.250000X0.475000X-0.250000X0.475000X-0.250000X-0.475000X0.250000X-0.475000X0*%
%TD*%
%TA.AperFunction,SMDPad,CuDef*%
%ADD26RoundRect,0.243750X0.243750X0.456250X-0.243750X0.456250X-0.243750X-0.456250X0.243750X-0.456250X0*%
%TD*%
%TA.AperFunction,SMDPad,CuDef*%
%ADD27RoundRect,0.243750X-0.456250X0.243750X-0.456250X-0.243750X0.456250X-0.243750X0.456250X0.243750X0*%
%TD*%
%TA.AperFunction,ComponentPad*%
%ADD28R,1.700000X1.700000*%
%TD*%
%TA.AperFunction,ComponentPad*%
%ADD29C,1.700000*%
%TD*%
%TA.AperFunction,SMDPad,CuDef*%
%ADD30RoundRect,0.249999X1.425001X-0.450001X1.425001X0.450001X-1.425001X0.450001X-1.425001X-0.450001X0*%
%TD*%
%TA.AperFunction,SMDPad,CuDef*%
%ADD31RoundRect,0.250000X-0.262500X-0.450000X0.262500X-0.450000X0.262500X0.450000X-0.262500X0.450000X0*%
%TD*%
%TA.AperFunction,SMDPad,CuDef*%
%ADD32R,1.500000X0.900000*%
%TD*%
%TA.AperFunction,SMDPad,CuDef*%
%ADD33R,0.900000X1.500000*%
%TD*%
%TA.AperFunction,HeatsinkPad*%
%ADD34C,0.600000*%
%TD*%
%TA.AperFunction,HeatsinkPad*%
%ADD35R,3.900000X3.900000*%
%TD*%
%TA.AperFunction,ComponentPad*%
%ADD36C,5.700000*%
%TD*%
%TA.AperFunction,SMDPad,CuDef*%
%ADD37C,1.500000*%
%TD*%
%TA.AperFunction,SMDPad,CuDef*%
%ADD38RoundRect,0.250000X0.262500X0.450000X-0.262500X0.450000X-0.262500X-0.450000X0.262500X-0.450000X0*%
%TD*%
%TA.AperFunction,SMDPad,CuDef*%
%ADD39RoundRect,0.250000X1.250000X0.550000X-1.250000X0.550000X-1.250000X-0.550000X1.250000X-0.550000X0*%
%TD*%
%TA.AperFunction,SMDPad,CuDef*%
%ADD40R,0.600000X1.140000*%
%TD*%
%TA.AperFunction,SMDPad,CuDef*%
%ADD41R,0.300000X1.140000*%
%TD*%
%TA.AperFunction,ComponentPad*%
%ADD42O,0.900000X2.000000*%
%TD*%
%TA.AperFunction,ComponentPad*%
%ADD43O,0.900000X1.700000*%
%TD*%
%TA.AperFunction,SMDPad,CuDef*%
%ADD44RoundRect,0.150000X-0.512500X-0.150000X0.512500X-0.150000X0.512500X0.150000X-0.512500X0.150000X0*%
%TD*%
%TA.AperFunction,ComponentPad*%
%ADD45C,7.600000*%
%TD*%
%TA.AperFunction,SMDPad,CuDef*%
%ADD46RoundRect,0.150000X-0.150000X0.512500X-0.150000X-0.512500X0.150000X-0.512500X0.150000X0.512500X0*%
%TD*%
%TA.AperFunction,SMDPad,CuDef*%
%ADD47RoundRect,0.250000X-0.650000X0.325000X-0.650000X-0.325000X0.650000X-0.325000X0.650000X0.325000X0*%
%TD*%
%TA.AperFunction,SMDPad,CuDef*%
%ADD48RoundRect,0.250000X0.450000X-0.262500X0.450000X0.262500X-0.450000X0.262500X-0.450000X-0.262500X0*%
%TD*%
%TA.AperFunction,SMDPad,CuDef*%
%ADD49RoundRect,0.075000X-0.650000X-0.075000X0.650000X-0.075000X0.650000X0.075000X-0.650000X0.075000X0*%
%TD*%
%TA.AperFunction,SMDPad,CuDef*%
%ADD50RoundRect,0.250000X0.550000X-1.250000X0.550000X1.250000X-0.550000X1.250000X-0.550000X-1.250000X0*%
%TD*%
%TA.AperFunction,SMDPad,CuDef*%
%ADD51RoundRect,0.250000X-0.503814X-0.132583X-0.132583X-0.503814X0.503814X0.132583X0.132583X0.503814X0*%
%TD*%
%TA.AperFunction,SMDPad,CuDef*%
%ADD52RoundRect,0.243750X-0.243750X-0.456250X0.243750X-0.456250X0.243750X0.456250X-0.243750X0.456250X0*%
%TD*%
%TA.AperFunction,SMDPad,CuDef*%
%ADD53RoundRect,0.250000X-0.325000X-0.650000X0.325000X-0.650000X0.325000X0.650000X-0.325000X0.650000X0*%
%TD*%
%TA.AperFunction,ViaPad*%
%ADD54C,0.800000*%
%TD*%
%TA.AperFunction,ViaPad*%
%ADD55C,0.600000*%
%TD*%
%TA.AperFunction,Conductor*%
%ADD56C,0.400000*%
%TD*%
%TA.AperFunction,Conductor*%
%ADD57C,0.300000*%
%TD*%
%TA.AperFunction,Conductor*%
%ADD58C,0.200000*%
%TD*%
%TA.AperFunction,Conductor*%
%ADD59C,1.400000*%
%TD*%
%TA.AperFunction,Conductor*%
%ADD60C,0.280000*%
%TD*%
G04 APERTURE END LIST*
D10*
%TO.P,C12,1*%
%TO.N,V3.3*%
X198600000Y-132329996D03*
%TO.P,C12,2*%
%TO.N,GND*%
X198600000Y-130429996D03*
%TD*%
D11*
%TO.P,C7,1*%
%TO.N,VUSB*%
X163062500Y-93500000D03*
%TO.P,C7,2*%
%TO.N,V5-F*%
X159937500Y-93500000D03*
%TD*%
D12*
%TO.P,R2,1*%
%TO.N,Net-(J1-CC2)*%
X185450000Y-96049995D03*
%TO.P,R2,2*%
%TO.N,GND*%
X185450000Y-97874995D03*
%TD*%
D10*
%TO.P,C2,1*%
%TO.N,VUSB*%
X174944357Y-92497300D03*
%TO.P,C2,2*%
%TO.N,GND*%
X174944357Y-90597300D03*
%TD*%
D13*
%TO.P,U6,1,VCC1_1*%
%TO.N,V3.3*%
X169975000Y-122910000D03*
%TO.P,U6,2,SDA1_2*%
%TO.N,SDA*%
X169975000Y-121640000D03*
%TO.P,U6,3,SCL1_3*%
%TO.N,SCL*%
X169975000Y-120370000D03*
%TO.P,U6,4,GND1_4*%
%TO.N,GND*%
X169975000Y-119100000D03*
%TO.P,U6,5,GND2_5*%
%TO.N,GNDS*%
X165025000Y-119100000D03*
%TO.P,U6,6,SCL2_6*%
%TO.N,/FrontEnd/SCLS*%
X165025000Y-120370000D03*
%TO.P,U6,7,SDA2_7*%
%TO.N,/FrontEnd/SDAS*%
X165025000Y-121640000D03*
%TO.P,U6,8,VCC2_8*%
%TO.N,V3.3-F*%
X165025000Y-122910000D03*
%TD*%
D14*
%TO.P,C30,1*%
%TO.N,/FrontEnd/AIN0*%
X152206740Y-118500000D03*
%TO.P,C30,2*%
%TO.N,GNDS*%
X154106740Y-118500000D03*
%TD*%
D11*
%TO.P,C8,1*%
%TO.N,GND*%
X163062500Y-96000000D03*
%TO.P,C8,2*%
%TO.N,GNDS*%
X159937500Y-96000000D03*
%TD*%
D14*
%TO.P,C18,1*%
%TO.N,/ESP32/XTAL_32K_P*%
X198950000Y-125321902D03*
%TO.P,C18,2*%
%TO.N,GND*%
X200850000Y-125321902D03*
%TD*%
D15*
%TO.P,U9,1,~{CS}_1*%
%TO.N,/ESP32/~{CS}*%
X181412500Y-108094996D03*
%TO.P,U9,2,DO/IO_{1}_2*%
%TO.N,/ESP32/DO_MISO*%
X181412500Y-109364996D03*
%TO.P,U9,3,~{WP}/IO_{2}_3*%
%TO.N,Net-(U9-~{WP}{slash}IO_{2})*%
X181412500Y-110634996D03*
%TO.P,U9,4,GND_4*%
%TO.N,GND*%
X181412500Y-111904996D03*
%TO.P,U9,5,DI/IO_{0}_5*%
%TO.N,/ESP32/DI_MOSI*%
X188587500Y-111904996D03*
%TO.P,U9,6,CLK_6*%
%TO.N,/ESP32/CLK*%
X188587500Y-110634996D03*
%TO.P,U9,7,~{HOLD}/~{RESET}/IO_{3}_7*%
%TO.N,Net-(U9-~{HOLD}{slash}~{RESET}{slash}IO_{3})*%
X188587500Y-109364996D03*
%TO.P,U9,8,VCC_8*%
%TO.N,V3.3*%
X188587500Y-108094996D03*
%TD*%
D16*
%TO.P,U8,1,-_1*%
%TO.N,/FrontEnd/SENSE_N*%
X152190000Y-112494297D03*
%TO.P,U8,2,GND_2*%
%TO.N,GNDS*%
X153460000Y-112494297D03*
%TO.P,U8,3,REF2_3*%
X154730000Y-112494297D03*
%TO.P,U8,4,GND_4*%
X156000000Y-112494297D03*
%TO.P,U8,5*%
%TO.N,Net-(R29-Pad2)*%
X156000000Y-107544297D03*
%TO.P,U8,6,V+_6*%
%TO.N,V3.3-F*%
X154730000Y-107544297D03*
%TO.P,U8,7,REF1_7*%
%TO.N,Net-(U10--)*%
X153460000Y-107544297D03*
%TO.P,U8,8,+_8*%
%TO.N,/FrontEnd/SENSE_P*%
X152190000Y-107544297D03*
%TD*%
D17*
%TO.P,U3,1,GND_1*%
%TO.N,GND*%
X174940001Y-102209996D03*
%TO.P,U3,2,VO_2*%
%TO.N,V3.3*%
X174940001Y-99909996D03*
D18*
X168640001Y-99909996D03*
D17*
%TO.P,U3,3,VI_3*%
%TO.N,VUSB*%
X174940001Y-97609996D03*
%TD*%
D19*
%TO.P,C27,1*%
%TO.N,/FrontEnd/SENSE_P*%
X150046271Y-109049996D03*
%TO.P,C27,2*%
%TO.N,/FrontEnd/SENSE_N*%
X150046271Y-110949996D03*
%TD*%
D20*
%TO.P,Y1,1*%
%TO.N,/ESP32/XTAL_32K_P*%
X196999999Y-125321900D03*
%TO.P,Y1,2*%
%TO.N,/ESP32/XTAL_32K_N*%
X196999999Y-122821902D03*
%TD*%
D21*
%TO.P,K1,1*%
%TO.N,VUSB*%
X150355000Y-132400000D03*
D22*
%TO.P,K1,2*%
%TO.N,Net-(D11-K)*%
X147815000Y-132400000D03*
D23*
%TO.P,K1,3*%
%TO.N,/FrontEnd/SNT_N*%
X140195000Y-132400000D03*
%TO.P,K1,4*%
%TO.N,/FrontEnd/LOAD_P*%
X132575000Y-132400000D03*
%TD*%
D24*
%TO.P,SW1,1,1_1*%
%TO.N,/ESP32/EN*%
X202675000Y-109999996D03*
%TO.P,SW1,2,2_2*%
%TO.N,GND*%
X207125000Y-109999996D03*
%TD*%
D25*
%TO.P,C26,1*%
%TO.N,V3.3-F*%
X154730001Y-105200000D03*
%TO.P,C26,2*%
%TO.N,GNDS*%
X152830001Y-105200000D03*
%TD*%
D12*
%TO.P,R1,1*%
%TO.N,Net-(J1-CC1)*%
X195000000Y-96049995D03*
%TO.P,R1,2*%
%TO.N,GND*%
X195000000Y-97874995D03*
%TD*%
D26*
%TO.P,D3,1,K_1*%
%TO.N,GND*%
X207637500Y-98449995D03*
%TO.P,D3,2,A_2*%
%TO.N,Net-(D3-A)*%
X205762500Y-98449995D03*
%TD*%
D14*
%TO.P,C19,1*%
%TO.N,/ESP32/XTAL_32K_N*%
X198950000Y-122821902D03*
%TO.P,C19,2*%
%TO.N,GND*%
X200850000Y-122821902D03*
%TD*%
D27*
%TO.P,D2,1,K_1*%
%TO.N,Net-(D2-K)*%
X180093140Y-86474995D03*
%TO.P,D2,2,A_2*%
%TO.N,+5V*%
X180093140Y-88349995D03*
%TD*%
D14*
%TO.P,C20,1*%
%TO.N,V3.3*%
X169974999Y-125000004D03*
%TO.P,C20,2*%
%TO.N,GND*%
X171874999Y-125000004D03*
%TD*%
D19*
%TO.P,C10,1*%
%TO.N,V5-F*%
X156649016Y-94700000D03*
%TO.P,C10,2*%
%TO.N,GNDS*%
X156649016Y-96600000D03*
%TD*%
D28*
%TO.P,J4,1,Pin_1_1*%
%TO.N,Net-(D6-K)*%
X204725000Y-122796902D03*
D29*
%TO.P,J4,2,Pin_2_2*%
%TO.N,Net-(D5-K)*%
X207265000Y-122796902D03*
%TO.P,J4,3,Pin_3_3*%
%TO.N,GND*%
X204725000Y-125336902D03*
%TO.P,J4,4,Pin_4_4*%
X207265000Y-125336902D03*
%TD*%
D30*
%TO.P,R32,1*%
%TO.N,/FrontEnd/SNT_N*%
X142600000Y-113049995D03*
%TO.P,R32,2*%
%TO.N,/FrontEnd/PSU_P*%
X142600000Y-106949995D03*
%TD*%
D31*
%TO.P,R15,1*%
%TO.N,/ESP32/ST_USB*%
X202174999Y-98449995D03*
%TO.P,R15,2*%
%TO.N,Net-(D3-A)*%
X203999999Y-98449995D03*
%TD*%
D32*
%TO.P,U5,1,GND_1*%
%TO.N,GND*%
X193750000Y-133599995D03*
%TO.P,U5,2,3V3_2*%
%TO.N,V3.3*%
X193750000Y-132329995D03*
%TO.P,U5,3,EN_3*%
%TO.N,/ESP32/EN*%
X193750000Y-131059995D03*
%TO.P,U5,4,IO4_4*%
%TO.N,/ESP32/TRG1*%
X193750000Y-129789995D03*
%TO.P,U5,5,IO5_5*%
%TO.N,/ESP32/TRG2*%
X193750000Y-128519995D03*
%TO.P,U5,6,IO6_6*%
%TO.N,unconnected-(U5-IO6-Pad6)*%
X193750000Y-127249995D03*
%TO.P,U5,7,IO7_7*%
%TO.N,unconnected-(U5-IO7-Pad7)*%
X193750000Y-125979995D03*
%TO.P,U5,8,IO15_8*%
%TO.N,/ESP32/XTAL_32K_P*%
X193750000Y-124709995D03*
%TO.P,U5,9,IO16_9*%
%TO.N,/ESP32/XTAL_32K_N*%
X193750000Y-123439995D03*
%TO.P,U5,10,IO17_10*%
%TO.N,/ESP32/ST_USB*%
X193750000Y-122169995D03*
%TO.P,U5,11,IO18_11*%
%TO.N,/ESP32/ST_WLAN*%
X193750000Y-120899995D03*
%TO.P,U5,12,IO8_12*%
%TO.N,unconnected-(U5-IO8-Pad12)*%
X193750000Y-119629995D03*
%TO.P,U5,13,USB_D-_13*%
%TO.N,DG-*%
X193750000Y-118359995D03*
%TO.P,U5,14,USB_D+_14*%
%TO.N,DG+*%
X193750000Y-117089995D03*
D33*
%TO.P,U5,15,IO3_15*%
%TO.N,unconnected-(U5-IO3-Pad15)*%
X191985000Y-115839995D03*
%TO.P,U5,16,IO46_16*%
%TO.N,unconnected-(U5-IO46-Pad16)*%
X190715000Y-115839995D03*
%TO.P,U5,17,IO9_17*%
%TO.N,unconnected-(U5-IO9-Pad17)*%
X189445000Y-115839995D03*
%TO.P,U5,18,IO10_18*%
%TO.N,unconnected-(U5-IO10-Pad18)*%
X188175000Y-115839995D03*
%TO.P,U5,19,IO11_19*%
%TO.N,/ESP32/DI_MOSI*%
X186905000Y-115839995D03*
%TO.P,U5,20,IO12_20*%
%TO.N,/ESP32/CLK*%
X185635000Y-115839995D03*
%TO.P,U5,21,IO13_21*%
%TO.N,/ESP32/DO_MISO*%
X184365000Y-115839995D03*
%TO.P,U5,22,IO14_22*%
%TO.N,/ESP32/~{CS}*%
X183095000Y-115839995D03*
%TO.P,U5,23,IO21_23*%
%TO.N,unconnected-(U5-IO21-Pad23)*%
X181825000Y-115839995D03*
%TO.P,U5,24,IO47_24*%
%TO.N,unconnected-(U5-IO47-Pad24)*%
X180555000Y-115839995D03*
%TO.P,U5,25,IO48_25*%
%TO.N,unconnected-(U5-IO48-Pad25)*%
X179285000Y-115839995D03*
%TO.P,U5,26,IO45_26*%
%TO.N,unconnected-(U5-IO45-Pad26)*%
X178015000Y-115839995D03*
D32*
%TO.P,U5,27,IO0_27*%
%TO.N,/ESP32/IO0*%
X176250000Y-117089995D03*
%TO.P,U5,28,IO35_28*%
%TO.N,unconnected-(U5-IO35-Pad28)*%
X176250000Y-118359995D03*
%TO.P,U5,29,IO36_29*%
%TO.N,unconnected-(U5-IO36-Pad29)*%
X176250000Y-119629995D03*
%TO.P,U5,30,IO37_30*%
%TO.N,unconnected-(U5-IO37-Pad30)*%
X176250000Y-120899995D03*
%TO.P,U5,31,IO38_31*%
%TO.N,R_CTR*%
X176250000Y-122169995D03*
%TO.P,U5,32,IO39_32*%
%TO.N,/ESP32/MTCK*%
X176250000Y-123439995D03*
%TO.P,U5,33,IO40_33*%
%TO.N,/ESP32/MTDO*%
X176250000Y-124709995D03*
%TO.P,U5,34,IO41_34*%
%TO.N,/ESP32/MTDI*%
X176250000Y-125979995D03*
%TO.P,U5,35,IO42_35*%
%TO.N,/ESP32/MTMS*%
X176250000Y-127249995D03*
%TO.P,U5,36,RXD0_36*%
%TO.N,/ESP32/RX*%
X176250000Y-128519995D03*
%TO.P,U5,37,TXD0_37*%
%TO.N,/ESP32/TX*%
X176250000Y-129789995D03*
%TO.P,U5,38,IO2_38*%
%TO.N,SCL*%
X176250000Y-131059995D03*
%TO.P,U5,39,IO1_39*%
%TO.N,SDA*%
X176250000Y-132329995D03*
%TO.P,U5,40,GND_40*%
%TO.N,GND*%
X176250000Y-133599995D03*
D34*
%TO.P,U5,41,GND_41*%
X187900000Y-126579995D03*
X187900000Y-125179995D03*
X187200000Y-127279995D03*
X187200000Y-125879995D03*
X187200000Y-124479995D03*
X186500000Y-126579995D03*
D35*
X186500000Y-125879995D03*
D34*
X186500000Y-125179995D03*
X185800000Y-127279995D03*
X185800000Y-125879995D03*
X185800000Y-124479995D03*
X185100000Y-126579995D03*
X185100000Y-125179995D03*
%TD*%
D36*
%TO.P,H7,1,1_1*%
%TO.N,GNDS*%
X114000003Y-130999997D03*
%TD*%
D37*
%TO.P,TP1,1,1_1*%
%TO.N,+5V*%
X199100000Y-92399995D03*
%TD*%
D36*
%TO.P,H5,1,1_1*%
%TO.N,GND*%
X206000000Y-130999996D03*
%TD*%
D19*
%TO.P,C22,1*%
%TO.N,V3.3-F*%
X159000000Y-124000001D03*
%TO.P,C22,2*%
%TO.N,GNDS*%
X159000000Y-125900001D03*
%TD*%
D27*
%TO.P,D1,1,K_1*%
%TO.N,Net-(D1-K)*%
X197100000Y-86474995D03*
%TO.P,D1,2,A_2*%
%TO.N,+5V*%
X197100000Y-88349995D03*
%TD*%
D38*
%TO.P,R30,1*%
%TO.N,/FrontEnd/SENSE_P*%
X147912500Y-108499995D03*
%TO.P,R30,2*%
%TO.N,/FrontEnd/PSU_P*%
X146087500Y-108499995D03*
%TD*%
D36*
%TO.P,H6,1,1_1*%
%TO.N,GND*%
X206000000Y-88999996D03*
%TD*%
D12*
%TO.P,R13,1*%
%TO.N,V3.3*%
X190650000Y-107537496D03*
%TO.P,R13,2*%
%TO.N,Net-(U9-~{HOLD}{slash}~{RESET}{slash}IO_{3})*%
X190650000Y-109362496D03*
%TD*%
D39*
%TO.P,C9,1*%
%TO.N,V5-F*%
X151400000Y-89199995D03*
%TO.P,C9,2*%
%TO.N,GNDS*%
X147000000Y-89199995D03*
%TD*%
D21*
%TO.P,PS1,1,-VIN_1*%
%TO.N,GND*%
X163850000Y-86999995D03*
D22*
%TO.P,PS1,2,+VIN_2*%
%TO.N,VUSB*%
X161310000Y-86999995D03*
%TO.P,PS1,3,-VOUT_3*%
%TO.N,GNDS*%
X158770000Y-86999995D03*
%TO.P,PS1,4,+VOUT_4*%
%TO.N,V5-F*%
X156230000Y-86999996D03*
%TD*%
D37*
%TO.P,TP6,1,1_1*%
%TO.N,V3.3-F*%
X157000000Y-102000000D03*
%TD*%
D31*
%TO.P,R42,1*%
%TO.N,VUSB*%
X154137500Y-129772893D03*
%TO.P,R42,2*%
%TO.N,Net-(D11-A)*%
X155962500Y-129772893D03*
%TD*%
D40*
%TO.P,J1,A1_B12,GND_A1_B12*%
%TO.N,GND*%
X193199999Y-91849995D03*
%TO.P,J1,A4_B9,VBUS_A4_B9*%
%TO.N,+5V*%
X192399999Y-91849995D03*
D41*
%TO.P,J1,A5,CC1_A5*%
%TO.N,Net-(J1-CC1)*%
X191249999Y-91849995D03*
%TO.P,J1,A6,DP1_A6*%
%TO.N,/USB/D+*%
X190249999Y-91849995D03*
%TO.P,J1,A7,DN1_A7*%
%TO.N,/USB/D-*%
X189749999Y-91849995D03*
%TO.P,J1,A8,SBU1_A8*%
%TO.N,unconnected-(J1-SBU1-PadA8)*%
X188749999Y-91849995D03*
D40*
%TO.P,J1,B1_A12,GND_B1_A12*%
%TO.N,GND*%
X186799999Y-91849995D03*
%TO.P,J1,B4_A9,VBUS_B4_A9*%
%TO.N,+5V*%
X187599999Y-91849995D03*
D41*
%TO.P,J1,B5,CC2_B5*%
%TO.N,Net-(J1-CC2)*%
X188249999Y-91849995D03*
%TO.P,J1,B6,DP2_B6*%
%TO.N,/USB/D+*%
X189249999Y-91849995D03*
%TO.P,J1,B7,DN2_B7*%
%TO.N,/USB/D-*%
X190749999Y-91849995D03*
%TO.P,J1,B8,SBU2_B8*%
%TO.N,unconnected-(J1-SBU2-PadB8)*%
X191749999Y-91849995D03*
D42*
%TO.P,J1,S1,SHIELD_S1*%
%TO.N,GND*%
X194324999Y-91269995D03*
%TO.P,J1,S2,SHIELD_S2*%
X185674999Y-91269995D03*
D43*
%TO.P,J1,S3,SHIELD_S3*%
X194324999Y-87099995D03*
%TO.P,J1,S4,SHIELD_S4*%
X185674999Y-87099995D03*
%TD*%
D28*
%TO.P,J2,1,Pin_1_1*%
%TO.N,Net-(J2-Pin_1)*%
X169999999Y-133199995D03*
D29*
%TO.P,J2,2,Pin_2_2*%
%TO.N,Net-(J2-Pin_2)*%
X167459999Y-133199995D03*
%TO.P,J2,3,Pin_3_3*%
%TO.N,GND*%
X164919999Y-133199995D03*
%TD*%
D38*
%TO.P,R31,1*%
%TO.N,/FrontEnd/SENSE_N*%
X147912499Y-111499995D03*
%TO.P,R31,2*%
%TO.N,/FrontEnd/SNT_N*%
X146087499Y-111499995D03*
%TD*%
D44*
%TO.P,U2,1,OUT_1*%
%TO.N,VUSB*%
X177820545Y-92497301D03*
%TO.P,U2,2,GND_2*%
%TO.N,GND*%
X177820545Y-93447301D03*
%TO.P,U2,3,~{FLG}_3*%
%TO.N,Net-(U2-~{FLG})*%
X177820545Y-94397301D03*
%TO.P,U2,4,EN_4*%
%TO.N,Net-(U2-EN)*%
X180095545Y-94397301D03*
%TO.P,U2,5,IN_5*%
%TO.N,+5V*%
X180095545Y-92497301D03*
%TD*%
D12*
%TO.P,R3,1*%
%TO.N,Net-(D1-K)*%
X199500000Y-86474995D03*
%TO.P,R3,2*%
%TO.N,GND*%
X199500000Y-88299995D03*
%TD*%
D25*
%TO.P,C21,1*%
%TO.N,V3.3-F*%
X165025001Y-125000000D03*
%TO.P,C21,2*%
%TO.N,GNDS*%
X163125001Y-125000000D03*
%TD*%
D37*
%TO.P,TP3,1,1_1*%
%TO.N,VUSB*%
X172140000Y-93789996D03*
%TD*%
D26*
%TO.P,D4,1,K_1*%
%TO.N,GND*%
X207637500Y-96249995D03*
%TO.P,D4,2,A_2*%
%TO.N,Net-(D4-A)*%
X205762500Y-96249995D03*
%TD*%
D37*
%TO.P,TP4,1,1_1*%
%TO.N,V3.3*%
X166030000Y-99909996D03*
%TD*%
D10*
%TO.P,C13,1*%
%TO.N,V3.3*%
X196600000Y-132329995D03*
%TO.P,C13,2*%
%TO.N,GND*%
X196600000Y-130429995D03*
%TD*%
D31*
%TO.P,R16,1*%
%TO.N,/ESP32/ST_WLAN*%
X202174999Y-96249995D03*
%TO.P,R16,2*%
%TO.N,Net-(D4-A)*%
X203999999Y-96249995D03*
%TD*%
D14*
%TO.P,C17,1*%
%TO.N,GND*%
X186687500Y-105799996D03*
%TO.P,C17,2*%
%TO.N,V3.3*%
X188587500Y-105799996D03*
%TD*%
D12*
%TO.P,R37,1*%
%TO.N,/FrontEnd/AIN1*%
X152900000Y-124000000D03*
%TO.P,R37,2*%
%TO.N,Net-(R35-Pad2)*%
X152900000Y-125825000D03*
%TD*%
D17*
%TO.P,U4,1,GND_1*%
%TO.N,GNDS*%
X154150000Y-99300000D03*
%TO.P,U4,2,VO_2*%
%TO.N,V3.3-F*%
X154150000Y-97000000D03*
D18*
X147850000Y-97000000D03*
D17*
%TO.P,U4,3,VI_3*%
%TO.N,V5-F*%
X154150000Y-94700000D03*
%TD*%
D45*
%TO.P,H4,1,1_1*%
%TO.N,/FrontEnd/PGND*%
X117420000Y-100499996D03*
%TD*%
D25*
%TO.P,C29,1*%
%TO.N,/FrontEnd/AIN1*%
X151200001Y-124000000D03*
%TO.P,C29,2*%
%TO.N,GNDS*%
X149300001Y-124000000D03*
%TD*%
D46*
%TO.P,U1,1,I/O1_1*%
%TO.N,/USB/D-*%
X190950000Y-95824995D03*
%TO.P,U1,2,GND_2*%
%TO.N,GND*%
X190000000Y-95824995D03*
%TO.P,U1,3,I/O2_3*%
%TO.N,/USB/D+*%
X189050000Y-95824995D03*
%TO.P,U1,4,I/O2_4*%
%TO.N,DG+*%
X189050000Y-98099995D03*
%TO.P,U1,5,VBUS_5*%
%TO.N,+5V*%
X190000000Y-98099995D03*
%TO.P,U1,6,I/O1_6*%
%TO.N,DG-*%
X190950000Y-98099995D03*
%TD*%
D45*
%TO.P,H3,1,1_1*%
%TO.N,/FrontEnd/PGND*%
X117420000Y-119549995D03*
%TD*%
D36*
%TO.P,H8,1,1_1*%
%TO.N,GNDS*%
X114000003Y-88999995D03*
%TD*%
D47*
%TO.P,C5,1*%
%TO.N,V3.3*%
X178244796Y-99912136D03*
%TO.P,C5,2*%
%TO.N,GND*%
X178244796Y-102862136D03*
%TD*%
D48*
%TO.P,R5,1*%
%TO.N,Net-(U2-~{FLG})*%
X177746734Y-88299995D03*
%TO.P,R5,2*%
%TO.N,Net-(D2-K)*%
X177746734Y-86474995D03*
%TD*%
D19*
%TO.P,C23,1*%
%TO.N,V3.3-F*%
X156999999Y-123999999D03*
%TO.P,C23,2*%
%TO.N,GNDS*%
X156999999Y-125899999D03*
%TD*%
D24*
%TO.P,SW2,1,1_1*%
%TO.N,/ESP32/IO0*%
X202675000Y-104999996D03*
%TO.P,SW2,2,2_2*%
%TO.N,GND*%
X207125000Y-104999996D03*
%TD*%
D49*
%TO.P,U7,1,ADDR_1*%
%TO.N,Net-(U7-ADDR)*%
X152900000Y-120370000D03*
%TO.P,U7,2,ALERT/RDY_2*%
%TO.N,/FrontEnd/ALRT*%
X152900000Y-120870000D03*
%TO.P,U7,3,GND_3*%
%TO.N,GNDS*%
X152900000Y-121370000D03*
%TO.P,U7,4,AIN0_4*%
%TO.N,/FrontEnd/AIN0*%
X152900000Y-121870000D03*
%TO.P,U7,5,AIN1_5*%
%TO.N,/FrontEnd/AIN1*%
X152900000Y-122370000D03*
%TO.P,U7,6,AIN2_6*%
%TO.N,/FrontEnd/AIN2*%
X157200000Y-122370000D03*
%TO.P,U7,7,AIN3_7*%
%TO.N,unconnected-(U7-AIN3-Pad7)*%
X157200000Y-121870000D03*
%TO.P,U7,8,VDD_8*%
%TO.N,V3.3-F*%
X157200000Y-121370000D03*
%TO.P,U7,9,SDA_9*%
%TO.N,/FrontEnd/SDAS*%
X157200000Y-120870000D03*
%TO.P,U7,10,SCL_10*%
%TO.N,/FrontEnd/SCLS*%
X157200000Y-120370000D03*
%TD*%
D48*
%TO.P,R41,1*%
%TO.N,/FrontEnd/AIN0*%
X150359073Y-118493259D03*
%TO.P,R41,2*%
%TO.N,Net-(R39-Pad2)*%
X150359073Y-116668259D03*
%TD*%
D50*
%TO.P,C3,1*%
%TO.N,VUSB*%
X169860000Y-91399995D03*
%TO.P,C3,2*%
%TO.N,GND*%
X169860000Y-86999995D03*
%TD*%
D48*
%TO.P,R4,1*%
%TO.N,Net-(U2-EN)*%
X182414759Y-94322300D03*
%TO.P,R4,2*%
%TO.N,+5V*%
X182414759Y-92497300D03*
%TD*%
D51*
%TO.P,R18,1*%
%TO.N,/ESP32/TRG1*%
X203454765Y-116954761D03*
%TO.P,R18,2*%
%TO.N,Net-(D6-K)*%
X204745235Y-118245231D03*
%TD*%
D45*
%TO.P,H2,1,1_1*%
%TO.N,/FrontEnd/PSU_P*%
X136470000Y-100499995D03*
%TD*%
D52*
%TO.P,D11,1,K_1*%
%TO.N,Net-(D11-K)*%
X154087500Y-132000000D03*
%TO.P,D11,2,A_2*%
%TO.N,Net-(D11-A)*%
X155962500Y-132000000D03*
%TD*%
D53*
%TO.P,C11,1*%
%TO.N,V3.3-F*%
X147850002Y-101993037D03*
%TO.P,C11,2*%
%TO.N,GNDS*%
X150800002Y-101993037D03*
%TD*%
D45*
%TO.P,H1,1,1_1*%
%TO.N,/FrontEnd/LOAD_P*%
X136470000Y-119549996D03*
%TD*%
D51*
%TO.P,R17,1*%
%TO.N,/ESP32/TRG2*%
X205974530Y-116554760D03*
%TO.P,R17,2*%
%TO.N,Net-(D5-K)*%
X207265000Y-117845230D03*
%TD*%
D14*
%TO.P,C4,1*%
%TO.N,VUSB*%
X177277533Y-97610605D03*
%TO.P,C4,2*%
%TO.N,GND*%
X179177533Y-97610605D03*
%TD*%
D25*
%TO.P,C1,1*%
%TO.N,+5V*%
X180100000Y-90397301D03*
%TO.P,C1,2*%
%TO.N,GND*%
X178200000Y-90397301D03*
%TD*%
D54*
%TO.N,V3.3*%
X170000000Y-126200000D03*
D55*
X168200000Y-97499995D03*
D54*
X188587500Y-104574053D03*
X182700000Y-132999995D03*
D55*
X169100000Y-97499995D03*
D54*
X184449999Y-133849995D03*
X183900000Y-107849997D03*
X188850000Y-133849995D03*
X182700000Y-130499995D03*
X186349999Y-133849995D03*
X198595496Y-133259932D03*
X191809396Y-107537496D03*
%TO.N,GND*%
X157449449Y-133356593D03*
X198628638Y-129529996D03*
X180145826Y-97608345D03*
D55*
X190000000Y-94786342D03*
D54*
X190800000Y-133849995D03*
X171499999Y-119100000D03*
X201800000Y-122799996D03*
X196609573Y-129529995D03*
X164201163Y-89504909D03*
X178948293Y-93447301D03*
X171865383Y-123795510D03*
X208600000Y-96249996D03*
X180200000Y-111899995D03*
X199500000Y-89299996D03*
X208600001Y-98449995D03*
X205200000Y-112299995D03*
X177500000Y-133599996D03*
X173473014Y-102205019D03*
X192500000Y-133599996D03*
X195000000Y-98799996D03*
X177195545Y-90391366D03*
X174944358Y-89597300D03*
X203214315Y-119086891D03*
X185700000Y-105799996D03*
X201800000Y-125321901D03*
X178240000Y-103949996D03*
X208500000Y-109999995D03*
X208499999Y-104999996D03*
X205774295Y-119107960D03*
X171150000Y-86999996D03*
X185450000Y-98812494D03*
X164100000Y-96000000D03*
X205199999Y-107299995D03*
%TO.N,VUSB*%
X169860000Y-93399996D03*
D55*
%TO.N,SDA*%
X177500000Y-132332425D03*
%TO.N,SCL*%
X177500000Y-131059996D03*
%TO.N,GNDS*%
X159100000Y-109000000D03*
X153449824Y-114409461D03*
D54*
X122400000Y-111000000D03*
D55*
X158000000Y-106594298D03*
X149312448Y-122548945D03*
X154500000Y-121500000D03*
D54*
X156649016Y-97612495D03*
X152649016Y-99300000D03*
X160447627Y-125908142D03*
X162150000Y-124999996D03*
D55*
X158343739Y-115800000D03*
X160473157Y-114162631D03*
D54*
X159049999Y-100612499D03*
D55*
X156000000Y-114400000D03*
X152800000Y-109400000D03*
X154760000Y-109100000D03*
X154400000Y-115600000D03*
X149300000Y-121400000D03*
D54*
X158900000Y-96000000D03*
D55*
X161400000Y-119100000D03*
X154800000Y-114400000D03*
D54*
X144900000Y-89300000D03*
D55*
X153460000Y-111000000D03*
X155200000Y-118500000D03*
X159100000Y-110000000D03*
X155400000Y-123400000D03*
X151500000Y-105200000D03*
D54*
X122200000Y-106699996D03*
D55*
X151100000Y-121100000D03*
X151500000Y-105900000D03*
X149405923Y-115560515D03*
D54*
X163500000Y-119100000D03*
X151866574Y-101993037D03*
D55*
%TO.N,/FrontEnd/SCLS*%
X166400000Y-120369999D03*
%TO.N,/FrontEnd/SDAS*%
X166400000Y-121639999D03*
D54*
%TO.N,V3.3-F*%
X154730001Y-103900000D03*
X165031832Y-126200000D03*
X157000000Y-100612499D03*
X160299999Y-124000002D03*
X148350001Y-94589999D03*
X152500000Y-115500000D03*
X162250000Y-114150001D03*
X147350001Y-94589999D03*
X164500001Y-114150001D03*
D55*
%TO.N,Net-(U9-~{WP}{slash}IO_{2})*%
X182600000Y-110634995D03*
%TO.N,Net-(D11-K)*%
X152450005Y-132399995D03*
%TO.N,/ESP32/EN*%
X201500000Y-109999996D03*
X192500000Y-131069996D03*
D54*
%TO.N,+5V*%
X192400000Y-93199996D03*
X187600000Y-93199996D03*
D55*
X187250000Y-96099995D03*
%TO.N,/ESP32/TRG1*%
X202800000Y-116299995D03*
X192500000Y-129789995D03*
X186349999Y-130199995D03*
%TO.N,/ESP32/TRG2*%
X205300000Y-115899996D03*
X184449999Y-130199995D03*
X192499999Y-128519996D03*
%TO.N,/ESP32/IO0*%
X175100000Y-117089996D03*
X201500000Y-104999996D03*
%TO.N,R_CTR*%
X177500000Y-122169995D03*
%TO.N,/ESP32/RX*%
X177500000Y-128522345D03*
%TO.N,/ESP32/TX*%
X177500000Y-129789995D03*
%TO.N,Net-(U2-~{FLG})*%
X176714759Y-94397300D03*
X176714759Y-88297300D03*
%TO.N,Net-(U7-ADDR)*%
X151700000Y-120100000D03*
%TO.N,/FrontEnd/ALRT*%
X154500000Y-120600000D03*
%TO.N,/FrontEnd/AIN2*%
X156100000Y-122370000D03*
%TO.N,Net-(U10--)*%
X153460000Y-108900000D03*
%TO.N,Net-(R29-Pad2)*%
X159143742Y-115800000D03*
%TO.N,Net-(R35-Pad2)*%
X151747337Y-125825000D03*
%TO.N,Net-(R39-Pad2)*%
X150360515Y-115558706D03*
%TD*%
%TO.N,V3.3*%
D56*
X193750000Y-132329996D02*
X196600000Y-132329997D01*
X188587500Y-105799996D02*
X188587500Y-108094995D01*
X168640000Y-99909995D02*
X166030000Y-99909996D01*
X188587500Y-105799996D02*
X188587500Y-104586101D01*
X198599999Y-132329995D02*
X196600000Y-132329997D01*
X170000000Y-126200000D02*
X170000000Y-126163106D01*
X174939999Y-99909996D02*
X168640000Y-99909995D01*
X170000000Y-126163106D02*
X169975000Y-126138106D01*
X191777408Y-107537496D02*
X191809397Y-107569486D01*
X190650000Y-107537496D02*
X191777408Y-107537496D01*
X198599999Y-132329995D02*
X198600000Y-133255427D01*
X198600000Y-133255427D02*
X198595496Y-133259932D01*
X178244796Y-99912137D02*
X174942141Y-99912137D01*
X169975000Y-126138106D02*
X169975000Y-125000004D01*
X169975000Y-125000004D02*
X169975000Y-122910000D01*
X188587500Y-104586101D02*
X188575454Y-104574053D01*
%TO.N,GND*%
X180143565Y-97610605D02*
X179177533Y-97610605D01*
X176250000Y-133599996D02*
X177500000Y-133599996D01*
X206900000Y-109999995D02*
X208500000Y-109999995D01*
X196600000Y-129539569D02*
X196609573Y-129529995D01*
X180145826Y-97608345D02*
X180143565Y-97610605D01*
X178244796Y-103945199D02*
X178240000Y-103949996D01*
X180205000Y-111904995D02*
X180200000Y-111899995D01*
X207637500Y-96249995D02*
X208600000Y-96249996D01*
X198600000Y-130429996D02*
X198600000Y-129558634D01*
X181412500Y-111904996D02*
X180205000Y-111904995D01*
X174940000Y-102209995D02*
X173477990Y-102209995D01*
X198600000Y-129558634D02*
X198628638Y-129529996D01*
X201778093Y-122821903D02*
X201800000Y-122799996D01*
X185450000Y-97862496D02*
X185450000Y-98812494D01*
X186255000Y-91849996D02*
X185675000Y-91269996D01*
X163062500Y-96000000D02*
X164100000Y-96000000D01*
X177201479Y-90397300D02*
X177195545Y-90391366D01*
X196600000Y-130429996D02*
X196600000Y-129539569D01*
X199500000Y-88299995D02*
X199500000Y-89299996D01*
X171874998Y-123805125D02*
X171865383Y-123795510D01*
X200849999Y-122821902D02*
X201778093Y-122821903D01*
X171499999Y-119100000D02*
X169975000Y-119100000D01*
X193749999Y-133599996D02*
X192500000Y-133599996D01*
X186800000Y-91849997D02*
X186255000Y-91849996D01*
X201778095Y-125321901D02*
X201800000Y-125299996D01*
X195000000Y-97874995D02*
X195000000Y-98799996D01*
D57*
X190000000Y-95824995D02*
X190000000Y-94786342D01*
D56*
X171150000Y-86999996D02*
X169859999Y-86999996D01*
X200849999Y-125321901D02*
X201778095Y-125321901D01*
X206900000Y-104999995D02*
X208499999Y-104999996D01*
X186687502Y-105799995D02*
X185700000Y-105799996D01*
X193745000Y-91849996D02*
X194325000Y-91269996D01*
X207637500Y-98449995D02*
X208600001Y-98449995D01*
X171874998Y-125000004D02*
X171874998Y-123805125D01*
X178244796Y-102862137D02*
X178244796Y-103945199D01*
X178200000Y-90397300D02*
X177201479Y-90397300D01*
X173477990Y-102209995D02*
X173473014Y-102205019D01*
X177820545Y-93447301D02*
X178948293Y-93447301D01*
X193200000Y-91849995D02*
X193745000Y-91849996D01*
X174944358Y-89597300D02*
X174944358Y-90597300D01*
%TO.N,VUSB*%
X169860000Y-93393352D02*
X169860000Y-91399995D01*
X177820545Y-92497300D02*
X174944358Y-92497300D01*
X161300000Y-87009995D02*
X161310000Y-86999995D01*
X169860000Y-91399995D02*
X167600000Y-91399995D01*
X150339999Y-132399995D02*
X152967101Y-129772893D01*
X161300000Y-89100000D02*
X161300000Y-87009995D01*
X167600000Y-91399995D02*
X167400000Y-91399995D01*
X165299995Y-93500000D02*
X163062500Y-93500000D01*
X167400000Y-91399995D02*
X165299995Y-93500000D01*
X173497305Y-92497300D02*
X173432695Y-92497300D01*
X163062500Y-93500000D02*
X163062500Y-90862500D01*
X172400000Y-91399995D02*
X169860000Y-91399995D01*
X174944358Y-92497300D02*
X173497305Y-92497300D01*
X173432695Y-92497300D02*
X172140000Y-93789996D01*
X174940000Y-97609996D02*
X177276923Y-97609996D01*
X173497305Y-92497300D02*
X172400000Y-91399995D01*
X152967101Y-129772893D02*
X154137500Y-129772893D01*
X174940000Y-97609996D02*
X174940000Y-92501658D01*
X163062500Y-90862500D02*
X161300000Y-89100000D01*
%TO.N,Net-(J1-CC2)*%
D58*
X185750000Y-94849995D02*
X185450000Y-95149995D01*
X188749999Y-93799995D02*
X187699999Y-94849995D01*
X188250001Y-92549995D02*
X188750000Y-93049995D01*
X188250000Y-91849997D02*
X188250001Y-92549995D01*
X187699999Y-94849995D02*
X185750000Y-94849995D01*
X188750000Y-93049995D02*
X188749999Y-93799995D01*
X185450000Y-95149995D02*
X185450000Y-96049995D01*
%TO.N,SDA*%
X172040000Y-121640000D02*
X169975000Y-121640000D01*
X174629995Y-132329995D02*
X173200000Y-130900000D01*
X173200000Y-130900000D02*
X173200000Y-122800000D01*
X173200000Y-122800000D02*
X172040000Y-121640000D01*
X176250000Y-132329995D02*
X174629995Y-132329995D01*
X176252430Y-132332425D02*
X176250000Y-132329995D01*
X177500000Y-132332425D02*
X176252430Y-132332425D01*
%TO.N,SCL*%
X175059995Y-131059995D02*
X174200000Y-130200000D01*
X174200000Y-130200000D02*
X174200000Y-122200000D01*
X174200000Y-122200000D02*
X172370000Y-120370000D01*
X172370000Y-120370000D02*
X169975000Y-120370000D01*
X176250000Y-131059995D02*
X177491582Y-131059995D01*
X176250000Y-131059995D02*
X175059995Y-131059995D01*
%TO.N,GNDS*%
D56*
X156649016Y-96762494D02*
X156649016Y-97612495D01*
X159937500Y-96000000D02*
X158900000Y-96000000D01*
X163125002Y-125000000D02*
X162150004Y-125000000D01*
X152649016Y-99300000D02*
X154150001Y-99299999D01*
X162150004Y-125000000D02*
X162150000Y-124999996D01*
X150987997Y-101993037D02*
X151866574Y-101993037D01*
X144900000Y-89300000D02*
X146000000Y-89300000D01*
X165025000Y-119100000D02*
X163500000Y-119100000D01*
%TO.N,/FrontEnd/SCLS*%
D58*
X165025000Y-120370000D02*
X157200000Y-120370000D01*
X166330000Y-120369999D02*
X166400000Y-120299999D01*
X165025000Y-120370000D02*
X166330000Y-120369999D01*
%TO.N,/FrontEnd/SDAS*%
X158970000Y-120870000D02*
X157200000Y-120870000D01*
X159740000Y-121640000D02*
X158970000Y-120870000D01*
X165025000Y-121639999D02*
X166360000Y-121639999D01*
X165025000Y-121640000D02*
X159740000Y-121640000D01*
X166360000Y-121639999D02*
X166400000Y-121600000D01*
%TO.N,V3.3-F*%
D56*
X147850001Y-97000000D02*
X154149999Y-97000000D01*
X154730001Y-105200000D02*
X154730000Y-107544297D01*
X147850000Y-97000000D02*
X147850000Y-101993035D01*
X147850000Y-101993035D02*
X147850002Y-101993037D01*
X156999999Y-124000000D02*
X159000000Y-124000001D01*
X165025000Y-126153626D02*
X165031832Y-126160458D01*
X165025000Y-122910000D02*
X165025000Y-125000004D01*
X165025000Y-125000000D02*
X165025000Y-126153626D01*
X160299999Y-124000002D02*
X159000000Y-124000002D01*
X154700000Y-103900000D02*
X154730000Y-103930000D01*
D58*
X159000000Y-121956295D02*
X158413705Y-121370000D01*
X159000000Y-123815000D02*
X159000000Y-121956295D01*
D56*
X157000000Y-100612499D02*
X157000000Y-102500000D01*
X154730001Y-103900000D02*
X154730001Y-105200000D01*
D58*
X158413705Y-121370000D02*
X157200001Y-121370000D01*
%TO.N,/FrontEnd/AIN0*%
X152900000Y-121870000D02*
X150870000Y-121870000D01*
X152200000Y-118493259D02*
X152206741Y-118500000D01*
X150870000Y-121870000D02*
X150359073Y-121359073D01*
X150359073Y-118493259D02*
X152200000Y-118493259D01*
X150359073Y-121359073D02*
X150359073Y-118493259D01*
%TO.N,/ESP32/XTAL_32K_P*%
X195521905Y-125321900D02*
X195821905Y-125321900D01*
X193750000Y-124709995D02*
X194910000Y-124709995D01*
X198950001Y-125321900D02*
X197000000Y-125321900D01*
X195671905Y-125321900D02*
X197100000Y-125321902D01*
X194910000Y-124709995D02*
X195521905Y-125321900D01*
%TO.N,/ESP32/~{CS}*%
X179000000Y-112499995D02*
X179000000Y-109099995D01*
X179000000Y-109099995D02*
X180005000Y-108094995D01*
X180005000Y-108094995D02*
X181412500Y-108094996D01*
X182400000Y-113799995D02*
X180300000Y-113799995D01*
X180300000Y-113799995D02*
X179000000Y-112499995D01*
X183095000Y-115839995D02*
X183095000Y-114494995D01*
X183095000Y-114494995D02*
X182400000Y-113799995D01*
%TO.N,/ESP32/DO_MISO*%
X182764999Y-109364995D02*
X181412499Y-109364995D01*
X184365000Y-110964996D02*
X182764999Y-109364995D01*
X184365000Y-115839996D02*
X184365000Y-110964996D01*
%TO.N,Net-(U9-~{WP}{slash}IO_{2})*%
X182600000Y-110634995D02*
X181447500Y-110634995D01*
X181447500Y-110599996D02*
X181412500Y-110634995D01*
%TO.N,/ESP32/DI_MOSI*%
X186905000Y-115839996D02*
X186905000Y-112644996D01*
X187645000Y-111904996D02*
X188587500Y-111904997D01*
X186905000Y-112644996D02*
X187645000Y-111904996D01*
%TO.N,/ESP32/CLK*%
X187615000Y-110634995D02*
X188587500Y-110634995D01*
X185635000Y-112614995D02*
X187615000Y-110634995D01*
X185634999Y-115839996D02*
X185635000Y-112614995D01*
%TO.N,Net-(U9-~{HOLD}{slash}~{RESET}{slash}IO_{3})*%
X188590000Y-109362496D02*
X188587500Y-109364995D01*
X190650000Y-109362496D02*
X188590000Y-109362496D01*
%TO.N,/FrontEnd/SENSE_N*%
X150046271Y-110949995D02*
X151590573Y-112494297D01*
X147912499Y-111499995D02*
X149496271Y-111499995D01*
X151590573Y-112494297D02*
X152190000Y-112494297D01*
X149496271Y-111499995D02*
X150046271Y-110949995D01*
%TO.N,/FrontEnd/SENSE_P*%
X149496269Y-108499995D02*
X150046271Y-109049997D01*
X147912500Y-108499995D02*
X149496269Y-108499995D01*
X151551971Y-107544297D02*
X152190000Y-107544297D01*
X150046271Y-109049997D02*
X151551971Y-107544297D01*
%TO.N,/ESP32/XTAL_32K_N*%
X198950001Y-122821903D02*
X197000000Y-122821903D01*
X194960001Y-123439995D02*
X193749999Y-123439996D01*
X195578093Y-122821903D02*
X197000000Y-122821903D01*
X195578093Y-122821903D02*
X194960001Y-123439995D01*
%TO.N,Net-(D11-K)*%
D56*
X152850000Y-132000000D02*
X152450005Y-132399995D01*
X154087500Y-132000000D02*
X152850000Y-132000000D01*
%TO.N,/FrontEnd/SNT_N*%
D58*
X144166500Y-111499995D02*
X142600000Y-113066495D01*
D59*
X145400000Y-124599995D02*
X140180000Y-129819995D01*
X142600000Y-113066495D02*
X142600000Y-114800000D01*
D58*
X146087499Y-111499995D02*
X144166500Y-111499995D01*
D59*
X140180000Y-129819995D02*
X140180000Y-132399997D01*
X145400000Y-117600000D02*
X145400000Y-124599995D01*
X142600000Y-114800000D02*
X145400000Y-117600000D01*
%TO.N,/FrontEnd/LOAD_P*%
X129900000Y-129739995D02*
X132560000Y-132399995D01*
X136470000Y-119549996D02*
X129900000Y-126119996D01*
X129900000Y-126119996D02*
X129900000Y-129739995D01*
%TO.N,/ESP32/EN*%
D58*
X202900000Y-109999995D02*
X201500000Y-109999996D01*
X193750000Y-131059995D02*
X192505074Y-131059995D01*
X192505074Y-131059995D02*
X192495074Y-131069995D01*
%TO.N,Net-(J1-CC1)*%
X195000000Y-95099996D02*
X195000000Y-96049995D01*
X192049999Y-94599996D02*
X194500001Y-94599996D01*
X191250000Y-91849995D02*
X191249999Y-93799995D01*
X191249999Y-93799995D02*
X192049999Y-94599996D01*
X194500001Y-94599996D02*
X195000000Y-95099996D01*
%TO.N,Net-(D3-A)*%
X203612499Y-98449995D02*
X205762500Y-98449995D01*
%TO.N,Net-(D2-K)*%
X180093140Y-86474996D02*
X177746734Y-86474995D01*
%TO.N,+5V*%
D56*
X192400000Y-93199996D02*
X192900000Y-93699996D01*
D57*
X187250000Y-96099995D02*
X188137500Y-96987495D01*
D56*
X192400000Y-91849997D02*
X192400000Y-93199996D01*
X180100000Y-90453234D02*
X180100000Y-88356856D01*
X187600000Y-91849995D02*
X187600000Y-93199996D01*
X180095545Y-92497300D02*
X180095545Y-90457689D01*
X182414759Y-92497300D02*
X180095545Y-92497300D01*
X186800000Y-93999996D02*
X185400000Y-93999996D01*
X197100001Y-92399995D02*
X197100000Y-88349995D01*
X192900000Y-93699996D02*
X195800000Y-93699996D01*
X187600000Y-93199996D02*
X186800000Y-93999996D01*
X183897304Y-92497300D02*
X182414759Y-92497300D01*
X185400000Y-93999996D02*
X183897304Y-92497300D01*
D57*
X189687500Y-96987496D02*
X190000000Y-97299996D01*
D56*
X195800000Y-93699996D02*
X197100001Y-92399995D01*
X197100001Y-92399995D02*
X199100000Y-92399995D01*
D57*
X188137500Y-96987495D02*
X189687500Y-96987496D01*
X190000000Y-97299996D02*
X190000000Y-98099995D01*
%TO.N,Net-(D6-K)*%
D58*
X204745235Y-122776666D02*
X204725000Y-122796902D01*
X204745235Y-118245230D02*
X204745235Y-122776666D01*
%TO.N,Net-(D5-K)*%
X207265000Y-117845230D02*
X207265000Y-122796901D01*
%TO.N,/FrontEnd/PSU_P*%
D59*
X136470000Y-100499995D02*
X137999995Y-100499995D01*
D58*
X146087500Y-108499995D02*
X144166500Y-108499995D01*
X142600000Y-106629995D02*
X142600000Y-106933495D01*
X144166500Y-108499995D02*
X142600000Y-106933495D01*
D59*
X137999995Y-100499995D02*
X142600000Y-105100000D01*
X142600000Y-105100000D02*
X142600000Y-106629995D01*
%TO.N,/ESP32/ST_USB*%
D58*
X200350000Y-116699995D02*
X194880000Y-122169995D01*
X194880000Y-122169995D02*
X193750000Y-122169996D01*
X202174999Y-98449995D02*
X201300000Y-98449995D01*
X200350000Y-99399995D02*
X200350000Y-116699995D01*
X201300000Y-98449995D02*
X200350000Y-99399995D01*
%TO.N,/ESP32/TRG1*%
X186349999Y-130199995D02*
X186759999Y-129789995D01*
X186759999Y-129789995D02*
X192500000Y-129789995D01*
X203454765Y-116954761D02*
X202800000Y-116299995D01*
X193749999Y-129789995D02*
X192500000Y-129789995D01*
X192510000Y-129789995D02*
X192500000Y-129799995D01*
%TO.N,/ESP32/TRG2*%
X205972858Y-116554760D02*
X205974530Y-116554760D01*
X192580000Y-128519996D02*
X192500000Y-128599996D01*
X205318093Y-115899995D02*
X205972858Y-116554760D01*
X184449999Y-130199995D02*
X186129999Y-128519995D01*
X186129999Y-128519995D02*
X192499999Y-128519996D01*
X205300000Y-115899996D02*
X205318093Y-115899995D01*
X193750000Y-128519996D02*
X192499999Y-128519996D01*
%TO.N,/ESP32/ST_WLAN*%
X202175000Y-96249996D02*
X201250000Y-96249995D01*
X199500000Y-116249996D02*
X194850000Y-120899996D01*
X199500000Y-97999996D02*
X199500000Y-116249996D01*
X194850000Y-120899996D02*
X193750000Y-120899995D01*
X201250000Y-96249995D02*
X199500000Y-97999996D01*
%TO.N,DG-*%
D60*
X190950000Y-99093747D02*
X190949999Y-98099995D01*
X192900611Y-104600608D02*
X190214999Y-101914995D01*
X193817575Y-105517572D02*
X193601071Y-105301067D01*
X195904056Y-117799996D02*
X197415000Y-116289051D01*
X197415000Y-109114996D02*
X193817575Y-105517572D01*
X194875001Y-118219995D02*
X195295001Y-117799996D01*
X197415000Y-116289051D02*
X197415000Y-109114996D01*
X193750000Y-118219995D02*
X194875001Y-118219995D01*
X190214999Y-101914995D02*
X190215000Y-99828747D01*
X195295001Y-117799996D02*
X195904056Y-117799996D01*
X190215000Y-99828747D02*
X190950000Y-99093747D01*
X193601071Y-105301067D02*
X192900611Y-104600608D01*
%TO.N,DG+*%
X194875001Y-116949995D02*
X195295001Y-117369996D01*
X189785000Y-102093108D02*
X189785000Y-99828747D01*
X192516208Y-104824316D02*
X192165596Y-104473704D01*
X196985000Y-109293107D02*
X192516208Y-104824316D01*
X192165596Y-104473704D02*
X189785000Y-102093108D01*
X196985000Y-116110940D02*
X196985000Y-109293107D01*
X195295001Y-117369996D02*
X195725944Y-117369996D01*
X193749999Y-116949996D02*
X194875001Y-116949995D01*
X195725944Y-117369996D02*
X196985000Y-116110940D01*
X189785000Y-99828747D02*
X189050000Y-99093747D01*
X189050000Y-99093747D02*
X189050000Y-98099996D01*
%TO.N,/ESP32/IO0*%
D58*
X202899999Y-104999996D02*
X201500000Y-104999996D01*
X175110001Y-117089996D02*
X175100000Y-117099995D01*
X176250000Y-117089996D02*
X175110001Y-117089996D01*
%TO.N,R_CTR*%
X176250000Y-122169995D02*
X177500000Y-122169995D01*
%TO.N,/ESP32/RX*%
X177464372Y-128519996D02*
X177466721Y-128522345D01*
X176250000Y-128519995D02*
X177464372Y-128519996D01*
%TO.N,/ESP32/TX*%
X176250000Y-129789995D02*
X177490000Y-129789995D01*
%TO.N,Net-(D1-K)*%
X197100000Y-86474996D02*
X199500000Y-86474995D01*
%TO.N,Net-(D11-A)*%
D56*
X155962500Y-129772893D02*
X155962500Y-132000000D01*
%TO.N,/USB/D+*%
D60*
X189050000Y-95824996D02*
X189050000Y-94831245D01*
X190250000Y-92649996D02*
X190250000Y-91849995D01*
X189050000Y-94831245D02*
X189785000Y-94096245D01*
X189785000Y-94096245D02*
X189785000Y-93114996D01*
X189250000Y-92579996D02*
X189785000Y-93114996D01*
X189785000Y-93114996D02*
X190250000Y-92649996D01*
X189250000Y-91849996D02*
X189250000Y-92579996D01*
%TO.N,/USB/D-*%
X190499999Y-90699996D02*
X190000000Y-90699996D01*
X190215000Y-94096245D02*
X190215000Y-93399995D01*
X190950000Y-95824996D02*
X190949999Y-94831244D01*
X190949999Y-94831244D02*
X190215000Y-94096245D01*
X189750000Y-90949995D02*
X189750000Y-91849997D01*
X190215000Y-93399995D02*
X190750000Y-92864995D01*
X190750000Y-91849996D02*
X190750000Y-90949996D01*
X190750000Y-92864995D02*
X190750000Y-91849996D01*
X190000000Y-90699996D02*
X189750000Y-90949995D01*
X190750000Y-90949996D02*
X190499999Y-90699996D01*
%TO.N,Net-(U2-~{FLG})*%
D58*
X177746734Y-88299995D02*
X176717454Y-88299995D01*
X176717454Y-88299995D02*
X176714759Y-88297300D01*
X177820545Y-94397301D02*
X176714759Y-94397300D01*
%TO.N,Net-(U2-EN)*%
X180095545Y-94397301D02*
X181214760Y-94397301D01*
X181214760Y-94397301D02*
X181289760Y-94322301D01*
X181289760Y-94322301D02*
X182414759Y-94322301D01*
%TO.N,Net-(D4-A)*%
X203612500Y-96249996D02*
X205762500Y-96249995D01*
%TO.N,/FrontEnd/AIN1*%
X152900000Y-124000000D02*
X152900000Y-122370000D01*
X152900000Y-124000000D02*
X151200000Y-124000000D01*
%TO.N,Net-(U7-ADDR)*%
X152900000Y-120370000D02*
X151970000Y-120370000D01*
X151970000Y-120370000D02*
X151700000Y-120100000D01*
%TO.N,/FrontEnd/ALRT*%
X154230000Y-120870000D02*
X154500000Y-120600000D01*
X152900000Y-120870000D02*
X154230000Y-120870000D01*
%TO.N,/FrontEnd/AIN2*%
X156100000Y-122370000D02*
X157200000Y-122370000D01*
%TO.N,Net-(U10--)*%
X153460000Y-108860000D02*
X153500000Y-108900000D01*
X153460000Y-107544297D02*
X153460000Y-108900000D01*
%TO.N,Net-(R29-Pad2)*%
X159143742Y-112443742D02*
X156000000Y-109300000D01*
X156000000Y-109300000D02*
X156000000Y-107544297D01*
X159143742Y-115800000D02*
X159143742Y-112443742D01*
%TO.N,Net-(R35-Pad2)*%
X151747337Y-125825000D02*
X152900000Y-125825000D01*
%TO.N,Net-(R39-Pad2)*%
X150359073Y-116668259D02*
X150359073Y-115560148D01*
X150359073Y-115560148D02*
X150360515Y-115558706D01*
%TD*%
%TA.AperFunction,Conductor*%
%TO.N,V3.3*%
G36*
X169583039Y-97069680D02*
G01*
X169628794Y-97122484D01*
X169640000Y-97173995D01*
X169640000Y-101675995D01*
X169620315Y-101743034D01*
X169567511Y-101788789D01*
X169516000Y-101799995D01*
X167763999Y-101799995D01*
X167696960Y-101780310D01*
X167651205Y-101727506D01*
X167639999Y-101675999D01*
X167639999Y-97173994D01*
X167659684Y-97106956D01*
X167712488Y-97061201D01*
X167763999Y-97049995D01*
X169516000Y-97049995D01*
X169583039Y-97069680D01*
G37*
%TD.AperFunction*%
%TD*%
%TA.AperFunction,Conductor*%
%TO.N,V3.3-F*%
G36*
X148793039Y-94159684D02*
G01*
X148838794Y-94212488D01*
X148850000Y-94263999D01*
X148850000Y-98775604D01*
X148830315Y-98842643D01*
X148777511Y-98888398D01*
X148726059Y-98899604D01*
X146974335Y-98900441D01*
X146907286Y-98880788D01*
X146861506Y-98828006D01*
X146850276Y-98776450D01*
X146850008Y-94264004D01*
X146869689Y-94196966D01*
X146922490Y-94151208D01*
X146974008Y-94139999D01*
X148726000Y-94139999D01*
X148793039Y-94159684D01*
G37*
%TD.AperFunction*%
%TD*%
%TA.AperFunction,Conductor*%
%TO.N,V5-F*%
G36*
X157143039Y-85520184D02*
G01*
X157188794Y-85572988D01*
X157200000Y-85624499D01*
X157200000Y-86321976D01*
X157180315Y-86389015D01*
X157127511Y-86434770D01*
X157068179Y-86444656D01*
X156698018Y-86814817D01*
X156695925Y-86807003D01*
X156630099Y-86692989D01*
X156537007Y-86599897D01*
X156422993Y-86534071D01*
X156415177Y-86531976D01*
X156784292Y-86162862D01*
X156784291Y-86162861D01*
X156705570Y-86110262D01*
X156522856Y-86034579D01*
X156522848Y-86034577D01*
X156328889Y-85995996D01*
X156131110Y-85995996D01*
X155937151Y-86034577D01*
X155937143Y-86034579D01*
X155754433Y-86110260D01*
X155675706Y-86162861D01*
X156044822Y-86531976D01*
X156037007Y-86534071D01*
X155922993Y-86599897D01*
X155829901Y-86692989D01*
X155764075Y-86807003D01*
X155761980Y-86814817D01*
X155392865Y-86445702D01*
X155340264Y-86524429D01*
X155264583Y-86707139D01*
X155264581Y-86707147D01*
X155226000Y-86901106D01*
X155226000Y-87098885D01*
X155264581Y-87292844D01*
X155264583Y-87292852D01*
X155340266Y-87475566D01*
X155392865Y-87554287D01*
X155392866Y-87554288D01*
X155761980Y-87185173D01*
X155764075Y-87192989D01*
X155829901Y-87307003D01*
X155922993Y-87400095D01*
X156037007Y-87465921D01*
X156044821Y-87468015D01*
X155675706Y-87837129D01*
X155754429Y-87889729D01*
X155937143Y-87965412D01*
X155937151Y-87965414D01*
X156131110Y-88003995D01*
X156131114Y-88003996D01*
X156328886Y-88003996D01*
X156328889Y-88003995D01*
X156522848Y-87965414D01*
X156522856Y-87965412D01*
X156705568Y-87889730D01*
X156705577Y-87889725D01*
X156784291Y-87837130D01*
X156784291Y-87837129D01*
X156415177Y-87468015D01*
X156422993Y-87465921D01*
X156537007Y-87400095D01*
X156630099Y-87307003D01*
X156695925Y-87192989D01*
X156698019Y-87185173D01*
X157068302Y-87555456D01*
X157132491Y-87567629D01*
X157183202Y-87615694D01*
X157200000Y-87678014D01*
X157200000Y-90000000D01*
X160088825Y-92209101D01*
X160130120Y-92265459D01*
X160137500Y-92307600D01*
X160137500Y-93376000D01*
X160117815Y-93443039D01*
X160065011Y-93488794D01*
X160013500Y-93500000D01*
X159937500Y-93500000D01*
X159937500Y-93576000D01*
X159917815Y-93643039D01*
X159865011Y-93688794D01*
X159813500Y-93700000D01*
X159025000Y-93700000D01*
X159025000Y-94197844D01*
X159031979Y-94262744D01*
X159019574Y-94331503D01*
X158971965Y-94382641D01*
X158908690Y-94400000D01*
X157725109Y-94400000D01*
X157658070Y-94380315D01*
X157612315Y-94327511D01*
X157608927Y-94319333D01*
X157567370Y-94207913D01*
X157567366Y-94207906D01*
X157481206Y-94092812D01*
X157481203Y-94092809D01*
X157366109Y-94006649D01*
X157366102Y-94006645D01*
X157231395Y-93956403D01*
X157231388Y-93956401D01*
X157171860Y-93950000D01*
X156849016Y-93950000D01*
X156849016Y-94576000D01*
X156829331Y-94643039D01*
X156776527Y-94688794D01*
X156725016Y-94700000D01*
X156649016Y-94700000D01*
X156649016Y-94776000D01*
X156629331Y-94843039D01*
X156576527Y-94888794D01*
X156525016Y-94900000D01*
X155674016Y-94900000D01*
X155674016Y-94997844D01*
X155680417Y-95057372D01*
X155680419Y-95057379D01*
X155730661Y-95192086D01*
X155730663Y-95192089D01*
X155737849Y-95201688D01*
X155742557Y-95214310D01*
X155751377Y-95224489D01*
X155754527Y-95246403D01*
X155762267Y-95267151D01*
X155759403Y-95280313D01*
X155761321Y-95293647D01*
X155752122Y-95313789D01*
X155747416Y-95335425D01*
X155737892Y-95344949D01*
X155732296Y-95357203D01*
X155713667Y-95369174D01*
X155698012Y-95384831D01*
X155683569Y-95388517D01*
X155673518Y-95394977D01*
X155638583Y-95400000D01*
X155496573Y-95400000D01*
X155429534Y-95380315D01*
X155383779Y-95327511D01*
X155373835Y-95258353D01*
X155377497Y-95241404D01*
X155397210Y-95173550D01*
X155397211Y-95173547D01*
X155399999Y-95138118D01*
X155400000Y-95138105D01*
X155400000Y-94900000D01*
X154274000Y-94900000D01*
X154206961Y-94880315D01*
X154161206Y-94827511D01*
X154150000Y-94776000D01*
X154150000Y-94700000D01*
X154074000Y-94700000D01*
X154006961Y-94680315D01*
X153961206Y-94627511D01*
X153950000Y-94576000D01*
X153950000Y-94500000D01*
X154350000Y-94500000D01*
X155400000Y-94500000D01*
X155400000Y-94402155D01*
X155674016Y-94402155D01*
X155674016Y-94500000D01*
X156449016Y-94500000D01*
X156449016Y-93950000D01*
X156126171Y-93950000D01*
X156066643Y-93956401D01*
X156066636Y-93956403D01*
X155931929Y-94006645D01*
X155931922Y-94006649D01*
X155816828Y-94092809D01*
X155816825Y-94092812D01*
X155730665Y-94207906D01*
X155730661Y-94207913D01*
X155680419Y-94342620D01*
X155680417Y-94342627D01*
X155674016Y-94402155D01*
X155400000Y-94402155D01*
X155400000Y-94261894D01*
X155399999Y-94261881D01*
X155397211Y-94226452D01*
X155397210Y-94226446D01*
X155353156Y-94074814D01*
X155353155Y-94074811D01*
X155272773Y-93938891D01*
X155272767Y-93938883D01*
X155161116Y-93827232D01*
X155161108Y-93827226D01*
X155025188Y-93746844D01*
X155025185Y-93746843D01*
X154873553Y-93702789D01*
X154873547Y-93702788D01*
X154838118Y-93700000D01*
X154350000Y-93700000D01*
X154350000Y-94500000D01*
X153950000Y-94500000D01*
X153950000Y-93700000D01*
X153461881Y-93700000D01*
X153426452Y-93702788D01*
X153426446Y-93702789D01*
X153274817Y-93746842D01*
X153273249Y-93747521D01*
X153271913Y-93747685D01*
X153267318Y-93749021D01*
X153267102Y-93748279D01*
X153203905Y-93756081D01*
X153140942Y-93725793D01*
X153104349Y-93666272D01*
X153100000Y-93633720D01*
X153100000Y-93500000D01*
X150524000Y-93500000D01*
X150456961Y-93480315D01*
X150411206Y-93427511D01*
X150400000Y-93376000D01*
X150400000Y-92802155D01*
X159025000Y-92802155D01*
X159025000Y-93300000D01*
X159737500Y-93300000D01*
X159737500Y-92350000D01*
X159477155Y-92350000D01*
X159417627Y-92356401D01*
X159417620Y-92356403D01*
X159282913Y-92406645D01*
X159282906Y-92406649D01*
X159167812Y-92492809D01*
X159167809Y-92492812D01*
X159081649Y-92607906D01*
X159081645Y-92607913D01*
X159031403Y-92742620D01*
X159031401Y-92742627D01*
X159025000Y-92802155D01*
X150400000Y-92802155D01*
X150400000Y-90373995D01*
X150419685Y-90306956D01*
X150472489Y-90261201D01*
X150524000Y-90249995D01*
X151200000Y-90249995D01*
X151600000Y-90249995D01*
X152697828Y-90249995D01*
X152697844Y-90249994D01*
X152757372Y-90243593D01*
X152757379Y-90243591D01*
X152892086Y-90193349D01*
X152892093Y-90193345D01*
X153007187Y-90107185D01*
X153007190Y-90107182D01*
X153093350Y-89992088D01*
X153093354Y-89992081D01*
X153143596Y-89857374D01*
X153143598Y-89857367D01*
X153149999Y-89797839D01*
X153150000Y-89797822D01*
X153150000Y-89399995D01*
X151600000Y-89399995D01*
X151600000Y-90249995D01*
X151200000Y-90249995D01*
X151200000Y-88999995D01*
X151600000Y-88999995D01*
X153150000Y-88999995D01*
X153150000Y-88602167D01*
X153149999Y-88602150D01*
X153143598Y-88542622D01*
X153143596Y-88542615D01*
X153093354Y-88407908D01*
X153093350Y-88407901D01*
X153007190Y-88292807D01*
X153007187Y-88292804D01*
X152892093Y-88206644D01*
X152892086Y-88206640D01*
X152757379Y-88156398D01*
X152757372Y-88156396D01*
X152697844Y-88149995D01*
X151600000Y-88149995D01*
X151600000Y-88999995D01*
X151200000Y-88999995D01*
X151200000Y-88149995D01*
X150524000Y-88149995D01*
X150456961Y-88130310D01*
X150411206Y-88077506D01*
X150400000Y-88025995D01*
X150400000Y-85624499D01*
X150419685Y-85557460D01*
X150472489Y-85511705D01*
X150523998Y-85500499D01*
X157076001Y-85500499D01*
X157143039Y-85520184D01*
G37*
%TD.AperFunction*%
%TD*%
%TA.AperFunction,Conductor*%
%TO.N,GNDS*%
G36*
X159954672Y-104014805D02*
G01*
X159990669Y-104064280D01*
X159995536Y-104094888D01*
X160000000Y-113000000D01*
X163958992Y-113000000D01*
X164017183Y-113018907D01*
X164028996Y-113028996D01*
X164401083Y-113401083D01*
X164428860Y-113455600D01*
X164419289Y-113516032D01*
X164376024Y-113559297D01*
X164356703Y-113566713D01*
X164268220Y-113590422D01*
X164268219Y-113590422D01*
X164147932Y-113659870D01*
X164131285Y-113669481D01*
X164019481Y-113781285D01*
X163940424Y-113918217D01*
X163899501Y-114070944D01*
X163899501Y-114229058D01*
X163940424Y-114381785D01*
X164019481Y-114518717D01*
X164131285Y-114630521D01*
X164268217Y-114709578D01*
X164420944Y-114750501D01*
X164420946Y-114750501D01*
X164579056Y-114750501D01*
X164579058Y-114750501D01*
X164731785Y-114709578D01*
X164868717Y-114630521D01*
X164980521Y-114518717D01*
X165059578Y-114381785D01*
X165083288Y-114293297D01*
X165116611Y-114241985D01*
X165173732Y-114220058D01*
X165232833Y-114235893D01*
X165248918Y-114248918D01*
X165971004Y-114971004D01*
X165998781Y-115025521D01*
X166000000Y-115041008D01*
X166000000Y-118502545D01*
X165981093Y-118560736D01*
X165931593Y-118596700D01*
X165886733Y-118600512D01*
X165883217Y-118600000D01*
X165125001Y-118600000D01*
X165125000Y-118600001D01*
X165125000Y-119599998D01*
X165125001Y-119599999D01*
X165883213Y-119599999D01*
X165883222Y-119599998D01*
X165886725Y-119599488D01*
X165908992Y-119603298D01*
X165931593Y-119603298D01*
X165938555Y-119608356D01*
X165947034Y-119609807D01*
X165962810Y-119625978D01*
X165981093Y-119639262D01*
X165983751Y-119647445D01*
X165989760Y-119653604D01*
X166000000Y-119697453D01*
X166000000Y-119772039D01*
X165981093Y-119830230D01*
X165931593Y-119866194D01*
X165886733Y-119870006D01*
X165883260Y-119869500D01*
X164166740Y-119869500D01*
X164132673Y-119874463D01*
X164098604Y-119879427D01*
X163993518Y-119930801D01*
X163910801Y-120013518D01*
X163910577Y-120013978D01*
X163910180Y-120014387D01*
X163906035Y-120020194D01*
X163905164Y-120019572D01*
X163868035Y-120057953D01*
X163821635Y-120069500D01*
X158038433Y-120069500D01*
X157983431Y-120052815D01*
X157957497Y-120035486D01*
X157957496Y-120035485D01*
X157957495Y-120035485D01*
X157877133Y-120019500D01*
X157877132Y-120019500D01*
X156522870Y-120019500D01*
X156522863Y-120019501D01*
X156442505Y-120035484D01*
X156442503Y-120035485D01*
X156351379Y-120096373D01*
X156351373Y-120096379D01*
X156290486Y-120187501D01*
X156290486Y-120187503D01*
X156290485Y-120187505D01*
X156274501Y-120267862D01*
X156274500Y-120267867D01*
X156274500Y-120472129D01*
X156274501Y-120472137D01*
X156290484Y-120552494D01*
X156290486Y-120552498D01*
X156298840Y-120565001D01*
X156315447Y-120623889D01*
X156298840Y-120674999D01*
X156290485Y-120687503D01*
X156290484Y-120687504D01*
X156274500Y-120767864D01*
X156274500Y-120972129D01*
X156274501Y-120972137D01*
X156290484Y-121052494D01*
X156290486Y-121052498D01*
X156298840Y-121065001D01*
X156315447Y-121123889D01*
X156298840Y-121174999D01*
X156290485Y-121187503D01*
X156290484Y-121187504D01*
X156274500Y-121267864D01*
X156274500Y-121472129D01*
X156274501Y-121472137D01*
X156290484Y-121552494D01*
X156290486Y-121552498D01*
X156298840Y-121565001D01*
X156315447Y-121623889D01*
X156312056Y-121645969D01*
X156307815Y-121661567D01*
X156290485Y-121687505D01*
X156274500Y-121767867D01*
X156274500Y-121784125D01*
X156271033Y-121796879D01*
X156261163Y-121811957D01*
X156255593Y-121829101D01*
X156244816Y-121836930D01*
X156237523Y-121848073D01*
X156220675Y-121854469D01*
X156206093Y-121865065D01*
X156188513Y-121866682D01*
X156180323Y-121869792D01*
X156173845Y-121868031D01*
X156172381Y-121868166D01*
X156172381Y-121869500D01*
X156165892Y-121869500D01*
X156034108Y-121869500D01*
X155956200Y-121890375D01*
X155906809Y-121903609D01*
X155792690Y-121969496D01*
X155699496Y-122062690D01*
X155633609Y-122176809D01*
X155617224Y-122237960D01*
X155599500Y-122304108D01*
X155599500Y-122435892D01*
X155609211Y-122472133D01*
X155633609Y-122563190D01*
X155699496Y-122677309D01*
X155699498Y-122677311D01*
X155699500Y-122677314D01*
X155792686Y-122770500D01*
X155792688Y-122770501D01*
X155792690Y-122770503D01*
X155906810Y-122836390D01*
X155906808Y-122836390D01*
X155906812Y-122836391D01*
X155906814Y-122836392D01*
X156034108Y-122870500D01*
X156034110Y-122870500D01*
X156165890Y-122870500D01*
X156165892Y-122870500D01*
X156293186Y-122836392D01*
X156293188Y-122836390D01*
X156293190Y-122836390D01*
X156407310Y-122770503D01*
X156407310Y-122770501D01*
X156407314Y-122770500D01*
X156430771Y-122747042D01*
X156485284Y-122719264D01*
X156520091Y-122719947D01*
X156522867Y-122720500D01*
X157877132Y-122720499D01*
X157957495Y-122704515D01*
X158048624Y-122643624D01*
X158109515Y-122552495D01*
X158125500Y-122472133D01*
X158125499Y-122267868D01*
X158109515Y-122187505D01*
X158101159Y-122175000D01*
X158084551Y-122116114D01*
X158101159Y-122064999D01*
X158109515Y-122052495D01*
X158125500Y-121972133D01*
X158125499Y-121769499D01*
X158130344Y-121754588D01*
X158130344Y-121738907D01*
X158139561Y-121726220D01*
X158144406Y-121711310D01*
X158157089Y-121702094D01*
X158166308Y-121689407D01*
X158181222Y-121684561D01*
X158193906Y-121675346D01*
X158224499Y-121670500D01*
X158248226Y-121670500D01*
X158306417Y-121689407D01*
X158318230Y-121699496D01*
X158670504Y-122051770D01*
X158698281Y-122106287D01*
X158699500Y-122121774D01*
X158699500Y-123200501D01*
X158680593Y-123258692D01*
X158631093Y-123294656D01*
X158600500Y-123299501D01*
X158470725Y-123299501D01*
X158440305Y-123302354D01*
X158440296Y-123302356D01*
X158312116Y-123347208D01*
X158202855Y-123427846D01*
X158202845Y-123427856D01*
X158122208Y-123537115D01*
X158118741Y-123543677D01*
X158116499Y-123542492D01*
X158105699Y-123556680D01*
X158088326Y-123580593D01*
X158087224Y-123580950D01*
X158086524Y-123581871D01*
X158030135Y-123599500D01*
X157969865Y-123599500D01*
X157911674Y-123580593D01*
X157883379Y-123542554D01*
X157881258Y-123543676D01*
X157877790Y-123537114D01*
X157797152Y-123427853D01*
X157797150Y-123427851D01*
X157797149Y-123427849D01*
X157797145Y-123427846D01*
X157797143Y-123427844D01*
X157687882Y-123347206D01*
X157559702Y-123302354D01*
X157559693Y-123302352D01*
X157529273Y-123299499D01*
X157529265Y-123299499D01*
X156470733Y-123299499D01*
X156470724Y-123299499D01*
X156440304Y-123302352D01*
X156440295Y-123302354D01*
X156312115Y-123347206D01*
X156202854Y-123427844D01*
X156202844Y-123427854D01*
X156122206Y-123537115D01*
X156077354Y-123665295D01*
X156077352Y-123665304D01*
X156074499Y-123695724D01*
X156074499Y-124304273D01*
X156077352Y-124334693D01*
X156077354Y-124334702D01*
X156122206Y-124462882D01*
X156202844Y-124572143D01*
X156202845Y-124572144D01*
X156202849Y-124572149D01*
X156202852Y-124572151D01*
X156202854Y-124572153D01*
X156312115Y-124652791D01*
X156312116Y-124652791D01*
X156312117Y-124652792D01*
X156440300Y-124697645D01*
X156470724Y-124700498D01*
X156470726Y-124700499D01*
X156470733Y-124700499D01*
X157529272Y-124700499D01*
X157529272Y-124700498D01*
X157559698Y-124697645D01*
X157687881Y-124652792D01*
X157797149Y-124572149D01*
X157877792Y-124462881D01*
X157877793Y-124462878D01*
X157881261Y-124456318D01*
X157883500Y-124457501D01*
X157894304Y-124443314D01*
X157911674Y-124419407D01*
X157912785Y-124419045D01*
X157913492Y-124418118D01*
X157969865Y-124400500D01*
X158030134Y-124400500D01*
X158088325Y-124419407D01*
X158116621Y-124457447D01*
X158118742Y-124456327D01*
X158122207Y-124462884D01*
X158202845Y-124572145D01*
X158202847Y-124572147D01*
X158202850Y-124572151D01*
X158202853Y-124572153D01*
X158202855Y-124572155D01*
X158312116Y-124652793D01*
X158312117Y-124652793D01*
X158312118Y-124652794D01*
X158440301Y-124697647D01*
X158470725Y-124700500D01*
X158470727Y-124700501D01*
X158470734Y-124700501D01*
X159529273Y-124700501D01*
X159529273Y-124700500D01*
X159559699Y-124697647D01*
X159687882Y-124652794D01*
X159797150Y-124572151D01*
X159832112Y-124524778D01*
X159881878Y-124489187D01*
X159943061Y-124489645D01*
X159961261Y-124497830D01*
X160068215Y-124559579D01*
X160220942Y-124600502D01*
X160220944Y-124600502D01*
X160379054Y-124600502D01*
X160379056Y-124600502D01*
X160531783Y-124559579D01*
X160668715Y-124480522D01*
X160678449Y-124470788D01*
X162425001Y-124470788D01*
X162425001Y-124899999D01*
X162425002Y-124900000D01*
X163025000Y-124900000D01*
X163025001Y-124899999D01*
X163025001Y-124075001D01*
X163225001Y-124075001D01*
X163225001Y-124899999D01*
X163225002Y-124900000D01*
X163824999Y-124900000D01*
X163825000Y-124899999D01*
X163825000Y-124470796D01*
X163822150Y-124440399D01*
X163822150Y-124440397D01*
X163777346Y-124312352D01*
X163696793Y-124203209D01*
X163696791Y-124203207D01*
X163587648Y-124122654D01*
X163459602Y-124077850D01*
X163429212Y-124075000D01*
X163225002Y-124075000D01*
X163225001Y-124075001D01*
X163025001Y-124075001D01*
X163025000Y-124075000D01*
X162820797Y-124075000D01*
X162790400Y-124077850D01*
X162790398Y-124077850D01*
X162662353Y-124122654D01*
X162553210Y-124203207D01*
X162553208Y-124203209D01*
X162472655Y-124312352D01*
X162427851Y-124440398D01*
X162425001Y-124470788D01*
X160678449Y-124470788D01*
X160780519Y-124368718D01*
X160859576Y-124231786D01*
X160900499Y-124079059D01*
X160900499Y-123920945D01*
X160859576Y-123768218D01*
X160780519Y-123631286D01*
X160668715Y-123519482D01*
X160531783Y-123440425D01*
X160379056Y-123399502D01*
X160220942Y-123399502D01*
X160161778Y-123415355D01*
X160068213Y-123440425D01*
X159961265Y-123502171D01*
X159901417Y-123514892D01*
X159845521Y-123490005D01*
X159832116Y-123475229D01*
X159797150Y-123427851D01*
X159797146Y-123427848D01*
X159797144Y-123427846D01*
X159687883Y-123347208D01*
X159559703Y-123302356D01*
X159559694Y-123302354D01*
X159529274Y-123299501D01*
X159529266Y-123299501D01*
X159399500Y-123299501D01*
X159341309Y-123280594D01*
X159305345Y-123231094D01*
X159300500Y-123200501D01*
X159300500Y-121916732D01*
X159290780Y-121880460D01*
X159289517Y-121875745D01*
X159292718Y-121814646D01*
X159331222Y-121767095D01*
X159390322Y-121751258D01*
X159447444Y-121773183D01*
X159455147Y-121780118D01*
X159499540Y-121824511D01*
X159499539Y-121824511D01*
X159555489Y-121880460D01*
X159624007Y-121920019D01*
X159624011Y-121920021D01*
X159700435Y-121940499D01*
X159700437Y-121940500D01*
X159700438Y-121940500D01*
X163821635Y-121940500D01*
X163879826Y-121959407D01*
X163905610Y-121990108D01*
X163906035Y-121989806D01*
X163909884Y-121995197D01*
X163910576Y-121996020D01*
X163910802Y-121996483D01*
X163993517Y-122079198D01*
X164047285Y-122105483D01*
X164098604Y-122130572D01*
X164098605Y-122130572D01*
X164098607Y-122130573D01*
X164166740Y-122140500D01*
X164166743Y-122140500D01*
X165883256Y-122140500D01*
X165883260Y-122140500D01*
X165886722Y-122139995D01*
X165908994Y-122143805D01*
X165931593Y-122143805D01*
X165938551Y-122148860D01*
X165947029Y-122150311D01*
X165962808Y-122166484D01*
X165981093Y-122179769D01*
X165983751Y-122187950D01*
X165989757Y-122194106D01*
X166000000Y-122237960D01*
X166000000Y-122312039D01*
X165981093Y-122370230D01*
X165931593Y-122406194D01*
X165886733Y-122410006D01*
X165883260Y-122409500D01*
X164166740Y-122409500D01*
X164132673Y-122414463D01*
X164098604Y-122419427D01*
X163993518Y-122470801D01*
X163910801Y-122553518D01*
X163859427Y-122658604D01*
X163859427Y-122658607D01*
X163849500Y-122726740D01*
X163849500Y-123093260D01*
X163853718Y-123122207D01*
X163859427Y-123161395D01*
X163879696Y-123202855D01*
X163910802Y-123266483D01*
X163993517Y-123349198D01*
X164047285Y-123375483D01*
X164098604Y-123400572D01*
X164098605Y-123400572D01*
X164098607Y-123400573D01*
X164166740Y-123410500D01*
X164525500Y-123410500D01*
X164583691Y-123429407D01*
X164619655Y-123478907D01*
X164624500Y-123509500D01*
X164624500Y-124030134D01*
X164605593Y-124088325D01*
X164567556Y-124116625D01*
X164568675Y-124118742D01*
X164562117Y-124122207D01*
X164452856Y-124202845D01*
X164452846Y-124202855D01*
X164372208Y-124312116D01*
X164327356Y-124440296D01*
X164327354Y-124440305D01*
X164324501Y-124470725D01*
X164324501Y-125529274D01*
X164327354Y-125559694D01*
X164327356Y-125559703D01*
X164372208Y-125687883D01*
X164452848Y-125797148D01*
X164452851Y-125797151D01*
X164464528Y-125805769D01*
X164500120Y-125855537D01*
X164499662Y-125916720D01*
X164491477Y-125934921D01*
X164472255Y-125968215D01*
X164451793Y-126044579D01*
X164431332Y-126120943D01*
X164431332Y-126279057D01*
X164455809Y-126370407D01*
X164457141Y-126375377D01*
X164453938Y-126436479D01*
X164415433Y-126484029D01*
X164361514Y-126500000D01*
X159968811Y-126500000D01*
X159910620Y-126481093D01*
X159874656Y-126431593D01*
X159874656Y-126370407D01*
X159875367Y-126368303D01*
X159922149Y-126234606D01*
X159922149Y-126234605D01*
X159924999Y-126204212D01*
X159925000Y-126204211D01*
X159925000Y-126000002D01*
X159924999Y-126000001D01*
X158075002Y-126000001D01*
X158070005Y-126004998D01*
X158049348Y-126015522D01*
X158030598Y-126029147D01*
X158022607Y-126029147D01*
X158015488Y-126032775D01*
X157992592Y-126029148D01*
X157969412Y-126029150D01*
X157961329Y-126024197D01*
X157955056Y-126023204D01*
X157947694Y-126015842D01*
X157929997Y-126004998D01*
X157924998Y-125999999D01*
X156075001Y-125999999D01*
X156075000Y-126000000D01*
X156075000Y-126204202D01*
X156077849Y-126234599D01*
X156077849Y-126234601D01*
X156124633Y-126368303D01*
X156126005Y-126429473D01*
X156091161Y-126479767D01*
X156033409Y-126499975D01*
X156031188Y-126500000D01*
X153801577Y-126500000D01*
X153743386Y-126481093D01*
X153707422Y-126431593D01*
X153707422Y-126370407D01*
X153721922Y-126342212D01*
X153752792Y-126300383D01*
X153752791Y-126300383D01*
X153752793Y-126300382D01*
X153797646Y-126172199D01*
X153800499Y-126141773D01*
X153800500Y-126141773D01*
X153800500Y-125595787D01*
X156074999Y-125595787D01*
X156074999Y-125799998D01*
X156075000Y-125799999D01*
X156899998Y-125799999D01*
X156899999Y-125799998D01*
X156899999Y-125200000D01*
X157099999Y-125200000D01*
X157099999Y-125799998D01*
X157100000Y-125799999D01*
X157924997Y-125799999D01*
X157929994Y-125795002D01*
X157950650Y-125784477D01*
X157969401Y-125770853D01*
X157977391Y-125770852D01*
X157984511Y-125767225D01*
X158007406Y-125770851D01*
X158030587Y-125770850D01*
X158037051Y-125775546D01*
X158044943Y-125776796D01*
X158070002Y-125795002D01*
X158075001Y-125800001D01*
X158899999Y-125800001D01*
X158900000Y-125800000D01*
X158900000Y-125200002D01*
X159100000Y-125200002D01*
X159100000Y-125800000D01*
X159100001Y-125800001D01*
X159924998Y-125800001D01*
X159924999Y-125800000D01*
X159924999Y-125595797D01*
X159922149Y-125565400D01*
X159922149Y-125565398D01*
X159877345Y-125437353D01*
X159796792Y-125328210D01*
X159796790Y-125328208D01*
X159687647Y-125247655D01*
X159559601Y-125202851D01*
X159529211Y-125200001D01*
X159100001Y-125200001D01*
X159100000Y-125200002D01*
X158900000Y-125200002D01*
X158899999Y-125200001D01*
X158470796Y-125200001D01*
X158440399Y-125202851D01*
X158440397Y-125202851D01*
X158312352Y-125247655D01*
X158203209Y-125328208D01*
X158203207Y-125328210D01*
X158122653Y-125437355D01*
X158093443Y-125520833D01*
X158056377Y-125569514D01*
X157997777Y-125587110D01*
X157940025Y-125566901D01*
X157906554Y-125520832D01*
X157877343Y-125437351D01*
X157796791Y-125328208D01*
X157796789Y-125328206D01*
X157687646Y-125247653D01*
X157559600Y-125202849D01*
X157529210Y-125199999D01*
X157100000Y-125199999D01*
X157099999Y-125200000D01*
X156899999Y-125200000D01*
X156899998Y-125199999D01*
X156470795Y-125199999D01*
X156440398Y-125202849D01*
X156440396Y-125202849D01*
X156312351Y-125247653D01*
X156203208Y-125328206D01*
X156203206Y-125328208D01*
X156122653Y-125437351D01*
X156077849Y-125565397D01*
X156074999Y-125595787D01*
X153800500Y-125595787D01*
X153800500Y-125508227D01*
X153800499Y-125508225D01*
X153797646Y-125477805D01*
X153797646Y-125477801D01*
X153752793Y-125349618D01*
X153736993Y-125328210D01*
X153672154Y-125240355D01*
X153672151Y-125240352D01*
X153672150Y-125240350D01*
X153672146Y-125240347D01*
X153672144Y-125240345D01*
X153562883Y-125159707D01*
X153542106Y-125152437D01*
X153434703Y-125114855D01*
X153434694Y-125114853D01*
X153404274Y-125112000D01*
X153404266Y-125112000D01*
X152395734Y-125112000D01*
X152395725Y-125112000D01*
X152365305Y-125114853D01*
X152365296Y-125114855D01*
X152237116Y-125159707D01*
X152127855Y-125240345D01*
X152127848Y-125240352D01*
X152063136Y-125328034D01*
X152013368Y-125363626D01*
X151952184Y-125363168D01*
X151945596Y-125360709D01*
X151940528Y-125358609D01*
X151891136Y-125345375D01*
X151813229Y-125324500D01*
X151681445Y-125324500D01*
X151603537Y-125345375D01*
X151554146Y-125358609D01*
X151440027Y-125424496D01*
X151346833Y-125517690D01*
X151280946Y-125631809D01*
X151280945Y-125631814D01*
X151246837Y-125759108D01*
X151246837Y-125890892D01*
X151267556Y-125968216D01*
X151280946Y-126018190D01*
X151346833Y-126132309D01*
X151346835Y-126132311D01*
X151346837Y-126132314D01*
X151440023Y-126225500D01*
X151440025Y-126225501D01*
X151440027Y-126225503D01*
X151554147Y-126291390D01*
X151554145Y-126291390D01*
X151554149Y-126291391D01*
X151554151Y-126291392D01*
X151606332Y-126305373D01*
X151657645Y-126338697D01*
X151679572Y-126395819D01*
X151663736Y-126454919D01*
X151616187Y-126493424D01*
X151580708Y-126500000D01*
X148098932Y-126500000D01*
X148040741Y-126481093D01*
X148004777Y-126431593D01*
X147999932Y-126401068D01*
X147999678Y-126032775D01*
X147999035Y-125100001D01*
X162425002Y-125100001D01*
X162425002Y-125529203D01*
X162427851Y-125559600D01*
X162427851Y-125559602D01*
X162472655Y-125687647D01*
X162553208Y-125796790D01*
X162553210Y-125796792D01*
X162662353Y-125877345D01*
X162790399Y-125922149D01*
X162820790Y-125924999D01*
X163024999Y-125924999D01*
X163025001Y-125924998D01*
X163025001Y-125100001D01*
X163225001Y-125100001D01*
X163225001Y-125924998D01*
X163225002Y-125924999D01*
X163429204Y-125924999D01*
X163459601Y-125922149D01*
X163459603Y-125922149D01*
X163587648Y-125877345D01*
X163696791Y-125796792D01*
X163696793Y-125796790D01*
X163777346Y-125687647D01*
X163822150Y-125559601D01*
X163825000Y-125529211D01*
X163825001Y-125529210D01*
X163825001Y-125100001D01*
X163825000Y-125100000D01*
X163225002Y-125100000D01*
X163225001Y-125100001D01*
X163025001Y-125100001D01*
X163025000Y-125100000D01*
X162425003Y-125100000D01*
X162425002Y-125100001D01*
X147999035Y-125100001D01*
X147999027Y-125088266D01*
X148013854Y-125036087D01*
X148099440Y-124897859D01*
X148166421Y-124724960D01*
X148200491Y-124542697D01*
X148200491Y-124522623D01*
X148200499Y-124522504D01*
X148200499Y-124100001D01*
X148600002Y-124100001D01*
X148600002Y-124529203D01*
X148602851Y-124559600D01*
X148602851Y-124559602D01*
X148647655Y-124687647D01*
X148728208Y-124796790D01*
X148728210Y-124796792D01*
X148837353Y-124877345D01*
X148965399Y-124922149D01*
X148995790Y-124924999D01*
X149199999Y-124924999D01*
X149200001Y-124924998D01*
X149200001Y-124100001D01*
X149400001Y-124100001D01*
X149400001Y-124924998D01*
X149400002Y-124924999D01*
X149604204Y-124924999D01*
X149634601Y-124922149D01*
X149634603Y-124922149D01*
X149762648Y-124877345D01*
X149871791Y-124796792D01*
X149871793Y-124796790D01*
X149952346Y-124687647D01*
X149997150Y-124559601D01*
X150000000Y-124529211D01*
X150000001Y-124529210D01*
X150000001Y-124100001D01*
X150000000Y-124100000D01*
X149400002Y-124100000D01*
X149400001Y-124100001D01*
X149200001Y-124100001D01*
X149200000Y-124100000D01*
X148600003Y-124100000D01*
X148600002Y-124100001D01*
X148200499Y-124100001D01*
X148200499Y-123470788D01*
X148600001Y-123470788D01*
X148600001Y-123899999D01*
X148600002Y-123900000D01*
X149200000Y-123900000D01*
X149200001Y-123899999D01*
X149200001Y-123075001D01*
X149400001Y-123075001D01*
X149400001Y-123899999D01*
X149400002Y-123900000D01*
X149999999Y-123900000D01*
X150000000Y-123899999D01*
X150000000Y-123470796D01*
X149997150Y-123440399D01*
X149997150Y-123440397D01*
X149952346Y-123312352D01*
X149871793Y-123203209D01*
X149871791Y-123203207D01*
X149762648Y-123122654D01*
X149634602Y-123077850D01*
X149604212Y-123075000D01*
X149400002Y-123075000D01*
X149400001Y-123075001D01*
X149200001Y-123075001D01*
X149200000Y-123075000D01*
X148995797Y-123075000D01*
X148965400Y-123077850D01*
X148965398Y-123077850D01*
X148837353Y-123122654D01*
X148728210Y-123203207D01*
X148728208Y-123203209D01*
X148647655Y-123312352D01*
X148602851Y-123440398D01*
X148600001Y-123470788D01*
X148200499Y-123470788D01*
X148200499Y-123468482D01*
X148200499Y-120836391D01*
X148200498Y-118176484D01*
X149458573Y-118176484D01*
X149458573Y-118810033D01*
X149461426Y-118840453D01*
X149461428Y-118840462D01*
X149506280Y-118968642D01*
X149586918Y-119077903D01*
X149586920Y-119077905D01*
X149586923Y-119077909D01*
X149586926Y-119077911D01*
X149586928Y-119077913D01*
X149696189Y-119158551D01*
X149696190Y-119158551D01*
X149696191Y-119158552D01*
X149824374Y-119203405D01*
X149854798Y-119206258D01*
X149854800Y-119206259D01*
X149854807Y-119206259D01*
X149959573Y-119206259D01*
X150017764Y-119225166D01*
X150053728Y-119274666D01*
X150058573Y-119305259D01*
X150058573Y-121398635D01*
X150071483Y-121446813D01*
X150079052Y-121475062D01*
X150079055Y-121475068D01*
X150085346Y-121485965D01*
X150085357Y-121485983D01*
X150085361Y-121485989D01*
X150118613Y-121543584D01*
X150629540Y-122054511D01*
X150629539Y-122054511D01*
X150685489Y-122110460D01*
X150754007Y-122150019D01*
X150754011Y-122150021D01*
X150830435Y-122170499D01*
X150830437Y-122170500D01*
X150830438Y-122170500D01*
X150909562Y-122170500D01*
X151875500Y-122170500D01*
X151933691Y-122189407D01*
X151969655Y-122238907D01*
X151974500Y-122269500D01*
X151974500Y-122472129D01*
X151974501Y-122472137D01*
X151990484Y-122552494D01*
X151990485Y-122552496D01*
X151997631Y-122563190D01*
X152051376Y-122643624D01*
X152142505Y-122704515D01*
X152222867Y-122720500D01*
X152500500Y-122720499D01*
X152558690Y-122739406D01*
X152594654Y-122788906D01*
X152599500Y-122819499D01*
X152599500Y-123188000D01*
X152580593Y-123246191D01*
X152531093Y-123282155D01*
X152500500Y-123287000D01*
X152395725Y-123287000D01*
X152365305Y-123289853D01*
X152365296Y-123289855D01*
X152237116Y-123334707D01*
X152127855Y-123415345D01*
X152127845Y-123415355D01*
X152075531Y-123486239D01*
X152025763Y-123521832D01*
X151964580Y-123521374D01*
X151915350Y-123485041D01*
X151900707Y-123445797D01*
X151898932Y-123446185D01*
X151897647Y-123440305D01*
X151897647Y-123440301D01*
X151852794Y-123312118D01*
X151845589Y-123302356D01*
X151772155Y-123202855D01*
X151772153Y-123202853D01*
X151772151Y-123202850D01*
X151772147Y-123202847D01*
X151772145Y-123202845D01*
X151662884Y-123122207D01*
X151534704Y-123077355D01*
X151534695Y-123077353D01*
X151504275Y-123074500D01*
X151504267Y-123074500D01*
X150895735Y-123074500D01*
X150895726Y-123074500D01*
X150865306Y-123077353D01*
X150865297Y-123077355D01*
X150737117Y-123122207D01*
X150627856Y-123202845D01*
X150627846Y-123202855D01*
X150547208Y-123312116D01*
X150502356Y-123440296D01*
X150502354Y-123440305D01*
X150499501Y-123470725D01*
X150499501Y-124529274D01*
X150502354Y-124559694D01*
X150502356Y-124559703D01*
X150547208Y-124687883D01*
X150627846Y-124797144D01*
X150627848Y-124797146D01*
X150627851Y-124797150D01*
X150627854Y-124797152D01*
X150627856Y-124797154D01*
X150737117Y-124877792D01*
X150737118Y-124877792D01*
X150737119Y-124877793D01*
X150865302Y-124922646D01*
X150895726Y-124925499D01*
X150895728Y-124925500D01*
X150895735Y-124925500D01*
X151504274Y-124925500D01*
X151504274Y-124925499D01*
X151534700Y-124922646D01*
X151662883Y-124877793D01*
X151772151Y-124797150D01*
X151852794Y-124687882D01*
X151897647Y-124559699D01*
X151897647Y-124559689D01*
X151898932Y-124553815D01*
X151901195Y-124554309D01*
X151921558Y-124507143D01*
X151974195Y-124475951D01*
X152035114Y-124481656D01*
X152075531Y-124513760D01*
X152127845Y-124584644D01*
X152127850Y-124584650D01*
X152127853Y-124584652D01*
X152127855Y-124584654D01*
X152237116Y-124665292D01*
X152237117Y-124665292D01*
X152237118Y-124665293D01*
X152365301Y-124710146D01*
X152395725Y-124712999D01*
X152395727Y-124713000D01*
X152395734Y-124713000D01*
X153404273Y-124713000D01*
X153404273Y-124712999D01*
X153434699Y-124710146D01*
X153562882Y-124665293D01*
X153672150Y-124584650D01*
X153752793Y-124475382D01*
X153797646Y-124347199D01*
X153800499Y-124316773D01*
X153800500Y-124316773D01*
X153800500Y-123683227D01*
X153800499Y-123683225D01*
X153797646Y-123652801D01*
X153752793Y-123524618D01*
X153749002Y-123519482D01*
X153672154Y-123415355D01*
X153672152Y-123415353D01*
X153672150Y-123415350D01*
X153672146Y-123415347D01*
X153672144Y-123415345D01*
X153562883Y-123334707D01*
X153434703Y-123289855D01*
X153434694Y-123289853D01*
X153404274Y-123287000D01*
X153404266Y-123287000D01*
X153299500Y-123287000D01*
X153241309Y-123268093D01*
X153205345Y-123218593D01*
X153200500Y-123188000D01*
X153200500Y-122819499D01*
X153219407Y-122761308D01*
X153268907Y-122725344D01*
X153299500Y-122720499D01*
X153577130Y-122720499D01*
X153577132Y-122720499D01*
X153657495Y-122704515D01*
X153748624Y-122643624D01*
X153809515Y-122552495D01*
X153825500Y-122472133D01*
X153825499Y-122267868D01*
X153809515Y-122187505D01*
X153801159Y-122175000D01*
X153784551Y-122116114D01*
X153801159Y-122064999D01*
X153809515Y-122052495D01*
X153825500Y-121972133D01*
X153825499Y-121767868D01*
X153809515Y-121687505D01*
X153800859Y-121674551D01*
X153784251Y-121615665D01*
X153800862Y-121564545D01*
X153809044Y-121552300D01*
X153824999Y-121472088D01*
X153825000Y-121472086D01*
X153825000Y-121470001D01*
X153824999Y-121470000D01*
X151975001Y-121470000D01*
X151975000Y-121470001D01*
X151975000Y-121470500D01*
X151956093Y-121528691D01*
X151906593Y-121564655D01*
X151876000Y-121569500D01*
X151035479Y-121569500D01*
X150977288Y-121550593D01*
X150965475Y-121540504D01*
X150688569Y-121263598D01*
X150660792Y-121209081D01*
X150659573Y-121193594D01*
X150659573Y-120034108D01*
X151199500Y-120034108D01*
X151199500Y-120165892D01*
X151226823Y-120267862D01*
X151233609Y-120293190D01*
X151299496Y-120407309D01*
X151299498Y-120407311D01*
X151299500Y-120407314D01*
X151392686Y-120500500D01*
X151392688Y-120500501D01*
X151392690Y-120500503D01*
X151506810Y-120566390D01*
X151506808Y-120566390D01*
X151506812Y-120566391D01*
X151506814Y-120566392D01*
X151634108Y-120600500D01*
X151634110Y-120600500D01*
X151741710Y-120600500D01*
X151781483Y-120608841D01*
X151786487Y-120611036D01*
X151854012Y-120650022D01*
X151908839Y-120664712D01*
X151915726Y-120667734D01*
X151933229Y-120683322D01*
X151952890Y-120696090D01*
X151955655Y-120703293D01*
X151961418Y-120708426D01*
X151966417Y-120731328D01*
X151974817Y-120753211D01*
X151974500Y-120767147D01*
X151974500Y-120972129D01*
X151974501Y-120972137D01*
X151990484Y-121052494D01*
X151990485Y-121052496D01*
X151999139Y-121065447D01*
X152015748Y-121124335D01*
X151999140Y-121175450D01*
X151990954Y-121187700D01*
X151975000Y-121267908D01*
X151975000Y-121269999D01*
X151975001Y-121270000D01*
X153824999Y-121270000D01*
X153825000Y-121269999D01*
X153825000Y-121269500D01*
X153843907Y-121211309D01*
X153893407Y-121175345D01*
X153924000Y-121170500D01*
X154269563Y-121170500D01*
X154269563Y-121170499D01*
X154345989Y-121150021D01*
X154408790Y-121113762D01*
X154458290Y-121100500D01*
X154565890Y-121100500D01*
X154565892Y-121100500D01*
X154693186Y-121066392D01*
X154693188Y-121066390D01*
X154693190Y-121066390D01*
X154807309Y-121000503D01*
X154807309Y-121000502D01*
X154807314Y-121000500D01*
X154900500Y-120907314D01*
X154916928Y-120878860D01*
X154966390Y-120793190D01*
X154966390Y-120793188D01*
X154966392Y-120793186D01*
X155000500Y-120665892D01*
X155000500Y-120534108D01*
X154966392Y-120406814D01*
X154966390Y-120406810D01*
X154966390Y-120406809D01*
X154900503Y-120292690D01*
X154900501Y-120292688D01*
X154900500Y-120292686D01*
X154807314Y-120199500D01*
X154807311Y-120199498D01*
X154807309Y-120199496D01*
X154693189Y-120133609D01*
X154693191Y-120133609D01*
X154643799Y-120120375D01*
X154565892Y-120099500D01*
X154434108Y-120099500D01*
X154356200Y-120120375D01*
X154306809Y-120133609D01*
X154192690Y-120199496D01*
X154099496Y-120292690D01*
X154033609Y-120406810D01*
X154033608Y-120406812D01*
X154020125Y-120457130D01*
X153986801Y-120508443D01*
X153929679Y-120530369D01*
X153870579Y-120514533D01*
X153832074Y-120466982D01*
X153825499Y-120431509D01*
X153825499Y-120267868D01*
X153809515Y-120187505D01*
X153809512Y-120187501D01*
X153748626Y-120096379D01*
X153748624Y-120096376D01*
X153708402Y-120069500D01*
X153657497Y-120035486D01*
X153657496Y-120035485D01*
X153657495Y-120035485D01*
X153577133Y-120019500D01*
X152272551Y-120019500D01*
X152214360Y-120000593D01*
X152178396Y-119951093D01*
X152176924Y-119946123D01*
X152172819Y-119930801D01*
X152166392Y-119906814D01*
X152100500Y-119792686D01*
X152007314Y-119699500D01*
X152007311Y-119699498D01*
X152007309Y-119699496D01*
X151893189Y-119633609D01*
X151893191Y-119633609D01*
X151843799Y-119620375D01*
X151765892Y-119599500D01*
X151634108Y-119599500D01*
X151556200Y-119620375D01*
X151506809Y-119633609D01*
X151392690Y-119699496D01*
X151299496Y-119792690D01*
X151233609Y-119906809D01*
X151217056Y-119968586D01*
X151199500Y-120034108D01*
X150659573Y-120034108D01*
X150659573Y-119305259D01*
X150678480Y-119247068D01*
X150727980Y-119211104D01*
X150758573Y-119206259D01*
X150863346Y-119206259D01*
X150863346Y-119206258D01*
X150893772Y-119203405D01*
X151021955Y-119158552D01*
X151131223Y-119077909D01*
X151211866Y-118968641D01*
X151249860Y-118860061D01*
X151267737Y-118836581D01*
X151285113Y-118812666D01*
X151286220Y-118812306D01*
X151286925Y-118811381D01*
X151343304Y-118793759D01*
X151407240Y-118793759D01*
X151465431Y-118812666D01*
X151501395Y-118862166D01*
X151506240Y-118892759D01*
X151506240Y-119029274D01*
X151509093Y-119059694D01*
X151509095Y-119059703D01*
X151553947Y-119187883D01*
X151634585Y-119297144D01*
X151634587Y-119297146D01*
X151634590Y-119297150D01*
X151634593Y-119297152D01*
X151634595Y-119297154D01*
X151743856Y-119377792D01*
X151743857Y-119377792D01*
X151743858Y-119377793D01*
X151872041Y-119422646D01*
X151902465Y-119425499D01*
X151902467Y-119425500D01*
X151902474Y-119425500D01*
X152511013Y-119425500D01*
X152511013Y-119425499D01*
X152541439Y-119422646D01*
X152669622Y-119377793D01*
X152778890Y-119297150D01*
X152859533Y-119187882D01*
X152904386Y-119059699D01*
X152907239Y-119029273D01*
X152907240Y-119029273D01*
X152907240Y-118600001D01*
X153406741Y-118600001D01*
X153406741Y-119029203D01*
X153409590Y-119059600D01*
X153409590Y-119059602D01*
X153454394Y-119187647D01*
X153534947Y-119296790D01*
X153534949Y-119296792D01*
X153644092Y-119377345D01*
X153772138Y-119422149D01*
X153802529Y-119424999D01*
X154006738Y-119424999D01*
X154006740Y-119424998D01*
X154006740Y-118600001D01*
X154206740Y-118600001D01*
X154206740Y-119424998D01*
X154206741Y-119424999D01*
X154410943Y-119424999D01*
X154441340Y-119422149D01*
X154441342Y-119422149D01*
X154569387Y-119377345D01*
X154678530Y-119296792D01*
X154678532Y-119296790D01*
X154749966Y-119200001D01*
X163850001Y-119200001D01*
X163850001Y-119283216D01*
X163859912Y-119351250D01*
X163911214Y-119456188D01*
X163993812Y-119538786D01*
X164098751Y-119590087D01*
X164166784Y-119599999D01*
X164924998Y-119599999D01*
X164925000Y-119599998D01*
X164925000Y-119200001D01*
X164924999Y-119200000D01*
X163850002Y-119200000D01*
X163850001Y-119200001D01*
X154749966Y-119200001D01*
X154759084Y-119187647D01*
X154780552Y-119126296D01*
X154780553Y-119126294D01*
X154803889Y-119059603D01*
X154806739Y-119029211D01*
X154806740Y-119029210D01*
X154806740Y-118916784D01*
X163850000Y-118916784D01*
X163850000Y-118999999D01*
X163850001Y-119000000D01*
X164924999Y-119000000D01*
X164925000Y-118999999D01*
X164925000Y-118600001D01*
X164924999Y-118600000D01*
X164166786Y-118600000D01*
X164166783Y-118600001D01*
X164098749Y-118609912D01*
X163993811Y-118661214D01*
X163911213Y-118743812D01*
X163859912Y-118848751D01*
X163850000Y-118916784D01*
X154806740Y-118916784D01*
X154806740Y-118600001D01*
X154806739Y-118600000D01*
X154206741Y-118600000D01*
X154206740Y-118600001D01*
X154006740Y-118600001D01*
X154006739Y-118600000D01*
X153406742Y-118600000D01*
X153406741Y-118600001D01*
X152907240Y-118600001D01*
X152907240Y-117970788D01*
X153406740Y-117970788D01*
X153406740Y-118399999D01*
X153406741Y-118400000D01*
X154006739Y-118400000D01*
X154006740Y-118399999D01*
X154006740Y-117575001D01*
X154206740Y-117575001D01*
X154206740Y-118399999D01*
X154206741Y-118400000D01*
X154806738Y-118400000D01*
X154806739Y-118399999D01*
X154806739Y-117970796D01*
X154803889Y-117940399D01*
X154803889Y-117940397D01*
X154759085Y-117812352D01*
X154678532Y-117703209D01*
X154678530Y-117703207D01*
X154569387Y-117622654D01*
X154441341Y-117577850D01*
X154410951Y-117575000D01*
X154206741Y-117575000D01*
X154206740Y-117575001D01*
X154006740Y-117575001D01*
X154006739Y-117575000D01*
X153802536Y-117575000D01*
X153772139Y-117577850D01*
X153772137Y-117577850D01*
X153644092Y-117622654D01*
X153534949Y-117703207D01*
X153534947Y-117703209D01*
X153454394Y-117812352D01*
X153409590Y-117940398D01*
X153406740Y-117970788D01*
X152907240Y-117970788D01*
X152907240Y-117970727D01*
X152907239Y-117970725D01*
X152904386Y-117940305D01*
X152904386Y-117940301D01*
X152859533Y-117812118D01*
X152838127Y-117783114D01*
X152778894Y-117702855D01*
X152778892Y-117702853D01*
X152778890Y-117702850D01*
X152778886Y-117702847D01*
X152778884Y-117702845D01*
X152669623Y-117622207D01*
X152541443Y-117577355D01*
X152541434Y-117577353D01*
X152511014Y-117574500D01*
X152511006Y-117574500D01*
X151902474Y-117574500D01*
X151902465Y-117574500D01*
X151872045Y-117577353D01*
X151872036Y-117577355D01*
X151743856Y-117622207D01*
X151634595Y-117702845D01*
X151634585Y-117702855D01*
X151553947Y-117812116D01*
X151509095Y-117940296D01*
X151509093Y-117940305D01*
X151506240Y-117970725D01*
X151506240Y-118093759D01*
X151501395Y-118108670D01*
X151501395Y-118124352D01*
X151492178Y-118137037D01*
X151487333Y-118151950D01*
X151474647Y-118161166D01*
X151465431Y-118173852D01*
X151450518Y-118178697D01*
X151437833Y-118187914D01*
X151407240Y-118192759D01*
X151343304Y-118192759D01*
X151285113Y-118173852D01*
X151249860Y-118126457D01*
X151211865Y-118017875D01*
X151131227Y-117908614D01*
X151131225Y-117908612D01*
X151131223Y-117908609D01*
X151131219Y-117908606D01*
X151131217Y-117908604D01*
X151021956Y-117827966D01*
X150893776Y-117783114D01*
X150893767Y-117783112D01*
X150863347Y-117780259D01*
X150863339Y-117780259D01*
X149854807Y-117780259D01*
X149854798Y-117780259D01*
X149824378Y-117783112D01*
X149824369Y-117783114D01*
X149696189Y-117827966D01*
X149586928Y-117908604D01*
X149586918Y-117908614D01*
X149506280Y-118017875D01*
X149461428Y-118146055D01*
X149461426Y-118146064D01*
X149458573Y-118176484D01*
X148200498Y-118176484D01*
X148200498Y-117084108D01*
X148200498Y-117057292D01*
X148166428Y-116875029D01*
X148099447Y-116702129D01*
X148007938Y-116554338D01*
X147993112Y-116502294D01*
X147993008Y-116351484D01*
X149458573Y-116351484D01*
X149458573Y-116985033D01*
X149461426Y-117015453D01*
X149461428Y-117015462D01*
X149506280Y-117143642D01*
X149586918Y-117252903D01*
X149586920Y-117252905D01*
X149586923Y-117252909D01*
X149586926Y-117252911D01*
X149586928Y-117252913D01*
X149696189Y-117333551D01*
X149696190Y-117333551D01*
X149696191Y-117333552D01*
X149824374Y-117378405D01*
X149854798Y-117381258D01*
X149854800Y-117381259D01*
X149854807Y-117381259D01*
X150863346Y-117381259D01*
X150863346Y-117381258D01*
X150893772Y-117378405D01*
X151021955Y-117333552D01*
X151131223Y-117252909D01*
X151211866Y-117143641D01*
X151256719Y-117015458D01*
X151259572Y-116985032D01*
X151259573Y-116985032D01*
X151259573Y-116351486D01*
X151259572Y-116351484D01*
X151256719Y-116321064D01*
X151256719Y-116321060D01*
X151211866Y-116192877D01*
X151148714Y-116107309D01*
X151131227Y-116083614D01*
X151131225Y-116083612D01*
X151131223Y-116083609D01*
X151131219Y-116083606D01*
X151131217Y-116083604D01*
X151021956Y-116002966D01*
X150893776Y-115958114D01*
X150893767Y-115958112D01*
X150871051Y-115955981D01*
X150814880Y-115931721D01*
X150783697Y-115879078D01*
X150789413Y-115818160D01*
X150794550Y-115807935D01*
X150826907Y-115751892D01*
X150861015Y-115624598D01*
X150861015Y-115492814D01*
X150841757Y-115420943D01*
X151899500Y-115420943D01*
X151899500Y-115579057D01*
X151940423Y-115731784D01*
X152019480Y-115868716D01*
X152131284Y-115980520D01*
X152268216Y-116059577D01*
X152420943Y-116100500D01*
X152420945Y-116100500D01*
X152579055Y-116100500D01*
X152579057Y-116100500D01*
X152731784Y-116059577D01*
X152868716Y-115980520D01*
X152980520Y-115868716D01*
X153059577Y-115731784D01*
X153100500Y-115579057D01*
X153100500Y-115420943D01*
X153059577Y-115268216D01*
X152980520Y-115131284D01*
X152868716Y-115019480D01*
X152731784Y-114940423D01*
X152579057Y-114899500D01*
X152420943Y-114899500D01*
X152268216Y-114940423D01*
X152131284Y-115019480D01*
X152019480Y-115131284D01*
X151940423Y-115268216D01*
X151899500Y-115420943D01*
X150841757Y-115420943D01*
X150826907Y-115365520D01*
X150826905Y-115365517D01*
X150826905Y-115365515D01*
X150761018Y-115251396D01*
X150761016Y-115251394D01*
X150761015Y-115251392D01*
X150667829Y-115158206D01*
X150667826Y-115158204D01*
X150667824Y-115158202D01*
X150553704Y-115092315D01*
X150553706Y-115092315D01*
X150504314Y-115079081D01*
X150426407Y-115058206D01*
X150294623Y-115058206D01*
X150216715Y-115079081D01*
X150167324Y-115092315D01*
X150053205Y-115158202D01*
X149960011Y-115251396D01*
X149894124Y-115365515D01*
X149879273Y-115420943D01*
X149860015Y-115492814D01*
X149860015Y-115624598D01*
X149888735Y-115731783D01*
X149894124Y-115751895D01*
X149926319Y-115807659D01*
X149939040Y-115867507D01*
X149914153Y-115923403D01*
X149861164Y-115953995D01*
X149849828Y-115955725D01*
X149824378Y-115958112D01*
X149824369Y-115958114D01*
X149696189Y-116002966D01*
X149586928Y-116083604D01*
X149586918Y-116083614D01*
X149506280Y-116192875D01*
X149461428Y-116321055D01*
X149461426Y-116321064D01*
X149458573Y-116351484D01*
X147993008Y-116351484D01*
X147990354Y-112499560D01*
X148009221Y-112441359D01*
X148058696Y-112405362D01*
X148089354Y-112400495D01*
X148229272Y-112400495D01*
X148229272Y-112400494D01*
X148259698Y-112397641D01*
X148387881Y-112352788D01*
X148497149Y-112272145D01*
X148577792Y-112162877D01*
X148622645Y-112034694D01*
X148625498Y-112004268D01*
X148625499Y-112004268D01*
X148625499Y-111899495D01*
X148644406Y-111841304D01*
X148693906Y-111805340D01*
X148724499Y-111800495D01*
X149535834Y-111800495D01*
X149535834Y-111800494D01*
X149612260Y-111780016D01*
X149680782Y-111740455D01*
X149736731Y-111684506D01*
X149741745Y-111679492D01*
X149796262Y-111651715D01*
X149811749Y-111650496D01*
X150280793Y-111650496D01*
X150338984Y-111669403D01*
X150350797Y-111679492D01*
X151350113Y-112678808D01*
X151350112Y-112678808D01*
X151406062Y-112734757D01*
X151474580Y-112774316D01*
X151474584Y-112774318D01*
X151551008Y-112794796D01*
X151551010Y-112794797D01*
X151551011Y-112794797D01*
X151590500Y-112794797D01*
X151648691Y-112813704D01*
X151684655Y-112863204D01*
X151689500Y-112893797D01*
X151689500Y-113352557D01*
X151696118Y-113397979D01*
X151699427Y-113420692D01*
X151750657Y-113525484D01*
X151750802Y-113525780D01*
X151833517Y-113608495D01*
X151887285Y-113634780D01*
X151938604Y-113659869D01*
X151938605Y-113659869D01*
X151938607Y-113659870D01*
X152006740Y-113669797D01*
X152006743Y-113669797D01*
X152373257Y-113669797D01*
X152373260Y-113669797D01*
X152441393Y-113659870D01*
X152546483Y-113608495D01*
X152629198Y-113525780D01*
X152680573Y-113420690D01*
X152690500Y-113352557D01*
X152690500Y-112594298D01*
X152960001Y-112594298D01*
X152960001Y-113352513D01*
X152969912Y-113420547D01*
X153021214Y-113525485D01*
X153103812Y-113608083D01*
X153208751Y-113659384D01*
X153276784Y-113669296D01*
X153360000Y-113669296D01*
X153360000Y-112594298D01*
X153560000Y-112594298D01*
X153560000Y-113669295D01*
X153560001Y-113669296D01*
X153643213Y-113669296D01*
X153643216Y-113669295D01*
X153711250Y-113659384D01*
X153816188Y-113608082D01*
X153898786Y-113525484D01*
X153950087Y-113420545D01*
X153960000Y-113352512D01*
X153960000Y-112594298D01*
X154230001Y-112594298D01*
X154230001Y-113352513D01*
X154239912Y-113420547D01*
X154291214Y-113525485D01*
X154373812Y-113608083D01*
X154478751Y-113659384D01*
X154546784Y-113669296D01*
X154630000Y-113669296D01*
X154630000Y-112594298D01*
X154830000Y-112594298D01*
X154830000Y-113669295D01*
X154830001Y-113669296D01*
X154913213Y-113669296D01*
X154913216Y-113669295D01*
X154981250Y-113659384D01*
X155086188Y-113608082D01*
X155168786Y-113525484D01*
X155220087Y-113420545D01*
X155230000Y-113352512D01*
X155230000Y-112594298D01*
X155500001Y-112594298D01*
X155500001Y-113352513D01*
X155509912Y-113420547D01*
X155561214Y-113525485D01*
X155643812Y-113608083D01*
X155748751Y-113659384D01*
X155816784Y-113669296D01*
X155900000Y-113669296D01*
X155900000Y-112594298D01*
X156100000Y-112594298D01*
X156100000Y-113669295D01*
X156100001Y-113669296D01*
X156183213Y-113669296D01*
X156183216Y-113669295D01*
X156251250Y-113659384D01*
X156356188Y-113608082D01*
X156438786Y-113525484D01*
X156490087Y-113420545D01*
X156500000Y-113352512D01*
X156500000Y-112594298D01*
X156499999Y-112594297D01*
X156100001Y-112594297D01*
X156100000Y-112594298D01*
X155900000Y-112594298D01*
X155899999Y-112594297D01*
X155500002Y-112594297D01*
X155500001Y-112594298D01*
X155230000Y-112594298D01*
X155229999Y-112594297D01*
X154830001Y-112594297D01*
X154830000Y-112594298D01*
X154630000Y-112594298D01*
X154629999Y-112594297D01*
X154230002Y-112594297D01*
X154230001Y-112594298D01*
X153960000Y-112594298D01*
X153959999Y-112594297D01*
X153560001Y-112594297D01*
X153560000Y-112594298D01*
X153360000Y-112594298D01*
X153359999Y-112594297D01*
X152960002Y-112594297D01*
X152960001Y-112594298D01*
X152690500Y-112594298D01*
X152690500Y-111636081D01*
X152960000Y-111636081D01*
X152960000Y-112394296D01*
X152960001Y-112394297D01*
X153359999Y-112394297D01*
X153360000Y-112394296D01*
X153360000Y-111319298D01*
X153560000Y-111319298D01*
X153560000Y-112394296D01*
X153560001Y-112394297D01*
X153959998Y-112394297D01*
X153959999Y-112394296D01*
X153959999Y-111636084D01*
X153959998Y-111636081D01*
X154230000Y-111636081D01*
X154230000Y-112394296D01*
X154230001Y-112394297D01*
X154629999Y-112394297D01*
X154630000Y-112394296D01*
X154630000Y-111319298D01*
X154830000Y-111319298D01*
X154830000Y-112394296D01*
X154830001Y-112394297D01*
X155229998Y-112394297D01*
X155229999Y-112394296D01*
X155229999Y-111636084D01*
X155229998Y-111636081D01*
X155500000Y-111636081D01*
X155500000Y-112394296D01*
X155500001Y-112394297D01*
X155899999Y-112394297D01*
X155900000Y-112394296D01*
X155900000Y-111319298D01*
X156100000Y-111319298D01*
X156100000Y-112394296D01*
X156100001Y-112394297D01*
X156499998Y-112394297D01*
X156499999Y-112394296D01*
X156499999Y-111636083D01*
X156499998Y-111636080D01*
X156490087Y-111568046D01*
X156438785Y-111463108D01*
X156356187Y-111380510D01*
X156251248Y-111329209D01*
X156183216Y-111319297D01*
X156100001Y-111319297D01*
X156100000Y-111319298D01*
X155900000Y-111319298D01*
X155900000Y-111319297D01*
X155816785Y-111319297D01*
X155816782Y-111319298D01*
X155748750Y-111329209D01*
X155643811Y-111380511D01*
X155561213Y-111463109D01*
X155509912Y-111568048D01*
X155500000Y-111636081D01*
X155229998Y-111636081D01*
X155229998Y-111636080D01*
X155220087Y-111568046D01*
X155168785Y-111463108D01*
X155086187Y-111380510D01*
X154981248Y-111329209D01*
X154913216Y-111319297D01*
X154830001Y-111319297D01*
X154830000Y-111319298D01*
X154630000Y-111319298D01*
X154630000Y-111319297D01*
X154546785Y-111319297D01*
X154546782Y-111319298D01*
X154478750Y-111329209D01*
X154373811Y-111380511D01*
X154291213Y-111463109D01*
X154239912Y-111568048D01*
X154230000Y-111636081D01*
X153959998Y-111636081D01*
X153959998Y-111636080D01*
X153950087Y-111568046D01*
X153898785Y-111463108D01*
X153816187Y-111380510D01*
X153711248Y-111329209D01*
X153643216Y-111319297D01*
X153560001Y-111319297D01*
X153560000Y-111319298D01*
X153360000Y-111319298D01*
X153360000Y-111319297D01*
X153276785Y-111319297D01*
X153276782Y-111319298D01*
X153208750Y-111329209D01*
X153103811Y-111380511D01*
X153021213Y-111463109D01*
X152969912Y-111568048D01*
X152960000Y-111636081D01*
X152690500Y-111636081D01*
X152690500Y-111636037D01*
X152680573Y-111567904D01*
X152629198Y-111462814D01*
X152546483Y-111380099D01*
X152546481Y-111380098D01*
X152441395Y-111328724D01*
X152414139Y-111324753D01*
X152373260Y-111318797D01*
X152006740Y-111318797D01*
X151972673Y-111323760D01*
X151938604Y-111328724D01*
X151833518Y-111380098D01*
X151750801Y-111462815D01*
X151699427Y-111567901D01*
X151689500Y-111636040D01*
X151689500Y-111929245D01*
X151670593Y-111987436D01*
X151621093Y-112023400D01*
X151559907Y-112023400D01*
X151520496Y-111999249D01*
X150970657Y-111449410D01*
X150942880Y-111394893D01*
X150947217Y-111346707D01*
X150953510Y-111328724D01*
X150968917Y-111284695D01*
X150971770Y-111254269D01*
X150971771Y-111254269D01*
X150971771Y-110645723D01*
X150971770Y-110645721D01*
X150968917Y-110615301D01*
X150968917Y-110615297D01*
X150924064Y-110487114D01*
X150843421Y-110377846D01*
X150843417Y-110377843D01*
X150843415Y-110377841D01*
X150734154Y-110297203D01*
X150605974Y-110252351D01*
X150605965Y-110252349D01*
X150575545Y-110249496D01*
X150575537Y-110249496D01*
X149517005Y-110249496D01*
X149516996Y-110249496D01*
X149486576Y-110252349D01*
X149486567Y-110252351D01*
X149358387Y-110297203D01*
X149249126Y-110377841D01*
X149249116Y-110377851D01*
X149168478Y-110487112D01*
X149123626Y-110615292D01*
X149123624Y-110615301D01*
X149120771Y-110645721D01*
X149120771Y-111100495D01*
X149101864Y-111158686D01*
X149052364Y-111194650D01*
X149021771Y-111199495D01*
X148724499Y-111199495D01*
X148666308Y-111180588D01*
X148630344Y-111131088D01*
X148625499Y-111100495D01*
X148625499Y-110995722D01*
X148625498Y-110995720D01*
X148622645Y-110965300D01*
X148622645Y-110965296D01*
X148577792Y-110837113D01*
X148497149Y-110727845D01*
X148497145Y-110727842D01*
X148497143Y-110727840D01*
X148387882Y-110647202D01*
X148259702Y-110602350D01*
X148259693Y-110602348D01*
X148229273Y-110599495D01*
X148229265Y-110599495D01*
X148087978Y-110599495D01*
X148029787Y-110580588D01*
X147993823Y-110531088D01*
X147988978Y-110500563D01*
X147988288Y-109499563D01*
X148007155Y-109441359D01*
X148056630Y-109405362D01*
X148087288Y-109400495D01*
X148229273Y-109400495D01*
X148229273Y-109400494D01*
X148259699Y-109397641D01*
X148387882Y-109352788D01*
X148497150Y-109272145D01*
X148577793Y-109162877D01*
X148622646Y-109034694D01*
X148625499Y-109004268D01*
X148625500Y-109004268D01*
X148625500Y-108899495D01*
X148644407Y-108841304D01*
X148693907Y-108805340D01*
X148724500Y-108800495D01*
X149021771Y-108800495D01*
X149079962Y-108819402D01*
X149115926Y-108868902D01*
X149120771Y-108899495D01*
X149120771Y-109354270D01*
X149123624Y-109384690D01*
X149123626Y-109384699D01*
X149168478Y-109512879D01*
X149249116Y-109622140D01*
X149249118Y-109622142D01*
X149249121Y-109622146D01*
X149249124Y-109622148D01*
X149249126Y-109622150D01*
X149358387Y-109702788D01*
X149358388Y-109702788D01*
X149358389Y-109702789D01*
X149486572Y-109747642D01*
X149516996Y-109750495D01*
X149516998Y-109750496D01*
X149517005Y-109750496D01*
X150575544Y-109750496D01*
X150575544Y-109750495D01*
X150605970Y-109747642D01*
X150734153Y-109702789D01*
X150843421Y-109622146D01*
X150924064Y-109512878D01*
X150968917Y-109384695D01*
X150971770Y-109354269D01*
X150971771Y-109354269D01*
X150971771Y-108745723D01*
X150971770Y-108745721D01*
X150968917Y-108715301D01*
X150968917Y-108715297D01*
X150947217Y-108653282D01*
X150945844Y-108592112D01*
X150970655Y-108550582D01*
X151520497Y-108000741D01*
X151575013Y-107972965D01*
X151635445Y-107982536D01*
X151678710Y-108025801D01*
X151689500Y-108070746D01*
X151689500Y-108402557D01*
X151696118Y-108447979D01*
X151699427Y-108470692D01*
X151749875Y-108573884D01*
X151750802Y-108575780D01*
X151833517Y-108658495D01*
X151887285Y-108684780D01*
X151938604Y-108709869D01*
X151938605Y-108709869D01*
X151938607Y-108709870D01*
X152006740Y-108719797D01*
X152006743Y-108719797D01*
X152373257Y-108719797D01*
X152373260Y-108719797D01*
X152441393Y-108709870D01*
X152546483Y-108658495D01*
X152629198Y-108575780D01*
X152680573Y-108470690D01*
X152690500Y-108402557D01*
X152690500Y-106686037D01*
X152959500Y-106686037D01*
X152959500Y-108402557D01*
X152967441Y-108457063D01*
X152969427Y-108470691D01*
X152969428Y-108470693D01*
X153019876Y-108573885D01*
X153028447Y-108634466D01*
X153016673Y-108666863D01*
X152993608Y-108706814D01*
X152959500Y-108834108D01*
X152959500Y-108965892D01*
X152989579Y-109078151D01*
X152993609Y-109093190D01*
X153059496Y-109207309D01*
X153059498Y-109207311D01*
X153059500Y-109207314D01*
X153152686Y-109300500D01*
X153152688Y-109300501D01*
X153152690Y-109300503D01*
X153266810Y-109366390D01*
X153266808Y-109366390D01*
X153266812Y-109366391D01*
X153266814Y-109366392D01*
X153394108Y-109400500D01*
X153394110Y-109400500D01*
X153525890Y-109400500D01*
X153525892Y-109400500D01*
X153653186Y-109366392D01*
X153653188Y-109366390D01*
X153653190Y-109366390D01*
X153767309Y-109300503D01*
X153767309Y-109300502D01*
X153767314Y-109300500D01*
X153860500Y-109207314D01*
X153926392Y-109093186D01*
X153960500Y-108965892D01*
X153960500Y-108834108D01*
X153926392Y-108706814D01*
X153903327Y-108666865D01*
X153890606Y-108607019D01*
X153900124Y-108573885D01*
X153950573Y-108470690D01*
X153960500Y-108402557D01*
X153960500Y-106686037D01*
X153950573Y-106617904D01*
X153899198Y-106512814D01*
X153816483Y-106430099D01*
X153816481Y-106430098D01*
X153711395Y-106378724D01*
X153684139Y-106374753D01*
X153643260Y-106368797D01*
X153276740Y-106368797D01*
X153242673Y-106373760D01*
X153208604Y-106378724D01*
X153103518Y-106430098D01*
X153020801Y-106512815D01*
X152969427Y-106617901D01*
X152969427Y-106617904D01*
X152959500Y-106686037D01*
X152690500Y-106686037D01*
X152680573Y-106617904D01*
X152629198Y-106512814D01*
X152546483Y-106430099D01*
X152546481Y-106430098D01*
X152441395Y-106378724D01*
X152414139Y-106374753D01*
X152373260Y-106368797D01*
X152006740Y-106368797D01*
X151972673Y-106373760D01*
X151938604Y-106378724D01*
X151833518Y-106430098D01*
X151750801Y-106512815D01*
X151699427Y-106617901D01*
X151689500Y-106686040D01*
X151689500Y-107144797D01*
X151670593Y-107202988D01*
X151621093Y-107238952D01*
X151590500Y-107243797D01*
X151512406Y-107243797D01*
X151435982Y-107264275D01*
X151435978Y-107264277D01*
X151367462Y-107303835D01*
X150350797Y-108320500D01*
X150296280Y-108348277D01*
X150280793Y-108349496D01*
X149811749Y-108349496D01*
X149753558Y-108330589D01*
X149741746Y-108320500D01*
X149680779Y-108259534D01*
X149612261Y-108219975D01*
X149612257Y-108219973D01*
X149535833Y-108199495D01*
X149535831Y-108199495D01*
X148724500Y-108199495D01*
X148666309Y-108180588D01*
X148630345Y-108131088D01*
X148625500Y-108100495D01*
X148625500Y-107995722D01*
X148625499Y-107995720D01*
X148622646Y-107965300D01*
X148622646Y-107965296D01*
X148577793Y-107837113D01*
X148497150Y-107727845D01*
X148497146Y-107727842D01*
X148497144Y-107727840D01*
X148387883Y-107647202D01*
X148259703Y-107602350D01*
X148259694Y-107602348D01*
X148229274Y-107599495D01*
X148229266Y-107599495D01*
X148085911Y-107599495D01*
X148027720Y-107580588D01*
X147991756Y-107531088D01*
X147986911Y-107500563D01*
X147985395Y-105300001D01*
X152130002Y-105300001D01*
X152130002Y-105729203D01*
X152132851Y-105759600D01*
X152132851Y-105759602D01*
X152177655Y-105887647D01*
X152258208Y-105996790D01*
X152258210Y-105996792D01*
X152367353Y-106077345D01*
X152495399Y-106122149D01*
X152525790Y-106124999D01*
X152729999Y-106124999D01*
X152730001Y-106124998D01*
X152730001Y-105300001D01*
X152930001Y-105300001D01*
X152930001Y-106124998D01*
X152930002Y-106124999D01*
X153134204Y-106124999D01*
X153164601Y-106122149D01*
X153164603Y-106122149D01*
X153292648Y-106077345D01*
X153401791Y-105996792D01*
X153401793Y-105996790D01*
X153482346Y-105887647D01*
X153527150Y-105759601D01*
X153530000Y-105729211D01*
X153530001Y-105729210D01*
X153530001Y-105300001D01*
X153530000Y-105300000D01*
X152930002Y-105300000D01*
X152930001Y-105300001D01*
X152730001Y-105300001D01*
X152730000Y-105300000D01*
X152130003Y-105300000D01*
X152130002Y-105300001D01*
X147985395Y-105300001D01*
X147985367Y-105259061D01*
X147984962Y-104670788D01*
X152130001Y-104670788D01*
X152130001Y-105099999D01*
X152130002Y-105100000D01*
X152730000Y-105100000D01*
X152730001Y-105099999D01*
X152730001Y-104275001D01*
X152930001Y-104275001D01*
X152930001Y-105099999D01*
X152930002Y-105100000D01*
X153529999Y-105100000D01*
X153530000Y-105099999D01*
X153530000Y-104670796D01*
X153527150Y-104640399D01*
X153527150Y-104640397D01*
X153482346Y-104512352D01*
X153401793Y-104403209D01*
X153401791Y-104403207D01*
X153292648Y-104322654D01*
X153164602Y-104277850D01*
X153134212Y-104275000D01*
X152930002Y-104275000D01*
X152930001Y-104275001D01*
X152730001Y-104275001D01*
X152730000Y-104275000D01*
X152525797Y-104275000D01*
X152495400Y-104277850D01*
X152495398Y-104277850D01*
X152367353Y-104322654D01*
X152258210Y-104403207D01*
X152258208Y-104403209D01*
X152177655Y-104512352D01*
X152132851Y-104640398D01*
X152130001Y-104670788D01*
X147984962Y-104670788D01*
X147984960Y-104668550D01*
X147984570Y-104103145D01*
X148003437Y-104044942D01*
X148052912Y-104008944D01*
X148083497Y-104004077D01*
X154059069Y-103999960D01*
X154117272Y-104018827D01*
X154153269Y-104068302D01*
X154154762Y-104073336D01*
X154170422Y-104131780D01*
X154170423Y-104131781D01*
X154170424Y-104131784D01*
X154232171Y-104238734D01*
X154244892Y-104298582D01*
X154220005Y-104354477D01*
X154205222Y-104367888D01*
X154157856Y-104402845D01*
X154157846Y-104402855D01*
X154077208Y-104512116D01*
X154032356Y-104640296D01*
X154032354Y-104640305D01*
X154029501Y-104670725D01*
X154029501Y-105729274D01*
X154032354Y-105759694D01*
X154032356Y-105759703D01*
X154077208Y-105887883D01*
X154157846Y-105997144D01*
X154157848Y-105997146D01*
X154157851Y-105997150D01*
X154157854Y-105997152D01*
X154157856Y-105997154D01*
X154267117Y-106077792D01*
X154273675Y-106081258D01*
X154272491Y-106083497D01*
X154311877Y-106113484D01*
X154329500Y-106169865D01*
X154329500Y-106433108D01*
X154310593Y-106491299D01*
X154300506Y-106503109D01*
X154290802Y-106512813D01*
X154239427Y-106617901D01*
X154239427Y-106617904D01*
X154229500Y-106686037D01*
X154229500Y-108402557D01*
X154236118Y-108447979D01*
X154239427Y-108470692D01*
X154289875Y-108573884D01*
X154290802Y-108575780D01*
X154373517Y-108658495D01*
X154427285Y-108684780D01*
X154478604Y-108709869D01*
X154478605Y-108709869D01*
X154478607Y-108709870D01*
X154546740Y-108719797D01*
X154546743Y-108719797D01*
X154913257Y-108719797D01*
X154913260Y-108719797D01*
X154981393Y-108709870D01*
X155086483Y-108658495D01*
X155169198Y-108575780D01*
X155220573Y-108470690D01*
X155230500Y-108402557D01*
X155230500Y-106686037D01*
X155499500Y-106686037D01*
X155499500Y-108402557D01*
X155506118Y-108447979D01*
X155509427Y-108470692D01*
X155559875Y-108573884D01*
X155560802Y-108575780D01*
X155643517Y-108658495D01*
X155643978Y-108658720D01*
X155644387Y-108659116D01*
X155650194Y-108663262D01*
X155649572Y-108664132D01*
X155687953Y-108701262D01*
X155699500Y-108747662D01*
X155699500Y-109339564D01*
X155719978Y-109415988D01*
X155719980Y-109415992D01*
X155734626Y-109441359D01*
X155759540Y-109484511D01*
X158814247Y-112539218D01*
X158842023Y-112593733D01*
X158843242Y-112609220D01*
X158843242Y-115351679D01*
X158824335Y-115409870D01*
X158814251Y-115421676D01*
X158743242Y-115492686D01*
X158743239Y-115492689D01*
X158743238Y-115492690D01*
X158677351Y-115606809D01*
X158677350Y-115606814D01*
X158643242Y-115734108D01*
X158643242Y-115865892D01*
X158667381Y-115955981D01*
X158677351Y-115993190D01*
X158743238Y-116107309D01*
X158743240Y-116107311D01*
X158743242Y-116107314D01*
X158836428Y-116200500D01*
X158836430Y-116200501D01*
X158836432Y-116200503D01*
X158950552Y-116266390D01*
X158950550Y-116266390D01*
X158950554Y-116266391D01*
X158950556Y-116266392D01*
X159077850Y-116300500D01*
X159077852Y-116300500D01*
X159209632Y-116300500D01*
X159209634Y-116300500D01*
X159336928Y-116266392D01*
X159336930Y-116266390D01*
X159336932Y-116266390D01*
X159451051Y-116200503D01*
X159451051Y-116200502D01*
X159451056Y-116200500D01*
X159544242Y-116107314D01*
X159571804Y-116059576D01*
X159610132Y-115993190D01*
X159610132Y-115993188D01*
X159610134Y-115993186D01*
X159644242Y-115865892D01*
X159644242Y-115734108D01*
X159610134Y-115606814D01*
X159610132Y-115606811D01*
X159610132Y-115606809D01*
X159544245Y-115492690D01*
X159544243Y-115492688D01*
X159544242Y-115492686D01*
X159473236Y-115421680D01*
X159445461Y-115367166D01*
X159444242Y-115351679D01*
X159444242Y-114070944D01*
X161649500Y-114070944D01*
X161649500Y-114229058D01*
X161690423Y-114381785D01*
X161769480Y-114518717D01*
X161881284Y-114630521D01*
X162018216Y-114709578D01*
X162170943Y-114750501D01*
X162170945Y-114750501D01*
X162329055Y-114750501D01*
X162329057Y-114750501D01*
X162481784Y-114709578D01*
X162618716Y-114630521D01*
X162730520Y-114518717D01*
X162809577Y-114381785D01*
X162850500Y-114229058D01*
X162850500Y-114070944D01*
X162809577Y-113918217D01*
X162730520Y-113781285D01*
X162618716Y-113669481D01*
X162481784Y-113590424D01*
X162329057Y-113549501D01*
X162170943Y-113549501D01*
X162018216Y-113590424D01*
X161881284Y-113669481D01*
X161769480Y-113781285D01*
X161690423Y-113918217D01*
X161649500Y-114070944D01*
X159444242Y-114070944D01*
X159444242Y-112404181D01*
X159444241Y-112404177D01*
X159443254Y-112400495D01*
X159437310Y-112378309D01*
X159423764Y-112327754D01*
X159423761Y-112327748D01*
X159384205Y-112259235D01*
X159384204Y-112259234D01*
X159384203Y-112259233D01*
X159384202Y-112259231D01*
X156329496Y-109204525D01*
X156301719Y-109150008D01*
X156300500Y-109134521D01*
X156300500Y-108747662D01*
X156319407Y-108689471D01*
X156350108Y-108663686D01*
X156349806Y-108663262D01*
X156355197Y-108659412D01*
X156356020Y-108658720D01*
X156356483Y-108658495D01*
X156439198Y-108575780D01*
X156490573Y-108470690D01*
X156500500Y-108402557D01*
X156500500Y-106686037D01*
X156490573Y-106617904D01*
X156439198Y-106512814D01*
X156356483Y-106430099D01*
X156356481Y-106430098D01*
X156251395Y-106378724D01*
X156224139Y-106374753D01*
X156183260Y-106368797D01*
X155816740Y-106368797D01*
X155782673Y-106373760D01*
X155748604Y-106378724D01*
X155643518Y-106430098D01*
X155560801Y-106512815D01*
X155509427Y-106617901D01*
X155509427Y-106617904D01*
X155499500Y-106686037D01*
X155230500Y-106686037D01*
X155220573Y-106617904D01*
X155169198Y-106512814D01*
X155169195Y-106512811D01*
X155159494Y-106503109D01*
X155131718Y-106448592D01*
X155130500Y-106433108D01*
X155130500Y-106169865D01*
X155149407Y-106111674D01*
X155187447Y-106083385D01*
X155186324Y-106081259D01*
X155192877Y-106077794D01*
X155192883Y-106077793D01*
X155302151Y-105997150D01*
X155382794Y-105887882D01*
X155427647Y-105759699D01*
X155430500Y-105729273D01*
X155430501Y-105729273D01*
X155430501Y-104670727D01*
X155430500Y-104670725D01*
X155427647Y-104640305D01*
X155427647Y-104640301D01*
X155382794Y-104512118D01*
X155302414Y-104403207D01*
X155302155Y-104402855D01*
X155302153Y-104402853D01*
X155302151Y-104402850D01*
X155254777Y-104367887D01*
X155219186Y-104318121D01*
X155219644Y-104256937D01*
X155227829Y-104238737D01*
X155289578Y-104131784D01*
X155305487Y-104072409D01*
X155338808Y-104021098D01*
X155395929Y-103999171D01*
X155401015Y-103999035D01*
X159896468Y-103995938D01*
X159954672Y-104014805D01*
G37*
%TD.AperFunction*%
%TD*%
M02*
