M48
; DRILL file KiCad 10.0.1 date 2026-08-09T13:27:48
; FORMAT={-:-/ absolute / inch / decimal}
; #@! TF.CreationDate,2026-08-09T13:27:48+02:00
; #@! TF.GenerationSoftware,Kicad,Pcbnew,10.0.1
; #@! TF.FileFunction,Plated,1,4,PTH
FMAT,2
INCH
; #@! TA.AperFunction,Plated,PTH,ComponentDrill
T1C0.0079
; #@! TA.AperFunction,Plated,PTH,ViaDrill
T2C0.0118
; #@! TA.AperFunction,Plated,PTH,ViaDrill
T3C0.0157
; #@! TA.AperFunction,Plated,PTH,ComponentDrill
T4C0.0236
; #@! TA.AperFunction,Plated,PTH,ComponentDrill
T5C0.0394
; #@! TA.AperFunction,Plated,PTH,ComponentDrill
T6C0.0472
; #@! TA.AperFunction,Plated,PTH,ComponentDrill
T7C0.1260
; #@! TA.AperFunction,Plated,PTH,ComponentDrill
T8C0.1693
%
G90
G05
T1
X7.2874Y-4.9283
X7.2874Y-4.9835
X7.315Y-4.9008
X7.315Y-4.9559
X7.315Y-5.011
X7.3425Y-4.9283
X7.3425Y-4.9835
X7.3701Y-4.9008
X7.3701Y-4.9559
X7.3701Y-5.011
X7.3976Y-4.9283
X7.3976Y-4.9835
T2
X5.878Y-4.7795
X5.8784Y-4.8248
X5.8821Y-4.5496
X5.9197Y-4.5496
X5.9488Y-4.7677
X5.9635Y-4.1416
X5.9724Y-4.7283
X5.9743Y-4.9537
X6.002Y-5.2126
X6.0413Y-4.5043
X6.0421Y-4.3007
X6.0787Y-4.5512
X6.0827Y-4.748
X6.0828Y-4.7797
X6.0945Y-4.5039
X6.1102Y-4.6654
X6.1417Y-4.5039
X6.1457Y-4.8177
X6.234Y-4.5591
X6.2402Y-4.2913
X6.2402Y-4.3307
X6.2655Y-4.5591
X6.3178Y-4.4946
X6.3543Y-4.689
X6.5512Y-4.739
X6.5512Y-4.789
X6.622Y-3.8386
X6.6575Y-3.8386
X6.8937Y-4.6098
X6.9573Y-3.4763
X6.9573Y-3.7164
X6.9882Y-4.8098
X6.9882Y-5.0599
X6.9882Y-5.1098
X6.9882Y-5.1598
X6.9882Y-5.2099
X7.189Y-4.3557
X7.2618Y-5.126
X7.3366Y-5.126
X7.372Y-3.7835
X7.4803Y-3.7317
X7.5787Y-5.0598
X7.5787Y-5.1098
X7.5787Y-5.1602
X7.9331Y-4.1339
X7.9331Y-4.3307
X7.9843Y-4.5787
X8.0827Y-4.563
T3
X4.811Y-4.2008
X4.8189Y-4.3701
X5.7047Y-3.5157
X5.8012Y-3.724
X5.8406Y-3.724
X5.979Y-4.0155
X6.0039Y-4.5472
X6.0098Y-3.9094
X6.1378Y-4.1417
X6.1535Y-4.0433
X6.1673Y-3.843
X6.1988Y-5.2503
X6.2559Y-3.7795
X6.311Y-4.8819
X6.3168Y-4.957
X6.3839Y-4.9213
X6.3878Y-4.4941
X6.437Y-4.689
X6.4606Y-3.7795
X6.4646Y-3.5238
X6.4764Y-4.4941
X6.4973Y-4.9685
X6.6874Y-3.6772
X6.6929Y-4.9685
X6.7382Y-3.4252
X6.752Y-4.689
X6.7664Y-4.8738
X6.8296Y-4.0238
X6.8876Y-3.5275
X6.9762Y-3.5587
X6.9882Y-5.2598
X7.0173Y-4.0925
X7.0452Y-3.679
X7.0924Y-3.8428
X7.0945Y-4.4055
X7.1929Y-5.1378
X7.1929Y-5.2362
X7.2402Y-4.2461
X7.2618Y-5.2697
X7.3012Y-3.8903
X7.311Y-4.1654
X7.3366Y-5.2697
X7.3858Y-3.6693
X7.4247Y-4.1171
X7.435Y-5.2697
X7.5118Y-5.2697
X7.5516Y-4.2338
X7.5748Y-3.6693
X7.5787Y-5.2598
X7.6772Y-3.8898
X7.7405Y-5.0996
X7.8187Y-5.2465
X7.82Y-5.0996
X7.8543Y-3.5157
X7.9449Y-4.8346
X7.9449Y-4.9339
X8.0006Y-4.6885
X8.0787Y-4.2244
X8.0787Y-4.4213
X8.1014Y-4.6893
X8.2087Y-4.1339
X8.2087Y-4.3307
X8.2126Y-3.7894
X8.2126Y-3.876
T5
X5.8195Y-5.2126
X5.9195Y-5.2126
X6.1508Y-3.4252
X6.2508Y-3.4252
X6.3508Y-3.4252
X6.4508Y-3.4252
X6.4929Y-5.2441
X6.5929Y-5.2441
X6.6929Y-5.2441
X8.06Y-4.8345
X8.06Y-4.9345
X8.16Y-4.8345
X8.16Y-4.9345
T6
X5.2195Y-5.2126
X5.5195Y-5.2126
T7
X4.4882Y-3.5039
X4.4882Y-5.1575
X8.1102Y-3.5039
X8.1102Y-5.1575
T8
X4.6228Y-3.9567
X4.6228Y-4.7067
X5.3728Y-3.9567
X5.3728Y-4.7067
T4
G00X7.31Y-3.4449
M15
G01X7.31Y-3.4134
M16
G05
G00X7.31Y-3.615
M15
G01X7.31Y-3.5717
M16
G05
G00X7.6506Y-3.4449
M15
G01X7.6506Y-3.4134
M16
G05
G00X7.6506Y-3.615
M15
G01X7.6506Y-3.5717
M16
G05
M30
