%TF.GenerationSoftware,KiCad,Pcbnew,10.0.1*%
%TF.CreationDate,2026-08-09T13:27:48+02:00*%
%TF.ProjectId,psu-ext,7073752d-6578-4742-9e6b-696361645f70,1.2.0*%
%TF.SameCoordinates,Original*%
%TF.FileFunction,Paste,Bot*%
%TF.FilePolarity,Positive*%
%FSLAX46Y46*%
G04 Gerber Fmt 4.6, Leading zero omitted, Abs format (unit mm)*
G04 Created by KiCad (PCBNEW 10.0.1) date 2026-08-09 13:27:48*
%MOMM*%
%LPD*%
G01*
G04 APERTURE LIST*
G04 Aperture macros list*
%AMRoundRect*
0 Rectangle with rounded corners*
0 $1 Rounding radius*
0 $2 $3 $4 $5 $6 $7 $8 $9 X,Y pos of 4 corners*
0 Add a 4 corners polygon primitive as box body*
4,1,4,$2,$3,$4,$5,$6,$7,$8,$9,$2,$3,0*
0 Add four circle primitives for the rounded corners*
1,1,$1+$1,$2,$3*
1,1,$1+$1,$4,$5*
1,1,$1+$1,$6,$7*
1,1,$1+$1,$8,$9*
0 Add four rect primitives between the rounded corners*
20,1,$1+$1,$2,$3,$4,$5,0*
20,1,$1+$1,$4,$5,$6,$7,0*
20,1,$1+$1,$6,$7,$8,$9,0*
20,1,$1+$1,$8,$9,$2,$3,0*%
G04 Aperture macros list end*
%ADD10RoundRect,0.250000X0.262500X0.450000X-0.262500X0.450000X-0.262500X-0.450000X0.262500X-0.450000X0*%
%ADD11RoundRect,0.250000X-0.512652X-0.159099X-0.159099X-0.512652X0.512652X0.159099X0.159099X0.512652X0*%
%ADD12RoundRect,0.250000X-0.450000X0.262500X-0.450000X-0.262500X0.450000X-0.262500X0.450000X0.262500X0*%
%ADD13RoundRect,0.250000X-0.250000X-0.475000X0.250000X-0.475000X0.250000X0.475000X-0.250000X0.475000X0*%
%ADD14RoundRect,0.250000X-0.475000X0.250000X-0.475000X-0.250000X0.475000X-0.250000X0.475000X0.250000X0*%
%ADD15RoundRect,0.250000X0.400000X0.600000X-0.400000X0.600000X-0.400000X-0.600000X0.400000X-0.600000X0*%
%ADD16RoundRect,0.150000X0.587500X0.150000X-0.587500X0.150000X-0.587500X-0.150000X0.587500X-0.150000X0*%
%ADD17RoundRect,0.250000X0.132583X-0.503814X0.503814X-0.132583X-0.132583X0.503814X-0.503814X0.132583X0*%
%ADD18RoundRect,0.250000X0.512652X0.159099X0.159099X0.512652X-0.512652X-0.159099X-0.159099X-0.512652X0*%
%ADD19RoundRect,0.250000X-0.262500X-0.450000X0.262500X-0.450000X0.262500X0.450000X-0.262500X0.450000X0*%
%ADD20RoundRect,0.150000X-0.247487X-0.035355X-0.035355X-0.247487X0.247487X0.035355X0.035355X0.247487X0*%
%ADD21RoundRect,0.250000X1.000000X0.900000X-1.000000X0.900000X-1.000000X-0.900000X1.000000X-0.900000X0*%
%ADD22RoundRect,0.250000X0.450000X-0.262500X0.450000X0.262500X-0.450000X0.262500X-0.450000X-0.262500X0*%
G04 APERTURE END LIST*
D10*
%TO.C,R41*%
X159612500Y-131449996D03*
X157787500Y-131449996D03*
%TD*%
D11*
%TO.C,C14*%
X202900000Y-109999995D03*
X204243502Y-111343497D03*
%TD*%
%TO.C,C16*%
X202900000Y-104999996D03*
X204243502Y-106343498D03*
%TD*%
D12*
%TO.C,R25*%
X152506813Y-116449262D03*
X152506813Y-118274262D03*
%TD*%
D10*
%TO.C,R36*%
X132912500Y-106000000D03*
X131087500Y-106000000D03*
%TD*%
D13*
%TO.C,C6*%
X161309999Y-89504909D03*
X163209999Y-89504909D03*
%TD*%
D12*
%TO.C,R23*%
X162250000Y-115287501D03*
X162250000Y-117112501D03*
%TD*%
D14*
%TO.C,C15*%
X190799999Y-131049995D03*
X190799999Y-132949995D03*
%TD*%
D13*
%TO.C,C27*%
X119475000Y-110999995D03*
X121375000Y-110999995D03*
%TD*%
%TO.C,C30*%
X135850000Y-131699995D03*
X137750000Y-131699995D03*
%TD*%
D15*
%TO.C,D12*%
X150800000Y-129699996D03*
X147300000Y-129699996D03*
%TD*%
D16*
%TO.C,Q1*%
X155600000Y-131449996D03*
X155600000Y-133349996D03*
X153725000Y-132399996D03*
%TD*%
D17*
%TO.C,R12*%
X167460000Y-130645231D03*
X168750470Y-129354761D03*
%TD*%
D18*
%TO.C,C24*%
X156614626Y-117805649D03*
X155271124Y-116462147D03*
%TD*%
D12*
%TO.C,R9*%
X184450000Y-131049995D03*
X184450000Y-132874995D03*
%TD*%
D10*
%TO.C,R33*%
X129512500Y-125000000D03*
X127687500Y-125000000D03*
%TD*%
D17*
%TO.C,R11*%
X170000000Y-130845230D03*
X171290470Y-129554760D03*
%TD*%
D12*
%TO.C,R24*%
X164500000Y-115287500D03*
X164500000Y-117112500D03*
%TD*%
D17*
%TO.C,R31*%
X120200000Y-108699996D03*
X121490470Y-107409526D03*
%TD*%
%TO.C,R27*%
X157854765Y-119045235D03*
X159145235Y-117754765D03*
%TD*%
D19*
%TO.C,R42*%
X134025001Y-129699996D03*
X135850001Y-129699996D03*
%TD*%
D10*
%TO.C,R37*%
X129512500Y-106000000D03*
X127687500Y-106000000D03*
%TD*%
D19*
%TO.C,R38*%
X125787500Y-104100000D03*
X127612500Y-104100000D03*
%TD*%
D12*
%TO.C,R14*%
X183900000Y-108809995D03*
X183900000Y-110634995D03*
%TD*%
D20*
%TO.C,D5*%
X207265000Y-120599995D03*
X206275050Y-119610045D03*
%TD*%
D21*
%TO.C,D10*%
X129149999Y-100499996D03*
X124849999Y-100499996D03*
%TD*%
D22*
%TO.C,R10*%
X188850000Y-132874995D03*
X188850000Y-131049995D03*
%TD*%
D19*
%TO.C,R6*%
X179787500Y-132999996D03*
X181612500Y-132999996D03*
%TD*%
D22*
%TO.C,R26*%
X150351032Y-120099262D03*
X150351032Y-118274262D03*
%TD*%
D12*
%TO.C,R8*%
X186349999Y-131049995D03*
X186349999Y-132874995D03*
%TD*%
D10*
%TO.C,R32*%
X132912500Y-125000000D03*
X131087500Y-125000000D03*
%TD*%
D20*
%TO.C,D6*%
X204725000Y-120599995D03*
X203735050Y-119610045D03*
%TD*%
D19*
%TO.C,R7*%
X179787500Y-130499996D03*
X181612500Y-130499996D03*
%TD*%
%TO.C,R34*%
X125862500Y-123100000D03*
X127687500Y-123100000D03*
%TD*%
M02*
