%TF.GenerationSoftware,KiCad,Pcbnew,10.0.6*%
%TF.CreationDate,2026-09-09T20:23:59+02:00*%
%TF.ProjectId,psu-ext,7073752d-6578-4742-9e6b-696361645f70,1.3.0*%
%TF.SameCoordinates,Original*%
%TF.FileFunction,Soldermask,Bot*%
%TF.FilePolarity,Negative*%
%FSLAX46Y46*%
G04 Gerber Fmt 4.6, Leading zero omitted, Abs format (unit mm)*
G04 Created by KiCad (PCBNEW 10.0.6) date 2026-09-09 20:23:59*
%MOMM*%
%LPD*%
G01*
G04 APERTURE LIST*
G04 Aperture macros list*
%AMRoundRect*
0 Rectangle with rounded corners*
0 $1 Rounding radius*
0 $2 $3 $4 $5 $6 $7 $8 $9 X,Y pos of 4 corners*
0 Add a 4 corners polygon primitive as box body*
4,1,4,$2,$3,$4,$5,$6,$7,$8,$9,$2,$3,0*
0 Add four circle primitives for the rounded corners*
1,1,$1+$1,$2,$3*
1,1,$1+$1,$4,$5*
1,1,$1+$1,$6,$7*
1,1,$1+$1,$8,$9*
0 Add four rect primitives between the rounded corners*
20,1,$1+$1,$2,$3,$4,$5,0*
20,1,$1+$1,$4,$5,$6,$7,0*
20,1,$1+$1,$6,$7,$8,$9,0*
20,1,$1+$1,$8,$9,$2,$3,0*%
G04 Aperture macros list end*
%ADD10RoundRect,0.250000X0.262500X0.450000X-0.262500X0.450000X-0.262500X-0.450000X0.262500X-0.450000X0*%
%ADD11RoundRect,0.102000X0.754000X0.754000X-0.754000X0.754000X-0.754000X-0.754000X0.754000X-0.754000X0*%
%ADD12C,1.712000*%
%ADD13C,2.004000*%
%ADD14R,1.700000X1.700000*%
%ADD15C,1.700000*%
%ADD16C,1.300000*%
%ADD17C,5.700000*%
%ADD18C,0.600000*%
%ADD19O,1.104000X2.204000*%
%ADD20O,1.104000X1.904000*%
%ADD21C,7.600000*%
%ADD22RoundRect,0.250000X0.250000X0.475000X-0.250000X0.475000X-0.250000X-0.475000X0.250000X-0.475000X0*%
%ADD23RoundRect,0.250000X0.475000X-0.250000X0.475000X0.250000X-0.475000X0.250000X-0.475000X-0.250000X0*%
%ADD24RoundRect,0.250000X-0.512652X-0.159099X-0.159099X-0.512652X0.512652X0.159099X0.159099X0.512652X0*%
%ADD25RoundRect,0.250000X-0.450000X0.262500X-0.450000X-0.262500X0.450000X-0.262500X0.450000X0.262500X0*%
%ADD26RoundRect,0.250000X-0.250000X-0.475000X0.250000X-0.475000X0.250000X0.475000X-0.250000X0.475000X0*%
%ADD27RoundRect,0.250000X-0.475000X0.250000X-0.475000X-0.250000X0.475000X-0.250000X0.475000X0.250000X0*%
%ADD28C,1.500000*%
%ADD29RoundRect,0.150000X-0.035355X0.247487X-0.247487X0.035355X0.035355X-0.247487X0.247487X-0.035355X0*%
%ADD30RoundRect,0.250000X0.400000X0.600000X-0.400000X0.600000X-0.400000X-0.600000X0.400000X-0.600000X0*%
%ADD31RoundRect,0.250000X0.132583X-0.503814X0.503814X-0.132583X-0.132583X0.503814X-0.503814X0.132583X0*%
%ADD32RoundRect,0.150000X0.587500X0.150000X-0.587500X0.150000X-0.587500X-0.150000X0.587500X-0.150000X0*%
%ADD33RoundRect,0.150000X0.512500X0.150000X-0.512500X0.150000X-0.512500X-0.150000X0.512500X-0.150000X0*%
%ADD34RoundRect,0.150000X-0.512500X-0.150000X0.512500X-0.150000X0.512500X0.150000X-0.512500X0.150000X0*%
%ADD35RoundRect,0.150000X-0.150000X0.825000X-0.150000X-0.825000X0.150000X-0.825000X0.150000X0.825000X0*%
%ADD36RoundRect,0.250000X-0.262500X-0.450000X0.262500X-0.450000X0.262500X0.450000X-0.262500X0.450000X0*%
%ADD37RoundRect,0.250000X0.450000X-0.262500X0.450000X0.262500X-0.450000X0.262500X-0.450000X-0.262500X0*%
%ADD38RoundRect,0.250000X1.000000X0.900000X-1.000000X0.900000X-1.000000X-0.900000X1.000000X-0.900000X0*%
%ADD39RoundRect,0.150000X-0.150000X-0.200000X0.150000X-0.200000X0.150000X0.200000X-0.150000X0.200000X0*%
%ADD40RoundRect,0.150000X0.247487X0.035355X0.035355X0.247487X-0.247487X-0.035355X-0.035355X-0.247487X0*%
%ADD41RoundRect,0.150000X0.200000X-0.150000X0.200000X0.150000X-0.200000X0.150000X-0.200000X-0.150000X0*%
G04 APERTURE END LIST*
D10*
%TO.C,R13*%
X189687500Y-125000000D03*
X191512500Y-125000000D03*
%TD*%
D11*
%TO.C,K1*%
X150355000Y-132400000D03*
D12*
X147815000Y-132400000D03*
D13*
X140195000Y-132400000D03*
X132575000Y-132400000D03*
%TD*%
D14*
%TO.C,J2*%
X207275000Y-122079999D03*
D15*
X204735000Y-122079999D03*
X207275000Y-119539999D03*
X204735000Y-119539999D03*
X207275000Y-116999999D03*
X204735000Y-116999999D03*
%TD*%
D16*
%TO.C,H7*%
X122075000Y-132900000D03*
%TD*%
D17*
%TO.C,H3*%
X114000003Y-130999997D03*
%TD*%
%TO.C,H1*%
X206000000Y-130999996D03*
%TD*%
D16*
%TO.C,H6*%
X123999999Y-87200000D03*
%TD*%
D17*
%TO.C,H2*%
X206000000Y-88999996D03*
%TD*%
D11*
%TO.C,PS1*%
X163850000Y-86999995D03*
D12*
X161310000Y-86999995D03*
X158770000Y-86999995D03*
X156230000Y-86999996D03*
%TD*%
D18*
%TO.C,J1*%
X192890000Y-90779995D03*
X187109998Y-90779995D03*
D19*
X194324999Y-91269995D03*
X185674999Y-91269995D03*
D20*
X194324999Y-87099995D03*
X185674999Y-87099995D03*
%TD*%
D14*
%TO.C,J3*%
X169999999Y-133199995D03*
D15*
X167459999Y-133199995D03*
X164919999Y-133199995D03*
%TD*%
D16*
%TO.C,H5*%
X207800000Y-101600000D03*
%TD*%
D21*
%TO.C,H10*%
X117420000Y-100499996D03*
%TD*%
%TO.C,H11*%
X117420000Y-119549995D03*
%TD*%
D17*
%TO.C,H4*%
X114000003Y-88999995D03*
%TD*%
D21*
%TO.C,H8*%
X136470000Y-100499995D03*
%TD*%
%TO.C,H9*%
X136470000Y-119549996D03*
%TD*%
D22*
%TO.C,C35*%
X163520000Y-118879999D03*
X161620000Y-118879999D03*
%TD*%
D10*
%TO.C,R36*%
X131725000Y-125300000D03*
X129900000Y-125300000D03*
%TD*%
D23*
%TO.C,C32*%
X149100000Y-122600001D03*
X149100000Y-120700001D03*
%TD*%
D10*
%TO.C,R39*%
X130412500Y-107712500D03*
X128587500Y-107712500D03*
%TD*%
%TO.C,R33*%
X159612500Y-131449996D03*
X157787500Y-131449996D03*
%TD*%
D24*
%TO.C,C15*%
X202900000Y-109999995D03*
X204243502Y-111343497D03*
%TD*%
%TO.C,C17*%
X202900000Y-104999996D03*
X204243502Y-106343498D03*
%TD*%
D25*
%TO.C,R40*%
X126450000Y-121687500D03*
X126450000Y-123512500D03*
%TD*%
D26*
%TO.C,C6*%
X161309999Y-89504909D03*
X163209999Y-89504909D03*
%TD*%
D27*
%TO.C,C37*%
X157300000Y-120900000D03*
X157300000Y-122800000D03*
%TD*%
%TO.C,C16*%
X190799999Y-131049995D03*
X190799999Y-132949995D03*
%TD*%
D28*
%TO.C,TP2*%
X178000000Y-87000000D03*
%TD*%
D26*
%TO.C,C25*%
X119475000Y-110999995D03*
X121375000Y-110999995D03*
%TD*%
%TO.C,C29*%
X135850000Y-131699995D03*
X137750000Y-131699995D03*
%TD*%
D29*
%TO.C,D7*%
X207105025Y-114494975D03*
X208094975Y-113505025D03*
%TD*%
D30*
%TO.C,D15*%
X150800000Y-129699996D03*
X147300000Y-129699996D03*
%TD*%
D31*
%TO.C,R17*%
X198754765Y-118645235D03*
X200045235Y-117354765D03*
%TD*%
D32*
%TO.C,Q1*%
X155600000Y-131449996D03*
X155600000Y-133349996D03*
X153725000Y-132399996D03*
%TD*%
D31*
%TO.C,R22*%
X170104765Y-130395235D03*
X171395235Y-129104765D03*
%TD*%
D33*
%TO.C,U9*%
X159100000Y-105644298D03*
X159100000Y-106594298D03*
X159100000Y-107544298D03*
X156825000Y-107544298D03*
X156825000Y-105644298D03*
%TD*%
D34*
%TO.C,U12*%
X161244999Y-122579998D03*
X161244999Y-121629998D03*
X161244999Y-120679998D03*
X163519999Y-120679998D03*
X163519999Y-121629998D03*
X163519999Y-122579998D03*
%TD*%
D23*
%TO.C,C31*%
X124800000Y-107712501D03*
X124800000Y-105812501D03*
%TD*%
D25*
%TO.C,R11*%
X184450000Y-131049995D03*
X184450000Y-132874995D03*
%TD*%
D10*
%TO.C,R43*%
X154285000Y-124750000D03*
X152460000Y-124750000D03*
%TD*%
D31*
%TO.C,R21*%
X171454765Y-131745235D03*
X172745235Y-130454765D03*
%TD*%
%TO.C,R29*%
X120200000Y-108699996D03*
X121490470Y-107409526D03*
%TD*%
D35*
%TO.C,U11*%
X151190000Y-117600000D03*
X152460000Y-117600000D03*
X153730000Y-117600000D03*
X155000000Y-117600000D03*
X155000000Y-122550000D03*
X153730000Y-122550000D03*
X152460000Y-122550000D03*
X151190000Y-122550000D03*
%TD*%
D36*
%TO.C,R35*%
X134025001Y-129699996D03*
X135850001Y-129699996D03*
%TD*%
D25*
%TO.C,R30*%
X157100000Y-101599999D03*
X157100000Y-103424999D03*
%TD*%
D10*
%TO.C,R12*%
X191512500Y-127247680D03*
X189687500Y-127247680D03*
%TD*%
%TO.C,R38*%
X128275000Y-125300000D03*
X126450000Y-125300000D03*
%TD*%
D25*
%TO.C,R20*%
X183900000Y-108809995D03*
X183900000Y-110634995D03*
%TD*%
D37*
%TO.C,R31*%
X159100000Y-103424999D03*
X159100000Y-101599999D03*
%TD*%
D38*
%TO.C,D13*%
X129149999Y-100499996D03*
X124849999Y-100499996D03*
%TD*%
D39*
%TO.C,D9*%
X202800000Y-119539999D03*
X201400000Y-119539999D03*
%TD*%
D37*
%TO.C,R18*%
X188850000Y-132874995D03*
X188850000Y-131049995D03*
%TD*%
D27*
%TO.C,C38*%
X159300000Y-120900000D03*
X159300000Y-122800000D03*
%TD*%
D36*
%TO.C,R6*%
X179787500Y-132999996D03*
X181612500Y-132999996D03*
%TD*%
D22*
%TO.C,C36*%
X164269999Y-124379999D03*
X162369999Y-124379999D03*
%TD*%
D25*
%TO.C,R10*%
X186349999Y-131049995D03*
X186349999Y-132874995D03*
%TD*%
%TO.C,R41*%
X126800000Y-105887500D03*
X126800000Y-107712500D03*
%TD*%
D10*
%TO.C,R37*%
X133862500Y-107712500D03*
X132037500Y-107712500D03*
%TD*%
D31*
%TO.C,R16*%
X196754765Y-116545235D03*
X198045235Y-115254765D03*
%TD*%
D27*
%TO.C,C26*%
X154730001Y-105644298D03*
X154730001Y-107544298D03*
%TD*%
D37*
%TO.C,R42*%
X159300000Y-119362500D03*
X159300000Y-117537500D03*
%TD*%
D40*
%TO.C,D6*%
X207275000Y-124705025D03*
X208264950Y-125694975D03*
%TD*%
D41*
%TO.C,D8*%
X202400000Y-116000000D03*
X202400000Y-117400000D03*
%TD*%
D36*
%TO.C,R7*%
X179787500Y-130499996D03*
X181612500Y-130499996D03*
%TD*%
%TO.C,R15*%
X198987500Y-127700000D03*
X200812500Y-127700000D03*
%TD*%
D23*
%TO.C,C30*%
X124450000Y-123512501D03*
X124450000Y-121612501D03*
%TD*%
M02*
