%TF.GenerationSoftware,KiCad,Pcbnew,10.0.1*%
%TF.CreationDate,2026-08-09T13:27:48+02:00*%
%TF.ProjectId,psu-ext,7073752d-6578-4742-9e6b-696361645f70,1.2.0*%
%TF.SameCoordinates,Original*%
%TF.FileFunction,Copper,L2,Inr*%
%TF.FilePolarity,Positive*%
%FSLAX46Y46*%
G04 Gerber Fmt 4.6, Leading zero omitted, Abs format (unit mm)*
G04 Created by KiCad (PCBNEW 10.0.1) date 2026-08-09 13:27:48*
%MOMM*%
%LPD*%
G01*
G04 APERTURE LIST*
%TA.AperFunction,ComponentPad*%
%ADD10R,1.508000X1.508000*%
%TD*%
%TA.AperFunction,ComponentPad*%
%ADD11C,1.508000*%
%TD*%
%TA.AperFunction,ComponentPad*%
%ADD12C,1.800000*%
%TD*%
%TA.AperFunction,ComponentPad*%
%ADD13R,1.700000X1.700000*%
%TD*%
%TA.AperFunction,ComponentPad*%
%ADD14C,1.700000*%
%TD*%
%TA.AperFunction,HeatsinkPad*%
%ADD15C,0.600000*%
%TD*%
%TA.AperFunction,ComponentPad*%
%ADD16C,5.700000*%
%TD*%
%TA.AperFunction,ComponentPad*%
%ADD17O,0.900000X2.000000*%
%TD*%
%TA.AperFunction,ComponentPad*%
%ADD18O,0.900000X1.700000*%
%TD*%
%TA.AperFunction,ComponentPad*%
%ADD19C,7.600000*%
%TD*%
%TA.AperFunction,ViaPad*%
%ADD20C,0.800000*%
%TD*%
%TA.AperFunction,ViaPad*%
%ADD21C,0.600000*%
%TD*%
G04 APERTURE END LIST*
D10*
%TO.N,VUSB*%
%TO.C,K1*%
X150355000Y-132400000D03*
D11*
%TO.N,Net-(D11-K)*%
X147815000Y-132400000D03*
D12*
%TO.N,/FrontEnd/SNT_N*%
X140195000Y-132400000D03*
%TO.N,/FrontEnd/LOAD_P*%
X132575000Y-132400000D03*
%TD*%
D13*
%TO.N,Net-(D6-K)*%
%TO.C,J4*%
X204725000Y-122796902D03*
D14*
%TO.N,Net-(D5-K)*%
X207265000Y-122796902D03*
%TO.N,GND*%
X204725000Y-125336902D03*
X207265000Y-125336902D03*
%TD*%
D15*
%TO.N,GND*%
%TO.C,U5*%
X187900000Y-126579995D03*
X187900000Y-125179995D03*
X187200000Y-127279995D03*
X187200000Y-125879995D03*
X187200000Y-124479995D03*
X186500000Y-126579995D03*
X186500000Y-125179995D03*
X185800000Y-127279995D03*
X185800000Y-125879995D03*
X185800000Y-124479995D03*
X185100000Y-126579995D03*
X185100000Y-125179995D03*
%TD*%
D16*
%TO.N,GNDS*%
%TO.C,H7*%
X114000003Y-130999997D03*
%TD*%
%TO.N,GND*%
%TO.C,H5*%
X206000000Y-130999996D03*
%TD*%
%TO.N,GND*%
%TO.C,H6*%
X206000000Y-88999996D03*
%TD*%
D10*
%TO.N,GND*%
%TO.C,PS1*%
X163850000Y-86999995D03*
D11*
%TO.N,VUSB*%
X161310000Y-86999995D03*
%TO.N,GNDS*%
X158770000Y-86999995D03*
%TO.N,V5-F*%
X156230000Y-86999996D03*
%TD*%
D17*
%TO.N,GND*%
%TO.C,J1*%
X194324999Y-91269995D03*
X185674999Y-91269995D03*
D18*
X194324999Y-87099995D03*
X185674999Y-87099995D03*
%TD*%
D13*
%TO.N,Net-(J2-Pin_1)*%
%TO.C,J2*%
X169999999Y-133199995D03*
D14*
%TO.N,Net-(J2-Pin_2)*%
X167459999Y-133199995D03*
%TO.N,GND*%
X164919999Y-133199995D03*
%TD*%
D19*
%TO.N,/FrontEnd/PGND*%
%TO.C,H4*%
X117420000Y-100499996D03*
%TD*%
%TO.N,/FrontEnd/PGND*%
%TO.C,H3*%
X117420000Y-119549995D03*
%TD*%
D16*
%TO.N,GNDS*%
%TO.C,H8*%
X114000003Y-88999995D03*
%TD*%
D19*
%TO.N,/FrontEnd/PSU_P*%
%TO.C,H2*%
X136470000Y-100499995D03*
%TD*%
%TO.N,/FrontEnd/LOAD_P*%
%TO.C,H1*%
X136470000Y-119549996D03*
%TD*%
D20*
%TO.N,V3.3*%
X170000000Y-126200000D03*
D21*
X168200000Y-97499995D03*
D20*
X188587500Y-104574053D03*
X182700000Y-132999995D03*
D21*
X169100000Y-97499995D03*
D20*
X184449999Y-133849995D03*
X183900000Y-107849997D03*
X188850000Y-133849995D03*
X182700000Y-130499995D03*
X186349999Y-133849995D03*
X198595496Y-133259932D03*
X191809396Y-107537496D03*
%TO.N,GND*%
X157449449Y-133356593D03*
X198628638Y-129529996D03*
X180145826Y-97608345D03*
D21*
X190000000Y-94786342D03*
D20*
X190800000Y-133849995D03*
X171499999Y-119100000D03*
X201800000Y-122799996D03*
X196609573Y-129529995D03*
X164201163Y-89504909D03*
X178948293Y-93447301D03*
X171865383Y-123795510D03*
X208600000Y-96249996D03*
X180200000Y-111899995D03*
X199500000Y-89299996D03*
X208600001Y-98449995D03*
X205200000Y-112299995D03*
X177500000Y-133599996D03*
X173473014Y-102205019D03*
X192500000Y-133599996D03*
X195000000Y-98799996D03*
X177195545Y-90391366D03*
X174944358Y-89597300D03*
X203214315Y-119086891D03*
X185700000Y-105799996D03*
X201800000Y-125321901D03*
X178240000Y-103949996D03*
X208500000Y-109999995D03*
X208499999Y-104999996D03*
X205774295Y-119107960D03*
X171150000Y-86999996D03*
X185450000Y-98812494D03*
X164100000Y-96000000D03*
X205199999Y-107299995D03*
%TO.N,VUSB*%
X169860000Y-93399996D03*
D21*
%TO.N,SDA*%
X177500000Y-132332425D03*
%TO.N,SCL*%
X177500000Y-131059996D03*
%TO.N,GNDS*%
X158500000Y-109000000D03*
X153449824Y-114409461D03*
X151473403Y-105197285D03*
D20*
X122400000Y-111000000D03*
D21*
X149312448Y-122548945D03*
X154502355Y-121404624D03*
D20*
X156649016Y-97612495D03*
X152649016Y-99300000D03*
X160447627Y-125908142D03*
X162150000Y-124999996D03*
D21*
X158343739Y-115800000D03*
X160473157Y-114162631D03*
X156000000Y-114400000D03*
X154400000Y-115600000D03*
X149300000Y-121400000D03*
D20*
X158900000Y-96000000D03*
D21*
X161400000Y-119100000D03*
X154800000Y-114400000D03*
D20*
X144900000Y-89300000D03*
D21*
X153470537Y-109238898D03*
X155200000Y-118500000D03*
X158500000Y-110000000D03*
D20*
X122200000Y-106699996D03*
D21*
X151100000Y-121100000D03*
X149405923Y-115560515D03*
D20*
X163500000Y-119100000D03*
X151866574Y-101993037D03*
D21*
%TO.N,/FrontEnd/SCLS*%
X166400000Y-120369999D03*
%TO.N,/FrontEnd/SDAS*%
X166400000Y-121639999D03*
D20*
%TO.N,V3.3-F*%
X155900000Y-105200000D03*
X165031832Y-126200000D03*
X160299999Y-124000002D03*
X148350001Y-94589999D03*
X152500000Y-115500000D03*
X156300000Y-102700000D03*
X162250000Y-114150001D03*
X147350001Y-94589999D03*
X164500001Y-114150001D03*
D21*
%TO.N,Net-(U9-~{WP}{slash}IO_{2})*%
X182600000Y-110634995D03*
%TO.N,Net-(R27-Pad2)*%
X159143742Y-115800000D03*
%TO.N,Net-(D11-K)*%
X152450005Y-132399995D03*
%TO.N,/ESP32/EN*%
X201500000Y-109999996D03*
X192500000Y-131069996D03*
D20*
%TO.N,+5V*%
X192400000Y-93199996D03*
X187600000Y-93199996D03*
D21*
X187250000Y-96099995D03*
%TO.N,/ESP32/TRG1*%
X202800000Y-116299995D03*
X192500000Y-129789995D03*
X186349999Y-130199995D03*
%TO.N,/ESP32/TRG2*%
X205300000Y-115899996D03*
X184449999Y-130199995D03*
X192499999Y-128519996D03*
%TO.N,/ESP32/IO0*%
X175100000Y-117089996D03*
X201500000Y-104999996D03*
%TO.N,R_CTR*%
X177500000Y-122169995D03*
%TO.N,/ESP32/RX*%
X177500000Y-128522345D03*
%TO.N,/ESP32/TX*%
X177500000Y-129789995D03*
%TO.N,Net-(U2-~{FLG})*%
X176714759Y-94397300D03*
X176714759Y-88297300D03*
%TO.N,Net-(R33-Pad2)*%
X151747337Y-125825000D03*
%TO.N,Net-(U7-ADDR)*%
X151700000Y-120100000D03*
%TO.N,/FrontEnd/ALRT*%
X154500000Y-120600000D03*
%TO.N,/FrontEnd/AIN2*%
X156100000Y-122370000D03*
%TO.N,Net-(R37-Pad2)*%
X150360515Y-115558706D03*
%TD*%
%TA.AperFunction,Conductor*%
%TO.N,GND*%
G36*
X204934105Y-85500500D02*
G01*
X204997292Y-85500500D01*
X205002699Y-85500617D01*
X205386770Y-85517386D01*
X205397502Y-85518326D01*
X205775972Y-85568152D01*
X205786587Y-85570023D01*
X206159287Y-85652648D01*
X206169707Y-85655441D01*
X206533762Y-85770226D01*
X206543908Y-85773919D01*
X206896575Y-85919999D01*
X206906366Y-85924565D01*
X207116777Y-86034098D01*
X207244939Y-86100815D01*
X207254307Y-86106223D01*
X207576241Y-86311317D01*
X207585102Y-86317522D01*
X207887927Y-86549888D01*
X207896214Y-86556842D01*
X208177632Y-86814714D01*
X208185281Y-86822363D01*
X208443153Y-87103781D01*
X208450107Y-87112068D01*
X208682473Y-87414893D01*
X208688678Y-87423754D01*
X208893772Y-87745688D01*
X208899180Y-87755056D01*
X209075427Y-88093622D01*
X209079999Y-88103426D01*
X209226072Y-88456077D01*
X209229772Y-88466243D01*
X209344551Y-88830277D01*
X209347351Y-88840725D01*
X209429968Y-89213386D01*
X209431846Y-89224040D01*
X209481667Y-89602471D01*
X209482610Y-89613247D01*
X209499378Y-89997296D01*
X209499496Y-90002705D01*
X209499500Y-129934103D01*
X209499500Y-129997288D01*
X209499382Y-130002697D01*
X209482614Y-130386745D01*
X209481671Y-130397521D01*
X209431849Y-130775952D01*
X209429971Y-130786605D01*
X209347354Y-131159267D01*
X209344554Y-131169716D01*
X209229775Y-131533750D01*
X209226075Y-131543916D01*
X209080002Y-131896567D01*
X209075430Y-131906371D01*
X208899183Y-132244937D01*
X208893775Y-132254305D01*
X208688681Y-132576239D01*
X208682476Y-132585100D01*
X208450110Y-132887925D01*
X208443156Y-132896212D01*
X208185284Y-133177630D01*
X208177635Y-133185279D01*
X207896217Y-133443151D01*
X207887930Y-133450105D01*
X207585097Y-133682477D01*
X207576236Y-133688681D01*
X207254319Y-133893766D01*
X207244951Y-133899175D01*
X206906376Y-134075425D01*
X206896572Y-134079997D01*
X206543920Y-134226071D01*
X206533754Y-134229771D01*
X206169721Y-134344550D01*
X206159272Y-134347350D01*
X205786610Y-134429967D01*
X205775957Y-134431845D01*
X205397526Y-134481667D01*
X205386750Y-134482610D01*
X205002703Y-134499378D01*
X204997294Y-134499496D01*
X189419807Y-134499496D01*
X189352768Y-134479811D01*
X189307013Y-134427007D01*
X189297069Y-134357849D01*
X189326094Y-134294293D01*
X189332126Y-134287815D01*
X189355273Y-134264667D01*
X189355276Y-134264664D01*
X189426465Y-134158122D01*
X189475501Y-134039739D01*
X189499931Y-133916924D01*
X189500500Y-133914066D01*
X189500500Y-133785923D01*
X189475502Y-133660256D01*
X189475501Y-133660255D01*
X189475501Y-133660251D01*
X189426465Y-133541868D01*
X189426464Y-133541867D01*
X189426461Y-133541861D01*
X189355276Y-133435326D01*
X189355273Y-133435322D01*
X189264672Y-133344721D01*
X189264668Y-133344718D01*
X189233666Y-133324003D01*
X197944995Y-133324003D01*
X197969993Y-133449670D01*
X197969995Y-133449676D01*
X198019029Y-133568056D01*
X198019034Y-133568065D01*
X198090219Y-133674600D01*
X198090222Y-133674604D01*
X198180823Y-133765205D01*
X198180827Y-133765208D01*
X198287362Y-133836393D01*
X198287368Y-133836396D01*
X198287369Y-133836397D01*
X198405752Y-133885433D01*
X198405756Y-133885433D01*
X198405757Y-133885434D01*
X198531424Y-133910432D01*
X198531427Y-133910432D01*
X198659567Y-133910432D01*
X198748396Y-133892762D01*
X198785240Y-133885433D01*
X198903623Y-133836397D01*
X199010165Y-133765208D01*
X199100772Y-133674601D01*
X199171961Y-133568059D01*
X199220997Y-133449676D01*
X199229178Y-133408547D01*
X199245996Y-133324003D01*
X199245996Y-133195860D01*
X199220998Y-133070193D01*
X199220997Y-133070192D01*
X199220997Y-133070188D01*
X199171961Y-132951805D01*
X199171960Y-132951804D01*
X199171957Y-132951798D01*
X199100772Y-132845263D01*
X199100769Y-132845259D01*
X199010168Y-132754658D01*
X199010164Y-132754655D01*
X198903629Y-132683470D01*
X198903620Y-132683465D01*
X198785240Y-132634431D01*
X198785234Y-132634429D01*
X198659567Y-132609432D01*
X198659565Y-132609432D01*
X198531427Y-132609432D01*
X198531425Y-132609432D01*
X198405757Y-132634429D01*
X198405751Y-132634431D01*
X198287371Y-132683465D01*
X198287362Y-132683470D01*
X198180827Y-132754655D01*
X198180823Y-132754658D01*
X198090222Y-132845259D01*
X198090219Y-132845263D01*
X198019034Y-132951798D01*
X198019029Y-132951807D01*
X197969995Y-133070187D01*
X197969993Y-133070193D01*
X197944996Y-133195860D01*
X197944996Y-133195863D01*
X197944996Y-133324001D01*
X197944996Y-133324003D01*
X197944995Y-133324003D01*
X189233666Y-133324003D01*
X189187077Y-133292873D01*
X189158133Y-133273533D01*
X189158124Y-133273528D01*
X189039744Y-133224494D01*
X189039738Y-133224492D01*
X188914071Y-133199495D01*
X188914069Y-133199495D01*
X188785931Y-133199495D01*
X188785929Y-133199495D01*
X188660261Y-133224492D01*
X188660255Y-133224494D01*
X188541875Y-133273528D01*
X188541866Y-133273533D01*
X188435331Y-133344718D01*
X188435327Y-133344721D01*
X188344726Y-133435322D01*
X188344723Y-133435326D01*
X188273538Y-133541861D01*
X188273533Y-133541870D01*
X188224499Y-133660250D01*
X188224497Y-133660256D01*
X188199500Y-133785923D01*
X188199500Y-133785926D01*
X188199500Y-133914064D01*
X188199500Y-133914066D01*
X188199499Y-133914066D01*
X188224497Y-134039733D01*
X188224499Y-134039739D01*
X188273533Y-134158119D01*
X188273538Y-134158128D01*
X188344723Y-134264663D01*
X188344726Y-134264667D01*
X188367874Y-134287815D01*
X188401359Y-134349138D01*
X188396375Y-134418830D01*
X188354503Y-134474763D01*
X188289039Y-134499180D01*
X188280193Y-134499496D01*
X186919806Y-134499496D01*
X186852767Y-134479811D01*
X186807012Y-134427007D01*
X186797068Y-134357849D01*
X186826093Y-134294293D01*
X186832125Y-134287815D01*
X186855272Y-134264667D01*
X186855275Y-134264664D01*
X186926464Y-134158122D01*
X186975500Y-134039739D01*
X186999930Y-133916924D01*
X187000499Y-133914066D01*
X187000499Y-133785923D01*
X186975501Y-133660256D01*
X186975500Y-133660255D01*
X186975500Y-133660251D01*
X186926464Y-133541868D01*
X186926463Y-133541867D01*
X186926460Y-133541861D01*
X186855275Y-133435326D01*
X186855272Y-133435322D01*
X186764671Y-133344721D01*
X186764667Y-133344718D01*
X186658132Y-133273533D01*
X186658123Y-133273528D01*
X186539743Y-133224494D01*
X186539737Y-133224492D01*
X186414070Y-133199495D01*
X186414068Y-133199495D01*
X186285930Y-133199495D01*
X186285928Y-133199495D01*
X186160260Y-133224492D01*
X186160254Y-133224494D01*
X186041874Y-133273528D01*
X186041865Y-133273533D01*
X185935330Y-133344718D01*
X185935326Y-133344721D01*
X185844725Y-133435322D01*
X185844722Y-133435326D01*
X185773537Y-133541861D01*
X185773532Y-133541870D01*
X185724498Y-133660250D01*
X185724496Y-133660256D01*
X185699499Y-133785923D01*
X185699499Y-133785926D01*
X185699499Y-133914064D01*
X185699499Y-133914066D01*
X185699498Y-133914066D01*
X185724496Y-134039733D01*
X185724498Y-134039739D01*
X185773532Y-134158119D01*
X185773537Y-134158128D01*
X185844722Y-134264663D01*
X185844725Y-134264667D01*
X185867873Y-134287815D01*
X185901358Y-134349138D01*
X185896374Y-134418830D01*
X185854502Y-134474763D01*
X185789038Y-134499180D01*
X185780192Y-134499496D01*
X185019806Y-134499496D01*
X184952767Y-134479811D01*
X184907012Y-134427007D01*
X184897068Y-134357849D01*
X184926093Y-134294293D01*
X184932125Y-134287815D01*
X184955272Y-134264667D01*
X184955275Y-134264664D01*
X185026464Y-134158122D01*
X185075500Y-134039739D01*
X185099930Y-133916924D01*
X185100499Y-133914066D01*
X185100499Y-133785923D01*
X185075501Y-133660256D01*
X185075500Y-133660255D01*
X185075500Y-133660251D01*
X185026464Y-133541868D01*
X185026463Y-133541867D01*
X185026460Y-133541861D01*
X184955275Y-133435326D01*
X184955272Y-133435322D01*
X184864671Y-133344721D01*
X184864667Y-133344718D01*
X184758132Y-133273533D01*
X184758123Y-133273528D01*
X184639743Y-133224494D01*
X184639737Y-133224492D01*
X184514070Y-133199495D01*
X184514068Y-133199495D01*
X184385930Y-133199495D01*
X184385928Y-133199495D01*
X184260260Y-133224492D01*
X184260254Y-133224494D01*
X184141874Y-133273528D01*
X184141865Y-133273533D01*
X184035330Y-133344718D01*
X184035326Y-133344721D01*
X183944725Y-133435322D01*
X183944722Y-133435326D01*
X183873537Y-133541861D01*
X183873532Y-133541870D01*
X183824498Y-133660250D01*
X183824496Y-133660256D01*
X183799499Y-133785923D01*
X183799499Y-133785926D01*
X183799499Y-133914064D01*
X183799499Y-133914066D01*
X183799498Y-133914066D01*
X183824496Y-134039733D01*
X183824498Y-134039739D01*
X183873532Y-134158119D01*
X183873537Y-134158128D01*
X183944722Y-134264663D01*
X183944725Y-134264667D01*
X183967873Y-134287815D01*
X184001358Y-134349138D01*
X183996374Y-134418830D01*
X183954502Y-134474763D01*
X183889038Y-134499180D01*
X183880192Y-134499496D01*
X171036935Y-134499496D01*
X170969896Y-134479811D01*
X170924141Y-134427007D01*
X170914197Y-134357849D01*
X170943222Y-134294293D01*
X170968045Y-134272394D01*
X171012125Y-134242940D01*
X171030600Y-134230596D01*
X171085965Y-134147735D01*
X171100499Y-134074669D01*
X171100499Y-133064066D01*
X182049499Y-133064066D01*
X182074497Y-133189733D01*
X182074499Y-133189739D01*
X182123533Y-133308119D01*
X182123538Y-133308128D01*
X182194723Y-133414663D01*
X182194726Y-133414667D01*
X182285327Y-133505268D01*
X182285331Y-133505271D01*
X182391866Y-133576456D01*
X182391872Y-133576459D01*
X182391873Y-133576460D01*
X182510256Y-133625496D01*
X182510260Y-133625496D01*
X182510261Y-133625497D01*
X182635928Y-133650495D01*
X182635931Y-133650495D01*
X182764071Y-133650495D01*
X182848615Y-133633677D01*
X182889744Y-133625496D01*
X183008127Y-133576460D01*
X183114669Y-133505271D01*
X183205276Y-133414664D01*
X183276465Y-133308122D01*
X183325501Y-133189739D01*
X183333682Y-133148610D01*
X183350500Y-133064066D01*
X183350500Y-132935923D01*
X183325502Y-132810256D01*
X183325501Y-132810255D01*
X183325501Y-132810251D01*
X183276465Y-132691868D01*
X183276464Y-132691867D01*
X183276461Y-132691861D01*
X183205276Y-132585326D01*
X183205273Y-132585322D01*
X183114672Y-132494721D01*
X183114668Y-132494718D01*
X183008133Y-132423533D01*
X183008124Y-132423528D01*
X182889744Y-132374494D01*
X182889738Y-132374492D01*
X182764071Y-132349495D01*
X182764069Y-132349495D01*
X182635931Y-132349495D01*
X182635929Y-132349495D01*
X182510261Y-132374492D01*
X182510255Y-132374494D01*
X182391875Y-132423528D01*
X182391866Y-132423533D01*
X182285331Y-132494718D01*
X182285327Y-132494721D01*
X182194726Y-132585322D01*
X182194723Y-132585326D01*
X182123538Y-132691861D01*
X182123533Y-132691870D01*
X182074499Y-132810250D01*
X182074497Y-132810256D01*
X182049500Y-132935923D01*
X182049500Y-132935926D01*
X182049500Y-133064064D01*
X182049500Y-133064066D01*
X182049499Y-133064066D01*
X171100499Y-133064066D01*
X171100499Y-132325321D01*
X171100499Y-132325318D01*
X171100498Y-132325316D01*
X171085966Y-132252259D01*
X171085965Y-132252255D01*
X171081075Y-132244937D01*
X171030600Y-132169394D01*
X170947739Y-132114029D01*
X170947738Y-132114028D01*
X170947734Y-132114027D01*
X170874676Y-132099495D01*
X170874673Y-132099495D01*
X169125325Y-132099495D01*
X169125322Y-132099495D01*
X169052263Y-132114027D01*
X169052259Y-132114028D01*
X168969398Y-132169394D01*
X168914032Y-132252255D01*
X168914031Y-132252259D01*
X168899499Y-132325316D01*
X168899499Y-134074673D01*
X168914031Y-134147730D01*
X168914032Y-134147734D01*
X168969399Y-134230597D01*
X169031953Y-134272394D01*
X169076759Y-134326006D01*
X169085466Y-134395331D01*
X169055312Y-134458358D01*
X168995869Y-134495078D01*
X168963063Y-134499496D01*
X167804742Y-134499496D01*
X167737703Y-134479811D01*
X167691948Y-134427007D01*
X167682004Y-134357849D01*
X167711029Y-134294293D01*
X167766422Y-134257565D01*
X167882444Y-134219868D01*
X168036787Y-134141227D01*
X168176927Y-134039409D01*
X168299413Y-133916923D01*
X168401231Y-133776783D01*
X168479872Y-133622440D01*
X168533401Y-133457696D01*
X168560499Y-133286606D01*
X168560499Y-133113384D01*
X168533401Y-132942294D01*
X168479872Y-132777550D01*
X168401231Y-132623207D01*
X168299413Y-132483067D01*
X168176927Y-132360581D01*
X168036787Y-132258763D01*
X167882444Y-132180122D01*
X167717700Y-132126593D01*
X167717698Y-132126592D01*
X167717697Y-132126592D01*
X167586270Y-132105776D01*
X167546610Y-132099495D01*
X167373388Y-132099495D01*
X167333727Y-132105776D01*
X167202301Y-132126592D01*
X167037551Y-132180123D01*
X166883210Y-132258763D01*
X166881574Y-132259952D01*
X166743071Y-132360581D01*
X166743069Y-132360583D01*
X166743068Y-132360583D01*
X166620587Y-132483064D01*
X166620587Y-132483065D01*
X166620585Y-132483067D01*
X166612118Y-132494721D01*
X166518767Y-132623206D01*
X166440127Y-132777547D01*
X166386596Y-132942297D01*
X166359499Y-133113384D01*
X166359499Y-133286605D01*
X166385394Y-133450105D01*
X166386597Y-133457696D01*
X166440126Y-133622440D01*
X166518767Y-133776783D01*
X166620585Y-133916923D01*
X166743071Y-134039409D01*
X166883211Y-134141227D01*
X167037554Y-134219868D01*
X167153575Y-134257565D01*
X167211250Y-134297003D01*
X167238448Y-134361361D01*
X167226533Y-134430208D01*
X167179289Y-134481683D01*
X167115256Y-134499496D01*
X153124000Y-134499496D01*
X153056961Y-134479811D01*
X153011206Y-134427007D01*
X153000000Y-134375496D01*
X153000000Y-132474354D01*
X153000505Y-132472470D01*
X153000505Y-132327520D01*
X153000000Y-132325635D01*
X153000000Y-129623996D01*
X153019685Y-129556957D01*
X153072489Y-129511202D01*
X153124000Y-129499996D01*
X160499986Y-129499996D01*
X160499999Y-129499996D01*
X169004321Y-129498112D01*
X169004089Y-128449870D01*
X176949500Y-128449870D01*
X176949500Y-128594820D01*
X176987016Y-128734830D01*
X176987017Y-128734833D01*
X177059488Y-128860356D01*
X177059490Y-128860358D01*
X177059491Y-128860360D01*
X177161985Y-128962854D01*
X177161986Y-128962855D01*
X177161988Y-128962856D01*
X177287511Y-129035327D01*
X177287512Y-129035327D01*
X177287515Y-129035329D01*
X177289455Y-129035848D01*
X177291496Y-129036396D01*
X177294474Y-129038211D01*
X177295019Y-129038437D01*
X177294983Y-129038521D01*
X177351156Y-129072761D01*
X177381684Y-129135609D01*
X177373389Y-129204984D01*
X177328903Y-129258861D01*
X177291496Y-129275944D01*
X177287516Y-129277010D01*
X177287511Y-129277012D01*
X177161988Y-129349483D01*
X177161982Y-129349488D01*
X177059493Y-129451977D01*
X177059488Y-129451983D01*
X176987017Y-129577506D01*
X176987016Y-129577510D01*
X176949500Y-129717520D01*
X176949500Y-129862470D01*
X176984937Y-129994721D01*
X176987017Y-130002483D01*
X177059488Y-130128006D01*
X177059490Y-130128008D01*
X177059491Y-130128010D01*
X177161985Y-130230504D01*
X177161986Y-130230505D01*
X177161988Y-130230506D01*
X177287511Y-130302977D01*
X177287512Y-130302977D01*
X177287515Y-130302979D01*
X177295879Y-130305220D01*
X177355540Y-130341583D01*
X177386071Y-130404430D01*
X177377777Y-130473805D01*
X177333293Y-130527684D01*
X177295886Y-130544768D01*
X177287515Y-130547012D01*
X177287514Y-130547012D01*
X177287512Y-130547013D01*
X177287511Y-130547013D01*
X177161988Y-130619484D01*
X177161982Y-130619489D01*
X177059493Y-130721978D01*
X177059488Y-130721984D01*
X176987017Y-130847507D01*
X176987016Y-130847511D01*
X176949500Y-130987521D01*
X176949500Y-131132471D01*
X176987016Y-131272481D01*
X176987017Y-131272484D01*
X177059488Y-131398007D01*
X177059490Y-131398009D01*
X177059491Y-131398011D01*
X177161985Y-131500505D01*
X177161986Y-131500506D01*
X177161988Y-131500507D01*
X177287511Y-131572978D01*
X177287514Y-131572980D01*
X177294253Y-131574785D01*
X177300410Y-131576435D01*
X177360071Y-131612798D01*
X177390602Y-131675645D01*
X177382308Y-131745021D01*
X177337824Y-131798899D01*
X177300416Y-131815984D01*
X177287513Y-131819441D01*
X177287511Y-131819442D01*
X177161988Y-131891913D01*
X177161982Y-131891918D01*
X177059493Y-131994407D01*
X177059488Y-131994413D01*
X176987017Y-132119936D01*
X176987016Y-132119940D01*
X176949500Y-132259950D01*
X176949500Y-132404900D01*
X176973568Y-132494721D01*
X176987017Y-132544913D01*
X177059488Y-132670436D01*
X177059490Y-132670438D01*
X177059491Y-132670440D01*
X177161985Y-132772934D01*
X177161986Y-132772935D01*
X177161988Y-132772936D01*
X177287511Y-132845407D01*
X177287512Y-132845407D01*
X177287515Y-132845409D01*
X177427525Y-132882925D01*
X177427528Y-132882925D01*
X177572472Y-132882925D01*
X177572475Y-132882925D01*
X177712485Y-132845409D01*
X177838015Y-132772934D01*
X177940509Y-132670440D01*
X178012984Y-132544910D01*
X178050500Y-132404900D01*
X178050500Y-132259950D01*
X178012984Y-132119940D01*
X178009571Y-132114029D01*
X177940511Y-131994413D01*
X177940506Y-131994407D01*
X177838017Y-131891918D01*
X177838011Y-131891913D01*
X177712488Y-131819442D01*
X177712483Y-131819440D01*
X177699585Y-131815984D01*
X177639925Y-131779619D01*
X177609397Y-131716771D01*
X177617692Y-131647396D01*
X177662179Y-131593518D01*
X177699583Y-131576437D01*
X177712485Y-131572980D01*
X177712488Y-131572978D01*
X177712489Y-131572978D01*
X177820691Y-131510507D01*
X177838015Y-131500505D01*
X177940509Y-131398011D01*
X178012984Y-131272481D01*
X178050500Y-131132471D01*
X178050500Y-130987521D01*
X178012984Y-130847511D01*
X177974771Y-130781325D01*
X177940511Y-130721984D01*
X177940506Y-130721978D01*
X177838017Y-130619489D01*
X177838011Y-130619484D01*
X177742025Y-130564066D01*
X182049499Y-130564066D01*
X182074497Y-130689733D01*
X182074499Y-130689739D01*
X182123533Y-130808119D01*
X182123538Y-130808128D01*
X182194723Y-130914663D01*
X182194726Y-130914667D01*
X182285327Y-131005268D01*
X182285331Y-131005271D01*
X182391866Y-131076456D01*
X182391872Y-131076459D01*
X182391873Y-131076460D01*
X182510256Y-131125496D01*
X182510260Y-131125496D01*
X182510261Y-131125497D01*
X182635928Y-131150495D01*
X182635931Y-131150495D01*
X182764071Y-131150495D01*
X182868373Y-131129747D01*
X182889744Y-131125496D01*
X183008127Y-131076460D01*
X183114669Y-131005271D01*
X183205276Y-130914664D01*
X183276465Y-130808122D01*
X183325501Y-130689739D01*
X183339475Y-130619489D01*
X183350500Y-130564066D01*
X183350500Y-130435923D01*
X183325502Y-130310256D01*
X183325501Y-130310255D01*
X183325501Y-130310251D01*
X183276465Y-130191868D01*
X183276462Y-130191863D01*
X183274070Y-130188283D01*
X183274069Y-130188282D01*
X183233469Y-130127520D01*
X183899499Y-130127520D01*
X183899499Y-130272470D01*
X183931568Y-130392152D01*
X183937016Y-130412483D01*
X184009487Y-130538006D01*
X184009489Y-130538008D01*
X184009490Y-130538010D01*
X184111984Y-130640504D01*
X184111985Y-130640505D01*
X184111987Y-130640506D01*
X184237510Y-130712977D01*
X184237511Y-130712977D01*
X184237514Y-130712979D01*
X184377524Y-130750495D01*
X184377527Y-130750495D01*
X184522471Y-130750495D01*
X184522474Y-130750495D01*
X184662484Y-130712979D01*
X184788014Y-130640504D01*
X184890508Y-130538010D01*
X184962983Y-130412480D01*
X185000499Y-130272470D01*
X185000499Y-130127520D01*
X185799499Y-130127520D01*
X185799499Y-130272470D01*
X185831568Y-130392152D01*
X185837016Y-130412483D01*
X185909487Y-130538006D01*
X185909489Y-130538008D01*
X185909490Y-130538010D01*
X186011984Y-130640504D01*
X186011985Y-130640505D01*
X186011987Y-130640506D01*
X186137510Y-130712977D01*
X186137511Y-130712977D01*
X186137514Y-130712979D01*
X186277524Y-130750495D01*
X186277527Y-130750495D01*
X186422471Y-130750495D01*
X186422474Y-130750495D01*
X186562484Y-130712979D01*
X186688014Y-130640504D01*
X186790508Y-130538010D01*
X186862983Y-130412480D01*
X186900499Y-130272470D01*
X186900499Y-130127520D01*
X186862983Y-129987510D01*
X186832148Y-129934103D01*
X186790510Y-129861983D01*
X186790505Y-129861977D01*
X186688016Y-129759488D01*
X186688010Y-129759483D01*
X186562487Y-129687012D01*
X186562488Y-129687012D01*
X186551005Y-129683935D01*
X186422474Y-129649495D01*
X186277524Y-129649495D01*
X186148992Y-129683935D01*
X186137510Y-129687012D01*
X186011987Y-129759483D01*
X186011981Y-129759488D01*
X185909492Y-129861977D01*
X185909487Y-129861983D01*
X185837016Y-129987506D01*
X185837015Y-129987510D01*
X185799499Y-130127520D01*
X185000499Y-130127520D01*
X184962983Y-129987510D01*
X184932148Y-129934103D01*
X184890510Y-129861983D01*
X184890505Y-129861977D01*
X184788016Y-129759488D01*
X184788010Y-129759483D01*
X184662487Y-129687012D01*
X184662488Y-129687012D01*
X184651005Y-129683935D01*
X184522474Y-129649495D01*
X184377524Y-129649495D01*
X184248992Y-129683935D01*
X184237510Y-129687012D01*
X184111987Y-129759483D01*
X184111981Y-129759488D01*
X184009492Y-129861977D01*
X184009487Y-129861983D01*
X183937016Y-129987506D01*
X183937015Y-129987510D01*
X183899499Y-130127520D01*
X183233469Y-130127520D01*
X183205276Y-130085326D01*
X183205273Y-130085322D01*
X183114672Y-129994721D01*
X183114668Y-129994718D01*
X183008133Y-129923533D01*
X183008124Y-129923528D01*
X182889744Y-129874494D01*
X182889738Y-129874492D01*
X182764071Y-129849495D01*
X182764069Y-129849495D01*
X182635931Y-129849495D01*
X182635929Y-129849495D01*
X182510261Y-129874492D01*
X182510255Y-129874494D01*
X182391875Y-129923528D01*
X182391866Y-129923533D01*
X182285331Y-129994718D01*
X182285327Y-129994721D01*
X182194726Y-130085322D01*
X182194723Y-130085326D01*
X182123538Y-130191861D01*
X182123533Y-130191870D01*
X182074499Y-130310250D01*
X182074497Y-130310256D01*
X182049500Y-130435923D01*
X182049500Y-130435926D01*
X182049500Y-130564064D01*
X182049500Y-130564066D01*
X182049499Y-130564066D01*
X177742025Y-130564066D01*
X177712785Y-130547184D01*
X177712780Y-130547182D01*
X177712485Y-130547012D01*
X177703577Y-130544625D01*
X177703001Y-130544465D01*
X177673823Y-130526304D01*
X177644455Y-130508403D01*
X177644192Y-130507861D01*
X177643683Y-130507545D01*
X177628961Y-130476506D01*
X177613927Y-130445555D01*
X177613998Y-130444958D01*
X177613741Y-130444416D01*
X177618142Y-130410304D01*
X177622224Y-130376180D01*
X177622606Y-130375717D01*
X177622683Y-130375121D01*
X177644838Y-130348791D01*
X177666710Y-130322303D01*
X177667388Y-130321993D01*
X177667669Y-130321660D01*
X177669061Y-130321229D01*
X177704117Y-130305221D01*
X177712485Y-130302979D01*
X177838015Y-130230504D01*
X177940509Y-130128010D01*
X178012984Y-130002480D01*
X178050500Y-129862470D01*
X178050500Y-129717520D01*
X178012984Y-129577510D01*
X177967143Y-129498112D01*
X177940511Y-129451983D01*
X177940506Y-129451977D01*
X177838017Y-129349488D01*
X177838011Y-129349483D01*
X177712488Y-129277012D01*
X177712485Y-129277011D01*
X177708503Y-129275944D01*
X177705523Y-129274127D01*
X177704981Y-129273903D01*
X177705016Y-129273818D01*
X177648845Y-129239581D01*
X177618315Y-129176734D01*
X177626609Y-129107358D01*
X177671094Y-129053480D01*
X177708502Y-129036396D01*
X177712485Y-129035329D01*
X177838015Y-128962854D01*
X177940509Y-128860360D01*
X178012984Y-128734830D01*
X178050500Y-128594820D01*
X178050500Y-128449870D01*
X178049871Y-128447521D01*
X191949499Y-128447521D01*
X191949499Y-128592471D01*
X191987015Y-128732481D01*
X191987016Y-128732484D01*
X192059487Y-128858007D01*
X192059489Y-128858009D01*
X192059490Y-128858011D01*
X192161984Y-128960505D01*
X192161985Y-128960506D01*
X192161987Y-128960507D01*
X192287509Y-129032978D01*
X192287511Y-129032978D01*
X192287514Y-129032980D01*
X192295877Y-129035220D01*
X192355535Y-129071582D01*
X192386067Y-129134428D01*
X192377774Y-129203804D01*
X192333290Y-129257683D01*
X192295883Y-129274768D01*
X192287517Y-129277009D01*
X192287511Y-129277012D01*
X192161988Y-129349483D01*
X192161982Y-129349488D01*
X192059493Y-129451977D01*
X192059488Y-129451983D01*
X191987017Y-129577506D01*
X191987016Y-129577510D01*
X191949500Y-129717520D01*
X191949500Y-129862470D01*
X191984937Y-129994721D01*
X191987017Y-130002483D01*
X192059488Y-130128006D01*
X192059490Y-130128008D01*
X192059491Y-130128010D01*
X192161985Y-130230504D01*
X192161986Y-130230505D01*
X192161988Y-130230506D01*
X192287511Y-130302977D01*
X192287512Y-130302977D01*
X192287515Y-130302979D01*
X192314542Y-130310221D01*
X192374201Y-130346584D01*
X192404731Y-130409431D01*
X192396437Y-130478807D01*
X192351952Y-130532685D01*
X192314544Y-130549769D01*
X192287514Y-130557012D01*
X192287511Y-130557013D01*
X192161988Y-130629484D01*
X192161982Y-130629489D01*
X192059493Y-130731978D01*
X192059488Y-130731984D01*
X191987017Y-130857507D01*
X191987016Y-130857511D01*
X191949500Y-130997521D01*
X191949500Y-131142471D01*
X191987016Y-131282481D01*
X191987017Y-131282484D01*
X192059488Y-131408007D01*
X192059490Y-131408009D01*
X192059491Y-131408011D01*
X192161985Y-131510505D01*
X192161986Y-131510506D01*
X192161988Y-131510507D01*
X192287511Y-131582978D01*
X192287512Y-131582978D01*
X192287515Y-131582980D01*
X192427525Y-131620496D01*
X192427528Y-131620496D01*
X192572472Y-131620496D01*
X192572475Y-131620496D01*
X192712485Y-131582980D01*
X192838015Y-131510505D01*
X192940509Y-131408011D01*
X193012984Y-131282481D01*
X193050500Y-131142471D01*
X193050500Y-130997521D01*
X193012984Y-130857511D01*
X193007210Y-130847511D01*
X192940511Y-130731984D01*
X192940506Y-130731978D01*
X192838017Y-130629489D01*
X192838011Y-130629484D01*
X192712488Y-130557013D01*
X192712483Y-130557011D01*
X192685456Y-130549769D01*
X192625796Y-130513404D01*
X192595268Y-130450556D01*
X192603563Y-130381181D01*
X192648049Y-130327304D01*
X192685455Y-130310221D01*
X192712485Y-130302979D01*
X192838015Y-130230504D01*
X192940509Y-130128010D01*
X193012984Y-130002480D01*
X193050500Y-129862470D01*
X193050500Y-129717520D01*
X193012984Y-129577510D01*
X192967143Y-129498112D01*
X192940511Y-129451983D01*
X192940506Y-129451977D01*
X192838017Y-129349488D01*
X192838011Y-129349483D01*
X192712488Y-129277012D01*
X192712483Y-129277010D01*
X192704119Y-129274769D01*
X192644459Y-129238404D01*
X192613931Y-129175556D01*
X192622226Y-129106181D01*
X192666712Y-129052304D01*
X192704118Y-129035221D01*
X192712484Y-129032980D01*
X192712487Y-129032978D01*
X192712488Y-129032978D01*
X192775249Y-128996742D01*
X192838014Y-128960505D01*
X192940508Y-128858011D01*
X193012983Y-128732481D01*
X193050499Y-128592471D01*
X193050499Y-128447521D01*
X193012983Y-128307511D01*
X192941862Y-128184327D01*
X192940510Y-128181984D01*
X192940505Y-128181978D01*
X192838016Y-128079489D01*
X192838010Y-128079484D01*
X192712487Y-128007013D01*
X192712488Y-128007013D01*
X192701005Y-128003936D01*
X192572474Y-127969496D01*
X192427524Y-127969496D01*
X192298992Y-128003936D01*
X192287510Y-128007013D01*
X192161987Y-128079484D01*
X192161981Y-128079489D01*
X192059492Y-128181978D01*
X192059487Y-128181984D01*
X191987016Y-128307507D01*
X191987015Y-128307511D01*
X191949499Y-128447521D01*
X178049871Y-128447521D01*
X178012984Y-128309860D01*
X178011625Y-128307507D01*
X177940511Y-128184333D01*
X177940506Y-128184327D01*
X177838017Y-128081838D01*
X177838011Y-128081833D01*
X177712488Y-128009362D01*
X177712489Y-128009362D01*
X177701006Y-128006285D01*
X177572475Y-127971845D01*
X177427525Y-127971845D01*
X177298993Y-128006285D01*
X177287511Y-128009362D01*
X177161988Y-128081833D01*
X177161982Y-128081838D01*
X177059493Y-128184327D01*
X177059488Y-128184333D01*
X176987017Y-128309856D01*
X176987016Y-128309860D01*
X176949500Y-128449870D01*
X169004089Y-128449870D01*
X169003659Y-126508124D01*
X169003605Y-126264071D01*
X169349499Y-126264071D01*
X169374497Y-126389738D01*
X169374499Y-126389744D01*
X169423533Y-126508124D01*
X169423538Y-126508133D01*
X169494723Y-126614668D01*
X169494726Y-126614672D01*
X169585327Y-126705273D01*
X169585331Y-126705276D01*
X169691866Y-126776461D01*
X169691872Y-126776464D01*
X169691873Y-126776465D01*
X169810256Y-126825501D01*
X169810260Y-126825501D01*
X169810261Y-126825502D01*
X169935928Y-126850500D01*
X169935931Y-126850500D01*
X170064071Y-126850500D01*
X170148615Y-126833682D01*
X170189744Y-126825501D01*
X170308127Y-126776465D01*
X170414669Y-126705276D01*
X170505276Y-126614669D01*
X170576465Y-126508127D01*
X170625501Y-126389744D01*
X170650500Y-126264069D01*
X170650500Y-126135931D01*
X170650500Y-126135928D01*
X170625502Y-126010261D01*
X170625501Y-126010260D01*
X170625501Y-126010256D01*
X170587574Y-125918692D01*
X170576466Y-125891875D01*
X170576461Y-125891866D01*
X170505276Y-125785331D01*
X170505273Y-125785327D01*
X170414672Y-125694726D01*
X170414668Y-125694723D01*
X170308133Y-125623538D01*
X170308124Y-125623533D01*
X170189744Y-125574499D01*
X170189738Y-125574497D01*
X170064071Y-125549500D01*
X170064069Y-125549500D01*
X169935931Y-125549500D01*
X169935929Y-125549500D01*
X169810261Y-125574497D01*
X169810255Y-125574499D01*
X169691875Y-125623533D01*
X169691866Y-125623538D01*
X169585331Y-125694723D01*
X169585327Y-125694726D01*
X169494726Y-125785327D01*
X169494723Y-125785331D01*
X169423538Y-125891866D01*
X169423533Y-125891875D01*
X169374499Y-126010255D01*
X169374497Y-126010261D01*
X169349500Y-126135928D01*
X169349500Y-126135931D01*
X169349500Y-126264069D01*
X169349500Y-126264071D01*
X169349499Y-126264071D01*
X169003605Y-126264071D01*
X169003575Y-126129866D01*
X169002682Y-122097520D01*
X176949500Y-122097520D01*
X176949500Y-122242470D01*
X176984866Y-122374457D01*
X176987017Y-122382483D01*
X177059488Y-122508006D01*
X177059490Y-122508008D01*
X177059491Y-122508010D01*
X177161985Y-122610504D01*
X177161986Y-122610505D01*
X177161988Y-122610506D01*
X177287511Y-122682977D01*
X177287512Y-122682977D01*
X177287515Y-122682979D01*
X177427525Y-122720495D01*
X177427528Y-122720495D01*
X177572472Y-122720495D01*
X177572475Y-122720495D01*
X177712485Y-122682979D01*
X177838015Y-122610504D01*
X177940509Y-122508010D01*
X178012984Y-122382480D01*
X178050500Y-122242470D01*
X178050500Y-122097520D01*
X178012984Y-121957510D01*
X178012972Y-121957490D01*
X177992611Y-121922223D01*
X203624500Y-121922223D01*
X203624500Y-123671580D01*
X203639032Y-123744637D01*
X203639033Y-123744641D01*
X203639034Y-123744642D01*
X203694399Y-123827503D01*
X203777260Y-123882868D01*
X203777264Y-123882869D01*
X203850321Y-123897401D01*
X203850324Y-123897402D01*
X203850326Y-123897402D01*
X205599676Y-123897402D01*
X205599677Y-123897401D01*
X205672740Y-123882868D01*
X205755601Y-123827503D01*
X205810966Y-123744642D01*
X205825500Y-123671576D01*
X205825500Y-122710291D01*
X206164500Y-122710291D01*
X206164500Y-122883513D01*
X206191598Y-123054603D01*
X206245127Y-123219347D01*
X206323768Y-123373690D01*
X206425586Y-123513830D01*
X206548072Y-123636316D01*
X206688212Y-123738134D01*
X206842555Y-123816775D01*
X207007299Y-123870304D01*
X207178389Y-123897402D01*
X207178390Y-123897402D01*
X207351610Y-123897402D01*
X207351611Y-123897402D01*
X207522701Y-123870304D01*
X207687445Y-123816775D01*
X207841788Y-123738134D01*
X207981928Y-123636316D01*
X208104414Y-123513830D01*
X208206232Y-123373690D01*
X208284873Y-123219347D01*
X208338402Y-123054603D01*
X208365500Y-122883513D01*
X208365500Y-122710291D01*
X208338402Y-122539201D01*
X208284873Y-122374457D01*
X208206232Y-122220114D01*
X208104414Y-122079974D01*
X207981928Y-121957488D01*
X207841788Y-121855670D01*
X207687445Y-121777029D01*
X207522701Y-121723500D01*
X207522699Y-121723499D01*
X207522698Y-121723499D01*
X207391271Y-121702683D01*
X207351611Y-121696402D01*
X207178389Y-121696402D01*
X207138728Y-121702683D01*
X207007302Y-121723499D01*
X206842552Y-121777030D01*
X206688211Y-121855670D01*
X206608256Y-121913761D01*
X206548072Y-121957488D01*
X206548070Y-121957490D01*
X206548069Y-121957490D01*
X206425588Y-122079971D01*
X206425588Y-122079972D01*
X206425586Y-122079974D01*
X206412838Y-122097520D01*
X206323768Y-122220113D01*
X206245128Y-122374454D01*
X206191597Y-122539204D01*
X206180304Y-122610506D01*
X206164500Y-122710291D01*
X205825500Y-122710291D01*
X205825500Y-121922228D01*
X205825500Y-121922225D01*
X205825499Y-121922223D01*
X205810967Y-121849166D01*
X205810966Y-121849162D01*
X205808274Y-121845133D01*
X205755601Y-121766301D01*
X205672740Y-121710936D01*
X205672739Y-121710935D01*
X205672735Y-121710934D01*
X205599677Y-121696402D01*
X205599674Y-121696402D01*
X203850326Y-121696402D01*
X203850323Y-121696402D01*
X203777264Y-121710934D01*
X203777260Y-121710935D01*
X203694399Y-121766301D01*
X203639033Y-121849162D01*
X203639032Y-121849166D01*
X203624500Y-121922223D01*
X177992611Y-121922223D01*
X177940511Y-121831983D01*
X177940506Y-121831977D01*
X177838017Y-121729488D01*
X177838011Y-121729483D01*
X177712488Y-121657012D01*
X177712489Y-121657012D01*
X177701006Y-121653935D01*
X177572475Y-121619495D01*
X177427525Y-121619495D01*
X177298993Y-121653935D01*
X177287511Y-121657012D01*
X177161988Y-121729483D01*
X177161982Y-121729488D01*
X177059493Y-121831977D01*
X177059488Y-121831983D01*
X176987017Y-121957506D01*
X176987016Y-121957510D01*
X176949500Y-122097520D01*
X169002682Y-122097520D01*
X169002680Y-122089420D01*
X169001557Y-117017521D01*
X174549500Y-117017521D01*
X174549500Y-117162471D01*
X174587016Y-117302481D01*
X174587017Y-117302484D01*
X174659488Y-117428007D01*
X174659490Y-117428009D01*
X174659491Y-117428011D01*
X174761985Y-117530505D01*
X174761986Y-117530506D01*
X174761988Y-117530507D01*
X174887511Y-117602978D01*
X174887512Y-117602978D01*
X174887515Y-117602980D01*
X175027525Y-117640496D01*
X175027528Y-117640496D01*
X175172472Y-117640496D01*
X175172475Y-117640496D01*
X175312485Y-117602980D01*
X175438015Y-117530505D01*
X175540509Y-117428011D01*
X175612984Y-117302481D01*
X175650500Y-117162471D01*
X175650500Y-117017521D01*
X175612984Y-116877511D01*
X175597386Y-116850495D01*
X175540511Y-116751984D01*
X175540506Y-116751978D01*
X175438017Y-116649489D01*
X175438011Y-116649484D01*
X175312488Y-116577013D01*
X175312489Y-116577013D01*
X175301006Y-116573936D01*
X175172475Y-116539496D01*
X175027525Y-116539496D01*
X174898993Y-116573936D01*
X174887511Y-116577013D01*
X174761988Y-116649484D01*
X174761982Y-116649489D01*
X174659493Y-116751978D01*
X174659488Y-116751984D01*
X174587017Y-116877507D01*
X174587016Y-116877511D01*
X174549500Y-117017521D01*
X169001557Y-117017521D01*
X169001555Y-117009421D01*
X169001382Y-116227520D01*
X202249500Y-116227520D01*
X202249500Y-116372470D01*
X202287016Y-116512480D01*
X202287017Y-116512483D01*
X202359488Y-116638006D01*
X202359490Y-116638008D01*
X202359491Y-116638010D01*
X202461985Y-116740504D01*
X202461986Y-116740505D01*
X202461988Y-116740506D01*
X202587511Y-116812977D01*
X202587512Y-116812977D01*
X202587515Y-116812979D01*
X202727525Y-116850495D01*
X202727528Y-116850495D01*
X202872472Y-116850495D01*
X202872475Y-116850495D01*
X203012485Y-116812979D01*
X203138015Y-116740504D01*
X203240509Y-116638010D01*
X203312984Y-116512480D01*
X203350500Y-116372470D01*
X203350500Y-116227520D01*
X203312984Y-116087510D01*
X203246564Y-115972468D01*
X203240511Y-115961983D01*
X203240506Y-115961977D01*
X203138017Y-115859488D01*
X203138011Y-115859483D01*
X203082651Y-115827521D01*
X204749500Y-115827521D01*
X204749500Y-115972471D01*
X204780324Y-116087506D01*
X204787017Y-116112484D01*
X204859488Y-116238007D01*
X204859490Y-116238009D01*
X204859491Y-116238011D01*
X204961985Y-116340505D01*
X204961986Y-116340506D01*
X204961988Y-116340507D01*
X205087511Y-116412978D01*
X205087512Y-116412978D01*
X205087515Y-116412980D01*
X205227525Y-116450496D01*
X205227528Y-116450496D01*
X205372472Y-116450496D01*
X205372475Y-116450496D01*
X205512485Y-116412980D01*
X205638015Y-116340505D01*
X205740509Y-116238011D01*
X205812984Y-116112481D01*
X205850500Y-115972471D01*
X205850500Y-115827521D01*
X205812984Y-115687511D01*
X205740509Y-115561981D01*
X205638015Y-115459487D01*
X205638013Y-115459486D01*
X205638011Y-115459484D01*
X205512488Y-115387013D01*
X205512489Y-115387013D01*
X205501006Y-115383936D01*
X205372475Y-115349496D01*
X205227525Y-115349496D01*
X205098993Y-115383936D01*
X205087511Y-115387013D01*
X204961988Y-115459484D01*
X204961982Y-115459489D01*
X204859493Y-115561978D01*
X204859488Y-115561984D01*
X204787017Y-115687507D01*
X204787016Y-115687511D01*
X204749500Y-115827521D01*
X203082651Y-115827521D01*
X203012488Y-115787012D01*
X203012489Y-115787012D01*
X203001006Y-115783935D01*
X202872475Y-115749495D01*
X202727525Y-115749495D01*
X202598993Y-115783935D01*
X202587511Y-115787012D01*
X202461988Y-115859483D01*
X202461982Y-115859488D01*
X202359493Y-115961977D01*
X202359488Y-115961983D01*
X202287017Y-116087506D01*
X202287016Y-116087510D01*
X202249500Y-116227520D01*
X169001382Y-116227520D01*
X169001380Y-116219420D01*
X169000445Y-112000222D01*
X169000445Y-112000221D01*
X167642005Y-110642084D01*
X167562423Y-110562520D01*
X182049500Y-110562520D01*
X182049500Y-110707470D01*
X182087016Y-110847480D01*
X182087017Y-110847483D01*
X182159488Y-110973006D01*
X182159490Y-110973008D01*
X182159491Y-110973010D01*
X182261985Y-111075504D01*
X182261986Y-111075505D01*
X182261988Y-111075506D01*
X182387511Y-111147977D01*
X182387512Y-111147977D01*
X182387515Y-111147979D01*
X182527525Y-111185495D01*
X182527528Y-111185495D01*
X182672472Y-111185495D01*
X182672475Y-111185495D01*
X182812485Y-111147979D01*
X182938015Y-111075504D01*
X183040509Y-110973010D01*
X183112984Y-110847480D01*
X183150500Y-110707470D01*
X183150500Y-110562520D01*
X183112984Y-110422510D01*
X183064199Y-110338013D01*
X183040511Y-110296983D01*
X183040506Y-110296977D01*
X182938017Y-110194488D01*
X182938011Y-110194483D01*
X182812488Y-110122012D01*
X182812489Y-110122012D01*
X182801006Y-110118935D01*
X182672475Y-110084495D01*
X182527525Y-110084495D01*
X182398993Y-110118935D01*
X182387511Y-110122012D01*
X182261988Y-110194483D01*
X182261982Y-110194488D01*
X182159493Y-110296977D01*
X182159488Y-110296983D01*
X182087017Y-110422506D01*
X182087016Y-110422510D01*
X182049500Y-110562520D01*
X167562423Y-110562520D01*
X167121817Y-110122012D01*
X166999777Y-109999999D01*
X164801392Y-109999999D01*
X164734353Y-109980314D01*
X164713674Y-109963643D01*
X164677582Y-109927521D01*
X200949500Y-109927521D01*
X200949500Y-110072471D01*
X200982194Y-110194486D01*
X200987017Y-110212484D01*
X201059488Y-110338007D01*
X201059490Y-110338009D01*
X201059491Y-110338011D01*
X201161985Y-110440505D01*
X201161986Y-110440506D01*
X201161988Y-110440507D01*
X201287511Y-110512978D01*
X201287512Y-110512978D01*
X201287515Y-110512980D01*
X201427525Y-110550496D01*
X201427528Y-110550496D01*
X201572472Y-110550496D01*
X201572475Y-110550496D01*
X201712485Y-110512980D01*
X201838015Y-110440505D01*
X201940509Y-110338011D01*
X202012984Y-110212481D01*
X202050500Y-110072471D01*
X202050500Y-109927521D01*
X202012984Y-109787511D01*
X201940511Y-109661985D01*
X201940511Y-109661984D01*
X201940506Y-109661978D01*
X201838017Y-109559489D01*
X201838011Y-109559484D01*
X201712488Y-109487013D01*
X201712489Y-109487013D01*
X201701006Y-109483936D01*
X201572475Y-109449496D01*
X201427525Y-109449496D01*
X201298993Y-109483936D01*
X201287511Y-109487013D01*
X201161988Y-109559484D01*
X201161982Y-109559489D01*
X201059493Y-109661978D01*
X201059488Y-109661984D01*
X200987017Y-109787507D01*
X200987016Y-109787511D01*
X200949500Y-109927521D01*
X164677582Y-109927521D01*
X163037799Y-108286356D01*
X163004340Y-108225019D01*
X163001517Y-108198608D01*
X163001589Y-108113962D01*
X163001757Y-107914068D01*
X183249499Y-107914068D01*
X183274497Y-108039735D01*
X183274499Y-108039741D01*
X183323533Y-108158121D01*
X183323538Y-108158130D01*
X183394723Y-108264665D01*
X183394726Y-108264669D01*
X183485327Y-108355270D01*
X183485331Y-108355273D01*
X183591866Y-108426458D01*
X183591872Y-108426461D01*
X183591873Y-108426462D01*
X183710256Y-108475498D01*
X183710260Y-108475498D01*
X183710261Y-108475499D01*
X183835928Y-108500497D01*
X183835931Y-108500497D01*
X183964071Y-108500497D01*
X184048615Y-108483679D01*
X184089744Y-108475498D01*
X184208127Y-108426462D01*
X184314669Y-108355273D01*
X184405276Y-108264666D01*
X184476465Y-108158124D01*
X184525501Y-108039741D01*
X184542921Y-107952168D01*
X184550500Y-107914068D01*
X184550500Y-107785925D01*
X184525502Y-107660258D01*
X184525501Y-107660257D01*
X184525501Y-107660253D01*
X184501192Y-107601567D01*
X191158895Y-107601567D01*
X191183893Y-107727234D01*
X191183895Y-107727240D01*
X191232929Y-107845620D01*
X191232934Y-107845629D01*
X191304119Y-107952164D01*
X191304122Y-107952168D01*
X191394723Y-108042769D01*
X191394727Y-108042772D01*
X191501262Y-108113957D01*
X191501268Y-108113960D01*
X191501269Y-108113961D01*
X191619652Y-108162997D01*
X191619656Y-108162997D01*
X191619657Y-108162998D01*
X191745324Y-108187996D01*
X191745327Y-108187996D01*
X191873467Y-108187996D01*
X191958011Y-108171178D01*
X191999140Y-108162997D01*
X192117523Y-108113961D01*
X192224065Y-108042772D01*
X192314672Y-107952165D01*
X192385861Y-107845623D01*
X192434897Y-107727240D01*
X192459896Y-107601565D01*
X192459896Y-107473427D01*
X192459896Y-107473424D01*
X192434898Y-107347757D01*
X192434897Y-107347756D01*
X192434897Y-107347752D01*
X192385861Y-107229369D01*
X192385860Y-107229368D01*
X192385857Y-107229362D01*
X192314672Y-107122827D01*
X192314669Y-107122823D01*
X192224068Y-107032222D01*
X192224064Y-107032219D01*
X192117529Y-106961034D01*
X192117520Y-106961029D01*
X191999140Y-106911995D01*
X191999134Y-106911993D01*
X191873467Y-106886996D01*
X191873465Y-106886996D01*
X191745327Y-106886996D01*
X191745325Y-106886996D01*
X191619657Y-106911993D01*
X191619651Y-106911995D01*
X191501271Y-106961029D01*
X191501262Y-106961034D01*
X191394727Y-107032219D01*
X191394723Y-107032222D01*
X191304122Y-107122823D01*
X191304119Y-107122827D01*
X191232934Y-107229362D01*
X191232929Y-107229371D01*
X191183895Y-107347751D01*
X191183893Y-107347757D01*
X191158896Y-107473424D01*
X191158896Y-107473427D01*
X191158896Y-107601565D01*
X191158896Y-107601567D01*
X191158895Y-107601567D01*
X184501192Y-107601567D01*
X184476465Y-107541870D01*
X184476460Y-107541863D01*
X184472696Y-107536229D01*
X184472695Y-107536227D01*
X184472694Y-107536226D01*
X184405276Y-107435327D01*
X184314672Y-107344723D01*
X184314668Y-107344720D01*
X184208133Y-107273535D01*
X184208124Y-107273530D01*
X184089744Y-107224496D01*
X184089738Y-107224494D01*
X183964071Y-107199497D01*
X183964069Y-107199497D01*
X183835931Y-107199497D01*
X183835929Y-107199497D01*
X183710261Y-107224494D01*
X183710255Y-107224496D01*
X183591875Y-107273530D01*
X183591866Y-107273535D01*
X183485331Y-107344720D01*
X183485327Y-107344723D01*
X183394726Y-107435324D01*
X183394723Y-107435328D01*
X183323538Y-107541863D01*
X183323533Y-107541872D01*
X183274499Y-107660252D01*
X183274497Y-107660258D01*
X183249500Y-107785925D01*
X183249500Y-107785928D01*
X183249500Y-107914066D01*
X183249500Y-107914068D01*
X183249499Y-107914068D01*
X163001757Y-107914068D01*
X163004517Y-104638124D01*
X187936999Y-104638124D01*
X187961997Y-104763791D01*
X187961999Y-104763797D01*
X188011033Y-104882177D01*
X188011038Y-104882186D01*
X188082223Y-104988721D01*
X188082226Y-104988725D01*
X188172827Y-105079326D01*
X188172831Y-105079329D01*
X188279366Y-105150514D01*
X188279372Y-105150517D01*
X188279373Y-105150518D01*
X188397756Y-105199554D01*
X188397760Y-105199554D01*
X188397761Y-105199555D01*
X188523428Y-105224553D01*
X188523431Y-105224553D01*
X188651571Y-105224553D01*
X188736115Y-105207735D01*
X188777244Y-105199554D01*
X188895627Y-105150518D01*
X189002169Y-105079329D01*
X189092776Y-104988722D01*
X189133669Y-104927521D01*
X200949500Y-104927521D01*
X200949500Y-105072471D01*
X200987016Y-105212481D01*
X200987017Y-105212484D01*
X201059488Y-105338007D01*
X201059490Y-105338009D01*
X201059491Y-105338011D01*
X201161985Y-105440505D01*
X201161986Y-105440506D01*
X201161988Y-105440507D01*
X201287511Y-105512978D01*
X201287512Y-105512978D01*
X201287515Y-105512980D01*
X201427525Y-105550496D01*
X201427528Y-105550496D01*
X201572472Y-105550496D01*
X201572475Y-105550496D01*
X201712485Y-105512980D01*
X201838015Y-105440505D01*
X201940509Y-105338011D01*
X202012984Y-105212481D01*
X202050500Y-105072471D01*
X202050500Y-104927521D01*
X202012984Y-104787511D01*
X202011725Y-104785331D01*
X201940511Y-104661984D01*
X201940506Y-104661978D01*
X201838017Y-104559489D01*
X201838011Y-104559484D01*
X201712488Y-104487013D01*
X201712489Y-104487013D01*
X201701006Y-104483936D01*
X201572475Y-104449496D01*
X201427525Y-104449496D01*
X201298993Y-104483936D01*
X201287511Y-104487013D01*
X201161988Y-104559484D01*
X201161982Y-104559489D01*
X201059493Y-104661978D01*
X201059488Y-104661984D01*
X200987017Y-104787507D01*
X200987016Y-104787511D01*
X200949500Y-104927521D01*
X189133669Y-104927521D01*
X189163965Y-104882180D01*
X189213001Y-104763797D01*
X189226741Y-104694724D01*
X189238000Y-104638124D01*
X189238000Y-104509981D01*
X189213002Y-104384314D01*
X189213001Y-104384313D01*
X189213001Y-104384309D01*
X189163965Y-104265926D01*
X189163964Y-104265925D01*
X189163961Y-104265919D01*
X189092776Y-104159384D01*
X189092773Y-104159380D01*
X189002172Y-104068779D01*
X189002168Y-104068776D01*
X188895633Y-103997591D01*
X188895624Y-103997586D01*
X188777244Y-103948552D01*
X188777238Y-103948550D01*
X188651571Y-103923553D01*
X188651569Y-103923553D01*
X188523431Y-103923553D01*
X188523429Y-103923553D01*
X188397761Y-103948550D01*
X188397755Y-103948552D01*
X188279375Y-103997586D01*
X188279366Y-103997591D01*
X188172831Y-104068776D01*
X188172827Y-104068779D01*
X188082226Y-104159380D01*
X188082223Y-104159384D01*
X188011038Y-104265919D01*
X188011033Y-104265928D01*
X187961999Y-104384308D01*
X187961997Y-104384314D01*
X187937000Y-104509981D01*
X187937000Y-104509984D01*
X187937000Y-104638122D01*
X187937000Y-104638124D01*
X187936999Y-104638124D01*
X163004517Y-104638124D01*
X163007145Y-101518592D01*
X206973500Y-101518592D01*
X206973500Y-101681407D01*
X207005259Y-101841073D01*
X207005262Y-101841082D01*
X207067562Y-101991490D01*
X207067563Y-101991492D01*
X207158015Y-102126862D01*
X207158018Y-102126866D01*
X207273133Y-102241981D01*
X207273137Y-102241984D01*
X207408505Y-102332435D01*
X207408506Y-102332435D01*
X207408507Y-102332436D01*
X207408509Y-102332437D01*
X207508781Y-102373970D01*
X207558919Y-102394738D01*
X207558921Y-102394738D01*
X207558926Y-102394740D01*
X207718592Y-102426499D01*
X207718595Y-102426500D01*
X207718597Y-102426500D01*
X207881405Y-102426500D01*
X207881406Y-102426499D01*
X207975887Y-102407706D01*
X208041073Y-102394740D01*
X208041076Y-102394738D01*
X208041081Y-102394738D01*
X208191495Y-102332435D01*
X208326863Y-102241984D01*
X208441984Y-102126863D01*
X208532435Y-101991495D01*
X208594738Y-101841081D01*
X208626500Y-101681403D01*
X208626500Y-101518597D01*
X208626500Y-101518594D01*
X208626499Y-101518592D01*
X208594740Y-101358926D01*
X208594737Y-101358917D01*
X208532437Y-101208509D01*
X208532436Y-101208507D01*
X208441984Y-101073137D01*
X208441981Y-101073133D01*
X208326866Y-100958018D01*
X208326862Y-100958015D01*
X208191492Y-100867563D01*
X208191490Y-100867562D01*
X208041082Y-100805262D01*
X208041073Y-100805259D01*
X207881406Y-100773500D01*
X207881403Y-100773500D01*
X207718597Y-100773500D01*
X207718594Y-100773500D01*
X207558926Y-100805259D01*
X207558917Y-100805262D01*
X207408509Y-100867562D01*
X207408507Y-100867563D01*
X207273137Y-100958015D01*
X207273133Y-100958018D01*
X207158018Y-101073133D01*
X207158015Y-101073137D01*
X207067563Y-101208507D01*
X207067562Y-101208509D01*
X207005262Y-101358917D01*
X207005259Y-101358926D01*
X206973500Y-101518592D01*
X163007145Y-101518592D01*
X163009478Y-98749997D01*
X163008628Y-97427520D01*
X167649500Y-97427520D01*
X167649500Y-97572470D01*
X167687016Y-97712480D01*
X167687017Y-97712483D01*
X167759488Y-97838006D01*
X167759490Y-97838008D01*
X167759491Y-97838010D01*
X167861985Y-97940504D01*
X167861986Y-97940505D01*
X167861988Y-97940506D01*
X167987511Y-98012977D01*
X167987512Y-98012977D01*
X167987515Y-98012979D01*
X168127525Y-98050495D01*
X168127528Y-98050495D01*
X168272472Y-98050495D01*
X168272475Y-98050495D01*
X168412485Y-98012979D01*
X168538015Y-97940504D01*
X168562319Y-97916200D01*
X168623642Y-97882715D01*
X168693334Y-97887699D01*
X168737681Y-97916200D01*
X168761985Y-97940504D01*
X168761986Y-97940505D01*
X168761988Y-97940506D01*
X168887511Y-98012977D01*
X168887512Y-98012977D01*
X168887515Y-98012979D01*
X169027525Y-98050495D01*
X169027528Y-98050495D01*
X169172472Y-98050495D01*
X169172475Y-98050495D01*
X169312485Y-98012979D01*
X169438015Y-97940504D01*
X169540509Y-97838010D01*
X169612984Y-97712480D01*
X169650500Y-97572470D01*
X169650500Y-97427520D01*
X169612984Y-97287510D01*
X169540509Y-97161980D01*
X169438015Y-97059486D01*
X169438013Y-97059485D01*
X169438011Y-97059483D01*
X169312488Y-96987012D01*
X169312489Y-96987012D01*
X169301006Y-96983935D01*
X169172475Y-96949495D01*
X169027525Y-96949495D01*
X168898993Y-96983935D01*
X168887511Y-96987012D01*
X168761988Y-97059483D01*
X168737680Y-97083791D01*
X168676356Y-97117275D01*
X168606665Y-97112289D01*
X168562320Y-97083791D01*
X168538015Y-97059486D01*
X168538012Y-97059484D01*
X168538011Y-97059483D01*
X168412488Y-96987012D01*
X168412489Y-96987012D01*
X168401006Y-96983935D01*
X168272475Y-96949495D01*
X168127525Y-96949495D01*
X167998993Y-96983935D01*
X167987511Y-96987012D01*
X167861988Y-97059483D01*
X167861982Y-97059488D01*
X167759493Y-97161977D01*
X167759488Y-97161983D01*
X167687017Y-97287506D01*
X167687016Y-97287510D01*
X167649500Y-97427520D01*
X163008628Y-97427520D01*
X163008425Y-97112289D01*
X163007728Y-96027520D01*
X186699500Y-96027520D01*
X186699500Y-96172470D01*
X186704129Y-96189744D01*
X186737017Y-96312483D01*
X186809488Y-96438006D01*
X186809490Y-96438008D01*
X186809491Y-96438010D01*
X186911985Y-96540504D01*
X186911986Y-96540505D01*
X186911988Y-96540506D01*
X187037511Y-96612977D01*
X187037512Y-96612977D01*
X187037515Y-96612979D01*
X187177525Y-96650495D01*
X187177528Y-96650495D01*
X187322472Y-96650495D01*
X187322475Y-96650495D01*
X187462485Y-96612979D01*
X187588015Y-96540504D01*
X187690509Y-96438010D01*
X187762984Y-96312480D01*
X187800500Y-96172470D01*
X187800500Y-96027520D01*
X187762984Y-95887510D01*
X187718381Y-95810256D01*
X187690511Y-95761983D01*
X187690506Y-95761977D01*
X187588017Y-95659488D01*
X187588011Y-95659483D01*
X187462488Y-95587012D01*
X187462489Y-95587012D01*
X187451006Y-95583935D01*
X187322475Y-95549495D01*
X187177525Y-95549495D01*
X187048993Y-95583935D01*
X187037511Y-95587012D01*
X186911988Y-95659483D01*
X186911982Y-95659488D01*
X186809493Y-95761977D01*
X186809488Y-95761983D01*
X186737017Y-95887506D01*
X186737016Y-95887510D01*
X186699500Y-96027520D01*
X163007728Y-96027520D01*
X163007723Y-96019473D01*
X163006634Y-94324825D01*
X176164259Y-94324825D01*
X176164259Y-94469775D01*
X176201775Y-94609785D01*
X176201776Y-94609788D01*
X176274247Y-94735311D01*
X176274249Y-94735313D01*
X176274250Y-94735315D01*
X176376744Y-94837809D01*
X176376745Y-94837810D01*
X176376747Y-94837811D01*
X176502270Y-94910282D01*
X176502271Y-94910282D01*
X176502274Y-94910284D01*
X176642284Y-94947800D01*
X176642287Y-94947800D01*
X176787231Y-94947800D01*
X176787234Y-94947800D01*
X176927244Y-94910284D01*
X177052774Y-94837809D01*
X177155268Y-94735315D01*
X177227743Y-94609785D01*
X177265259Y-94469775D01*
X177265259Y-94324825D01*
X177227743Y-94184815D01*
X177155268Y-94059285D01*
X177052774Y-93956791D01*
X177052772Y-93956790D01*
X177052770Y-93956788D01*
X176927247Y-93884317D01*
X176927248Y-93884317D01*
X176915765Y-93881240D01*
X176787234Y-93846800D01*
X176642284Y-93846800D01*
X176513752Y-93881240D01*
X176502270Y-93884317D01*
X176376747Y-93956788D01*
X176376741Y-93956793D01*
X176274252Y-94059282D01*
X176274247Y-94059288D01*
X176201776Y-94184811D01*
X176201775Y-94184815D01*
X176164259Y-94324825D01*
X163006634Y-94324825D01*
X163006629Y-94316778D01*
X163006081Y-93464067D01*
X169209499Y-93464067D01*
X169234497Y-93589734D01*
X169234499Y-93589740D01*
X169283533Y-93708120D01*
X169283538Y-93708129D01*
X169354723Y-93814664D01*
X169354726Y-93814668D01*
X169445327Y-93905269D01*
X169445331Y-93905272D01*
X169551866Y-93976457D01*
X169551872Y-93976460D01*
X169551873Y-93976461D01*
X169670256Y-94025497D01*
X169670260Y-94025497D01*
X169670261Y-94025498D01*
X169795928Y-94050496D01*
X169795931Y-94050496D01*
X169924071Y-94050496D01*
X170008615Y-94033678D01*
X170049744Y-94025497D01*
X170168127Y-93976461D01*
X170274669Y-93905272D01*
X170365276Y-93814665D01*
X170436465Y-93708123D01*
X170485501Y-93589740D01*
X170510500Y-93464065D01*
X170510500Y-93335927D01*
X170510500Y-93335924D01*
X170496206Y-93264067D01*
X186949499Y-93264067D01*
X186974497Y-93389734D01*
X186974499Y-93389740D01*
X187023533Y-93508120D01*
X187023538Y-93508129D01*
X187094723Y-93614664D01*
X187094726Y-93614668D01*
X187185327Y-93705269D01*
X187185331Y-93705272D01*
X187291866Y-93776457D01*
X187291872Y-93776460D01*
X187291873Y-93776461D01*
X187410256Y-93825497D01*
X187410260Y-93825497D01*
X187410261Y-93825498D01*
X187535928Y-93850496D01*
X187535931Y-93850496D01*
X187664071Y-93850496D01*
X187748615Y-93833678D01*
X187789744Y-93825497D01*
X187908127Y-93776461D01*
X188014669Y-93705272D01*
X188105276Y-93614665D01*
X188176465Y-93508123D01*
X188225501Y-93389740D01*
X188250500Y-93264067D01*
X191749499Y-93264067D01*
X191774497Y-93389734D01*
X191774499Y-93389740D01*
X191823533Y-93508120D01*
X191823538Y-93508129D01*
X191894723Y-93614664D01*
X191894726Y-93614668D01*
X191985327Y-93705269D01*
X191985331Y-93705272D01*
X192091866Y-93776457D01*
X192091872Y-93776460D01*
X192091873Y-93776461D01*
X192210256Y-93825497D01*
X192210260Y-93825497D01*
X192210261Y-93825498D01*
X192335928Y-93850496D01*
X192335931Y-93850496D01*
X192464071Y-93850496D01*
X192548615Y-93833678D01*
X192589744Y-93825497D01*
X192708127Y-93776461D01*
X192814669Y-93705272D01*
X192905276Y-93614665D01*
X192976465Y-93508123D01*
X193025501Y-93389740D01*
X193050500Y-93264065D01*
X193050500Y-93135927D01*
X193050500Y-93135924D01*
X193025502Y-93010257D01*
X193025501Y-93010256D01*
X193025501Y-93010252D01*
X192976465Y-92891869D01*
X192976464Y-92891868D01*
X192976461Y-92891862D01*
X192905276Y-92785327D01*
X192905273Y-92785323D01*
X192814672Y-92694722D01*
X192814668Y-92694719D01*
X192708133Y-92623534D01*
X192708124Y-92623529D01*
X192589744Y-92574495D01*
X192589738Y-92574493D01*
X192464071Y-92549496D01*
X192464069Y-92549496D01*
X192335931Y-92549496D01*
X192335929Y-92549496D01*
X192210261Y-92574493D01*
X192210255Y-92574495D01*
X192091875Y-92623529D01*
X192091866Y-92623534D01*
X191985331Y-92694719D01*
X191985327Y-92694722D01*
X191894726Y-92785323D01*
X191894723Y-92785327D01*
X191823538Y-92891862D01*
X191823533Y-92891871D01*
X191774499Y-93010251D01*
X191774497Y-93010257D01*
X191749500Y-93135924D01*
X191749500Y-93135927D01*
X191749500Y-93264065D01*
X191749500Y-93264067D01*
X191749499Y-93264067D01*
X188250500Y-93264067D01*
X188250500Y-93264065D01*
X188250500Y-93135927D01*
X188250500Y-93135924D01*
X188225502Y-93010257D01*
X188225501Y-93010256D01*
X188225501Y-93010252D01*
X188176465Y-92891869D01*
X188176464Y-92891868D01*
X188176461Y-92891862D01*
X188105276Y-92785327D01*
X188105273Y-92785323D01*
X188014672Y-92694722D01*
X188014668Y-92694719D01*
X187908133Y-92623534D01*
X187908124Y-92623529D01*
X187789744Y-92574495D01*
X187789738Y-92574493D01*
X187664071Y-92549496D01*
X187664069Y-92549496D01*
X187535931Y-92549496D01*
X187535929Y-92549496D01*
X187410261Y-92574493D01*
X187410255Y-92574495D01*
X187291875Y-92623529D01*
X187291866Y-92623534D01*
X187185331Y-92694719D01*
X187185327Y-92694722D01*
X187094726Y-92785323D01*
X187094723Y-92785327D01*
X187023538Y-92891862D01*
X187023533Y-92891871D01*
X186974499Y-93010251D01*
X186974497Y-93010257D01*
X186949500Y-93135924D01*
X186949500Y-93135927D01*
X186949500Y-93264065D01*
X186949500Y-93264067D01*
X186949499Y-93264067D01*
X170496206Y-93264067D01*
X170485502Y-93210257D01*
X170485501Y-93210256D01*
X170485501Y-93210252D01*
X170485499Y-93210247D01*
X170471847Y-93177287D01*
X170436466Y-93091872D01*
X170436466Y-93091871D01*
X170436465Y-93091869D01*
X170436463Y-93091866D01*
X170436461Y-93091862D01*
X170365276Y-92985327D01*
X170365273Y-92985323D01*
X170274672Y-92894722D01*
X170274668Y-92894719D01*
X170168133Y-92823534D01*
X170168124Y-92823529D01*
X170049744Y-92774495D01*
X170049738Y-92774493D01*
X169924071Y-92749496D01*
X169924069Y-92749496D01*
X169795931Y-92749496D01*
X169795929Y-92749496D01*
X169670261Y-92774493D01*
X169670255Y-92774495D01*
X169551875Y-92823529D01*
X169551866Y-92823534D01*
X169445331Y-92894719D01*
X169445327Y-92894722D01*
X169354726Y-92985323D01*
X169354723Y-92985327D01*
X169283538Y-93091862D01*
X169283533Y-93091871D01*
X169234499Y-93210251D01*
X169234497Y-93210257D01*
X169209500Y-93335924D01*
X169209500Y-93335927D01*
X169209500Y-93464065D01*
X169209500Y-93464067D01*
X169209499Y-93464067D01*
X163006081Y-93464067D01*
X163005995Y-93329915D01*
X163004310Y-90707520D01*
X186559498Y-90707520D01*
X186559498Y-90852470D01*
X186597014Y-90992480D01*
X186597015Y-90992483D01*
X186669486Y-91118006D01*
X186669488Y-91118008D01*
X186669489Y-91118010D01*
X186771983Y-91220504D01*
X186771984Y-91220505D01*
X186771986Y-91220506D01*
X186897509Y-91292977D01*
X186897510Y-91292977D01*
X186897513Y-91292979D01*
X187037523Y-91330495D01*
X187037526Y-91330495D01*
X187182470Y-91330495D01*
X187182473Y-91330495D01*
X187322483Y-91292979D01*
X187448013Y-91220504D01*
X187550507Y-91118010D01*
X187622982Y-90992480D01*
X187660498Y-90852470D01*
X187660498Y-90707520D01*
X192339500Y-90707520D01*
X192339500Y-90852470D01*
X192377016Y-90992480D01*
X192377017Y-90992483D01*
X192449488Y-91118006D01*
X192449490Y-91118008D01*
X192449491Y-91118010D01*
X192551985Y-91220504D01*
X192551986Y-91220505D01*
X192551988Y-91220506D01*
X192677511Y-91292977D01*
X192677512Y-91292977D01*
X192677515Y-91292979D01*
X192817525Y-91330495D01*
X192817528Y-91330495D01*
X192962472Y-91330495D01*
X192962475Y-91330495D01*
X193102485Y-91292979D01*
X193228015Y-91220504D01*
X193330509Y-91118010D01*
X193402984Y-90992480D01*
X193440500Y-90852470D01*
X193440500Y-90707520D01*
X193402984Y-90567510D01*
X193330509Y-90441980D01*
X193228015Y-90339486D01*
X193228013Y-90339485D01*
X193228011Y-90339483D01*
X193102488Y-90267012D01*
X193102489Y-90267012D01*
X193091006Y-90263935D01*
X192962475Y-90229495D01*
X192817525Y-90229495D01*
X192688993Y-90263935D01*
X192677511Y-90267012D01*
X192551988Y-90339483D01*
X192551982Y-90339488D01*
X192449493Y-90441977D01*
X192449488Y-90441983D01*
X192377017Y-90567506D01*
X192377016Y-90567510D01*
X192339500Y-90707520D01*
X187660498Y-90707520D01*
X187622982Y-90567510D01*
X187550507Y-90441980D01*
X187448013Y-90339486D01*
X187448011Y-90339485D01*
X187448009Y-90339483D01*
X187322486Y-90267012D01*
X187322487Y-90267012D01*
X187311004Y-90263935D01*
X187182473Y-90229495D01*
X187037523Y-90229495D01*
X186908991Y-90263935D01*
X186897509Y-90267012D01*
X186771986Y-90339483D01*
X186771980Y-90339488D01*
X186669491Y-90441977D01*
X186669486Y-90441983D01*
X186597015Y-90567506D01*
X186597014Y-90567510D01*
X186559498Y-90707520D01*
X163004310Y-90707520D01*
X163004305Y-90699473D01*
X163002714Y-88224825D01*
X176164259Y-88224825D01*
X176164259Y-88369775D01*
X176190108Y-88466243D01*
X176201776Y-88509788D01*
X176274247Y-88635311D01*
X176274249Y-88635313D01*
X176274250Y-88635315D01*
X176376744Y-88737809D01*
X176376745Y-88737810D01*
X176376747Y-88737811D01*
X176502270Y-88810282D01*
X176502271Y-88810282D01*
X176502274Y-88810284D01*
X176642284Y-88847800D01*
X176642287Y-88847800D01*
X176787231Y-88847800D01*
X176787234Y-88847800D01*
X176927244Y-88810284D01*
X177052774Y-88737809D01*
X177155268Y-88635315D01*
X177227743Y-88509785D01*
X177265259Y-88369775D01*
X177265259Y-88224825D01*
X177227743Y-88084815D01*
X177155268Y-87959285D01*
X177052774Y-87856791D01*
X177052772Y-87856790D01*
X177052770Y-87856788D01*
X176927247Y-87784317D01*
X176927248Y-87784317D01*
X176912036Y-87780241D01*
X176787234Y-87746800D01*
X176642284Y-87746800D01*
X176517482Y-87780241D01*
X176502270Y-87784317D01*
X176376747Y-87856788D01*
X176376741Y-87856793D01*
X176274252Y-87959282D01*
X176274247Y-87959288D01*
X176201776Y-88084811D01*
X176201775Y-88084815D01*
X176164259Y-88224825D01*
X163002714Y-88224825D01*
X163002709Y-88216778D01*
X163001043Y-85624579D01*
X163020684Y-85557527D01*
X163073459Y-85511738D01*
X163125043Y-85500499D01*
X204909439Y-85500499D01*
X204934104Y-85500499D01*
X204934105Y-85500500D01*
G37*
%TD.AperFunction*%
%TD*%
%TA.AperFunction,Conductor*%
%TO.N,GNDS*%
G36*
X159943242Y-85520184D02*
G01*
X159988997Y-85572988D01*
X160000203Y-85624483D01*
X160003630Y-112999999D01*
X160003630Y-112999998D01*
X160003631Y-113000000D01*
X163946214Y-112998155D01*
X164013263Y-113017808D01*
X164033930Y-113034450D01*
X164330247Y-113330607D01*
X164363748Y-113391921D01*
X164358782Y-113461614D01*
X164316926Y-113517559D01*
X164290042Y-113532873D01*
X164191877Y-113573534D01*
X164191867Y-113573539D01*
X164085332Y-113644724D01*
X164085328Y-113644727D01*
X163994727Y-113735328D01*
X163994724Y-113735332D01*
X163923539Y-113841867D01*
X163923534Y-113841876D01*
X163874500Y-113960256D01*
X163874498Y-113960262D01*
X163849501Y-114085929D01*
X163849501Y-114085932D01*
X163849501Y-114214070D01*
X163849501Y-114214072D01*
X163849500Y-114214072D01*
X163874498Y-114339739D01*
X163874500Y-114339745D01*
X163923534Y-114458125D01*
X163923539Y-114458134D01*
X163994724Y-114564669D01*
X163994727Y-114564673D01*
X164085328Y-114655274D01*
X164085332Y-114655277D01*
X164191867Y-114726462D01*
X164191873Y-114726465D01*
X164191874Y-114726466D01*
X164310257Y-114775502D01*
X164310261Y-114775502D01*
X164310262Y-114775503D01*
X164435929Y-114800501D01*
X164435932Y-114800501D01*
X164564072Y-114800501D01*
X164648616Y-114783683D01*
X164689745Y-114775502D01*
X164808128Y-114726466D01*
X164914670Y-114655277D01*
X165005277Y-114564670D01*
X165076466Y-114458128D01*
X165117284Y-114359583D01*
X165161124Y-114305180D01*
X165227418Y-114283115D01*
X165295118Y-114300394D01*
X165319500Y-114319329D01*
X165655626Y-114655274D01*
X165963307Y-114962790D01*
X165996808Y-115024104D01*
X165999649Y-115050486D01*
X165999994Y-119940109D01*
X165980314Y-120007150D01*
X165963680Y-120027795D01*
X165959491Y-120031984D01*
X165959488Y-120031988D01*
X165887017Y-120157510D01*
X165887016Y-120157514D01*
X165849500Y-120297524D01*
X165849500Y-120442474D01*
X165887016Y-120582484D01*
X165887017Y-120582487D01*
X165959488Y-120708010D01*
X165959493Y-120708016D01*
X165963736Y-120712259D01*
X165997221Y-120773582D01*
X166000055Y-120799931D01*
X166000084Y-121210019D01*
X165980404Y-121277060D01*
X165963770Y-121297705D01*
X165959491Y-121301984D01*
X165959488Y-121301988D01*
X165887017Y-121427510D01*
X165887016Y-121427514D01*
X165849500Y-121567524D01*
X165849500Y-121712474D01*
X165878178Y-121819500D01*
X165887017Y-121852487D01*
X165959488Y-121978010D01*
X165959493Y-121978016D01*
X165963826Y-121982349D01*
X165997311Y-122043672D01*
X166000145Y-122070021D01*
X166000450Y-126375187D01*
X165980770Y-126442228D01*
X165927969Y-126487987D01*
X165876458Y-126499196D01*
X165786663Y-126499202D01*
X165719623Y-126479522D01*
X165673864Y-126426721D01*
X165663916Y-126357563D01*
X165665038Y-126351010D01*
X165682332Y-126264071D01*
X165682332Y-126135928D01*
X165657334Y-126010261D01*
X165657333Y-126010260D01*
X165657333Y-126010256D01*
X165619406Y-125918692D01*
X165608298Y-125891875D01*
X165608293Y-125891866D01*
X165537108Y-125785331D01*
X165537105Y-125785327D01*
X165446504Y-125694726D01*
X165446500Y-125694723D01*
X165339965Y-125623538D01*
X165339956Y-125623533D01*
X165221576Y-125574499D01*
X165221570Y-125574497D01*
X165095903Y-125549500D01*
X165095901Y-125549500D01*
X164967763Y-125549500D01*
X164967761Y-125549500D01*
X164842093Y-125574497D01*
X164842087Y-125574499D01*
X164723707Y-125623533D01*
X164723698Y-125623538D01*
X164617163Y-125694723D01*
X164617159Y-125694726D01*
X164526558Y-125785327D01*
X164526555Y-125785331D01*
X164455370Y-125891866D01*
X164455365Y-125891875D01*
X164406331Y-126010255D01*
X164406329Y-126010261D01*
X164381332Y-126135928D01*
X164381332Y-126135931D01*
X164381332Y-126264069D01*
X164381332Y-126264071D01*
X164381331Y-126264071D01*
X164398647Y-126351117D01*
X164392420Y-126420709D01*
X164349557Y-126475886D01*
X164283668Y-126499131D01*
X164277039Y-126499309D01*
X152141696Y-126500166D01*
X152074655Y-126480486D01*
X152028896Y-126427685D01*
X152018948Y-126358528D01*
X152047968Y-126294970D01*
X152079685Y-126268780D01*
X152085352Y-126265509D01*
X152187846Y-126163015D01*
X152260321Y-126037485D01*
X152297837Y-125897475D01*
X152297837Y-125752525D01*
X152260321Y-125612515D01*
X152238372Y-125574499D01*
X152187848Y-125486988D01*
X152187843Y-125486982D01*
X152085354Y-125384493D01*
X152085348Y-125384488D01*
X151959825Y-125312017D01*
X151959826Y-125312017D01*
X151930936Y-125304276D01*
X151819812Y-125274500D01*
X151674862Y-125274500D01*
X151563738Y-125304276D01*
X151534848Y-125312017D01*
X151409325Y-125384488D01*
X151409319Y-125384493D01*
X151306830Y-125486982D01*
X151306825Y-125486988D01*
X151234354Y-125612511D01*
X151234353Y-125612515D01*
X151196837Y-125752525D01*
X151196837Y-125897475D01*
X151234353Y-126037485D01*
X151234354Y-126037488D01*
X151306825Y-126163011D01*
X151306827Y-126163013D01*
X151306828Y-126163015D01*
X151409322Y-126265509D01*
X151412242Y-126267194D01*
X151415082Y-126268835D01*
X151463298Y-126319401D01*
X151476522Y-126388008D01*
X151450554Y-126452873D01*
X151393640Y-126493402D01*
X151353092Y-126500222D01*
X143000527Y-126500812D01*
X143008809Y-134375366D01*
X142989195Y-134442426D01*
X142936439Y-134488236D01*
X142884809Y-134499496D01*
X115002614Y-134499496D01*
X114997205Y-134499378D01*
X114742012Y-134488236D01*
X114613247Y-134482613D01*
X114602474Y-134481671D01*
X114304374Y-134442426D01*
X114224041Y-134431850D01*
X114213388Y-134429972D01*
X113967075Y-134375366D01*
X113840726Y-134347355D01*
X113830283Y-134344557D01*
X113466239Y-134229773D01*
X113456075Y-134226074D01*
X113441092Y-134219868D01*
X113251237Y-134141227D01*
X113103427Y-134080002D01*
X113093623Y-134075430D01*
X112755057Y-133899184D01*
X112745689Y-133893776D01*
X112423754Y-133688681D01*
X112414893Y-133682476D01*
X112205978Y-133522170D01*
X112112072Y-133450113D01*
X112103789Y-133443163D01*
X111822364Y-133185284D01*
X111814715Y-133177635D01*
X111556898Y-132896278D01*
X111556689Y-132896050D01*
X111556627Y-132895982D01*
X111549882Y-132887923D01*
X111521793Y-132851317D01*
X111496682Y-132818592D01*
X121248500Y-132818592D01*
X121248500Y-132981407D01*
X121280259Y-133141073D01*
X121280262Y-133141082D01*
X121342562Y-133291490D01*
X121342563Y-133291492D01*
X121433015Y-133426862D01*
X121433018Y-133426866D01*
X121548133Y-133541981D01*
X121548137Y-133541984D01*
X121683505Y-133632435D01*
X121683506Y-133632435D01*
X121683507Y-133632436D01*
X121683509Y-133632437D01*
X121783781Y-133673970D01*
X121833919Y-133694738D01*
X121833921Y-133694738D01*
X121833926Y-133694740D01*
X121993592Y-133726499D01*
X121993595Y-133726500D01*
X121993597Y-133726500D01*
X122156405Y-133726500D01*
X122156406Y-133726499D01*
X122209629Y-133715912D01*
X122316073Y-133694740D01*
X122316076Y-133694738D01*
X122316081Y-133694738D01*
X122466495Y-133632435D01*
X122601863Y-133541984D01*
X122716984Y-133426863D01*
X122807435Y-133291495D01*
X122869738Y-133141081D01*
X122875248Y-133113384D01*
X122901499Y-132981407D01*
X122901500Y-132981405D01*
X122901500Y-132818594D01*
X122901499Y-132818592D01*
X122869740Y-132658926D01*
X122869737Y-132658917D01*
X122807437Y-132508509D01*
X122807436Y-132508507D01*
X122717209Y-132373473D01*
X122716983Y-132373135D01*
X122653296Y-132309448D01*
X131424500Y-132309448D01*
X131424500Y-132490551D01*
X131452829Y-132669410D01*
X131508787Y-132841636D01*
X131508788Y-132841639D01*
X131591006Y-133002997D01*
X131697441Y-133149494D01*
X131697445Y-133149499D01*
X131825500Y-133277554D01*
X131825505Y-133277558D01*
X131904019Y-133334601D01*
X131972006Y-133383996D01*
X132043967Y-133420662D01*
X132133360Y-133466211D01*
X132133363Y-133466212D01*
X132219476Y-133494191D01*
X132305591Y-133522171D01*
X132388429Y-133535291D01*
X132484449Y-133550500D01*
X132484454Y-133550500D01*
X132665551Y-133550500D01*
X132752259Y-133536765D01*
X132844409Y-133522171D01*
X133016639Y-133466211D01*
X133177994Y-133383996D01*
X133324501Y-133277553D01*
X133452553Y-133149501D01*
X133558996Y-133002994D01*
X133641211Y-132841639D01*
X133697171Y-132669409D01*
X133711927Y-132576245D01*
X133725500Y-132490551D01*
X133725500Y-132309448D01*
X139044500Y-132309448D01*
X139044500Y-132490551D01*
X139072829Y-132669410D01*
X139128787Y-132841636D01*
X139128788Y-132841639D01*
X139211006Y-133002997D01*
X139317441Y-133149494D01*
X139317445Y-133149499D01*
X139445500Y-133277554D01*
X139445505Y-133277558D01*
X139524019Y-133334601D01*
X139592006Y-133383996D01*
X139663967Y-133420662D01*
X139753360Y-133466211D01*
X139753363Y-133466212D01*
X139839476Y-133494191D01*
X139925591Y-133522171D01*
X140008429Y-133535291D01*
X140104449Y-133550500D01*
X140104454Y-133550500D01*
X140285551Y-133550500D01*
X140372259Y-133536765D01*
X140464409Y-133522171D01*
X140636639Y-133466211D01*
X140797994Y-133383996D01*
X140944501Y-133277553D01*
X141072553Y-133149501D01*
X141178996Y-133002994D01*
X141261211Y-132841639D01*
X141317171Y-132669409D01*
X141331927Y-132576245D01*
X141345500Y-132490551D01*
X141345500Y-132309448D01*
X141323027Y-132167565D01*
X141317171Y-132130591D01*
X141261211Y-131958361D01*
X141261211Y-131958360D01*
X141224856Y-131887011D01*
X141178996Y-131797006D01*
X141151869Y-131759669D01*
X141072558Y-131650505D01*
X141072554Y-131650500D01*
X140944499Y-131522445D01*
X140944494Y-131522441D01*
X140797997Y-131416006D01*
X140797996Y-131416005D01*
X140797994Y-131416004D01*
X140746300Y-131389664D01*
X140636639Y-131333788D01*
X140636636Y-131333787D01*
X140464410Y-131277829D01*
X140285551Y-131249500D01*
X140285546Y-131249500D01*
X140104454Y-131249500D01*
X140104449Y-131249500D01*
X139925589Y-131277829D01*
X139753363Y-131333787D01*
X139753360Y-131333788D01*
X139592002Y-131416006D01*
X139445505Y-131522441D01*
X139445500Y-131522445D01*
X139317445Y-131650500D01*
X139317441Y-131650505D01*
X139211006Y-131797002D01*
X139128788Y-131958360D01*
X139128787Y-131958363D01*
X139072829Y-132130589D01*
X139044500Y-132309448D01*
X133725500Y-132309448D01*
X133703027Y-132167565D01*
X133697171Y-132130591D01*
X133641211Y-131958361D01*
X133641211Y-131958360D01*
X133604856Y-131887011D01*
X133558996Y-131797006D01*
X133531869Y-131759669D01*
X133452558Y-131650505D01*
X133452554Y-131650500D01*
X133324499Y-131522445D01*
X133324494Y-131522441D01*
X133177997Y-131416006D01*
X133177996Y-131416005D01*
X133177994Y-131416004D01*
X133126300Y-131389664D01*
X133016639Y-131333788D01*
X133016636Y-131333787D01*
X132844410Y-131277829D01*
X132665551Y-131249500D01*
X132665546Y-131249500D01*
X132484454Y-131249500D01*
X132484449Y-131249500D01*
X132305589Y-131277829D01*
X132133363Y-131333787D01*
X132133360Y-131333788D01*
X131972002Y-131416006D01*
X131825505Y-131522441D01*
X131825500Y-131522445D01*
X131697445Y-131650500D01*
X131697441Y-131650505D01*
X131591006Y-131797002D01*
X131508788Y-131958360D01*
X131508787Y-131958363D01*
X131452829Y-132130589D01*
X131424500Y-132309448D01*
X122653296Y-132309448D01*
X122601866Y-132258018D01*
X122601862Y-132258015D01*
X122466492Y-132167563D01*
X122466490Y-132167562D01*
X122316082Y-132105262D01*
X122316073Y-132105259D01*
X122156406Y-132073500D01*
X122156403Y-132073500D01*
X121993597Y-132073500D01*
X121993594Y-132073500D01*
X121833926Y-132105259D01*
X121833917Y-132105262D01*
X121683509Y-132167562D01*
X121683507Y-132167563D01*
X121548137Y-132258015D01*
X121548133Y-132258018D01*
X121433018Y-132373133D01*
X121433015Y-132373137D01*
X121342563Y-132508507D01*
X121342562Y-132508509D01*
X121280262Y-132658917D01*
X121280259Y-132658926D01*
X121248500Y-132818592D01*
X111496682Y-132818592D01*
X111317523Y-132585106D01*
X111311318Y-132576245D01*
X111268165Y-132508509D01*
X111106222Y-132254309D01*
X111100815Y-132244942D01*
X111029006Y-132106998D01*
X110924566Y-131906370D01*
X110919997Y-131896572D01*
X110900497Y-131849495D01*
X110773919Y-131543909D01*
X110770230Y-131533774D01*
X110655437Y-131169701D01*
X110652648Y-131159289D01*
X110570024Y-130786594D01*
X110568152Y-130775975D01*
X110518326Y-130397505D01*
X110517386Y-130386773D01*
X110500618Y-130002702D01*
X110500500Y-129997294D01*
X110500500Y-129934108D01*
X110500499Y-129934107D01*
X110500499Y-124376993D01*
X146199492Y-124376993D01*
X146199492Y-124384096D01*
X146199492Y-124449988D01*
X146199492Y-124542699D01*
X146233562Y-124724962D01*
X146300543Y-124897858D01*
X146300545Y-124897864D01*
X146398153Y-125055506D01*
X146398156Y-125055511D01*
X146523068Y-125192533D01*
X146523071Y-125192536D01*
X146619015Y-125264990D01*
X146671037Y-125304275D01*
X146671045Y-125304280D01*
X146837010Y-125386921D01*
X146837014Y-125386922D01*
X146837021Y-125386926D01*
X147015363Y-125437669D01*
X147184334Y-125453326D01*
X147199992Y-125454777D01*
X147199993Y-125454777D01*
X147384622Y-125437668D01*
X147562964Y-125386925D01*
X147728945Y-125304276D01*
X147876913Y-125192535D01*
X148001830Y-125055507D01*
X148099440Y-124897859D01*
X148166421Y-124724960D01*
X148200491Y-124542697D01*
X148200491Y-124524308D01*
X148200499Y-124524189D01*
X148200499Y-124064073D01*
X159649498Y-124064073D01*
X159674496Y-124189740D01*
X159674498Y-124189746D01*
X159723532Y-124308126D01*
X159723537Y-124308135D01*
X159794722Y-124414670D01*
X159794725Y-124414674D01*
X159885326Y-124505275D01*
X159885330Y-124505278D01*
X159991865Y-124576463D01*
X159991871Y-124576466D01*
X159991872Y-124576467D01*
X160110255Y-124625503D01*
X160110259Y-124625503D01*
X160110260Y-124625504D01*
X160235927Y-124650502D01*
X160235930Y-124650502D01*
X160364070Y-124650502D01*
X160448614Y-124633684D01*
X160489743Y-124625503D01*
X160608126Y-124576467D01*
X160714668Y-124505278D01*
X160805275Y-124414671D01*
X160876464Y-124308129D01*
X160925500Y-124189746D01*
X160950499Y-124064071D01*
X160950499Y-123935933D01*
X160950499Y-123935930D01*
X160925501Y-123810263D01*
X160925500Y-123810262D01*
X160925500Y-123810258D01*
X160876464Y-123691875D01*
X160876463Y-123691874D01*
X160876460Y-123691868D01*
X160805275Y-123585333D01*
X160805272Y-123585329D01*
X160714671Y-123494728D01*
X160714667Y-123494725D01*
X160608132Y-123423540D01*
X160608123Y-123423535D01*
X160489743Y-123374501D01*
X160489737Y-123374499D01*
X160364070Y-123349502D01*
X160364068Y-123349502D01*
X160235930Y-123349502D01*
X160235928Y-123349502D01*
X160110260Y-123374499D01*
X160110254Y-123374501D01*
X159991874Y-123423535D01*
X159991865Y-123423540D01*
X159885330Y-123494725D01*
X159885326Y-123494728D01*
X159794725Y-123585329D01*
X159794722Y-123585333D01*
X159723537Y-123691868D01*
X159723532Y-123691877D01*
X159674498Y-123810257D01*
X159674496Y-123810263D01*
X159649499Y-123935930D01*
X159649499Y-123935933D01*
X159649499Y-124064071D01*
X159649499Y-124064073D01*
X159649498Y-124064073D01*
X148200499Y-124064073D01*
X148200499Y-122297525D01*
X155549500Y-122297525D01*
X155549500Y-122442475D01*
X155579607Y-122554833D01*
X155587017Y-122582488D01*
X155659488Y-122708011D01*
X155659490Y-122708013D01*
X155659491Y-122708015D01*
X155761985Y-122810509D01*
X155761986Y-122810510D01*
X155761988Y-122810511D01*
X155887511Y-122882982D01*
X155887512Y-122882982D01*
X155887515Y-122882984D01*
X156027525Y-122920500D01*
X156027528Y-122920500D01*
X156172472Y-122920500D01*
X156172475Y-122920500D01*
X156312485Y-122882984D01*
X156438015Y-122810509D01*
X156540509Y-122708015D01*
X156612984Y-122582485D01*
X156650500Y-122442475D01*
X156650500Y-122297525D01*
X156612984Y-122157515D01*
X156610367Y-122152983D01*
X156540511Y-122031988D01*
X156540506Y-122031982D01*
X156438017Y-121929493D01*
X156438011Y-121929488D01*
X156312488Y-121857017D01*
X156312489Y-121857017D01*
X156295583Y-121852487D01*
X156172475Y-121819500D01*
X156027525Y-121819500D01*
X155904417Y-121852487D01*
X155887511Y-121857017D01*
X155761988Y-121929488D01*
X155761982Y-121929493D01*
X155659493Y-122031982D01*
X155659488Y-122031988D01*
X155587017Y-122157511D01*
X155587016Y-122157515D01*
X155549500Y-122297525D01*
X148200499Y-122297525D01*
X148200499Y-122289398D01*
X148200499Y-121199490D01*
X148200499Y-120027525D01*
X151149500Y-120027525D01*
X151149500Y-120172475D01*
X151183007Y-120297524D01*
X151187017Y-120312488D01*
X151259488Y-120438011D01*
X151259490Y-120438013D01*
X151259491Y-120438015D01*
X151361985Y-120540509D01*
X151361986Y-120540510D01*
X151361988Y-120540511D01*
X151487511Y-120612982D01*
X151487512Y-120612982D01*
X151487515Y-120612984D01*
X151627525Y-120650500D01*
X151627528Y-120650500D01*
X151772472Y-120650500D01*
X151772475Y-120650500D01*
X151912485Y-120612984D01*
X152038015Y-120540509D01*
X152050999Y-120527525D01*
X153949500Y-120527525D01*
X153949500Y-120672475D01*
X153976592Y-120773582D01*
X153987017Y-120812488D01*
X154059488Y-120938011D01*
X154059490Y-120938013D01*
X154059491Y-120938015D01*
X154161985Y-121040509D01*
X154161986Y-121040510D01*
X154161988Y-121040511D01*
X154287511Y-121112982D01*
X154287512Y-121112982D01*
X154287515Y-121112984D01*
X154427525Y-121150500D01*
X154427528Y-121150500D01*
X154572472Y-121150500D01*
X154572475Y-121150500D01*
X154712485Y-121112984D01*
X154838015Y-121040509D01*
X154940509Y-120938015D01*
X155012984Y-120812485D01*
X155050500Y-120672475D01*
X155050500Y-120527525D01*
X155012984Y-120387515D01*
X154969665Y-120312485D01*
X154940511Y-120261988D01*
X154940506Y-120261982D01*
X154838017Y-120159493D01*
X154838011Y-120159488D01*
X154712488Y-120087017D01*
X154712489Y-120087017D01*
X154701006Y-120083940D01*
X154572475Y-120049500D01*
X154427525Y-120049500D01*
X154298993Y-120083940D01*
X154287511Y-120087017D01*
X154161988Y-120159488D01*
X154161982Y-120159493D01*
X154059493Y-120261982D01*
X154059488Y-120261988D01*
X153987017Y-120387511D01*
X153987016Y-120387515D01*
X153949500Y-120527525D01*
X152050999Y-120527525D01*
X152140509Y-120438015D01*
X152212984Y-120312485D01*
X152250500Y-120172475D01*
X152250500Y-120027525D01*
X152212984Y-119887515D01*
X152140509Y-119761985D01*
X152038015Y-119659491D01*
X152038013Y-119659490D01*
X152038011Y-119659488D01*
X151912488Y-119587017D01*
X151912489Y-119587017D01*
X151901006Y-119583940D01*
X151772475Y-119549500D01*
X151627525Y-119549500D01*
X151498993Y-119583940D01*
X151487511Y-119587017D01*
X151361988Y-119659488D01*
X151361982Y-119659493D01*
X151259493Y-119761982D01*
X151259488Y-119761988D01*
X151187017Y-119887511D01*
X151187016Y-119887515D01*
X151149500Y-120027525D01*
X148200499Y-120027525D01*
X148200498Y-117084108D01*
X148200498Y-117057292D01*
X148166428Y-116875029D01*
X148166426Y-116875025D01*
X148099447Y-116702130D01*
X148099447Y-116702129D01*
X148002252Y-116545154D01*
X148001841Y-116544490D01*
X148001839Y-116544487D01*
X148001836Y-116544482D01*
X147876920Y-116407455D01*
X147751821Y-116312984D01*
X147728954Y-116295715D01*
X147728946Y-116295710D01*
X147562981Y-116213069D01*
X147562968Y-116213064D01*
X147384628Y-116162321D01*
X147200001Y-116145213D01*
X147200000Y-116145213D01*
X147015374Y-116162320D01*
X146837027Y-116213063D01*
X146671055Y-116295708D01*
X146671048Y-116295712D01*
X146523077Y-116407453D01*
X146398164Y-116544477D01*
X146300552Y-116702124D01*
X146300551Y-116702126D01*
X146233571Y-116875020D01*
X146199499Y-117057290D01*
X146199499Y-124376855D01*
X146199492Y-124376993D01*
X110500499Y-124376993D01*
X110500499Y-119351007D01*
X113369500Y-119351007D01*
X113369500Y-119748983D01*
X113370781Y-119761985D01*
X113408507Y-120145041D01*
X113467670Y-120442471D01*
X113486150Y-120535373D01*
X113487707Y-120540506D01*
X113601676Y-120916214D01*
X113610707Y-120938017D01*
X113751143Y-121277060D01*
X113753976Y-121283898D01*
X113753978Y-121283903D01*
X113941573Y-121634868D01*
X113941584Y-121634886D01*
X114162678Y-121965776D01*
X114162688Y-121965790D01*
X114415162Y-122273430D01*
X114696564Y-122554832D01*
X114696569Y-122554836D01*
X114696570Y-122554837D01*
X115004210Y-122807311D01*
X115335115Y-123028415D01*
X115335124Y-123028420D01*
X115335126Y-123028421D01*
X115686091Y-123216016D01*
X115686093Y-123216016D01*
X115686099Y-123216020D01*
X116053782Y-123368319D01*
X116434622Y-123483845D01*
X116824951Y-123561487D01*
X117221012Y-123600495D01*
X117221015Y-123600495D01*
X117618985Y-123600495D01*
X117618988Y-123600495D01*
X118015049Y-123561487D01*
X118405378Y-123483845D01*
X118786218Y-123368319D01*
X119153901Y-123216020D01*
X119504885Y-123028415D01*
X119835790Y-122807311D01*
X120143430Y-122554837D01*
X120424842Y-122273425D01*
X120677316Y-121965785D01*
X120898420Y-121634880D01*
X121086025Y-121283896D01*
X121238324Y-120916213D01*
X121353850Y-120535373D01*
X121431492Y-120145044D01*
X121470500Y-119748983D01*
X121470500Y-119351008D01*
X132419500Y-119351008D01*
X132419500Y-119748984D01*
X132420781Y-119761988D01*
X132458507Y-120145042D01*
X132536149Y-120535370D01*
X132651676Y-120916215D01*
X132803976Y-121283899D01*
X132803978Y-121283904D01*
X132991573Y-121634869D01*
X132991577Y-121634876D01*
X132991580Y-121634881D01*
X133212683Y-121965785D01*
X133212688Y-121965791D01*
X133465162Y-122273431D01*
X133746564Y-122554833D01*
X133746569Y-122554837D01*
X133746570Y-122554838D01*
X134054210Y-122807312D01*
X134385115Y-123028416D01*
X134385124Y-123028421D01*
X134385126Y-123028422D01*
X134736091Y-123216017D01*
X134736093Y-123216017D01*
X134736099Y-123216021D01*
X135103782Y-123368320D01*
X135484622Y-123483846D01*
X135874951Y-123561488D01*
X136271012Y-123600496D01*
X136271015Y-123600496D01*
X136668985Y-123600496D01*
X136668988Y-123600496D01*
X137065049Y-123561488D01*
X137455378Y-123483846D01*
X137836218Y-123368320D01*
X138203901Y-123216021D01*
X138554885Y-123028416D01*
X138885790Y-122807312D01*
X139193430Y-122554838D01*
X139474842Y-122273426D01*
X139727316Y-121965786D01*
X139948420Y-121634881D01*
X140136025Y-121283897D01*
X140288324Y-120916214D01*
X140403850Y-120535374D01*
X140481492Y-120145045D01*
X140520500Y-119748984D01*
X140520500Y-119351008D01*
X140481492Y-118954947D01*
X140403850Y-118564618D01*
X140288324Y-118183778D01*
X140136025Y-117816095D01*
X139948420Y-117465111D01*
X139727316Y-117134206D01*
X139474842Y-116826566D01*
X139474841Y-116826565D01*
X139474837Y-116826560D01*
X139193435Y-116545158D01*
X138885795Y-116292684D01*
X138885794Y-116292683D01*
X138885790Y-116292680D01*
X138554885Y-116071576D01*
X138554880Y-116071573D01*
X138554873Y-116071569D01*
X138203908Y-115883974D01*
X138203903Y-115883972D01*
X138203898Y-115883970D01*
X137931633Y-115771194D01*
X137836219Y-115731672D01*
X137504932Y-115631178D01*
X137455378Y-115616146D01*
X137455375Y-115616145D01*
X137455374Y-115616145D01*
X137065046Y-115538503D01*
X136786009Y-115511021D01*
X136668988Y-115499496D01*
X136271012Y-115499496D01*
X136164483Y-115509988D01*
X135874953Y-115538503D01*
X135484625Y-115616145D01*
X135103780Y-115731672D01*
X134736096Y-115883972D01*
X134736091Y-115883974D01*
X134385126Y-116071569D01*
X134385108Y-116071580D01*
X134054218Y-116292674D01*
X134054204Y-116292684D01*
X133746564Y-116545158D01*
X133465162Y-116826560D01*
X133212688Y-117134200D01*
X133212678Y-117134214D01*
X132991584Y-117465104D01*
X132991573Y-117465122D01*
X132803978Y-117816087D01*
X132803976Y-117816092D01*
X132651676Y-118183776D01*
X132536149Y-118564621D01*
X132458507Y-118954949D01*
X132449250Y-119048943D01*
X132419500Y-119351008D01*
X121470500Y-119351008D01*
X121470500Y-119351007D01*
X121431492Y-118954946D01*
X121353850Y-118564617D01*
X121238324Y-118183777D01*
X121086025Y-117816094D01*
X120898426Y-117465122D01*
X120898426Y-117465121D01*
X120898425Y-117465119D01*
X120898420Y-117465110D01*
X120677316Y-117134205D01*
X120424842Y-116826565D01*
X120424841Y-116826564D01*
X120424837Y-116826559D01*
X120143435Y-116545157D01*
X119835795Y-116292683D01*
X119835791Y-116292680D01*
X119835790Y-116292679D01*
X119504885Y-116071575D01*
X119504880Y-116071572D01*
X119504873Y-116071568D01*
X119153908Y-115883973D01*
X119153903Y-115883971D01*
X119126149Y-115872475D01*
X118970814Y-115808133D01*
X118786219Y-115731671D01*
X118405381Y-115616146D01*
X118405378Y-115616145D01*
X118405375Y-115616144D01*
X118405374Y-115616144D01*
X118015046Y-115538502D01*
X117736009Y-115511020D01*
X117618988Y-115499495D01*
X117221012Y-115499495D01*
X117114483Y-115509987D01*
X116824953Y-115538502D01*
X116434625Y-115616144D01*
X116053780Y-115731671D01*
X115686096Y-115883971D01*
X115686091Y-115883973D01*
X115335126Y-116071568D01*
X115335108Y-116071579D01*
X115004218Y-116292673D01*
X115004204Y-116292683D01*
X114696564Y-116545157D01*
X114415162Y-116826559D01*
X114162688Y-117134199D01*
X114162678Y-117134213D01*
X113941584Y-117465103D01*
X113941573Y-117465121D01*
X113753978Y-117816086D01*
X113753976Y-117816091D01*
X113601676Y-118183775D01*
X113486149Y-118564620D01*
X113408507Y-118954948D01*
X113399250Y-119048943D01*
X113369500Y-119351007D01*
X110500499Y-119351007D01*
X110500499Y-111454899D01*
X135477097Y-111454899D01*
X135477097Y-111454902D01*
X135477097Y-111454904D01*
X135485663Y-111640128D01*
X135528118Y-111820625D01*
X135565567Y-111905436D01*
X135603016Y-111990246D01*
X135603017Y-111990247D01*
X135707809Y-112143218D01*
X135773367Y-112208773D01*
X135773368Y-112208774D01*
X135773369Y-112208775D01*
X142928290Y-119363695D01*
X142928292Y-119363699D01*
X142928293Y-119363699D01*
X142980671Y-119416081D01*
X142980678Y-119416087D01*
X143133649Y-119520883D01*
X143303272Y-119595785D01*
X143483770Y-119638243D01*
X143668996Y-119646811D01*
X143852643Y-119621197D01*
X144028456Y-119562273D01*
X144190448Y-119472045D01*
X144333102Y-119353588D01*
X144335245Y-119351008D01*
X144364261Y-119316063D01*
X144451560Y-119210935D01*
X144541787Y-119048943D01*
X144600712Y-118873130D01*
X144626327Y-118689483D01*
X144617760Y-118504257D01*
X144575302Y-118323758D01*
X144500400Y-118154135D01*
X144500396Y-118154129D01*
X144500394Y-118154125D01*
X144395609Y-118001169D01*
X144395606Y-118001166D01*
X144395605Y-118001164D01*
X144395598Y-118001157D01*
X144342347Y-117947909D01*
X144342343Y-117947906D01*
X141960221Y-115565785D01*
X141880667Y-115486231D01*
X149810015Y-115486231D01*
X149810015Y-115631181D01*
X149836942Y-115731671D01*
X149847532Y-115771194D01*
X149920003Y-115896717D01*
X149920005Y-115896719D01*
X149920006Y-115896721D01*
X150022500Y-115999215D01*
X150022501Y-115999216D01*
X150022503Y-115999217D01*
X150148026Y-116071688D01*
X150148027Y-116071688D01*
X150148030Y-116071690D01*
X150288040Y-116109206D01*
X150288043Y-116109206D01*
X150432987Y-116109206D01*
X150432990Y-116109206D01*
X150573000Y-116071690D01*
X150698530Y-115999215D01*
X150801024Y-115896721D01*
X150873499Y-115771191D01*
X150911015Y-115631181D01*
X150911015Y-115564071D01*
X151849499Y-115564071D01*
X151874497Y-115689738D01*
X151874499Y-115689744D01*
X151923533Y-115808124D01*
X151923538Y-115808133D01*
X151994723Y-115914668D01*
X151994726Y-115914672D01*
X152085327Y-116005273D01*
X152085331Y-116005276D01*
X152191866Y-116076461D01*
X152191872Y-116076464D01*
X152191873Y-116076465D01*
X152310256Y-116125501D01*
X152310260Y-116125501D01*
X152310261Y-116125502D01*
X152435928Y-116150500D01*
X152435931Y-116150500D01*
X152564071Y-116150500D01*
X152648615Y-116133682D01*
X152689744Y-116125501D01*
X152808127Y-116076465D01*
X152914669Y-116005276D01*
X153005276Y-115914669D01*
X153076465Y-115808127D01*
X153109852Y-115727525D01*
X158593242Y-115727525D01*
X158593242Y-115872475D01*
X158630758Y-116012485D01*
X158630759Y-116012488D01*
X158703230Y-116138011D01*
X158703232Y-116138013D01*
X158703233Y-116138015D01*
X158805727Y-116240509D01*
X158805728Y-116240510D01*
X158805730Y-116240511D01*
X158931253Y-116312982D01*
X158931254Y-116312982D01*
X158931257Y-116312984D01*
X159071267Y-116350500D01*
X159071270Y-116350500D01*
X159216214Y-116350500D01*
X159216217Y-116350500D01*
X159356227Y-116312984D01*
X159481757Y-116240509D01*
X159584251Y-116138015D01*
X159656726Y-116012485D01*
X159694242Y-115872475D01*
X159694242Y-115727525D01*
X159656726Y-115587515D01*
X159643189Y-115564069D01*
X159584253Y-115461988D01*
X159584248Y-115461982D01*
X159481759Y-115359493D01*
X159481753Y-115359488D01*
X159356230Y-115287017D01*
X159356231Y-115287017D01*
X159344748Y-115283940D01*
X159216217Y-115249500D01*
X159071267Y-115249500D01*
X158942735Y-115283940D01*
X158931253Y-115287017D01*
X158805730Y-115359488D01*
X158805724Y-115359493D01*
X158703235Y-115461982D01*
X158703230Y-115461988D01*
X158630759Y-115587511D01*
X158630758Y-115587515D01*
X158593242Y-115727525D01*
X153109852Y-115727525D01*
X153125501Y-115689744D01*
X153150500Y-115564069D01*
X153150500Y-115435931D01*
X153150500Y-115435928D01*
X153125502Y-115310261D01*
X153125501Y-115310260D01*
X153125501Y-115310256D01*
X153076465Y-115191873D01*
X153076464Y-115191872D01*
X153076461Y-115191866D01*
X153005276Y-115085331D01*
X153005273Y-115085327D01*
X152914672Y-114994726D01*
X152914668Y-114994723D01*
X152808133Y-114923538D01*
X152808124Y-114923533D01*
X152689744Y-114874499D01*
X152689738Y-114874497D01*
X152564071Y-114849500D01*
X152564069Y-114849500D01*
X152435931Y-114849500D01*
X152435929Y-114849500D01*
X152310261Y-114874497D01*
X152310255Y-114874499D01*
X152191875Y-114923533D01*
X152191866Y-114923538D01*
X152085331Y-114994723D01*
X152085327Y-114994726D01*
X151994726Y-115085327D01*
X151994723Y-115085331D01*
X151923538Y-115191866D01*
X151923533Y-115191875D01*
X151874499Y-115310255D01*
X151874497Y-115310261D01*
X151849500Y-115435928D01*
X151849500Y-115435931D01*
X151849500Y-115564069D01*
X151849500Y-115564071D01*
X151849499Y-115564071D01*
X150911015Y-115564071D01*
X150911015Y-115486231D01*
X150873499Y-115346221D01*
X150852737Y-115310261D01*
X150801026Y-115220694D01*
X150801021Y-115220688D01*
X150698532Y-115118199D01*
X150698526Y-115118194D01*
X150573003Y-115045723D01*
X150573004Y-115045723D01*
X150561521Y-115042646D01*
X150432990Y-115008206D01*
X150288040Y-115008206D01*
X150159508Y-115042646D01*
X150148026Y-115045723D01*
X150022503Y-115118194D01*
X150022497Y-115118199D01*
X149920008Y-115220688D01*
X149920003Y-115220694D01*
X149847532Y-115346217D01*
X149847531Y-115346221D01*
X149810015Y-115486231D01*
X141880667Y-115486231D01*
X140608507Y-114214072D01*
X161599499Y-114214072D01*
X161624497Y-114339739D01*
X161624499Y-114339745D01*
X161673533Y-114458125D01*
X161673538Y-114458134D01*
X161744723Y-114564669D01*
X161744726Y-114564673D01*
X161835327Y-114655274D01*
X161835331Y-114655277D01*
X161941866Y-114726462D01*
X161941872Y-114726465D01*
X161941873Y-114726466D01*
X162060256Y-114775502D01*
X162060260Y-114775502D01*
X162060261Y-114775503D01*
X162185928Y-114800501D01*
X162185931Y-114800501D01*
X162314071Y-114800501D01*
X162398615Y-114783683D01*
X162439744Y-114775502D01*
X162558127Y-114726466D01*
X162664669Y-114655277D01*
X162755276Y-114564670D01*
X162826465Y-114458128D01*
X162875501Y-114339745D01*
X162900500Y-114214070D01*
X162900500Y-114085932D01*
X162900500Y-114085929D01*
X162875502Y-113960262D01*
X162875501Y-113960261D01*
X162875501Y-113960257D01*
X162826465Y-113841874D01*
X162826464Y-113841873D01*
X162826461Y-113841867D01*
X162755276Y-113735332D01*
X162755273Y-113735328D01*
X162664672Y-113644727D01*
X162664668Y-113644724D01*
X162558133Y-113573539D01*
X162558124Y-113573534D01*
X162439744Y-113524500D01*
X162439738Y-113524498D01*
X162314071Y-113499501D01*
X162314069Y-113499501D01*
X162185931Y-113499501D01*
X162185929Y-113499501D01*
X162060261Y-113524498D01*
X162060255Y-113524500D01*
X161941875Y-113573534D01*
X161941866Y-113573539D01*
X161835331Y-113644724D01*
X161835327Y-113644727D01*
X161744726Y-113735328D01*
X161744723Y-113735332D01*
X161673538Y-113841867D01*
X161673533Y-113841876D01*
X161624499Y-113960256D01*
X161624497Y-113960262D01*
X161599500Y-114085929D01*
X161599500Y-114085932D01*
X161599500Y-114214070D01*
X161599500Y-114214072D01*
X161599499Y-114214072D01*
X140608507Y-114214072D01*
X140561956Y-114167521D01*
X137185241Y-110790808D01*
X137185240Y-110790807D01*
X137185237Y-110790804D01*
X137122730Y-110728295D01*
X136969759Y-110623503D01*
X136800137Y-110548604D01*
X136692128Y-110523199D01*
X136619642Y-110506149D01*
X136566718Y-110503701D01*
X136434416Y-110497584D01*
X136434414Y-110497584D01*
X136434411Y-110497584D01*
X136250772Y-110523199D01*
X136250771Y-110523199D01*
X136074961Y-110582124D01*
X135912970Y-110672351D01*
X135770323Y-110790804D01*
X135770318Y-110790808D01*
X135651861Y-110933461D01*
X135561637Y-111095448D01*
X135561637Y-111095449D01*
X135502712Y-111271258D01*
X135502712Y-111271259D01*
X135477097Y-111454899D01*
X110500499Y-111454899D01*
X110500499Y-105264071D01*
X155249499Y-105264071D01*
X155274497Y-105389738D01*
X155274499Y-105389744D01*
X155323533Y-105508124D01*
X155323538Y-105508133D01*
X155394723Y-105614668D01*
X155394726Y-105614672D01*
X155485327Y-105705273D01*
X155485331Y-105705276D01*
X155591866Y-105776461D01*
X155591872Y-105776464D01*
X155591873Y-105776465D01*
X155710256Y-105825501D01*
X155710260Y-105825501D01*
X155710261Y-105825502D01*
X155835928Y-105850500D01*
X155835931Y-105850500D01*
X155964071Y-105850500D01*
X156048615Y-105833682D01*
X156089744Y-105825501D01*
X156208127Y-105776465D01*
X156314669Y-105705276D01*
X156405276Y-105614669D01*
X156476465Y-105508127D01*
X156525501Y-105389744D01*
X156550500Y-105264069D01*
X156550500Y-105135931D01*
X156550500Y-105135928D01*
X156525502Y-105010261D01*
X156525501Y-105010260D01*
X156525501Y-105010256D01*
X156476465Y-104891873D01*
X156476464Y-104891872D01*
X156476461Y-104891866D01*
X156405276Y-104785331D01*
X156405273Y-104785327D01*
X156314672Y-104694726D01*
X156314668Y-104694723D01*
X156208133Y-104623538D01*
X156208124Y-104623533D01*
X156089744Y-104574499D01*
X156089738Y-104574497D01*
X155964071Y-104549500D01*
X155964069Y-104549500D01*
X155835931Y-104549500D01*
X155835929Y-104549500D01*
X155710261Y-104574497D01*
X155710255Y-104574499D01*
X155591875Y-104623533D01*
X155591866Y-104623538D01*
X155485331Y-104694723D01*
X155485327Y-104694726D01*
X155394726Y-104785327D01*
X155394723Y-104785331D01*
X155323538Y-104891866D01*
X155323533Y-104891875D01*
X155274499Y-105010255D01*
X155274497Y-105010261D01*
X155249500Y-105135928D01*
X155249500Y-105135931D01*
X155249500Y-105264069D01*
X155249500Y-105264071D01*
X155249499Y-105264071D01*
X110500499Y-105264071D01*
X110500499Y-100301008D01*
X113369500Y-100301008D01*
X113369500Y-100698984D01*
X113374038Y-100745058D01*
X113408507Y-101095042D01*
X113486149Y-101485370D01*
X113601676Y-101866215D01*
X113753976Y-102233899D01*
X113753978Y-102233904D01*
X113941573Y-102584869D01*
X113941577Y-102584876D01*
X113941580Y-102584881D01*
X114162683Y-102915785D01*
X114162688Y-102915791D01*
X114415162Y-103223431D01*
X114696564Y-103504833D01*
X114696569Y-103504837D01*
X114696570Y-103504838D01*
X115004210Y-103757312D01*
X115335115Y-103978416D01*
X115335124Y-103978421D01*
X115335126Y-103978422D01*
X115686091Y-104166017D01*
X115686093Y-104166017D01*
X115686099Y-104166021D01*
X116053782Y-104318320D01*
X116434622Y-104433846D01*
X116824951Y-104511488D01*
X117221012Y-104550496D01*
X117221015Y-104550496D01*
X117618985Y-104550496D01*
X117618988Y-104550496D01*
X118015049Y-104511488D01*
X118405378Y-104433846D01*
X118786218Y-104318320D01*
X119153901Y-104166021D01*
X119504885Y-103978416D01*
X119835790Y-103757312D01*
X120143430Y-103504838D01*
X120424842Y-103223426D01*
X120677316Y-102915786D01*
X120898420Y-102584881D01*
X121086025Y-102233897D01*
X121238324Y-101866214D01*
X121353850Y-101485374D01*
X121431492Y-101095045D01*
X121470500Y-100698984D01*
X121470500Y-100301008D01*
X121470500Y-100301007D01*
X132419500Y-100301007D01*
X132419500Y-100698983D01*
X132423042Y-100734943D01*
X132458507Y-101095041D01*
X132458508Y-101095044D01*
X132536150Y-101485373D01*
X132583855Y-101642638D01*
X132651676Y-101866214D01*
X132727596Y-102049500D01*
X132787749Y-102194724D01*
X132803976Y-102233898D01*
X132803978Y-102233903D01*
X132991573Y-102584868D01*
X132991584Y-102584886D01*
X133212678Y-102915776D01*
X133212688Y-102915790D01*
X133465162Y-103223430D01*
X133746564Y-103504832D01*
X133746569Y-103504836D01*
X133746570Y-103504837D01*
X134054210Y-103757311D01*
X134385115Y-103978415D01*
X134385124Y-103978420D01*
X134385126Y-103978421D01*
X134736091Y-104166016D01*
X134736093Y-104166016D01*
X134736099Y-104166020D01*
X135103782Y-104318319D01*
X135484622Y-104433845D01*
X135874951Y-104511487D01*
X136271012Y-104550495D01*
X136271015Y-104550495D01*
X136668985Y-104550495D01*
X136668988Y-104550495D01*
X137065049Y-104511487D01*
X137455378Y-104433845D01*
X137836218Y-104318319D01*
X138203901Y-104166020D01*
X138554885Y-103978415D01*
X138885790Y-103757311D01*
X139193430Y-103504837D01*
X139474842Y-103223425D01*
X139727316Y-102915785D01*
X139828688Y-102764071D01*
X155649499Y-102764071D01*
X155674497Y-102889738D01*
X155674499Y-102889744D01*
X155723533Y-103008124D01*
X155723538Y-103008133D01*
X155794723Y-103114668D01*
X155794726Y-103114672D01*
X155885327Y-103205273D01*
X155885331Y-103205276D01*
X155991866Y-103276461D01*
X155991872Y-103276464D01*
X155991873Y-103276465D01*
X156110256Y-103325501D01*
X156110260Y-103325501D01*
X156110261Y-103325502D01*
X156235928Y-103350500D01*
X156235931Y-103350500D01*
X156364071Y-103350500D01*
X156448615Y-103333682D01*
X156489744Y-103325501D01*
X156608127Y-103276465D01*
X156714669Y-103205276D01*
X156805276Y-103114669D01*
X156876465Y-103008127D01*
X156925501Y-102889744D01*
X156950500Y-102764069D01*
X156950500Y-102635931D01*
X156950500Y-102635928D01*
X156925502Y-102510261D01*
X156925501Y-102510260D01*
X156925501Y-102510256D01*
X156876465Y-102391873D01*
X156876464Y-102391872D01*
X156876461Y-102391866D01*
X156805276Y-102285331D01*
X156805273Y-102285327D01*
X156714672Y-102194726D01*
X156714668Y-102194723D01*
X156608133Y-102123538D01*
X156608124Y-102123533D01*
X156489744Y-102074499D01*
X156489738Y-102074497D01*
X156364071Y-102049500D01*
X156364069Y-102049500D01*
X156235931Y-102049500D01*
X156235929Y-102049500D01*
X156110261Y-102074497D01*
X156110255Y-102074499D01*
X155991875Y-102123533D01*
X155991866Y-102123538D01*
X155885331Y-102194723D01*
X155885327Y-102194726D01*
X155794726Y-102285327D01*
X155794723Y-102285331D01*
X155723538Y-102391866D01*
X155723533Y-102391875D01*
X155674499Y-102510255D01*
X155674497Y-102510261D01*
X155649500Y-102635928D01*
X155649500Y-102635931D01*
X155649500Y-102764069D01*
X155649500Y-102764071D01*
X155649499Y-102764071D01*
X139828688Y-102764071D01*
X139948420Y-102584880D01*
X140136025Y-102233896D01*
X140288324Y-101866213D01*
X140403850Y-101485373D01*
X140481492Y-101095044D01*
X140520500Y-100698983D01*
X140520500Y-100301007D01*
X140481492Y-99904946D01*
X140403850Y-99514617D01*
X140288324Y-99133777D01*
X140136025Y-98766094D01*
X139948426Y-98415122D01*
X139948426Y-98415121D01*
X139948425Y-98415119D01*
X139948420Y-98415110D01*
X139727316Y-98084205D01*
X139474842Y-97776565D01*
X139474841Y-97776564D01*
X139474837Y-97776559D01*
X139193435Y-97495157D01*
X138885795Y-97242683D01*
X138885791Y-97242680D01*
X138885790Y-97242679D01*
X138554885Y-97021575D01*
X138554880Y-97021572D01*
X138554873Y-97021568D01*
X138203908Y-96833973D01*
X138203903Y-96833971D01*
X137836219Y-96681671D01*
X137612643Y-96613850D01*
X137455378Y-96566145D01*
X137455375Y-96566144D01*
X137455374Y-96566144D01*
X137065046Y-96488502D01*
X136786009Y-96461020D01*
X136668988Y-96449495D01*
X136271012Y-96449495D01*
X136164483Y-96459987D01*
X135874953Y-96488502D01*
X135484625Y-96566144D01*
X135103780Y-96681671D01*
X134736096Y-96833971D01*
X134736091Y-96833973D01*
X134385126Y-97021568D01*
X134385108Y-97021579D01*
X134054218Y-97242673D01*
X134054204Y-97242683D01*
X133746564Y-97495157D01*
X133465162Y-97776559D01*
X133212688Y-98084199D01*
X133212678Y-98084213D01*
X132991584Y-98415103D01*
X132991573Y-98415121D01*
X132803978Y-98766086D01*
X132803976Y-98766091D01*
X132651676Y-99133775D01*
X132536149Y-99514620D01*
X132458507Y-99904948D01*
X132429992Y-100194478D01*
X132419500Y-100301007D01*
X121470500Y-100301007D01*
X121431492Y-99904947D01*
X121353850Y-99514618D01*
X121238324Y-99133778D01*
X121086025Y-98766095D01*
X120898420Y-98415111D01*
X120677316Y-98084206D01*
X120424842Y-97776566D01*
X120424841Y-97776565D01*
X120424837Y-97776560D01*
X120143435Y-97495158D01*
X119835795Y-97242684D01*
X119835794Y-97242683D01*
X119835790Y-97242680D01*
X119504885Y-97021576D01*
X119504880Y-97021573D01*
X119504873Y-97021569D01*
X119153908Y-96833974D01*
X119153903Y-96833972D01*
X119153898Y-96833970D01*
X119046210Y-96789364D01*
X118786219Y-96681672D01*
X118439395Y-96576465D01*
X118405378Y-96566146D01*
X118405375Y-96566145D01*
X118405374Y-96566145D01*
X118015046Y-96488503D01*
X117736009Y-96461021D01*
X117618988Y-96449496D01*
X117221012Y-96449496D01*
X117114483Y-96459988D01*
X116824953Y-96488503D01*
X116434625Y-96566145D01*
X116053780Y-96681672D01*
X115686096Y-96833972D01*
X115686091Y-96833974D01*
X115335126Y-97021569D01*
X115335108Y-97021580D01*
X115004218Y-97242674D01*
X115004204Y-97242684D01*
X114696564Y-97495158D01*
X114415162Y-97776560D01*
X114162688Y-98084200D01*
X114162678Y-98084214D01*
X113941584Y-98415104D01*
X113941573Y-98415122D01*
X113753978Y-98766087D01*
X113753976Y-98766092D01*
X113601676Y-99133776D01*
X113486149Y-99514621D01*
X113408507Y-99904949D01*
X113379992Y-100194479D01*
X113369500Y-100301008D01*
X110500499Y-100301008D01*
X110500499Y-92836258D01*
X135771835Y-92836258D01*
X135771835Y-92836261D01*
X135771835Y-92836263D01*
X135780401Y-93021487D01*
X135822856Y-93201984D01*
X135860305Y-93286795D01*
X135897754Y-93371605D01*
X135897755Y-93371606D01*
X136002547Y-93524577D01*
X136068105Y-93590132D01*
X136068106Y-93590133D01*
X136068107Y-93590134D01*
X143223028Y-100745054D01*
X143223030Y-100745058D01*
X143223031Y-100745058D01*
X143275409Y-100797440D01*
X143275416Y-100797446D01*
X143428387Y-100902242D01*
X143598010Y-100977144D01*
X143778508Y-101019602D01*
X143963734Y-101028170D01*
X144147381Y-101002556D01*
X144323194Y-100943632D01*
X144485186Y-100853404D01*
X144627840Y-100734947D01*
X144746298Y-100592294D01*
X144836525Y-100430302D01*
X144895450Y-100254489D01*
X144921065Y-100070842D01*
X144912498Y-99885616D01*
X144870040Y-99705117D01*
X144795138Y-99535494D01*
X144795134Y-99535488D01*
X144795132Y-99535484D01*
X144690347Y-99382528D01*
X144690337Y-99382516D01*
X144637650Y-99329833D01*
X144637646Y-99329830D01*
X142329383Y-97021568D01*
X139961884Y-94654070D01*
X146699500Y-94654070D01*
X146724498Y-94779737D01*
X146724500Y-94779743D01*
X146773534Y-94898123D01*
X146773539Y-94898132D01*
X146844724Y-95004667D01*
X146844727Y-95004671D01*
X146935328Y-95095272D01*
X146935332Y-95095275D01*
X147041867Y-95166460D01*
X147041873Y-95166463D01*
X147041874Y-95166464D01*
X147160257Y-95215500D01*
X147160261Y-95215500D01*
X147160262Y-95215501D01*
X147285929Y-95240499D01*
X147285932Y-95240499D01*
X147414072Y-95240499D01*
X147498616Y-95223681D01*
X147539745Y-95215500D01*
X147658128Y-95166464D01*
X147764670Y-95095275D01*
X147764674Y-95095270D01*
X147769380Y-95091410D01*
X147770721Y-95093044D01*
X147823612Y-95064147D01*
X147893305Y-95069113D01*
X147929716Y-95092513D01*
X147930622Y-95091410D01*
X147935332Y-95095275D01*
X148041867Y-95166460D01*
X148041873Y-95166463D01*
X148041874Y-95166464D01*
X148160257Y-95215500D01*
X148160261Y-95215500D01*
X148160262Y-95215501D01*
X148285929Y-95240499D01*
X148285932Y-95240499D01*
X148414072Y-95240499D01*
X148498616Y-95223681D01*
X148539745Y-95215500D01*
X148658128Y-95166464D01*
X148764670Y-95095275D01*
X148855277Y-95004668D01*
X148926466Y-94898126D01*
X148975502Y-94779743D01*
X149000501Y-94654068D01*
X149000501Y-94525930D01*
X149000501Y-94525927D01*
X148975503Y-94400260D01*
X148975502Y-94400259D01*
X148975502Y-94400255D01*
X148926466Y-94281872D01*
X148926465Y-94281871D01*
X148926462Y-94281865D01*
X148855277Y-94175330D01*
X148855274Y-94175326D01*
X148764673Y-94084725D01*
X148764669Y-94084722D01*
X148658134Y-94013537D01*
X148658125Y-94013532D01*
X148539745Y-93964498D01*
X148539739Y-93964496D01*
X148414072Y-93939499D01*
X148414070Y-93939499D01*
X148285932Y-93939499D01*
X148285930Y-93939499D01*
X148160262Y-93964496D01*
X148160256Y-93964498D01*
X148041876Y-94013532D01*
X148041867Y-94013537D01*
X147935332Y-94084722D01*
X147930622Y-94088588D01*
X147929284Y-94086957D01*
X147876359Y-94115857D01*
X147806667Y-94110873D01*
X147770281Y-94087488D01*
X147769380Y-94088588D01*
X147764669Y-94084722D01*
X147658134Y-94013537D01*
X147658125Y-94013532D01*
X147539745Y-93964498D01*
X147539739Y-93964496D01*
X147414072Y-93939499D01*
X147414070Y-93939499D01*
X147285932Y-93939499D01*
X147285930Y-93939499D01*
X147160262Y-93964496D01*
X147160256Y-93964498D01*
X147041876Y-94013532D01*
X147041867Y-94013537D01*
X146935332Y-94084722D01*
X146935328Y-94084725D01*
X146844727Y-94175326D01*
X146844724Y-94175330D01*
X146773539Y-94281865D01*
X146773534Y-94281874D01*
X146724500Y-94400254D01*
X146724498Y-94400260D01*
X146699501Y-94525927D01*
X146699501Y-94525930D01*
X146699501Y-94654068D01*
X146699501Y-94654070D01*
X146699500Y-94654070D01*
X139961884Y-94654070D01*
X137479978Y-92172166D01*
X137417468Y-92109654D01*
X137264497Y-92004862D01*
X137094875Y-91929963D01*
X136986866Y-91904558D01*
X136914380Y-91887508D01*
X136861456Y-91885060D01*
X136729154Y-91878943D01*
X136729152Y-91878943D01*
X136729149Y-91878943D01*
X136545510Y-91904558D01*
X136545509Y-91904558D01*
X136369699Y-91963483D01*
X136207708Y-92053710D01*
X136065061Y-92172163D01*
X136065056Y-92172167D01*
X135946599Y-92314820D01*
X135856375Y-92476807D01*
X135856375Y-92476808D01*
X135797450Y-92652617D01*
X135797450Y-92652618D01*
X135771835Y-92836258D01*
X110500499Y-92836258D01*
X110500499Y-90002703D01*
X110500617Y-89997294D01*
X110504010Y-89919578D01*
X110517386Y-89613222D01*
X110518324Y-89602494D01*
X110568151Y-89224018D01*
X110570021Y-89213411D01*
X110652648Y-88840702D01*
X110655438Y-88830293D01*
X110770228Y-88466225D01*
X110773915Y-88456093D01*
X110920001Y-88103410D01*
X110924559Y-88093636D01*
X111100819Y-87755043D01*
X111106214Y-87745698D01*
X111311323Y-87423741D01*
X111317513Y-87414901D01*
X111544879Y-87118592D01*
X123173499Y-87118592D01*
X123173499Y-87281407D01*
X123205258Y-87441073D01*
X123205261Y-87441082D01*
X123267561Y-87591490D01*
X123267562Y-87591492D01*
X123358014Y-87726862D01*
X123358017Y-87726866D01*
X123473132Y-87841981D01*
X123473136Y-87841984D01*
X123608504Y-87932435D01*
X123608505Y-87932435D01*
X123608506Y-87932436D01*
X123608508Y-87932437D01*
X123689277Y-87965892D01*
X123758918Y-87994738D01*
X123758920Y-87994738D01*
X123758925Y-87994740D01*
X123918591Y-88026499D01*
X123918594Y-88026500D01*
X123918596Y-88026500D01*
X124081404Y-88026500D01*
X124081405Y-88026499D01*
X124134628Y-88015912D01*
X124241072Y-87994740D01*
X124241075Y-87994738D01*
X124241080Y-87994738D01*
X124391494Y-87932435D01*
X124526862Y-87841984D01*
X124641983Y-87726863D01*
X124732434Y-87591495D01*
X124794737Y-87441081D01*
X124799092Y-87419190D01*
X124824192Y-87293002D01*
X124826499Y-87281403D01*
X124826499Y-87118597D01*
X124826499Y-87118594D01*
X124826498Y-87118592D01*
X124822588Y-87098933D01*
X155225499Y-87098933D01*
X155264101Y-87292992D01*
X155264104Y-87293002D01*
X155339820Y-87475798D01*
X155339827Y-87475811D01*
X155449753Y-87640326D01*
X155449756Y-87640330D01*
X155589665Y-87780239D01*
X155589669Y-87780242D01*
X155754184Y-87890168D01*
X155754197Y-87890175D01*
X155861440Y-87934596D01*
X155936998Y-87965893D01*
X155937002Y-87965893D01*
X155937003Y-87965894D01*
X156131062Y-88004496D01*
X156131065Y-88004496D01*
X156328937Y-88004496D01*
X156459495Y-87978525D01*
X156523002Y-87965893D01*
X156705809Y-87890172D01*
X156870331Y-87780242D01*
X157010246Y-87640327D01*
X157120176Y-87475805D01*
X157195897Y-87292998D01*
X157234500Y-87098931D01*
X157234500Y-86901061D01*
X157234500Y-86901060D01*
X157234500Y-86901058D01*
X157195898Y-86706999D01*
X157195897Y-86706998D01*
X157195897Y-86706994D01*
X157181871Y-86673133D01*
X157120179Y-86524193D01*
X157120172Y-86524180D01*
X157010246Y-86359665D01*
X157010243Y-86359661D01*
X156870334Y-86219752D01*
X156870330Y-86219749D01*
X156705815Y-86109823D01*
X156705802Y-86109816D01*
X156523006Y-86034100D01*
X156522996Y-86034097D01*
X156328937Y-85995496D01*
X156328935Y-85995496D01*
X156131065Y-85995496D01*
X156131063Y-85995496D01*
X155937003Y-86034097D01*
X155936993Y-86034100D01*
X155754197Y-86109816D01*
X155754184Y-86109823D01*
X155589669Y-86219749D01*
X155589665Y-86219752D01*
X155449756Y-86359661D01*
X155449753Y-86359665D01*
X155339827Y-86524180D01*
X155339820Y-86524193D01*
X155264104Y-86706989D01*
X155264101Y-86706999D01*
X155225500Y-86901058D01*
X155225500Y-86901060D01*
X155225500Y-86901061D01*
X155225500Y-87098931D01*
X155225500Y-87098933D01*
X155225499Y-87098933D01*
X124822588Y-87098933D01*
X124794739Y-86958926D01*
X124794737Y-86958921D01*
X124794737Y-86958919D01*
X124736520Y-86818370D01*
X124732436Y-86808509D01*
X124732435Y-86808507D01*
X124641983Y-86673137D01*
X124641980Y-86673133D01*
X124526865Y-86558018D01*
X124526861Y-86558015D01*
X124391491Y-86467563D01*
X124391489Y-86467562D01*
X124241081Y-86405262D01*
X124241072Y-86405259D01*
X124081405Y-86373500D01*
X124081402Y-86373500D01*
X123918596Y-86373500D01*
X123918593Y-86373500D01*
X123758925Y-86405259D01*
X123758916Y-86405262D01*
X123608508Y-86467562D01*
X123608506Y-86467563D01*
X123473136Y-86558015D01*
X123473132Y-86558018D01*
X123358017Y-86673133D01*
X123358014Y-86673137D01*
X123267562Y-86808507D01*
X123267561Y-86808509D01*
X123205261Y-86958917D01*
X123205258Y-86958926D01*
X123173499Y-87118592D01*
X111544879Y-87118592D01*
X111549894Y-87112056D01*
X111556818Y-87103804D01*
X111742601Y-86901058D01*
X111814713Y-86822362D01*
X111822362Y-86814713D01*
X112102497Y-86558016D01*
X112103791Y-86556830D01*
X112112056Y-86549894D01*
X112414901Y-86317513D01*
X112423741Y-86311323D01*
X112745698Y-86106214D01*
X112755043Y-86100819D01*
X113093636Y-85924559D01*
X113103410Y-85920001D01*
X113456093Y-85773915D01*
X113466225Y-85770228D01*
X113830293Y-85655438D01*
X113840702Y-85652648D01*
X114213411Y-85570021D01*
X114224018Y-85568151D01*
X114602494Y-85518324D01*
X114613222Y-85517386D01*
X114997294Y-85500616D01*
X115002702Y-85500499D01*
X159876204Y-85500499D01*
X159943242Y-85520184D01*
G37*
%TD.AperFunction*%
%TD*%
M02*
