%TF.GenerationSoftware,KiCad,Pcbnew,10.0.1*%
%TF.CreationDate,2026-08-15T22:17:48+02:00*%
%TF.ProjectId,psu-ext,7073752d-6578-4742-9e6b-696361645f70,1.2.1*%
%TF.SameCoordinates,Original*%
%TF.FileFunction,Copper,L4,Bot*%
%TF.FilePolarity,Positive*%
%FSLAX46Y46*%
G04 Gerber Fmt 4.6, Leading zero omitted, Abs format (unit mm)*
G04 Created by KiCad (PCBNEW 10.0.1) date 2026-08-15 22:17:48*
%MOMM*%
%LPD*%
G01*
G04 APERTURE LIST*
G04 Aperture macros list*
%AMRoundRect*
0 Rectangle with rounded corners*
0 $1 Rounding radius*
0 $2 $3 $4 $5 $6 $7 $8 $9 X,Y pos of 4 corners*
0 Add a 4 corners polygon primitive as box body*
4,1,4,$2,$3,$4,$5,$6,$7,$8,$9,$2,$3,0*
0 Add four circle primitives for the rounded corners*
1,1,$1+$1,$2,$3*
1,1,$1+$1,$4,$5*
1,1,$1+$1,$6,$7*
1,1,$1+$1,$8,$9*
0 Add four rect primitives between the rounded corners*
20,1,$1+$1,$2,$3,$4,$5,0*
20,1,$1+$1,$4,$5,$6,$7,0*
20,1,$1+$1,$6,$7,$8,$9,0*
20,1,$1+$1,$8,$9,$2,$3,0*%
G04 Aperture macros list end*
%TA.AperFunction,ComponentPad*%
%ADD10R,1.508000X1.508000*%
%TD*%
%TA.AperFunction,ComponentPad*%
%ADD11C,1.508000*%
%TD*%
%TA.AperFunction,ComponentPad*%
%ADD12C,1.800000*%
%TD*%
%TA.AperFunction,ComponentPad*%
%ADD13R,1.700000X1.700000*%
%TD*%
%TA.AperFunction,ComponentPad*%
%ADD14C,1.700000*%
%TD*%
%TA.AperFunction,HeatsinkPad*%
%ADD15C,0.600000*%
%TD*%
%TA.AperFunction,ComponentPad*%
%ADD16C,5.700000*%
%TD*%
%TA.AperFunction,ComponentPad*%
%ADD17O,0.900000X2.000000*%
%TD*%
%TA.AperFunction,ComponentPad*%
%ADD18O,0.900000X1.700000*%
%TD*%
%TA.AperFunction,ComponentPad*%
%ADD19C,7.600000*%
%TD*%
%TA.AperFunction,SMDPad,CuDef*%
%ADD20RoundRect,0.250000X0.262500X0.450000X-0.262500X0.450000X-0.262500X-0.450000X0.262500X-0.450000X0*%
%TD*%
%TA.AperFunction,SMDPad,CuDef*%
%ADD21RoundRect,0.250000X-0.512652X-0.159099X-0.159099X-0.512652X0.512652X0.159099X0.159099X0.512652X0*%
%TD*%
%TA.AperFunction,SMDPad,CuDef*%
%ADD22RoundRect,0.250000X-0.450000X0.262500X-0.450000X-0.262500X0.450000X-0.262500X0.450000X0.262500X0*%
%TD*%
%TA.AperFunction,SMDPad,CuDef*%
%ADD23RoundRect,0.250000X-0.250000X-0.475000X0.250000X-0.475000X0.250000X0.475000X-0.250000X0.475000X0*%
%TD*%
%TA.AperFunction,SMDPad,CuDef*%
%ADD24C,1.500000*%
%TD*%
%TA.AperFunction,SMDPad,CuDef*%
%ADD25RoundRect,0.250000X-0.475000X0.250000X-0.475000X-0.250000X0.475000X-0.250000X0.475000X0.250000X0*%
%TD*%
%TA.AperFunction,SMDPad,CuDef*%
%ADD26RoundRect,0.250000X0.400000X0.600000X-0.400000X0.600000X-0.400000X-0.600000X0.400000X-0.600000X0*%
%TD*%
%TA.AperFunction,SMDPad,CuDef*%
%ADD27RoundRect,0.150000X0.587500X0.150000X-0.587500X0.150000X-0.587500X-0.150000X0.587500X-0.150000X0*%
%TD*%
%TA.AperFunction,SMDPad,CuDef*%
%ADD28RoundRect,0.250000X0.132583X-0.503814X0.503814X-0.132583X-0.132583X0.503814X-0.503814X0.132583X0*%
%TD*%
%TA.AperFunction,SMDPad,CuDef*%
%ADD29RoundRect,0.150000X0.512500X0.150000X-0.512500X0.150000X-0.512500X-0.150000X0.512500X-0.150000X0*%
%TD*%
%TA.AperFunction,SMDPad,CuDef*%
%ADD30RoundRect,0.250000X0.512652X0.159099X0.159099X0.512652X-0.512652X-0.159099X-0.159099X-0.512652X0*%
%TD*%
%TA.AperFunction,SMDPad,CuDef*%
%ADD31RoundRect,0.250000X-0.262500X-0.450000X0.262500X-0.450000X0.262500X0.450000X-0.262500X0.450000X0*%
%TD*%
%TA.AperFunction,SMDPad,CuDef*%
%ADD32RoundRect,0.150000X-0.247487X-0.035355X-0.035355X-0.247487X0.247487X0.035355X0.035355X0.247487X0*%
%TD*%
%TA.AperFunction,SMDPad,CuDef*%
%ADD33RoundRect,0.250000X0.450000X-0.262500X0.450000X0.262500X-0.450000X0.262500X-0.450000X-0.262500X0*%
%TD*%
%TA.AperFunction,SMDPad,CuDef*%
%ADD34RoundRect,0.250000X1.000000X0.900000X-1.000000X0.900000X-1.000000X-0.900000X1.000000X-0.900000X0*%
%TD*%
%TA.AperFunction,ViaPad*%
%ADD35C,0.800000*%
%TD*%
%TA.AperFunction,ViaPad*%
%ADD36C,0.600000*%
%TD*%
%TA.AperFunction,Conductor*%
%ADD37C,0.400000*%
%TD*%
%TA.AperFunction,Conductor*%
%ADD38C,0.200000*%
%TD*%
%TA.AperFunction,Conductor*%
%ADD39C,1.400000*%
%TD*%
G04 APERTURE END LIST*
D10*
%TO.P,K1,1*%
%TO.N,VUSB*%
X150355000Y-132400000D03*
D11*
%TO.P,K1,2*%
%TO.N,Net-(D11-K)*%
X147815000Y-132400000D03*
D12*
%TO.P,K1,3*%
%TO.N,/FrontEnd/SNT_N*%
X140195000Y-132400000D03*
%TO.P,K1,4*%
%TO.N,/FrontEnd/LOAD_P*%
X132575000Y-132400000D03*
%TD*%
D13*
%TO.P,J4,1,Pin_1_1*%
%TO.N,Net-(D6-K)*%
X204725000Y-122796902D03*
D14*
%TO.P,J4,2,Pin_2_2*%
%TO.N,Net-(D5-K)*%
X207265000Y-122796902D03*
%TO.P,J4,3,Pin_3_3*%
%TO.N,GND*%
X204725000Y-125336902D03*
%TO.P,J4,4,Pin_4_4*%
X207265000Y-125336902D03*
%TD*%
D15*
%TO.P,U5,41,GND_41*%
%TO.N,GND*%
X187900000Y-126579995D03*
X187900000Y-125179995D03*
X187200000Y-127279995D03*
X187200000Y-125879995D03*
X187200000Y-124479995D03*
X186500000Y-126579995D03*
X186500000Y-125179995D03*
X185800000Y-127279995D03*
X185800000Y-125879995D03*
X185800000Y-124479995D03*
X185100000Y-126579995D03*
X185100000Y-125179995D03*
%TD*%
D16*
%TO.P,H7,1,1_1*%
%TO.N,GNDS*%
X114000003Y-130999997D03*
%TD*%
%TO.P,H5,1,1_1*%
%TO.N,GND*%
X206000000Y-130999996D03*
%TD*%
%TO.P,H6,1,1_1*%
%TO.N,GND*%
X206000000Y-88999996D03*
%TD*%
D10*
%TO.P,PS1,1,-VIN_1*%
%TO.N,GND*%
X163850000Y-86999995D03*
D11*
%TO.P,PS1,2,+VIN_2*%
%TO.N,VUSB*%
X161310000Y-86999995D03*
%TO.P,PS1,3,-VOUT_3*%
%TO.N,GNDS*%
X158770000Y-86999995D03*
%TO.P,PS1,4,+VOUT_4*%
%TO.N,V5-F*%
X156230000Y-86999996D03*
%TD*%
D17*
%TO.P,J1,S1,SHIELD_S1*%
%TO.N,GND*%
X194324999Y-91269995D03*
%TO.P,J1,S2,SHIELD_S2*%
X185674999Y-91269995D03*
D18*
%TO.P,J1,S3,SHIELD_S3*%
X194324999Y-87099995D03*
%TO.P,J1,S4,SHIELD_S4*%
X185674999Y-87099995D03*
%TD*%
D13*
%TO.P,J2,1,Pin_1_1*%
%TO.N,Net-(J2-Pin_1)*%
X169999999Y-133199995D03*
D14*
%TO.P,J2,2,Pin_2_2*%
%TO.N,Net-(J2-Pin_2)*%
X167459999Y-133199995D03*
%TO.P,J2,3,Pin_3_3*%
%TO.N,GND*%
X164919999Y-133199995D03*
%TD*%
D19*
%TO.P,H4,1,1_1*%
%TO.N,/FrontEnd/PGND*%
X117420000Y-100499996D03*
%TD*%
%TO.P,H3,1,1_1*%
%TO.N,/FrontEnd/PGND*%
X117420000Y-119549995D03*
%TD*%
D16*
%TO.P,H8,1,1_1*%
%TO.N,GNDS*%
X114000003Y-88999995D03*
%TD*%
D19*
%TO.P,H2,1,1_1*%
%TO.N,/FrontEnd/PSU_P*%
X136470000Y-100499995D03*
%TD*%
%TO.P,H1,1,1_1*%
%TO.N,/FrontEnd/LOAD_P*%
X136470000Y-119549996D03*
%TD*%
D20*
%TO.P,R43,1*%
%TO.N,R_CTR*%
X159612500Y-131449996D03*
%TO.P,R43,2*%
%TO.N,Net-(Q1-B)*%
X157787500Y-131449996D03*
%TD*%
D21*
%TO.P,C14,1*%
%TO.N,/ESP32/EN*%
X202900000Y-109999995D03*
%TO.P,C14,2*%
%TO.N,GND*%
X204243502Y-111343497D03*
%TD*%
%TO.P,C16,1*%
%TO.N,/ESP32/IO0*%
X202900000Y-104999996D03*
%TO.P,C16,2*%
%TO.N,GND*%
X204243502Y-106343498D03*
%TD*%
D22*
%TO.P,R25,1*%
%TO.N,V3.3-F*%
X152506813Y-116449262D03*
%TO.P,R25,2*%
%TO.N,/FrontEnd/ALRT*%
X152506813Y-118274262D03*
%TD*%
D20*
%TO.P,R38,1*%
%TO.N,/FrontEnd/PSU_P*%
X132912500Y-106000000D03*
%TO.P,R38,2*%
%TO.N,Net-(R38-Pad2)*%
X131087500Y-106000000D03*
%TD*%
D23*
%TO.P,C6,1*%
%TO.N,VUSB*%
X161309999Y-89504909D03*
%TO.P,C6,2*%
%TO.N,GND*%
X163209999Y-89504909D03*
%TD*%
D22*
%TO.P,R23,1*%
%TO.N,V3.3-F*%
X162250000Y-115287501D03*
%TO.P,R23,2*%
%TO.N,/FrontEnd/SDAS*%
X162250000Y-117112501D03*
%TD*%
D24*
%TO.P,TP7,1,1_1*%
%TO.N,/FrontEnd/ALRT*%
X153000000Y-122100000D03*
%TD*%
D25*
%TO.P,C15,1*%
%TO.N,/ESP32/EN*%
X190799999Y-131049995D03*
%TO.P,C15,2*%
%TO.N,GND*%
X190799999Y-132949995D03*
%TD*%
D24*
%TO.P,TP2,1,1_1*%
%TO.N,Net-(U2-~{FLG})*%
X178000000Y-87000000D03*
%TD*%
D23*
%TO.P,C28,1*%
%TO.N,/FrontEnd/PGND*%
X119475000Y-110999995D03*
%TO.P,C28,2*%
%TO.N,GNDS*%
X121375000Y-110999995D03*
%TD*%
%TO.P,C31,1*%
%TO.N,Net-(C31-Pad1)*%
X135850000Y-131699995D03*
%TO.P,C31,2*%
%TO.N,/FrontEnd/SNT_N*%
X137750000Y-131699995D03*
%TD*%
D26*
%TO.P,D12,1,K_1*%
%TO.N,VUSB*%
X150800000Y-129699996D03*
%TO.P,D12,2,A_2*%
%TO.N,Net-(D11-K)*%
X147300000Y-129699996D03*
%TD*%
D27*
%TO.P,Q1,1,B_1*%
%TO.N,Net-(Q1-B)*%
X155600000Y-131449996D03*
%TO.P,Q1,2,E_2*%
%TO.N,GND*%
X155600000Y-133349996D03*
%TO.P,Q1,3,C_3*%
%TO.N,Net-(D11-K)*%
X153725000Y-132399996D03*
%TD*%
D28*
%TO.P,R12,1*%
%TO.N,Net-(J2-Pin_2)*%
X167460000Y-130645231D03*
%TO.P,R12,2*%
%TO.N,/ESP32/RX*%
X168750470Y-129354761D03*
%TD*%
D29*
%TO.P,U10,1,+_1*%
%TO.N,Net-(U10-+)*%
X159100000Y-105644298D03*
%TO.P,U10,2,V-_2*%
%TO.N,GNDS*%
X159100000Y-106594298D03*
%TO.P,U10,3,-_3*%
%TO.N,Net-(U10--)*%
X159100000Y-107544298D03*
%TO.P,U10,4*%
X156825000Y-107544298D03*
%TO.P,U10,5,V+_5*%
%TO.N,V3.3-F*%
X156825000Y-105644298D03*
%TD*%
D24*
%TO.P,TP5,1,1_1*%
%TO.N,V5-F*%
X153402569Y-87005789D03*
%TD*%
D30*
%TO.P,C25,1*%
%TO.N,/FrontEnd/AIN2*%
X156614626Y-117805649D03*
%TO.P,C25,2*%
%TO.N,GNDS*%
X155271124Y-116462147D03*
%TD*%
D22*
%TO.P,R9,1*%
%TO.N,/ESP32/TRG2*%
X184450000Y-131049995D03*
%TO.P,R9,2*%
%TO.N,V3.3*%
X184450000Y-132874995D03*
%TD*%
D20*
%TO.P,R35,1*%
%TO.N,Net-(R34-Pad2)*%
X129512500Y-125000000D03*
%TO.P,R35,2*%
%TO.N,Net-(R35-Pad2)*%
X127687500Y-125000000D03*
%TD*%
D28*
%TO.P,R11,1*%
%TO.N,Net-(J2-Pin_1)*%
X170000000Y-130845230D03*
%TO.P,R11,2*%
%TO.N,/ESP32/TX*%
X171290470Y-129554760D03*
%TD*%
D22*
%TO.P,R24,1*%
%TO.N,V3.3-F*%
X164500000Y-115287500D03*
%TO.P,R24,2*%
%TO.N,/FrontEnd/SCLS*%
X164500000Y-117112500D03*
%TD*%
D28*
%TO.P,R33,1*%
%TO.N,/FrontEnd/PGND*%
X120200000Y-108699996D03*
%TO.P,R33,2*%
%TO.N,GNDS*%
X121490470Y-107409526D03*
%TD*%
%TO.P,R29,1*%
%TO.N,/FrontEnd/AIN2*%
X157854765Y-119045235D03*
%TO.P,R29,2*%
%TO.N,Net-(R29-Pad2)*%
X159145235Y-117754765D03*
%TD*%
D31*
%TO.P,R44,1*%
%TO.N,/FrontEnd/LOAD_P*%
X134025001Y-129699996D03*
%TO.P,R44,2*%
%TO.N,Net-(C31-Pad1)*%
X135850001Y-129699996D03*
%TD*%
D20*
%TO.P,R39,1*%
%TO.N,Net-(R38-Pad2)*%
X129512500Y-106000000D03*
%TO.P,R39,2*%
%TO.N,Net-(R39-Pad2)*%
X127687500Y-106000000D03*
%TD*%
D22*
%TO.P,R27,1*%
%TO.N,V3.3-F*%
X157100000Y-101599999D03*
%TO.P,R27,2*%
%TO.N,Net-(U10-+)*%
X157100000Y-103424999D03*
%TD*%
D31*
%TO.P,R40,1*%
%TO.N,/FrontEnd/PGND*%
X125787500Y-104100000D03*
%TO.P,R40,2*%
%TO.N,Net-(R39-Pad2)*%
X127612500Y-104100000D03*
%TD*%
D22*
%TO.P,R14,1*%
%TO.N,V3.3*%
X183900000Y-108809995D03*
%TO.P,R14,2*%
%TO.N,Net-(U9-~{WP}{slash}IO_{2})*%
X183900000Y-110634995D03*
%TD*%
D32*
%TO.P,D5,1,K_1*%
%TO.N,Net-(D5-K)*%
X207265000Y-120599995D03*
%TO.P,D5,2,A_2*%
%TO.N,GND*%
X206275050Y-119610045D03*
%TD*%
D33*
%TO.P,R28,1*%
%TO.N,Net-(U10-+)*%
X159100000Y-103424999D03*
%TO.P,R28,2*%
%TO.N,GNDS*%
X159100000Y-101599999D03*
%TD*%
D34*
%TO.P,D10,1,K_1*%
%TO.N,/FrontEnd/PSU_P*%
X129149999Y-100499996D03*
%TO.P,D10,2,A_2*%
%TO.N,/FrontEnd/PGND*%
X124849999Y-100499996D03*
%TD*%
D33*
%TO.P,R10,1*%
%TO.N,V3.3*%
X188850000Y-132874995D03*
%TO.P,R10,2*%
%TO.N,/ESP32/EN*%
X188850000Y-131049995D03*
%TD*%
D31*
%TO.P,R6,1*%
%TO.N,SDA*%
X179787500Y-132999996D03*
%TO.P,R6,2*%
%TO.N,V3.3*%
X181612500Y-132999996D03*
%TD*%
D33*
%TO.P,R26,1*%
%TO.N,Net-(U7-ADDR)*%
X150351032Y-120099262D03*
%TO.P,R26,2*%
%TO.N,GNDS*%
X150351032Y-118274262D03*
%TD*%
D22*
%TO.P,R8,1*%
%TO.N,/ESP32/TRG1*%
X186349999Y-131049995D03*
%TO.P,R8,2*%
%TO.N,V3.3*%
X186349999Y-132874995D03*
%TD*%
D20*
%TO.P,R34,1*%
%TO.N,/FrontEnd/LOAD_P*%
X132912500Y-125000000D03*
%TO.P,R34,2*%
%TO.N,Net-(R34-Pad2)*%
X131087500Y-125000000D03*
%TD*%
D25*
%TO.P,C24,1*%
%TO.N,V3.3-F*%
X154730001Y-105644298D03*
%TO.P,C24,2*%
%TO.N,GNDS*%
X154730001Y-107544298D03*
%TD*%
D32*
%TO.P,D6,1,K_1*%
%TO.N,Net-(D6-K)*%
X204725000Y-120599995D03*
%TO.P,D6,2,A_2*%
%TO.N,GND*%
X203735050Y-119610045D03*
%TD*%
D31*
%TO.P,R7,1*%
%TO.N,SCL*%
X179787500Y-130499996D03*
%TO.P,R7,2*%
%TO.N,V3.3*%
X181612500Y-130499996D03*
%TD*%
%TO.P,R36,1*%
%TO.N,/FrontEnd/PGND*%
X125862500Y-123100000D03*
%TO.P,R36,2*%
%TO.N,Net-(R35-Pad2)*%
X127687500Y-123100000D03*
%TD*%
D35*
%TO.N,V3.3*%
X170000000Y-126200000D03*
D36*
X168200000Y-97499995D03*
D35*
X188587500Y-104574053D03*
X182700000Y-132999995D03*
D36*
X169100000Y-97499995D03*
D35*
X184449999Y-133849995D03*
X183900000Y-107849997D03*
X188850000Y-133849995D03*
X182700000Y-130499995D03*
X186349999Y-133849995D03*
X198595496Y-133259932D03*
X191809396Y-107537496D03*
%TO.N,GND*%
X157449449Y-133356593D03*
X198628638Y-129529996D03*
X180145826Y-97608345D03*
D36*
X190000000Y-94786342D03*
D35*
X190800000Y-133849995D03*
X171499999Y-119100000D03*
X201800000Y-122799996D03*
X196609573Y-129529995D03*
X164201163Y-89504909D03*
X178948293Y-93447301D03*
X171865383Y-123795510D03*
X208600000Y-96249996D03*
X180200000Y-111899995D03*
X199500000Y-89299996D03*
X208600001Y-98449995D03*
X205200000Y-112299995D03*
X177500000Y-133599996D03*
X173473014Y-102205019D03*
X192500000Y-133599996D03*
X195000000Y-98799996D03*
X177195545Y-90391366D03*
X174944358Y-89597300D03*
X203214315Y-119086891D03*
X185700000Y-105799996D03*
X201800000Y-125321901D03*
X178240000Y-103949996D03*
X208500000Y-109999995D03*
X208499999Y-104999996D03*
X205774295Y-119107960D03*
X171150000Y-86999996D03*
X185450000Y-98812494D03*
X164100000Y-96000000D03*
X205199999Y-107299995D03*
%TO.N,VUSB*%
X169860000Y-93399996D03*
D36*
%TO.N,SDA*%
X177500000Y-132332425D03*
%TO.N,SCL*%
X177500000Y-131059996D03*
%TO.N,GNDS*%
X159100000Y-109000000D03*
X153449824Y-114409461D03*
D35*
X122400000Y-111000000D03*
D36*
X158000000Y-106594298D03*
X149312448Y-122548945D03*
X154500000Y-121500000D03*
D35*
X156649016Y-97612495D03*
X152649016Y-99300000D03*
X160447627Y-125908142D03*
X162150000Y-124999996D03*
D36*
X158343739Y-115800000D03*
X160473157Y-114162631D03*
D35*
X159049999Y-100612499D03*
D36*
X156000000Y-114400000D03*
X152800000Y-109400000D03*
X154760000Y-109100000D03*
X154400000Y-115600000D03*
X149300000Y-121400000D03*
D35*
X158900000Y-96000000D03*
D36*
X161400000Y-119100000D03*
X154800000Y-114400000D03*
D35*
X144900000Y-89300000D03*
D36*
X153460000Y-111000000D03*
X155200000Y-118500000D03*
X159100000Y-110000000D03*
X155400000Y-123400000D03*
X151500000Y-105200000D03*
D35*
X122200000Y-106699996D03*
D36*
X151100000Y-121100000D03*
X151500000Y-105900000D03*
X149405923Y-115560515D03*
D35*
X163500000Y-119100000D03*
X151866574Y-101993037D03*
D36*
%TO.N,/FrontEnd/SCLS*%
X166400000Y-120369999D03*
%TO.N,/FrontEnd/SDAS*%
X166400000Y-121639999D03*
D35*
%TO.N,V3.3-F*%
X154730001Y-103900000D03*
X165031832Y-126200000D03*
X157000000Y-100612499D03*
X160299999Y-124000002D03*
X148350001Y-94589999D03*
X152500000Y-115500000D03*
X162250000Y-114150001D03*
X147350001Y-94589999D03*
X164500001Y-114150001D03*
D36*
%TO.N,Net-(U9-~{WP}{slash}IO_{2})*%
X182600000Y-110634995D03*
%TO.N,Net-(D11-K)*%
X152450005Y-132399995D03*
%TO.N,/ESP32/EN*%
X201500000Y-109999996D03*
X192500000Y-131069996D03*
D35*
%TO.N,+5V*%
X192400000Y-93199996D03*
X187600000Y-93199996D03*
D36*
X187250000Y-96099995D03*
%TO.N,/ESP32/TRG1*%
X202800000Y-116299995D03*
X192500000Y-129789995D03*
X186349999Y-130199995D03*
%TO.N,/ESP32/TRG2*%
X205300000Y-115899996D03*
X184449999Y-130199995D03*
X192499999Y-128519996D03*
%TO.N,/ESP32/IO0*%
X175100000Y-117089996D03*
X201500000Y-104999996D03*
%TO.N,R_CTR*%
X177500000Y-122169995D03*
%TO.N,/ESP32/RX*%
X177500000Y-128522345D03*
%TO.N,/ESP32/TX*%
X177500000Y-129789995D03*
%TO.N,Net-(U2-~{FLG})*%
X176714759Y-94397300D03*
X176714759Y-88297300D03*
%TO.N,Net-(U7-ADDR)*%
X151700000Y-120100000D03*
%TO.N,/FrontEnd/ALRT*%
X154500000Y-120600000D03*
%TO.N,/FrontEnd/AIN2*%
X156100000Y-122370000D03*
%TO.N,Net-(U10--)*%
X153460000Y-108900000D03*
%TO.N,Net-(R29-Pad2)*%
X159143742Y-115800000D03*
%TO.N,Net-(R35-Pad2)*%
X151747337Y-125825000D03*
%TO.N,Net-(R39-Pad2)*%
X150360515Y-115558706D03*
%TD*%
%TO.N,V3.3*%
D37*
X181612500Y-130499996D02*
X182700000Y-130499995D01*
X181612500Y-132999996D02*
X182700000Y-132999995D01*
X184450000Y-132799996D02*
X184449999Y-133774995D01*
X183900000Y-108809995D02*
X183900000Y-107849997D01*
X188850000Y-132874996D02*
X188850000Y-133889996D01*
X186349999Y-132799997D02*
X186349999Y-133774995D01*
%TO.N,GND*%
X156849997Y-133349997D02*
X155600000Y-133349997D01*
X206275050Y-119608714D02*
X205774295Y-119107960D01*
X203735050Y-119607627D02*
X203214315Y-119086891D01*
X157449449Y-133356593D02*
X156856593Y-133356593D01*
X206275050Y-119610045D02*
X206275050Y-119608714D01*
X163211163Y-89504909D02*
X164201163Y-89504909D01*
X190800000Y-132949996D02*
X190799999Y-133889996D01*
X204243502Y-111343497D02*
X205200000Y-112299995D01*
X203735050Y-119610045D02*
X203735050Y-119607627D01*
X156856593Y-133356593D02*
X156849997Y-133349997D01*
X204243502Y-106343498D02*
X205199999Y-107299995D01*
%TO.N,VUSB*%
X169860000Y-93399996D02*
X163200000Y-100059996D01*
X150800000Y-129699996D02*
X150800000Y-131939996D01*
X163200000Y-108158510D02*
X164787074Y-109745584D01*
X169200000Y-111918204D02*
X169200000Y-124400000D01*
X161310000Y-89504909D02*
X161309999Y-86999996D01*
X167027380Y-109745584D02*
X169200000Y-111918204D01*
X163200000Y-100059996D02*
X163200000Y-108158510D01*
X169200000Y-124400000D02*
X163900004Y-129699996D01*
X150850000Y-131889996D02*
X150340000Y-132399996D01*
X163900004Y-129699996D02*
X150850000Y-129699996D01*
X164787074Y-109745584D02*
X167027380Y-109745584D01*
%TO.N,V5-F*%
X153408362Y-86999996D02*
X153402569Y-87005789D01*
X156230000Y-86999996D02*
X153408362Y-86999996D01*
%TO.N,SDA*%
D38*
X178900000Y-132999995D02*
X178232429Y-132332424D01*
X179787500Y-132999996D02*
X178900000Y-132999995D01*
X178232429Y-132332424D02*
X177500000Y-132332425D01*
%TO.N,SCL*%
X178240000Y-131059995D02*
X178800001Y-130499996D01*
X178240000Y-131059995D02*
X177500000Y-131059996D01*
X178800001Y-130499996D02*
X179787500Y-130499996D01*
%TO.N,GNDS*%
D37*
X122299998Y-110999996D02*
X121375000Y-110999996D01*
X159100000Y-106594298D02*
X158000000Y-106594298D01*
X121490470Y-107409526D02*
X122200000Y-106699996D01*
X122300002Y-111000000D02*
X122299998Y-110999996D01*
X122400000Y-111000000D02*
X122300002Y-111000000D01*
X159049999Y-101599999D02*
X159049999Y-100612499D01*
%TO.N,/FrontEnd/SCLS*%
D38*
X166400000Y-120369999D02*
X164969999Y-120369999D01*
X164969999Y-120369999D02*
X164500000Y-119900000D01*
X164500000Y-119900000D02*
X164500000Y-117112500D01*
%TO.N,/FrontEnd/SDAS*%
X163939999Y-121639999D02*
X162250000Y-119950000D01*
X162250000Y-119950000D02*
X162250000Y-117112501D01*
X166400000Y-121639999D02*
X163939999Y-121639999D01*
%TO.N,V3.3-F*%
X164500000Y-115800001D02*
X164500000Y-114012500D01*
D37*
X152506813Y-116449262D02*
X152506813Y-115506813D01*
X154730001Y-103900000D02*
X154730001Y-105644298D01*
X157000000Y-101600000D02*
X157000000Y-100612499D01*
D38*
X162250000Y-114012501D02*
X162250001Y-115800000D01*
D37*
X152506813Y-115506813D02*
X152500000Y-115500000D01*
X156825000Y-105644299D02*
X154730001Y-105644299D01*
%TO.N,Net-(U9-~{WP}{slash}IO_{2})*%
D38*
X182635000Y-110634995D02*
X182600000Y-110599996D01*
X183900000Y-110634995D02*
X182635000Y-110634995D01*
%TO.N,Net-(D11-K)*%
D37*
X148399999Y-134299995D02*
X147800000Y-133699995D01*
X152450005Y-132399995D02*
X153699999Y-132399995D01*
X147800000Y-133699995D02*
X147799999Y-132399995D01*
X150550005Y-134299995D02*
X148399999Y-134299995D01*
X152450005Y-132400791D02*
X152100000Y-132750796D01*
X152100000Y-132750796D02*
X152100000Y-133800000D01*
X152450005Y-132399995D02*
X152450005Y-132400791D01*
X152100000Y-133800000D02*
X151600000Y-134300000D01*
X147799999Y-132399995D02*
X147300000Y-131899996D01*
X151600000Y-134300000D02*
X150550010Y-134300000D01*
X150550010Y-134300000D02*
X150550005Y-134299995D01*
X147300000Y-131899996D02*
X147300000Y-129699996D01*
%TO.N,/FrontEnd/SNT_N*%
D38*
X138700000Y-131699995D02*
X137749999Y-131699995D01*
X138700000Y-131699995D02*
X139400000Y-132399996D01*
X139400000Y-132399996D02*
X140180000Y-132399997D01*
X140180000Y-132379996D02*
X140180000Y-132399997D01*
%TO.N,/FrontEnd/LOAD_P*%
X134400000Y-125000000D02*
X136470000Y-122930000D01*
X133987500Y-130972495D02*
X132560000Y-132399995D01*
X132912500Y-125000000D02*
X134400000Y-125000000D01*
X136470000Y-122930000D02*
X136470000Y-119549996D01*
X136470000Y-115969995D02*
X136470000Y-119549996D01*
X133987500Y-129699996D02*
X133987500Y-130972495D01*
%TO.N,/ESP32/EN*%
X190800000Y-131049995D02*
X188800000Y-131049995D01*
X190800000Y-131049995D02*
X190799999Y-118449995D01*
X190799999Y-118449995D02*
X199250000Y-109999995D01*
X201500000Y-109999996D02*
X202900000Y-109999995D01*
X199250000Y-109999995D02*
X201500000Y-109999996D01*
X192480000Y-131049995D02*
X192500000Y-131069996D01*
X190800000Y-131049995D02*
X192480000Y-131049995D01*
%TO.N,+5V*%
D37*
X187250000Y-94849995D02*
X187250000Y-96099995D01*
X188250000Y-93849995D02*
X191749999Y-93849996D01*
X188250000Y-93849995D02*
X187250000Y-94849995D01*
X187600000Y-93199996D02*
X188250000Y-93849995D01*
X191749999Y-93849996D02*
X192400000Y-93199996D01*
%TO.N,Net-(D6-K)*%
D38*
X204725000Y-120599995D02*
X204725000Y-122796902D01*
%TO.N,Net-(D5-K)*%
X207265000Y-120599995D02*
X207265000Y-122796901D01*
%TO.N,/FrontEnd/PSU_P*%
D39*
X129064967Y-100499995D02*
X129050001Y-100485029D01*
D38*
X136470000Y-103330000D02*
X136470000Y-100499995D01*
D39*
X136470000Y-100499995D02*
X129064967Y-100499995D01*
D38*
X133800000Y-106000000D02*
X136470000Y-103330000D01*
X136491466Y-100521461D02*
X136470000Y-100499995D01*
X132912500Y-106000000D02*
X133800000Y-106000000D01*
%TO.N,/ESP32/TRG1*%
X186349999Y-130199995D02*
X186349999Y-131049995D01*
X195010000Y-129789995D02*
X192500000Y-129789995D01*
X196900000Y-127899997D02*
X195010000Y-129789995D01*
X196899999Y-120599995D02*
X196900000Y-127899997D01*
X201199999Y-116299995D02*
X196899999Y-120599995D01*
X192410000Y-129699996D02*
X192500000Y-129789995D01*
X202800000Y-116299995D02*
X201199999Y-116299995D01*
%TO.N,/ESP32/TRG2*%
X195799999Y-127599995D02*
X194880000Y-128519995D01*
X201100000Y-114899995D02*
X195800000Y-120199995D01*
X195800000Y-120199995D02*
X195799999Y-127599995D01*
X184449999Y-130199995D02*
X184450000Y-131049995D01*
X204300000Y-114899995D02*
X201100000Y-114899995D01*
X194880000Y-128519995D02*
X192499999Y-128519996D01*
X205300000Y-115899996D02*
X204300000Y-114899995D01*
%TO.N,/ESP32/IO0*%
X202899999Y-104999996D02*
X201500000Y-104999996D01*
X187950000Y-118549996D02*
X201500000Y-104999996D01*
X178090000Y-117089996D02*
X179550000Y-118549996D01*
X175100000Y-117089996D02*
X178090000Y-117089996D01*
X179550000Y-118549996D02*
X187950000Y-118549996D01*
%TO.N,R_CTR*%
X178100000Y-122769995D02*
X178100000Y-123500000D01*
X178100000Y-123500000D02*
X174550000Y-127050000D01*
X174550000Y-127050000D02*
X168450000Y-127050000D01*
X164050004Y-131449996D02*
X159612500Y-131449996D01*
X168450000Y-127050000D02*
X164050004Y-131449996D01*
X177500000Y-122169995D02*
X178100000Y-122769995D01*
%TO.N,/ESP32/RX*%
X170305235Y-127799996D02*
X173700000Y-127799995D01*
X173700000Y-127799995D02*
X174422349Y-128522345D01*
X168750470Y-129354761D02*
X170305235Y-127799996D01*
X174422349Y-128522345D02*
X177500000Y-128522345D01*
%TO.N,/ESP32/TX*%
X171290470Y-129554760D02*
X171845235Y-128999995D01*
X173200000Y-128999996D02*
X173989999Y-129789995D01*
X173989999Y-129789995D02*
X177500000Y-129789995D01*
X171845235Y-128999995D02*
X173200000Y-128999996D01*
%TO.N,Net-(J2-Pin_1)*%
X169999999Y-133199995D02*
X169999999Y-130845231D01*
%TO.N,Net-(J2-Pin_2)*%
X167460000Y-133199995D02*
X167460001Y-130645230D01*
%TO.N,Net-(U2-~{FLG})*%
X176714759Y-88285241D02*
X178000000Y-87000000D01*
X176214759Y-88797300D02*
X176714759Y-88297300D01*
X176714759Y-88297300D02*
X176637305Y-88297300D01*
X176714759Y-88297300D02*
X176714759Y-88285241D01*
X176214760Y-93897300D02*
X176214759Y-88797300D01*
X176714759Y-94397300D02*
X176214760Y-93897300D01*
%TO.N,/FrontEnd/PGND*%
D39*
X117420000Y-119549995D02*
X117420000Y-110999995D01*
D38*
X125862500Y-104100000D02*
X124749999Y-102987499D01*
X125862500Y-123100000D02*
X120970005Y-123100000D01*
X119475001Y-110999995D02*
X119475001Y-109424995D01*
X124749999Y-102987499D02*
X124749999Y-100485029D01*
X119500000Y-110974996D02*
X119475000Y-110999995D01*
X117434967Y-100485029D02*
X117420000Y-100499996D01*
X120970005Y-123100000D02*
X117420000Y-119549995D01*
D39*
X117420000Y-110999995D02*
X117420000Y-108999995D01*
D38*
X125054765Y-100789795D02*
X124749999Y-100485029D01*
D39*
X117420000Y-108999995D02*
X117420000Y-100499996D01*
X124749999Y-100485029D02*
X117434967Y-100485029D01*
D38*
X119475000Y-110999995D02*
X117420000Y-110999995D01*
X119475001Y-109424995D02*
X120200000Y-108699996D01*
%TO.N,Net-(U7-ADDR)*%
X151700000Y-120100000D02*
X150400000Y-120100000D01*
%TO.N,/FrontEnd/ALRT*%
X152900000Y-121900000D02*
X153000000Y-122000000D01*
X154900000Y-119500000D02*
X153674262Y-118274262D01*
X152700000Y-121900000D02*
X152900000Y-121900000D01*
X153674262Y-118274262D02*
X152506813Y-118274262D01*
X154900000Y-120200000D02*
X154900000Y-119500000D01*
X154500000Y-120600000D02*
X154900000Y-120200000D01*
X153100000Y-122000000D02*
X153000000Y-122000000D01*
X153000000Y-122100000D02*
X154500000Y-120600000D01*
X152505316Y-118605316D02*
X152505316Y-118274262D01*
%TO.N,/FrontEnd/AIN2*%
X155400000Y-121500000D02*
X157854765Y-119045235D01*
X157854212Y-119045235D02*
X156614626Y-117805649D01*
X155400000Y-122150000D02*
X155400000Y-121500000D01*
X155620000Y-122370000D02*
X155400000Y-122150000D01*
X157854765Y-119045235D02*
X157854212Y-119045235D01*
X156100000Y-122370000D02*
X155620000Y-122370000D01*
X156909530Y-118100000D02*
X156900000Y-118100000D01*
%TO.N,Net-(Q1-B)*%
X155600000Y-131449996D02*
X157787500Y-131449996D01*
%TO.N,Net-(U10-+)*%
X157100000Y-103424999D02*
X159100000Y-103424999D01*
X159100000Y-103424999D02*
X159100000Y-105644299D01*
%TO.N,Net-(U10--)*%
X156825000Y-109015000D02*
X156825000Y-107544297D01*
X156010000Y-109830000D02*
X156825000Y-109015000D01*
X154390000Y-109830000D02*
X156010000Y-109830000D01*
X153460000Y-108900000D02*
X154390000Y-109830000D01*
X156825000Y-107544297D02*
X159100000Y-107544297D01*
%TO.N,Net-(C31-Pad1)*%
X135850001Y-129699996D02*
X135850000Y-131699995D01*
%TO.N,Net-(R29-Pad2)*%
X159145235Y-116206706D02*
X159145235Y-117754765D01*
X159143742Y-116205213D02*
X159145235Y-116206706D01*
X159143742Y-115800000D02*
X159143742Y-116205213D01*
%TO.N,Net-(R34-Pad2)*%
X131087500Y-125000000D02*
X129512500Y-125000000D01*
%TO.N,Net-(R35-Pad2)*%
X151747337Y-125825000D02*
X138275000Y-125825000D01*
X127687500Y-125000000D02*
X127687500Y-123100000D01*
X128700000Y-127000000D02*
X127687500Y-125987500D01*
X137100000Y-127000000D02*
X128700000Y-127000000D01*
X127687500Y-125987500D02*
X127687500Y-125000000D01*
X138275000Y-125825000D02*
X137100000Y-127000000D01*
%TO.N,Net-(R38-Pad2)*%
X129512500Y-106000000D02*
X131087500Y-106000000D01*
%TO.N,Net-(R39-Pad2)*%
X127687500Y-107687500D02*
X127687500Y-106000000D01*
X150360515Y-115558706D02*
X150358706Y-115558706D01*
X130000000Y-110000000D02*
X127687500Y-107687500D01*
X127687500Y-104100000D02*
X127687500Y-106000000D01*
X150360515Y-115558706D02*
X144801809Y-110000000D01*
X144801809Y-110000000D02*
X130000000Y-110000000D01*
%TD*%
%TA.AperFunction,Conductor*%
%TO.N,GNDS*%
G36*
X158336340Y-104015919D02*
G01*
X158336993Y-104016397D01*
X158437116Y-104090291D01*
X158437117Y-104090291D01*
X158437118Y-104090292D01*
X158565301Y-104135145D01*
X158595725Y-104137998D01*
X158595727Y-104137999D01*
X158595734Y-104137999D01*
X158700500Y-104137999D01*
X158758691Y-104156906D01*
X158794655Y-104206406D01*
X158799500Y-104236999D01*
X158799500Y-105044798D01*
X158780593Y-105102989D01*
X158731093Y-105138953D01*
X158700500Y-105143798D01*
X158554240Y-105143798D01*
X158520173Y-105148761D01*
X158486104Y-105153725D01*
X158381018Y-105205099D01*
X158298301Y-105287816D01*
X158246927Y-105392902D01*
X158246927Y-105392905D01*
X158237000Y-105461038D01*
X158237000Y-105827558D01*
X158243618Y-105872980D01*
X158246927Y-105895693D01*
X158287654Y-105979001D01*
X158298302Y-106000781D01*
X158347170Y-106049649D01*
X158374946Y-106104164D01*
X158365375Y-106164596D01*
X158347169Y-106189655D01*
X158298713Y-106238110D01*
X158247412Y-106343049D01*
X158237500Y-106411082D01*
X158237500Y-106494297D01*
X158237501Y-106494298D01*
X159001000Y-106494298D01*
X159015912Y-106499143D01*
X159031593Y-106499143D01*
X159044278Y-106508359D01*
X159059191Y-106513205D01*
X159068407Y-106525890D01*
X159081093Y-106535107D01*
X159085938Y-106550019D01*
X159095155Y-106562705D01*
X159100000Y-106593298D01*
X159100000Y-106595298D01*
X159081093Y-106653489D01*
X159031593Y-106689453D01*
X159001000Y-106694298D01*
X158237502Y-106694298D01*
X158237501Y-106694299D01*
X158237501Y-106777514D01*
X158247412Y-106845548D01*
X158298714Y-106950486D01*
X158347169Y-106998941D01*
X158353092Y-107010567D01*
X158362805Y-107019278D01*
X158366642Y-107037161D01*
X158374946Y-107053458D01*
X158372905Y-107066343D01*
X158375643Y-107079101D01*
X158368510Y-107094092D01*
X158365375Y-107113890D01*
X158350865Y-107135045D01*
X158349064Y-107137052D01*
X158298302Y-107187815D01*
X158292029Y-107200645D01*
X158282835Y-107210897D01*
X158267699Y-107219675D01*
X158255531Y-107232252D01*
X158238860Y-107236400D01*
X158229907Y-107241593D01*
X158221483Y-107240724D01*
X158209135Y-107243797D01*
X157715865Y-107243797D01*
X157657674Y-107224890D01*
X157631888Y-107194189D01*
X157631465Y-107194492D01*
X157627618Y-107189104D01*
X157626925Y-107188279D01*
X157626699Y-107187817D01*
X157626698Y-107187816D01*
X157626698Y-107187815D01*
X157543983Y-107105100D01*
X157521466Y-107094092D01*
X157438895Y-107053725D01*
X157411639Y-107049754D01*
X157370760Y-107043798D01*
X156279240Y-107043798D01*
X156245173Y-107048761D01*
X156211104Y-107053725D01*
X156106018Y-107105099D01*
X156023301Y-107187816D01*
X155971927Y-107292902D01*
X155971927Y-107292905D01*
X155962000Y-107361038D01*
X155962000Y-107727558D01*
X155968618Y-107772980D01*
X155971927Y-107795693D01*
X156012605Y-107878900D01*
X156023302Y-107900781D01*
X156106017Y-107983496D01*
X156153983Y-108006945D01*
X156211104Y-108034870D01*
X156211105Y-108034870D01*
X156211107Y-108034871D01*
X156279240Y-108044798D01*
X156425500Y-108044798D01*
X156483691Y-108063705D01*
X156519655Y-108113205D01*
X156524500Y-108143798D01*
X156524500Y-108849521D01*
X156505593Y-108907712D01*
X156495504Y-108919525D01*
X155914525Y-109500504D01*
X155860008Y-109528281D01*
X155844521Y-109529500D01*
X154555479Y-109529500D01*
X154497288Y-109510593D01*
X154485475Y-109500504D01*
X153989496Y-109004525D01*
X153961719Y-108950008D01*
X153960500Y-108934521D01*
X153960500Y-108834109D01*
X153960500Y-108834108D01*
X153926392Y-108706814D01*
X153926390Y-108706811D01*
X153926390Y-108706809D01*
X153860503Y-108592690D01*
X153860501Y-108592688D01*
X153860500Y-108592686D01*
X153767314Y-108499500D01*
X153767311Y-108499498D01*
X153767309Y-108499496D01*
X153653189Y-108433609D01*
X153653191Y-108433609D01*
X153603799Y-108420375D01*
X153525892Y-108399500D01*
X153394108Y-108399500D01*
X153316200Y-108420375D01*
X153266809Y-108433609D01*
X153152690Y-108499496D01*
X153059496Y-108592690D01*
X152993609Y-108706809D01*
X152993608Y-108706814D01*
X152959500Y-108834108D01*
X152959500Y-108965892D01*
X152969852Y-109004525D01*
X152993609Y-109093190D01*
X153059496Y-109207309D01*
X153059498Y-109207311D01*
X153059500Y-109207314D01*
X153152686Y-109300500D01*
X153152688Y-109300501D01*
X153152690Y-109300503D01*
X153266810Y-109366390D01*
X153266808Y-109366390D01*
X153266812Y-109366391D01*
X153266814Y-109366392D01*
X153394108Y-109400500D01*
X153394110Y-109400500D01*
X153494521Y-109400500D01*
X153552712Y-109419407D01*
X153564525Y-109429496D01*
X154205489Y-110070460D01*
X154205491Y-110070461D01*
X154205492Y-110070462D01*
X154205493Y-110070463D01*
X154274008Y-110110020D01*
X154274006Y-110110020D01*
X154274010Y-110110021D01*
X154274012Y-110110022D01*
X154350438Y-110130500D01*
X154350440Y-110130500D01*
X156049563Y-110130500D01*
X156049563Y-110130499D01*
X156125989Y-110110021D01*
X156194511Y-110070460D01*
X156250460Y-110014511D01*
X157065460Y-109199511D01*
X157105021Y-109130989D01*
X157125500Y-109054562D01*
X157125500Y-108143798D01*
X157144407Y-108085607D01*
X157193907Y-108049643D01*
X157224500Y-108044798D01*
X157370757Y-108044798D01*
X157370760Y-108044798D01*
X157438893Y-108034871D01*
X157543983Y-107983496D01*
X157626698Y-107900781D01*
X157626926Y-107900315D01*
X157627324Y-107899903D01*
X157631465Y-107894104D01*
X157632334Y-107894724D01*
X157669470Y-107856342D01*
X157715866Y-107844797D01*
X158209134Y-107844797D01*
X158267325Y-107863704D01*
X158293111Y-107894406D01*
X158293535Y-107894104D01*
X158297377Y-107899485D01*
X158298074Y-107900315D01*
X158298300Y-107900778D01*
X158298301Y-107900779D01*
X158298302Y-107900781D01*
X158381017Y-107983496D01*
X158428983Y-108006945D01*
X158486104Y-108034870D01*
X158486105Y-108034870D01*
X158486107Y-108034871D01*
X158554240Y-108044798D01*
X158554243Y-108044798D01*
X159645757Y-108044798D01*
X159645760Y-108044798D01*
X159713893Y-108034871D01*
X159818983Y-107983496D01*
X159828512Y-107973966D01*
X159883026Y-107946188D01*
X159943458Y-107955758D01*
X159986724Y-107999021D01*
X159997515Y-108043918D01*
X160000000Y-113000000D01*
X162101000Y-113000000D01*
X162159191Y-113018907D01*
X162195155Y-113068407D01*
X162200000Y-113099000D01*
X162200000Y-113465749D01*
X162181093Y-113523940D01*
X162131593Y-113559904D01*
X162126624Y-113561375D01*
X162018219Y-113590422D01*
X162018218Y-113590422D01*
X161881284Y-113669481D01*
X161769480Y-113781285D01*
X161690423Y-113918217D01*
X161649500Y-114070944D01*
X161649500Y-114229058D01*
X161676782Y-114330876D01*
X161690423Y-114381786D01*
X161728795Y-114448248D01*
X161741516Y-114508096D01*
X161716629Y-114563991D01*
X161675757Y-114591191D01*
X161587115Y-114622208D01*
X161477855Y-114702846D01*
X161477845Y-114702856D01*
X161397207Y-114812117D01*
X161352355Y-114940297D01*
X161352353Y-114940306D01*
X161349500Y-114970726D01*
X161349500Y-115604275D01*
X161352353Y-115634695D01*
X161352355Y-115634704D01*
X161397207Y-115762884D01*
X161477845Y-115872145D01*
X161477847Y-115872147D01*
X161477850Y-115872151D01*
X161477853Y-115872153D01*
X161477855Y-115872155D01*
X161587116Y-115952793D01*
X161587117Y-115952793D01*
X161587118Y-115952794D01*
X161715301Y-115997647D01*
X161745725Y-116000500D01*
X161745727Y-116000501D01*
X161745734Y-116000501D01*
X161984524Y-116000501D01*
X162037614Y-116015940D01*
X162046817Y-116021787D01*
X162065490Y-116040460D01*
X162134012Y-116080021D01*
X162141729Y-116082088D01*
X162154090Y-116089942D01*
X162168365Y-116107216D01*
X162185409Y-116121771D01*
X162188007Y-116130983D01*
X162193067Y-116137106D01*
X162194013Y-116152278D01*
X162200000Y-116173503D01*
X162200000Y-116300501D01*
X162181093Y-116358692D01*
X162131593Y-116394656D01*
X162101000Y-116399501D01*
X161745725Y-116399501D01*
X161715305Y-116402354D01*
X161715296Y-116402356D01*
X161587116Y-116447208D01*
X161477855Y-116527846D01*
X161477845Y-116527856D01*
X161397207Y-116637117D01*
X161352355Y-116765297D01*
X161352353Y-116765306D01*
X161349500Y-116795726D01*
X161349500Y-117429275D01*
X161352353Y-117459695D01*
X161352355Y-117459704D01*
X161397207Y-117587884D01*
X161477845Y-117697145D01*
X161477847Y-117697147D01*
X161477850Y-117697151D01*
X161477853Y-117697153D01*
X161477855Y-117697155D01*
X161587116Y-117777793D01*
X161587117Y-117777793D01*
X161587118Y-117777794D01*
X161715301Y-117822647D01*
X161745725Y-117825500D01*
X161745727Y-117825501D01*
X161745734Y-117825501D01*
X161850500Y-117825501D01*
X161908691Y-117844408D01*
X161944655Y-117893908D01*
X161949500Y-117924501D01*
X161949500Y-119989564D01*
X161969977Y-120065985D01*
X161969978Y-120065987D01*
X161969979Y-120065989D01*
X162003521Y-120124086D01*
X162009540Y-120134511D01*
X162171005Y-120295976D01*
X162198781Y-120350491D01*
X162200000Y-120365978D01*
X162200000Y-124000000D01*
X162200001Y-124000000D01*
X165901000Y-124000000D01*
X165959191Y-124018907D01*
X165995155Y-124068407D01*
X166000000Y-124099000D01*
X166000000Y-126401000D01*
X165981093Y-126459191D01*
X165931593Y-126495155D01*
X165901000Y-126500000D01*
X165702150Y-126500000D01*
X165643959Y-126481093D01*
X165607995Y-126431593D01*
X165606523Y-126375377D01*
X165607855Y-126370407D01*
X165632332Y-126279057D01*
X165632332Y-126120943D01*
X165591409Y-125968216D01*
X165512352Y-125831284D01*
X165400548Y-125719480D01*
X165263616Y-125640423D01*
X165110889Y-125599500D01*
X164952775Y-125599500D01*
X164800048Y-125640423D01*
X164663116Y-125719480D01*
X164551312Y-125831284D01*
X164472255Y-125968216D01*
X164431332Y-126120943D01*
X164431332Y-126279057D01*
X164455809Y-126370407D01*
X164457141Y-126375377D01*
X164453938Y-126436479D01*
X164415433Y-126484029D01*
X164361514Y-126500000D01*
X151913966Y-126500000D01*
X151855775Y-126481093D01*
X151819811Y-126431593D01*
X151819811Y-126370407D01*
X151855775Y-126320907D01*
X151888340Y-126305374D01*
X151940523Y-126291392D01*
X151940525Y-126291390D01*
X151940527Y-126291390D01*
X152054646Y-126225503D01*
X152054646Y-126225502D01*
X152054651Y-126225500D01*
X152147837Y-126132314D01*
X152151771Y-126125500D01*
X152213727Y-126018190D01*
X152213727Y-126018188D01*
X152213729Y-126018186D01*
X152247837Y-125890892D01*
X152247837Y-125759108D01*
X152213729Y-125631814D01*
X152213727Y-125631811D01*
X152213727Y-125631809D01*
X152147840Y-125517690D01*
X152147838Y-125517688D01*
X152147837Y-125517686D01*
X152054651Y-125424500D01*
X152054648Y-125424498D01*
X152054646Y-125424496D01*
X151940526Y-125358609D01*
X151940528Y-125358609D01*
X151891136Y-125345375D01*
X151813229Y-125324500D01*
X151681445Y-125324500D01*
X151603537Y-125345375D01*
X151554146Y-125358609D01*
X151440027Y-125424496D01*
X151440026Y-125424497D01*
X151440023Y-125424499D01*
X151440023Y-125424500D01*
X151369017Y-125495505D01*
X151314503Y-125523281D01*
X151299016Y-125524500D01*
X148098260Y-125524500D01*
X148040069Y-125505593D01*
X148004105Y-125456093D01*
X147999260Y-125425569D01*
X147999190Y-125324500D01*
X147999027Y-125088267D01*
X148013854Y-125036087D01*
X148099440Y-124897859D01*
X148166421Y-124724960D01*
X148200491Y-124542697D01*
X148200491Y-124522623D01*
X148200499Y-124522504D01*
X148200499Y-123920945D01*
X159699499Y-123920945D01*
X159699499Y-124079059D01*
X159740422Y-124231786D01*
X159819479Y-124368718D01*
X159931283Y-124480522D01*
X160068215Y-124559579D01*
X160220942Y-124600502D01*
X160220944Y-124600502D01*
X160379054Y-124600502D01*
X160379056Y-124600502D01*
X160531783Y-124559579D01*
X160668715Y-124480522D01*
X160780519Y-124368718D01*
X160859576Y-124231786D01*
X160900499Y-124079059D01*
X160900499Y-123920945D01*
X160859576Y-123768218D01*
X160780519Y-123631286D01*
X160668715Y-123519482D01*
X160531783Y-123440425D01*
X160379056Y-123399502D01*
X160220942Y-123399502D01*
X160068215Y-123440425D01*
X159931283Y-123519482D01*
X159819479Y-123631286D01*
X159740422Y-123768218D01*
X159699499Y-123920945D01*
X148200499Y-123920945D01*
X148200499Y-123914456D01*
X148200499Y-121851250D01*
X148200499Y-119782487D01*
X149450532Y-119782487D01*
X149450532Y-120416036D01*
X149453385Y-120446456D01*
X149453387Y-120446465D01*
X149498239Y-120574645D01*
X149578877Y-120683906D01*
X149578879Y-120683908D01*
X149578882Y-120683912D01*
X149578885Y-120683914D01*
X149578887Y-120683916D01*
X149688148Y-120764554D01*
X149688149Y-120764554D01*
X149688150Y-120764555D01*
X149816333Y-120809408D01*
X149846757Y-120812261D01*
X149846759Y-120812262D01*
X149846766Y-120812262D01*
X150855305Y-120812262D01*
X150855305Y-120812261D01*
X150885731Y-120809408D01*
X151013914Y-120764555D01*
X151123182Y-120683912D01*
X151203825Y-120574644D01*
X151219961Y-120528527D01*
X151257025Y-120479849D01*
X151315625Y-120462251D01*
X151373377Y-120482458D01*
X151383401Y-120491215D01*
X151392686Y-120500500D01*
X151392688Y-120500501D01*
X151392690Y-120500503D01*
X151506810Y-120566390D01*
X151506808Y-120566390D01*
X151506812Y-120566391D01*
X151506814Y-120566392D01*
X151634108Y-120600500D01*
X151634110Y-120600500D01*
X151765890Y-120600500D01*
X151765892Y-120600500D01*
X151893186Y-120566392D01*
X151893188Y-120566390D01*
X151893190Y-120566390D01*
X152007309Y-120500503D01*
X152007309Y-120500502D01*
X152007314Y-120500500D01*
X152100500Y-120407314D01*
X152104434Y-120400500D01*
X152166390Y-120293190D01*
X152166390Y-120293188D01*
X152166392Y-120293186D01*
X152200500Y-120165892D01*
X152200500Y-120034108D01*
X152166392Y-119906814D01*
X152166390Y-119906811D01*
X152166390Y-119906809D01*
X152100503Y-119792690D01*
X152100501Y-119792688D01*
X152100500Y-119792686D01*
X152007314Y-119699500D01*
X152007311Y-119699498D01*
X152007309Y-119699496D01*
X151893189Y-119633609D01*
X151893191Y-119633609D01*
X151843799Y-119620375D01*
X151765892Y-119599500D01*
X151634108Y-119599500D01*
X151556200Y-119620375D01*
X151506809Y-119633609D01*
X151392690Y-119699496D01*
X151392683Y-119699501D01*
X151383789Y-119708396D01*
X151329271Y-119736172D01*
X151268840Y-119726598D01*
X151225577Y-119683332D01*
X151220344Y-119671088D01*
X151203824Y-119623878D01*
X151123186Y-119514617D01*
X151123184Y-119514615D01*
X151123182Y-119514612D01*
X151123178Y-119514609D01*
X151123176Y-119514607D01*
X151013915Y-119433969D01*
X150885735Y-119389117D01*
X150885726Y-119389115D01*
X150855306Y-119386262D01*
X150855298Y-119386262D01*
X149846766Y-119386262D01*
X149846757Y-119386262D01*
X149816337Y-119389115D01*
X149816328Y-119389117D01*
X149688148Y-119433969D01*
X149578887Y-119514607D01*
X149578877Y-119514617D01*
X149498239Y-119623878D01*
X149453387Y-119752058D01*
X149453385Y-119752067D01*
X149450532Y-119782487D01*
X148200499Y-119782487D01*
X148200498Y-118374263D01*
X149451033Y-118374263D01*
X149451033Y-118590965D01*
X149453882Y-118621362D01*
X149453882Y-118621364D01*
X149498686Y-118749409D01*
X149579239Y-118858552D01*
X149579241Y-118858554D01*
X149688384Y-118939107D01*
X149816430Y-118983911D01*
X149846821Y-118986761D01*
X150251030Y-118986761D01*
X150251032Y-118986760D01*
X150251032Y-118374263D01*
X150451032Y-118374263D01*
X150451032Y-118986760D01*
X150451033Y-118986761D01*
X150855235Y-118986761D01*
X150885632Y-118983911D01*
X150885634Y-118983911D01*
X151013679Y-118939107D01*
X151122822Y-118858554D01*
X151122824Y-118858552D01*
X151203377Y-118749409D01*
X151248181Y-118621363D01*
X151251031Y-118590973D01*
X151251032Y-118590972D01*
X151251032Y-118374263D01*
X151251031Y-118374262D01*
X150451033Y-118374262D01*
X150451032Y-118374263D01*
X150251032Y-118374263D01*
X150251031Y-118374262D01*
X149451034Y-118374262D01*
X149451033Y-118374263D01*
X148200498Y-118374263D01*
X148200498Y-117957550D01*
X149451032Y-117957550D01*
X149451032Y-118174261D01*
X149451033Y-118174262D01*
X150251031Y-118174262D01*
X150251032Y-118174261D01*
X150251032Y-117561763D01*
X150451032Y-117561763D01*
X150451032Y-118174261D01*
X150451033Y-118174262D01*
X151251030Y-118174262D01*
X151251031Y-118174261D01*
X151251031Y-117957558D01*
X151251024Y-117957487D01*
X151606313Y-117957487D01*
X151606313Y-118591036D01*
X151609166Y-118621456D01*
X151609168Y-118621465D01*
X151654020Y-118749645D01*
X151734658Y-118858906D01*
X151734660Y-118858908D01*
X151734663Y-118858912D01*
X151734666Y-118858914D01*
X151734668Y-118858916D01*
X151843929Y-118939554D01*
X151843930Y-118939554D01*
X151843931Y-118939555D01*
X151972114Y-118984408D01*
X152002538Y-118987261D01*
X152002540Y-118987262D01*
X152002547Y-118987262D01*
X153011086Y-118987262D01*
X153011086Y-118987261D01*
X153041512Y-118984408D01*
X153169695Y-118939555D01*
X153278963Y-118858912D01*
X153359606Y-118749644D01*
X153385648Y-118675220D01*
X153397600Y-118641064D01*
X153415477Y-118617584D01*
X153432853Y-118593669D01*
X153433960Y-118593309D01*
X153434665Y-118592384D01*
X153491044Y-118574762D01*
X153508783Y-118574762D01*
X153566974Y-118593669D01*
X153578787Y-118603758D01*
X154570504Y-119595475D01*
X154598281Y-119649992D01*
X154599500Y-119665479D01*
X154599500Y-120000500D01*
X154580593Y-120058691D01*
X154531093Y-120094655D01*
X154500500Y-120099500D01*
X154434108Y-120099500D01*
X154356200Y-120120375D01*
X154306809Y-120133609D01*
X154192690Y-120199496D01*
X154099496Y-120292690D01*
X154033609Y-120406809D01*
X153999500Y-120534109D01*
X153999500Y-120634520D01*
X153980593Y-120692711D01*
X153970504Y-120704524D01*
X153473755Y-121201272D01*
X153419238Y-121229049D01*
X153365866Y-121222732D01*
X153277251Y-121186027D01*
X153093618Y-121149500D01*
X153093616Y-121149500D01*
X152906384Y-121149500D01*
X152906381Y-121149500D01*
X152722750Y-121186026D01*
X152549770Y-121257677D01*
X152549761Y-121257681D01*
X152394092Y-121361698D01*
X152394088Y-121361701D01*
X152261701Y-121494088D01*
X152261698Y-121494092D01*
X152157681Y-121649761D01*
X152157677Y-121649770D01*
X152086026Y-121822750D01*
X152049500Y-122006381D01*
X152049500Y-122193618D01*
X152086026Y-122377249D01*
X152157677Y-122550229D01*
X152157681Y-122550238D01*
X152232065Y-122661559D01*
X152261698Y-122705908D01*
X152394092Y-122838302D01*
X152442280Y-122870500D01*
X152549761Y-122942318D01*
X152549767Y-122942320D01*
X152549769Y-122942322D01*
X152722749Y-123013973D01*
X152906384Y-123050500D01*
X152906385Y-123050500D01*
X153093615Y-123050500D01*
X153093616Y-123050500D01*
X153277251Y-123013973D01*
X153450231Y-122942322D01*
X153450234Y-122942319D01*
X153450238Y-122942318D01*
X153495187Y-122912282D01*
X153605908Y-122838302D01*
X153738302Y-122705908D01*
X153812282Y-122595187D01*
X153842318Y-122550238D01*
X153842319Y-122550234D01*
X153842322Y-122550231D01*
X153913973Y-122377251D01*
X153950500Y-122193616D01*
X153950500Y-122006384D01*
X153913973Y-121822749D01*
X153877265Y-121734130D01*
X153872465Y-121673136D01*
X153898724Y-121626245D01*
X154064534Y-121460435D01*
X155099500Y-121460435D01*
X155099500Y-122189564D01*
X155119976Y-122265982D01*
X155119982Y-122265995D01*
X155130673Y-122284512D01*
X155130674Y-122284512D01*
X155159540Y-122334511D01*
X155159542Y-122334513D01*
X155379539Y-122554511D01*
X155435489Y-122610460D01*
X155504007Y-122650019D01*
X155504011Y-122650021D01*
X155580435Y-122670499D01*
X155580437Y-122670500D01*
X155580438Y-122670500D01*
X155651679Y-122670500D01*
X155709870Y-122689407D01*
X155721676Y-122699490D01*
X155792686Y-122770500D01*
X155792688Y-122770501D01*
X155792690Y-122770503D01*
X155906810Y-122836390D01*
X155906808Y-122836390D01*
X155906812Y-122836391D01*
X155906814Y-122836392D01*
X156034108Y-122870500D01*
X156034110Y-122870500D01*
X156165890Y-122870500D01*
X156165892Y-122870500D01*
X156293186Y-122836392D01*
X156293188Y-122836390D01*
X156293190Y-122836390D01*
X156407309Y-122770503D01*
X156407309Y-122770502D01*
X156407314Y-122770500D01*
X156500500Y-122677314D01*
X156516259Y-122650019D01*
X156566390Y-122563190D01*
X156566390Y-122563188D01*
X156566392Y-122563186D01*
X156600500Y-122435892D01*
X156600500Y-122304108D01*
X156566392Y-122176814D01*
X156566390Y-122176811D01*
X156566390Y-122176809D01*
X156500503Y-122062690D01*
X156500501Y-122062688D01*
X156500500Y-122062686D01*
X156407314Y-121969500D01*
X156407311Y-121969498D01*
X156407309Y-121969496D01*
X156293189Y-121903609D01*
X156293191Y-121903609D01*
X156241489Y-121889756D01*
X156165892Y-121869500D01*
X156034108Y-121869500D01*
X155970461Y-121886554D01*
X155906812Y-121903608D01*
X155849000Y-121936987D01*
X155838651Y-121939186D01*
X155830093Y-121945405D01*
X155809396Y-121945405D01*
X155789152Y-121949708D01*
X155779487Y-121945405D01*
X155768907Y-121945405D01*
X155752160Y-121933238D01*
X155733256Y-121924821D01*
X155727966Y-121915660D01*
X155719407Y-121909441D01*
X155713011Y-121889756D01*
X155702663Y-121871833D01*
X155700500Y-121851250D01*
X155700500Y-121665478D01*
X155719407Y-121607287D01*
X155729490Y-121595480D01*
X157493081Y-119831888D01*
X157547596Y-119804113D01*
X157608028Y-119813684D01*
X157633083Y-119831887D01*
X157707168Y-119905972D01*
X157730705Y-119925473D01*
X157853060Y-119984397D01*
X157853063Y-119984397D01*
X157853065Y-119984398D01*
X157987345Y-120004637D01*
X157987348Y-120004637D01*
X157987350Y-120004637D01*
X158121630Y-119984398D01*
X158121630Y-119984397D01*
X158121635Y-119984397D01*
X158243990Y-119925473D01*
X158267527Y-119905972D01*
X158715502Y-119457997D01*
X158735003Y-119434460D01*
X158793927Y-119312105D01*
X158814167Y-119177818D01*
X158814167Y-119177814D01*
X158793928Y-119043535D01*
X158793927Y-119043533D01*
X158793927Y-119043530D01*
X158735003Y-118921175D01*
X158715502Y-118897638D01*
X158002362Y-118184498D01*
X157978825Y-118164997D01*
X157856470Y-118106073D01*
X157856464Y-118106071D01*
X157722185Y-118085833D01*
X157722180Y-118085833D01*
X157587899Y-118106071D01*
X157587890Y-118106074D01*
X157566912Y-118116177D01*
X157506280Y-118124390D01*
X157452401Y-118095396D01*
X157425854Y-118040269D01*
X157436779Y-117980067D01*
X157453956Y-117956976D01*
X157456077Y-117954855D01*
X157484202Y-117926730D01*
X157503703Y-117903192D01*
X157562626Y-117780837D01*
X157582867Y-117646550D01*
X157579194Y-117622185D01*
X157579193Y-117622179D01*
X158185833Y-117622179D01*
X158185833Y-117622185D01*
X158206071Y-117756464D01*
X158206073Y-117756470D01*
X158264997Y-117878825D01*
X158284498Y-117902362D01*
X158997638Y-118615502D01*
X159021175Y-118635003D01*
X159143530Y-118693927D01*
X159143533Y-118693927D01*
X159143535Y-118693928D01*
X159277815Y-118714167D01*
X159277818Y-118714167D01*
X159277820Y-118714167D01*
X159412100Y-118693928D01*
X159412100Y-118693927D01*
X159412105Y-118693927D01*
X159534460Y-118635003D01*
X159557997Y-118615502D01*
X160005972Y-118167527D01*
X160025473Y-118143990D01*
X160084397Y-118021635D01*
X160084396Y-118021635D01*
X160084398Y-118021633D01*
X160084398Y-118021630D01*
X160104637Y-117887350D01*
X160104637Y-117887344D01*
X160084398Y-117753065D01*
X160084397Y-117753063D01*
X160084397Y-117753060D01*
X160025473Y-117630705D01*
X160005972Y-117607168D01*
X159474731Y-117075927D01*
X159446954Y-117021410D01*
X159445735Y-117005923D01*
X159445735Y-116246828D01*
X159464642Y-116188637D01*
X159474725Y-116176830D01*
X159544242Y-116107314D01*
X159579245Y-116046688D01*
X159610132Y-115993190D01*
X159610132Y-115993188D01*
X159610134Y-115993186D01*
X159644242Y-115865892D01*
X159644242Y-115734108D01*
X159610134Y-115606814D01*
X159610132Y-115606811D01*
X159610132Y-115606809D01*
X159544245Y-115492690D01*
X159544243Y-115492688D01*
X159544242Y-115492686D01*
X159451056Y-115399500D01*
X159451053Y-115399498D01*
X159451051Y-115399496D01*
X159336931Y-115333609D01*
X159336933Y-115333609D01*
X159287541Y-115320375D01*
X159209634Y-115299500D01*
X159077850Y-115299500D01*
X158999942Y-115320375D01*
X158950551Y-115333609D01*
X158836432Y-115399496D01*
X158743238Y-115492690D01*
X158677351Y-115606809D01*
X158677350Y-115606814D01*
X158643242Y-115734108D01*
X158643242Y-115865892D01*
X158672177Y-115973880D01*
X158677351Y-115993190D01*
X158743238Y-116107309D01*
X158743240Y-116107311D01*
X158743242Y-116107314D01*
X158814247Y-116178319D01*
X158815487Y-116180752D01*
X158817852Y-116182120D01*
X158822930Y-116195362D01*
X158842023Y-116232834D01*
X158842706Y-116238031D01*
X158843242Y-116243159D01*
X158843242Y-116244775D01*
X158843518Y-116245807D01*
X158844199Y-116252317D01*
X158844093Y-116252814D01*
X158844735Y-116262607D01*
X158844735Y-116769592D01*
X158825828Y-116827783D01*
X158788692Y-116858787D01*
X158756012Y-116874525D01*
X158732475Y-116894026D01*
X158284496Y-117342005D01*
X158264997Y-117365540D01*
X158206073Y-117487894D01*
X158206071Y-117487899D01*
X158185833Y-117622179D01*
X157579193Y-117622179D01*
X157574024Y-117587883D01*
X157562626Y-117512263D01*
X157503703Y-117389908D01*
X157484202Y-117366370D01*
X157053905Y-116936073D01*
X157053897Y-116936066D01*
X157030370Y-116916574D01*
X157030368Y-116916573D01*
X157030367Y-116916572D01*
X156908012Y-116857649D01*
X156840868Y-116847528D01*
X156773726Y-116837408D01*
X156773724Y-116837408D01*
X156639438Y-116857649D01*
X156517079Y-116916574D01*
X156493552Y-116936066D01*
X156493540Y-116936077D01*
X155745054Y-117684563D01*
X155745043Y-117684575D01*
X155725551Y-117708102D01*
X155725549Y-117708105D01*
X155725549Y-117708106D01*
X155666626Y-117830461D01*
X155646385Y-117964748D01*
X155666626Y-118099035D01*
X155725549Y-118221390D01*
X155725550Y-118221391D01*
X155725551Y-118221393D01*
X155745043Y-118244920D01*
X155745054Y-118244932D01*
X156175342Y-118675220D01*
X156175354Y-118675231D01*
X156197921Y-118693928D01*
X156198885Y-118694726D01*
X156321240Y-118753649D01*
X156437936Y-118771238D01*
X156455526Y-118773890D01*
X156455527Y-118773890D01*
X156455528Y-118773890D01*
X156471080Y-118771545D01*
X156589814Y-118753649D01*
X156712169Y-118694726D01*
X156735707Y-118675225D01*
X156766506Y-118644426D01*
X156821022Y-118616647D01*
X156881455Y-118626218D01*
X156924720Y-118669482D01*
X156934292Y-118729914D01*
X156925707Y-118757382D01*
X156915604Y-118778360D01*
X156915601Y-118778369D01*
X156895363Y-118912649D01*
X156895363Y-118912655D01*
X156915601Y-119046934D01*
X156915603Y-119046940D01*
X156974527Y-119169295D01*
X156994028Y-119192832D01*
X157068109Y-119266913D01*
X157095885Y-119321428D01*
X157086314Y-119381860D01*
X157068108Y-119406919D01*
X155215489Y-121259540D01*
X155215488Y-121259539D01*
X155159539Y-121315489D01*
X155119980Y-121384007D01*
X155119978Y-121384011D01*
X155099500Y-121460435D01*
X154064534Y-121460435D01*
X154323698Y-121201272D01*
X154395475Y-121129496D01*
X154449991Y-121101719D01*
X154465478Y-121100500D01*
X154565890Y-121100500D01*
X154565892Y-121100500D01*
X154693186Y-121066392D01*
X154693188Y-121066390D01*
X154693190Y-121066390D01*
X154807309Y-121000503D01*
X154807309Y-121000502D01*
X154807314Y-121000500D01*
X154900500Y-120907314D01*
X154900503Y-120907309D01*
X154966390Y-120793190D01*
X154966390Y-120793188D01*
X154966392Y-120793186D01*
X155000500Y-120665892D01*
X155000500Y-120565477D01*
X155019407Y-120507286D01*
X155029497Y-120495473D01*
X155062719Y-120462251D01*
X155140460Y-120384511D01*
X155140462Y-120384507D01*
X155140464Y-120384506D01*
X155162743Y-120345916D01*
X155162744Y-120345913D01*
X155174835Y-120324971D01*
X155180021Y-120315989D01*
X155200500Y-120239562D01*
X155200500Y-119460438D01*
X155180021Y-119384011D01*
X155140460Y-119315489D01*
X155137071Y-119312100D01*
X155084511Y-119259539D01*
X155084511Y-119259540D01*
X153858773Y-118033802D01*
X153858770Y-118033800D01*
X153837699Y-118021634D01*
X153837699Y-118021635D01*
X153790251Y-117994241D01*
X153790250Y-117994240D01*
X153790249Y-117994240D01*
X153713826Y-117973762D01*
X153713824Y-117973762D01*
X153491044Y-117973762D01*
X153432853Y-117954855D01*
X153397600Y-117907460D01*
X153359605Y-117798878D01*
X153278967Y-117689617D01*
X153278965Y-117689615D01*
X153278963Y-117689612D01*
X153278959Y-117689609D01*
X153278957Y-117689607D01*
X153169696Y-117608969D01*
X153041516Y-117564117D01*
X153041507Y-117564115D01*
X153011087Y-117561262D01*
X153011079Y-117561262D01*
X152002547Y-117561262D01*
X152002538Y-117561262D01*
X151972118Y-117564115D01*
X151972109Y-117564117D01*
X151843929Y-117608969D01*
X151734668Y-117689607D01*
X151734658Y-117689617D01*
X151654020Y-117798878D01*
X151609168Y-117927058D01*
X151609166Y-117927067D01*
X151606313Y-117957487D01*
X151251024Y-117957487D01*
X151248181Y-117927161D01*
X151248181Y-117927159D01*
X151203377Y-117799114D01*
X151122824Y-117689971D01*
X151122822Y-117689969D01*
X151013679Y-117609416D01*
X150885633Y-117564612D01*
X150855243Y-117561762D01*
X150451033Y-117561762D01*
X150451032Y-117561763D01*
X150251032Y-117561763D01*
X150251031Y-117561762D01*
X149846828Y-117561762D01*
X149816431Y-117564612D01*
X149816429Y-117564612D01*
X149688384Y-117609416D01*
X149579241Y-117689969D01*
X149579239Y-117689971D01*
X149498686Y-117799114D01*
X149453882Y-117927160D01*
X149451032Y-117957550D01*
X148200498Y-117957550D01*
X148200498Y-117186931D01*
X154687761Y-117186931D01*
X154832151Y-117331320D01*
X154832154Y-117331323D01*
X154855666Y-117350805D01*
X154977886Y-117409663D01*
X155112024Y-117429882D01*
X155112026Y-117429882D01*
X155246162Y-117409663D01*
X155246163Y-117409663D01*
X155368384Y-117350804D01*
X155391888Y-117331331D01*
X155391911Y-117331310D01*
X155695386Y-117027832D01*
X155271123Y-116603569D01*
X154687761Y-117186931D01*
X148200498Y-117186931D01*
X148200498Y-117084108D01*
X148200498Y-117057292D01*
X148166428Y-116875029D01*
X148099447Y-116702129D01*
X148007938Y-116554338D01*
X147993112Y-116502294D01*
X147992857Y-116132487D01*
X151606313Y-116132487D01*
X151606313Y-116766036D01*
X151609166Y-116796456D01*
X151609168Y-116796465D01*
X151654020Y-116924645D01*
X151734658Y-117033906D01*
X151734660Y-117033908D01*
X151734663Y-117033912D01*
X151734666Y-117033914D01*
X151734668Y-117033916D01*
X151843929Y-117114554D01*
X151843930Y-117114554D01*
X151843931Y-117114555D01*
X151972114Y-117159408D01*
X152002538Y-117162261D01*
X152002540Y-117162262D01*
X152002547Y-117162262D01*
X153011086Y-117162262D01*
X153011086Y-117162261D01*
X153041512Y-117159408D01*
X153169695Y-117114555D01*
X153199472Y-117092578D01*
X153235121Y-117066269D01*
X153248817Y-117056159D01*
X153278963Y-117033912D01*
X153359606Y-116924644D01*
X153404459Y-116796461D01*
X153407312Y-116766035D01*
X153407313Y-116766035D01*
X153407313Y-116621245D01*
X154303389Y-116621245D01*
X154303389Y-116621246D01*
X154323607Y-116755383D01*
X154323607Y-116755384D01*
X154382466Y-116877605D01*
X154401939Y-116901109D01*
X154401960Y-116901132D01*
X154546338Y-117045508D01*
X155129700Y-116462146D01*
X155412546Y-116462146D01*
X155836809Y-116886409D01*
X156140312Y-116582905D01*
X156159781Y-116559408D01*
X156218640Y-116437186D01*
X156218640Y-116437185D01*
X156238859Y-116303048D01*
X156238859Y-116303047D01*
X156218640Y-116168910D01*
X156218640Y-116168909D01*
X156159781Y-116046688D01*
X156140308Y-116023184D01*
X156140287Y-116023161D01*
X155995908Y-115878784D01*
X155412546Y-116462146D01*
X155129700Y-116462146D01*
X154705437Y-116037883D01*
X154401950Y-116341372D01*
X154401947Y-116341375D01*
X154382465Y-116364887D01*
X154323607Y-116487107D01*
X154323607Y-116487108D01*
X154303389Y-116621245D01*
X153407313Y-116621245D01*
X153407313Y-116132489D01*
X153407312Y-116132487D01*
X153404459Y-116102067D01*
X153404459Y-116102063D01*
X153359606Y-115973880D01*
X153359605Y-115973878D01*
X153315592Y-115914242D01*
X153302469Y-115896461D01*
X154846861Y-115896461D01*
X155271123Y-116320723D01*
X155854485Y-115737361D01*
X155710096Y-115592973D01*
X155710093Y-115592970D01*
X155686581Y-115573488D01*
X155564361Y-115514630D01*
X155430224Y-115494412D01*
X155430222Y-115494412D01*
X155296085Y-115514630D01*
X155296084Y-115514630D01*
X155173863Y-115573489D01*
X155150359Y-115592962D01*
X154846861Y-115896461D01*
X153302469Y-115896461D01*
X153278967Y-115864617D01*
X153278965Y-115864615D01*
X153278963Y-115864612D01*
X153278959Y-115864609D01*
X153278957Y-115864607D01*
X153169696Y-115783969D01*
X153142935Y-115774605D01*
X153094255Y-115737540D01*
X153076658Y-115678939D01*
X153080004Y-115655547D01*
X153100500Y-115579057D01*
X153100500Y-115420943D01*
X153059577Y-115268216D01*
X152980520Y-115131284D01*
X152868716Y-115019480D01*
X152731784Y-114940423D01*
X152579057Y-114899500D01*
X152420943Y-114899500D01*
X152268216Y-114940423D01*
X152131284Y-115019480D01*
X152019480Y-115131284D01*
X151940423Y-115268216D01*
X151899500Y-115420943D01*
X151899500Y-115579057D01*
X151914411Y-115634704D01*
X151921161Y-115659897D01*
X151917958Y-115720999D01*
X151879453Y-115768549D01*
X151858235Y-115778963D01*
X151843930Y-115783968D01*
X151843929Y-115783969D01*
X151734668Y-115864607D01*
X151734658Y-115864617D01*
X151654020Y-115973878D01*
X151609168Y-116102058D01*
X151609166Y-116102067D01*
X151606313Y-116132487D01*
X147992857Y-116132487D01*
X147991287Y-113853519D01*
X148010153Y-113795320D01*
X148059628Y-113759323D01*
X148120814Y-113759280D01*
X148160290Y-113783452D01*
X149831019Y-115454181D01*
X149858796Y-115508698D01*
X149860015Y-115524185D01*
X149860015Y-115624598D01*
X149885845Y-115720999D01*
X149894124Y-115751896D01*
X149960011Y-115866015D01*
X149960013Y-115866017D01*
X149960015Y-115866020D01*
X150053201Y-115959206D01*
X150053203Y-115959207D01*
X150053205Y-115959209D01*
X150167325Y-116025096D01*
X150167323Y-116025096D01*
X150167327Y-116025097D01*
X150167329Y-116025098D01*
X150294623Y-116059206D01*
X150294625Y-116059206D01*
X150426405Y-116059206D01*
X150426407Y-116059206D01*
X150553701Y-116025098D01*
X150553703Y-116025096D01*
X150553705Y-116025096D01*
X150667824Y-115959209D01*
X150667824Y-115959208D01*
X150667829Y-115959206D01*
X150761015Y-115866020D01*
X150761831Y-115864607D01*
X150826905Y-115751896D01*
X150826905Y-115751894D01*
X150826907Y-115751892D01*
X150861015Y-115624598D01*
X150861015Y-115492814D01*
X150826907Y-115365520D01*
X150826905Y-115365517D01*
X150826905Y-115365515D01*
X150761018Y-115251396D01*
X150761016Y-115251394D01*
X150761015Y-115251392D01*
X150667829Y-115158206D01*
X150667826Y-115158204D01*
X150667824Y-115158202D01*
X150553704Y-115092315D01*
X150553706Y-115092315D01*
X150504314Y-115079081D01*
X150426407Y-115058206D01*
X150325994Y-115058206D01*
X150267803Y-115039299D01*
X150255990Y-115029210D01*
X148019503Y-112792723D01*
X147991726Y-112738206D01*
X147990508Y-112722806D01*
X147987009Y-107644299D01*
X153805002Y-107644299D01*
X153805002Y-107848501D01*
X153807851Y-107878898D01*
X153807851Y-107878900D01*
X153852655Y-108006945D01*
X153933208Y-108116088D01*
X153933210Y-108116090D01*
X154042353Y-108196643D01*
X154170399Y-108241447D01*
X154200790Y-108244297D01*
X154629999Y-108244297D01*
X154630001Y-108244296D01*
X154630001Y-107644299D01*
X154830001Y-107644299D01*
X154830001Y-108244296D01*
X154830002Y-108244297D01*
X155259204Y-108244297D01*
X155289601Y-108241447D01*
X155289603Y-108241447D01*
X155417648Y-108196643D01*
X155526791Y-108116090D01*
X155526793Y-108116088D01*
X155607346Y-108006945D01*
X155652150Y-107878899D01*
X155655000Y-107848509D01*
X155655001Y-107848508D01*
X155655001Y-107644299D01*
X155655000Y-107644298D01*
X154830002Y-107644298D01*
X154830001Y-107644299D01*
X154630001Y-107644299D01*
X154630000Y-107644298D01*
X153805003Y-107644298D01*
X153805002Y-107644299D01*
X147987009Y-107644299D01*
X147986731Y-107240086D01*
X153805001Y-107240086D01*
X153805001Y-107444297D01*
X153805002Y-107444298D01*
X154630000Y-107444298D01*
X154630001Y-107444297D01*
X154630001Y-106844299D01*
X154830001Y-106844299D01*
X154830001Y-107444297D01*
X154830002Y-107444298D01*
X155654999Y-107444298D01*
X155655000Y-107444297D01*
X155655000Y-107240094D01*
X155652150Y-107209697D01*
X155652150Y-107209695D01*
X155607346Y-107081650D01*
X155526793Y-106972507D01*
X155526791Y-106972505D01*
X155417648Y-106891952D01*
X155289602Y-106847148D01*
X155259212Y-106844298D01*
X154830002Y-106844298D01*
X154830001Y-106844299D01*
X154630001Y-106844299D01*
X154630000Y-106844298D01*
X154200797Y-106844298D01*
X154170400Y-106847148D01*
X154170398Y-106847148D01*
X154042353Y-106891952D01*
X153933210Y-106972505D01*
X153933208Y-106972507D01*
X153852655Y-107081650D01*
X153807851Y-107209696D01*
X153805001Y-107240086D01*
X147986731Y-107240086D01*
X147984570Y-104103144D01*
X148003437Y-104044941D01*
X148052912Y-104008943D01*
X148083497Y-104004077D01*
X154059069Y-103999960D01*
X154117272Y-104018827D01*
X154153269Y-104068302D01*
X154154762Y-104073336D01*
X154170422Y-104131780D01*
X154170422Y-104131781D01*
X154174012Y-104137999D01*
X154249481Y-104268716D01*
X154300506Y-104319741D01*
X154328282Y-104374256D01*
X154329501Y-104389743D01*
X154329501Y-104844798D01*
X154310594Y-104902989D01*
X154261094Y-104938953D01*
X154230501Y-104943798D01*
X154200726Y-104943798D01*
X154170306Y-104946651D01*
X154170297Y-104946653D01*
X154042117Y-104991505D01*
X153932856Y-105072143D01*
X153932846Y-105072153D01*
X153852208Y-105181414D01*
X153807356Y-105309594D01*
X153807354Y-105309603D01*
X153804501Y-105340023D01*
X153804501Y-105948572D01*
X153807354Y-105978992D01*
X153807356Y-105979001D01*
X153852208Y-106107181D01*
X153932846Y-106216442D01*
X153932848Y-106216444D01*
X153932851Y-106216448D01*
X153932854Y-106216450D01*
X153932856Y-106216452D01*
X154042117Y-106297090D01*
X154042118Y-106297090D01*
X154042119Y-106297091D01*
X154170302Y-106341944D01*
X154200726Y-106344797D01*
X154200728Y-106344798D01*
X154200735Y-106344798D01*
X155259274Y-106344798D01*
X155259274Y-106344797D01*
X155289700Y-106341944D01*
X155417883Y-106297091D01*
X155527151Y-106216448D01*
X155607794Y-106107180D01*
X155607794Y-106107177D01*
X155611259Y-106100624D01*
X155613498Y-106101807D01*
X155643485Y-106062422D01*
X155699866Y-106044799D01*
X156026313Y-106044799D01*
X156084504Y-106063706D01*
X156096310Y-106073789D01*
X156106017Y-106083496D01*
X156154464Y-106107180D01*
X156211104Y-106134870D01*
X156211105Y-106134870D01*
X156211107Y-106134871D01*
X156279240Y-106144798D01*
X156279243Y-106144798D01*
X157370757Y-106144798D01*
X157370760Y-106144798D01*
X157438893Y-106134871D01*
X157543983Y-106083496D01*
X157626698Y-106000781D01*
X157678073Y-105895691D01*
X157688000Y-105827558D01*
X157688000Y-105461038D01*
X157678073Y-105392905D01*
X157626698Y-105287815D01*
X157543983Y-105205100D01*
X157536257Y-105201323D01*
X157438895Y-105153725D01*
X157411639Y-105149754D01*
X157370760Y-105143798D01*
X156279240Y-105143798D01*
X156245173Y-105148761D01*
X156211104Y-105153725D01*
X156106018Y-105205099D01*
X156106017Y-105205099D01*
X156106017Y-105205100D01*
X156096312Y-105214804D01*
X156041798Y-105242580D01*
X156026311Y-105243799D01*
X155699867Y-105243799D01*
X155641676Y-105224892D01*
X155613379Y-105186851D01*
X155611259Y-105187972D01*
X155607793Y-105181414D01*
X155527155Y-105072153D01*
X155527153Y-105072151D01*
X155527151Y-105072148D01*
X155527147Y-105072145D01*
X155527145Y-105072143D01*
X155417884Y-104991505D01*
X155289704Y-104946653D01*
X155289695Y-104946651D01*
X155259275Y-104943798D01*
X155259267Y-104943798D01*
X155229501Y-104943798D01*
X155171310Y-104924891D01*
X155135346Y-104875391D01*
X155130501Y-104844798D01*
X155130501Y-104389743D01*
X155149408Y-104331552D01*
X155159491Y-104319745D01*
X155210521Y-104268716D01*
X155289578Y-104131784D01*
X155305487Y-104072409D01*
X155338808Y-104021098D01*
X155395929Y-103999171D01*
X155401015Y-103999035D01*
X156280006Y-103998430D01*
X156338207Y-104017296D01*
X156338859Y-104017774D01*
X156437116Y-104090291D01*
X156437117Y-104090291D01*
X156437118Y-104090292D01*
X156565301Y-104135145D01*
X156595725Y-104137998D01*
X156595727Y-104137999D01*
X156595734Y-104137999D01*
X157604273Y-104137999D01*
X157604273Y-104137998D01*
X157634699Y-104135145D01*
X157762882Y-104090292D01*
X157862673Y-104016642D01*
X157920720Y-103997301D01*
X157921094Y-103997299D01*
X158278141Y-103997053D01*
X158336340Y-104015919D01*
G37*
%TD.AperFunction*%
%TD*%
M02*
