%TF.GenerationSoftware,KiCad,Pcbnew,10.0.1*%
%TF.CreationDate,2026-08-09T13:27:48+02:00*%
%TF.ProjectId,psu-ext,7073752d-6578-4742-9e6b-696361645f70,1.2.0*%
%TF.SameCoordinates,Original*%
%TF.FileFunction,Soldermask,Top*%
%TF.FilePolarity,Negative*%
%FSLAX46Y46*%
G04 Gerber Fmt 4.6, Leading zero omitted, Abs format (unit mm)*
G04 Created by KiCad (PCBNEW 10.0.1) date 2026-08-09 13:27:48*
%MOMM*%
%LPD*%
G01*
G04 APERTURE LIST*
G04 Aperture macros list*
%AMRoundRect*
0 Rectangle with rounded corners*
0 $1 Rounding radius*
0 $2 $3 $4 $5 $6 $7 $8 $9 X,Y pos of 4 corners*
0 Add a 4 corners polygon primitive as box body*
4,1,4,$2,$3,$4,$5,$6,$7,$8,$9,$2,$3,0*
0 Add four circle primitives for the rounded corners*
1,1,$1+$1,$2,$3*
1,1,$1+$1,$4,$5*
1,1,$1+$1,$6,$7*
1,1,$1+$1,$8,$9*
0 Add four rect primitives between the rounded corners*
20,1,$1+$1,$2,$3,$4,$5,0*
20,1,$1+$1,$4,$5,$6,$7,0*
20,1,$1+$1,$6,$7,$8,$9,0*
20,1,$1+$1,$8,$9,$2,$3,0*%
G04 Aperture macros list end*
%ADD10C,0.010000*%
%ADD11RoundRect,0.250000X0.475000X-0.250000X0.475000X0.250000X-0.475000X0.250000X-0.475000X-0.250000X0*%
%ADD12RoundRect,0.250000X0.412500X0.650000X-0.412500X0.650000X-0.412500X-0.650000X0.412500X-0.650000X0*%
%ADD13RoundRect,0.250000X-0.450000X0.262500X-0.450000X-0.262500X0.450000X-0.262500X0.450000X0.262500X0*%
%ADD14RoundRect,0.150000X0.825000X0.150000X-0.825000X0.150000X-0.825000X-0.150000X0.825000X-0.150000X0*%
%ADD15RoundRect,0.250000X-0.250000X-0.475000X0.250000X-0.475000X0.250000X0.475000X-0.250000X0.475000X0*%
%ADD16RoundRect,0.162500X-0.650000X-0.162500X0.650000X-0.162500X0.650000X0.162500X-0.650000X0.162500X0*%
%ADD17RoundRect,0.150000X0.150000X-0.825000X0.150000X0.825000X-0.150000X0.825000X-0.150000X-0.825000X0*%
%ADD18RoundRect,0.375000X0.625000X0.375000X-0.625000X0.375000X-0.625000X-0.375000X0.625000X-0.375000X0*%
%ADD19RoundRect,0.500000X0.500000X1.400000X-0.500000X1.400000X-0.500000X-1.400000X0.500000X-1.400000X0*%
%ADD20RoundRect,0.250000X-0.475000X0.250000X-0.475000X-0.250000X0.475000X-0.250000X0.475000X0.250000X0*%
%ADD21RoundRect,0.102000X0.900000X-0.500000X0.900000X0.500000X-0.900000X0.500000X-0.900000X-0.500000X0*%
%ADD22RoundRect,0.102000X0.754000X0.754000X-0.754000X0.754000X-0.754000X-0.754000X0.754000X-0.754000X0*%
%ADD23C,1.712000*%
%ADD24C,2.004000*%
%ADD25RoundRect,0.250000X-0.275000X-0.750000X0.275000X-0.750000X0.275000X0.750000X-0.275000X0.750000X0*%
%ADD26RoundRect,0.250000X0.250000X0.475000X-0.250000X0.475000X-0.250000X-0.475000X0.250000X-0.475000X0*%
%ADD27RoundRect,0.243750X0.243750X0.456250X-0.243750X0.456250X-0.243750X-0.456250X0.243750X-0.456250X0*%
%ADD28RoundRect,0.243750X-0.456250X0.243750X-0.456250X-0.243750X0.456250X-0.243750X0.456250X0.243750X0*%
%ADD29C,1.300000*%
%ADD30R,1.700000X1.700000*%
%ADD31C,1.700000*%
%ADD32RoundRect,0.249999X1.425001X-0.450001X1.425001X0.450001X-1.425001X0.450001X-1.425001X-0.450001X0*%
%ADD33RoundRect,0.250000X-0.262500X-0.450000X0.262500X-0.450000X0.262500X0.450000X-0.262500X0.450000X0*%
%ADD34R,1.500000X0.900000*%
%ADD35R,0.900000X1.500000*%
%ADD36C,0.600000*%
%ADD37R,3.900000X3.900000*%
%ADD38C,5.700000*%
%ADD39C,1.500000*%
%ADD40RoundRect,0.250000X0.262500X0.450000X-0.262500X0.450000X-0.262500X-0.450000X0.262500X-0.450000X0*%
%ADD41RoundRect,0.250000X1.250000X0.550000X-1.250000X0.550000X-1.250000X-0.550000X1.250000X-0.550000X0*%
%ADD42O,1.104000X2.204000*%
%ADD43O,1.104000X1.904000*%
%ADD44RoundRect,0.150000X-0.512500X-0.150000X0.512500X-0.150000X0.512500X0.150000X-0.512500X0.150000X0*%
%ADD45C,7.600000*%
%ADD46RoundRect,0.150000X-0.150000X0.512500X-0.150000X-0.512500X0.150000X-0.512500X0.150000X0.512500X0*%
%ADD47RoundRect,0.250000X-0.650000X0.325000X-0.650000X-0.325000X0.650000X-0.325000X0.650000X0.325000X0*%
%ADD48RoundRect,0.250000X0.450000X-0.262500X0.450000X0.262500X-0.450000X0.262500X-0.450000X-0.262500X0*%
%ADD49RoundRect,0.075000X-0.650000X-0.075000X0.650000X-0.075000X0.650000X0.075000X-0.650000X0.075000X0*%
%ADD50RoundRect,0.250000X0.550000X-1.250000X0.550000X1.250000X-0.550000X1.250000X-0.550000X-1.250000X0*%
%ADD51RoundRect,0.250000X-0.503814X-0.132583X-0.132583X-0.503814X0.503814X0.132583X0.132583X0.503814X0*%
%ADD52RoundRect,0.243750X-0.243750X-0.456250X0.243750X-0.456250X0.243750X0.456250X-0.243750X0.456250X0*%
%ADD53RoundRect,0.250000X-0.325000X-0.650000X0.325000X-0.650000X0.325000X0.650000X-0.325000X0.650000X0*%
G04 APERTURE END LIST*
D10*
%TO.C,J1*%
X187149999Y-92469995D02*
X186449999Y-92469994D01*
X186449999Y-91229995D01*
X187149999Y-91229995D01*
X187149999Y-92469995D01*
G36*
X187149999Y-92469995D02*
G01*
X186449999Y-92469994D01*
X186449999Y-91229995D01*
X187149999Y-91229995D01*
X187149999Y-92469995D01*
G37*
X187950000Y-92469995D02*
X187249999Y-92469995D01*
X187249999Y-91229995D01*
X187949999Y-91229995D01*
X187950000Y-92469995D01*
G36*
X187950000Y-92469995D02*
G01*
X187249999Y-92469995D01*
X187249999Y-91229995D01*
X187949999Y-91229995D01*
X187950000Y-92469995D01*
G37*
X188449999Y-92469995D02*
X188049999Y-92469995D01*
X188049999Y-91229995D01*
X188449998Y-91229995D01*
X188449999Y-92469995D01*
G36*
X188449999Y-92469995D02*
G01*
X188049999Y-92469995D01*
X188049999Y-91229995D01*
X188449998Y-91229995D01*
X188449999Y-92469995D01*
G37*
X188949998Y-92469995D02*
X188549999Y-92469995D01*
X188549999Y-91229995D01*
X188949999Y-91229995D01*
X188949998Y-92469995D01*
G36*
X188949998Y-92469995D02*
G01*
X188549999Y-92469995D01*
X188549999Y-91229995D01*
X188949999Y-91229995D01*
X188949998Y-92469995D01*
G37*
X189449999Y-92469995D02*
X189049999Y-92469995D01*
X189050000Y-91229995D01*
X189449999Y-91229995D01*
X189449999Y-92469995D01*
G36*
X189449999Y-92469995D02*
G01*
X189049999Y-92469995D01*
X189050000Y-91229995D01*
X189449999Y-91229995D01*
X189449999Y-92469995D01*
G37*
X189949999Y-92469995D02*
X189549999Y-92469994D01*
X189549999Y-91229995D01*
X189949999Y-91229995D01*
X189949999Y-92469995D01*
G36*
X189949999Y-92469995D02*
G01*
X189549999Y-92469994D01*
X189549999Y-91229995D01*
X189949999Y-91229995D01*
X189949999Y-92469995D01*
G37*
X190449999Y-92469994D02*
X190049999Y-92469995D01*
X190049999Y-91229995D01*
X190449999Y-91229995D01*
X190449999Y-92469994D01*
G36*
X190449999Y-92469994D02*
G01*
X190049999Y-92469995D01*
X190049999Y-91229995D01*
X190449999Y-91229995D01*
X190449999Y-92469994D01*
G37*
X190949999Y-92469995D02*
X190549999Y-92469995D01*
X190549999Y-91229995D01*
X190949998Y-91229995D01*
X190949999Y-92469995D01*
G36*
X190949999Y-92469995D02*
G01*
X190549999Y-92469995D01*
X190549999Y-91229995D01*
X190949998Y-91229995D01*
X190949999Y-92469995D01*
G37*
X191449999Y-92469995D02*
X191050000Y-92469995D01*
X191049999Y-91229995D01*
X191449999Y-91229995D01*
X191449999Y-92469995D01*
G36*
X191449999Y-92469995D02*
G01*
X191050000Y-92469995D01*
X191049999Y-91229995D01*
X191449999Y-91229995D01*
X191449999Y-92469995D01*
G37*
X191949999Y-92469995D02*
X191549999Y-92469995D01*
X191550000Y-91229995D01*
X191949999Y-91229995D01*
X191949999Y-92469995D01*
G36*
X191949999Y-92469995D02*
G01*
X191549999Y-92469995D01*
X191550000Y-91229995D01*
X191949999Y-91229995D01*
X191949999Y-92469995D01*
G37*
X192749999Y-92469995D02*
X192049998Y-92469995D01*
X192049999Y-91229995D01*
X192749999Y-91229995D01*
X192749999Y-92469995D01*
G36*
X192749999Y-92469995D02*
G01*
X192049998Y-92469995D01*
X192049999Y-91229995D01*
X192749999Y-91229995D01*
X192749999Y-92469995D01*
G37*
X193549999Y-92469994D02*
X192849999Y-92469995D01*
X192849999Y-91229995D01*
X193549999Y-91229995D01*
X193549999Y-92469994D01*
G36*
X193549999Y-92469994D02*
G01*
X192849999Y-92469995D01*
X192849999Y-91229995D01*
X193549999Y-91229995D01*
X193549999Y-92469994D01*
G37*
%TD*%
D11*
%TO.C,C12*%
X198600000Y-132329996D03*
X198600000Y-130429996D03*
%TD*%
D12*
%TO.C,C7*%
X163062500Y-93500000D03*
X159937500Y-93500000D03*
%TD*%
D13*
%TO.C,R2*%
X185450000Y-96049995D03*
X185450000Y-97874995D03*
%TD*%
D11*
%TO.C,C2*%
X174944357Y-92497300D03*
X174944357Y-90597300D03*
%TD*%
D14*
%TO.C,U6*%
X169975000Y-122910000D03*
X169975000Y-121640000D03*
X169975000Y-120370000D03*
X169975000Y-119100000D03*
X165025000Y-119100000D03*
X165025000Y-120370000D03*
X165025000Y-121640000D03*
X165025000Y-122910000D03*
%TD*%
D15*
%TO.C,C29*%
X152206740Y-118500000D03*
X154106740Y-118500000D03*
%TD*%
D12*
%TO.C,C8*%
X163062500Y-96000000D03*
X159937500Y-96000000D03*
%TD*%
D15*
%TO.C,C18*%
X198950000Y-125321902D03*
X200850000Y-125321902D03*
%TD*%
D16*
%TO.C,U9*%
X181412500Y-108094996D03*
X181412500Y-109364996D03*
X181412500Y-110634996D03*
X181412500Y-111904996D03*
X188587500Y-111904996D03*
X188587500Y-110634996D03*
X188587500Y-109364996D03*
X188587500Y-108094996D03*
%TD*%
D17*
%TO.C,U8*%
X152190000Y-112494297D03*
X153460000Y-112494297D03*
X154730000Y-112494297D03*
X156000000Y-112494297D03*
X156000000Y-107544297D03*
X154730000Y-107544297D03*
X153460000Y-107544297D03*
X152190000Y-107544297D03*
%TD*%
D18*
%TO.C,U3*%
X174940001Y-102209996D03*
X174940001Y-99909996D03*
D19*
X168640001Y-99909996D03*
D18*
X174940001Y-97609996D03*
%TD*%
D20*
%TO.C,C26*%
X150046271Y-109049996D03*
X150046271Y-110949996D03*
%TD*%
D21*
%TO.C,Y1*%
X196999999Y-125321900D03*
X196999999Y-122821902D03*
%TD*%
D22*
%TO.C,K1*%
X150355000Y-132400000D03*
D23*
X147815000Y-132400000D03*
D24*
X140195000Y-132400000D03*
X132575000Y-132400000D03*
%TD*%
D25*
%TO.C,SW1*%
X202675000Y-109999996D03*
X207125000Y-109999996D03*
%TD*%
D26*
%TO.C,C25*%
X154730001Y-105200000D03*
X152830001Y-105200000D03*
%TD*%
D13*
%TO.C,R1*%
X195000000Y-96049995D03*
X195000000Y-97874995D03*
%TD*%
D27*
%TO.C,D3*%
X207637500Y-98449995D03*
X205762500Y-98449995D03*
%TD*%
D15*
%TO.C,C19*%
X198950000Y-122821902D03*
X200850000Y-122821902D03*
%TD*%
D28*
%TO.C,D2*%
X180093140Y-86474995D03*
X180093140Y-88349995D03*
%TD*%
D15*
%TO.C,C20*%
X169974999Y-125000004D03*
X171874999Y-125000004D03*
%TD*%
D20*
%TO.C,C10*%
X156649016Y-94700000D03*
X156649016Y-96600000D03*
%TD*%
D29*
%TO.C,H11*%
X122075000Y-132900000D03*
%TD*%
D30*
%TO.C,J4*%
X204725000Y-122796902D03*
D31*
X207265000Y-122796902D03*
X204725000Y-125336902D03*
X207265000Y-125336902D03*
%TD*%
D32*
%TO.C,R30*%
X142600000Y-113049995D03*
X142600000Y-106949995D03*
%TD*%
D33*
%TO.C,R15*%
X202174999Y-98449995D03*
X203999999Y-98449995D03*
%TD*%
D34*
%TO.C,U5*%
X193750000Y-133599995D03*
X193750000Y-132329995D03*
X193750000Y-131059995D03*
X193750000Y-129789995D03*
X193750000Y-128519995D03*
X193750000Y-127249995D03*
X193750000Y-125979995D03*
X193750000Y-124709995D03*
X193750000Y-123439995D03*
X193750000Y-122169995D03*
X193750000Y-120899995D03*
X193750000Y-119629995D03*
X193750000Y-118359995D03*
X193750000Y-117089995D03*
D35*
X191985000Y-115839995D03*
X190715000Y-115839995D03*
X189445000Y-115839995D03*
X188175000Y-115839995D03*
X186905000Y-115839995D03*
X185635000Y-115839995D03*
X184365000Y-115839995D03*
X183095000Y-115839995D03*
X181825000Y-115839995D03*
X180555000Y-115839995D03*
X179285000Y-115839995D03*
X178015000Y-115839995D03*
D34*
X176250000Y-117089995D03*
X176250000Y-118359995D03*
X176250000Y-119629995D03*
X176250000Y-120899995D03*
X176250000Y-122169995D03*
X176250000Y-123439995D03*
X176250000Y-124709995D03*
X176250000Y-125979995D03*
X176250000Y-127249995D03*
X176250000Y-128519995D03*
X176250000Y-129789995D03*
X176250000Y-131059995D03*
X176250000Y-132329995D03*
X176250000Y-133599995D03*
D36*
X187900000Y-126579995D03*
X187900000Y-125179995D03*
X187200000Y-127279995D03*
X187200000Y-125879995D03*
X187200000Y-124479995D03*
X186500000Y-126579995D03*
D37*
X186500000Y-125879995D03*
D36*
X186500000Y-125179995D03*
X185800000Y-127279995D03*
X185800000Y-125879995D03*
X185800000Y-124479995D03*
X185100000Y-126579995D03*
X185100000Y-125179995D03*
%TD*%
D38*
%TO.C,H7*%
X114000003Y-130999997D03*
%TD*%
D39*
%TO.C,TP1*%
X199100000Y-92399995D03*
%TD*%
D38*
%TO.C,H5*%
X206000000Y-130999996D03*
%TD*%
D20*
%TO.C,C22*%
X159000000Y-124000001D03*
X159000000Y-125900001D03*
%TD*%
D29*
%TO.C,H10*%
X123999999Y-87200000D03*
%TD*%
D28*
%TO.C,D1*%
X197100000Y-86474995D03*
X197100000Y-88349995D03*
%TD*%
D40*
%TO.C,R28*%
X147912500Y-108499995D03*
X146087500Y-108499995D03*
%TD*%
D38*
%TO.C,H6*%
X206000000Y-88999996D03*
%TD*%
D13*
%TO.C,R13*%
X190650000Y-107537496D03*
X190650000Y-109362496D03*
%TD*%
D41*
%TO.C,C9*%
X151400000Y-89199995D03*
X147000000Y-89199995D03*
%TD*%
D22*
%TO.C,PS1*%
X163850000Y-86999995D03*
D23*
X161310000Y-86999995D03*
X158770000Y-86999995D03*
X156230000Y-86999996D03*
%TD*%
D39*
%TO.C,TP6*%
X157600000Y-101400000D03*
%TD*%
D33*
%TO.C,R40*%
X154137500Y-129772893D03*
X155962500Y-129772893D03*
%TD*%
D42*
%TO.C,J1*%
X194324999Y-91269995D03*
X185674999Y-91269995D03*
D43*
X194324999Y-87099995D03*
X185674999Y-87099995D03*
%TD*%
D30*
%TO.C,J2*%
X169999999Y-133199995D03*
D31*
X167459999Y-133199995D03*
X164919999Y-133199995D03*
%TD*%
D40*
%TO.C,R29*%
X147912499Y-111499995D03*
X146087499Y-111499995D03*
%TD*%
D44*
%TO.C,U2*%
X177820545Y-92497301D03*
X177820545Y-93447301D03*
X177820545Y-94397301D03*
X180095545Y-94397301D03*
X180095545Y-92497301D03*
%TD*%
D29*
%TO.C,H9*%
X207800000Y-101600000D03*
%TD*%
D13*
%TO.C,R3*%
X199500000Y-86474995D03*
X199500000Y-88299995D03*
%TD*%
D26*
%TO.C,C21*%
X165025001Y-125000000D03*
X163125001Y-125000000D03*
%TD*%
D39*
%TO.C,TP3*%
X172140000Y-93789996D03*
%TD*%
D27*
%TO.C,D4*%
X207637500Y-96249995D03*
X205762500Y-96249995D03*
%TD*%
D39*
%TO.C,TP4*%
X166030000Y-99909996D03*
%TD*%
D11*
%TO.C,C13*%
X196600000Y-132329995D03*
X196600000Y-130429995D03*
%TD*%
D33*
%TO.C,R16*%
X202174999Y-96249995D03*
X203999999Y-96249995D03*
%TD*%
D15*
%TO.C,C17*%
X186687500Y-105799996D03*
X188587500Y-105799996D03*
%TD*%
D13*
%TO.C,R35*%
X152900000Y-124000000D03*
X152900000Y-125825000D03*
%TD*%
D18*
%TO.C,U4*%
X154150000Y-99300000D03*
X154150000Y-97000000D03*
D19*
X147850000Y-97000000D03*
D18*
X154150000Y-94700000D03*
%TD*%
D45*
%TO.C,H4*%
X117420000Y-100499996D03*
%TD*%
D26*
%TO.C,C28*%
X151200001Y-124000000D03*
X149300001Y-124000000D03*
%TD*%
D46*
%TO.C,U1*%
X190950000Y-95824995D03*
X190000000Y-95824995D03*
X189050000Y-95824995D03*
X189050000Y-98099995D03*
X190000000Y-98099995D03*
X190950000Y-98099995D03*
%TD*%
D45*
%TO.C,H3*%
X117420000Y-119549995D03*
%TD*%
D38*
%TO.C,H8*%
X114000003Y-88999995D03*
%TD*%
D47*
%TO.C,C5*%
X178244796Y-99912136D03*
X178244796Y-102862136D03*
%TD*%
D48*
%TO.C,R5*%
X177746734Y-88299995D03*
X177746734Y-86474995D03*
%TD*%
D20*
%TO.C,C23*%
X156999999Y-123999999D03*
X156999999Y-125899999D03*
%TD*%
D25*
%TO.C,SW2*%
X202675000Y-104999996D03*
X207125000Y-104999996D03*
%TD*%
D49*
%TO.C,U7*%
X152900000Y-120370000D03*
X152900000Y-120870000D03*
X152900000Y-121370000D03*
X152900000Y-121870000D03*
X152900000Y-122370000D03*
X157200000Y-122370000D03*
X157200000Y-121870000D03*
X157200000Y-121370000D03*
X157200000Y-120870000D03*
X157200000Y-120370000D03*
%TD*%
D48*
%TO.C,R39*%
X150359073Y-118493259D03*
X150359073Y-116668259D03*
%TD*%
D50*
%TO.C,C3*%
X169860000Y-91399995D03*
X169860000Y-86999995D03*
%TD*%
D48*
%TO.C,R4*%
X182414759Y-94322300D03*
X182414759Y-92497300D03*
%TD*%
D51*
%TO.C,R18*%
X203454765Y-116954761D03*
X204745235Y-118245231D03*
%TD*%
D45*
%TO.C,H2*%
X136470000Y-100499995D03*
%TD*%
D52*
%TO.C,D11*%
X154087500Y-132000000D03*
X155962500Y-132000000D03*
%TD*%
D53*
%TO.C,C11*%
X147850002Y-101993037D03*
X150800002Y-101993037D03*
%TD*%
D45*
%TO.C,H1*%
X136470000Y-119549996D03*
%TD*%
D51*
%TO.C,R17*%
X205974530Y-116554760D03*
X207265000Y-117845230D03*
%TD*%
D15*
%TO.C,C4*%
X177277533Y-97610605D03*
X179177533Y-97610605D03*
%TD*%
D26*
%TO.C,C1*%
X180100000Y-90397301D03*
X178200000Y-90397301D03*
%TD*%
M02*
